<svg xmlns="http://www.w3.org/2000/svg" xmlns:xlink="http://www.w3.org/1999/xlink" width="240" height="320" viewBox="0 0 240 320">
    <defs>
        <path id="2fsqd4opoa" d="M0 0L240 0 240 320 0 320z"/>
        <path id="77v5b69s4c" d="M0 0L72 0 72 144 0 144z"/>
    </defs>
    <g fill="none" fill-rule="evenodd">
        <g>
            <g transform="translate(-736 -8789) translate(736 8789)">
                <mask id="enyed1yfxb" fill="#fff">
                    <use xlink:href="#2fsqd4opoa"/>
                </mask>
                <use fill="#FF5601" xlink:href="#2fsqd4opoa"/>
                <g mask="url(#enyed1yfxb)">
                    <g>
                        <g transform="translate(88 27) translate(0 61.47)">
                            <g>
                                <g>
                                    <mask id="3m9cnmsdgd" fill="#fff">
                                        <use xlink:href="#77v5b69s4c"/>
                                    </mask>
                                    <use fill="#F5F5F5" xlink:href="#77v5b69s4c"/>
                                    <path fill="#0F0F10" fill-rule="nonzero" d="M-30.612-9.624c1.71 0 3.15-1.332 3.15-3.114 0-1.8-1.44-3.132-3.15-3.132s-3.168 1.314-3.168 3.132c0 1.8 1.458 3.114 3.168 3.114zm.54 6.624L-21-15.672h-1.692L-31.764-3h1.692zm-.54-7.974c-.954 0-1.782-.756-1.782-1.764 0-1.026.828-1.782 1.782-1.782.936 0 1.764.756 1.764 1.782 0 1.008-.828 1.764-1.764 1.764zm8.46 8.172c1.728 0 3.168-1.332 3.168-3.132s-1.458-3.114-3.168-3.114c-1.71 0-3.15 1.332-3.15 3.114 0 1.8 1.44 3.132 3.15 3.132zm0-1.35c-.936 0-1.764-.756-1.764-1.782 0-1.008.828-1.764 1.764-1.764.954 0 1.782.756 1.782 1.764 0 1.026-.828 1.782-1.782 1.782zm7.776-5.472c1.71 0 3.15-1.332 3.15-3.114 0-1.8-1.44-3.132-3.15-3.132s-3.168 1.314-3.168 3.132c0 1.8 1.458 3.114 3.168 3.114zm.54 6.624l9.072-12.672h-1.692L-15.528-3h1.692zm-.54-7.974c-.954 0-1.782-.756-1.782-1.764 0-1.026.828-1.782 1.782-1.782.936 0 1.764.756 1.764 1.782 0 1.008-.828 1.764-1.764 1.764zm8.46 8.172c1.728 0 3.168-1.332 3.168-3.132s-1.458-3.114-3.168-3.114c-1.71 0-3.15 1.332-3.15 3.114 0 1.8 1.44 3.132 3.15 3.132zm0-1.35c-.936 0-1.764-.756-1.764-1.782 0-1.008.828-1.764 1.764-1.764.954 0 1.782.756 1.782 1.764 0 1.026-.828 1.782-1.782 1.782zM1.86-9.624c1.71 0 3.15-1.332 3.15-3.114 0-1.8-1.44-3.132-3.15-3.132s-3.168 1.314-3.168 3.132c0 1.8 1.458 3.114 3.168 3.114zM2.4-3l9.072-12.672H9.78L.708-3H2.4zm-.54-7.974c-.954 0-1.782-.756-1.782-1.764 0-1.026.828-1.782 1.782-1.782.936 0 1.764.756 1.764 1.782 0 1.008-.828 1.764-1.764 1.764zm8.46 8.172c1.728 0 3.168-1.332 3.168-3.132S12.03-9.048 10.32-9.048c-1.71 0-3.15 1.332-3.15 3.114 0 1.8 1.44 3.132 3.15 3.132zm0-1.35c-.936 0-1.764-.756-1.764-1.782 0-1.008.828-1.764 1.764-1.764.954 0 1.782.756 1.782 1.764 0 1.026-.828 1.782-1.782 1.782zm7.776-5.472c1.71 0 3.15-1.332 3.15-3.114 0-1.8-1.44-3.132-3.15-3.132s-3.168 1.314-3.168 3.132c0 1.8 1.458 3.114 3.168 3.114zM18.636-3l9.072-12.672h-1.692L16.944-3h1.692zm-.54-7.974c-.954 0-1.782-.756-1.782-1.764 0-1.026.828-1.782 1.782-1.782.936 0 1.764.756 1.764 1.782 0 1.008-.828 1.764-1.764 1.764zm8.46 8.172c1.728 0 3.168-1.332 3.168-3.132s-1.458-3.114-3.168-3.114c-1.71 0-3.15 1.332-3.15 3.114 0 1.8 1.44 3.132 3.15 3.132zm0-1.35c-.936 0-1.764-.756-1.764-1.782 0-1.008.828-1.764 1.764-1.764.954 0 1.782.756 1.782 1.764 0 1.026-.828 1.782-1.782 1.782zm7.776-5.472c1.71 0 3.15-1.332 3.15-3.114 0-1.8-1.44-3.132-3.15-3.132s-3.168 1.314-3.168 3.132c0 1.8 1.458 3.114 3.168 3.114zM34.872-3l9.072-12.672h-1.692L33.18-3h1.692zm-.54-7.974c-.954 0-1.782-.756-1.782-1.764 0-1.026.828-1.782 1.782-1.782.936 0 1.764.756 1.764 1.782 0 1.008-.828 1.764-1.764 1.764zm8.46 8.172c1.728 0 3.168-1.332 3.168-3.132s-1.458-3.114-3.168-3.114c-1.71 0-3.15 1.332-3.15 3.114 0 1.8 1.44 3.132 3.15 3.132zm0-1.35c-.936 0-1.764-.756-1.764-1.782 0-1.008.828-1.764 1.764-1.764.954 0 1.782.756 1.782 1.764 0 1.026-.828 1.782-1.782 1.782zm7.776-5.472c1.71 0 3.15-1.332 3.15-3.114 0-1.8-1.44-3.132-3.15-3.132S47.4-14.556 47.4-12.738c0 1.8 1.458 3.114 3.168 3.114zM51.108-3l9.072-12.672h-1.692L49.416-3h1.692zm-.54-7.974c-.954 0-1.782-.756-1.782-1.764 0-1.026.828-1.782 1.782-1.782.936 0 1.764.756 1.764 1.782 0 1.008-.828 1.764-1.764 1.764zm8.46 8.172c1.728 0 3.168-1.332 3.168-3.132s-1.458-3.114-3.168-3.114c-1.71 0-3.15 1.332-3.15 3.114 0 1.8 1.44 3.132 3.15 3.132zm0-1.35c-.936 0-1.764-.756-1.764-1.782 0-1.008.828-1.764 1.764-1.764.954 0 1.782.756 1.782 1.764 0 1.026-.828 1.782-1.782 1.782zm7.776-5.472c1.71 0 3.15-1.332 3.15-3.114 0-1.8-1.44-3.132-3.15-3.132s-3.168 1.314-3.168 3.132c0 1.8 1.458 3.114 3.168 3.114zM67.344-3l9.072-12.672h-1.692L65.652-3h1.692zm-.54-7.974c-.954 0-1.782-.756-1.782-1.764 0-1.026.828-1.782 1.782-1.782.936 0 1.764.756 1.764 1.782 0 1.008-.828 1.764-1.764 1.764zm8.46 8.172c1.728 0 3.168-1.332 3.168-3.132s-1.458-3.114-3.168-3.114c-1.71 0-3.15 1.332-3.15 3.114 0 1.8 1.44 3.132 3.15 3.132zm0-1.35c-.936 0-1.764-.756-1.764-1.782 0-1.008.828-1.764 1.764-1.764.954 0 1.782.756 1.782 1.764 0 1.026-.828 1.782-1.782 1.782zm7.776-5.472c1.71 0 3.15-1.332 3.15-3.114 0-1.8-1.44-3.132-3.15-3.132s-3.168 1.314-3.168 3.132c0 1.8 1.458 3.114 3.168 3.114zM83.58-3l9.072-12.672H90.96L81.888-3h1.692zm-.54-7.974c-.954 0-1.782-.756-1.782-1.764 0-1.026.828-1.782 1.782-1.782.936 0 1.764.756 1.764 1.782 0 1.008-.828 1.764-1.764 1.764zm8.46 8.172c1.728 0 3.168-1.332 3.168-3.132S93.21-9.048 91.5-9.048c-1.71 0-3.15 1.332-3.15 3.114 0 1.8 1.44 3.132 3.15 3.132zm0-1.35c-.936 0-1.764-.756-1.764-1.782 0-1.008.828-1.764 1.764-1.764.954 0 1.782.756 1.782 1.764 0 1.026-.828 1.782-1.782 1.782zM-30.612 6.876c1.71 0 3.15-1.332 3.15-3.114 0-1.8-1.44-3.132-3.15-3.132s-3.168 1.314-3.168 3.132c0 1.8 1.458 3.114 3.168 3.114zm.54 6.624L-21 .828h-1.692L-31.764 13.5h1.692zm-.54-7.974c-.954 0-1.782-.756-1.782-1.764 0-1.026.828-1.782 1.782-1.782.936 0 1.764.756 1.764 1.782 0 1.008-.828 1.764-1.764 1.764zm8.46 8.172c1.728 0 3.168-1.332 3.168-3.132s-1.458-3.114-3.168-3.114c-1.71 0-3.15 1.332-3.15 3.114 0 1.8 1.44 3.132 3.15 3.132zm0-1.35c-.936 0-1.764-.756-1.764-1.782 0-1.008.828-1.764 1.764-1.764.954 0 1.782.756 1.782 1.764 0 1.026-.828 1.782-1.782 1.782zm7.776-5.472c1.71 0 3.15-1.332 3.15-3.114 0-1.8-1.44-3.132-3.15-3.132s-3.168 1.314-3.168 3.132c0 1.8 1.458 3.114 3.168 3.114zm.54 6.624L-4.764.828h-1.692L-15.528 13.5h1.692zm-.54-7.974c-.954 0-1.782-.756-1.782-1.764 0-1.026.828-1.782 1.782-1.782.936 0 1.764.756 1.764 1.782 0 1.008-.828 1.764-1.764 1.764zm8.46 8.172c1.728 0 3.168-1.332 3.168-3.132s-1.458-3.114-3.168-3.114c-1.71 0-3.15 1.332-3.15 3.114 0 1.8 1.44 3.132 3.15 3.132zm0-1.35c-.936 0-1.764-.756-1.764-1.782 0-1.008.828-1.764 1.764-1.764.954 0 1.782.756 1.782 1.764 0 1.026-.828 1.782-1.782 1.782zM1.86 6.876c1.71 0 3.15-1.332 3.15-3.114C5.01 1.962 3.57.63 1.86.63s-3.168 1.314-3.168 3.132c0 1.8 1.458 3.114 3.168 3.114zM2.4 13.5L11.472.828H9.78L.708 13.5H2.4zm-.54-7.974C.906 5.526.078 4.77.078 3.762c0-1.026.828-1.782 1.782-1.782.936 0 1.764.756 1.764 1.782 0 1.008-.828 1.764-1.764 1.764zm8.46 8.172c1.728 0 3.168-1.332 3.168-3.132S12.03 7.452 10.32 7.452c-1.71 0-3.15 1.332-3.15 3.114 0 1.8 1.44 3.132 3.15 3.132zm0-1.35c-.936 0-1.764-.756-1.764-1.782 0-1.008.828-1.764 1.764-1.764.954 0 1.782.756 1.782 1.764 0 1.026-.828 1.782-1.782 1.782zm7.776-5.472c1.71 0 3.15-1.332 3.15-3.114 0-1.8-1.44-3.132-3.15-3.132s-3.168 1.314-3.168 3.132c0 1.8 1.458 3.114 3.168 3.114zm.54 6.624L27.708.828h-1.692L16.944 13.5h1.692zm-.54-7.974c-.954 0-1.782-.756-1.782-1.764 0-1.026.828-1.782 1.782-1.782.936 0 1.764.756 1.764 1.782 0 1.008-.828 1.764-1.764 1.764zm8.46 8.172c1.728 0 3.168-1.332 3.168-3.132s-1.458-3.114-3.168-3.114c-1.71 0-3.15 1.332-3.15 3.114 0 1.8 1.44 3.132 3.15 3.132zm0-1.35c-.936 0-1.764-.756-1.764-1.782 0-1.008.828-1.764 1.764-1.764.954 0 1.782.756 1.782 1.764 0 1.026-.828 1.782-1.782 1.782zm7.776-5.472c1.71 0 3.15-1.332 3.15-3.114 0-1.8-1.44-3.132-3.15-3.132s-3.168 1.314-3.168 3.132c0 1.8 1.458 3.114 3.168 3.114zm.54 6.624L43.944.828h-1.692L33.18 13.5h1.692zm-.54-7.974c-.954 0-1.782-.756-1.782-1.764 0-1.026.828-1.782 1.782-1.782.936 0 1.764.756 1.764 1.782 0 1.008-.828 1.764-1.764 1.764zm8.46 8.172c1.728 0 3.168-1.332 3.168-3.132s-1.458-3.114-3.168-3.114c-1.71 0-3.15 1.332-3.15 3.114 0 1.8 1.44 3.132 3.15 3.132zm0-1.35c-.936 0-1.764-.756-1.764-1.782 0-1.008.828-1.764 1.764-1.764.954 0 1.782.756 1.782 1.764 0 1.026-.828 1.782-1.782 1.782zm7.776-5.472c1.71 0 3.15-1.332 3.15-3.114 0-1.8-1.44-3.132-3.15-3.132S47.4 1.944 47.4 3.762c0 1.8 1.458 3.114 3.168 3.114zm.54 6.624L60.18.828h-1.692L49.416 13.5h1.692zm-.54-7.974c-.954 0-1.782-.756-1.782-1.764 0-1.026.828-1.782 1.782-1.782.936 0 1.764.756 1.764 1.782 0 1.008-.828 1.764-1.764 1.764zm8.46 8.172c1.728 0 3.168-1.332 3.168-3.132s-1.458-3.114-3.168-3.114c-1.71 0-3.15 1.332-3.15 3.114 0 1.8 1.44 3.132 3.15 3.132zm0-1.35c-.936 0-1.764-.756-1.764-1.782 0-1.008.828-1.764 1.764-1.764.954 0 1.782.756 1.782 1.764 0 1.026-.828 1.782-1.782 1.782zm7.776-5.472c1.71 0 3.15-1.332 3.15-3.114 0-1.8-1.44-3.132-3.15-3.132s-3.168 1.314-3.168 3.132c0 1.8 1.458 3.114 3.168 3.114zm.54 6.624L76.416.828h-1.692L65.652 13.5h1.692zm-.54-7.974c-.954 0-1.782-.756-1.782-1.764 0-1.026.828-1.782 1.782-1.782.936 0 1.764.756 1.764 1.782 0 1.008-.828 1.764-1.764 1.764zm8.46 8.172c1.728 0 3.168-1.332 3.168-3.132s-1.458-3.114-3.168-3.114c-1.71 0-3.15 1.332-3.15 3.114 0 1.8 1.44 3.132 3.15 3.132zm0-1.35c-.936 0-1.764-.756-1.764-1.782 0-1.008.828-1.764 1.764-1.764.954 0 1.782.756 1.782 1.764 0 1.026-.828 1.782-1.782 1.782zm7.776-5.472c1.71 0 3.15-1.332 3.15-3.114 0-1.8-1.44-3.132-3.15-3.132s-3.168 1.314-3.168 3.132c0 1.8 1.458 3.114 3.168 3.114zm.54 6.624L92.652.828H90.96L81.888 13.5h1.692zm-.54-7.974c-.954 0-1.782-.756-1.782-1.764 0-1.026.828-1.782 1.782-1.782.936 0 1.764.756 1.764 1.782 0 1.008-.828 1.764-1.764 1.764zm8.46 8.172c1.728 0 3.168-1.332 3.168-3.132S93.21 7.452 91.5 7.452c-1.71 0-3.15 1.332-3.15 3.114 0 1.8 1.44 3.132 3.15 3.132zm0-1.35c-.936 0-1.764-.756-1.764-1.782 0-1.008.828-1.764 1.764-1.764.954 0 1.782.756 1.782 1.764 0 1.026-.828 1.782-1.782 1.782zM-30.612 23.376c1.71 0 3.15-1.332 3.15-3.114 0-1.8-1.44-3.132-3.15-3.132s-3.168 1.314-3.168 3.132c0 1.8 1.458 3.114 3.168 3.114zm.54 6.624L-21 17.328h-1.692L-31.764 30h1.692zm-.54-7.974c-.954 0-1.782-.756-1.782-1.764 0-1.026.828-1.782 1.782-1.782.936 0 1.764.756 1.764 1.782 0 1.008-.828 1.764-1.764 1.764zm8.46 8.172c1.728 0 3.168-1.332 3.168-3.132s-1.458-3.114-3.168-3.114c-1.71 0-3.15 1.332-3.15 3.114 0 1.8 1.44 3.132 3.15 3.132zm0-1.35c-.936 0-1.764-.756-1.764-1.782 0-1.008.828-1.764 1.764-1.764.954 0 1.782.756 1.782 1.764 0 1.026-.828 1.782-1.782 1.782zm7.776-5.472c1.71 0 3.15-1.332 3.15-3.114 0-1.8-1.44-3.132-3.15-3.132s-3.168 1.314-3.168 3.132c0 1.8 1.458 3.114 3.168 3.114zm.54 6.624l9.072-12.672h-1.692L-15.528 30h1.692zm-.54-7.974c-.954 0-1.782-.756-1.782-1.764 0-1.026.828-1.782 1.782-1.782.936 0 1.764.756 1.764 1.782 0 1.008-.828 1.764-1.764 1.764zm8.46 8.172c1.728 0 3.168-1.332 3.168-3.132s-1.458-3.114-3.168-3.114c-1.71 0-3.15 1.332-3.15 3.114 0 1.8 1.44 3.132 3.15 3.132zm0-1.35c-.936 0-1.764-.756-1.764-1.782 0-1.008.828-1.764 1.764-1.764.954 0 1.782.756 1.782 1.764 0 1.026-.828 1.782-1.782 1.782zm7.776-5.472c1.71 0 3.15-1.332 3.15-3.114 0-1.8-1.44-3.132-3.15-3.132s-3.168 1.314-3.168 3.132c0 1.8 1.458 3.114 3.168 3.114zM2.4 30l9.072-12.672H9.78L.708 30H2.4zm-.54-7.974c-.954 0-1.782-.756-1.782-1.764 0-1.026.828-1.782 1.782-1.782.936 0 1.764.756 1.764 1.782 0 1.008-.828 1.764-1.764 1.764zm8.46 8.172c1.728 0 3.168-1.332 3.168-3.132s-1.458-3.114-3.168-3.114c-1.71 0-3.15 1.332-3.15 3.114 0 1.8 1.44 3.132 3.15 3.132zm0-1.35c-.936 0-1.764-.756-1.764-1.782 0-1.008.828-1.764 1.764-1.764.954 0 1.782.756 1.782 1.764 0 1.026-.828 1.782-1.782 1.782zm7.776-5.472c1.71 0 3.15-1.332 3.15-3.114 0-1.8-1.44-3.132-3.15-3.132s-3.168 1.314-3.168 3.132c0 1.8 1.458 3.114 3.168 3.114zm.54 6.624l9.072-12.672h-1.692L16.944 30h1.692zm-.54-7.974c-.954 0-1.782-.756-1.782-1.764 0-1.026.828-1.782 1.782-1.782.936 0 1.764.756 1.764 1.782 0 1.008-.828 1.764-1.764 1.764zm8.46 8.172c1.728 0 3.168-1.332 3.168-3.132s-1.458-3.114-3.168-3.114c-1.71 0-3.15 1.332-3.15 3.114 0 1.8 1.44 3.132 3.15 3.132zm0-1.35c-.936 0-1.764-.756-1.764-1.782 0-1.008.828-1.764 1.764-1.764.954 0 1.782.756 1.782 1.764 0 1.026-.828 1.782-1.782 1.782zm7.776-5.472c1.71 0 3.15-1.332 3.15-3.114 0-1.8-1.44-3.132-3.15-3.132s-3.168 1.314-3.168 3.132c0 1.8 1.458 3.114 3.168 3.114zm.54 6.624l9.072-12.672h-1.692L33.18 30h1.692zm-.54-7.974c-.954 0-1.782-.756-1.782-1.764 0-1.026.828-1.782 1.782-1.782.936 0 1.764.756 1.764 1.782 0 1.008-.828 1.764-1.764 1.764zm8.46 8.172c1.728 0 3.168-1.332 3.168-3.132s-1.458-3.114-3.168-3.114c-1.71 0-3.15 1.332-3.15 3.114 0 1.8 1.44 3.132 3.15 3.132zm0-1.35c-.936 0-1.764-.756-1.764-1.782 0-1.008.828-1.764 1.764-1.764.954 0 1.782.756 1.782 1.764 0 1.026-.828 1.782-1.782 1.782zm7.776-5.472c1.71 0 3.15-1.332 3.15-3.114 0-1.8-1.44-3.132-3.15-3.132S47.4 18.444 47.4 20.262c0 1.8 1.458 3.114 3.168 3.114zm.54 6.624l9.072-12.672h-1.692L49.416 30h1.692zm-.54-7.974c-.954 0-1.782-.756-1.782-1.764 0-1.026.828-1.782 1.782-1.782.936 0 1.764.756 1.764 1.782 0 1.008-.828 1.764-1.764 1.764zm8.46 8.172c1.728 0 3.168-1.332 3.168-3.132s-1.458-3.114-3.168-3.114c-1.71 0-3.15 1.332-3.15 3.114 0 1.8 1.44 3.132 3.15 3.132zm0-1.35c-.936 0-1.764-.756-1.764-1.782 0-1.008.828-1.764 1.764-1.764.954 0 1.782.756 1.782 1.764 0 1.026-.828 1.782-1.782 1.782zm7.776-5.472c1.71 0 3.15-1.332 3.15-3.114 0-1.8-1.44-3.132-3.15-3.132s-3.168 1.314-3.168 3.132c0 1.8 1.458 3.114 3.168 3.114zm.54 6.624l9.072-12.672h-1.692L65.652 30h1.692zm-.54-7.974c-.954 0-1.782-.756-1.782-1.764 0-1.026.828-1.782 1.782-1.782.936 0 1.764.756 1.764 1.782 0 1.008-.828 1.764-1.764 1.764zm8.46 8.172c1.728 0 3.168-1.332 3.168-3.132s-1.458-3.114-3.168-3.114c-1.71 0-3.15 1.332-3.15 3.114 0 1.8 1.44 3.132 3.15 3.132zm0-1.35c-.936 0-1.764-.756-1.764-1.782 0-1.008.828-1.764 1.764-1.764.954 0 1.782.756 1.782 1.764 0 1.026-.828 1.782-1.782 1.782zm7.776-5.472c1.71 0 3.15-1.332 3.15-3.114 0-1.8-1.44-3.132-3.15-3.132s-3.168 1.314-3.168 3.132c0 1.8 1.458 3.114 3.168 3.114zM83.58 30l9.072-12.672H90.96L81.888 30h1.692zm-.54-7.974c-.954 0-1.782-.756-1.782-1.764 0-1.026.828-1.782 1.782-1.782.936 0 1.764.756 1.764 1.782 0 1.008-.828 1.764-1.764 1.764zm8.46 8.172c1.728 0 3.168-1.332 3.168-3.132s-1.458-3.114-3.168-3.114c-1.71 0-3.15 1.332-3.15 3.114 0 1.8 1.44 3.132 3.15 3.132zm0-1.35c-.936 0-1.764-.756-1.764-1.782 0-1.008.828-1.764 1.764-1.764.954 0 1.782.756 1.782 1.764 0 1.026-.828 1.782-1.782 1.782zM-30.612 39.876c1.71 0 3.15-1.332 3.15-3.114 0-1.8-1.44-3.132-3.15-3.132s-3.168 1.314-3.168 3.132c0 1.8 1.458 3.114 3.168 3.114zm.54 6.624L-21 33.828h-1.692L-31.764 46.5h1.692zm-.54-7.974c-.954 0-1.782-.756-1.782-1.764 0-1.026.828-1.782 1.782-1.782.936 0 1.764.756 1.764 1.782 0 1.008-.828 1.764-1.764 1.764zm8.46 8.172c1.728 0 3.168-1.332 3.168-3.132s-1.458-3.114-3.168-3.114c-1.71 0-3.15 1.332-3.15 3.114 0 1.8 1.44 3.132 3.15 3.132zm0-1.35c-.936 0-1.764-.756-1.764-1.782 0-1.008.828-1.764 1.764-1.764.954 0 1.782.756 1.782 1.764 0 1.026-.828 1.782-1.782 1.782zm7.776-5.472c1.71 0 3.15-1.332 3.15-3.114 0-1.8-1.44-3.132-3.15-3.132s-3.168 1.314-3.168 3.132c0 1.8 1.458 3.114 3.168 3.114zm.54 6.624l9.072-12.672h-1.692L-15.528 46.5h1.692zm-.54-7.974c-.954 0-1.782-.756-1.782-1.764 0-1.026.828-1.782 1.782-1.782.936 0 1.764.756 1.764 1.782 0 1.008-.828 1.764-1.764 1.764zm8.46 8.172c1.728 0 3.168-1.332 3.168-3.132s-1.458-3.114-3.168-3.114c-1.71 0-3.15 1.332-3.15 3.114 0 1.8 1.44 3.132 3.15 3.132zm0-1.35c-.936 0-1.764-.756-1.764-1.782 0-1.008.828-1.764 1.764-1.764.954 0 1.782.756 1.782 1.764 0 1.026-.828 1.782-1.782 1.782zm7.776-5.472c1.71 0 3.15-1.332 3.15-3.114 0-1.8-1.44-3.132-3.15-3.132s-3.168 1.314-3.168 3.132c0 1.8 1.458 3.114 3.168 3.114zM2.4 46.5l9.072-12.672H9.78L.708 46.5H2.4zm-.54-7.974c-.954 0-1.782-.756-1.782-1.764 0-1.026.828-1.782 1.782-1.782.936 0 1.764.756 1.764 1.782 0 1.008-.828 1.764-1.764 1.764zm8.46 8.172c1.728 0 3.168-1.332 3.168-3.132s-1.458-3.114-3.168-3.114c-1.71 0-3.15 1.332-3.15 3.114 0 1.8 1.44 3.132 3.15 3.132zm0-1.35c-.936 0-1.764-.756-1.764-1.782 0-1.008.828-1.764 1.764-1.764.954 0 1.782.756 1.782 1.764 0 1.026-.828 1.782-1.782 1.782zm7.776-5.472c1.71 0 3.15-1.332 3.15-3.114 0-1.8-1.44-3.132-3.15-3.132s-3.168 1.314-3.168 3.132c0 1.8 1.458 3.114 3.168 3.114zm.54 6.624l9.072-12.672h-1.692L16.944 46.5h1.692zm-.54-7.974c-.954 0-1.782-.756-1.782-1.764 0-1.026.828-1.782 1.782-1.782.936 0 1.764.756 1.764 1.782 0 1.008-.828 1.764-1.764 1.764zm8.46 8.172c1.728 0 3.168-1.332 3.168-3.132s-1.458-3.114-3.168-3.114c-1.71 0-3.15 1.332-3.15 3.114 0 1.8 1.44 3.132 3.15 3.132zm0-1.35c-.936 0-1.764-.756-1.764-1.782 0-1.008.828-1.764 1.764-1.764.954 0 1.782.756 1.782 1.764 0 1.026-.828 1.782-1.782 1.782zm7.776-5.472c1.71 0 3.15-1.332 3.15-3.114 0-1.8-1.44-3.132-3.15-3.132s-3.168 1.314-3.168 3.132c0 1.8 1.458 3.114 3.168 3.114zm.54 6.624l9.072-12.672h-1.692L33.18 46.5h1.692zm-.54-7.974c-.954 0-1.782-.756-1.782-1.764 0-1.026.828-1.782 1.782-1.782.936 0 1.764.756 1.764 1.782 0 1.008-.828 1.764-1.764 1.764zm8.46 8.172c1.728 0 3.168-1.332 3.168-3.132s-1.458-3.114-3.168-3.114c-1.71 0-3.15 1.332-3.15 3.114 0 1.8 1.44 3.132 3.15 3.132zm0-1.35c-.936 0-1.764-.756-1.764-1.782 0-1.008.828-1.764 1.764-1.764.954 0 1.782.756 1.782 1.764 0 1.026-.828 1.782-1.782 1.782zm7.776-5.472c1.71 0 3.15-1.332 3.15-3.114 0-1.8-1.44-3.132-3.15-3.132S47.4 34.944 47.4 36.762c0 1.8 1.458 3.114 3.168 3.114zm.54 6.624l9.072-12.672h-1.692L49.416 46.5h1.692zm-.54-7.974c-.954 0-1.782-.756-1.782-1.764 0-1.026.828-1.782 1.782-1.782.936 0 1.764.756 1.764 1.782 0 1.008-.828 1.764-1.764 1.764zm8.46 8.172c1.728 0 3.168-1.332 3.168-3.132s-1.458-3.114-3.168-3.114c-1.71 0-3.15 1.332-3.15 3.114 0 1.8 1.44 3.132 3.15 3.132zm0-1.35c-.936 0-1.764-.756-1.764-1.782 0-1.008.828-1.764 1.764-1.764.954 0 1.782.756 1.782 1.764 0 1.026-.828 1.782-1.782 1.782zm7.776-5.472c1.71 0 3.15-1.332 3.15-3.114 0-1.8-1.44-3.132-3.15-3.132s-3.168 1.314-3.168 3.132c0 1.8 1.458 3.114 3.168 3.114zm.54 6.624l9.072-12.672h-1.692L65.652 46.5h1.692zm-.54-7.974c-.954 0-1.782-.756-1.782-1.764 0-1.026.828-1.782 1.782-1.782.936 0 1.764.756 1.764 1.782 0 1.008-.828 1.764-1.764 1.764zm8.46 8.172c1.728 0 3.168-1.332 3.168-3.132s-1.458-3.114-3.168-3.114c-1.71 0-3.15 1.332-3.15 3.114 0 1.8 1.44 3.132 3.15 3.132zm0-1.35c-.936 0-1.764-.756-1.764-1.782 0-1.008.828-1.764 1.764-1.764.954 0 1.782.756 1.782 1.764 0 1.026-.828 1.782-1.782 1.782zm7.776-5.472c1.71 0 3.15-1.332 3.15-3.114 0-1.8-1.44-3.132-3.15-3.132s-3.168 1.314-3.168 3.132c0 1.8 1.458 3.114 3.168 3.114zm.54 6.624l9.072-12.672H90.96L81.888 46.5h1.692zm-.54-7.974c-.954 0-1.782-.756-1.782-1.764 0-1.026.828-1.782 1.782-1.782.936 0 1.764.756 1.764 1.782 0 1.008-.828 1.764-1.764 1.764zm8.46 8.172c1.728 0 3.168-1.332 3.168-3.132s-1.458-3.114-3.168-3.114c-1.71 0-3.15 1.332-3.15 3.114 0 1.8 1.44 3.132 3.15 3.132zm0-1.35c-.936 0-1.764-.756-1.764-1.782 0-1.008.828-1.764 1.764-1.764.954 0 1.782.756 1.782 1.764 0 1.026-.828 1.782-1.782 1.782zM-30.612 56.376c1.71 0 3.15-1.332 3.15-3.114 0-1.8-1.44-3.132-3.15-3.132s-3.168 1.314-3.168 3.132c0 1.8 1.458 3.114 3.168 3.114zm.54 6.624L-21 50.328h-1.692L-31.764 63h1.692zm-.54-7.974c-.954 0-1.782-.756-1.782-1.764 0-1.026.828-1.782 1.782-1.782.936 0 1.764.756 1.764 1.782 0 1.008-.828 1.764-1.764 1.764zm8.46 8.172c1.728 0 3.168-1.332 3.168-3.132s-1.458-3.114-3.168-3.114c-1.71 0-3.15 1.332-3.15 3.114 0 1.8 1.44 3.132 3.15 3.132zm0-1.35c-.936 0-1.764-.756-1.764-1.782 0-1.008.828-1.764 1.764-1.764.954 0 1.782.756 1.782 1.764 0 1.026-.828 1.782-1.782 1.782zm7.776-5.472c1.71 0 3.15-1.332 3.15-3.114 0-1.8-1.44-3.132-3.15-3.132s-3.168 1.314-3.168 3.132c0 1.8 1.458 3.114 3.168 3.114zm.54 6.624l9.072-12.672h-1.692L-15.528 63h1.692zm-.54-7.974c-.954 0-1.782-.756-1.782-1.764 0-1.026.828-1.782 1.782-1.782.936 0 1.764.756 1.764 1.782 0 1.008-.828 1.764-1.764 1.764zm8.46 8.172c1.728 0 3.168-1.332 3.168-3.132s-1.458-3.114-3.168-3.114c-1.71 0-3.15 1.332-3.15 3.114 0 1.8 1.44 3.132 3.15 3.132zm0-1.35c-.936 0-1.764-.756-1.764-1.782 0-1.008.828-1.764 1.764-1.764.954 0 1.782.756 1.782 1.764 0 1.026-.828 1.782-1.782 1.782zm7.776-5.472c1.71 0 3.15-1.332 3.15-3.114 0-1.8-1.44-3.132-3.15-3.132s-3.168 1.314-3.168 3.132c0 1.8 1.458 3.114 3.168 3.114zM2.4 63l9.072-12.672H9.78L.708 63H2.4zm-.54-7.974c-.954 0-1.782-.756-1.782-1.764 0-1.026.828-1.782 1.782-1.782.936 0 1.764.756 1.764 1.782 0 1.008-.828 1.764-1.764 1.764zm8.46 8.172c1.728 0 3.168-1.332 3.168-3.132s-1.458-3.114-3.168-3.114c-1.71 0-3.15 1.332-3.15 3.114 0 1.8 1.44 3.132 3.15 3.132zm0-1.35c-.936 0-1.764-.756-1.764-1.782 0-1.008.828-1.764 1.764-1.764.954 0 1.782.756 1.782 1.764 0 1.026-.828 1.782-1.782 1.782zm7.776-5.472c1.71 0 3.15-1.332 3.15-3.114 0-1.8-1.44-3.132-3.15-3.132s-3.168 1.314-3.168 3.132c0 1.8 1.458 3.114 3.168 3.114zm.54 6.624l9.072-12.672h-1.692L16.944 63h1.692zm-.54-7.974c-.954 0-1.782-.756-1.782-1.764 0-1.026.828-1.782 1.782-1.782.936 0 1.764.756 1.764 1.782 0 1.008-.828 1.764-1.764 1.764zm8.46 8.172c1.728 0 3.168-1.332 3.168-3.132s-1.458-3.114-3.168-3.114c-1.71 0-3.15 1.332-3.15 3.114 0 1.8 1.44 3.132 3.15 3.132zm0-1.35c-.936 0-1.764-.756-1.764-1.782 0-1.008.828-1.764 1.764-1.764.954 0 1.782.756 1.782 1.764 0 1.026-.828 1.782-1.782 1.782zm7.776-5.472c1.71 0 3.15-1.332 3.15-3.114 0-1.8-1.44-3.132-3.15-3.132s-3.168 1.314-3.168 3.132c0 1.8 1.458 3.114 3.168 3.114zm.54 6.624l9.072-12.672h-1.692L33.18 63h1.692zm-.54-7.974c-.954 0-1.782-.756-1.782-1.764 0-1.026.828-1.782 1.782-1.782.936 0 1.764.756 1.764 1.782 0 1.008-.828 1.764-1.764 1.764zm8.46 8.172c1.728 0 3.168-1.332 3.168-3.132s-1.458-3.114-3.168-3.114c-1.71 0-3.15 1.332-3.15 3.114 0 1.8 1.44 3.132 3.15 3.132zm0-1.35c-.936 0-1.764-.756-1.764-1.782 0-1.008.828-1.764 1.764-1.764.954 0 1.782.756 1.782 1.764 0 1.026-.828 1.782-1.782 1.782zm7.776-5.472c1.71 0 3.15-1.332 3.15-3.114 0-1.8-1.44-3.132-3.15-3.132S47.4 51.444 47.4 53.262c0 1.8 1.458 3.114 3.168 3.114zm.54 6.624l9.072-12.672h-1.692L49.416 63h1.692zm-.54-7.974c-.954 0-1.782-.756-1.782-1.764 0-1.026.828-1.782 1.782-1.782.936 0 1.764.756 1.764 1.782 0 1.008-.828 1.764-1.764 1.764zm8.46 8.172c1.728 0 3.168-1.332 3.168-3.132s-1.458-3.114-3.168-3.114c-1.71 0-3.15 1.332-3.15 3.114 0 1.8 1.44 3.132 3.15 3.132zm0-1.35c-.936 0-1.764-.756-1.764-1.782 0-1.008.828-1.764 1.764-1.764.954 0 1.782.756 1.782 1.764 0 1.026-.828 1.782-1.782 1.782zm7.776-5.472c1.71 0 3.15-1.332 3.15-3.114 0-1.8-1.44-3.132-3.15-3.132s-3.168 1.314-3.168 3.132c0 1.8 1.458 3.114 3.168 3.114zm.54 6.624l9.072-12.672h-1.692L65.652 63h1.692zm-.54-7.974c-.954 0-1.782-.756-1.782-1.764 0-1.026.828-1.782 1.782-1.782.936 0 1.764.756 1.764 1.782 0 1.008-.828 1.764-1.764 1.764zm8.46 8.172c1.728 0 3.168-1.332 3.168-3.132s-1.458-3.114-3.168-3.114c-1.71 0-3.15 1.332-3.15 3.114 0 1.8 1.44 3.132 3.15 3.132zm0-1.35c-.936 0-1.764-.756-1.764-1.782 0-1.008.828-1.764 1.764-1.764.954 0 1.782.756 1.782 1.764 0 1.026-.828 1.782-1.782 1.782zm7.776-5.472c1.71 0 3.15-1.332 3.15-3.114 0-1.8-1.44-3.132-3.15-3.132s-3.168 1.314-3.168 3.132c0 1.8 1.458 3.114 3.168 3.114zM83.58 63l9.072-12.672H90.96L81.888 63h1.692zm-.54-7.974c-.954 0-1.782-.756-1.782-1.764 0-1.026.828-1.782 1.782-1.782.936 0 1.764.756 1.764 1.782 0 1.008-.828 1.764-1.764 1.764zm8.46 8.172c1.728 0 3.168-1.332 3.168-3.132s-1.458-3.114-3.168-3.114c-1.71 0-3.15 1.332-3.15 3.114 0 1.8 1.44 3.132 3.15 3.132zm0-1.35c-.936 0-1.764-.756-1.764-1.782 0-1.008.828-1.764 1.764-1.764.954 0 1.782.756 1.782 1.764 0 1.026-.828 1.782-1.782 1.782zM-30.612 72.876c1.71 0 3.15-1.332 3.15-3.114 0-1.8-1.44-3.132-3.15-3.132s-3.168 1.314-3.168 3.132c0 1.8 1.458 3.114 3.168 3.114zm.54 6.624L-21 66.828h-1.692L-31.764 79.5h1.692zm-.54-7.974c-.954 0-1.782-.756-1.782-1.764 0-1.026.828-1.782 1.782-1.782.936 0 1.764.756 1.764 1.782 0 1.008-.828 1.764-1.764 1.764zm8.46 8.172c1.728 0 3.168-1.332 3.168-3.132s-1.458-3.114-3.168-3.114c-1.71 0-3.15 1.332-3.15 3.114 0 1.8 1.44 3.132 3.15 3.132zm0-1.35c-.936 0-1.764-.756-1.764-1.782 0-1.008.828-1.764 1.764-1.764.954 0 1.782.756 1.782 1.764 0 1.026-.828 1.782-1.782 1.782zm7.776-5.472c1.71 0 3.15-1.332 3.15-3.114 0-1.8-1.44-3.132-3.15-3.132s-3.168 1.314-3.168 3.132c0 1.8 1.458 3.114 3.168 3.114zm.54 6.624l9.072-12.672h-1.692L-15.528 79.5h1.692zm-.54-7.974c-.954 0-1.782-.756-1.782-1.764 0-1.026.828-1.782 1.782-1.782.936 0 1.764.756 1.764 1.782 0 1.008-.828 1.764-1.764 1.764zm8.46 8.172c1.728 0 3.168-1.332 3.168-3.132s-1.458-3.114-3.168-3.114c-1.71 0-3.15 1.332-3.15 3.114 0 1.8 1.44 3.132 3.15 3.132zm0-1.35c-.936 0-1.764-.756-1.764-1.782 0-1.008.828-1.764 1.764-1.764.954 0 1.782.756 1.782 1.764 0 1.026-.828 1.782-1.782 1.782zm7.776-5.472c1.71 0 3.15-1.332 3.15-3.114 0-1.8-1.44-3.132-3.15-3.132s-3.168 1.314-3.168 3.132c0 1.8 1.458 3.114 3.168 3.114zM2.4 79.5l9.072-12.672H9.78L.708 79.5H2.4zm-.54-7.974c-.954 0-1.782-.756-1.782-1.764 0-1.026.828-1.782 1.782-1.782.936 0 1.764.756 1.764 1.782 0 1.008-.828 1.764-1.764 1.764zm8.46 8.172c1.728 0 3.168-1.332 3.168-3.132s-1.458-3.114-3.168-3.114c-1.71 0-3.15 1.332-3.15 3.114 0 1.8 1.44 3.132 3.15 3.132zm0-1.35c-.936 0-1.764-.756-1.764-1.782 0-1.008.828-1.764 1.764-1.764.954 0 1.782.756 1.782 1.764 0 1.026-.828 1.782-1.782 1.782zm7.776-5.472c1.71 0 3.15-1.332 3.15-3.114 0-1.8-1.44-3.132-3.15-3.132s-3.168 1.314-3.168 3.132c0 1.8 1.458 3.114 3.168 3.114zm.54 6.624l9.072-12.672h-1.692L16.944 79.5h1.692zm-.54-7.974c-.954 0-1.782-.756-1.782-1.764 0-1.026.828-1.782 1.782-1.782.936 0 1.764.756 1.764 1.782 0 1.008-.828 1.764-1.764 1.764zm8.46 8.172c1.728 0 3.168-1.332 3.168-3.132s-1.458-3.114-3.168-3.114c-1.71 0-3.15 1.332-3.15 3.114 0 1.8 1.44 3.132 3.15 3.132zm0-1.35c-.936 0-1.764-.756-1.764-1.782 0-1.008.828-1.764 1.764-1.764.954 0 1.782.756 1.782 1.764 0 1.026-.828 1.782-1.782 1.782zm7.776-5.472c1.71 0 3.15-1.332 3.15-3.114 0-1.8-1.44-3.132-3.15-3.132s-3.168 1.314-3.168 3.132c0 1.8 1.458 3.114 3.168 3.114zm.54 6.624l9.072-12.672h-1.692L33.18 79.5h1.692zm-.54-7.974c-.954 0-1.782-.756-1.782-1.764 0-1.026.828-1.782 1.782-1.782.936 0 1.764.756 1.764 1.782 0 1.008-.828 1.764-1.764 1.764zm8.46 8.172c1.728 0 3.168-1.332 3.168-3.132s-1.458-3.114-3.168-3.114c-1.71 0-3.15 1.332-3.15 3.114 0 1.8 1.44 3.132 3.15 3.132zm0-1.35c-.936 0-1.764-.756-1.764-1.782 0-1.008.828-1.764 1.764-1.764.954 0 1.782.756 1.782 1.764 0 1.026-.828 1.782-1.782 1.782zm7.776-5.472c1.71 0 3.15-1.332 3.15-3.114 0-1.8-1.44-3.132-3.15-3.132S47.4 67.944 47.4 69.762c0 1.8 1.458 3.114 3.168 3.114zm.54 6.624l9.072-12.672h-1.692L49.416 79.5h1.692zm-.54-7.974c-.954 0-1.782-.756-1.782-1.764 0-1.026.828-1.782 1.782-1.782.936 0 1.764.756 1.764 1.782 0 1.008-.828 1.764-1.764 1.764zm8.46 8.172c1.728 0 3.168-1.332 3.168-3.132s-1.458-3.114-3.168-3.114c-1.71 0-3.15 1.332-3.15 3.114 0 1.8 1.44 3.132 3.15 3.132zm0-1.35c-.936 0-1.764-.756-1.764-1.782 0-1.008.828-1.764 1.764-1.764.954 0 1.782.756 1.782 1.764 0 1.026-.828 1.782-1.782 1.782zm7.776-5.472c1.71 0 3.15-1.332 3.15-3.114 0-1.8-1.44-3.132-3.15-3.132s-3.168 1.314-3.168 3.132c0 1.8 1.458 3.114 3.168 3.114zm.54 6.624l9.072-12.672h-1.692L65.652 79.5h1.692zm-.54-7.974c-.954 0-1.782-.756-1.782-1.764 0-1.026.828-1.782 1.782-1.782.936 0 1.764.756 1.764 1.782 0 1.008-.828 1.764-1.764 1.764zm8.46 8.172c1.728 0 3.168-1.332 3.168-3.132s-1.458-3.114-3.168-3.114c-1.71 0-3.15 1.332-3.15 3.114 0 1.8 1.44 3.132 3.15 3.132zm0-1.35c-.936 0-1.764-.756-1.764-1.782 0-1.008.828-1.764 1.764-1.764.954 0 1.782.756 1.782 1.764 0 1.026-.828 1.782-1.782 1.782zm7.776-5.472c1.71 0 3.15-1.332 3.15-3.114 0-1.8-1.44-3.132-3.15-3.132s-3.168 1.314-3.168 3.132c0 1.8 1.458 3.114 3.168 3.114zm.54 6.624l9.072-12.672H90.96L81.888 79.5h1.692zm-.54-7.974c-.954 0-1.782-.756-1.782-1.764 0-1.026.828-1.782 1.782-1.782.936 0 1.764.756 1.764 1.782 0 1.008-.828 1.764-1.764 1.764zm8.46 8.172c1.728 0 3.168-1.332 3.168-3.132s-1.458-3.114-3.168-3.114c-1.71 0-3.15 1.332-3.15 3.114 0 1.8 1.44 3.132 3.15 3.132zm0-1.35c-.936 0-1.764-.756-1.764-1.782 0-1.008.828-1.764 1.764-1.764.954 0 1.782.756 1.782 1.764 0 1.026-.828 1.782-1.782 1.782zM-30.612 89.376c1.71 0 3.15-1.332 3.15-3.114 0-1.8-1.44-3.132-3.15-3.132s-3.168 1.314-3.168 3.132c0 1.8 1.458 3.114 3.168 3.114zm.54 6.624L-21 83.328h-1.692L-31.764 96h1.692zm-.54-7.974c-.954 0-1.782-.756-1.782-1.764 0-1.026.828-1.782 1.782-1.782.936 0 1.764.756 1.764 1.782 0 1.008-.828 1.764-1.764 1.764zm8.46 8.172c1.728 0 3.168-1.332 3.168-3.132s-1.458-3.114-3.168-3.114c-1.71 0-3.15 1.332-3.15 3.114 0 1.8 1.44 3.132 3.15 3.132zm0-1.35c-.936 0-1.764-.756-1.764-1.782 0-1.008.828-1.764 1.764-1.764.954 0 1.782.756 1.782 1.764 0 1.026-.828 1.782-1.782 1.782zm7.776-5.472c1.71 0 3.15-1.332 3.15-3.114 0-1.8-1.44-3.132-3.15-3.132s-3.168 1.314-3.168 3.132c0 1.8 1.458 3.114 3.168 3.114zm.54 6.624l9.072-12.672h-1.692L-15.528 96h1.692zm-.54-7.974c-.954 0-1.782-.756-1.782-1.764 0-1.026.828-1.782 1.782-1.782.936 0 1.764.756 1.764 1.782 0 1.008-.828 1.764-1.764 1.764zm8.46 8.172c1.728 0 3.168-1.332 3.168-3.132s-1.458-3.114-3.168-3.114c-1.71 0-3.15 1.332-3.15 3.114 0 1.8 1.44 3.132 3.15 3.132zm0-1.35c-.936 0-1.764-.756-1.764-1.782 0-1.008.828-1.764 1.764-1.764.954 0 1.782.756 1.782 1.764 0 1.026-.828 1.782-1.782 1.782zm7.776-5.472c1.71 0 3.15-1.332 3.15-3.114 0-1.8-1.44-3.132-3.15-3.132s-3.168 1.314-3.168 3.132c0 1.8 1.458 3.114 3.168 3.114zM2.4 96l9.072-12.672H9.78L.708 96H2.4zm-.54-7.974c-.954 0-1.782-.756-1.782-1.764 0-1.026.828-1.782 1.782-1.782.936 0 1.764.756 1.764 1.782 0 1.008-.828 1.764-1.764 1.764zm8.46 8.172c1.728 0 3.168-1.332 3.168-3.132s-1.458-3.114-3.168-3.114c-1.71 0-3.15 1.332-3.15 3.114 0 1.8 1.44 3.132 3.15 3.132zm0-1.35c-.936 0-1.764-.756-1.764-1.782 0-1.008.828-1.764 1.764-1.764.954 0 1.782.756 1.782 1.764 0 1.026-.828 1.782-1.782 1.782zm7.776-5.472c1.71 0 3.15-1.332 3.15-3.114 0-1.8-1.44-3.132-3.15-3.132s-3.168 1.314-3.168 3.132c0 1.8 1.458 3.114 3.168 3.114zm.54 6.624l9.072-12.672h-1.692L16.944 96h1.692zm-.54-7.974c-.954 0-1.782-.756-1.782-1.764 0-1.026.828-1.782 1.782-1.782.936 0 1.764.756 1.764 1.782 0 1.008-.828 1.764-1.764 1.764zm8.46 8.172c1.728 0 3.168-1.332 3.168-3.132s-1.458-3.114-3.168-3.114c-1.71 0-3.15 1.332-3.15 3.114 0 1.8 1.44 3.132 3.15 3.132zm0-1.35c-.936 0-1.764-.756-1.764-1.782 0-1.008.828-1.764 1.764-1.764.954 0 1.782.756 1.782 1.764 0 1.026-.828 1.782-1.782 1.782zm7.776-5.472c1.71 0 3.15-1.332 3.15-3.114 0-1.8-1.44-3.132-3.15-3.132s-3.168 1.314-3.168 3.132c0 1.8 1.458 3.114 3.168 3.114zm.54 6.624l9.072-12.672h-1.692L33.18 96h1.692zm-.54-7.974c-.954 0-1.782-.756-1.782-1.764 0-1.026.828-1.782 1.782-1.782.936 0 1.764.756 1.764 1.782 0 1.008-.828 1.764-1.764 1.764zm8.46 8.172c1.728 0 3.168-1.332 3.168-3.132s-1.458-3.114-3.168-3.114c-1.71 0-3.15 1.332-3.15 3.114 0 1.8 1.44 3.132 3.15 3.132zm0-1.35c-.936 0-1.764-.756-1.764-1.782 0-1.008.828-1.764 1.764-1.764.954 0 1.782.756 1.782 1.764 0 1.026-.828 1.782-1.782 1.782zm7.776-5.472c1.71 0 3.15-1.332 3.15-3.114 0-1.8-1.44-3.132-3.15-3.132S47.4 84.444 47.4 86.262c0 1.8 1.458 3.114 3.168 3.114zm.54 6.624l9.072-12.672h-1.692L49.416 96h1.692zm-.54-7.974c-.954 0-1.782-.756-1.782-1.764 0-1.026.828-1.782 1.782-1.782.936 0 1.764.756 1.764 1.782 0 1.008-.828 1.764-1.764 1.764zm8.46 8.172c1.728 0 3.168-1.332 3.168-3.132s-1.458-3.114-3.168-3.114c-1.71 0-3.15 1.332-3.15 3.114 0 1.8 1.44 3.132 3.15 3.132zm0-1.35c-.936 0-1.764-.756-1.764-1.782 0-1.008.828-1.764 1.764-1.764.954 0 1.782.756 1.782 1.764 0 1.026-.828 1.782-1.782 1.782zm7.776-5.472c1.71 0 3.15-1.332 3.15-3.114 0-1.8-1.44-3.132-3.15-3.132s-3.168 1.314-3.168 3.132c0 1.8 1.458 3.114 3.168 3.114zm.54 6.624l9.072-12.672h-1.692L65.652 96h1.692zm-.54-7.974c-.954 0-1.782-.756-1.782-1.764 0-1.026.828-1.782 1.782-1.782.936 0 1.764.756 1.764 1.782 0 1.008-.828 1.764-1.764 1.764zm8.46 8.172c1.728 0 3.168-1.332 3.168-3.132s-1.458-3.114-3.168-3.114c-1.71 0-3.15 1.332-3.15 3.114 0 1.8 1.44 3.132 3.15 3.132zm0-1.35c-.936 0-1.764-.756-1.764-1.782 0-1.008.828-1.764 1.764-1.764.954 0 1.782.756 1.782 1.764 0 1.026-.828 1.782-1.782 1.782zm7.776-5.472c1.71 0 3.15-1.332 3.15-3.114 0-1.8-1.44-3.132-3.15-3.132s-3.168 1.314-3.168 3.132c0 1.8 1.458 3.114 3.168 3.114zM83.58 96l9.072-12.672H90.96L81.888 96h1.692zm-.54-7.974c-.954 0-1.782-.756-1.782-1.764 0-1.026.828-1.782 1.782-1.782.936 0 1.764.756 1.764 1.782 0 1.008-.828 1.764-1.764 1.764zm8.46 8.172c1.728 0 3.168-1.332 3.168-3.132s-1.458-3.114-3.168-3.114c-1.71 0-3.15 1.332-3.15 3.114 0 1.8 1.44 3.132 3.15 3.132zm0-1.35c-.936 0-1.764-.756-1.764-1.782 0-1.008.828-1.764 1.764-1.764.954 0 1.782.756 1.782 1.764 0 1.026-.828 1.782-1.782 1.782zm-122.112 11.028c1.71 0 3.15-1.332 3.15-3.114 0-1.8-1.44-3.132-3.15-3.132s-3.168 1.314-3.168 3.132c0 1.8 1.458 3.114 3.168 3.114zm.54 6.624L-21 99.828h-1.692l-9.072 12.672h1.692zm-.54-7.974c-.954 0-1.782-.756-1.782-1.764 0-1.026.828-1.782 1.782-1.782.936 0 1.764.756 1.764 1.782 0 1.008-.828 1.764-1.764 1.764zm8.46 8.172c1.728 0 3.168-1.332 3.168-3.132s-1.458-3.114-3.168-3.114c-1.71 0-3.15 1.332-3.15 3.114 0 1.8 1.44 3.132 3.15 3.132zm0-1.35c-.936 0-1.764-.756-1.764-1.782 0-1.008.828-1.764 1.764-1.764.954 0 1.782.756 1.782 1.764 0 1.026-.828 1.782-1.782 1.782zm7.776-5.472c1.71 0 3.15-1.332 3.15-3.114 0-1.8-1.44-3.132-3.15-3.132s-3.168 1.314-3.168 3.132c0 1.8 1.458 3.114 3.168 3.114zm.54 6.624l9.072-12.672h-1.692l-9.072 12.672h1.692zm-.54-7.974c-.954 0-1.782-.756-1.782-1.764 0-1.026.828-1.782 1.782-1.782.936 0 1.764.756 1.764 1.782 0 1.008-.828 1.764-1.764 1.764zm8.46 8.172c1.728 0 3.168-1.332 3.168-3.132s-1.458-3.114-3.168-3.114c-1.71 0-3.15 1.332-3.15 3.114 0 1.8 1.44 3.132 3.15 3.132zm0-1.35c-.936 0-1.764-.756-1.764-1.782 0-1.008.828-1.764 1.764-1.764.954 0 1.782.756 1.782 1.764 0 1.026-.828 1.782-1.782 1.782zm7.776-5.472c1.71 0 3.15-1.332 3.15-3.114 0-1.8-1.44-3.132-3.15-3.132s-3.168 1.314-3.168 3.132c0 1.8 1.458 3.114 3.168 3.114zm.54 6.624l9.072-12.672H9.78L.708 112.5H2.4zm-.54-7.974c-.954 0-1.782-.756-1.782-1.764 0-1.026.828-1.782 1.782-1.782.936 0 1.764.756 1.764 1.782 0 1.008-.828 1.764-1.764 1.764zm8.46 8.172c1.728 0 3.168-1.332 3.168-3.132s-1.458-3.114-3.168-3.114c-1.71 0-3.15 1.332-3.15 3.114 0 1.8 1.44 3.132 3.15 3.132zm0-1.35c-.936 0-1.764-.756-1.764-1.782 0-1.008.828-1.764 1.764-1.764.954 0 1.782.756 1.782 1.764 0 1.026-.828 1.782-1.782 1.782zm7.776-5.472c1.71 0 3.15-1.332 3.15-3.114 0-1.8-1.44-3.132-3.15-3.132s-3.168 1.314-3.168 3.132c0 1.8 1.458 3.114 3.168 3.114zm.54 6.624l9.072-12.672h-1.692L16.944 112.5h1.692zm-.54-7.974c-.954 0-1.782-.756-1.782-1.764 0-1.026.828-1.782 1.782-1.782.936 0 1.764.756 1.764 1.782 0 1.008-.828 1.764-1.764 1.764zm8.46 8.172c1.728 0 3.168-1.332 3.168-3.132s-1.458-3.114-3.168-3.114c-1.71 0-3.15 1.332-3.15 3.114 0 1.8 1.44 3.132 3.15 3.132zm0-1.35c-.936 0-1.764-.756-1.764-1.782 0-1.008.828-1.764 1.764-1.764.954 0 1.782.756 1.782 1.764 0 1.026-.828 1.782-1.782 1.782zm7.776-5.472c1.71 0 3.15-1.332 3.15-3.114 0-1.8-1.44-3.132-3.15-3.132s-3.168 1.314-3.168 3.132c0 1.8 1.458 3.114 3.168 3.114zm.54 6.624l9.072-12.672h-1.692L33.18 112.5h1.692zm-.54-7.974c-.954 0-1.782-.756-1.782-1.764 0-1.026.828-1.782 1.782-1.782.936 0 1.764.756 1.764 1.782 0 1.008-.828 1.764-1.764 1.764zm8.46 8.172c1.728 0 3.168-1.332 3.168-3.132s-1.458-3.114-3.168-3.114c-1.71 0-3.15 1.332-3.15 3.114 0 1.8 1.44 3.132 3.15 3.132zm0-1.35c-.936 0-1.764-.756-1.764-1.782 0-1.008.828-1.764 1.764-1.764.954 0 1.782.756 1.782 1.764 0 1.026-.828 1.782-1.782 1.782zm7.776-5.472c1.71 0 3.15-1.332 3.15-3.114 0-1.8-1.44-3.132-3.15-3.132s-3.168 1.314-3.168 3.132c0 1.8 1.458 3.114 3.168 3.114zm.54 6.624l9.072-12.672h-1.692L49.416 112.5h1.692zm-.54-7.974c-.954 0-1.782-.756-1.782-1.764 0-1.026.828-1.782 1.782-1.782.936 0 1.764.756 1.764 1.782 0 1.008-.828 1.764-1.764 1.764zm8.46 8.172c1.728 0 3.168-1.332 3.168-3.132s-1.458-3.114-3.168-3.114c-1.71 0-3.15 1.332-3.15 3.114 0 1.8 1.44 3.132 3.15 3.132zm0-1.35c-.936 0-1.764-.756-1.764-1.782 0-1.008.828-1.764 1.764-1.764.954 0 1.782.756 1.782 1.764 0 1.026-.828 1.782-1.782 1.782zm7.776-5.472c1.71 0 3.15-1.332 3.15-3.114 0-1.8-1.44-3.132-3.15-3.132s-3.168 1.314-3.168 3.132c0 1.8 1.458 3.114 3.168 3.114zm.54 6.624l9.072-12.672h-1.692L65.652 112.5h1.692zm-.54-7.974c-.954 0-1.782-.756-1.782-1.764 0-1.026.828-1.782 1.782-1.782.936 0 1.764.756 1.764 1.782 0 1.008-.828 1.764-1.764 1.764zm8.46 8.172c1.728 0 3.168-1.332 3.168-3.132s-1.458-3.114-3.168-3.114c-1.71 0-3.15 1.332-3.15 3.114 0 1.8 1.44 3.132 3.15 3.132zm0-1.35c-.936 0-1.764-.756-1.764-1.782 0-1.008.828-1.764 1.764-1.764.954 0 1.782.756 1.782 1.764 0 1.026-.828 1.782-1.782 1.782zm7.776-5.472c1.71 0 3.15-1.332 3.15-3.114 0-1.8-1.44-3.132-3.15-3.132s-3.168 1.314-3.168 3.132c0 1.8 1.458 3.114 3.168 3.114zm.54 6.624l9.072-12.672H90.96L81.888 112.5h1.692zm-.54-7.974c-.954 0-1.782-.756-1.782-1.764 0-1.026.828-1.782 1.782-1.782.936 0 1.764.756 1.764 1.782 0 1.008-.828 1.764-1.764 1.764zm8.46 8.172c1.728 0 3.168-1.332 3.168-3.132s-1.458-3.114-3.168-3.114c-1.71 0-3.15 1.332-3.15 3.114 0 1.8 1.44 3.132 3.15 3.132zm0-1.35c-.936 0-1.764-.756-1.764-1.782 0-1.008.828-1.764 1.764-1.764.954 0 1.782.756 1.782 1.764 0 1.026-.828 1.782-1.782 1.782zm-122.112 11.028c1.71 0 3.15-1.332 3.15-3.114 0-1.8-1.44-3.132-3.15-3.132s-3.168 1.314-3.168 3.132c0 1.8 1.458 3.114 3.168 3.114zm.54 6.624L-21 116.328h-1.692L-31.764 129h1.692zm-.54-7.974c-.954 0-1.782-.756-1.782-1.764 0-1.026.828-1.782 1.782-1.782.936 0 1.764.756 1.764 1.782 0 1.008-.828 1.764-1.764 1.764zm8.46 8.172c1.728 0 3.168-1.332 3.168-3.132s-1.458-3.114-3.168-3.114c-1.71 0-3.15 1.332-3.15 3.114 0 1.8 1.44 3.132 3.15 3.132zm0-1.35c-.936 0-1.764-.756-1.764-1.782 0-1.008.828-1.764 1.764-1.764.954 0 1.782.756 1.782 1.764 0 1.026-.828 1.782-1.782 1.782zm7.776-5.472c1.71 0 3.15-1.332 3.15-3.114 0-1.8-1.44-3.132-3.15-3.132s-3.168 1.314-3.168 3.132c0 1.8 1.458 3.114 3.168 3.114zm.54 6.624l9.072-12.672h-1.692L-15.528 129h1.692zm-.54-7.974c-.954 0-1.782-.756-1.782-1.764 0-1.026.828-1.782 1.782-1.782.936 0 1.764.756 1.764 1.782 0 1.008-.828 1.764-1.764 1.764zm8.46 8.172c1.728 0 3.168-1.332 3.168-3.132s-1.458-3.114-3.168-3.114c-1.71 0-3.15 1.332-3.15 3.114 0 1.8 1.44 3.132 3.15 3.132zm0-1.35c-.936 0-1.764-.756-1.764-1.782 0-1.008.828-1.764 1.764-1.764.954 0 1.782.756 1.782 1.764 0 1.026-.828 1.782-1.782 1.782zm7.776-5.472c1.71 0 3.15-1.332 3.15-3.114 0-1.8-1.44-3.132-3.15-3.132s-3.168 1.314-3.168 3.132c0 1.8 1.458 3.114 3.168 3.114zM2.4 129l9.072-12.672H9.78L.708 129H2.4zm-.54-7.974c-.954 0-1.782-.756-1.782-1.764 0-1.026.828-1.782 1.782-1.782.936 0 1.764.756 1.764 1.782 0 1.008-.828 1.764-1.764 1.764zm8.46 8.172c1.728 0 3.168-1.332 3.168-3.132s-1.458-3.114-3.168-3.114c-1.71 0-3.15 1.332-3.15 3.114 0 1.8 1.44 3.132 3.15 3.132zm0-1.35c-.936 0-1.764-.756-1.764-1.782 0-1.008.828-1.764 1.764-1.764.954 0 1.782.756 1.782 1.764 0 1.026-.828 1.782-1.782 1.782zm7.776-5.472c1.71 0 3.15-1.332 3.15-3.114 0-1.8-1.44-3.132-3.15-3.132s-3.168 1.314-3.168 3.132c0 1.8 1.458 3.114 3.168 3.114zm.54 6.624l9.072-12.672h-1.692L16.944 129h1.692zm-.54-7.974c-.954 0-1.782-.756-1.782-1.764 0-1.026.828-1.782 1.782-1.782.936 0 1.764.756 1.764 1.782 0 1.008-.828 1.764-1.764 1.764zm8.46 8.172c1.728 0 3.168-1.332 3.168-3.132s-1.458-3.114-3.168-3.114c-1.71 0-3.15 1.332-3.15 3.114 0 1.8 1.44 3.132 3.15 3.132zm0-1.35c-.936 0-1.764-.756-1.764-1.782 0-1.008.828-1.764 1.764-1.764.954 0 1.782.756 1.782 1.764 0 1.026-.828 1.782-1.782 1.782zm7.776-5.472c1.71 0 3.15-1.332 3.15-3.114 0-1.8-1.44-3.132-3.15-3.132s-3.168 1.314-3.168 3.132c0 1.8 1.458 3.114 3.168 3.114zm.54 6.624l9.072-12.672h-1.692L33.18 129h1.692zm-.54-7.974c-.954 0-1.782-.756-1.782-1.764 0-1.026.828-1.782 1.782-1.782.936 0 1.764.756 1.764 1.782 0 1.008-.828 1.764-1.764 1.764zm8.46 8.172c1.728 0 3.168-1.332 3.168-3.132s-1.458-3.114-3.168-3.114c-1.71 0-3.15 1.332-3.15 3.114 0 1.8 1.44 3.132 3.15 3.132zm0-1.35c-.936 0-1.764-.756-1.764-1.782 0-1.008.828-1.764 1.764-1.764.954 0 1.782.756 1.782 1.764 0 1.026-.828 1.782-1.782 1.782zm7.776-5.472c1.71 0 3.15-1.332 3.15-3.114 0-1.8-1.44-3.132-3.15-3.132s-3.168 1.314-3.168 3.132c0 1.8 1.458 3.114 3.168 3.114zm.54 6.624l9.072-12.672h-1.692L49.416 129h1.692zm-.54-7.974c-.954 0-1.782-.756-1.782-1.764 0-1.026.828-1.782 1.782-1.782.936 0 1.764.756 1.764 1.782 0 1.008-.828 1.764-1.764 1.764zm8.46 8.172c1.728 0 3.168-1.332 3.168-3.132s-1.458-3.114-3.168-3.114c-1.71 0-3.15 1.332-3.15 3.114 0 1.8 1.44 3.132 3.15 3.132zm0-1.35c-.936 0-1.764-.756-1.764-1.782 0-1.008.828-1.764 1.764-1.764.954 0 1.782.756 1.782 1.764 0 1.026-.828 1.782-1.782 1.782zm7.776-5.472c1.71 0 3.15-1.332 3.15-3.114 0-1.8-1.44-3.132-3.15-3.132s-3.168 1.314-3.168 3.132c0 1.8 1.458 3.114 3.168 3.114zm.54 6.624l9.072-12.672h-1.692L65.652 129h1.692zm-.54-7.974c-.954 0-1.782-.756-1.782-1.764 0-1.026.828-1.782 1.782-1.782.936 0 1.764.756 1.764 1.782 0 1.008-.828 1.764-1.764 1.764zm8.46 8.172c1.728 0 3.168-1.332 3.168-3.132s-1.458-3.114-3.168-3.114c-1.71 0-3.15 1.332-3.15 3.114 0 1.8 1.44 3.132 3.15 3.132zm0-1.35c-.936 0-1.764-.756-1.764-1.782 0-1.008.828-1.764 1.764-1.764.954 0 1.782.756 1.782 1.764 0 1.026-.828 1.782-1.782 1.782zm7.776-5.472c1.71 0 3.15-1.332 3.15-3.114 0-1.8-1.44-3.132-3.15-3.132s-3.168 1.314-3.168 3.132c0 1.8 1.458 3.114 3.168 3.114zm.54 6.624l9.072-12.672H90.96L81.888 129h1.692zm-.54-7.974c-.954 0-1.782-.756-1.782-1.764 0-1.026.828-1.782 1.782-1.782.936 0 1.764.756 1.764 1.782 0 1.008-.828 1.764-1.764 1.764zm8.46 8.172c1.728 0 3.168-1.332 3.168-3.132s-1.458-3.114-3.168-3.114c-1.71 0-3.15 1.332-3.15 3.114 0 1.8 1.44 3.132 3.15 3.132zm0-1.35c-.936 0-1.764-.756-1.764-1.782 0-1.008.828-1.764 1.764-1.764.954 0 1.782.756 1.782 1.764 0 1.026-.828 1.782-1.782 1.782zm-122.112 11.028c1.71 0 3.15-1.332 3.15-3.114 0-1.8-1.44-3.132-3.15-3.132s-3.168 1.314-3.168 3.132c0 1.8 1.458 3.114 3.168 3.114zm.54 6.624L-21 132.828h-1.692l-9.072 12.672h1.692zm-.54-7.974c-.954 0-1.782-.756-1.782-1.764 0-1.026.828-1.782 1.782-1.782.936 0 1.764.756 1.764 1.782 0 1.008-.828 1.764-1.764 1.764zm8.46 8.172c1.728 0 3.168-1.332 3.168-3.132s-1.458-3.114-3.168-3.114c-1.71 0-3.15 1.332-3.15 3.114 0 1.8 1.44 3.132 3.15 3.132zm0-1.35c-.936 0-1.764-.756-1.764-1.782 0-1.008.828-1.764 1.764-1.764.954 0 1.782.756 1.782 1.764 0 1.026-.828 1.782-1.782 1.782zm7.776-5.472c1.71 0 3.15-1.332 3.15-3.114 0-1.8-1.44-3.132-3.15-3.132s-3.168 1.314-3.168 3.132c0 1.8 1.458 3.114 3.168 3.114zm.54 6.624l9.072-12.672h-1.692l-9.072 12.672h1.692zm-.54-7.974c-.954 0-1.782-.756-1.782-1.764 0-1.026.828-1.782 1.782-1.782.936 0 1.764.756 1.764 1.782 0 1.008-.828 1.764-1.764 1.764zm8.46 8.172c1.728 0 3.168-1.332 3.168-3.132s-1.458-3.114-3.168-3.114c-1.71 0-3.15 1.332-3.15 3.114 0 1.8 1.44 3.132 3.15 3.132zm0-1.35c-.936 0-1.764-.756-1.764-1.782 0-1.008.828-1.764 1.764-1.764.954 0 1.782.756 1.782 1.764 0 1.026-.828 1.782-1.782 1.782zm7.776-5.472c1.71 0 3.15-1.332 3.15-3.114 0-1.8-1.44-3.132-3.15-3.132s-3.168 1.314-3.168 3.132c0 1.8 1.458 3.114 3.168 3.114zm.54 6.624l9.072-12.672H9.78L.708 145.5H2.4zm-.54-7.974c-.954 0-1.782-.756-1.782-1.764 0-1.026.828-1.782 1.782-1.782.936 0 1.764.756 1.764 1.782 0 1.008-.828 1.764-1.764 1.764zm8.46 8.172c1.728 0 3.168-1.332 3.168-3.132s-1.458-3.114-3.168-3.114c-1.71 0-3.15 1.332-3.15 3.114 0 1.8 1.44 3.132 3.15 3.132zm0-1.35c-.936 0-1.764-.756-1.764-1.782 0-1.008.828-1.764 1.764-1.764.954 0 1.782.756 1.782 1.764 0 1.026-.828 1.782-1.782 1.782zm7.776-5.472c1.71 0 3.15-1.332 3.15-3.114 0-1.8-1.44-3.132-3.15-3.132s-3.168 1.314-3.168 3.132c0 1.8 1.458 3.114 3.168 3.114zm.54 6.624l9.072-12.672h-1.692L16.944 145.5h1.692zm-.54-7.974c-.954 0-1.782-.756-1.782-1.764 0-1.026.828-1.782 1.782-1.782.936 0 1.764.756 1.764 1.782 0 1.008-.828 1.764-1.764 1.764zm8.46 8.172c1.728 0 3.168-1.332 3.168-3.132s-1.458-3.114-3.168-3.114c-1.71 0-3.15 1.332-3.15 3.114 0 1.8 1.44 3.132 3.15 3.132zm0-1.35c-.936 0-1.764-.756-1.764-1.782 0-1.008.828-1.764 1.764-1.764.954 0 1.782.756 1.782 1.764 0 1.026-.828 1.782-1.782 1.782zm7.776-5.472c1.71 0 3.15-1.332 3.15-3.114 0-1.8-1.44-3.132-3.15-3.132s-3.168 1.314-3.168 3.132c0 1.8 1.458 3.114 3.168 3.114zm.54 6.624l9.072-12.672h-1.692L33.18 145.5h1.692zm-.54-7.974c-.954 0-1.782-.756-1.782-1.764 0-1.026.828-1.782 1.782-1.782.936 0 1.764.756 1.764 1.782 0 1.008-.828 1.764-1.764 1.764zm8.46 8.172c1.728 0 3.168-1.332 3.168-3.132s-1.458-3.114-3.168-3.114c-1.71 0-3.15 1.332-3.15 3.114 0 1.8 1.44 3.132 3.15 3.132zm0-1.35c-.936 0-1.764-.756-1.764-1.782 0-1.008.828-1.764 1.764-1.764.954 0 1.782.756 1.782 1.764 0 1.026-.828 1.782-1.782 1.782zm7.776-5.472c1.71 0 3.15-1.332 3.15-3.114 0-1.8-1.44-3.132-3.15-3.132s-3.168 1.314-3.168 3.132c0 1.8 1.458 3.114 3.168 3.114zm.54 6.624l9.072-12.672h-1.692L49.416 145.5h1.692zm-.54-7.974c-.954 0-1.782-.756-1.782-1.764 0-1.026.828-1.782 1.782-1.782.936 0 1.764.756 1.764 1.782 0 1.008-.828 1.764-1.764 1.764zm8.46 8.172c1.728 0 3.168-1.332 3.168-3.132s-1.458-3.114-3.168-3.114c-1.71 0-3.15 1.332-3.15 3.114 0 1.8 1.44 3.132 3.15 3.132zm0-1.35c-.936 0-1.764-.756-1.764-1.782 0-1.008.828-1.764 1.764-1.764.954 0 1.782.756 1.782 1.764 0 1.026-.828 1.782-1.782 1.782zm7.776-5.472c1.71 0 3.15-1.332 3.15-3.114 0-1.8-1.44-3.132-3.15-3.132s-3.168 1.314-3.168 3.132c0 1.8 1.458 3.114 3.168 3.114zm.54 6.624l9.072-12.672h-1.692L65.652 145.5h1.692zm-.54-7.974c-.954 0-1.782-.756-1.782-1.764 0-1.026.828-1.782 1.782-1.782.936 0 1.764.756 1.764 1.782 0 1.008-.828 1.764-1.764 1.764zm8.46 8.172c1.728 0 3.168-1.332 3.168-3.132s-1.458-3.114-3.168-3.114c-1.71 0-3.15 1.332-3.15 3.114 0 1.8 1.44 3.132 3.15 3.132zm0-1.35c-.936 0-1.764-.756-1.764-1.782 0-1.008.828-1.764 1.764-1.764.954 0 1.782.756 1.782 1.764 0 1.026-.828 1.782-1.782 1.782zm7.776-5.472c1.71 0 3.15-1.332 3.15-3.114 0-1.8-1.44-3.132-3.15-3.132s-3.168 1.314-3.168 3.132c0 1.8 1.458 3.114 3.168 3.114zm.54 6.624l9.072-12.672H90.96L81.888 145.5h1.692zm-.54-7.974c-.954 0-1.782-.756-1.782-1.764 0-1.026.828-1.782 1.782-1.782.936 0 1.764.756 1.764 1.782 0 1.008-.828 1.764-1.764 1.764zm8.46 8.172c1.728 0 3.168-1.332 3.168-3.132s-1.458-3.114-3.168-3.114c-1.71 0-3.15 1.332-3.15 3.114 0 1.8 1.44 3.132 3.15 3.132zm0-1.35c-.936 0-1.764-.756-1.764-1.782 0-1.008.828-1.764 1.764-1.764.954 0 1.782.756 1.782 1.764 0 1.026-.828 1.782-1.782 1.782z" mask="url(#3m9cnmsdgd)"/>
                                </g>
                                <path stroke="#F5F5F5" d="M0 0L72 0 72 144 0 144z"/>
                            </g>
                            <circle cx="36" cy="18" r="6" fill="#FF4201" stroke="#0F0F10"/>
                        </g>
                        <path stroke="#0F0F10" d="M45.27 67.036c-.572-25.715 1.428-43.715 6-54 6.856-15.429 26.25-12 26.25 3.75 0 10.5-11 31.25-33 62.25" transform="translate(88 27) rotate(15 61.02 41.05)"/>
                    </g>
                </g>
            </g>
        </g>
    </g>
</svg>
