<svg xmlns="http://www.w3.org/2000/svg" xmlns:xlink="http://www.w3.org/1999/xlink" width="240" height="320" viewBox="0 0 240 320">
    <defs>
        <path id="54gs65y7ga" d="M0 0L240 0 240 320 0 320z"/>
        <path id="a8m1tv31hc" d="M0.24 0.195L22.894 0.195 22.894 38.027 0.24 38.027z"/>
        <path id="7dem3jww4e" d="M0 0.027L44.557 0.027 44.557 21.998 0 21.998z"/>
        <path id="rysszr3dog" d="M0.16 0.005L15.263 0.005 15.263 25.227 0.16 25.227z"/>
        <path id="muiz50rzzi" d="M0 0.268L29.705 0.268 29.705 14.916 0 14.916z"/>
        <path id="3aip7shq3k" d="M0.357 0.128L10.425 0.128 10.425 16.943 0.357 16.943z"/>
        <path id="bis808qebm" d="M0 0.054L19.803 0.054 19.803 9.819 0 9.819z"/>
    </defs>
    <g fill="none" fill-rule="evenodd">
        <g>
            <g transform="translate(-192 -8437) translate(192 8437)">
                <mask id="hdbbe920jb" fill="#fff">
                    <use xlink:href="#54gs65y7ga"/>
                </mask>
                <use fill="#FF5601" xlink:href="#54gs65y7ga"/>
                <g mask="url(#hdbbe920jb)">
                    <g>
                        <path d="M0 0H486V486H0z" transform="translate(-123 -83)"/>
                        <g fill="#0F0F10">
                            <path d="M154.993 78.979L144.065 8.779 150.681 5.661 161.609 75.861zM101.604 67.249c-3.57-3.725-7.054-4.937-10.365-1.944-3.084 2.786-2.223 6.154.876 9.585 3.666 4.056 6.674 3.825 10.586 1.953l1.949-.827c6.75-3.094 12.703-3.282 19.257 3.97 6.193 6.856 6.482 15.21-.15 21.2-6.794 6.14-13.684 5.52-20.878-2.092l6.231-5.63c3.783 3.844 6.684 4.648 9.538 2.064 2.805-2.526 2.001-6.058-.944-9.316-3.507-3.883-6.36-3.59-9.99-1.867l-1.948.828c-6.024 2.747-12.16 4.345-19.849-4.167-6.76-7.483-6.703-15.11.039-21.201 7.198-6.501 14.791-5.79 21.874 1.818l-6.226 5.626zM152.895 382.979L97.423 427.388 91.428 423.196 146.894 378.788zM328.272 384.381L339.075 454.543 332.454 457.647 321.656 387.485zM381.699 396.082c3.57 3.73 7.049 4.947 10.364 1.954 3.09-2.782 2.228-6.155-.86-9.58-3.663-4.067-6.675-3.84-10.587-1.974l-1.949.828c-6.756 3.084-12.708 3.262-19.252-3.999-6.188-6.866-6.463-15.22.173-21.201 6.804-6.13 13.695-5.5 20.879 2.122l-6.236 5.62c-3.778-3.85-6.68-4.653-9.542-2.078-2.8 2.526-2.002 6.058.933 9.315 3.508 3.893 6.357 3.604 9.99 1.882l1.948-.823c6.035-2.738 12.165-4.326 19.845 4.196 6.75 7.492 6.683 15.119-.068 21.201-7.203 6.496-14.801 5.77-21.87-1.848l6.232-5.615zM330.946 80.361L386.509 36.12 392.495 40.326 336.932 84.571z" transform="translate(-123 -83) translate(0 9.563)"/>
                        </g>
                        <g>
                            <path d="M0 0H324V324H0z" transform="translate(-123 -83) translate(81 81)"/>
                            <g>
                                <path fill="#0F0F10" d="M209.268 18.643c.956-3.305.491-5.717-2.341-6.628-2.637-.85-4.293.773-5.236 3.705-1.113 3.468.023 5.126 2.41 6.76l1.129.846c4.038 2.865 6.133 6.233 4.138 12.437-1.886 5.861-6.608 8.816-12.274 6.993-5.812-1.87-7.756-6.053-5.768-12.741l5.326 1.713c-.953 3.464-.446 5.408 1.995 6.194 2.396.77 4.164-.872 5.059-3.657 1.068-3.323-.051-4.866-2.259-6.387l-1.129-.847c-3.596-2.56-6.566-5.562-4.225-12.841 2.06-6.4 6.48-8.915 12.242-7.057 6.156 1.976 8.283 6.595 6.259 13.223l-5.326-1.713z" transform="translate(-123 -83) translate(81 81) translate(0 6.375)"/>
                                <g transform="translate(-123 -83) translate(81 81) translate(0 6.375) translate(169.062 .013)">
                                    <mask id="r0tlzq7w4d" fill="#fff">
                                        <use xlink:href="#a8m1tv31hc"/>
                                    </mask>
                                    <path fill="#0F0F10" d="M8.362 32.195l5.287-18.573-7.026-.883.568 19.309 1.171.147zM6.431 7.283l8.706 1.097 1.903-6.07 5.854.738-11.337 34.98-9.008-1.136L.24.193l5.804.732.388 6.358z" mask="url(#r0tlzq7w4d)"/>
                                </g>
                                <path fill="#0F0F10" d="M144.623 6.37L144.363 1.038 160.813.24 162.571 36.319 156.883 36.595 155.385 5.844zM136.606 33.647L134.543 24.164 125.712 26.086 124.599 20.969 133.43 19.047 131.191 8.763 120.605 11.063 119.469 5.847 135.624 2.331 143.311 37.653 127.156 41.169 126.02 35.95zM103.328 52.653L96.043 5.853 100.454 3.774 107.739 50.574zM67.736 44.832c-2.38-2.483-4.703-3.291-6.91-1.296-2.056 1.858-1.482 4.103.584 6.39 2.444 2.705 4.45 2.55 7.057 1.303l1.3-.552c4.5-2.063 8.468-2.188 12.838 2.647 4.128 4.571 4.32 10.14-.1 14.134-4.53 4.093-9.123 3.68-13.919-1.396l4.154-3.753c2.522 2.563 4.456 3.099 6.358 1.376 1.87-1.684 1.335-4.038-.628-6.21-2.339-2.589-4.241-2.393-6.66-1.245l-1.3.552c-4.016 1.832-8.106 2.897-13.232-2.778-4.507-4.989-4.469-10.073.026-14.134 4.799-4.334 9.86-3.86 14.583 1.212l-4.151 3.75zM63.543 79.157l-13.39-13.922-4.305 5.627 16.976 9.232.719-.937zM41.036 68.28l5.332-6.97-4.286-4.703 3.586-4.687 24.525 27.415-5.518 7.214-32.881-16.485 3.551-4.648 5.691 2.864zM24.719 94.593L19.974 92.148 27.516 77.504 59.634 94.047 57.026 99.109 29.653 85.014zM44.328 115.165L35.086 112.224 32.347 120.831 27.358 119.243 30.098 110.636 20.073 107.444 16.792 117.764 11.704 116.144 16.718 100.396 51.142 111.358 46.131 127.102 41.043 125.482z" transform="translate(-123 -83) translate(81 81) translate(0 6.375)"/>
                                <g transform="translate(-123 -83) translate(81 81) translate(0 6.375) translate(0 131.538)">
                                    <mask id="fbtwcgi96f" fill="#fff">
                                        <use xlink:href="#7dem3jww4e"/>
                                    </mask>
                                    <path fill="#0F0F10" d="M44.15 21.998L-0.001 4.887 0.41 0.027 44.557 17.138z" mask="url(#fbtwcgi96f)"/>
                                </g>
                                <path fill="#0F0F10" d="M19.536 180.469c-3.343.815-5.21 2.418-4.588 5.331.574 2.71 2.807 3.34 5.823 2.698 3.564-.757 4.44-2.57 4.667-5.45l.173-1.402c.475-4.93 2.355-8.427 8.736-9.784 6.027-1.28 10.942 1.35 12.18 7.176 1.27 5.976-1.395 9.742-8.193 11.346l-1.161-5.476c3.48-.898 4.914-2.303 4.382-4.815-.523-2.46-2.83-3.175-5.691-2.57-3.417.726-4.2 2.468-4.42 5.14l-.174 1.402c-.433 4.395-1.562 8.465-9.043 10.057-6.58 1.395-10.961-1.187-12.219-7.116-1.347-6.329 1.607-10.47 8.363-12.013l1.165 5.476zM47.155 201.269l-18.753 4.654 2.73 6.541L47.61 202.36l-.456-1.09zm-20.662 14.076l-3.384-8.103-6.214 1.373-2.274-5.45 36.009-7.574 3.496 8.385L23.42 224.25l-2.255-5.402 5.328-3.503zM41.137 242.556L36.653 245.453 27.712 231.611 58.072 212.004 61.161 216.79 35.289 233.5zM68.779 235.905L61.609 242.437 67.692 249.112 63.823 252.638 57.741 245.962 49.965 253.045 57.256 261.049 53.311 264.645 42.182 252.429 68.888 228.101 80.016 240.316 76.071 243.909zM101.93 255.319L64.949 284.925 60.952 282.131 97.929 252.525zM112.854 290.064c-.963 3.305-.504 5.72 2.332 6.638 2.637.853 4.295-.767 5.245-3.7 1.12-3.47-.013-5.132-2.4-6.765l-1.126-.85c-4.038-2.874-6.127-6.249-4.119-12.453 1.896-5.86 6.628-8.809 12.296-6.977 5.813 1.883 7.747 6.07 5.746 12.761l-5.325-1.723c.959-3.464.455-5.411-1.986-6.2-2.396-.777-4.167.866-5.069 3.647-1.074 3.323.042 4.873 2.25 6.396l1.125.85c3.596 2.567 6.56 5.576 4.206 12.855-2.073 6.403-6.496 8.908-12.264 7.041-6.153-1.992-8.273-6.618-6.236-13.242l5.325 1.722zM144.659 276.534l-5.326 18.567 7.026.899-.53-19.315-1.17-.151zm1.883 24.922l-8.703-1.116-1.916 6.07-5.854-.748 11.404-34.966 9.011 1.151 2.24 36.709-5.804-.742-.378-6.358zM177.46 302.428L177.713 307.759 161.263 308.542 159.54 272.463 165.228 272.193 166.697 302.941zM185.541 275.188L187.584 284.671 196.416 282.765 197.519 287.885 188.688 289.788 190.905 300.072 201.494 297.791 202.617 303.007 186.462 306.491 178.846 271.172 195.001 267.688 196.127 272.907zM218.848 256.254L226.05 303.029 221.636 305.098 214.437 258.323zM254.466 264.055c2.38 2.486 4.7 3.297 6.91 1.302 2.06-1.854 1.485-4.103-.575-6.387-2.44-2.71-4.449-2.56-7.057-1.315l-1.3.552c-4.503 2.056-8.471 2.175-12.834-2.666-4.126-4.578-4.308-10.147.115-14.134 4.536-4.087 9.13-3.667 13.92 1.414l-4.158 3.747c-2.518-2.566-4.453-3.102-6.361-1.386-1.867 1.685-1.335 4.04.622 6.21 2.339 2.596 4.238 2.404 6.66 1.255l1.299-.548c4.023-1.826 8.11-2.884 13.23 2.797 4.5 4.995 4.455 10.08-.046 14.134-4.802 4.33-9.867 3.846-14.58-1.232l4.155-3.743zM258.665 229.78l13.368 13.938 4.311-5.62-16.96-9.255-.719.937zm22.488 10.906l-5.341 6.965 4.282 4.706-3.593 4.683-24.486-27.443 5.527-7.208 32.856 16.527-3.56 4.642-5.685-2.872zM297.494 214.448L302.235 216.902 294.661 231.53 262.579 214.92 265.197 209.864 292.541 224.017zM277.924 193.78L287.166 196.741 289.921 188.134 294.91 189.731 292.154 198.338 302.179 201.549 305.483 191.229 310.567 192.859 305.525 208.607 271.1 197.578 276.143 181.83 281.228 183.46zM278.157 155.454L322.292 172.61 321.878 177.466 277.743 160.314zM302.829 128.544c3.343-.812 5.21-2.413 4.594-5.325-.578-2.714-2.807-3.343-5.82-2.705-3.567.754-4.442 2.563-4.673 5.447l-.177 1.402c-.478 4.928-2.36 8.421-8.741 9.771-6.025 1.274-10.936-1.36-12.171-7.185-1.264-5.977 1.405-9.743 8.202-11.337l1.158 5.476c-3.483.895-4.917 2.3-4.388 4.809.523 2.46 2.826 3.182 5.688 2.576 3.416-.722 4.202-2.461 4.423-5.133l.177-1.402c.433-4.395 1.569-8.466 9.05-10.047 6.579-1.39 10.958 1.2 12.209 7.125 1.34 6.329-1.614 10.467-8.373 12.004l-1.158-5.476zM275.255 107.708l18.75-4.636-2.72-6.54-16.483 10.088.453 1.088zm20.668-14.051l3.375 8.1 6.214-1.363 2.268 5.447-36 7.541-3.493-8.388 30.716-20.236 2.249 5.4-5.329 3.499zM281.33 66.404L285.822 63.517 294.73 77.375 264.335 96.915 261.255 92.122 287.159 75.47zM253.669 73.022L260.848 66.5 254.772 59.815 258.647 56.296 264.72 62.981 272.509 55.904 265.227 47.891 269.176 44.301 280.288 56.533 253.547 80.827 242.438 68.595 246.387 65.005zM220.631 53.574L257.673 24.08 261.663 26.884 224.622 56.381z" transform="translate(-123 -83) translate(81 81) translate(0 6.375)"/>
                            </g>
                        </g>
                        <g>
                            <path d="M0 0H216V216H0z" transform="translate(-123 -83) translate(135 135)"/>
                            <g>
                                <path fill="#0F0F10" d="M139.512 12.553c.638-2.202.327-3.81-1.56-4.418-1.759-.567-2.862.515-3.491 2.47-.742 2.312.015 3.418 1.606 4.506l.753.565c2.692 1.91 4.089 4.155 2.759 8.291-1.258 3.907-4.406 5.877-8.183 4.662-3.875-1.246-5.17-4.035-3.845-8.494l3.55 1.142c-.635 2.31-.297 3.605 1.33 4.13 1.598.513 2.776-.582 3.373-2.439.712-2.215-.034-3.244-1.506-4.258l-.752-.564c-2.398-1.707-4.378-3.709-2.817-8.561 1.373-4.267 4.32-5.943 8.16-4.705 4.105 1.317 5.523 4.397 4.173 8.815l-3.55-1.142z" transform="translate(-123 -83) translate(135 135) translate(0 4.125)"/>
                                <g transform="translate(-123 -83) translate(135 135) translate(0 4.125) translate(112.708 .259)">
                                    <mask id="92uaqjtheh" fill="#fff">
                                        <use xlink:href="#rysszr3dog"/>
                                    </mask>
                                    <path fill="#0F0F10" d="M5.575 21.339L9.099 8.956l-4.683-.588.378 12.872.78.099zM4.287 4.73l5.805.732 1.268-4.047 3.903.492-7.558 23.32L1.7 24.47.16.004 4.029.49l.258 4.24z" mask="url(#92uaqjtheh)"/>
                                </g>
                                <path fill="#0F0F10" d="M96.415 4.372L96.242.817 107.209.285 108.381 24.338 104.589 24.522 103.59 4.021zM91.071 22.556L89.696 16.234 83.808 17.515 83.066 14.104 88.954 12.823 87.461 5.967 80.403 7.5 79.646 4.023 90.416 1.679 95.54 25.227 84.77 27.571 84.013 24.092zM68.886 35.227L64.029 4.027 66.969 2.641 71.826 33.841zM45.157 30.013c-1.587-1.655-3.135-2.194-4.606-.864-1.371 1.238-.988 2.736.389 4.26 1.63 1.803 2.966 1.7 4.705.869l.866-.368c3-1.375 5.646-1.459 8.559 1.764 2.752 3.048 2.88 6.76-.067 9.423-3.02 2.729-6.082 2.453-9.279-.93l2.77-2.503c1.68 1.71 2.97 2.066 4.238.918 1.247-1.123.89-2.693-.419-4.14-1.559-1.726-2.827-1.596-4.44-.83l-.866.368c-2.677 1.22-5.404 1.93-8.822-1.852-3.004-3.326-2.979-6.716.017-9.423 3.2-2.89 6.575-2.573 9.723.808l-2.768 2.5zM42.362 52.897l-8.927-9.282-2.87 3.751 11.318 6.155.479-.624zm-15.005-7.252l3.555-4.648-2.857-3.135 2.39-3.124 16.35 18.276-3.678 4.81-21.921-10.99 2.367-3.1 3.794 1.91zM16.479 63.187L13.316 61.557 18.344 51.794 39.756 62.823 38.017 66.198 19.768 56.801zM29.552 76.902L23.391 74.941 21.564 80.679 18.239 79.62 20.065 73.882 13.382 71.754 11.194 78.634 7.803 77.554 11.145 67.056 34.095 74.363 30.754 84.86 27.362 83.78z" transform="translate(-123 -83) translate(135 135) translate(0 4.125)"/>
                                <g transform="translate(-123 -83) translate(135 135) translate(0 4.125) translate(0 87.567)">
                                    <mask id="eq5suy4w7j" fill="#fff">
                                        <use xlink:href="#muiz50rzzi"/>
                                    </mask>
                                    <path fill="#0F0F10" d="M29.433 14.916L-0.001 3.508 0.273 0.268 29.705 11.676z" mask="url(#eq5suy4w7j)"/>
                                </g>
                                <path fill="#0F0F10" d="M13.024 120.437c-2.229.544-3.473 1.613-3.058 3.555.382 1.807 1.87 2.226 3.881 1.798 2.376-.504 2.96-1.713 3.112-3.633l.115-.935c.317-3.287 1.57-5.618 5.824-6.522 4.018-.854 7.295.9 8.12 4.784.847 3.984-.93 6.495-5.462 7.564l-.774-3.65c2.32-.6 3.276-1.536 2.921-3.21-.348-1.641-1.886-2.118-3.794-1.714-2.277.484-2.8 1.645-2.947 3.426l-.115.935c-.289 2.93-1.042 5.644-6.029 6.704-4.386.93-7.308-.79-8.146-4.743-.898-4.22 1.071-6.98 5.575-8.01l.777 3.651zM31.437 134.304l-12.502 3.103 1.82 4.36 10.986-6.736-.304-.727zm-13.775 9.384l-2.256-5.402-4.143.915-1.516-3.633 24.006-5.05 2.331 5.591-20.47 13.516-1.504-3.601 3.552-2.336zM27.425 161.829L24.435 163.76 18.475 154.532 38.715 141.461 40.774 144.652 23.526 155.792zM45.853 157.395L41.073 161.749 45.128 166.2 42.549 168.55 38.494 164.1 33.31 168.822 38.171 174.158 35.54 176.555 28.121 168.411 45.925 152.192 53.344 160.336 50.714 162.731zM67.953 170.338L43.299 190.075 40.635 188.212 65.286 168.475zM75.236 193.501c-.642 2.203-.336 3.813 1.555 4.425 1.758.569 2.863-.511 3.496-2.466.747-2.314-.008-3.422-1.6-4.51l-.75-.567c-2.693-1.916-4.085-4.166-2.746-8.302 1.264-3.907 4.418-5.873 8.197-4.651 3.875 1.255 5.165 4.046 3.83 8.507l-3.55-1.148c.64-2.31.304-3.608-1.323-4.134-1.598-.518-2.779.577-3.38 2.431-.716 2.216.028 3.249 1.5 4.265l.75.566c2.398 1.711 4.374 3.717 2.804 8.57-1.381 4.268-4.33 5.939-8.176 4.694-4.102-1.328-5.515-4.412-4.157-8.828l3.55 1.148zM96.44 184.481l-3.551 12.378 4.684.6-.353-12.877-.78-.101zm1.254 16.615l-5.802-.744-1.276 4.046-3.903-.498 7.602-23.311 6.008.768 1.493 24.472-3.87-.494-.252-4.24zM118.307 201.743L118.476 205.298 107.509 205.82 106.36 181.767 110.152 181.587 111.132 202.086zM123.694 183.584L125.056 189.906 130.944 188.635 131.68 192.049 125.792 193.317 127.27 200.173 134.329 198.653 135.078 202.13 124.308 204.452 119.231 180.906 130.001 178.584 130.751 182.063zM145.899 170.961L150.7 202.144 147.757 203.524 142.958 172.341zM169.644 176.161c1.587 1.658 3.133 2.199 4.606.869 1.373-1.236.99-2.736-.382-4.258-1.628-1.807-2.967-1.707-4.705-.877l-.866.368c-3.003 1.37-5.649 1.45-8.557-1.777-2.75-3.052-2.872-6.765.077-9.423 3.024-2.725 6.086-2.445 9.28.943l-2.772 2.498c-1.68-1.711-2.969-2.068-4.241-.924-1.245 1.123-.89 2.692.415 4.14 1.559 1.73 2.825 1.602 4.44.836l.866-.365c2.681-1.217 5.406-1.923 8.82 1.865 3 3.33 2.97 6.72-.03 9.422-3.202 2.888-6.579 2.565-9.72-.82l2.769-2.497zM172.443 153.311l8.912 9.293 2.874-3.747-11.306-6.17-.48.624zm14.992 7.272l-3.56 4.643 2.854 3.137-2.395 3.122-16.324-18.296 3.685-4.805 21.904 11.018-2.374 3.095-3.79-1.914zM198.329 143.09L201.49 144.726 196.441 154.478 175.053 143.405 176.798 140.034 195.027 149.47zM185.282 129.311L191.444 131.285 193.281 125.547 196.606 126.612 194.769 132.35 201.453 134.491 203.655 127.611 207.045 128.698 203.683 139.196 180.734 131.844 184.096 121.345 187.485 122.432zM185.438 103.761L214.861 115.198 214.585 118.436 185.162 107.001zM201.886 85.82c2.228-.54 3.473-1.607 3.062-3.55-.384-1.809-1.87-2.228-3.879-1.802-2.378.502-2.962 1.709-3.116 3.631l-.118.935c-.318 3.285-1.574 5.614-5.827 6.514-4.017.849-7.29-.907-8.114-4.79-.843-3.985.937-6.495 5.468-7.558l.772 3.65c-2.322.597-3.278 1.534-2.925 3.206.348 1.64 1.884 2.122 3.791 1.717 2.278-.48 2.802-1.64 2.95-3.421l.117-.935c.289-2.93 1.046-5.644 6.033-6.698 4.387-.926 7.306.8 8.14 4.75.894 4.22-1.076 6.978-5.582 8.002l-.772-3.65zM183.503 71.93l12.5-3.09-1.813-4.36-10.988 6.725.301.725zm13.78-9.367l2.249 5.4 4.143-.909 1.512 3.631-24 5.028-2.329-5.592 20.477-13.49 1.5 3.599-3.553 2.333zM187.554 44.395L190.548 42.47 196.487 51.709 176.223 64.735 174.17 61.54 191.44 50.438zM169.112 48.806L173.899 44.458 169.848 40.002 172.432 37.656 176.48 42.112 181.672 37.395 176.818 32.052 179.45 29.659 186.859 37.814 169.031 54.01 161.625 45.855 164.258 43.462zM147.087 35.841L171.782 16.179 174.442 18.048 149.748 37.712z" transform="translate(-123 -83) translate(135 135) translate(0 4.125)"/>
                            </g>
                        </g>
                        <g>
                            <path d="M0 0H144V144H0z" transform="translate(-123 -83) translate(171 171)"/>
                            <g>
                                <path fill="#0F0F10" d="M93.008 8.494c.425-1.469.218-2.54-1.04-2.946-1.173-.377-1.908.344-2.327 1.647-.495 1.541.01 2.278 1.07 3.004l.502.376c1.795 1.274 2.726 2.77 1.84 5.528-.839 2.605-2.938 3.918-5.456 3.108-2.583-.831-3.447-2.69-2.563-5.663l2.367.762c-.424 1.54-.198 2.403.887 2.753 1.065.342 1.85-.388 2.248-1.626.475-1.477-.023-2.163-1.004-2.838l-.502-.377c-1.598-1.138-2.918-2.472-1.877-5.707.915-2.844 2.88-3.962 5.44-3.137 2.736.879 3.682 2.932 2.782 5.877l-2.367-.761z" transform="translate(-123 -83) translate(171 171) translate(0 2.625)"/>
                                <g transform="translate(-123 -83) translate(171 171) translate(0 2.625) translate(74.889 .173)">
                                    <mask id="r18od3q0cl" fill="#fff">
                                        <use xlink:href="#3aip7shq3k"/>
                                    </mask>
                                    <path fill="#0F0F10" d="M3.966 14.35l2.35-8.254-3.122-.392.252 8.581.52.066zM3.108 3.279l3.87.488.845-2.697 2.602.327-5.038 15.547-4.004-.505L.357.128l2.579.325.172 2.825z" mask="url(#r18od3q0cl)"/>
                                </g>
                                <path fill="#0F0F10" d="M64.277 3.039L64.161.67 71.472.315 72.254 16.35 69.726 16.473 69.06 2.806zM60.714 15.162L59.797 10.948 55.872 11.802 55.377 9.528 59.302 8.674 58.307 4.103 53.602 5.125 53.098 2.807 60.278 1.244 63.694 16.943 56.514 18.506 56.009 16.186zM45.924 23.61L42.686 2.809 44.646 1.886 47.884 22.686zM30.105 20.134c-1.058-1.104-2.09-1.463-3.071-.576-.914.825-.659 1.823.26 2.84 1.086 1.202 1.977 1.133 3.136.579l.577-.245c2-.917 3.764-.973 5.706 1.176 1.835 2.031 1.92 4.507-.044 6.282-2.013 1.819-4.055 1.635-6.186-.62l1.846-1.669c1.12 1.14 1.98 1.378 2.826.612.831-.749.593-1.795-.28-2.76-1.039-1.15-1.884-1.064-2.96-.554l-.577.246c-1.785.814-3.603 1.287-5.881-1.235-2.003-2.217-1.986-4.477.011-6.282 2.133-1.926 4.383-1.715 6.482.54l-1.845 1.666zM28.241 35.39l-5.95-6.188-1.914 2.5 7.545 4.104.32-.417zm-10.003-4.835l2.37-3.098-1.905-2.09 1.594-2.084 10.9 12.185-2.452 3.206-14.614-7.327 1.578-2.065 2.53 1.273zM10.986 42.25L8.878 41.163 12.229 34.655 26.504 42.007 25.345 44.257 13.179 37.992zM19.701 51.393L15.594 50.086 14.376 53.911 12.159 53.205 13.377 49.38 8.921 47.961 7.463 52.548 5.202 51.828 7.43 44.829 22.73 49.701 20.503 56.698 18.242 55.978z" transform="translate(-123 -83) translate(171 171) translate(0 2.625)"/>
                                <g transform="translate(-123 -83) translate(171 171) translate(0 2.625) translate(0 58.628)">
                                    <mask id="6p1w3o89an" fill="#fff">
                                        <use xlink:href="#bis808qebm"/>
                                    </mask>
                                    <path fill="#0F0F10" d="M19.622 9.819L0 2.214 0.182 0.054 19.803 7.659z" mask="url(#6p1w3o89an)"/>
                                </g>
                                <path fill="#0F0F10" d="M8.682 80.417c-1.485.362-2.315 1.075-2.038 2.37.255 1.204 1.247 1.483 2.587 1.198 1.584-.336 1.974-1.142 2.075-2.422l.077-.623c.21-2.191 1.046-3.746 3.882-4.349 2.68-.568 4.863.6 5.414 3.19.564 2.656-.62 4.33-3.642 5.043l-.516-2.434c1.547-.4 2.184-1.024 1.948-2.14-.233-1.094-1.258-1.412-2.53-1.142-1.518.322-1.866 1.096-1.964 2.284l-.077.623c-.193 1.953-.694 3.762-4.02 4.47-2.924.62-4.871-.528-5.43-3.163-.599-2.813.714-4.653 3.717-5.34l.517 2.435zM20.958 89.661l-8.335 2.069 1.213 2.907 7.324-4.491-.202-.485zm-9.183 6.256l-1.504-3.601-2.762.61-1.01-2.422 16.003-3.367 1.554 3.727-13.647 9.011-1.002-2.4 2.368-1.558zM18.283 108.011L16.29 109.299 12.317 103.147 25.81 94.432 27.183 96.56 15.684 103.986zM30.568 105.055L27.382 107.958 30.085 110.925 28.366 112.492 25.663 109.525 22.207 112.673 25.447 116.23 23.694 117.828 18.748 112.399 30.617 101.586 35.563 107.016 33.809 108.612zM45.302 113.683L28.866 126.842 27.09 125.6 43.524 112.442zM50.157 129.126c-.428 1.468-.224 2.542 1.037 2.95 1.172.379 1.909-.341 2.33-1.644.498-1.543-.005-2.281-1.066-3.007l-.5-.378c-1.795-1.277-2.723-2.777-1.83-5.535.842-2.604 2.945-3.915 5.464-3.1 2.584.836 3.443 2.697 2.554 5.671l-2.367-.766c.426-1.54.202-2.405-.883-2.756-1.065-.345-1.852.385-2.252 1.621-.478 1.478.018 2.166 1 2.843l.5.378c1.598 1.14 2.915 2.478 1.869 5.713-.921 2.846-2.887 3.96-5.45 3.13-2.735-.886-3.678-2.942-2.773-5.886l2.367.766zM64.293 123.112l-2.367 8.253 3.122.399-.235-8.585-.52-.067zm.837 11.077l-3.868-.496-.852 2.697-2.602-.332 5.069-15.54 4.005.511.995 16.315-2.58-.33-.167-2.825zM78.871 134.621L78.984 136.99 71.673 137.338 70.907 121.303 73.435 121.183 74.088 134.849zM82.463 122.514L83.371 126.729 87.296 125.882 87.786 128.157 83.861 129.003 84.847 133.574 89.553 132.56 90.052 134.878 82.872 136.427 79.487 120.729 86.667 119.181 87.168 121.501zM97.266 114.099L100.467 134.888 98.505 135.807 95.305 115.019zM113.096 117.566c1.058 1.105 2.089 1.466 3.07.579.916-.824.661-1.824-.254-2.839-1.085-1.205-1.978-1.138-3.137-.584l-.577.245c-2.002.914-3.766.966-5.705-1.185-1.833-2.035-1.914-4.51.052-6.282 2.016-1.816 4.057-1.63 6.186.629l-1.848 1.665c-1.12-1.14-1.979-1.378-2.827-.616-.83.749-.593 1.795.276 2.76 1.04 1.154 1.884 1.068 2.96.558l.578-.244c1.788-.811 3.604-1.282 5.88 1.243 2 2.22 1.98 4.48-.02 6.282-2.135 1.925-4.386 1.71-6.48-.547l1.846-1.664zM114.962 102.333l5.941 6.194 1.917-2.497-7.538-4.114-.32.417zm9.995 4.847l-2.374 3.095 1.903 2.092-1.597 2.082-10.882-12.198 2.456-3.203 14.603 7.345-1.583 2.063-2.526-1.276zM132.22 95.519L134.327 96.609 130.961 103.111 116.702 95.728 117.865 93.481 130.018 99.772zM123.522 86.333L127.629 87.649 128.854 83.823 131.071 84.533 129.846 88.359 134.302 89.786 135.77 85.199 138.03 85.923 135.789 92.922 120.489 88.021 122.73 81.022 124.99 81.746zM123.625 69.299L143.241 76.924 143.057 79.082 123.442 71.459zM134.59 57.339c1.486-.36 2.316-1.072 2.042-2.367-.256-1.206-1.247-1.485-2.586-1.202-1.585.335-1.975 1.14-2.077 2.421l-.079.623c-.212 2.19-1.049 3.743-3.885 4.343-2.677.566-4.86-.605-5.41-3.194-.56-2.656.625-4.33 3.647-5.038l.514 2.434c-1.548.397-2.185 1.022-1.95 2.137.232 1.093 1.256 1.414 2.528 1.145 1.518-.321 1.867-1.094 1.966-2.282l.078-.623c.193-1.953.697-3.762 4.022-4.465 2.924-.617 4.87.533 5.427 3.166.596 2.813-.718 4.653-3.722 5.336l-.514-2.434zM122.335 48.078l8.334-2.06-1.21-2.907-7.325 4.484.201.483zm9.186-6.244l1.5 3.6 2.762-.606 1.008 2.42-16 3.353-1.552-3.729 13.651-8.993 1 2.4-2.369 1.555zM125.036 29.721L127.032 28.438 130.991 34.597 117.482 43.282 116.113 41.152 127.626 33.751zM112.742 32.663L115.932 29.764 113.232 26.793 114.954 25.229 117.653 28.2 121.115 25.055 117.879 21.493 119.634 19.898 124.572 25.334 112.687 36.131 107.75 30.695 109.505 29.1zM98.058 24.019L114.521 10.911 116.295 12.157 99.832 25.266z" transform="translate(-123 -83) translate(171 171) translate(0 2.625)"/>
                            </g>
                        </g>
                    </g>
                </g>
            </g>
        </g>
    </g>
</svg>
