<svg xmlns="http://www.w3.org/2000/svg" xmlns:xlink="http://www.w3.org/1999/xlink" width="240" height="320" viewBox="0 0 240 320">
    <defs>
        <ellipse id="no7qfxrwec" cx="48" cy="72" rx="48" ry="72"/>
        <path id="2gn86ul82a" d="M0 0L240 0 240 320 0 320z"/>
    </defs>
    <g fill="none" fill-rule="evenodd">
        <g>
            <g transform="translate(-1008 -8437) translate(1008 8437)">
                <mask id="6m3oyt573b" fill="#fff">
                    <use xlink:href="#2gn86ul82a"/>
                </mask>
                <use fill="#FF5601" xlink:href="#2gn86ul82a"/>
                <g mask="url(#6m3oyt573b)">
                    <g transform="translate(72 88)">
                        <mask id="92ebunuqdd" fill="#fff">
                            <use xlink:href="#no7qfxrwec"/>
                        </mask>
                        <use fill="#F5F5F5" xlink:href="#no7qfxrwec"/>
                        <g stroke="#1D1D1B" mask="url(#92ebunuqdd)">
                            <path stroke-dasharray="17 2" d="M38.012 69.882c-4.163 5.203-9.272 9.426-12.593 15.345-5.197 9.262-.043 19.572 10.93 21.9 13.43 2.848 34.942-7.169 44.395-43.064C93.047 17.341 54.14 12.02 50.15 31.64c-2.751 13.527-.26 23.396-12.138 38.243z"/>
                            <path stroke-dasharray="17 2" d="M48.322 23.99c7.81-10.63 30.51-11.52 37.41 11.141 5.938 19.505-5.205 63.03-36.746 76.485-18.054 7.7-34.296-8.18-31.258-21.117 3.096-13.19 15.53-20.377 20.45-28.765 7.316-12.47 3.556-28.78 10.144-37.743z"/>
                            <path stroke-dasharray="17 2" d="M55.97 12.518c-17.959 3.326-16.68 23.47-16.74 24.024C35.52 71.098 23.69 66.62 13.877 84.4c-7.955 14.413 6.854 42.89 35.11 33.7 31.267-10.168 43.137-54.373 42.309-73.155"/>
                            <path stroke-dasharray="17 2" d="M44.145 12.84c-15.906 14.006-5.3 34.762-21.216 51.674-3.973 4.223-9.697 10.844-12.352 16.01-12.47 24.274 12.088 54.579 43.23 41.9C77.085 112.945 88.89 84.18 94.995 61M61.622 12.684c21.31-.84 26.936 16.794 29.43 27.768M47.989 10.69c3.326-1.829 18.123-6.154 30.138 1.82"/>
                            <path stroke-dasharray="17 2" d="M66.6 4.207c-8.774-1.676-18.201.414-25.445 5.64-7.078 5.107-10.824 14.464-12.099 22.97-1.209 8.063-2.88 16.108-6.883 23.35-4.3 7.777-11.598 13.599-15.957 21.453-3.267 5.886-4.397 11.716-3.558 18.508"/>
                            <path stroke-dasharray="17 2" d="M52.145 1.544C31.257 7.374 26.042 22.328 21.55 42.946 17.198 62.94 4.074 64.169 1.266 77.863"/>
                            <path stroke-dasharray="17 2" d="M45.329.713C26.1 6.968 19.443 30.965 16.729 40.286 11.742 57.412 3.762 60.404 1.1 65.226M36.786 1.512C13.57 13.682 16.729 46.271 1.1 56.58M.417 48.854C14.179 39.66 10.744 16.509 27.915 4.778M15.234 14.846c-8.315 10.31-7.03 22.143-13.898 26.728M94.545 77.031c-17.127 53.706-50.88 56.033-62.685 53.706-17.234-3.399-27.456-19.512-28.266-29.265M94.545 88.67C79.5 130.742 37.846 150.356 12.24 125.915M94.545 97.982c-3.492 10.474-23.61 45.724-59.193 42.897M5.238 27.474c-1.248 2.521-2.135 5.221-2.618 7.995M93.048 107.958c-5.654 11.972-18.29 28.266-38.907 34.584"/>
                            <path stroke-dasharray="16.847 1.982" d="M64.782 87.174c-16.587 21.264-36.745 17.125-35.583 4.821.972-10.263 20.286-22.946 22.448-34.584 1.254-6.752 1.566-19.979 4.06-26.189 2.758-6.864 17.878-9.664 21.711 6.569 2.828 11.972.333 32.755-12.636 49.383z"/>
                            <path stroke-dasharray="17 2" d="M74.26 43.812c1.828 22.578-8.531 37.981-20.785 47.851-11.971 9.644-23.184 4.286-16.294-5.653 9.135-13.178 19.314-15.858 20.451-35.748.333-5.82-.165-18.623 5.98-20.27 6.788-1.818 9.992 5.675 10.649 13.82z"/>
                            <path stroke-dasharray="16.688 1.963" d="M44.664 83.848c19.285-19.287 17.458-28.1 17.457-44.437 0-6.171 7.69-9.288 8.69 3.495 1.62 20.658-8.689 38.283-22.613 47.493-6.042 3.997-11.544 1.46-3.534-6.551z"/>
                            <path stroke-dasharray="17 2" d="M66.049 39.654c3.555 26.736-12.574 43.363-21.937 49.102"/>
                        </g>
                    </g>
                </g>
            </g>
        </g>
    </g>
</svg>
