<svg xmlns="http://www.w3.org/2000/svg" xmlns:xlink="http://www.w3.org/1999/xlink" width="240" height="320" viewBox="0 0 240 320">
    <defs>
        <path id="9i000hocza" d="M0 0L240 0 240 320 0 320z"/>
        <path id="zym9xn8mbc" d="M0.112 0.12L14.432 0.12 14.432 15.844 0.112 15.844z"/>
        <path id="fbhp0lf46e" d="M0 0.011L8.714 0.011 8.714 2.129 0 2.129z"/>
    </defs>
    <g fill="none" fill-rule="evenodd">
        <g>
            <g transform="translate(-736 -8437) translate(736 8437)">
                <mask id="gysfz5oz0b" fill="#fff">
                    <use xlink:href="#9i000hocza"/>
                </mask>
                <use fill="#FF5601" xlink:href="#9i000hocza"/>
                <g mask="url(#gysfz5oz0b)">
                    <g>
                        <g>
                            <path fill="#F5F5F5" d="M15.383 0h113.234c5.349 0 7.289.557 9.244 1.603 1.956 1.046 3.49 2.58 4.536 4.536 1.046 1.955 1.603 3.895 1.603 9.244v65.234c0 5.349-.557 7.289-1.603 9.244-1.046 1.956-2.58 3.49-4.536 4.536-1.955 1.046-3.895 1.603-9.244 1.603H15.383c-5.349 0-7.289-.557-9.244-1.603-1.956-1.046-3.49-2.58-4.536-4.536C.557 87.906 0 85.966 0 80.617V15.383c0-5.349.557-7.289 1.603-9.244 1.046-1.956 2.58-3.49 4.536-4.536C8.094.557 10.034 0 15.383 0z" transform="translate(28 56) rotate(30 -71.648 116.49)"/>
                            <g fill="#0F0F10" fill-rule="nonzero">
                                <path d="M14.296 15.402L10.69 8.558c.749-.226 1.436-.522 2.054-.886.619-.367 1.155-.787 1.608-1.254.45-.467.804-.962 1.055-1.488.25-.529.381-1.065.395-1.607.01-.46-.062-.89-.21-1.282-.15-.392-.37-.728-.66-1.013-.291-.282-.642-.495-1.054-.633-.412-.14-.88-.189-1.395-.144-.378.034-.708.107-.986.213-.275.11-.508.234-.694.374-.19.145-.333.286-.436.426-.107.141-.176.265-.21.368-.03.107-.034.175-.003.206.092.09.199.258.32.505.123.251.226.55.312.9.086.347.12.712.103 1.093-.017.378-.117.746-.302 1.093-.186.35-.488.649-.907.903L7.535.87c0-.006-.01-.027-.035-.062C7.48.77 7.442.75 7.39.746H2.175c-.055 0-.09.013-.106.038-.018.023-.025.044-.021.068 0 .024.003.035.003.038l3.34 6.659c-.735.212-1.419.501-2.051.858-.632.361-1.189.77-1.67 1.227-.481.46-.862.952-1.144 1.467-.282.519-.44 1.044-.474 1.58-.024.457.034.883.171 1.278.138.396.34.743.612 1.042.271.298.594.532.969.7.374.169.787.255 1.237.258.381-.003.725-.065 1.034-.179.31-.113.58-.257.81-.433.234-.175.427-.357.578-.542.148-.186.254-.35.316-.499.062-.147.075-.247.045-.305-.083-.086-.179-.234-.289-.444-.11-.21-.202-.46-.275-.752-.075-.292-.103-.605-.082-.935.017-.333.117-.663.292-.992.175-.327.457-.632.848-.918l2.227 5.442c0 .004.007.02.024.052.017.03.048.048.1.052h5.565c.059-.004.083-.021.08-.052-.008-.031-.011-.048-.018-.052zm13.255-4.205c.027-.206.062-.47.11-.787.045-.32.096-.666.151-1.048.055-.38.114-.773.175-1.171l.172-1.155c.055-.37.107-.7.151-.996.045-.295.083-.529.107-.7l.041-.265c-.003-.041-.014-.07-.03-.083-.018-.014-.028-.02-.032-.02h-4.123c-.003 0-.024.006-.062.024-.034.017-.054.048-.061.1l-.055.384c-.047.346-.09.692-.13 1.038-.166-.388-.379-.729-.636-1.02-.26-.293-.579-.527-.935-.688-.36-.165-.78-.247-1.254-.25-.54.003-1.041.096-1.505.284-.464.186-.883.447-1.257.78-.378.337-.708.729-.99 1.175-.288.458-.52.948-.694 1.46-.182.526-.306 1.072-.378 1.64-.069.554-.082 1.115-.037 1.673.048.556.15 1.085.312 1.587.165.502.385.952.667 1.343.282.392.622.701 1.02.924.399.227.859.344 1.378.348.472-.002.939-.107 1.367-.306.43-.2.828-.474 1.196-.825.364-.347.694-.749.983-1.199.03.491.154.91.37 1.261.22.35.512.618.88.804.364.189.787.282 1.264.285.293-.003.584-.05.863-.137.277-.085.543-.201.793-.347.244-.145.454-.303.63-.475.174-.168.298-.336.373-.505.042-.089.045-.154.004-.199-.038-.041-.1-.086-.186-.134-.085-.044-.178-.117-.274-.213-.1-.096-.19-.244-.268-.443-.08-.196-.13-.467-.155-.814-.027-.344-.007-.787.055-1.33zm-5.793 1.732c-.25-.004-.463-.076-.639-.217-.175-.144-.309-.34-.405-.594-.1-.254-.161-.55-.186-.886-.023-.334-.013-.698.035-1.086.048-.388.123-.753.23-1.09.106-.34.237-.635.399-.893.161-.254.343-.456.553-.6.21-.145.44-.217.694-.22.25.003.467.075.642.22.176.144.313.346.416.6.1.258.161.554.189.894.024.336.017.7-.031 1.089-.048.388-.124.752-.234 1.086-.106.336-.244.632-.405.886-.161.254-.35.45-.56.594-.213.141-.443.213-.698.217zm19.935-7.69c0-.03-.01-.05-.025-.065-.013-.01-.027-.017-.037-.017h.02c-1.6-.326-3.144-.488-4.62-.48-1.481.01-2.928.167-4.347.48-.014 0-.027.007-.048.02-.02.014-.03.042-.034.083l-.031.255c-.02.164-.052.384-.093.666-.041.278-.09.59-.151.938-.06.36-.126.718-.2 1.075-.072.359-.155.715-.247 1.069-.09.343-.185.653-.288.924-.238.59-.471 1.079-.708 1.467-.234.388-.457.7-.667.935-.21.237-.398.422-.563.553l-.395.32c-.097.078-.152.154-.162.23-.013.089 0 .223.038.401.041.179.113.371.216.584.107.21.251.413.437.609.185.192.416.353.69.477.279.127.608.193.99.196.557.003 1.055-.12 1.498-.371.44-.247.824-.632 1.147-1.158.327-.522.591-1.195.797-2.017.207-.817.371-1.673.495-2.573.124-.897.206-1.828.247-2.786h1.67c-.055.44-.11.914-.175 1.422l-.192 1.567-.193 1.577c-.065.519-.127 1.003-.182 1.456l-.148 1.206c-.044.347-.079.619-.103.818l-.037.302c.003.048.017.08.04.09.025.01.038.017.042.014h3.978c.004.003.018-.004.042-.014.024-.01.038-.042.041-.09l.041-.333c.028-.216.062-.515.11-.893.048-.381.1-.814.162-1.302.058-.492.123-1.007.192-1.553.065-.546.134-1.096.203-1.65.069-.55.134-1.082.195-1.587l.172-1.37c.048-.41.09-.742.124-1 .031-.261.052-.416.059-.474zm5.421 2.289l.103-.412c1.2-.138 2.206-.368 3.027-.688.821-.32 1.47-.697 1.951-1.13.481-.433.815-.89 1-1.37.186-.478.24-.949.168-1.406-.072-.46-.25-.873-.539-1.244-.288-.367-.663-.66-1.127-.872-.464-.21-.996-.313-1.594-.3-.804.028-1.546.196-2.23.516-.68.316-1.298.742-1.855 1.282-.553.539-1.04 1.157-1.464 1.851-.427.702-.784 1.444-1.064 2.217-.286.77-.504 1.565-.65 2.373-.144.804-.22 1.58-.22 2.337 0 .714.107 1.388.313 2.013.21.625.515 1.175.92 1.65.41.477.911.851 1.505 1.12.598.27 1.285.408 2.065.412.643-.004 1.254-.09 1.831-.261.581-.176 1.11-.426 1.588-.753.477-.323.886-.718 1.23-1.178.34-.457.594-.976.759-1.55.165-.574.227-1.196.179-1.865-.052-.584-.21-1.08-.474-1.488-.265-.406-.609-.732-1.02-.972-.417-.244-.877-.413-1.375-.509-.505-.093-1.02-.12-1.533-.079-.508.04-1.01.142-1.494.306zm2.247-4.72c.168 0 .292.03.368.082.075.055.12.127.137.21.017.085.02.17.01.264-.038.25-.134.488-.292.71-.158.22-.343.42-.556.602-.213.179-.423.337-.629.464-.206.13-.378.23-.515.302-.138.07-.207.107-.214.107.042-.148.1-.337.172-.563.07-.227.159-.464.258-.715.1-.251.217-.485.344-.708.127-.22.268-.402.422-.54.152-.14.316-.213.495-.216zm-.082 8.451c-.004.124-.028.278-.073.467-.044.19-.11.388-.192.598-.086.207-.193.405-.32.59-.127.186-.274.338-.446.451-.172.117-.361.179-.578.182-.247-.003-.45-.086-.597-.247-.151-.162-.265-.371-.337-.636-.072-.264-.117-.553-.134-.869-.017-.316-.014-.629.004-.945.02-.313.048-.601.082-.862s.069-.471.096-.626c.007-.003.07-.02.193-.051.12-.03.275-.055.457-.076.182-.024.364-.02.546.004.343.062.611.182.807.357.2.179.337.406.413.687.075.279.103.605.078.976zm16.058-.062c.027-.206.062-.47.11-.787l.15-1.048c.056-.38.114-.773.176-1.171l.172-1.155c.055-.37.107-.7.151-.996.045-.295.083-.529.107-.7l.04-.265c-.002-.041-.013-.07-.03-.083-.017-.014-.027-.02-.03-.02h-4.124c-.003 0-.024.006-.062.024-.034.017-.055.048-.062.1 0 .003-.02.133-.054.384-.047.346-.09.692-.131 1.038-.165-.388-.378-.729-.636-1.02-.26-.293-.578-.527-.934-.688-.36-.165-.78-.247-1.254-.25-.54.003-1.041.096-1.505.284-.464.186-.883.447-1.257.78-.378.337-.708.729-.99 1.175-.288.458-.52.948-.694 1.46-.182.526-.306 1.072-.378 1.64-.07.554-.082 1.115-.038 1.673.048.556.152 1.085.313 1.587.165.502.385.952.666 1.343.282.392.623.701 1.02.924.4.227.86.344 1.379.348.472-.002.939-.107 1.367-.306.43-.2.828-.474 1.196-.825.364-.347.693-.749.982-1.199.031.491.155.91.371 1.261.22.35.512.618.88.804.364.189.787.282 1.264.285.293-.003.583-.05.863-.137.277-.085.543-.201.793-.347.244-.145.454-.303.629-.475.175-.168.299-.336.374-.505.042-.089.045-.154.004-.199-.038-.041-.1-.086-.186-.134-.085-.044-.178-.117-.275-.213-.1-.096-.189-.244-.267-.443-.08-.196-.13-.467-.155-.814-.028-.344-.007-.787.055-1.33zm-5.793 1.732c-.25-.004-.463-.076-.639-.217-.175-.144-.309-.34-.405-.594-.1-.254-.162-.55-.186-.886-.024-.334-.013-.698.035-1.086.048-.388.123-.753.23-1.09.106-.34.237-.635.398-.893.162-.254.344-.456.554-.6.209-.145.44-.217.694-.22.25.003.467.075.642.22.175.144.313.346.416.6.1.258.161.554.189.894.024.336.017.7-.031 1.089-.048.388-.124.752-.234 1.086-.106.336-.244.632-.405.886-.162.254-.35.45-.56.594-.213.141-.444.213-.698.217" transform="translate(28 56) rotate(30 -71.648 116.49) translate(12 68)"/>
                            </g>
                        </g>
                        <g>
                            <path fill="#0F0F10" stroke="#0F0F10" d="M15.383 0h113.234c5.349 0 7.289.557 9.244 1.603 1.956 1.046 3.49 2.58 4.536 4.536 1.046 1.955 1.603 3.895 1.603 9.244v65.234c0 5.349-.557 7.289-1.603 9.244-1.046 1.956-2.58 3.49-4.536 4.536-1.955 1.046-3.895 1.603-9.244 1.603H15.383c-5.349 0-7.289-.557-9.244-1.603-1.956-1.046-3.49-2.58-4.536-4.536C.557 87.906 0 85.966 0 80.617V15.383c0-5.349.557-7.289 1.603-9.244 1.046-1.956 2.58-3.49 4.536-4.536C8.094.557 10.034 0 15.383 0z" transform="translate(28 56) rotate(60 54.725 96.079)"/>
                            <g>
                                <g transform="translate(28 56) rotate(60 54.725 96.079) translate(34.902 12.385) translate(68.143 .013)">
                                    <mask id="zucd86bfcd" fill="#fff">
                                        <use xlink:href="#zym9xn8mbc"/>
                                    </mask>
                                    <path fill="#F5F5F5" d="M9.827 6.952c0-1.094-.015-2.188.007-3.282.01-.496-.18-.678-.67-.664-.856.025-1.714.034-2.568-.003-.576-.025-.715.218-.74.753-.103 2.207-.227 4.417-.947 6.535-.147.432-.003.555.411.552 1.285-.01 2.57-.016 3.853.003.5.007.67-.202.66-.683-.02-1.07-.006-2.14-.006-3.21zM.143 15.987c-.008-1.474-.003-2.949-.03-4.422-.01-.513.17-.785.697-.718.655.083.93-.267 1.115-.832.53-1.613.792-3.269.921-4.957.11-1.424.155-2.848.125-4.274-.01-.508.226-.66.692-.659C6.47.133 9.275.141 12.081.12c.657-.005.793.309.79.881-.015 2.949.01 5.898-.018 8.846-.007.694.12 1.11.927 1.005.309-.04.604.074.603.444-.006 1.564.164 3.132-.097 4.69H11.57c-.008-.57-.027-1.139-.02-1.709.003-.392-.167-.552-.557-.551-2.518.006-5.035.006-7.553 0-.39-.001-.559.16-.556.552.005.57-.017 1.14-.028 1.709H.143z" mask="url(#zucd86bfcd)"/>
                                </g>
                                <path fill="#F5F5F5" d="M65.269 6.987c.002-2.328-1.61-4.089-3.756-4.103-2.173-.015-3.909 1.791-3.908 4.066 0 2.334 1.642 4.047 3.876 4.044 2.262-.003 3.786-1.615 3.788-4.007zM62.714 0c2.06.475 3.75 1.504 4.795 3.386 2.505 4.508-.23 9.98-5.25 10.538-4.248.471-8.017-2.98-7.768-7.4.16-2.825 2.41-5.906 5.601-6.436.068-.012.13-.058.194-.088h2.428zM33.574 10.994c2.253.008 3.823-1.62 3.832-3.974.009-2.313-1.68-4.144-3.813-4.136-2.179.009-3.855 1.796-3.853 4.106.003 2.314 1.613 3.996 3.834 4.004zM34.857 0c1.417.383 2.722.945 3.753 2.056 2.04 2.196 2.464 4.748 1.468 7.472-.943 2.578-2.909 4.005-5.66 4.375-3.927.527-7.799-2.388-7.826-6.906C26.57 3.42 28.938.864 31.952.131c.16-.039.318-.087.477-.131h2.428zM8.429 0c1.147.318 2.282.664 3.208 1.467.161.14.314.29.47.435.44.41.46.792-.06 1.155-.116.08-.207.197-.311.294-1.024.963-1.007.936-2.165.215-1.401-.872-2.89-.94-4.346-.18-1.258.658-1.852 1.77-1.936 3.194-.11 1.848.506 3.331 2.245 4.069 1.784.756 3.52.463 4.964-.873.493-.456.744-.421 1.092.081.188.27.423.522.68.729.557.451.422.804-.016 1.281-1.898 2.068-5.389 2.642-8.063 1.599-2.59-1.01-4.07-3.378-4.073-6.44C.115 3.45 2.18.87 5.664.09 5.732.074 5.793.03 5.857 0H8.43z" transform="translate(28 56) rotate(60 54.725 96.079) translate(34.902 12.385)"/>
                                <g transform="translate(28 56) rotate(60 54.725 96.079) translate(34.902 12.385) translate(71 13.728)"/>
                                <path fill="#F5F5F5" d="M19.167 5.426v-.044c.545 0 1.098.056 1.634-.016.547-.072 1.005-.363 1.013-1.005.008-.612-.277-1.038-.905-1.193-1.078-.266-2.171-.111-3.258-.12-.266-.003-.334.204-.374.435-.289 1.678-.072 1.943 1.605 1.943h.285zm.08 5.429v-.035c.545 0 1.09.003 1.634-.002.093 0 .187-.029.278-.053.746-.196 1.138-.641 1.083-1.287-.059-.685-.483-1.03-1.138-1.173-1.104-.239-2.219-.1-3.329-.13-.315-.008-.452.152-.502.467-.307 1.974-.115 2.213 1.832 2.213h.142zm-4.99-3.947c0-1.975.024-3.95-.013-5.924-.012-.672.239-.862.873-.853 2.115.03 4.234-.062 6.344.141 1.32.128 2.564.514 3.158 1.853.607 1.368.438 2.713-.474 3.902-.331.43-.308.608.126.932 1.568 1.17 1.803 4.99-1.03 6.205-.861.37-1.769.56-2.703.57-1.808.017-3.617-.016-5.424.017-.64.011-.882-.18-.87-.847.036-1.998.013-3.997.013-5.996zM47.357 8.025h-.562c-1.688.022-1.475-.207-1.48 1.478-.006 1.456-.16 1.366 1.332 1.344.944-.013 1.907.153 2.828-.192.63-.236.82-.732.792-1.365-.028-.613-.358-.942-.919-1.117-.676-.211-1.367-.125-1.99-.148m-5.08-1.053c0-1.999.015-3.997-.008-5.995-.007-.61.21-.848.83-.844 2.879.02 5.757.017 8.635.001.565-.003.833.176.823.775-.044 2.587.312 2.067-2.016 2.111-1.498.028-2.997.024-4.495-.004-.555-.01-.758.174-.745.738.034 1.552-.117 1.383 1.382 1.383 1.236 0 2.476-.028 3.688.24 1.932.428 2.95 1.675 3.067 3.676.123 2.08-.83 3.615-2.651 4.248-.768.267-1.567.416-2.375.428-1.784.027-3.569-.007-5.352.02-.586.009-.798-.195-.791-.783.023-1.998.009-3.996.009-5.994M89.616 4.704c-.574 1.295-1.06 2.394-1.55 3.492-.141.317-.094.495.298.492.805-.007 1.61-.005 2.415-.001.352.002.49-.138.342-.481-.473-1.105-.949-2.21-1.505-3.502m5.213 9.036c-1.021.318-1.607-.286-1.877-1.361-.248-.987-.852-1.316-1.872-1.229-1.18.101-2.376.044-3.565.015-.507-.012-.86.161-.956.646-.352 1.77-1.488 2.184-3.114 1.945-.776-.114-.825-.086-.495-.84 1.514-3.462 3.032-6.923 4.55-10.384.248-.566.535-1.118.737-1.7.19-.544.524-.748 1.075-.695.26.025.523.02.784.002.469-.033.729.17.918.606 1.742 4.011 3.505 8.013 5.26 12.019.418.956.405.971-.628.975-.214.001-.428 0-.817 0" transform="translate(28 56) rotate(60 54.725 96.079) translate(34.902 12.385)"/>
                            </g>
                        </g>
                    </g>
                </g>
            </g>
        </g>
    </g>
</svg>
