<svg xmlns="http://www.w3.org/2000/svg" xmlns:xlink="http://www.w3.org/1999/xlink" width="240" height="320" viewBox="0 0 240 320">
    <defs>
        <path id="1coc6ry4ea" d="M0 0L240 0 240 320 0 320z"/>
    </defs>
    <g fill="none" fill-rule="evenodd">
        <g>
            <g transform="translate(-192 -8789) translate(192 8789)">
                <mask id="u9zdffk66b" fill="#fff">
                    <use xlink:href="#1coc6ry4ea"/>
                </mask>
                <use fill="#FF5601" xlink:href="#1coc6ry4ea"/>
                <g mask="url(#u9zdffk66b)">
                    <g>
                        <path fill="#0F0F10" d="M5.333 36.833c8.16-6.39 14.494-10.668 19-12.833 31.407-15.085 54.012-17.75 62-11.167-2.427 1.231-4.854 4.923-7.28 11.077-2.428 6.154-2.73 12-.91 17.539l-53.697 7.384-19.113-12z" transform="translate(73 126)"/>
                        <g>
                            <g fill="#F5F5F5" stroke="#0F0F10">
                                <path d="M20.104 17.366c23.181 3.74 41.653 4.164 55.416 1.275 1.715-2.043 2.806-4.509 3.272-7.399.382-2.365-12.45-4.254-38.92-.01-3.908.627-10.497 2.672-19.768 6.134z" transform="translate(73 126) rotate(-6 91.466 3.241)"/>
                                <path d="M9.552 48.087c22.982-5.68 42.88-7.26 59.696-4.738-1.018-2.912-2.336-5.783-3.952-8.612-1.34-2.345-7.798-3.705-34.268.538-3.907.626-11.065 4.897-21.476 12.812z" transform="translate(73 126) rotate(-6 91.466 3.241) scale(1 -1) rotate(2 2348.573 0)"/>
                                <path stroke-linejoin="round" d="M.906 27.585C20.772 16.407 35.379 8.405 44.728 3.58c9.349-4.824 17.178-4.25 23.489 1.723C81.305.71 87.849 1.4 87.849 7.372c0 8.96-4.908 4.705-4.908 4.705-2.104-1.378-5.843-.804-11.219 1.723-8.063 3.79-11.92-1.723-24.89-1.723-8.648 0-23.957 5.17-45.926 15.508zM.906 27.585c43.53 22.1 67.99 23.738 73.381 4.914 6.06 6.991 3.932 14.618-6.382 22.882-6.317 5.062-22.581 2.253-39.275-6.292C21.59 45.485 12.347 38.317.906 27.585z" transform="translate(73 126) rotate(-6 91.466 3.241)"/>
                            </g>
                        </g>
                    </g>
                </g>
            </g>
        </g>
    </g>
</svg>
