<svg xmlns="http://www.w3.org/2000/svg" xmlns:xlink="http://www.w3.org/1999/xlink" width="240" height="320" viewBox="0 0 240 320">
    <defs>
        <path id="fcydtv4iwa" d="M0 0L240 0 240 320 0 320z"/>
    </defs>
    <g fill="none" fill-rule="evenodd">
        <g>
            <g transform="translate(-464 -8437) translate(464 8437)">
                <mask id="r8g063z4fb" fill="#fff">
                    <use xlink:href="#fcydtv4iwa"/>
                </mask>
                <use fill="#FF5601" xlink:href="#fcydtv4iwa"/>
                <g fill="#F5F5F5" mask="url(#r8g063z4fb)">
                    <g>
                        <path stroke="#0F0F10" d="M17.42 52.043c8.979-3.292 19.753-5.985 31.725-6.584 14.964-.598 29.33.898 43.097 5.387 14.366 4.789 21.55 12.57 22.746 20.95.599 7.782-7.183 14.965-21.548 19.155-7.782 2.394-16.76 2.694-25.74 1.796-9.577-1.197-15.562-4.789-21.548-8.38-4.789 0-1.796 3.89-.599 5.387 1.796 3.591 7.782 5.986 14.366 7.781 17.359 4.789 38.31 2.694 53.274-3.89 10.774-4.79 16.161-10.775 17.957-17.958 1.197-5.387.598-10.774-3.592-15.862-2.394-2.694-5.985-5.088-8.978-7.782 6.584 4.49 11.971 9.877 13.168 15.863 1.198 7.482-1.795 14.665-10.774 21.549-9.577 7.182-25.14 10.774-41.9 11.372-15.563.3-29.93-3.591-38.31-10.774-4.788-3.89-5.386-8.38-3.59-12.87 2.394-4.788 9.577-7.78 16.76-10.774 0-2.394-7.782-.898-10.775-.299-7.183.898-11.971 3.89-15.563 7.183-9.577 8.68-5.387 19.154 7.782 26.637 9.577 5.387 21.548 8.08 35.914 8.978 10.775.599 21.549.3 31.725-1.795 5.387-1.198 10.176-2.993 15.563-4.49-8.979 3.292-19.753 5.986-31.725 6.585-14.964.598-29.33-.898-43.097-5.388-14.366-4.788-21.55-12.57-22.746-20.95-.599-7.781 7.183-14.964 21.548-19.154 7.782-2.395 16.76-2.694 25.74-1.796 9.577 1.197 15.562 4.789 21.548 8.38 4.789 0 1.796-3.89.599-5.387-1.796-3.592-7.782-5.986-14.366-7.782-17.359-4.788-38.31-2.693-53.274 3.891C12.033 65.811 6.646 71.796 4.85 78.98c-1.197 5.388-.598 10.775 3.592 15.863 2.394 2.693 5.985 5.088 8.978 7.781-6.584-4.49-11.971-9.876-13.168-15.862-1.198-7.482 1.795-14.665 10.774-21.549 9.577-7.183 25.14-10.774 41.9-11.373 15.563-.3 29.93 3.592 38.31 10.775 4.788 3.89 5.386 8.38 3.59 12.869-2.394 4.789-9.577 7.781-16.76 10.774 0 2.395 7.782.898 10.775.3 7.183-.898 11.972-3.891 15.563-7.183 9.577-8.68 5.387-19.155-7.782-26.637-9.577-5.387-21.548-8.08-35.914-8.979-10.775-.598-21.549-.299-31.725 1.796-5.387 1.197-10.176 2.993-15.563 4.49" transform="translate(52 77) rotate(-45 68 77.333)"/>
                        <path stroke="#F5F5F5" d="M101.211 120.232c-3.555-3.626-8.848-5.482-15.878-5.567 7.03-.082 12.323-1.937 15.878-5.563 3.555-3.626 5.374-12.44 5.454-26.435.083 13.995 1.902 22.809 5.457 26.435 3.555 3.626 8.846 5.481 15.878 5.563-7.032.085-12.323 1.94-15.878 5.567-3.555 3.626-5.374 12.437-5.457 26.435-.08-13.998-1.9-22.81-5.454-26.435zM65.272 18.783c-1.777-1.814-4.424-2.741-7.939-2.784 3.515-.04 6.162-.968 7.94-2.782C67.05 11.404 67.958 6.997 67.998 0c.042 6.998.951 11.404 2.729 13.217 1.777 1.814 4.423 2.741 7.939 2.782-3.516.043-6.162.97-7.94 2.784C68.95 20.596 68.042 25 68 32c-.04-7-.95-11.404-2.727-13.217zM7.939 117.45c-1.778-1.814-4.424-2.742-7.939-2.784 3.515-.041 6.161-.969 7.939-2.782 1.777-1.813 2.687-6.22 2.727-13.217.042 6.997.951 11.404 2.729 13.217 1.777 1.813 4.422 2.74 7.938 2.782-3.516.042-6.161.97-7.938 2.783-1.778 1.813-2.687 6.219-2.729 13.218-.04-7-.95-11.405-2.727-13.218zM35.97 17.391c-.89-.906-2.213-1.37-3.97-1.391 1.757-.02 3.08-.485 3.97-1.391.888-.907 1.343-3.11 1.363-6.609.02 3.499.476 5.702 1.364 6.609.889.906 2.212 1.37 3.97 1.39-1.758.022-3.081.486-3.97 1.392-.888.907-1.343 3.11-1.364 6.609-.02-3.5-.475-5.702-1.364-6.609zM19.97 52.058c-.89-.907-2.213-1.37-3.97-1.392 1.757-.02 3.08-.484 3.97-1.39.888-.907 1.343-3.11 1.363-6.61.02 3.5.476 5.703 1.364 6.61.889.906 2.212 1.37 3.97 1.39-1.758.022-3.081.485-3.97 1.392-.888.906-1.343 3.11-1.364 6.609-.02-3.5-.475-5.703-1.364-6.61z" transform="translate(52 77)"/>
                        <path stroke="#F5F5F5" d="M39.939 152.116c-1.778-1.813-4.424-2.74-7.939-2.783 3.515-.041 6.161-.97 7.939-2.782 1.777-1.813 2.687-6.22 2.727-13.218.042 6.998.951 11.405 2.729 13.218 1.777 1.813 4.422 2.74 7.938 2.782-3.516.042-6.161.97-7.938 2.783-1.778 1.813-2.687 6.218-2.729 13.217-.04-6.999-.95-11.404-2.727-13.217z" transform="translate(52 77) rotate(180 42.667 149.333)"/>
                        <path stroke="#F5F5F5" d="M109.272 45.45c-1.777-1.814-4.424-2.742-7.939-2.784 3.515-.041 6.162-.969 7.94-2.782 1.777-1.813 2.686-6.22 2.726-13.217.042 6.997.951 11.404 2.729 13.217 1.777 1.813 4.423 2.74 7.939 2.782-3.516.042-6.162.97-7.94 2.783-1.777 1.813-2.686 6.219-2.728 13.218-.04-7-.95-11.405-2.727-13.218z" transform="translate(52 77) rotate(180 112 42.667)"/>
                        <path stroke="#F5F5F5" d="M58.636 124.058c-.889-.907-2.212-1.37-3.97-1.392 1.758-.02 3.081-.484 3.97-1.39.889-.907 1.344-3.11 1.364-6.61.02 3.5.475 5.703 1.364 6.61.889.906 2.211 1.37 3.97 1.39-1.759.022-3.081.485-3.97 1.392-.889.906-1.344 3.11-1.364 6.609-.02-3.5-.475-5.703-1.364-6.61z" transform="translate(52 77) rotate(180 60 122.667)"/>
                        <path stroke="#F5F5F5" d="M69.303 154.725c-.889-.907-2.212-1.37-3.97-1.392 1.758-.02 3.081-.484 3.97-1.39.888-.907 1.343-3.11 1.363-6.61.021 3.5.476 5.703 1.365 6.61.888.906 2.211 1.37 3.969 1.39-1.758.021-3.08.485-3.97 1.392-.888.906-1.343 3.109-1.364 6.608-.02-3.5-.475-5.702-1.363-6.608z" transform="translate(52 77) rotate(180 70.667 153.333)"/>
                        <path stroke="#0F0F10" d="M77.303 76.058c-.889-.907-2.212-1.37-3.97-1.392 1.758-.02 3.081-.484 3.97-1.39.888-.907 1.343-3.11 1.363-6.61.021 3.5.476 5.703 1.365 6.61.888.906 2.211 1.37 3.969 1.39-1.758.022-3.08.485-3.97 1.392-.888.906-1.343 3.11-1.364 6.609-.02-3.5-.475-5.703-1.363-6.61z" transform="translate(52 77) rotate(180 78.667 74.667)"/>
                    </g>
                </g>
            </g>
        </g>
    </g>
</svg>
