<svg xmlns="http://www.w3.org/2000/svg" width="240" height="272" viewBox="0 0 240 272">
    <g fill="none" fill-rule="evenodd">
        <path d="M0 0H240V272H0z"/>
        <g>
            <path stroke="#000" stroke-linecap="round" d="M35.62 148.992c1.988-7.195-5.686-26.861-1.137-35.502 4.64-8.813 6.507-16.174 10.297-26.816" transform="translate(71 6)"/>
            <path stroke="#000" stroke-linecap="round" d="M15.574 224.396c2.937-4.489 5.51-8.466 7.757-12.005 17.806-28.038 15.258-28.614 12.727-38.805-3.343-13.466-5.835-20.996-12.758-32.69-.707-1.193-1.59-2.325-1.88-3.681-.129-.606-.037-24.032.02-25.632 1.4-.46 3.708 1.208 5.219 7.747.854 3.701 1.326 7.492 1.398 11.272.108 5.545 3.893 9.91 7.562 13.751M49.536 73.444c.276-.35-1.472-1.285-1.988.379-1.08 3.48-1.178 6.578-2.042 10.112-1.892 7.74-7.898 28.018-7.898 31.165 0 9.358 4.26 29.821 3.124 31.43M32.322 264.552c22.563-43.878 25.855-55.647 33.687-67.562 2.531-3.85 5.35-7.52 7.58-11.552 8.813-15.93 10.116-27.505 19.696-52.196.305-.785 4.366-10.467 3.82-10.6-2.6-.632-11.398 2.218-16.92 17.498-1.226 3.39-6.761 19.65-15.028 15.763" transform="translate(71 6)"/>
            <g>
                <path fill="#F5F5F5" stroke="#0F0F10" d="M7.692 0h56.616c2.675 0 3.645.278 4.623.801.977.523 1.745 1.29 2.268 2.268.523.978.801 1.948.801 4.623v32.616c0 2.675-.278 3.645-.801 4.623-.523.977-1.29 1.745-2.268 2.268-.978.523-1.948.801-4.623.801H7.692c-2.675 0-3.645-.278-4.623-.801-.977-.523-1.745-1.29-2.268-2.268C.278 43.953 0 42.983 0 40.308V7.692c0-2.675.278-3.645.801-4.623.523-.977 1.29-1.745 2.268-2.268C4.047.278 5.017 0 7.692 0z" transform="translate(71 6) rotate(30 -36.507 59.428)"/>
                <path fill="#0F0F10" fill-rule="nonzero" d="M13.148 41.701l-1.804-3.422c.375-.113.718-.26 1.028-.443.309-.184.577-.393.804-.627.225-.234.402-.48.527-.744s.19-.532.197-.804c.006-.23-.03-.445-.104-.64-.076-.196-.186-.365-.33-.507-.146-.141-.321-.248-.528-.316-.206-.07-.44-.095-.697-.073-.189.018-.354.054-.493.107-.137.055-.254.117-.347.187-.095.072-.167.143-.218.213-.053.07-.088.133-.105.184-.015.053-.017.088-.002.103.047.045.1.129.16.253.062.125.113.275.156.45.043.173.06.355.052.546-.009.189-.058.373-.151.546-.093.175-.244.325-.454.452l-1.072-2.731c0-.004-.005-.014-.017-.031-.01-.02-.029-.03-.055-.031H7.087c-.027 0-.044.007-.053.019-.008.012-.012.022-.01.034 0 .012.002.017.002.02l1.67 3.328c-.368.107-.71.251-1.026.43-.316.18-.594.384-.835.613-.24.23-.431.476-.572.733-.14.26-.22.523-.237.79-.012.23.017.442.086.64.069.197.17.37.306.52.135.15.297.266.484.35.187.085.393.128.618.13.191-.002.363-.033.518-.09.154-.057.29-.129.405-.216.117-.088.213-.179.289-.272.073-.092.127-.175.158-.249.03-.074.037-.123.022-.153-.041-.043-.09-.116-.144-.221-.055-.105-.102-.23-.138-.376-.038-.147-.051-.303-.041-.468.009-.166.058-.331.146-.496.088-.163.228-.316.424-.459l1.113 2.721.012.026c.009.015.024.024.05.026h2.783c.03-.002.041-.01.04-.026-.004-.016-.005-.024-.009-.026zm6.628-2.102c.013-.103.03-.236.054-.394l.076-.524.088-.586.086-.577.075-.498c.023-.148.041-.264.053-.35l.021-.133c-.002-.02-.007-.034-.015-.04-.009-.008-.014-.011-.016-.011h-2.061c-.002 0-.012.003-.031.012-.017.008-.028.024-.031.05l-.028.192c-.023.173-.045.346-.065.519-.082-.194-.189-.364-.318-.51-.13-.147-.289-.264-.467-.344-.18-.082-.39-.124-.627-.125-.27.001-.52.048-.752.142-.232.093-.442.224-.63.39-.188.169-.353.364-.494.588-.144.229-.26.474-.347.73-.09.263-.153.536-.189.82-.034.277-.04.557-.019.836.024.278.076.543.157.793.082.251.192.476.333.672.14.196.31.35.51.462.2.114.43.172.689.174.236-.001.47-.053.684-.153.214-.1.414-.237.597-.412.183-.174.347-.375.492-.6.015.246.077.455.185.63.11.176.256.31.44.402.182.095.393.141.632.143.146-.002.292-.025.431-.069.139-.042.272-.1.397-.173.122-.072.227-.151.315-.237.087-.084.15-.169.187-.253.02-.044.022-.077.001-.1-.018-.02-.05-.042-.092-.066-.043-.023-.09-.059-.138-.107-.05-.048-.094-.122-.134-.222-.04-.097-.065-.233-.077-.407-.014-.171-.003-.393.028-.664zm-2.897.865c-.125-.001-.232-.037-.32-.108-.087-.072-.154-.17-.202-.297-.05-.127-.08-.275-.093-.443-.012-.167-.007-.349.017-.543.025-.194.062-.376.116-.545.053-.17.118-.317.199-.446.08-.127.172-.229.276-.3.105-.073.22-.11.347-.11.126 0 .234.037.322.11.087.071.156.173.207.3.05.129.081.276.095.446.012.169.009.35-.016.545-.024.194-.061.376-.116.543-.054.168-.122.316-.203.443-.08.127-.175.225-.28.297-.106.07-.222.107-.349.108zm9.967-3.844c0-.016-.005-.026-.012-.033-.007-.005-.014-.008-.019-.008h.01c-.8-.164-1.571-.244-2.31-.24-.74.004-1.463.083-2.173.24-.007 0-.014.003-.024.01s-.015.02-.017.041l-.016.127c-.01.083-.025.193-.046.333-.02.14-.045.296-.076.47-.03.18-.063.359-.1.537-.036.18-.077.357-.123.534-.045.172-.093.327-.144.463-.119.295-.236.539-.354.733-.117.194-.229.35-.333.467-.105.119-.2.212-.282.277l-.198.16c-.048.04-.075.077-.08.115-.007.044 0 .111.019.2.02.09.056.186.108.293.053.105.125.206.218.304.093.096.208.177.345.239.14.063.304.096.495.098.278.001.527-.06.749-.186.22-.124.412-.316.574-.579.163-.261.295-.598.398-1.008.103-.41.186-.837.248-1.287.061-.448.103-.914.123-1.393h.835c-.027.22-.055.457-.088.711-.03.254-.063.515-.096.783l-.096.789-.09.728-.075.603c-.022.174-.04.31-.051.41-.012.099-.02.149-.02.15.003.024.01.04.021.045.012.005.02.008.021.007h1.99l.02-.007c.012-.005.019-.02.02-.045l.021-.166.055-.447.08-.651.097-.777.101-.824c.035-.275.067-.541.098-.794l.086-.685c.024-.205.045-.371.062-.5l.03-.237zm2.711 1.144l.051-.206c.6-.069 1.103-.184 1.514-.344.41-.16.735-.348.976-.565.24-.216.407-.445.5-.685.092-.24.12-.474.084-.703-.036-.23-.126-.436-.27-.622-.144-.184-.332-.33-.563-.436-.232-.105-.499-.157-.797-.15-.402.014-.773.098-1.115.258-.34.158-.65.371-.928.64-.277.27-.52.58-.732.927-.214.35-.392.722-.532 1.108-.143.385-.252.782-.325 1.187-.072.402-.11.79-.11 1.168 0 .357.053.694.156 1.007.105.312.258.587.46.824.205.239.456.426.753.56.3.136.643.205 1.033.206.32-.001.627-.044.915-.13.29-.088.555-.213.794-.377.239-.16.443-.358.615-.589.17-.228.297-.488.38-.774.082-.287.113-.598.089-.933-.026-.292-.105-.54-.237-.744-.132-.203-.304-.366-.51-.486-.208-.122-.438-.206-.688-.254-.252-.047-.51-.06-.766-.04-.254.02-.505.071-.747.153zm1.123-2.36c.085 0 .147.015.184.04.038.028.06.064.069.106.009.042.01.085.005.132-.019.125-.067.244-.146.355-.079.11-.172.21-.278.301-.107.09-.212.168-.314.232-.104.065-.19.115-.258.151-.069.035-.103.053-.107.053.02-.073.05-.168.086-.281.035-.114.08-.232.13-.358.049-.125.107-.242.17-.353.064-.11.135-.201.212-.27.076-.07.158-.107.247-.108zm-.04 4.226c-.002.061-.014.139-.037.233-.022.095-.055.194-.096.299-.043.104-.097.203-.16.295-.063.093-.137.169-.223.226-.086.058-.18.089-.289.09-.123-.001-.225-.042-.299-.123-.075-.08-.132-.186-.168-.318-.036-.132-.058-.276-.067-.434-.009-.159-.007-.315.002-.473.01-.156.024-.3.041-.431.017-.13.034-.236.048-.313l.096-.025c.06-.016.138-.028.229-.038.09-.012.182-.01.273.001.172.031.306.091.404.18.1.088.168.202.206.343.038.139.051.302.04.488zm8.029-.031c.013-.103.03-.236.054-.394l.076-.524.088-.586.085-.577.076-.498c.022-.148.041-.264.053-.35.014-.086.02-.13.02-.133 0-.02-.006-.034-.014-.04-.01-.008-.014-.011-.016-.011H37.03c-.002 0-.012.003-.031.012-.018.008-.028.024-.031.05l-.028.192c-.023.173-.045.346-.065.519-.083-.194-.189-.364-.318-.51-.13-.146-.289-.264-.467-.344-.18-.082-.39-.124-.627-.125-.27.001-.52.048-.753.142-.231.093-.441.224-.628.39-.19.169-.354.364-.495.588-.144.229-.26.474-.347.73-.091.263-.153.536-.189.82-.035.277-.04.557-.019.836.024.278.076.543.157.793.082.251.192.476.333.672.14.196.31.35.51.462.2.114.43.172.689.174.236-.001.47-.053.684-.153.214-.1.414-.237.597-.412.182-.174.347-.375.492-.6.015.246.077.455.185.63.11.176.256.31.44.402.182.095.393.141.632.143.146-.002.292-.025.431-.069.139-.042.272-.1.397-.173.122-.072.227-.151.314-.237.088-.084.15-.169.188-.253.02-.044.022-.077.001-.1-.018-.02-.05-.042-.092-.066-.043-.023-.09-.059-.138-.107-.05-.048-.094-.122-.134-.222-.04-.097-.065-.233-.077-.407-.014-.171-.003-.393.028-.664zm-2.897.865c-.125-.001-.232-.037-.32-.108-.087-.072-.154-.17-.202-.297-.05-.127-.08-.275-.093-.443-.012-.167-.007-.349.017-.543.024-.194.062-.376.115-.545.054-.17.119-.317.2-.446.08-.127.172-.229.276-.3.105-.073.22-.11.347-.11.126 0 .234.037.322.11.087.071.156.173.207.3.05.129.081.276.095.446.012.169.008.35-.016.545-.024.194-.061.376-.116.543-.054.168-.122.316-.203.443-.08.127-.175.225-.28.297-.107.07-.222.107-.349.108" transform="translate(71 6) rotate(30 -36.507 59.428)"/>
            </g>
            <g>
                <path fill="#0F0F10" stroke="#0F0F10" d="M7.692 0h56.616c2.675 0 3.645.278 4.623.801.977.523 1.745 1.29 2.268 2.268.523.978.801 1.948.801 4.623v32.616c0 2.675-.278 3.645-.801 4.623-.523.977-1.29 1.745-2.268 2.268-.978.523-1.948.801-4.623.801H7.692c-2.675 0-3.645-.278-4.623-.801-.977-.523-1.745-1.29-2.268-2.268C.278 43.953 0 42.983 0 40.308V7.692c0-2.675.278-3.645.801-4.623.523-.977 1.29-1.745 2.268-2.268C4.047.278 5.017 0 7.692 0z" transform="translate(71 6) rotate(60 27.18 48.722)"/>
                <path fill="#F5F5F5" fill-rule="nonzero" d="M19.6 13.13c1.93 0 2.93-1.31 2.98-2.67h-1.83c-.04.54-.4 1.02-1.12 1.02-.84 0-1.2-.53-1.23-1.63-.01-.3-.01-.43 0-.75.03-1.04.36-1.62 1.22-1.62.77 0 1.09.55 1.14 1.02h1.82c-.05-1.37-1.04-2.67-2.96-2.67-1.86 0-3.03 1.16-3.11 3.27-.01.3-.01.48 0 .75.09 2.13 1.25 3.28 3.09 3.28zm7.24-.13c1.48 0 2.29-.86 2.29-2.03 0-.96-.52-1.41-.95-1.61v-.1c.37-.2.76-.66.76-1.45 0-1.01-.63-1.85-2.19-1.85h-3.11V13h3.2zm-.37-4.28h-.97V7.47h.96c.48 0 .62.23.62.62 0 .38-.13.63-.61.63zm.1 2.77H25.5v-1.37h1.07c.48 0 .69.25.69.69 0 .44-.21.68-.69.68zm6.61 1.64c1.88 0 3.07-1.1 3.14-3.25.01-.35.01-.43 0-.8-.07-2.15-1.26-3.25-3.14-3.25-1.89 0-3.08 1.11-3.15 3.25-.01.35-.01.43 0 .8.07 2.14 1.26 3.25 3.15 3.25zm0-1.65c-.87 0-1.24-.54-1.26-1.6-.01-.31-.01-.5 0-.8.02-1.06.39-1.6 1.26-1.6.86 0 1.23.53 1.25 1.6.01.3.01.49 0 .8-.02 1.06-.39 1.6-1.25 1.6zM40.62 13c1.42 0 2.22-.86 2.22-2.23 0-1.47-.86-2.22-2.32-2.22h-1.19v-.98h2.94V5.96h-4.8V13h3.15zm-.33-1.54h-.96V10h.96c.48 0 .68.29.68.73 0 .43-.2.73-.68.73zm6.58 1.67c1.88 0 3.07-1.1 3.14-3.25.01-.35.01-.43 0-.8-.07-2.15-1.26-3.25-3.14-3.25-1.89 0-3.08 1.11-3.15 3.25-.01.35-.01.43 0 .8.07 2.14 1.26 3.25 3.15 3.25zm0-1.65c-.87 0-1.24-.54-1.26-1.6-.01-.31-.01-.5 0-.8.02-1.06.39-1.6 1.26-1.6.86 0 1.23.53 1.25 1.6.01.3.01.49 0 .8-.02 1.06-.39 1.6-1.25 1.6zm5.62 2.86V13h3.82v1.34h1.77v-2.97h-.84V5.96h-5.09l-.68 5.41h-.75v2.97h1.77zm2.9-2.97h-2.12l.49-3.78h1.63v3.78zM60.52 13l.26-1.08h2.38l.27 1.08h1.88l-1.94-7.04h-2.82L58.62 13h1.9zm2.25-2.69h-1.62l.65-2.72h.31l.66 2.72z" transform="translate(71 6) rotate(60 27.18 48.722)"/>
            </g>
            <path fill="#F5F5F5" stroke="#000" stroke-linecap="round" d="M66.009 157.986c-1.23-1.136-1.515-2.935-1.643-3.91-1.7-12.945-7.999-24.89-8.63-37.964-.553-11.406.935-23.45-1.267-34.783-1.809-9.305-4.814-9.651-5.002-7.244-1.053 13.43-2.875 26.534-4.096 39.974-.568 6.248 4.607 28.022 1.988 29.253" transform="translate(71 6)"/>
        </g>
    </g>
</svg>
