<svg xmlns="http://www.w3.org/2000/svg" width="240" height="272" viewBox="0 0 240 272">
    <g fill="none" fill-rule="evenodd">
        <path d="M0 0H240V272H0z"/>
        <g>
            <g stroke="#0F0F10" stroke-linejoin="bevel">
                <path fill="#0F0F10" d="M88 48L176 80 88 176 0 144z" transform="translate(32 79) translate(0 16)"/>
                <path fill="#0F0F10" d="M88 0L176 32 176 80 88 48z" transform="translate(32 79) translate(0 16)"/>
                <path fill="#F5F5F5" d="M88 128L176 32 176 80 88 176z" transform="translate(32 79) translate(0 16)"/>
                <path fill="#0F0F10" d="M0 96L88 0 88 48 0 144z" transform="translate(32 79) translate(0 16)"/>
                <path fill="#F5F5F5" d="M0 96L88 128 88 176 0 144z" transform="translate(32 79) translate(0 16)"/>
            </g>
            <g fill="#F5F5F5" stroke="#0F0F10" stroke-linejoin="bevel">
                <path d="M0 96L88 128 88 144 0 112zM88 128L176 32 176 48 88 144z" transform="translate(32 79)"/>
                <path d="M88 0L176 32 88 128 0 96z" transform="translate(32 79)"/>
            </g>
            <path fill="#0F0F10" fill-rule="nonzero" d="M106.055 74.734c-.402-.278-.324-.512.02-.912.537-.658 2.168-2.166 3.007-2.78.42-.306.876-.403 1.356-.36.543.067 4.627 1.488 4.916 1.79.276.231.198.466-.045.771-.473.682-2.155 2.236-3.006 2.78-.369.26-.648.355-1.179.359-.633.098-4.603-1.347-5.069-1.648zm13.09-3.971c-1.007-.636-5.625-2.384-7.74-2.817-1.615-.319-3.533.06-4.892.914-1.45 1.02-4.1 3.492-4.935 4.603-.732 1.013-.591 2.21.736 2.962 1.34.825 6.124 2.499 7.855 2.792 2.04.338 3.782-.375 4.649-.935 1.295-.876 3.944-3.347 4.935-4.603.772-1.134.4-2.28-.608-2.916zm-16.273-5.62l3.474 1.265-8.94 8.452-3.475-1.264 8.94-8.452zM91.478 69.01c-.312.294-.74.614-1.43.43-.806-.157-3.167-1.016-3.956-1.44-.331-.188-.778-.35-.333-.936l.156-.146-3.51-1.278c-.051.05-.207.196-.352.415-1.07 1.173-1.328 2.165.07 3.014 1.132.684 6.121 2.567 7.913 2.88 2.099.356 3.847-.705 4.992-1.783 1.301-1.224 1.612-2.265.573-3.119-.279-.237-1.12-.611-1.503-.75-.32-.117-3.98-1.585-4.705-1.985-.458-.235-.326-.526.039-.869.364-.342.688-.564 1.43-.43.87.181 3.869 1.273 4.084 1.487.279.237.198.48-.062.724l-.208.196 3.509 1.277c.208-.196.3-.366.457-.513 1.214-1.391 1.038-2.474-.581-3.2-1.567-.773-5.575-2.164-6.943-2.459-1.357-.222-3.078-.101-5.004 1.71-1.562 1.47-1.45 2.53-.179 3.332.395.211 1.62.725 1.81.794.395.212 3.61 1.517 3.812 1.66.47.306.234.695-.079.99zm-13.937-5.636l-4.129-1.502 5.511-2.783.61.221-1.992 4.064zm-2.235 3.443l3.826 1.393 4.31-10.137-5.19-1.889-13.843 6.668 3.827 1.392 2.453-1.26 5.461 2.055-.844 1.778zm-17.852-9.221c.407.283 4.046 1.608 4.789 1.743.499.113 1.078-.015 1.455-.285.156-.147.48-.368.584-.466l3.64 1.325c-.209.195-.73.684-1.262 1.101-1.284.957-2.935 1.51-4.908 1.199-1.357-.223-6.912-2.244-7.98-2.905-1.081-.732-1.554-1.786-.728-2.978.786-1.071 3.492-3.614 4.893-4.597 1.024-.712 2.971-1.293 4.827-.956 1.677.338 6.9 2.172 8.045 2.928 1.487 1.016.709 2.496.304 2.96-.457.512-.821.854-1.03 1.05l-3.639-1.325c.209-.195.845-.71.363-1.09-.28-.236-3.855-1.538-4.8-1.814-.5-.114-.911-.06-1.34.259-.92.615-2.69 2.277-3.238 2.96-.457.512-.242.726.025.89z" transform="translate(32 79)"/>
        </g>
    </g>
</svg>
