<svg xmlns="http://www.w3.org/2000/svg" xmlns:xlink="http://www.w3.org/1999/xlink" width="86" height="28" viewBox="0 0 86 28">
    <defs>
        <path id="9homekfuia" d="M0.034 0.932L84.999 0.932 84.999 27.966 0.034 27.966z"/>
    </defs>
    <g fill="none" fill-rule="evenodd">
        <g>
            <g transform="translate(-556 -532) translate(556 532)">
                <mask id="4s2nfepcab" fill="#fff">
                    <use xlink:href="#9homekfuia"/>
                </mask>
                <path fill="#0F0F10" d="M30.394 7.435c-1.495 0-2.228-1.092-2.228-2.506 0-1.414.749-2.522 2.228-2.522 1.48 0 2.228 1.108 2.228 2.522 0 1.414-.732 2.506-2.228 2.506zm0 .755c3.056 0 4.758-1.623 4.758-3.26 0-1.64-1.702-3.278-4.758-3.278-3.054 0-4.758 1.639-4.758 3.277 0 1.638 1.704 3.26 4.758 3.26zm28.231-.755c-1.496 0-2.228-1.092-2.228-2.506 0-1.414.748-2.522 2.228-2.522 1.48 0 2.227 1.108 2.227 2.522 0 1.414-.731 2.506-2.227 2.506zm-20.592-2.57c0-1.013.764-1.606 1.766-1.606h.287v3.228H39.8c-.954 0-1.766-.546-1.766-1.622zM63.064 2.76h2.5v5.237h2.307V2.76h2.514V1.83h-7.32v.931zM5.347 6.23l.97 1.767h2.595L5.395 1.829H3.23L0 7.997h1.194L2.1 6.23h3.247zM3.692 3.226l1.194 2.169H2.53l1.114-2.169h.048zm19.303.53c0 .739-.764 1.045-1.48 1.045h-1.162V2.76h1.162c.716 0 1.48.24 1.48.995zm-.907 1.992c1.4 0 3.31-.289 3.31-2.008 0-1.799-2.149-1.911-3.406-1.911H18.03v6.168h2.323V5.748h1.735zm22.215-.883c0 1.076-.812 1.622-1.766 1.622h-.287V3.259h.287c1.002 0 1.766.593 1.766 1.606zM40.007 7.29v.9h2.323v-.9h.27c1.623 0 4.01-.45 4.01-2.425 0-2.056-2.546-2.41-4.01-2.41h-.27V1.62h-2.323v.835h-.27c-1.465 0-4.011.354-4.011 2.41 0 1.975 2.387 2.425 4.01 2.425h.271zm18.618.9c3.055 0 4.758-1.623 4.758-3.26 0-1.64-1.703-3.278-4.758-3.278-3.055 0-4.758 1.639-4.758 3.277 0 1.638 1.703 3.26 4.758 3.26zm-47.33-2.875l3.565-.049c-.08 1.414-1.177 2.089-2.403 2.089-1.066 0-2.228-.515-2.88-1.51l-1.162.69C9.53 7.74 10.643 8.19 12.49 8.19c2.132 0 4.948-.883 4.948-3.26 0-2.491-2.658-3.278-4.917-3.278-1.591 0-2.944.273-4.106 1.413l1.162.675c.78-.835 1.861-1.269 2.848-1.269 1.194 0 2.228.626 2.435 1.944l-3.565-.064v.964zm35.777 2.682l2.291-4.771h.032l2.515 4.771h2.593l-3.341-6.168h-2.18l-3.04 6.168h1.13zM54.343 20.206h2.234l5.363-9.093h-1.868l-2.785 4.691-2.61-4.69h-2.896l4.09 7.083-1.528 2.009zm-6.093 0h2.577v-9.093H48.25v3.679h-4.377v-3.679h-2.578v9.093h2.578V16.14h4.377v4.065zm21.434-8.787c-.922-.402-1.94-.611-2.927-.611-2.785 0-5.412 1.59-5.412 4.82 0 3.164 2.722 4.819 5.57 4.819.987 0 1.99-.194 2.897-.612v-1.348c-.827.417-1.75.658-2.61.658-1.719 0-3.198-.98-3.198-3.518s1.48-3.453 3.166-3.453c.844 0 1.735.225 2.514.594v-1.35zm-45.289 7.63h-2.164v-3.277h2.164c1.003 0 1.449.69 1.449 1.623 0 .931-.446 1.638-1.305 1.653h-.144zm3.024-7.936h-7.75v9.093h5.028c2.499 0 3.756-1.286 3.756-2.811 0-1.51-1.241-2.78-3.74-2.78h-2.482v-2.329h5.188v-1.173zm7.192 8.144c-1.575 0-2.72-1.108-2.72-3.63 0-2.49 1.145-3.63 2.72-3.63 1.592 0 2.738 1.14 2.738 3.63 0 2.506-1.146 3.63-2.738 3.63zm0-8.449c-3.246 0-5.378 1.863-5.378 4.82 0 2.987 2.132 4.85 5.378 4.85 3.247 0 5.38-1.863 5.38-4.85 0-2.957-2.133-4.82-5.38-4.82z" mask="url(#4s2nfepcab)"/>
                <path fill="#0F0F10" d="M84.364 10.175c-.16-.145-.652.37-.652.37l-.303.289-3.105.112-.063.242s1.859.382 2.41.702C69.077 25.769 53.243 26.184 43.906 26.184c-14.65 0-25.684-4.324-25.684-4.324S29.255 28 45.529 28c18.773 0 29.384-7.593 37.257-15.98l.002.004c.318.53.796 2.362.796 2.362l.223-.08-.048-3.135.27-.32s.494-.515.335-.676" mask="url(#4s2nfepcab)"/>
            </g>
        </g>
    </g>
</svg>
