<svg xmlns="http://www.w3.org/2000/svg" width="66" height="66" viewBox="0 0 66 66">
    <g fill="none" fill-rule="evenodd" stroke="#0F0F10">
        <path d="M20.511 0H43.49c7.132 0 9.718.743 12.326 2.137 2.607 1.395 4.653 3.44 6.048 6.048C63.257 10.793 64 13.38 64 20.511V43.49c0 7.132-.743 9.718-2.137 12.326-1.395 2.607-3.44 4.653-6.048 6.048C53.207 63.257 50.62 64 43.489 64H20.51c-7.132 0-9.718-.743-12.326-2.137-2.607-1.395-4.653-3.44-6.048-6.048C.743 53.207 0 50.62 0 43.489V20.51c0-7.132.743-9.718 2.137-12.326 1.395-2.607 3.44-4.653 6.048-6.048C10.793.743 13.38 0 20.511 0z" transform="translate(1 1)"/>
        <g>
            <path d="M0 11.5L32 11.5" transform="translate(1 1) translate(16 20)"/>
            <path d="M12.5 3.5L28.5 3.5 28.5 19.5" transform="translate(1 1) translate(16 20) rotate(45 20.5 11.5)"/>
        </g>
    </g>
</svg>
