<svg version="1.1" xmlns="http://www.w3.org/2000/svg" width="1024" height="1024" viewBox="0 0 1024 1024">
    <path fill="none" stroke-linejoin="miter" stroke-linecap="butt" stroke-miterlimit="4" stroke-width="15.5152" stroke="#000" d="M690.254 1008.485h-356.523c-110.654 0-150.776-11.528-191.24-33.156-40.448-21.644-72.192-53.372-93.836-93.836-21.613-40.464-33.14-80.601-33.14-191.24v-356.523c0-110.654 11.528-150.776 33.156-191.24 21.644-40.448 53.372-72.192 93.836-93.836 40.464-21.613 80.601-33.14 191.24-33.14h356.523c110.654 0 150.776 11.528 191.24 33.156 40.448 21.644 72.192 53.372 93.836 93.836 21.613 40.464 33.14 80.601 33.14 191.24v356.523c0 110.654-11.528 150.776-33.156 191.24-21.644 40.448-53.372 72.192-93.836 93.836-40.464 21.613-80.601 33.14-191.24 33.14z"></path>
    <g>
        <path fill="none" stroke-linejoin="miter" stroke-linecap="butt" stroke-miterlimit="4" stroke-width="15.5152" stroke="#000" d="M760.242 519.758h-496.485"></path>
        <path fill="none" stroke-linejoin="miter" stroke-linecap="butt" stroke-miterlimit="4" stroke-width="15.5152" stroke="#000" d="M442.182 695.291l-175.534-175.534 175.534-175.534"></path>
    </g>
</svg>
