<svg xmlns="http://www.w3.org/2000/svg" width="32" height="32" viewBox="0 0 32 32">
    <g fill="none" fill-rule="evenodd">
        <path class="ii-block" stroke="#0F0F10" d="M5.128.5h21.744c1.642 0 2.244.153 2.846.475.563.301 1.006.744 1.307 1.307.322.602.475 1.204.475 2.846h0v21.744c0 1.642-.153 2.244-.475 2.846-.301.563-.744 1.006-1.307 1.307-.602.322-1.204.475-2.846.475h0H5.128c-1.642 0-2.244-.153-2.846-.475-.563-.301-1.006-.744-1.307-1.307C.653 29.116.5 28.514.5 26.872h0V5.128c0-1.642.153-2.244.475-2.846.301-.563.744-1.006 1.307-1.307C2.884.653 3.486.5 5.128.5h0z"/>
        <path class="ii-content" fill="#0F0F10" fill-rule="nonzero" d="M13.032 14.154c2.058 0 2.492-1.666 2.534-3.178h-1.064c-.028 1.036-.266 2.142-1.47 2.142-1.246 0-1.554-1.008-1.624-2.702-.028-.728-.028-2.24 0-2.688.098-1.666.392-2.702 1.624-2.702 1.12 0 1.414.84 1.456 2.128h1.064c-.028-1.82-.644-3.164-2.506-3.164-1.862 0-2.604 1.316-2.702 3.598-.028.728-.028 1.974 0 2.968.056 2.212.742 3.598 2.688 3.598zm6.02 0c.728 0 1.19-.35 1.456-.728h.126V14h.952V6.972H20.55v4.172c0 1.302-.448 1.974-1.232 1.974-.882 0-1.204-.672-1.204-1.722V6.972h-1.036v4.55c0 1.792.756 2.632 1.974 2.632zM15.209 28v-1.036h-3.332v-.21l3.332-7.532v-1.078h-4.634v1.036h3.332v.182l-3.332 7.56V28h4.634zm2.548 0v-4.172c0-1.302.462-1.974 1.232-1.974.882 0 1.218.686 1.218 1.722V28h1.022v-4.55c0-1.792-.756-2.632-1.974-2.632-.714 0-1.176.35-1.442.728h-.14v-.574h-.952V28h1.036z"/>
    </g>
</svg>
