<svg xmlns="http://www.w3.org/2000/svg" width="32" height="32" viewBox="0 0 32 32">
    <g fill="none" fill-rule="evenodd">
        <path class="ii-block" stroke="#0F0F10" d="M5.128.5h21.744c1.642 0 2.244.153 2.846.475.563.301 1.006.744 1.307 1.307.322.602.475 1.204.475 2.846h0v21.744c0 1.642-.153 2.244-.475 2.846-.301.563-.744 1.006-1.307 1.307-.602.322-1.204.475-2.846.475h0H5.128c-1.642 0-2.244-.153-2.846-.475-.563-.301-1.006-.744-1.307-1.307C.653 29.116.5 28.514.5 26.872h0V5.128c0-1.642.153-2.244.475-2.846.301-.563.744-1.006 1.307-1.307C2.884.653 3.486.5 5.128.5h0z"/>
        <path class="ii-content" fill="#0F0F10" fill-rule="nonzero" d="M13.504 14.132c1.368 0 2.088-.924 2.088-2.4 0-1.74-.852-2.172-1.872-2.46l-.3-.084c-.684-.192-1.104-.54-1.104-1.476 0-.816.36-1.428 1.128-1.428.768 0 1.092.444 1.14 1.476h.924c-.048-1.68-.816-2.34-2.064-2.34-1.284 0-2.064.984-2.064 2.352 0 1.368.564 2.016 1.824 2.376l.252.072c.84.24 1.2.588 1.2 1.572 0 .864-.3 1.476-1.152 1.476-.912 0-1.248-.6-1.284-1.548h-.924c.024 1.668.864 2.412 2.208 2.412zM19.156 14V6.44h1.752v-.888h-4.392v.888h1.716V14h.924zM5.872 26.132c1.368 0 2.088-.924 2.088-2.4 0-1.74-.852-2.172-1.872-2.46l-.3-.084c-.684-.192-1.104-.54-1.104-1.476 0-.816.36-1.428 1.128-1.428.768 0 1.092.444 1.14 1.476h.924c-.048-1.68-.816-2.34-2.064-2.34-1.284 0-2.064.984-2.064 2.352 0 1.368.564 2.016 1.824 2.376l.252.072c.84.24 1.2.588 1.2 1.572 0 .864-.3 1.476-1.152 1.476-.912 0-1.248-.6-1.284-1.548h-.924c.024 1.668.864 2.412 2.208 2.412zM11.524 26v-7.56h1.752v-.888H8.884v.888H10.6V26h.924zm6.744 0v-.888h-2.784V22.1h2.256v-.888h-2.256V18.44h2.784v-.888h-3.696V26h3.696zm5.172 0v-.888h-2.784V22.1h2.256v-.888h-2.256V18.44h2.784v-.888h-3.696V26h3.696zm5.1 0v-.888h-2.712v-7.56h-.912V26h3.624z"/>
    </g>
</svg>
