<svg xmlns="http://www.w3.org/2000/svg" width="32" height="32" viewBox="0 0 32 32">
    <g fill="none" fill-rule="evenodd">
        <path class="ii-block" stroke="#0F0F10" d="M5.128.5h21.744c1.642 0 2.244.153 2.846.475.563.301 1.006.744 1.307 1.307.322.602.475 1.204.475 2.846h0v21.744c0 1.642-.153 2.244-.475 2.846-.301.563-.744 1.006-1.307 1.307-.602.322-1.204.475-2.846.475h0H5.128c-1.642 0-2.244-.153-2.846-.475-.563-.301-1.006-.744-1.307-1.307C.653 29.116.5 28.514.5 26.872h0V5.128c0-1.642.153-2.244.475-2.846.301-.563.744-1.006 1.307-1.307C2.884.653 3.486.5 5.128.5h0z"/>
        <path class="ii-content" fill="#0F0F10" fill-rule="nonzero" d="M9.934 14v-3.192h.996c1.428 0 2.004-1.08 2.004-2.616 0-1.572-.54-2.64-2.016-2.64H9.022V14h.912zm.744-4.092h-.744V6.44h.744c.792 0 1.32.252 1.32 1.752s-.552 1.716-1.32 1.716zM17.962 14v-.888H15.25v-7.56h-.912V14h3.624zm1.632 0l.3-1.56h2.46l.3 1.56h.96L21.97 5.552h-1.692L18.622 14h.972zm2.592-2.472H20.05l.9-5.064h.336l.9 5.064zM9.232 26.132c1.368 0 2.088-.924 2.088-2.4 0-1.74-.852-2.172-1.872-2.46l-.3-.084c-.684-.192-1.104-.54-1.104-1.476 0-.816.36-1.428 1.128-1.428.768 0 1.092.444 1.14 1.476h.924c-.048-1.68-.816-2.34-2.064-2.34-1.284 0-2.064.984-2.064 2.352 0 1.368.564 2.016 1.824 2.376l.252.072c.84.24 1.2.588 1.2 1.572 0 .864-.3 1.476-1.152 1.476-.912 0-1.248-.6-1.284-1.548h-.924c.024 1.668.864 2.412 2.208 2.412zM14.884 26v-7.56h1.752v-.888h-4.392v.888h1.716V26h.924zm3.96 0v-8.448h-.912V26h.912zm3.936.132c1.764 0 2.136-1.428 2.172-2.724h-.912c-.024.888-.228 1.836-1.26 1.836-1.068 0-1.332-.864-1.392-2.316-.024-.624-.024-1.92 0-2.304.084-1.428.336-2.316 1.392-2.316.96 0 1.212.72 1.248 1.824h.912c-.024-1.56-.552-2.712-2.148-2.712s-2.232 1.128-2.316 3.084c-.024.624-.024 1.692 0 2.544.048 1.896.636 3.084 2.304 3.084z"/>
    </g>
</svg>
