<svg xmlns="http://www.w3.org/2000/svg" width="32" height="32" viewBox="0 0 32 32">
    <g fill="none" fill-rule="evenodd">
        <path class="ii-block" stroke="#0F0F10" d="M5.128.5h21.744c1.642 0 2.244.153 2.846.475.563.301 1.006.744 1.307 1.307.322.602.475 1.204.475 2.846h0v21.744c0 1.642-.153 2.244-.475 2.846-.301.563-.744 1.006-1.307 1.307-.602.322-1.204.475-2.846.475h0H5.128c-1.642 0-2.244-.153-2.846-.475-.563-.301-1.006-.744-1.307-1.307C.653 29.116.5 28.514.5 26.872h0V5.128c0-1.642.153-2.244.475-2.846.301-.563.744-1.006 1.307-1.307C2.884.653 3.486.5 5.128.5h0z"/>
        <path class="ii-content" fill="#0F0F10" fill-rule="nonzero" d="M10.554 14V4.144h-.966L7.656 5.866v1.19l1.722-1.47h.112V14h1.064zm4.592.154c1.498 0 2.548-1.12 2.548-2.828 0-1.386-.658-2.156-1.134-2.408v-.154c.406-.28.938-.91.938-2.128 0-1.512-.938-2.646-2.352-2.646-1.428 0-2.366 1.134-2.366 2.646 0 1.218.532 1.848.938 2.128v.154c-.448.238-1.134.98-1.134 2.408 0 1.708 1.064 2.828 2.562 2.828zm0-5.726c-.7 0-1.288-.686-1.288-1.708 0-1.036.532-1.708 1.288-1.708.742 0 1.274.672 1.274 1.708 0 1.022-.588 1.708-1.274 1.708zm0 4.704c-.882 0-1.47-.756-1.47-1.848 0-1.176.644-1.89 1.47-1.89s1.456.714 1.456 1.89c0 1.092-.588 1.848-1.456 1.848zm5.348.868V9.394h.938L23.392 14h1.204L22.44 8.988V8.68l2.128-4.536h-1.162L21.46 8.4h-.966V4.144h-1.05V14h1.05zM8.825 28l2.856-8.778v-1.078H6.963v1.036h3.514v.154L7.635 28h1.19zm6.664.154c1.498 0 2.52-1.33 2.52-3.234 0-1.918-1.036-3.136-2.324-3.136-.644 0-1.078.21-1.386.546h-.126l.364-3.15h2.982v-1.036h-3.808l-.658 5.698h1.05c.308-.574.714-1.022 1.386-1.022.854 0 1.442.826 1.442 2.086 0 1.274-.49 2.212-1.456 2.212-.924 0-1.386-.798-1.442-1.498h-1.092c.084 1.33.994 2.534 2.548 2.534zm6.622 0c1.694 0 2.646-1.414 2.674-3.402.014-.896.014-2.436 0-3.36-.028-1.988-.98-3.402-2.674-3.402s-2.632 1.414-2.66 3.402c-.014.994 0 2.66 0 3.36 0 1.904.924 3.402 2.66 3.402zm0-1.036c-1.008 0-1.554-.938-1.582-2.408-.028-1.484-.014-2.38 0-3.276.028-1.47.574-2.408 1.582-2.408 1.022 0 1.568.98 1.596 2.408.028 1.442.014 2.394 0 3.276-.028 1.428-.574 2.408-1.596 2.408z"/>
    </g>
</svg>
