<svg xmlns="http://www.w3.org/2000/svg" width="32" height="32" viewBox="0 0 32 32">
    <g fill="none" fill-rule="evenodd">
        <path class="ii-block" stroke="#0F0F10" d="M5.128.5h21.744c1.642 0 2.244.153 2.846.475.563.301 1.006.744 1.307 1.307.322.602.475 1.204.475 2.846h0v21.744c0 1.642-.153 2.244-.475 2.846-.301.563-.744 1.006-1.307 1.307-.602.322-1.204.475-2.846.475h0H5.128c-1.642 0-2.244-.153-2.846-.475-.563-.301-1.006-.744-1.307-1.307C.653 29.116.5 28.514.5 26.872h0V5.128c0-1.642.153-2.244.475-2.846.301-.563.744-1.006 1.307-1.307C2.884.653 3.486.5 5.128.5h0z"/>
        <path class="ii-content" fill="#0F0F10" fill-rule="nonzero" d="M12.829 21l.35-1.82h2.87l.35 1.82h1.12l-1.918-9.856h-1.974L11.695 21h1.134zm3.024-2.884h-2.492l1.05-5.908h.392l1.05 5.908zM19.773 21V10.822h-1.022V21h1.022z"/>
    </g>
</svg>
