<svg xmlns="http://www.w3.org/2000/svg" width="32" height="32" viewBox="0 0 32 32">
    <g fill="none" fill-rule="evenodd">
        <path class="ii-block" stroke="#0F0F10" d="M5.128.5h21.744c1.642 0 2.244.153 2.846.475.563.301 1.006.744 1.307 1.307.322.602.475 1.204.475 2.846h0v21.744c0 1.642-.153 2.244-.475 2.846-.301.563-.744 1.006-1.307 1.307-.602.322-1.204.475-2.846.475h0H5.128c-1.642 0-2.244-.153-2.846-.475-.563-.301-1.006-.744-1.307-1.307C.653 29.116.5 28.514.5 26.872h0V5.128c0-1.642.153-2.244.475-2.846.301-.563.744-1.006 1.307-1.307C2.884.653 3.486.5 5.128.5h0z"/>
        <path class="ii-line" stroke="#0F0F10" d="M.5 16L32 16"/>
        <path class="ii-content" fill="#0F0F10" fill-rule="nonzero" d="M7.56 12.11c1.14 0 1.74-.77 1.74-2 0-1.45-.71-1.81-1.56-2.05l-.25-.07c-.57-.16-.92-.45-.92-1.23 0-.68.3-1.19.94-1.19.64 0 .91.37.95 1.23h.77c-.04-1.4-.68-1.95-1.72-1.95-1.07 0-1.72.82-1.72 1.96 0 1.14.47 1.68 1.52 1.98l.21.06c.7.2 1 .49 1 1.31 0 .72-.25 1.23-.96 1.23-.76 0-1.04-.5-1.07-1.29h-.77c.02 1.39.72 2.01 1.84 2.01zm4.71-.11V5.7h1.46v-.74h-3.66v.74h1.43V12h.77zm5.62 0v-.74h-2.32V8.75h1.88v-.74h-1.88V5.7h2.32v-.74h-3.08V12h3.08zm4.31 0v-.74h-2.32V8.75h1.88v-.74h-1.88V5.7h2.32v-.74h-3.08V12h3.08zm4.25 0v-.74h-2.26v-6.3h-.76V12h3.02zM3.95 27v-2.66h.83c1.19 0 1.67-.9 1.67-2.18 0-1.31-.45-2.2-1.68-2.2H3.19V27h.76zm.62-3.41h-.62V20.7h.62c.66 0 1.1.21 1.1 1.46s-.46 1.43-1.1 1.43zM10.39 27v-.74H8.13v-6.3h-.76V27h3.02zm1.11 0l.25-1.3h2.05l.25 1.3h.8l-1.37-7.04h-1.41L10.69 27h.81zm2.16-2.06h-1.78l.75-4.22h.28l.75 4.22zm3.5 2.17c1.14 0 1.74-.77 1.74-2 0-1.45-.71-1.81-1.56-2.05l-.25-.07c-.57-.16-.92-.45-.92-1.23 0-.68.3-1.19.94-1.19.64 0 .91.37.95 1.23h.77c-.04-1.4-.68-1.95-1.72-1.95-1.07 0-1.72.82-1.72 1.96 0 1.14.47 1.68 1.52 1.98l.21.06c.7.2 1 .49 1 1.31 0 .72-.25 1.23-.96 1.23-.76 0-1.04-.5-1.07-1.29h-.77c.02 1.39.72 2.01 1.84 2.01zm4.3-.11v-6.3h1.46v-.74h-3.66v.74h1.43V27h.77zm3.05 0v-7.04h-.76V27h.76zm3.03.11c1.47 0 1.78-1.19 1.81-2.27h-.76c-.02.74-.19 1.53-1.05 1.53-.89 0-1.11-.72-1.16-1.93-.02-.52-.02-1.6 0-1.92.07-1.19.28-1.93 1.16-1.93.8 0 1.01.6 1.04 1.52h.76c-.02-1.3-.46-2.26-1.79-2.26s-1.86.94-1.93 2.57c-.02.52-.02 1.41 0 2.12.04 1.58.53 2.57 1.92 2.57z"/>
    </g>
</svg>
