<svg xmlns="http://www.w3.org/2000/svg" width="32" height="32" viewBox="0 0 32 32">
    <g fill="none" fill-rule="evenodd">
        <path class="ii-block" stroke="#0F0F10" d="M5.128.5h21.744c1.642 0 2.244.153 2.846.475.563.301 1.006.744 1.307 1.307.322.602.475 1.204.475 2.846h0v21.744c0 1.642-.153 2.244-.475 2.846-.301.563-.744 1.006-1.307 1.307-.602.322-1.204.475-2.846.475h0H5.128c-1.642 0-2.244-.153-2.846-.475-.563-.301-1.006-.744-1.307-1.307C.653 29.116.5 28.514.5 26.872h0V5.128c0-1.642.153-2.244.475-2.846.301-.563.744-1.006 1.307-1.307C2.884.653 3.486.5 5.128.5h0z"/>
        <path class="ii-content" fill="#0F0F10" fill-rule="nonzero" d="M7.924 14.132c1.764 0 2.136-1.428 2.172-2.724h-.912c-.024.888-.228 1.836-1.26 1.836-1.068 0-1.332-.864-1.392-2.316-.024-.624-.024-1.92 0-2.304.084-1.428.336-2.316 1.392-2.316.96 0 1.212.72 1.248 1.824h.912c-.024-1.56-.552-2.712-2.148-2.712S5.704 6.548 5.62 8.504c-.024.624-.024 1.692 0 2.544.048 1.896.636 3.084 2.304 3.084zM15.316 14v-.888h-2.784V10.1h2.256v-.888h-2.256V6.44h2.784v-.888H11.62V14h3.696zm2.388 0v-3.252h1.056L19.984 14h1.02l-1.212-3.228v-.264c.696-.396.996-1.248.996-2.352 0-1.56-.552-2.604-2.016-2.604h-1.98V14h.912zm.84-4.152h-.84V6.44h.84c.648 0 1.308.228 1.308 1.716 0 1.428-.504 1.692-1.308 1.692zM22.756 14l.3-1.56h2.46l.3 1.56h.96l-1.644-8.448H23.44L21.784 14h.972zm2.592-2.472h-2.136l.9-5.064h.336l.9 5.064zM9.706 26v-7.428h.12l1.308 5.268h1.212l1.296-5.268h.108V26h.9v-8.448h-1.596l-1.272 5.208h-.096l-1.272-5.208H8.806V26h.9zm7.728 0v-8.448h-.912V26h.912zm3.936.132c1.764 0 2.136-1.428 2.172-2.724h-.912c-.024.888-.228 1.836-1.26 1.836-1.068 0-1.332-.864-1.392-2.316-.024-.624-.024-1.92 0-2.304.084-1.428.336-2.316 1.392-2.316.96 0 1.212.72 1.248 1.824h.912c-.024-1.56-.552-2.712-2.148-2.712s-2.232 1.128-2.316 3.084c-.024.624-.024 1.692 0 2.544.048 1.896.636 3.084 2.304 3.084z"/>
    </g>
</svg>
