<svg xmlns="http://www.w3.org/2000/svg" xmlns:xlink="http://www.w3.org/1999/xlink" width="332" height="360" viewBox="0 0 332 360">
    <defs>
        <path id="47qbdu2cra" d="M186.661 336.37l130.722-142.606C325.498 184.91 330 173.338 330 161.329V93.62c0-20.185-12.627-38.213-31.596-45.11L195.126 10.954c-18.237-6.632-38.674-1.63-51.787 12.675L12.617 166.236C4.502 175.09 0 186.662 0 198.671v67.708c0 20.185 12.627 38.213 31.596 45.11l103.278 37.556c18.237 6.632 38.674 1.63 51.787-12.675z"/>
    </defs>
    <g fill="none" fill-rule="evenodd">
        <g>
            <g>
                <g transform="translate(-850 -2984) translate(851 2984)">
                    <mask id="0swvdksp8b" fill="#fff">
                        <use xlink:href="#47qbdu2cra"/>
                    </mask>
                    <path stroke="#0F0F10" d="M167.192 8.956c9.122-2.233 18.891-1.821 28.105 1.529h0l103.278 37.556c9.583 3.484 17.564 9.78 23.15 17.755 5.585 7.975 8.775 17.627 8.775 27.825h0v67.708c0 12.134-4.549 23.828-12.748 32.772h0L187.03 336.708c-6.625 7.227-15.1 12.104-24.222 14.336-9.122 2.233-18.891 1.821-28.105-1.529h0L31.425 311.959c-9.583-3.484-17.564-9.78-23.15-17.755C2.69 286.229-.5 276.577-.5 266.379h0v-67.708c0-12.134 4.549-23.828 12.748-32.772h0L142.97 23.292c6.625-7.227 15.1-12.104 24.222-14.336z"/>
                    <g fill="#F5F5F5" stroke="#0F0F10" mask="url(#0swvdksp8b)">
                        <g transform="rotate(-47 232 367.286)">
                            <circle cx="278" cy="8" r="8"/>
                            <circle cx="298" cy="8" r="8"/>
                            <circle cx="318" cy="8" r="8"/>
                            <circle cx="248" cy="28" r="8"/>
                            <circle cx="268" cy="28" r="8"/>
                            <circle cx="288" cy="28" r="8"/>
                            <circle cx="308" cy="28" r="8"/>
                            <circle cx="338" cy="8" r="8"/>
                            <circle cx="358" cy="8" r="8"/>
                            <circle cx="378" cy="8" r="8"/>
                            <circle cx="398" cy="8" r="8"/>
                            <circle cx="328" cy="28" r="8"/>
                            <circle cx="348" cy="28" r="8"/>
                            <circle cx="368" cy="28" r="8"/>
                            <circle cx="388" cy="28" r="8"/>
                            <circle cx="408" cy="28" r="8"/>
                            <circle cx="428" cy="28" r="8"/>
                            <circle cx="218" cy="48" r="8"/>
                            <circle cx="238" cy="48" r="8"/>
                            <circle cx="258" cy="48" r="8"/>
                            <circle cx="278" cy="48" r="8"/>
                            <circle cx="298" cy="48" r="8"/>
                            <circle cx="318" cy="48" r="8"/>
                            <circle cx="208" cy="68" r="8"/>
                            <circle cx="228" cy="68" r="8"/>
                            <circle cx="248" cy="68" r="8"/>
                            <circle cx="268" cy="68" r="8"/>
                            <circle cx="288" cy="68" r="8"/>
                            <circle cx="308" cy="68" r="8"/>
                            <circle cx="338" cy="48" r="8"/>
                            <circle cx="358" cy="48" r="8"/>
                            <circle cx="378" cy="48" r="8"/>
                            <circle cx="398" cy="48" r="8"/>
                            <circle cx="418" cy="48" r="8"/>
                            <circle cx="438" cy="48" r="8"/>
                            <circle cx="328" cy="68" r="8"/>
                            <circle cx="348" cy="68" r="8"/>
                            <circle cx="368" cy="68" r="8"/>
                            <circle cx="388" cy="68" r="8"/>
                            <circle cx="408" cy="68" r="8"/>
                            <circle cx="428" cy="68" r="8"/>
                            <circle cx="448" cy="68" r="8"/>
                            <circle cx="468" cy="68" r="8"/>
                            <circle cx="178" cy="88" r="8"/>
                            <circle cx="198" cy="88" r="8"/>
                            <circle cx="218" cy="88" r="8"/>
                            <circle cx="238" cy="88" r="8"/>
                            <circle cx="258" cy="88" r="8"/>
                            <circle cx="278" cy="88" r="8"/>
                            <circle cx="298" cy="88" r="8"/>
                            <circle cx="318" cy="88" r="8"/>
                            <circle cx="168" cy="108" r="8"/>
                            <circle cx="188" cy="108" r="8"/>
                            <circle cx="208" cy="108" r="8"/>
                            <circle cx="228" cy="108" r="8"/>
                            <circle cx="248" cy="108" r="8"/>
                            <circle cx="268" cy="108" r="8"/>
                            <circle cx="288" cy="108" r="8"/>
                            <circle cx="308" cy="108" r="8"/>
                            <circle cx="338" cy="88" r="8"/>
                            <circle cx="358" cy="88" r="8"/>
                            <circle cx="378" cy="88" r="8"/>
                            <circle cx="398" cy="88" r="8"/>
                            <circle cx="418" cy="88" r="8"/>
                            <circle cx="438" cy="88" r="8"/>
                            <circle cx="458" cy="88" r="8"/>
                            <circle cx="478" cy="88" r="8"/>
                            <circle cx="328" cy="108" r="8"/>
                            <circle cx="348" cy="108" r="8"/>
                            <circle cx="368" cy="108" r="8"/>
                            <circle cx="388" cy="108" r="8"/>
                            <circle cx="408" cy="108" r="8"/>
                            <circle cx="428" cy="108" r="8"/>
                            <circle cx="448" cy="108" r="8"/>
                            <circle cx="468" cy="108" r="8"/>
                            <circle cx="488" cy="108" r="8"/>
                            <circle cx="138" cy="128" r="8"/>
                            <circle cx="158" cy="128" r="8"/>
                            <circle cx="178" cy="128" r="8"/>
                            <circle cx="198" cy="128" r="8"/>
                            <circle cx="218" cy="128" r="8"/>
                            <circle cx="238" cy="128" r="8"/>
                            <circle cx="258" cy="128" r="8"/>
                            <circle cx="278" cy="128" r="8"/>
                            <circle cx="298" cy="128" r="8"/>
                            <circle cx="318" cy="128" r="8"/>
                            <circle cx="128" cy="148" r="8"/>
                            <circle cx="148" cy="148" r="8"/>
                            <circle cx="168" cy="148" r="8"/>
                            <circle cx="188" cy="148" r="8"/>
                            <circle cx="208" cy="148" r="8"/>
                            <circle cx="228" cy="148" r="8"/>
                            <circle cx="248" cy="148" r="8"/>
                            <circle cx="268" cy="148" r="8"/>
                            <circle cx="288" cy="148" r="8"/>
                            <circle cx="308" cy="148" r="8"/>
                            <circle cx="338" cy="128" r="8"/>
                            <circle cx="358" cy="128" r="8"/>
                            <circle cx="378" cy="128" r="8"/>
                            <circle cx="398" cy="128" r="8"/>
                            <circle cx="418" cy="128" r="8"/>
                            <circle cx="438" cy="128" r="8"/>
                            <circle cx="458" cy="128" r="8"/>
                            <circle cx="478" cy="128" r="8"/>
                            <circle cx="498" cy="128" r="8"/>
                            <circle cx="518" cy="128" r="8"/>
                            <circle cx="328" cy="148" r="8"/>
                            <circle cx="348" cy="148" r="8"/>
                            <circle cx="368" cy="148" r="8"/>
                            <circle cx="388" cy="148" r="8"/>
                            <circle cx="408" cy="148" r="8"/>
                            <circle cx="428" cy="148" r="8"/>
                            <circle cx="448" cy="148" r="8"/>
                            <circle cx="468" cy="148" r="8"/>
                            <circle cx="488" cy="148" r="8"/>
                            <circle cx="508" cy="148" r="8"/>
                            <circle cx="528" cy="148" r="8"/>
                            <circle cx="98" cy="168" r="8"/>
                            <circle cx="118" cy="168" r="8"/>
                            <circle cx="138" cy="168" r="8"/>
                            <circle cx="158" cy="168" r="8"/>
                            <circle cx="178" cy="168" r="8"/>
                            <circle cx="198" cy="168" r="8"/>
                            <circle cx="218" cy="168" r="8"/>
                            <circle cx="238" cy="168" r="8"/>
                            <circle cx="258" cy="168" r="8"/>
                            <circle cx="278" cy="168" r="8"/>
                            <circle cx="298" cy="168" r="8"/>
                            <circle cx="318" cy="168" r="8"/>
                            <circle cx="68" cy="188" r="8"/>
                            <circle cx="88" cy="188" r="8"/>
                            <circle cx="108" cy="188" r="8"/>
                            <circle cx="128" cy="188" r="8"/>
                            <circle cx="148" cy="188" r="8"/>
                            <circle cx="168" cy="188" r="8"/>
                            <circle cx="188" cy="188" r="8"/>
                            <circle cx="208" cy="188" r="8"/>
                            <circle cx="228" cy="188" r="8"/>
                            <circle cx="248" cy="188" r="8"/>
                            <circle cx="268" cy="188" r="8"/>
                            <circle cx="288" cy="188" r="8"/>
                            <circle cx="308" cy="188" r="8"/>
                            <circle cx="338" cy="168" r="8"/>
                            <circle cx="358" cy="168" r="8"/>
                            <circle cx="378" cy="168" r="8"/>
                            <circle cx="398" cy="168" r="8"/>
                            <circle cx="418" cy="168" r="8"/>
                            <circle cx="438" cy="168" r="8"/>
                            <circle cx="458" cy="168" r="8"/>
                            <circle cx="478" cy="168" r="8"/>
                            <circle cx="498" cy="168" r="8"/>
                            <circle cx="518" cy="168" r="8"/>
                            <circle cx="538" cy="168" r="8"/>
                            <circle cx="558" cy="168" r="8"/>
                            <circle cx="328" cy="188" r="8"/>
                            <circle cx="348" cy="188" r="8"/>
                            <circle cx="368" cy="188" r="8"/>
                            <circle cx="388" cy="188" r="8"/>
                            <circle cx="408" cy="188" r="8"/>
                            <circle cx="428" cy="188" r="8"/>
                            <circle cx="448" cy="188" r="8"/>
                            <circle cx="468" cy="188" r="8"/>
                            <circle cx="488" cy="188" r="8"/>
                            <circle cx="508" cy="188" r="8"/>
                            <circle cx="528" cy="188" r="8"/>
                            <circle cx="548" cy="188" r="8"/>
                            <circle cx="568" cy="188" r="8"/>
                            <circle cx="78" cy="208" r="8"/>
                            <circle cx="98" cy="208" r="8"/>
                            <circle cx="118" cy="208" r="8"/>
                            <circle cx="138" cy="208" r="8"/>
                            <circle cx="158" cy="208" r="8"/>
                            <circle cx="178" cy="208" r="8"/>
                            <circle cx="198" cy="208" r="8"/>
                            <circle cx="218" cy="208" r="8"/>
                            <circle cx="238" cy="208" r="8"/>
                            <circle cx="258" cy="208" r="8"/>
                            <circle cx="278" cy="208" r="8"/>
                            <circle cx="298" cy="208" r="8"/>
                            <circle cx="318" cy="208" r="8"/>
                            <circle cx="108" cy="228" r="8"/>
                            <circle cx="128" cy="228" r="8"/>
                            <circle cx="148" cy="228" r="8"/>
                            <circle cx="168" cy="228" r="8"/>
                            <circle cx="188" cy="228" r="8"/>
                            <circle cx="208" cy="228" r="8"/>
                            <circle cx="228" cy="228" r="8"/>
                            <circle cx="248" cy="228" r="8"/>
                            <circle cx="268" cy="228" r="8"/>
                            <circle cx="288" cy="228" r="8"/>
                            <circle cx="308" cy="228" r="8"/>
                            <circle cx="338" cy="208" r="8"/>
                            <circle cx="358" cy="208" r="8"/>
                            <circle cx="378" cy="208" r="8"/>
                            <circle cx="398" cy="208" r="8"/>
                            <circle cx="418" cy="208" r="8"/>
                            <circle cx="438" cy="208" r="8"/>
                            <circle cx="458" cy="208" r="8"/>
                            <circle cx="478" cy="208" r="8"/>
                            <circle cx="498" cy="208" r="8"/>
                            <circle cx="518" cy="208" r="8"/>
                            <circle cx="538" cy="208" r="8"/>
                            <circle cx="558" cy="208" r="8"/>
                            <circle cx="328" cy="228" r="8"/>
                            <circle cx="348" cy="228" r="8"/>
                            <circle cx="368" cy="228" r="8"/>
                            <circle cx="388" cy="228" r="8"/>
                            <circle cx="408" cy="228" r="8"/>
                            <circle cx="428" cy="228" r="8"/>
                            <circle cx="448" cy="228" r="8"/>
                            <circle cx="468" cy="228" r="8"/>
                            <circle cx="488" cy="228" r="8"/>
                            <circle cx="508" cy="228" r="8"/>
                            <circle cx="528" cy="228" r="8"/>
                            <circle cx="118" cy="248" r="8"/>
                            <circle cx="138" cy="248" r="8"/>
                            <circle cx="158" cy="248" r="8"/>
                            <circle cx="178" cy="248" r="8"/>
                            <circle cx="198" cy="248" r="8"/>
                            <circle cx="218" cy="248" r="8"/>
                            <circle cx="238" cy="248" r="8"/>
                            <circle cx="258" cy="248" r="8"/>
                            <circle cx="278" cy="248" r="8"/>
                            <circle cx="298" cy="248" r="8"/>
                            <circle cx="318" cy="248" r="8"/>
                            <circle cx="148" cy="268" r="8"/>
                            <circle cx="168" cy="268" r="8"/>
                            <circle cx="188" cy="268" r="8"/>
                            <circle cx="208" cy="268" r="8"/>
                            <circle cx="228" cy="268" r="8"/>
                            <circle cx="248" cy="268" r="8"/>
                            <circle cx="268" cy="268" r="8"/>
                            <circle cx="288" cy="268" r="8"/>
                            <circle cx="308" cy="268" r="8"/>
                            <circle cx="338" cy="248" r="8"/>
                            <circle cx="358" cy="248" r="8"/>
                            <circle cx="378" cy="248" r="8"/>
                            <circle cx="398" cy="248" r="8"/>
                            <circle cx="418" cy="248" r="8"/>
                            <circle cx="438" cy="248" r="8"/>
                            <circle cx="458" cy="248" r="8"/>
                            <circle cx="478" cy="248" r="8"/>
                            <circle cx="498" cy="248" r="8"/>
                            <circle cx="518" cy="248" r="8"/>
                            <circle cx="328" cy="268" r="8"/>
                            <circle cx="348" cy="268" r="8"/>
                            <circle cx="368" cy="268" r="8"/>
                            <circle cx="388" cy="268" r="8"/>
                            <circle cx="408" cy="268" r="8"/>
                            <circle cx="428" cy="268" r="8"/>
                            <circle cx="448" cy="268" r="8"/>
                            <circle cx="468" cy="268" r="8"/>
                            <circle cx="488" cy="268" r="8"/>
                            <circle cx="158" cy="288" r="8"/>
                            <circle cx="178" cy="288" r="8"/>
                            <circle cx="198" cy="288" r="8"/>
                            <circle cx="218" cy="288" r="8"/>
                            <circle cx="238" cy="288" r="8"/>
                            <circle cx="258" cy="288" r="8"/>
                            <circle cx="278" cy="288" r="8"/>
                            <circle cx="298" cy="288" r="8"/>
                            <circle cx="318" cy="288" r="8"/>
                            <circle cx="188" cy="308" r="8"/>
                            <circle cx="208" cy="308" r="8"/>
                            <circle cx="228" cy="308" r="8"/>
                            <circle cx="248" cy="308" r="8"/>
                            <circle cx="268" cy="308" r="8"/>
                            <circle cx="288" cy="308" r="8"/>
                            <circle cx="308" cy="308" r="8"/>
                            <circle cx="338" cy="288" r="8"/>
                            <circle cx="358" cy="288" r="8"/>
                            <circle cx="378" cy="288" r="8"/>
                            <circle cx="398" cy="288" r="8"/>
                            <circle cx="418" cy="288" r="8"/>
                            <circle cx="438" cy="288" r="8"/>
                            <circle cx="458" cy="288" r="8"/>
                            <circle cx="478" cy="288" r="8"/>
                            <circle cx="328" cy="308" r="8"/>
                            <circle cx="348" cy="308" r="8"/>
                            <circle cx="368" cy="308" r="8"/>
                            <circle cx="388" cy="308" r="8"/>
                            <circle cx="408" cy="308" r="8"/>
                            <circle cx="428" cy="308" r="8"/>
                            <circle cx="448" cy="308" r="8"/>
                        </g>
                    </g>
                </g>
                <path stroke="#0F1010" stroke-linejoin="bevel" d="M138 217c21.333 7.667 39.667 3.667 55-12" transform="translate(-850 -2984) translate(851 2984)"/>
            </g>
        </g>
    </g>
</svg>
