<svg xmlns="http://www.w3.org/2000/svg" width="32" height="32" viewBox="0 0 32 32">
    <g fill="none" fill-rule="evenodd">
        <path class="ii-block" stroke="#0F0F10" d="M5.128.5h21.744c1.642 0 2.244.153 2.846.475.563.301 1.006.744 1.307 1.307.322.602.475 1.204.475 2.846h0v21.744c0 1.642-.153 2.244-.475 2.846-.301.563-.744 1.006-1.307 1.307-.602.322-1.204.475-2.846.475h0H5.128c-1.642 0-2.244-.153-2.846-.475-.563-.301-1.006-.744-1.307-1.307C.653 29.116.5 28.514.5 26.872h0V5.128c0-1.642.153-2.244.475-2.846.301-.563.744-1.006 1.307-1.307C2.884.653 3.486.5 5.128.5h0z"/>
        <path class="ii-content" fill="#0F0F10" fill-rule="nonzero" d="M9.917 21v-9.856H8.853V21h1.064zm3.248 0v-3.724h1.162c1.666 0 2.338-1.26 2.338-3.052 0-1.834-.63-3.08-2.352-3.08h-2.212V21h1.064zm.868-4.774h-.868V12.18h.868c.924 0 1.54.294 1.54 2.044s-.644 2.002-1.54 2.002zm6.72 4.928c1.89 0 2.618-1.484 2.618-3.836 0-.392 0-.77-.014-1.176h-2.702v1.022h1.652v.014c0 1.484-.252 2.94-1.526 2.94-1.19 0-1.624-1.008-1.694-2.702-.028-.728-.028-2.24 0-2.688.098-1.666.434-2.702 1.666-2.702 1.134 0 1.456.896 1.498 2.072h1.064c-.028-1.708-.686-3.108-2.548-3.108s-2.646 1.316-2.744 3.598c-.028.728-.028 1.974 0 2.968.056 2.212.868 3.598 2.73 3.598z"/>
    </g>
</svg>
