<svg xmlns="http://www.w3.org/2000/svg" width="32" height="32" viewBox="0 0 32 32">
    <g fill="none" fill-rule="evenodd">
        <path class="ii-block" stroke="#0F0F10" d="M5.128.5h21.744c1.642 0 2.244.153 2.846.475.563.301 1.006.744 1.307 1.307.322.602.475 1.204.475 2.846h0v21.744c0 1.642-.153 2.244-.475 2.846-.301.563-.744 1.006-1.307 1.307-.602.322-1.204.475-2.846.475h0H5.128c-1.642 0-2.244-.153-2.846-.475-.563-.301-1.006-.744-1.307-1.307C.653 29.116.5 28.514.5 26.872h0V5.128c0-1.642.153-2.244.475-2.846.301-.563.744-1.006 1.307-1.307C2.884.653 3.486.5 5.128.5h0z"/>
        <path class="ii-content" fill="#0F0F10" fill-rule="nonzero" d="M8.552 14.154c1.89 0 2.618-1.484 2.618-3.836 0-.392 0-.77-.014-1.176H8.454v1.022h1.652v.014c0 1.484-.252 2.94-1.526 2.94-1.19 0-1.624-1.008-1.694-2.702-.028-.728-.028-2.24 0-2.688.098-1.666.434-2.702 1.666-2.702 1.134 0 1.456.896 1.498 2.072h1.064c-.028-1.708-.686-3.108-2.548-3.108S5.92 5.306 5.822 7.588c-.028.728-.028 1.974 0 2.968.056 2.212.868 3.598 2.73 3.598zM14.194 14V4.144H13.13V14h1.064zm6.412 0v-1.036h-3.164v-8.82h-1.064V14h4.228zm3.92 0V5.18h2.044V4.144h-5.124V5.18h2.002V14h1.078zM11.114 28l.35-1.82h2.87l.35 1.82h1.12l-1.918-9.856h-1.974L9.98 28h1.134zm3.024-2.884h-2.492l1.05-5.908h.392l1.05 5.908zm4.816 3.038c.728 0 1.19-.35 1.456-.728h.126V28h.952v-7.028h-1.036v4.172c0 1.302-.448 1.974-1.232 1.974-.882 0-1.204-.672-1.204-1.722v-4.424H16.98v4.55c0 1.792.756 2.632 1.974 2.632z"/>
    </g>
</svg>
