<svg xmlns="http://www.w3.org/2000/svg" width="32" height="32" viewBox="0 0 32 32">
    <g fill="none" fill-rule="evenodd">
        <path class="ii-block" stroke="#0F0F10" d="M5.128.5h21.744c1.642 0 2.244.153 2.846.475.563.301 1.006.744 1.307 1.307.322.602.475 1.204.475 2.846h0v21.744c0 1.642-.153 2.244-.475 2.846-.301.563-.744 1.006-1.307 1.307-.602.322-1.204.475-2.846.475h0H5.128c-1.642 0-2.244-.153-2.846-.475-.563-.301-1.006-.744-1.307-1.307C.653 29.116.5 28.514.5 26.872h0V5.128c0-1.642.153-2.244.475-2.846.301-.563.744-1.006 1.307-1.307C2.884.653 3.486.5 5.128.5h0z"/>
        <path class="ii-content" fill="#0F0F10" fill-rule="nonzero" d="M5.291 14V4.144h-.966L2.393 5.866v1.19l1.722-1.47h.112V14h1.064zm4.218.154c1.694 0 2.646-1.414 2.674-3.402.014-.896.014-2.436 0-3.36-.028-1.988-.98-3.402-2.674-3.402s-2.632 1.414-2.66 3.402c-.014.994 0 2.66 0 3.36 0 1.904.924 3.402 2.66 3.402zm0-1.036c-1.008 0-1.554-.938-1.582-2.408-.028-1.484-.014-2.38 0-3.276.028-1.47.574-2.408 1.582-2.408 1.022 0 1.568.98 1.596 2.408.028 1.442.014 2.394 0 3.276-.028 1.428-.574 2.408-1.596 2.408zm6.91 3.556v-2.786c.266.182.588.266.938.266.728 0 1.19-.35 1.456-.728h.126V14h.952V6.972h-1.036v4.172c0 1.302-.448 1.974-1.232 1.974-.882 0-1.204-.672-1.204-1.722V6.972h-1.036v9.702h1.036zM22.691 14V9.618c0-1.218.504-1.764 1.218-1.764.931 0 1.079.91 1.091 1.637L25.001 14h1.036V9.618c0-1.218.504-1.764 1.218-1.764.896 0 1.106.798 1.106 1.75V14h1.022V9.366c0-1.75-.84-2.548-1.946-2.548-.868 0-1.358.476-1.694.98h-.098c-.294-.63-.742-.98-1.484-.98-.672 0-1.162.378-1.428.812h-.126v-.658h-.952V14h1.036zM11.114 28l.35-1.82h2.87l.35 1.82h1.12l-1.918-9.856h-1.974L9.98 28h1.134zm3.024-2.884h-2.492l1.05-5.908h.392l1.05 5.908zm4.816 3.038c.728 0 1.19-.35 1.456-.728h.126V28h.952v-7.028h-1.036v4.172c0 1.302-.448 1.974-1.232 1.974-.882 0-1.204-.672-1.204-1.722v-4.424H16.98v4.55c0 1.792.756 2.632 1.974 2.632z"/>
    </g>
</svg>
