<svg xmlns="http://www.w3.org/2000/svg" width="32" height="32" viewBox="0 0 32 32">
    <g fill="none" fill-rule="evenodd">
        <path class="ii-block" stroke="#0F0F10" d="M5.128.5h21.744c1.642 0 2.244.153 2.846.475.563.301 1.006.744 1.307 1.307.322.602.475 1.204.475 2.846h0v21.744c0 1.642-.153 2.244-.475 2.846-.301.563-.744 1.006-1.307 1.307-.602.322-1.204.475-2.846.475h0H5.128c-1.642 0-2.244-.153-2.846-.475-.563-.301-1.006-.744-1.307-1.307C.653 29.116.5 28.514.5 26.872h0V5.128c0-1.642.153-2.244.475-2.846.301-.563.744-1.006 1.307-1.307C2.884.653 3.486.5 5.128.5h0z"/>
        <path class="ii-content" fill="#0F0F10" fill-rule="nonzero" d="M5.543 14V4.144h-.966L2.645 5.866v1.19l1.722-1.47h.112V14h1.064zm3.98.154c1.498 0 2.548-1.12 2.548-2.828 0-1.386-.658-2.156-1.134-2.408v-.154c.406-.28.938-.91.938-2.128 0-1.512-.938-2.646-2.352-2.646-1.428 0-2.366 1.134-2.366 2.646 0 1.218.532 1.848.938 2.128v.154c-.448.238-1.134.98-1.134 2.408 0 1.708 1.064 2.828 2.562 2.828zm0-5.726c-.7 0-1.288-.686-1.288-1.708 0-1.036.532-1.708 1.288-1.708.742 0 1.274.672 1.274 1.708 0 1.022-.588 1.708-1.274 1.708zm0 4.704c-.882 0-1.47-.756-1.47-1.848 0-1.176.644-1.89 1.47-1.89s1.456.714 1.456 1.89c0 1.092-.588 1.848-1.456 1.848zm6.644 3.542v-2.786c.266.182.588.266.938.266.728 0 1.19-.35 1.456-.728h.126V14h.952V6.972h-1.036v4.172c0 1.302-.448 1.974-1.232 1.974-.882 0-1.204-.672-1.204-1.722V6.972h-1.036v9.702h1.036zM22.439 14V9.618c0-1.218.504-1.764 1.218-1.764.98 0 1.092 1.008 1.092 1.75V14h1.036V9.618c0-1.218.504-1.764 1.218-1.764.896 0 1.106.798 1.106 1.75V14h1.022V9.366c0-1.75-.84-2.548-1.946-2.548-.868 0-1.358.476-1.694.98h-.098c-.294-.63-.742-.98-1.484-.98-.672 0-1.162.378-1.428.812h-.126v-.658h-.952V14h1.036zM11.114 28l.35-1.82h2.87l.35 1.82h1.12l-1.918-9.856h-1.974L9.98 28h1.134zm3.024-2.884h-2.492l1.05-5.908h.392l1.05 5.908zm4.816 3.038c.728 0 1.19-.35 1.456-.728h.126V28h.952v-7.028h-1.036v4.172c0 1.302-.448 1.974-1.232 1.974-.882 0-1.204-.672-1.204-1.722v-4.424H16.98v4.55c0 1.792.756 2.632 1.974 2.632z"/>
    </g>
</svg>
