<svg xmlns="http://www.w3.org/2000/svg" width="32" height="32" viewBox="0 0 32 32">
    <g fill="none" fill-rule="evenodd">
        <path class="ii-block" stroke="#0F0F10" d="M5.128.5h21.744c1.642 0 2.244.153 2.846.475.563.301 1.006.744 1.307 1.307.322.602.475 1.204.475 2.846h0v21.744c0 1.642-.153 2.244-.475 2.846-.301.563-.744 1.006-1.307 1.307-.602.322-1.204.475-2.846.475h0H5.128c-1.642 0-2.244-.153-2.846-.475-.563-.301-1.006-.744-1.307-1.307C.653 29.116.5 28.514.5 26.872h0V5.128c0-1.642.153-2.244.475-2.846.301-.563.744-1.006 1.307-1.307C2.884.653 3.486.5 5.128.5h0z"/>
        <path class="ii-content" fill="#0F0F10" fill-rule="nonzero" d="M8.272 21v-3.724h1.162c1.666 0 2.338-1.26 2.338-3.052 0-1.834-.63-3.08-2.352-3.08H7.208V21h1.064zm.868-4.774h-.868V12.18h.868c.924 0 1.54.294 1.54 2.044s-.644 2.002-1.54 2.002zM16.546 21l1.918-9.856H17.33l-1.568 8.624h-.406l-1.554-8.624h-1.134L14.586 21h1.96zm5.586 0c1.792 0 2.786-1.092 2.912-3.444.056-.994.042-1.974 0-2.968-.098-2.394-1.12-3.444-2.912-3.444h-2.226V21h2.226zm-.126-1.036H20.97V12.18h1.036c1.176 0 1.862.588 1.974 2.548.042.728.042 1.96 0 2.688-.112 1.946-.798 2.548-1.974 2.548z"/>
    </g>
</svg>
