<svg xmlns="http://www.w3.org/2000/svg" width="32" height="32" viewBox="0 0 32 32">
    <g fill="none" fill-rule="evenodd">
        <path class="ii-block" stroke="#0F0F10" d="M5.128.5h21.744c1.642 0 2.244.153 2.846.475.563.301 1.006.744 1.307 1.307.322.602.475 1.204.475 2.846h0v21.744c0 1.642-.153 2.244-.475 2.846-.301.563-.744 1.006-1.307 1.307-.602.322-1.204.475-2.846.475h0H5.128c-1.642 0-2.244-.153-2.846-.475-.563-.301-1.006-.744-1.307-1.307C.653 29.116.5 28.514.5 26.872h0V5.128c0-1.642.153-2.244.475-2.846.301-.563.744-1.006 1.307-1.307C2.884.653 3.486.5 5.128.5h0z"/>
        <path class="ii-content" fill="#0F0F10" fill-rule="nonzero" d="M11.373 21v-8.82h2.044v-1.036H8.293v1.036h2.002V21h1.078zm4.452-8.512v-1.33h-1.19v1.33h1.19zM15.741 21v-7.028h-1.022V21h1.022zm3.01 0v-7.728h.098l2.8 7.728h1.386v-9.856h-1.022V18.9h-.112l-2.758-7.756h-1.428V21h1.036z"/>
    </g>
</svg>
