<svg xmlns="http://www.w3.org/2000/svg" width="127" height="127" viewBox="0 0 127 127">
    <path fill="none" fill-rule="evenodd" stroke="#0F0F10" d="M126.44 1C65 63.293 65 64.147 126.44 126.44 64.147 64.181 63.293 65.819 1 126.44 62.44 64.147 62.44 63.293 1 1c62.293 62.259 63.147 60.621 125.44 0zM75.48 19.074C63.8 62.878 63.64 62.963 51.96 29.966c11.52 33.252 11.52 33.439 0 27.44 11.333 6.265 11.147 6.323-27.44 6.02 38.4.448 38.4.608 0 23.52 38.587-22.737 38.773-22.795 27.44-6.02 11.52-16.668 11.52-16.481 0 27.44C63.64 64.563 63.8 64.478 75.48 97.474c-11.52-33.252-11.52-33.438 0-27.44-11.333-6.265-11.147-6.323 27.44-6.02-38.4-.448-38.4-.608 0-23.52-38.587 22.737-38.773 22.795-27.44 6.02-11.52 16.669-11.52 16.482 0-27.44z"/>
</svg>
