<svg xmlns="http://www.w3.org/2000/svg" width="24" height="32" viewBox="0 0 24 32">
    <g fill="none" fill-rule="evenodd" stroke="#0F0F10">
        <path d="M20.75.5l2.75 3.667v23.666L20.75 31.5H3.25L.5 27.833V4.167L3.25.5h17.5z"/>
        <path class="ii-line" d="M18.5 4.5l2 2.667v17.666l-2 2.667h-13l-2-2.667V7.167l2-2.667h13z"/>
        <path class="ii-line" d="M16.25 8.5l1.25 1.667v11.666L16.25 23.5h-8.5L6.5 21.833V10.167L7.75 8.5h8.5zM16.125 9L20.625 1M17.25 10.5L23.25 4.5M17.25 21.5L23.25 27.5M16.125 23L20.625 31M7.875 23L3.375 31M6.75 21.5L.75 27.5M6.75 10.5L.75 4.5M7.875 9L3.375 1"/>
    </g>
</svg>
