<svg xmlns="http://www.w3.org/2000/svg" width="32" height="32" viewBox="0 0 32 32">
    <g fill="none" fill-rule="evenodd" stroke="#0F0F10" stroke-width=".75">
        <path class="ii-block" d="M16 .382l5.977 1.19 5.066 3.385 3.386 5.066L31.618 16l-1.19 5.977-3.385 5.066-5.066 3.386L16 31.618l-5.977-1.19-5.066-3.385-3.386-5.066L.382 16l1.19-5.977 3.385-5.066 5.066-3.386L16 .382z"/>
        <g class="ii-line">
            <path d="M3.5 3.5H19.5V19.5H3.5z" transform="translate(4.5 4.5)"/>
            <path d="M3.5 3.5L19.5 3.5 19.5 19.5 3.5 19.5z" transform="translate(4.5 4.5) rotate(45 11.5 11.5)"/>
        </g>
        <path class="ii-line" stroke-linejoin="bevel" d="M16 26.8L10.26 29.858 8.363 23.637 2.142 21.74 5.2 16 2.142 10.26 8.363 8.363 10.26 2.142 16 5.2 21.74 2.142 23.637 8.363 29.858 10.26 26.8 16 29.858 21.74 23.637 23.637 21.74 29.858z"/>
        <path class="ii-line" d="M27.5 16L32 16M16 27.5L16 32M4.5 16L0 16M16 4.75L16 0M24 24L27.25 27.25M24 8L27.25 4.75M8 8L4.75 4.75M8 24L4.75 27.25"/>
    </g>
</svg>
