<svg xmlns="http://www.w3.org/2000/svg" xmlns:xlink="http://www.w3.org/1999/xlink" width="242" height="322" viewBox="0 0 242 322">
    <defs>
        <ellipse id="srunntvu2c" cx="14" cy="28" rx="14" ry="28"/>
        <path id="llrobg9yda" d="M20.511 0H219.49c7.132 0 9.718.743 12.326 2.137 2.607 1.395 4.653 3.44 6.048 6.048C239.257 10.793 240 13.38 240 20.511V299.49c0 7.132-.743 9.718-2.137 12.326-1.395 2.607-3.44 4.653-6.048 6.048-2.608 1.394-5.194 2.137-12.326 2.137H20.51c-7.132 0-9.718-.743-12.326-2.137-2.607-1.395-4.653-3.44-6.048-6.048C.743 309.207 0 306.62 0 299.489V20.51c0-7.132.743-9.718 2.137-12.326 1.395-2.607 3.44-4.653 6.048-6.048C10.793.743 13.38 0 20.511 0z"/>
    </defs>
    <g fill="none" fill-rule="evenodd" transform="translate(1 1)">
        <mask id="xwg0qlunsb" fill="#fff">
            <use xlink:href="#llrobg9yda"/>
        </mask>
        <path stroke="#0F0F10" d="M20.511-.5H219.49c7.274 0 9.904.775 12.562 2.196 2.695 1.442 4.811 3.558 6.253 6.253 1.421 2.658 2.196 5.288 2.196 12.562h0V299.49c0 7.274-.775 9.904-2.196 12.562-1.442 2.695-3.558 4.811-6.253 6.253-2.658 1.421-5.288 2.196-12.562 2.196h0H20.51c-7.274 0-9.904-.775-12.562-2.196-2.695-1.442-4.811-3.558-6.253-6.253C.275 309.393-.5 306.763-.5 299.489h0V20.51c0-7.274.775-9.904 2.196-12.562C3.138 5.254 5.254 3.138 7.95 1.696 10.607.275 13.237-.5 20.511-.5h0z"/>
        <path fill="#0F0F10" fill-rule="nonzero" d="M74.568 45.336V43.96h-16v1.376h16zM81.096 49v-5.088h5.056V49h1.424V37.736h-1.424v4.8h-5.056v-4.8h-1.424V49h1.424zm16.096 0v-1.376H91.88v-3.76h4.24v-1.296h-4.24v-3.456h5.312v-1.376h-6.736V49h6.736zm7.488 0v-9.888h4.896V49H111V37.736h-7.744V49h1.424zm13.184.176c2.832 0 4.192-1.6 4.272-4.304.032-1.008.032-2.016 0-3.024-.08-2.704-1.44-4.288-4.272-4.288-2.832 0-4.192 1.584-4.272 4.288-.032 1.008-.032 2.016 0 3.024.08 2.704 1.44 4.304 4.272 4.304zm0-1.376c-1.984 0-2.784-1.008-2.848-2.928-.032-1.008-.032-2.016 0-3.024.064-1.904.864-2.912 2.848-2.912s2.784 1.008 2.848 2.912c.032 1.008.032 2.016 0 3.024-.064 1.92-.864 2.928-2.848 2.928zm7.12 3.344V49h7.344v2.144h1.376v-3.52h-1.344v-9.888h-6.32l-1.296 9.888h-1.136v3.52h1.376zm5.952-3.52h-4.8l1.12-8.512h3.68v8.512zm8.816 1.552c2.832 0 4.192-1.6 4.272-4.304.032-1.008.032-2.016 0-3.024-.08-2.704-1.44-4.288-4.272-4.288-2.832 0-4.192 1.584-4.272 4.288-.032 1.008-.032 2.016 0 3.024.08 2.704 1.44 4.304 4.272 4.304zm0-1.376c-1.984 0-2.784-1.008-2.848-2.928-.032-1.008-.032-2.016 0-3.024.064-1.904.864-2.912 2.848-2.912s2.784 1.008 2.848 2.912c.032 1.008.032 2.016 0 3.024-.064 1.92-.864 2.928-2.848 2.928zm18.752 1.2V37.736h-1.424v9.888h-3.808v-9.888h-1.424v9.888h-3.808v-9.888h-1.424V49h11.888zm2.256.032c1.792 0 2.32-.88 2.592-3.072l.848-6.88h3.488V49h1.424V37.736h-6.144l-.976 8c-.192 1.632-.544 1.92-1.392 1.92h-.304v1.376h.464zM173.896 49l4.512-9.04h.16V49h1.424V37.736h-1.904l-4.512 9.04h-.16v-9.04h-1.424V49h1.904z" mask="url(#xwg0qlunsb)"/>
        <g mask="url(#xwg0qlunsb)">
            <g>
                <path fill="#101010" stroke="#0F0F10" stroke-linejoin="bevel" d="M66 0L132 24 66 96 0 72z" transform="translate(54 128)"/>
                <g transform="translate(54 128) translate(41 44)">
                    <path fill="#F5F5F5" stroke="#0F0F10" d="M14 56h17.5c7.732 0 14-12.536 14-28s-6.268-28-14-28H14"/>
                    <mask id="owh4ihxv6d" fill="#fff">
                        <use xlink:href="#srunntvu2c"/>
                    </mask>
                    <use fill="#F5F5F5" stroke="#0F0F10" xlink:href="#srunntvu2c"/>
                    <path fill="#101010" stroke="#0F0F10" d="M17.5 56c7.732 0 14-12.536 14-28s-6.268-28-14-28" mask="url(#owh4ihxv6d)" transform="matrix(-1 0 0 1 49 0)"/>
                    <path fill="#F5F5F5" stroke="#0F0F10" d="M44.199 39.856C48.135 37.378 50.75 32.994 50.75 28c0-5.004-2.626-9.396-6.575-11.87M29.289 39.856c-3.936-2.478-6.551-6.862-6.551-11.856 0-5.004 2.625-9.396 6.575-11.87"/>
                    <circle cx="36.75" cy="28" r="10.5" fill="#F5F5F5" stroke="#0F0F10"/>
                    <path stroke="#000" stroke-linecap="round" d="M33 26.532L38.066 28.994 40.27 21" transform="rotate(20 36.635 24.997)"/>
                </g>
                <path fill="#F5F5F5" stroke="#0F0F10" stroke-linejoin="bevel" d="M66 96L132 24 132 72 66 144zM0 72L66 96 66 144 0 120z" transform="translate(54 128)"/>
                <path fill="#0F0F10" d="M55.5 112.5L54 114l1.5 3-4.5 4.5 6-3 .02-3.657L58.5 114c2.813 5.795 1.494 12.003-3.633 11.362l-.085 3.805c5.428 1.647 5.293 4.3-.653 2.814-6.482-1.621-6.361-4.256-.95-3.212l.004-3.825c-5.534-2.088-6.797-10.311-3.01-13.944l5.327 1.5z" transform="translate(54 128)"/>
            </g>
        </g>
        <g mask="url(#xwg0qlunsb)">
            <g>
                <path fill="#F5F5F5" d="M.335 43.12C7 39 15.287 29.328 21.617 25.828c7.556-4.178 14.862-10.006 22.612-13.966C54.427 6.652 64.817-.046 65.069 0c2.554.486 2.77 6.874-.572 11.932-2.688 4.066-6.632 5.278-11.264 9.242-2.546 2.182-9.27 9.086-9.004 10.086.178.668-.57-2.522 25.406 7.956 7.732 3.116 17.588 2.806 25.838 2.454 5.544-.236 11.1-.164 16.636.212 11.754.798 15.074 5.774 13.428 7.39-.874.86.068-.328-22.78 3.326-2.974.475-5.01 2.98-7.257 4.902-1.17 1-8.227 5.01-16.5 8.5-6.362 2.684-13.957 5.066-17 5.5-9.579-2.477-22.339-5.109-31.5-4C20 73.5 6.5 85 0 90.5 0 79 .035 60.316.335 43.12z" transform="translate(0 228)"/>
                <g stroke="#000">
                    <path stroke-linecap="round" d="M.335 43.12c5.984-4.322 14.952-13.792 21.282-17.292 7.556-4.178 14.862-10.006 22.612-13.966C54.427 6.652 64.817-.046 65.069 0c2.554.486 2.77 6.874-.572 11.932-2.688 4.066-6.632 5.278-11.264 9.242-2.546 2.182-9.27 9.086-9.004 10.086.178.668-.57-2.522 25.406 7.956 7.732 3.116 17.588 2.806 25.838 2.454 5.544-.236 11.1-.164 16.636.212 11.754.798 15.074 5.774 13.428 7.39-.874.86.068-.328-22.78 3.326-5.714.912-12.958 4.25-18.822 3.866-2.744-.18-25.558-1.456-28.748.226" transform="translate(0 228)"/>
                    <path d="M105 38.5L96.5 41.5" transform="translate(0 228)"/>
                    <path stroke-linecap="round" d="M102.923 52.765c-5.728 2.348-10.1 8.354-18.836 9.806-12.192 2.028-22.11 4.182-26.832 3.9-16.628-.998-23.972.694-26.272.664-2.022-.302-6.984.332-13.966-.998M30.706 67.396C21.672 71.456 13.026 81.102 0 90.676" transform="translate(0 228)"/>
                    <path stroke-linecap="round" d="M34.974 66.802c14.964-.332 24.494 5.566 27.84 4.806 12.398-2.812 16.8-5.474 25.7-9.462 6.106-2.736 7.16-4.322 12.636-8.312" transform="translate(0 228)"/>
                </g>
            </g>
        </g>
    </g>
</svg>
