<svg xmlns="http://www.w3.org/2000/svg" width="240" height="272" viewBox="0 0 240 272">
    <g fill="none" fill-rule="evenodd">
        <path d="M0 0H240V272H0z"/>
        <g>
            <path fill="#0F0F10" stroke="#0F0F10" d="M133.8 1.454c-3.583 2.553-6.4 4.852-8.446 6.9-2.373 2.372-4.392 5.088-6.058 8.146h0H20.51c-6.99 0-9.532.71-12.09 2.078-2.519 1.347-4.496 3.324-5.843 5.843C1.21 26.979.5 29.521.5 36.511h0V59.49c0 6.99.71 9.532 2.078 12.09 1.347 2.519 3.324 4.496 5.843 5.843 2.558 1.368 5.1 2.078 12.09 2.078H139.49c6.99 0 9.532-.71 12.09-2.078 2.519-1.347 4.496-3.324 5.843-5.843 1.368-2.558 2.078-5.1 2.078-12.09h0V36.51c0-6.99-.71-9.532-2.078-12.09-1.347-2.519-3.324-4.496-5.843-5.843-2.558-1.368-5.1-2.078-12.09-2.078h0-4.796c-1.464-2.833-2.193-5.667-2.193-8.5 0-2.182.432-4.364 1.3-6.546z" transform="translate(0 120)"/>
            <path fill="#F5F5F5" fill-rule="nonzero" d="M33.064 53v-5.088h5.056V53h1.424V41.736H38.12v4.8h-5.056v-4.8H31.64V53h1.424zm11.04.032c1.344 0 2.064-.48 2.48-1.616l3.68-9.68h-1.536l-2.64 6.992h-.624l-2.352-6.992h-1.568l2.832 8.368h1.2l-.208.544c-.336.912-.768 1.008-1.424 1.008h-.64v1.376h.8zM57.336 53v-5.12h1.504L61.992 53h1.664l-3.488-5.728v-.288l3.456-5.248h-1.632l-3.168 4.816h-1.488v-4.816h-1.408V53h1.408zm8.976 0l.528-2.016h4.88L72.264 53H73.8l-3.088-11.264H67.88L64.776 53h1.536zm5.04-3.392h-4.144l1.728-6.496h.688l1.728 6.496zM77.208 53v-5.12h1.504L81.864 53h1.664l-3.488-5.728v-.288l3.456-5.248h-1.632l-3.168 4.816h-1.488v-4.816H75.8V53h1.408zm16.016 0c2.288 0 3.328-1.296 3.328-3.184 0-1.552-.768-2.368-1.456-2.656v-.192c.56-.352 1.024-1.024 1.024-2.32 0-1.632-.816-2.912-2.992-2.912h-3.936V53h4.032zm-.176-6.432h-2.432v-3.456h2.336c1.328 0 1.728.576 1.728 1.68 0 1.008-.272 1.776-1.632 1.776zm.08 5.056h-2.512v-3.76h2.592c1.392 0 1.888.672 1.888 1.872 0 1.184-.56 1.888-1.968 1.888zm6.4 1.376l.528-2.016h4.88L105.48 53h1.536l-3.088-11.264h-2.832L97.992 53h1.536zm5.04-3.392h-4.144l1.728-6.496h.688l1.728 6.496zM110.424 53V42.952h.24l2.672 7.168h2.224l2.64-7.168h.24V53h1.424V41.736h-2.72l-2.592 7.072h-.224l-2.608-7.072h-2.704V53h1.408zm15.36-3.36v-.448c0-1.072.624-1.264 1.408-1.824.832-.592 1.632-1.216 1.632-2.864 0-1.664-1.152-2.944-3.264-2.944-2.096 0-3.424 1.312-3.504 2.96h1.392c.096-.944.768-1.632 2.096-1.632 1.2 0 1.84.656 1.84 1.68 0 .992-.512 1.472-1.264 2-.992.688-1.68 1.088-1.68 2.544v.528h1.344zm.192 3.36v-1.68h-1.68V53h1.68z" transform="translate(0 120)"/>
            <g>
                <path fill="#F5F5F5" stroke="#0F0F10" d="M26.2 78.546c3.583-2.553 6.4-4.852 8.446-6.9 2.373-2.372 4.392-5.088 6.058-8.146h98.785c6.99 0 9.532-.71 12.09-2.078 2.519-1.347 4.496-3.324 5.843-5.843 1.368-2.558 2.078-5.1 2.078-12.09h0V20.51c0-6.99-.71-9.532-2.078-12.09-1.347-2.519-3.324-4.496-5.843-5.843C149.021 1.21 146.479.5 139.489.5h0H20.51c-6.99 0-9.532.71-12.09 2.078-2.519 1.347-4.496 3.324-5.843 5.843C1.21 10.979.5 13.521.5 20.511h0V43.49c0 6.99.71 9.532 2.078 12.09 1.347 2.519 3.324 4.496 5.843 5.843 2.558 1.368 5.1 2.078 12.09 2.078h4.796C26.77 66.333 27.5 69.167 27.5 72c0 2.182-.432 4.364-1.3 6.546z" transform="translate(0 120) translate(80 72)"/>
                <path fill="#0F0F10" fill-rule="nonzero" d="M19.92 37v-5.088h5.056V37H26.4V25.736h-1.424v4.8H19.92v-4.8h-1.424V37h1.424zm10.784 0v-4.176h2.176c2.432 0 3.424-1.44 3.424-3.536 0-2.128-.944-3.552-3.456-3.552H29.28V37h1.424zm1.952-5.504h-1.952v-4.384h1.952c1.584 0 2.192.672 2.192 2.176s-.624 2.208-2.192 2.208zM39.216 37l.528-2.016h4.88L45.168 37h1.536l-3.088-11.264h-2.832L37.68 37h1.536zm5.04-3.392h-4.144l1.728-6.496h.688l1.728 6.496zM52.736 37c2.288 0 3.328-1.296 3.328-3.184 0-1.552-.768-2.368-1.456-2.656v-.192c.56-.352 1.024-1.024 1.024-2.32 0-1.632-.816-2.912-2.992-2.912h-3.936V37h4.032zm-.176-6.432h-2.432v-3.456h2.336c1.328 0 1.728.576 1.728 1.68 0 1.008-.272 1.776-1.632 1.776zm.08 5.056h-2.512v-3.76h2.592c1.392 0 1.888.672 1.888 1.872 0 1.184-.56 1.888-1.968 1.888zM60.288 37l4.512-9.04h.16V37h1.424V25.736H64.48l-4.512 9.04h-.16v-9.04h-1.424V37h1.904zm12.864 0v-9.888h3.344v-1.376h-8.032v1.376h3.264V37h1.424zm9.376.176c2.944 0 3.952-2.08 4.016-3.696H85.12c-.048 1.04-.656 2.32-2.608 2.32-1.936 0-2.736-1.008-2.8-2.928-.032-1.008-.032-2.016 0-3.024.064-1.904.864-2.912 2.816-2.912 1.808 0 2.384 1.024 2.56 2.304h1.424c-.16-2.016-1.36-3.68-3.984-3.68-2.8 0-4.16 1.584-4.24 4.288-.032 1.008-.032 2.016 0 3.024.08 2.704 1.44 4.304 4.24 4.304zM89.952 37l2.288-4.272h2.208V37h1.424V25.736h-3.728c-2.512 0-3.456 1.392-3.456 3.504 0 1.6.576 2.8 1.952 3.264v.224L88.352 37h1.6zm4.496-5.6h-2.112c-1.568 0-2.192-.672-2.192-2.16s.608-2.128 2.192-2.128h2.112V31.4zm4.704 8.192l1.104-4.336h-1.488l-.96 4.336h1.344zM110.464 37c2.352 0 3.36-1.376 3.36-3.504 0-2.16-.976-3.344-3.392-3.344h-2.368v-3.04h5.056v-1.376h-6.48V37h3.824zm-.08-1.376h-2.32V31.48h2.288c1.568 0 2.016.688 2.016 2.016s-.416 2.128-1.984 2.128zM122.864 37v-1.376h-5.312v-3.76h4.24v-1.296h-4.24v-3.456h5.312v-1.376h-6.736V37h6.736zm3.824 0v-4.176h2.176c2.432 0 3.424-1.44 3.424-3.536 0-2.128-.944-3.552-3.456-3.552h-3.568V37h1.424zm1.952-5.504h-1.952v-4.384h1.952c1.584 0 2.192.672 2.192 2.176s-.624 2.208-2.192 2.208zm7.584 5.536c1.344 0 2.064-.48 2.48-1.616l3.68-9.68h-1.536l-2.64 6.992h-.624l-2.352-6.992h-1.568l2.832 8.368h1.2l-.208.544c-.336.912-.768 1.008-1.424 1.008h-.64v1.376h.8z" transform="translate(0 120) translate(80 72)"/>
            </g>
        </g>
    </g>
</svg>
