<svg xmlns="http://www.w3.org/2000/svg" width="242" height="322" viewBox="0 0 242 322">
    <g fill="none" fill-rule="evenodd">
        <path fill="#F5F5F5" stroke="#0F0F10" d="M20.511-.5H219.49c7.274 0 9.904.775 12.562 2.196 2.695 1.442 4.811 3.558 6.253 6.253 1.421 2.658 2.196 5.288 2.196 12.562h0V299.49c0 7.274-.775 9.904-2.196 12.562-1.442 2.695-3.558 4.811-6.253 6.253-2.658 1.421-5.288 2.196-12.562 2.196h0H20.51c-7.274 0-9.904-.775-12.562-2.196-2.695-1.442-4.811-3.558-6.253-6.253C.275 309.393-.5 306.763-.5 299.489h0V20.51c0-7.274.775-9.904 2.196-12.562C3.138 5.254 5.254 3.138 7.95 1.696 10.607.275 13.237-.5 20.511-.5h0z" transform="translate(1 1)"/>
        <g>
            <path d="M0 0H128V80H0z" transform="translate(1 1) translate(0 208)"/>
            <path stroke="#000" stroke-linecap="round" d="M1.166 12.384c20.618 0 41.878-.71 44.284-1.33 5.632-1.452 20.004-7.92 48.292-10.032 7.172-.534 8.35 8.48 8.446 10.346.124 2.468 8.106 2.346 6.122 12.666-.56 2.91 12.258.646 8.558 14.03-.326 1.172 8.536.914 9.834 5.358 3.102 10.64-13.112 14.604-13.304 14.63-3.324.444-23.304 5.518-29.706 7.096" transform="translate(1 1) translate(0 208)"/>
            <path stroke="#000" stroke-linecap="round" d="M112.555 58.482c-.124 2.944-3.146 7.996-6.082 11.342-1.228 1.4-23.982 7.348-30.68 6.614-4.092-.448-33.478-18.06-33.668-18.164-1.33-.726-15.13-.842-41.124.222" transform="translate(1 1) translate(0 208)"/>
            <path fill="#F5F5F5" d="M35.744 58.943s-7.444 2.174-15.456 0c-.198-.052 0-48.048 0-48.048s5.23-1.886 15.456 0c.406.074 0 48.048 0 48.048" transform="translate(1 1) translate(0 208)"/>
            <path stroke="#000" d="M35.744 58.943s-7.444 2.174-15.456 0c-.198-.052 0-48.048 0-48.048s5.23-1.886 15.456 0c.406.074 0 48.048 0 48.048z" transform="translate(1 1) translate(0 208)"/>
            <path fill="#F5F5F5" d="M42.442 33.939c0 7.966-6.458 14.426-14.424 14.426-7.966 0-14.426-6.46-14.426-14.426s6.46-14.426 14.426-14.426 14.424 6.46 14.424 14.426" transform="translate(1 1) translate(0 208)"/>
            <path stroke="#000" d="M42.442 33.939c0 7.966-6.458 14.426-14.424 14.426-7.966 0-14.426-6.46-14.426-14.426s6.46-14.426 14.426-14.426 14.424 6.46 14.424 14.426z" transform="translate(1 1) translate(0 208)"/>
            <path stroke="#000" stroke-linecap="round" d="M16.367 51.23v-3.176c-8.608-7.192-8.926-20.712 0-28.172v-3.176M39.637 51.23v-3.176c8.608-7.192 8.926-20.712 0-28.172v-3.176M23.252 29.249L27.99 34.401 34.174 26.157M47.58 32.083L47.58 35.947" transform="translate(1 1) translate(0 208)"/>
        </g>
    </g>
</svg>
