<svg xmlns="http://www.w3.org/2000/svg" width="242" height="322" viewBox="0 0 242 322">
    <g fill="none" fill-rule="evenodd">
        <path fill="#F5F5F5" stroke="#0F0F10" d="M20.511-.5H219.49c7.274 0 9.904.775 12.562 2.196 2.695 1.442 4.811 3.558 6.253 6.253 1.421 2.658 2.196 5.288 2.196 12.562h0V299.49c0 7.274-.775 9.904-2.196 12.562-1.442 2.695-3.558 4.811-6.253 6.253-2.658 1.421-5.288 2.196-12.562 2.196h0H20.51c-7.274 0-9.904-.775-12.562-2.196-2.695-1.442-4.811-3.558-6.253-6.253C.275 309.393-.5 306.763-.5 299.489h0V20.51c0-7.274.775-9.904 2.196-12.562C3.138 5.254 5.254 3.138 7.95 1.696 10.607.275 13.237-.5 20.511-.5h0z" transform="translate(1 1)"/>
        <path fill="#0F0F10" fill-rule="nonzero" d="M63.224 45.336V43.96h-16v1.376h16zM69.752 49v-5.088h5.056V49h1.424V37.736h-1.424v4.8h-5.056v-4.8h-1.424V49h1.424zm10.784 0v-4.176h2.176c2.432 0 3.424-1.44 3.424-3.536 0-2.128-.944-3.552-3.456-3.552h-3.568V49h1.424zm1.952-5.504h-1.952v-4.384h1.952c1.584 0 2.192.672 2.192 2.176s-.624 2.208-2.192 2.208zM89.048 49l.528-2.016h4.88L95 49h1.536l-3.088-11.264h-2.832L87.512 49h1.536zm5.04-3.392h-4.144l1.728-6.496h.688l1.728 6.496zm8.48 3.392c2.288 0 3.328-1.296 3.328-3.184 0-1.552-.768-2.368-1.456-2.656v-.192c.56-.352 1.024-1.024 1.024-2.32 0-1.632-.816-2.912-2.992-2.912h-3.936V49h4.032zm-.176-6.432H99.96v-3.456h2.336c1.328 0 1.728.576 1.728 1.68 0 1.008-.272 1.776-1.632 1.776zm.08 5.056H99.96v-3.76h2.592c1.392 0 1.888.672 1.888 1.872 0 1.184-.56 1.888-1.968 1.888zM110.12 49l4.512-9.04h.16V49h1.424V37.736h-1.904l-4.512 9.04h-.16v-9.04h-1.424V49h1.904zm12.864 0v-9.888h3.344v-1.376h-8.032v1.376h3.264V49h1.424zm9.376.176c2.944 0 3.952-2.08 4.016-3.696h-1.424c-.048 1.04-.656 2.32-2.608 2.32-1.936 0-2.736-1.008-2.8-2.928-.032-1.008-.032-2.016 0-3.024.064-1.904.864-2.912 2.816-2.912 1.808 0 2.384 1.024 2.56 2.304h1.424c-.16-2.016-1.36-3.68-3.984-3.68-2.8 0-4.16 1.584-4.24 4.288-.032 1.008-.032 2.016 0 3.024.08 2.704 1.44 4.304 4.24 4.304zm7.424-.176l2.288-4.272h2.208V49h1.424V37.736h-3.728c-2.512 0-3.456 1.392-3.456 3.504 0 1.6.576 2.8 1.952 3.264v.224L138.184 49h1.6zm4.496-5.6h-2.112c-1.568 0-2.192-.672-2.192-2.16s.608-2.128 2.192-2.128h2.112V43.4zm4.704 8.192l1.104-4.336H148.6l-.96 4.336h1.344zM160.296 49c2.352 0 3.36-1.376 3.36-3.504 0-2.16-.976-3.344-3.392-3.344h-2.368v-3.04h5.056v-1.376h-6.48V49h3.824zm-.08-1.376h-2.32V43.48h2.288c1.568 0 2.016.688 2.016 2.016s-.416 2.128-1.984 2.128zM172.696 49v-1.376h-5.312v-3.76h4.24v-1.296h-4.24v-3.456h5.312v-1.376h-6.736V49h6.736zm3.824 0v-4.176h2.176c2.432 0 3.424-1.44 3.424-3.536 0-2.128-.944-3.552-3.456-3.552h-3.568V49h1.424zm1.952-5.504h-1.952v-4.384h1.952c1.584 0 2.192.672 2.192 2.176s-.624 2.208-2.192 2.208zm7.584 5.536c1.344 0 2.064-.48 2.48-1.616l3.68-9.68h-1.536l-2.64 6.992h-.624l-2.352-6.992h-1.568l2.832 8.368h1.2l-.208.544c-.336.912-.768 1.008-1.424 1.008h-.64v1.376h.8z" transform="translate(1 1)"/>
        <g>
            <path d="M0 0H128V80H0z" transform="translate(1 1) translate(0 208)"/>
            <path stroke="#000" stroke-linecap="round" d="M1.166 12.384c20.618 0 41.878-.71 44.284-1.33 5.632-1.452 20.004-7.92 48.292-10.032 7.172-.534 8.35 8.48 8.446 10.346.124 2.468 8.106 2.346 6.122 12.666-.56 2.91 12.258.646 8.558 14.03-.326 1.172 8.536.914 9.834 5.358 3.102 10.64-13.112 14.604-13.304 14.63-3.324.444-23.304 5.518-29.706 7.096" transform="translate(1 1) translate(0 208)"/>
            <path stroke="#000" stroke-linecap="round" d="M112.555 58.482c-.124 2.944-3.146 7.996-6.082 11.342-1.228 1.4-23.982 7.348-30.68 6.614-4.092-.448-33.478-18.06-33.668-18.164-1.33-.726-15.13-.842-41.124.222" transform="translate(1 1) translate(0 208)"/>
            <path fill="#F5F5F5" d="M35.744 58.943s-7.444 2.174-15.456 0c-.198-.052 0-48.048 0-48.048s5.23-1.886 15.456 0c.406.074 0 48.048 0 48.048" transform="translate(1 1) translate(0 208)"/>
            <path stroke="#000" d="M35.744 58.943s-7.444 2.174-15.456 0c-.198-.052 0-48.048 0-48.048s5.23-1.886 15.456 0c.406.074 0 48.048 0 48.048z" transform="translate(1 1) translate(0 208)"/>
            <path fill="#F5F5F5" d="M42.442 33.939c0 7.966-6.458 14.426-14.424 14.426-7.966 0-14.426-6.46-14.426-14.426s6.46-14.426 14.426-14.426 14.424 6.46 14.424 14.426" transform="translate(1 1) translate(0 208)"/>
            <path stroke="#000" d="M42.442 33.939c0 7.966-6.458 14.426-14.424 14.426-7.966 0-14.426-6.46-14.426-14.426s6.46-14.426 14.426-14.426 14.424 6.46 14.424 14.426z" transform="translate(1 1) translate(0 208)"/>
            <path stroke="#000" stroke-linecap="round" d="M16.367 51.23v-3.176c-8.608-7.192-8.926-20.712 0-28.172v-3.176M39.637 51.23v-3.176c8.608-7.192 8.926-20.712 0-28.172v-3.176M23.252 29.249L27.99 34.401 34.174 26.157M47.58 32.083L47.58 35.947" transform="translate(1 1) translate(0 208)"/>
        </g>
    </g>
</svg>
