<svg xmlns="http://www.w3.org/2000/svg" xmlns:xlink="http://www.w3.org/1999/xlink" width="242" height="322" viewBox="0 0 242 322">
    <defs>
        <path id="42zgwv7d6a" d="M20.511 0H219.49c7.132 0 9.718.743 12.326 2.137 2.607 1.395 4.653 3.44 6.048 6.048C239.257 10.793 240 13.38 240 20.511V299.49c0 7.132-.743 9.718-2.137 12.326-1.395 2.607-3.44 4.653-6.048 6.048-2.608 1.394-5.194 2.137-12.326 2.137H20.51c-7.132 0-9.718-.743-12.326-2.137-2.607-1.395-4.653-3.44-6.048-6.048C.743 309.207 0 306.62 0 299.489V20.51c0-7.132.743-9.718 2.137-12.326 1.395-2.607 3.44-4.653 6.048-6.048C10.793.743 13.38 0 20.511 0z"/>
    </defs>
    <g fill="none" fill-rule="evenodd" transform="translate(1 1)">
        <mask id="j1nmonc3qb" fill="#fff">
            <use xlink:href="#42zgwv7d6a"/>
        </mask>
        <path stroke="#0F0F10" d="M20.511-.5H219.49c7.274 0 9.904.775 12.562 2.196 2.695 1.442 4.811 3.558 6.253 6.253 1.421 2.658 2.196 5.288 2.196 12.562h0V299.49c0 7.274-.775 9.904-2.196 12.562-1.442 2.695-3.558 4.811-6.253 6.253-2.658 1.421-5.288 2.196-12.562 2.196h0H20.51c-7.274 0-9.904-.775-12.562-2.196-2.695-1.442-4.811-3.558-6.253-6.253C.275 309.393-.5 306.763-.5 299.489h0V20.51c0-7.274.775-9.904 2.196-12.562C3.138 5.254 5.254 3.138 7.95 1.696 10.607.275 13.237-.5 20.511-.5h0z"/>
        <g mask="url(#j1nmonc3qb)">
            <g>
                <path fill="#F5F5F5" stroke="#0F0F10" stroke-linejoin="bevel" d="M66 96L132 24 132 72 66 144zM0 72L66 96 66 144 0 120z" transform="translate(54 48)"/>
                <path fill="#0F0F10" d="M55.5 112.5L54 114l1.5 3-4.5 4.5 6-3 .02-3.657L58.5 114c2.813 5.795 1.494 12.003-3.633 11.362l-.085 3.805c5.428 1.647 5.293 4.3-.653 2.814-6.482-1.621-6.361-4.256-.95-3.212l.004-3.825c-5.534-2.088-6.797-10.311-3.01-13.944l5.327 1.5z" transform="translate(54 48)"/>
                <path fill="#F5F5F5" stroke="#0F0F10" stroke-linejoin="bevel" d="M66 0L132 24 66 96 0 72zM24 81L40.5 87 40.5 111 39 110.464 37.5 106.919 36.006 109.375 34.5 105.831 33 108.283 31.502 104.735 30.006 107.192 28.5 103.646 27.003 106.098 25.5 102.552 24 105z" transform="translate(54 48)"/>
                <path fill="#F5F5F5" stroke="#0F0F10" stroke-linejoin="bevel" d="M89.998 9L106.494 14.999 40.494 86.999 24 81.001z" transform="translate(54 48)"/>
            </g>
        </g>
        <g mask="url(#j1nmonc3qb)">
            <g>
                <path fill="#F5F5F5" d="M.335 43.12C7 39 15.287 29.328 21.617 25.828c7.556-4.178 14.862-10.006 22.612-13.966C54.427 6.652 64.817-.046 65.069 0c2.554.486 2.77 6.874-.572 11.932-2.688 4.066-6.632 5.278-11.264 9.242-2.546 2.182-9.27 9.086-9.004 10.086.178.668-.57-2.522 25.406 7.956 7.732 3.116 17.588 2.806 25.838 2.454 5.544-.236 11.1-.164 16.636.212 11.754.798 15.074 5.774 13.428 7.39-.874.86.068-.328-22.78 3.326-2.974.475-5.01 2.98-7.257 4.902-1.17 1-8.227 5.01-16.5 8.5-6.362 2.683-13.957 5.065-17 5.5-9.579-2.477-22.339-5.109-31.5-4C20 73.5 6.5 85 0 90.5 0 79 .035 60.316.335 43.12z" transform="scale(-1 1) rotate(45 -141.72 -247.298)"/>
                <path stroke="#000" stroke-linecap="round" d="M.335 43.12c5.984-4.322 14.952-13.792 21.282-17.292 7.556-4.178 14.862-10.006 22.612-13.966C54.427 6.652 64.817-.046 65.069 0c2.554.486 2.77 6.874-.572 11.932-2.688 4.066-6.632 5.278-11.264 9.242-2.546 2.182-9.27 9.086-9.004 10.086.178.668-.57-2.522 25.406 7.956 7.732 3.116 17.588 2.806 25.838 2.454 5.544-.236 11.1-.164 16.636.212 11.754.798 15.074 5.774 13.428 7.39-.874.86.068-.328-22.78 3.326-5.714.912-12.958 4.25-18.822 3.866-2.744-.18-25.558-1.456-28.748.226" transform="scale(-1 1) rotate(45 -141.72 -247.298)"/>
                <path stroke="#000" stroke-linecap="round" d="M102.923 52.765c-5.728 2.348-10.1 8.354-18.836 9.806-12.192 2.028-22.11 4.182-26.832 3.9-16.628-.998-23.972.694-26.272.664-2.022-.302-6.984.332-13.966-.998" transform="scale(-1 1) rotate(45 -141.72 -247.298)"/>
                <path stroke="#000" stroke-linecap="round" d="M34.974 66.802c14.964-.332 24.494 5.566 27.84 4.806 12.398-2.812 16.8-5.474 25.7-9.462 6.106-2.736 7.16-4.322 12.636-8.312" transform="scale(-1 1) rotate(45 -141.72 -247.298)"/>
            </g>
        </g>
    </g>
</svg>
