<svg xmlns="http://www.w3.org/2000/svg" xmlns:xlink="http://www.w3.org/1999/xlink" version="1.1" width="256" height="256" viewBox="0 0 256 256" xml:space="preserve">

<defs>
</defs>
<g style="stroke: none; stroke-width: 0; stroke-dasharray: none; stroke-linecap: butt; stroke-linejoin: miter; stroke-miterlimit: 10; fill: none; fill-rule: nonzero; opacity: 1;" transform="translate(1.4065934065934016 1.4065934065934016) scale(2.81 2.81)" >
	<path d="M 80.399 16.264 c 1.967 0 3.567 1.6 3.567 3.567 v 2.739 H 51.813 c -2.342 -0.659 -3.954 -2.769 -3.954 -5.227 c 0 -0.364 -0.019 -0.724 -0.055 -1.079 H 80.399 z" style="stroke: none; stroke-width: 1; stroke-dasharray: none; stroke-linecap: butt; stroke-linejoin: miter; stroke-miterlimit: 10; fill: #fff; fill-rule: nonzero; opacity: 1;" transform=" matrix(1 0 0 1 0 0) " stroke-linecap="round" />
	<path d="M 85.665 28.195 h -34.2 c -0.21 0 -0.419 -0.024 -0.624 -0.07 c -5.067 -1.152 -8.606 -5.586 -8.606 -10.782 c 0 -2.765 -2.249 -5.015 -5.015 -5.015 H 5.015 C 2.25 12.328 0 14.578 0 17.343 v 57.09 c 0 1.786 1.453 3.239 3.239 3.239 h 83.522 c 1.786 0 3.239 -1.452 3.239 -3.239 V 32.529 C 90 30.139 88.055 28.195 85.665 28.195 z M 55.358 55.291 l -8.588 8.588 c -0.117 0.117 -0.246 0.222 -0.385 0.315 c -0.057 0.038 -0.119 0.064 -0.179 0.097 c -0.083 0.046 -0.163 0.096 -0.251 0.132 c -0.08 0.033 -0.164 0.052 -0.246 0.076 c -0.073 0.022 -0.144 0.05 -0.22 0.065 c -0.161 0.032 -0.325 0.049 -0.489 0.049 c -0.164 0 -0.328 -0.017 -0.489 -0.049 c -0.075 -0.015 -0.144 -0.043 -0.217 -0.064 c -0.084 -0.025 -0.169 -0.044 -0.25 -0.078 c -0.086 -0.035 -0.163 -0.084 -0.244 -0.128 c -0.062 -0.034 -0.127 -0.061 -0.186 -0.101 c -0.138 -0.092 -0.267 -0.197 -0.384 -0.314 l -8.589 -8.588 c -0.977 -0.976 -0.977 -2.559 0 -3.535 c 0.976 -0.977 2.56 -0.977 3.535 0 l 4.324 4.323 V 41.408 c 0 -1.381 1.119 -2.5 2.5 -2.5 s 2.5 1.119 2.5 2.5 v 14.671 l 4.323 -4.323 c 0.977 -0.977 2.559 -0.977 3.535 0 S 56.335 54.314 55.358 55.291 z" style="stroke: none; stroke-width: 1; stroke-dasharray: none; stroke-linecap: butt; stroke-linejoin: miter; stroke-miterlimit: 10; fill: #fff; fill-rule: nonzero; opacity: 1;" transform=" matrix(1 0 0 1 0 0) " stroke-linecap="round" />
</g>
</svg>