<svg xmlns="http://www.w3.org/2000/svg" xmlns:xlink="http://www.w3.org/1999/xlink" width="186.5" height="191.646" xmlns:v="https://vecta.io/nano"><defs><path d="M20.511 0h198.978c7.132 0 9.718.743 12.326 2.137s4.654 3.441 6.048 6.048S240 13.379 240 20.511v278.978c0 7.132-.743 9.718-2.137 12.326s-3.441 4.654-6.048 6.048S226.621 320 219.489 320H20.511c-7.132 0-9.718-.743-12.326-2.137s-4.654-3.441-6.048-6.048S0 306.621 0 299.489V20.511c0-7.132.743-9.718 2.137-12.326s3.441-4.654 6.048-6.048S13.379 0 20.511 0z" id="A"/></defs><g transform="translate(0 -127.53)" fill="none" fill-rule="evenodd"><mask id="B" fill="#fff"><use xlink:href="#A"/></mask><g mask="url(#B)"><g transform="translate(54 128)"><path stroke="#0f0f10" fill="#101010" stroke-linejoin="bevel" d="M66 96L0 72 66 0l66 24z"/><g transform="translate(41 44)"><g stroke="#0f0f10"><g fill="#fff"><path d="M14 56h17.5c7.732 0 14-12.536 14-28s-6.268-28-14-28H14"/><ellipse cx="14" cy="28" rx="14" ry="28"/></g><path d="M22.74 49.438c3.207-5.131 5.261-12.586 5.261-21.438 0-8.858-2.057-16.318-5.267-21.449-2.574 4.61-5.276 12.655-5.233 21.449.041 8.336 2.69 16.541 5.239 21.438z" fill="#101010" transform="matrix(-1 0 0 1 45.50051 0)"/><g fill="#fff"><path d="M44.199 39.856a13.99 13.99 0 0 0-.024-23.727"/><path d="M22.762 39.856a13.99 13.99 0 0 0-.024-23.727" transform="matrix(-1 0 0 1 52.050186 0)"/><circle cx="36.75" cy="28" r="10.5"/></g></g><path stroke="#000" stroke-linecap="round" transform="rotate(20 36.635 24.997)" d="M33 26.532l5.066 2.462L40.27 21"/></g><g stroke="#0f0f10" stroke-linejoin="bevel" fill="#fff"><path d="M132 72l-66 72V96l66-72z"/><path d="M66 144L0 120V72l66 24z"/></g><path d="M55.5 112.5L54 114l1.5 3-4.5 4.5 6-3 .019-3.657L58.5 114c2.813 5.795 1.494 12.003-3.633 11.362l-.085 3.805c5.428 1.647 5.293 4.3-.653 2.814-6.483-1.621-6.362-4.255-.951-3.212l.004-3.825c-5.534-2.088-6.797-10.311-3.009-13.944z" fill="#0f0f10"/></g></g><g mask="url(#B)"><g transform="translate(0 228)"><path d="M.335 43.12C7 39 15.287 29.328 21.617 25.828c7.556-4.178 14.862-10.006 22.612-13.966C54.427 6.652 64.817-.046 65.069 0c2.554.486 2.77 6.874-.572 11.932-2.688 4.066-6.632 5.278-11.264 9.242-2.546 2.182-9.27 9.086-9.004 10.086.178.668-.57-2.522 25.406 7.956 7.732 3.116 17.588 2.806 25.838 2.454 5.544-.236 11.1-.164 16.636.212 11.754.798 15.074 5.774 13.428 7.39-.874.86.068-.328-22.78 3.326-2.974.475-5.01 2.98-7.257 4.902-1.17 1.001-8.227 5.01-16.5 8.5-6.362 2.683-13.957 5.065-17 5.5-9.579-2.477-22.339-5.109-31.5-4C20 73.5 6.5 85 0 90.5l.335-47.38z" fill="#fff"/><g stroke="#000"><path d="M.335 43.12c5.984-4.322 14.952-13.792 21.282-17.292 7.556-4.178 14.862-10.006 22.612-13.966C54.427 6.652 64.817-.046 65.069 0c2.554.486 2.77 6.874-.572 11.932-2.688 4.066-6.632 5.278-11.264 9.242-2.546 2.182-9.27 9.086-9.004 10.086.178.668-.57-2.522 25.406 7.956 7.732 3.116 17.588 2.806 25.838 2.454 5.544-.236 11.1-.164 16.636.212 11.754.798 15.074 5.774 13.428 7.39-.874.86.068-.328-22.78 3.326-5.714.912-12.958 4.25-18.822 3.866-2.744-.18-25.558-1.456-28.748.226" stroke-linecap="round"/><path d="M105 38.5l-8.5 3"/><g stroke-linecap="round"><path d="M102.923 52.765c-5.728 2.348-10.1 8.354-18.836 9.806-12.192 2.028-22.11 4.182-26.832 3.9-16.628-.998-23.972.694-26.272.664-2.022-.302-6.984.332-13.966-.998m13.689 1.259C21.672 71.456 13.026 81.102 0 90.676m34.974-23.874c14.964-.332 24.494 5.566 27.84 4.806 12.398-2.812 16.8-5.474 25.7-9.462 6.106-2.736 7.16-4.322 12.636-8.312"/></g></g></g></g></g></svg>