<svg xmlns="http://www.w3.org/2000/svg" width="1320" height="582" viewBox="0 0 1320 582">
    <g fill="none" fill-rule="evenodd" stroke-linecap="round">
        <g stroke="#000">
            <path d="M769.703 215.203c53.9-10.115 159.216-123.901 230.873-121.843 73.087 2.098 127.694-9.354 210.135-18.734"/>
            <path d="M211.057 323.441c38.91 4.937 73.286 9.112 103.744 12.557 241.295 27.286 236.9 8.68 295.725-40.615 77.73-65.132 119.198-105.64 173.8-188.64 5.572-8.474 10.172-17.912 18.154-24.156C806.045 79.794 960.214 5.346 970.914.598c7.5 7.73 3.955 28.26-34.15 59.141-21.57 17.475-44.959 32.728-69.558 45.312-36.078 18.471-52.609 57.356-66.068 93.788M1312.927 63.487c3.181.684 3.755-13.75-8.833-11.787-26.334 4.102-47.015 13.396-73.013 19.085-56.927 12.45-209.445 38.216-230.138 48.308-61.545 30.018-182.529 123.51-196.738 121.244M.5 562.134c361.042 7.83 449.02-8.243 552.534 5.108 33.45 4.32 66.643 11.1 100.322 12.86 133.076 6.932 213.389-21.617 406.544-37.735 6.144-.513 82.865-4.83 81.991-8.847-4.202-19.145-51.2-67.942-169.435-55.293-26.226 2.804-150.94 18.511-151.935-48.393"/>
            <path d="M808.659 441.276c3.53-11.721 14.447-19.353 20.447-23.317 79.678-52.667 138.06-132.311 221.993-178.384 73.23-40.203 157.178-69.06 224.648-119.853 55.389-41.711 48.05-62.543 31.62-56.06-91.672 36.168-183.662 66.232-275.937 101.315-42.9 16.31-169.503 120.096-185.98 106.857"/>
        </g>
        <path stroke="#F5F5F5" stroke-width="2" d="M439 561.743c36.707-.183 66.413.542 96 3.452M439 347.362c45.707 2.535 74.829 1.123 96-3.807"/>
    </g>
</svg>
