<svg xmlns="http://www.w3.org/2000/svg" width="1340" height="468" viewBox="0 0 1340 468">
    <g fill="none" fill-rule="evenodd" stroke-linecap="round">
        <g stroke="#000">
            <path d="M0 18c252 16.667 426.5 28.167 523.5 34.5C669 62 818.438 65.897 833.302 62.07c34.795-8.964 123.585-48.892 298.35-61.93 44.308-3.296 51.586 52.349 52.179 63.868.766 15.235 50.079 14.482 37.822 78.19-3.46 17.963 75.73 3.987 52.871 86.608-2.014 7.235 52.736 5.643 60.755 33.076 19.164 65.682-81.006 90.153-82.193 90.313-20.535 2.741-143.972 34.064-183.524 43.805" transform="translate(1 1)"/>
            <path d="M1248.715 354.747c-.766 18.177-19.431 49.37-37.565 70.03-7.585 8.644-148.122 45.37-189.491 40.837-25.274-2.766-206.773-111.509-207.947-112.151-8.214-4.483-49.782-16.296-253.997 1.37C423.572 366.612 237 380.334 0 396" transform="translate(1 1)"/>
        </g>
        <path stroke="#F5F5F5" stroke-width="2" d="M710 61.743c40.138 1.336 73.84 1.947 96.009 1.757M806 350.725c-11.875-3.016-38.148-6.313-95.999-5" transform="translate(1 1)"/>
    </g>
</svg>
