<svg xmlns="http://www.w3.org/2000/svg" width="177" height="216" viewBox="0 0 177 216">
    <g fill="none" fill-rule="evenodd">
        <g>
            <g>
                <path fill="#0F0F10" stroke="#100F10" d="M16 23H160V215H16z" transform="translate(-631 -5202) translate(632 5202)"/>
                <path fill="#F5F5F5" fill-rule="nonzero" d="M39.472 60.352c5.952 0 8.064-3.744 8.064-8.896 0-.896 0-1.824-.032-2.72h-8.352v2.592h5.6v.064c0 3.936-1.248 6.24-5.216 6.24s-5.568-2.048-5.696-5.888c-.064-2.016-.064-4.032 0-6.048.128-3.808 1.728-5.824 5.696-5.824 3.424 0 4.576 1.792 4.992 4.416h2.848c-.384-3.936-2.656-7.168-7.84-7.168-5.664 0-8.384 3.168-8.544 8.576-.064 2.016-.064 4.032 0 6.048.16 5.408 2.88 8.608 8.48 8.608zM66.352 60v-2.752H55.728v-7.52h8.48v-2.592h-8.48v-6.912h10.624v-2.752H52.88V60h13.472zm7.616 0V42.048h.32L83.856 60H87.6V37.472h-2.816v17.952h-.32L74.96 37.472h-3.808V60h2.816zm27.488-24.736l-3.04-4.928H95.44l3.232 4.928h2.784zM106.832 60v-2.752H96.208v-7.52h8.48v-2.592h-8.48v-6.912h10.624v-2.752H93.36V60h13.472zm14.912 0l6.176-22.528h-3.072l-5.28 19.776h-1.376l-5.248-19.776h-3.072L116.08 60h5.664zm23.648 0v-2.752h-10.624v-7.52h8.48v-2.592h-8.48v-6.912h10.624v-2.752H131.92V60h13.472z" transform="translate(-631 -5202) translate(632 5202)"/>
                <path fill="#F5F5F5" stroke="#0F0F10" d="M155.908 28.174c-2.666-2.72-6.636-4.111-11.908-4.175 5.272-.062 9.242-1.453 11.908-4.173 2.666-2.72 4.03-9.33 4.091-19.826.062 10.496 1.427 17.107 4.093 19.826 2.666 2.72 6.634 4.111 11.908 4.173-5.274.064-9.242 1.455-11.908 4.175-2.666 2.72-4.03 9.327-4.093 19.826-.06-10.499-1.425-17.107-4.09-19.826zM11.908 179.174c-2.666-2.72-6.636-4.111-11.908-4.175 5.272-.062 9.242-1.453 11.908-4.173 2.666-2.72 4.03-9.33 4.091-19.826.062 10.496 1.427 17.107 4.093 19.826 2.666 2.72 6.634 4.111 11.908 4.173-5.274.064-9.242 1.455-11.908 4.175-2.666 2.72-4.03 9.327-4.093 19.826-.06-10.499-1.425-17.107-4.09-19.826z" transform="translate(-631 -5202) translate(632 5202)"/>
                <path fill="#F5F5F5" stroke="#F5F5F5" d="M133.954 189.087c-1.333-1.36-3.318-2.056-5.954-2.088 2.636-.03 4.621-.726 5.954-2.086 1.333-1.36 2.015-4.665 2.045-9.913.032 5.248.714 8.553 2.047 9.913 1.333 1.36 3.317 2.056 5.954 2.086-2.637.032-4.621.728-5.954 2.088-1.333 1.36-2.015 4.664-2.047 9.913-.03-5.25-.712-8.553-2.045-9.913zM42.977 162.043c-.666-.68-1.659-1.027-2.977-1.043 1.318-.016 2.31-.364 2.977-1.043.667-.68 1.008-2.333 1.023-4.957.015 2.624.356 4.277 1.023 4.957.666.68 1.658 1.027 2.977 1.043-1.319.016-2.31.364-2.977 1.043-.667.68-1.008 2.332-1.023 4.957-.015-2.625-.356-4.277-1.023-4.957z" transform="translate(-631 -5202) translate(632 5202)"/>
            </g>
        </g>
    </g>
</svg>
