<svg xmlns="http://www.w3.org/2000/svg" width="32" height="32" viewBox="0 0 32 32">
    <g fill="none" fill-rule="evenodd">
        <path class="ii-block" stroke="#0F0F10" d="M5.128.5h21.744c1.642 0 2.244.153 2.846.475.563.301 1.006.744 1.307 1.307.322.602.475 1.204.475 2.846h0v21.744c0 1.642-.153 2.244-.475 2.846-.301.563-.744 1.006-1.307 1.307-.602.322-1.204.475-2.846.475h0H5.128c-1.642 0-2.244-.153-2.846-.475-.563-.301-1.006-.744-1.307-1.307C.653 29.116.5 28.514.5 26.872h0V5.128c0-1.642.153-2.244.475-2.846.301-.563.744-1.006 1.307-1.307C2.884.653 3.486.5 5.128.5h0z"/>
        <path class="ii-content" fill="#0F0F10" fill-rule="nonzero" d="M4.678 20v-3.192h.996c1.428 0 2.004-1.08 2.004-2.616 0-1.572-.54-2.64-2.016-2.64H3.766V20h.912zm.744-4.092h-.744V12.44h.744c.792 0 1.32.252 1.32 1.752s-.552 1.716-1.32 1.716zM9.982 20v-7.428h.12l1.308 5.268h1.212l1.296-5.268h.108V20h.9v-8.448H13.33l-1.272 5.208h-.096l-1.272-5.208H9.082V20h.9zm7.716 0v-7.428h.12l1.308 5.268h1.212l1.296-5.268h.108V20h.9v-8.448h-1.596l-1.272 5.208h-.096l-1.272-5.208h-1.608V20h.9zm7.152 0l.3-1.56h2.46l.3 1.56h.96l-1.644-8.448h-1.692L23.878 20h.972zm2.592-2.472h-2.136l.9-5.064h.336l.9 5.064z"/>
    </g>
</svg>
