<svg xmlns="http://www.w3.org/2000/svg" width="32" height="32" viewBox="0 0 32 32">
    <g fill="none" fill-rule="evenodd" stroke="#0F0F10">
        <path class="ii-block" d="M5.128.5h21.744c1.642 0 2.244.153 2.846.475.563.301 1.006.744 1.307 1.307.322.602.475 1.204.475 2.846h0v21.744c0 1.642-.153 2.244-.475 2.846-.301.563-.744 1.006-1.307 1.307-.602.322-1.204.475-2.846.475h0H5.128c-1.642 0-2.244-.153-2.846-.475-.563-.301-1.006-.744-1.307-1.307C.653 29.116.5 28.514.5 26.872h0V5.128c0-1.642.153-2.244.475-2.846.301-.563.744-1.006 1.307-1.307C2.884.653 3.486.5 5.128.5h0z"/>
        <path class="ii-line" d="M11 25.333L18.5 25.333 20.5 22 23 28 25 25.333 28 25.333"/>
        <path class="ii-content" d="M23.999 9.033c-.085 4.296-5.5 8.098-10.05 10.967-4.504-2.91-10.017-6.811-9.948-11.155.08-5.066 6.08-6.477 10.106-2.694L15.4 7.516l-1.147-1.32c4.7-4.554 9.826-1.242 9.745 2.837z"/>
    </g>
</svg>
