<svg xmlns="http://www.w3.org/2000/svg" width="130" height="323" viewBox="0 0 130 323">
    <g fill="none" fill-rule="evenodd">
        <g>
            <g>
                <g stroke="#000" stroke-linecap="round">
                    <path d="M20.62 76.992c1.988-7.195-5.686-26.861-1.137-35.502 4.64-8.813 6.507-16.174 10.297-26.816" transform="translate(-655 -4784) translate(656 4785) matrix(-1 0 0 1 97 128)"/>
                    <path d="M.574 152.396c2.937-4.489 5.51-8.466 7.757-12.005 17.806-28.038 15.258-28.614 12.727-38.805C17.715 88.12 15.223 80.59 8.3 68.896c-.707-1.193-1.59-2.325-1.88-3.681-.129-.606-.037-24.032.02-25.632 1.4-.46 3.708 1.208 5.219 7.747.854 3.701 1.326 7.492 1.398 11.272.108 5.545 3.893 9.91 7.562 13.751M34.536 1.444c.276-.35-1.472-1.285-1.988.379-1.08 3.48-1.178 6.578-2.042 10.112-1.892 7.74-7.898 28.018-7.898 31.165 0 9.358 4.26 29.821 3.124 31.43M17.322 192.552c22.563-43.878 25.855-55.647 33.687-67.562 2.531-3.85 5.35-7.52 7.58-11.552 8.813-15.93 10.116-27.505 19.696-52.196.305-.785 4.366-10.467 3.82-10.6-2.6-.632-11.398 2.218-16.92 17.498-1.226 3.39-6.761 19.65-15.028 15.763" transform="translate(-655 -4784) translate(656 4785) matrix(-1 0 0 1 97 128)"/>
                    <path fill="#F5F5F5" d="M51.009 85.986c-1.23-1.136-1.515-2.935-1.643-3.91-1.7-12.945-7.999-24.89-8.63-37.964-.553-11.406.935-23.45-1.267-34.783C37.66.024 34.655-.322 34.467 2.085c-1.053 13.43-2.875 26.534-4.096 39.974-.568 6.248 4.607 28.022 1.988 29.253" transform="translate(-655 -4784) translate(656 4785) matrix(-1 0 0 1 97 128)"/>
                </g>
                <g stroke="#100F10" transform="translate(-655 -4784) translate(656 4785)">
                    <circle cx="64" cy="64" r="64" fill="#F5F5F5"/>
                    <ellipse cx="64" cy="64" fill="#F5F5F5" rx="32" ry="64"/>
                    <ellipse cx="64" cy="64" rx="56" ry="64"/>
                    <path fill="#F5F5F5" d="M0 64L128 64M9.333 32L118.667 32M9.333 96L118.667 96M64 0L64 128"/>
                </g>
            </g>
        </g>
    </g>
</svg>
