<svg xmlns="http://www.w3.org/2000/svg" width="67" height="16" viewBox="0 0 67 16">
    <g fill="none" fill-rule="evenodd">
        <g fill="#0F0F10" fill-rule="nonzero">
            <g>
                <path d="M14.296 15.402L10.69 8.558c.749-.226 1.436-.522 2.054-.886.619-.367 1.155-.787 1.608-1.254.45-.467.804-.962 1.055-1.488.25-.529.381-1.065.395-1.607.01-.46-.062-.89-.21-1.282-.15-.392-.37-.728-.66-1.013-.291-.282-.642-.495-1.054-.633-.412-.14-.88-.189-1.395-.144-.378.034-.708.107-.986.213-.275.11-.508.234-.694.374-.19.145-.333.286-.436.426-.107.141-.176.265-.21.368-.03.107-.034.175-.003.206.092.09.199.258.32.505.123.251.226.55.312.9.086.347.12.712.103 1.093-.017.378-.117.746-.302 1.093-.186.35-.488.649-.907.903L7.535.87c0-.006-.01-.027-.035-.062C7.48.77 7.442.75 7.39.746H2.175c-.055 0-.09.013-.106.038-.018.023-.025.044-.021.068 0 .024.003.035.003.038l3.34 6.659c-.735.212-1.419.501-2.051.858-.632.361-1.189.77-1.67 1.227-.481.46-.862.952-1.144 1.467-.282.519-.44 1.044-.474 1.58-.024.457.034.883.171 1.278.138.396.34.743.612 1.042.271.298.594.532.969.7.374.169.787.255 1.237.258.381-.003.725-.065 1.034-.179.31-.113.58-.257.81-.433.234-.175.427-.357.578-.542.148-.186.254-.35.316-.499.062-.147.075-.247.045-.305-.083-.086-.179-.234-.289-.444-.11-.21-.202-.46-.275-.752-.075-.292-.103-.605-.082-.935.017-.333.117-.663.292-.992.175-.327.457-.632.848-.918l2.227 5.442c0 .004.007.02.024.052.017.03.048.048.1.052h5.565c.059-.004.083-.021.08-.052-.008-.031-.011-.048-.018-.052zm13.255-4.205c.027-.206.062-.47.11-.787.045-.32.096-.666.151-1.048.055-.38.114-.773.175-1.171l.172-1.155c.055-.37.107-.7.151-.996.045-.295.083-.529.107-.7l.041-.265c-.003-.041-.014-.07-.03-.083-.018-.014-.028-.02-.032-.02h-4.123c-.003 0-.024.006-.062.024-.034.017-.054.048-.061.1l-.055.384c-.047.346-.09.692-.13 1.038-.166-.388-.379-.729-.636-1.02-.26-.293-.579-.527-.935-.688-.36-.165-.78-.247-1.254-.25-.54.003-1.041.096-1.505.284-.464.186-.883.447-1.257.78-.378.337-.708.729-.99 1.175-.288.458-.52.948-.694 1.46-.182.526-.306 1.072-.378 1.64-.069.554-.082 1.115-.037 1.673.048.556.15 1.085.312 1.587.165.502.385.952.667 1.343.282.392.622.701 1.02.924.399.227.859.344 1.378.348.472-.002.939-.107 1.367-.306.43-.2.828-.474 1.196-.825.364-.347.694-.749.983-1.199.03.491.154.91.37 1.261.22.35.512.618.88.804.364.189.787.282 1.264.285.293-.003.584-.05.863-.137.277-.085.543-.201.793-.347.244-.145.454-.303.63-.475.174-.168.298-.336.373-.505.042-.089.045-.154.004-.199-.038-.041-.1-.086-.186-.134-.085-.044-.178-.117-.274-.213-.1-.096-.19-.244-.268-.443-.08-.196-.13-.467-.155-.814-.027-.344-.007-.787.055-1.33zm-5.793 1.732c-.25-.004-.463-.076-.639-.217-.175-.144-.309-.34-.405-.594-.1-.254-.161-.55-.186-.886-.023-.334-.013-.698.035-1.086.048-.388.123-.753.23-1.09.106-.34.237-.635.399-.893.161-.254.343-.456.553-.6.21-.145.44-.217.694-.22.25.003.467.075.642.22.176.144.313.346.416.6.1.258.161.554.189.894.024.336.017.7-.031 1.089-.048.388-.124.752-.234 1.086-.106.336-.244.632-.405.886-.161.254-.35.45-.56.594-.213.141-.443.213-.698.217zm19.935-7.69c0-.03-.01-.05-.025-.065-.013-.01-.027-.017-.037-.017h.02c-1.6-.326-3.144-.488-4.62-.48-1.481.01-2.928.167-4.347.48-.014 0-.027.007-.048.02-.02.014-.03.042-.034.083l-.031.255c-.02.164-.052.384-.093.666-.041.278-.09.59-.151.938-.06.36-.126.718-.2 1.075-.072.359-.155.715-.247 1.069-.09.343-.185.653-.288.924-.238.59-.471 1.079-.708 1.467-.234.388-.457.7-.667.935-.21.237-.398.422-.563.553l-.395.32c-.097.078-.152.154-.162.23-.013.089 0 .223.038.401.041.179.113.371.216.584.107.21.251.413.437.609.185.192.416.353.69.477.279.127.608.193.99.196.557.003 1.055-.12 1.498-.371.44-.247.824-.632 1.147-1.158.327-.522.591-1.195.797-2.017.207-.817.371-1.673.495-2.573.124-.897.206-1.828.247-2.786h1.67c-.055.44-.11.914-.175 1.422l-.192 1.567-.193 1.577c-.065.519-.127 1.003-.182 1.456l-.148 1.206c-.044.347-.079.619-.103.818l-.037.302c.003.048.017.08.04.09.025.01.038.017.042.014h3.978c.004.003.018-.004.042-.014.024-.01.038-.042.041-.09l.041-.333c.028-.216.062-.515.11-.893.048-.381.1-.814.162-1.302.058-.492.123-1.007.192-1.553.065-.546.134-1.096.203-1.65.069-.55.134-1.082.195-1.587l.172-1.37c.048-.41.09-.742.124-1 .031-.261.052-.416.059-.474zm5.421 2.289l.103-.412c1.2-.138 2.206-.368 3.027-.688.821-.32 1.47-.697 1.951-1.13.481-.433.815-.89 1-1.37.186-.478.24-.949.168-1.406-.072-.46-.25-.873-.539-1.244-.288-.367-.663-.66-1.127-.872-.464-.21-.996-.313-1.594-.3-.804.028-1.546.196-2.23.516-.68.316-1.298.742-1.855 1.282-.553.539-1.04 1.157-1.464 1.851-.427.702-.784 1.444-1.064 2.217-.286.77-.504 1.565-.65 2.373-.144.804-.22 1.58-.22 2.337 0 .714.107 1.388.313 2.013.21.625.515 1.175.92 1.65.41.477.911.851 1.505 1.12.598.27 1.285.408 2.065.412.643-.004 1.254-.09 1.831-.261.581-.176 1.11-.426 1.588-.753.477-.323.886-.718 1.23-1.178.34-.457.594-.976.759-1.55.165-.574.227-1.196.179-1.865-.052-.584-.21-1.08-.474-1.488-.265-.406-.609-.732-1.02-.972-.417-.244-.877-.413-1.375-.509-.505-.093-1.02-.12-1.533-.079-.508.04-1.01.142-1.494.306zm2.247-4.72c.168 0 .292.03.368.082.075.055.12.127.137.21.017.085.02.17.01.264-.038.25-.134.488-.292.71-.158.22-.343.42-.556.602-.213.179-.423.337-.629.464-.206.13-.378.23-.515.302-.138.07-.207.107-.214.107.042-.148.1-.337.172-.563.07-.227.159-.464.258-.715.1-.251.217-.485.344-.708.127-.22.268-.402.422-.54.152-.14.316-.213.495-.216zm-.082 8.451c-.004.124-.028.278-.073.467-.044.19-.11.388-.192.598-.086.207-.193.405-.32.59-.127.186-.274.338-.446.451-.172.117-.361.179-.578.182-.247-.003-.45-.086-.597-.247-.151-.162-.265-.371-.337-.636-.072-.264-.117-.553-.134-.869-.017-.316-.014-.629.004-.945.02-.313.048-.601.082-.862s.069-.471.096-.626c.007-.003.07-.02.193-.051.12-.03.275-.055.457-.076.182-.024.364-.02.546.004.343.062.611.182.807.357.2.179.337.406.413.687.075.279.103.605.078.976zm16.058-.062c.027-.206.062-.47.11-.787l.15-1.048c.056-.38.114-.773.176-1.171l.172-1.155c.055-.37.107-.7.151-.996.045-.295.083-.529.107-.7l.04-.265c-.002-.041-.013-.07-.03-.083-.017-.014-.027-.02-.03-.02h-4.124c-.003 0-.024.006-.062.024-.034.017-.055.048-.062.1 0 .003-.02.133-.054.384-.047.346-.09.692-.131 1.038-.165-.388-.378-.729-.636-1.02-.26-.293-.578-.527-.934-.688-.36-.165-.78-.247-1.254-.25-.54.003-1.041.096-1.505.284-.464.186-.883.447-1.257.78-.378.337-.708.729-.99 1.175-.288.458-.52.948-.694 1.46-.182.526-.306 1.072-.378 1.64-.07.554-.082 1.115-.038 1.673.048.556.152 1.085.313 1.587.165.502.385.952.666 1.343.282.392.623.701 1.02.924.4.227.86.344 1.379.348.472-.002.939-.107 1.367-.306.43-.2.828-.474 1.196-.825.364-.347.693-.749.982-1.199.031.491.155.91.371 1.261.22.35.512.618.88.804.364.189.787.282 1.264.285.293-.003.583-.05.863-.137.277-.085.543-.201.793-.347.244-.145.454-.303.629-.475.175-.168.299-.336.374-.505.042-.089.045-.154.004-.199-.038-.041-.1-.086-.186-.134-.085-.044-.178-.117-.275-.213-.1-.096-.189-.244-.267-.443-.08-.196-.13-.467-.155-.814-.028-.344-.007-.787.055-1.33zm-5.793 1.732c-.25-.004-.463-.076-.639-.217-.175-.144-.309-.34-.405-.594-.1-.254-.162-.55-.186-.886-.024-.334-.013-.698.035-1.086.048-.388.123-.753.23-1.09.106-.34.237-.635.398-.893.162-.254.344-.456.554-.6.209-.145.44-.217.694-.22.25.003.467.075.642.22.175.144.313.346.416.6.1.258.161.554.189.894.024.336.017.7-.031 1.089-.048.388-.124.752-.234 1.086-.106.336-.244.632-.405.886-.162.254-.35.45-.56.594-.213.141-.444.213-.698.217" transform="translate(-674 -534) translate(674 534)"/>
            </g>
        </g>
    </g>
</svg>
