<svg xmlns="http://www.w3.org/2000/svg" width="164" height="237" viewBox="0 0 164 237">
    <g fill="none" fill-rule="evenodd">
        <g>
            <g transform="translate(-638 -7712) translate(639 7713)">
                <path stroke="#000" stroke-linecap="round" d="M157.497 52.34c-5.667 2.333-9.565-.037-11.695-7.11C129.997-12.66-13.531-33.048 1.037 95.56c7.12 62.855 52.497 92.812 76.363 108.089 10.145 6.494 28.224 29.298 46.097 31.19 17.18 1.82 30.858-7.976 35-17 2.762-6.014 4.095-13.014 4-21"/>
                <path stroke="#000" stroke-linecap="round" d="M74.497 121.34c5.5-18 45-22.5 51-42s-4.082-41.929-21.901-53.194C82.282 12.67 31.713 8.315 17.147 56.67-6.79 136.133 63.29 176.087 69.997 181.84c3.996 3.429 8.163 4.262 12.5 2.5"/>
                <path stroke="#101010" stroke-linecap="round" d="M123.497 61.34c-.333 8.333-13.333 14.833-39 19.5-38.5 7-38 38-27 60s29 14.5 39 17 15.5 17 30.5 17 19-13.5 6.5-27.5 0-14 0-23-10-9-22-7-20.5-3.5-34 11.5"/>
                <circle cx="126.997" cy="206.34" r="16" fill="#101010" stroke="#F5F5F5"/>
            </g>
        </g>
    </g>
</svg>
