<svg xmlns="http://www.w3.org/2000/svg" width="66" height="66" viewBox="0 0 66 66">
    <g fill="none" fill-rule="evenodd">
        <g>
            <g transform="translate(-75 -1224) translate(76 1225)">
                <path d="M0 0H64V64H0z"/>
                <circle cx="32" cy="32" r="32" stroke="#0F0F10"/>
                <path fill="#0F0F10" d="M33.037 16l.888.002.518.001c1.311.005 2.065.016 2.735.036l.248.008c.37.013.732.03 1.17.05 1.704.077 2.867.347 3.885.743 1.052.409 1.944.956 2.834 1.845.889.89 1.436 1.782 1.845 2.834.396 1.018.666 2.181.744 3.884.073 1.61.094 2.186.096 5.888v1.418c-.002 3.702-.023 4.279-.096 5.888-.078 1.703-.348 2.866-.744 3.884-.409 1.052-.956 1.944-1.845 2.834-.89.89-1.782 1.436-2.834 1.845-1.018.396-2.181.666-3.884.744-1.61.073-2.186.094-5.888.096H31.29c-3.702-.002-4.279-.023-5.888-.096-1.703-.078-2.866-.348-3.884-.744-1.052-.409-1.944-.956-2.834-1.845-.89-.89-1.436-1.782-1.845-2.834-.396-1.018-.666-2.181-.744-3.884-.018-.39-.032-.72-.044-1.048l-.009-.246c-.023-.703-.035-1.467-.04-2.86l-.001-.518-.002-.888v-2.074l.002-.888.001-.518c.009-2.212.033-2.837.093-4.154.078-1.703.348-2.866.744-3.884.409-1.052.956-1.944 1.845-2.834.89-.889 1.782-1.436 2.834-1.845 1.018-.396 2.181-.666 3.884-.744 1.317-.06 1.942-.084 4.154-.093l.518-.001.888-.002zm-1.005 7.81c-4.541 0-8.222 3.68-8.222 8.222 0 4.54 3.68 8.222 8.222 8.222 4.54 0 8.222-3.681 8.222-8.222 0-4.541-3.681-8.222-8.222-8.222zm0 2.884c2.947 0 5.337 2.39 5.337 5.338 0 2.947-2.39 5.337-5.337 5.337-2.948 0-5.338-2.39-5.338-5.337 0-2.948 2.39-5.338 5.338-5.338zm8.476-5.17c-1.052 0-1.905.853-1.905 1.905s.853 1.904 1.905 1.904 1.905-.852 1.905-1.904-.853-1.905-1.905-1.905z"/>
            </g>
        </g>
    </g>
</svg>
