<svg xmlns="http://www.w3.org/2000/svg" width="240" height="512" viewBox="0 0 240 512">
    <g fill="none" fill-rule="evenodd">
        <path d="M0 0H240V512H0z"/>
        <g>
            <path stroke="#000" stroke-linecap="round" d="M45.288 70.56l.126.472" transform="translate(18 144)"/>
            <path stroke="#000" stroke-dasharray="1.011 2.022" stroke-linecap="round" d="M45.946 72.934c11.304 38.942 47.844 78.306 57.185 83.83" transform="translate(18 144)"/>
            <path stroke="#000" stroke-linecap="round" d="M104.008 157.217c.167.071.32.124.458.158M161.367 71.047l-.126.472" transform="translate(18 144)"/>
            <path stroke="#000" stroke-dasharray="1 2" stroke-linecap="round" d="M160.716 73.402c-11.257 38.929-46.779 77.839-56.01 83.312" transform="translate(18 144)"/>
            <path stroke="#000" stroke-linecap="round" d="M103.84 157.163c-.168.07-.32.123-.458.158M70.123 4.066c2.72 37.718-.29 41.878-3.04 46.796-7.543 13.492-34.98 25.859-39.776 27.57C16.711 82.218 12.262 81.203.49 81.8" transform="translate(18 144)"/>
            <path fill="#F5F5F5" d="M118.9 184.844c0 8.24-6.681 14.922-14.922 14.922-8.24 0-14.92-6.681-14.92-14.922 0-8.24 6.68-14.92 14.92-14.92 8.241 0 14.922 6.68 14.922 14.92" transform="translate(18 144)"/>
            <path stroke="#000" stroke-linecap="round" d="M118.9 184.844c0 8.24-6.681 14.922-14.922 14.922-8.24 0-14.92-6.681-14.92-14.922 0-8.24 6.68-14.92 14.92-14.92 8.241 0 14.922 6.68 14.922 14.92z" transform="translate(18 144)"/>
            <path fill="#FFF" d="M113.84 184.968c0 5.445-4.416 9.86-9.862 9.86-5.445 0-9.86-4.415-9.86-9.86 0-5.446 4.415-9.86 9.86-9.86 5.446 0 9.861 4.414 9.861 9.86" transform="translate(18 144)"/>
            <path stroke="#000" stroke-linecap="round" d="M113.84 184.968c0 5.445-4.416 9.86-9.862 9.86-5.445 0-9.86-4.415-9.86-9.86 0-5.446 4.415-9.86 9.86-9.86 5.446 0 9.861 4.414 9.861 9.86z" transform="translate(18 144)"/>
            <path stroke="#000" stroke-dasharray=".988 1.976" stroke-linecap="round" d="M115.513 184.968c0 6.37-5.163 11.535-11.535 11.535-6.37 0-11.535-5.165-11.535-11.535 0-6.371 5.165-11.536 11.535-11.536 6.372 0 11.535 5.165 11.535 11.536z" transform="translate(18 144)"/>
            <path stroke="#000" stroke-linecap="round" d="M109.027 188.813c0 2.788-2.26 5.048-5.048 5.048-2.79 0-5.048-2.26-5.048-5.048 0-2.79 2.259-5.049 5.048-5.049 2.787 0 5.048 2.26 5.048 5.049z" transform="translate(18 144)"/>
            <path stroke="#000" stroke-dasharray=".992 1.983" stroke-linecap="round" d="M107.224 188.813c0 1.792-1.453 3.244-3.245 3.244s-3.245-1.452-3.245-3.244c0-1.793 1.453-3.245 3.245-3.245s3.245 1.452 3.245 3.245z" transform="translate(18 144)"/>
            <g>
                <path fill="#F5F5F5" d="M2.587 15.111H.895c.46-3.214.437-6.49-.07-9.697L.056.534h2.632" transform="translate(18 144) translate(101.511 154.89)"/>
                <path stroke="#000" stroke-linecap="round" d="M2.587 15.111H.895c.46-3.214.437-6.49-.07-9.697L.056.534h2.632" transform="translate(18 144) translate(101.511 154.89)"/>
            </g>
            <g>
                <path fill="#F5F5F5" d="M.392 15.111h1.692c-.46-3.214-.436-6.49.07-9.697l.77-4.88H.294" transform="translate(18 144) translate(103.467 154.89)"/>
                <path stroke="#000" stroke-linecap="round" d="M.392 15.111h1.692c-.46-3.214-.436-6.49.07-9.697l.77-4.88H.294" transform="translate(18 144) translate(103.467 154.89)"/>
            </g>
            <path stroke="#000" stroke-linecap="round" d="M101.972 242.402C40.41 153.527 27.167 184.742.612 81.778M133.968 4.066c-2.72 37.718.29 41.878 3.04 46.796 7.543 13.492 34.98 25.859 39.776 27.57 10.596 3.785 15.046 2.77 26.817 3.367M102.118 242.402c61.562-88.875 74.805-57.66 101.36-160.624M67.29.923c35.116 41.62 70.016-.433 70.016-.433" transform="translate(18 144)"/>
        </g>
    </g>
</svg>
