<svg xmlns="http://www.w3.org/2000/svg" width="240" height="512" viewBox="0 0 240 512">
    <g fill="none" fill-rule="evenodd">
        <path d="M0 0H240V512H0z"/>
        <g>
            <path stroke="#000" stroke-linecap="round" d="M38.608 145.3c3.78-13.678-10.808-51.065-2.16-67.49 8.822-16.755 12.37-30.748 19.575-50.979" transform="translate(42 83)"/>
            <path stroke="#000" stroke-linecap="round" d="M.5 288.647c5.584-8.534 10.474-16.095 14.747-22.823 33.851-53.302 29.006-54.396 24.195-73.77-6.356-25.6-11.092-39.914-24.254-62.144-1.344-2.269-3.024-4.42-3.573-6.999-.246-1.152-.072-45.685.038-48.728 2.66-.872 7.05 2.298 9.92 14.728 1.624 7.036 2.522 14.243 2.66 21.43.203 10.54 7.4 18.84 14.374 26.14M65.065 1.68c.525-.665-2.8-2.443-3.78.72-2.053 6.617-2.24 12.505-3.881 19.224-3.597 14.712-15.016 53.263-15.016 59.245 0 17.791 8.099 56.692 5.939 59.752M32.34 364.984c42.893-83.413 49.152-105.787 64.04-128.437 4.812-7.319 10.17-14.297 14.41-21.96 16.754-30.285 19.231-52.29 37.443-99.228.58-1.493 8.3-19.899 7.262-20.15-4.942-1.202-21.668 4.215-32.167 33.264-2.329 6.443-12.852 37.353-28.568 29.966" transform="translate(42 83)"/>
            <g>
                <path fill="#F5F5F5" d="M16.285.04C11.965 2.2 1.767 3.28.447 3.28l1.08 8.999c2.88.96 13.558-1.08 15.717-3.12" transform="translate(42 83) translate(45 117.484)"/>
                <path stroke="#000" stroke-linecap="round" d="M16.285.04C11.965 2.2 1.767 3.28.447 3.28l1.08 8.999c2.88.96 13.558-1.08 15.717-3.12" transform="translate(42 83) translate(45 117.484)"/>
            </g>
            <path stroke="#000" stroke-linecap="round" d="M96.38 162.398c-2.34-2.16-2.88-5.579-3.123-7.432-3.23-24.61-15.206-47.319-16.408-72.172-1.05-21.684 1.78-44.579-2.407-66.124-3.439-17.689-9.152-18.348-9.51-13.772-2 25.532-5.464 50.443-7.786 75.992-1.08 11.878 8.758 53.272 3.78 55.612" transform="translate(42 83)"/>
            <path stroke="#000" stroke-dasharray=".479 1.725" stroke-linecap="round" d="M53.966 124.844c0 1.747-1.416 3.162-3.162 3.162-1.747 0-3.162-1.415-3.162-3.162 0-1.747 1.415-3.162 3.162-3.162 1.746 0 3.162 1.415 3.162 3.162z" transform="translate(42 83)"/>
            <path stroke="#000" stroke-linecap="round" d="M56.365 119.444L57.685 128.443" transform="translate(42 83)"/>
        </g>
    </g>
</svg>
