<svg xmlns="http://www.w3.org/2000/svg" width="240" height="512" viewBox="0 0 240 512">
    <g fill="none" fill-rule="evenodd">
        <path d="M0 0H240V512H0z"/>
        <g>
            <path stroke="#000" stroke-linecap="round" d="M122.025 155.09c-11.454.573-25.966-7.25-33.569-15.584-4.985-5.464-8.578-12.04-11.794-18.7-3.36-6.958-6.364-14.086-8.996-21.35-2.098-5.785-3.987-11.713-7.195-16.962-2.735-4.476-6.567-8.48-11.445-10.578-4.589-1.973-7.96-2.928-10.443-7.91" transform="translate(10 120)"/>
            <path stroke="#000" stroke-linecap="round" d="M79.324 52.237c.986-4.207-44.429-11.036-48.467-7.863-6.54 5.14-3.61 21.442-2.146 25.587C31.167 76.92 40.579 86.332 45.9 87.97c4.516 1.39 9.413 1.637 14.733 1.637M34.182 43.586c9.314-9.623.056-18.938 53.068-6.581M50.949 30.71c5.1-18.49 18.28-12.726 47.338-7.814" transform="translate(10 120)"/>
            <path stroke="#000" stroke-linecap="round" d="M67.591 17.575C69.977 10.573 69.758-3.197 85.516.673 95.46 3.117 105.56 4.9 115.497 7.36c4.423 1.095 8.665 2.27 11.67 5.894 6.27 7.563 8.906 18.04 12.8 26.909 11.288 25.712 24.961 50.207 36.9 75.637" transform="translate(10 120)"/>
            <path fill="#F5F5F5" stroke="#000" stroke-linecap="round" d="M113.048 172.848c2.527-3.79 43.486-44.057 66.343-59.392 12.84 17.085 30.268 37.11 42.333 55.15-27.801 33.306-49.186 53.566-62.102 64.248-5.841 4.83-14.378 4.488-19.791-.82l-6.88-6.744" transform="translate(10 120)"/>
            <path fill="#F5F5F5" d="M153.524 217.624L137.647 200.569 154.701 184.691 170.579 201.746z" transform="translate(10 120)"/>
            <path stroke="#000" stroke-linecap="round" d="M153.524 217.624L137.647 200.569 154.701 184.691 170.579 201.746z" transform="translate(10 120)"/>
            <path fill="#F5F5F5" d="M158.405 214.136L141.527 196.007 150.085 188.04 166.963 206.168z" transform="translate(10 120)"/>
            <path stroke="#000" stroke-linecap="round" d="M158.405 214.136L141.527 196.007 150.085 188.04 166.963 206.168z" transform="translate(10 120)"/>
            <path stroke="#000" stroke-linecap="round" d="M160.193 212.471L159.845 212.794 159.521 212.448" transform="translate(10 120)"/>
            <path stroke="#000" stroke-dasharray=".964 1.929" stroke-linecap="round" d="M158.273 211.106L143.916 195.684" transform="translate(10 120)"/>
            <path stroke="#000" stroke-linecap="round" d="M143.292 195.014L142.968 194.667 143.315 194.343" transform="translate(10 120)"/>
            <path stroke="#000" stroke-dasharray=".896 1.791" stroke-linecap="round" d="M144.561 193.183L147.675 190.284" transform="translate(10 120)"/>
            <path stroke="#000" stroke-linecap="round" d="M148.297 189.705L148.645 189.381 148.969 189.729" transform="translate(10 120)"/>
            <path stroke="#000" stroke-dasharray=".964 1.929" stroke-linecap="round" d="M150.217 191.07L164.575 206.491" transform="translate(10 120)"/>
            <path stroke="#000" stroke-linecap="round" d="M165.199 207.161L165.523 207.509 165.175 207.833" transform="translate(10 120)"/>
            <path stroke="#000" stroke-dasharray=".896 1.791" stroke-linecap="round" d="M163.929 208.992L160.816 211.892" transform="translate(10 120)"/>
            <path fill="#F5F5F5" stroke="#000" stroke-linecap="round" d="M57.393 162.74c.842-3.563 6.317-10.803 9.915-11.175 2.232-.231 23.249 6.98 38.894 13.449 3.246 1.342 6.58 2.743 9.213 5.407 4.35 4.4 6.174 9.4 18.557 34.174 4.683 9.37 7.741 13.708 4.858 17.383-2.09 2.665-3.729 3.37-7.15 3.438-8.821.173-15.82-14.126-21.618-25.964-1.24-2.53-3.147-5.317-5.493-6.175" transform="translate(10 120)"/>
            <path stroke="#000" stroke-linecap="round" d="M44.125 174.955c.987-2.133 1.906-3.347 2.894-5.48 1.287-2.778 2.867-5.829 5.67-6.677 2.01-.608 4.164.093 6.145.86 12.294 4.769 24.437 10.836 35.929 17.495 4.753 2.756 6.018 3.978 9.036 10.506 2.615 5.654 7.285 13.9 6.47 20.524-.438 3.549-4.064 15.89-6.805 17.905-.909.668-2.148.898-3.107.258" transform="translate(10 120)"/>
            <path stroke="#000" stroke-linecap="round" d="M30.014 189.066c2-2.514 3.261-3.78 4.633-6.74 1.236-2.665 3.511-8.004 9.387-7.25 1.983.255 3.864 1.084 5.696 1.948 17.06 8.042 38.24 26.145 39.549 27.657 1.435 1.656 2.372 3.768 3.285 5.84 6.57 14.925 8.854 14.908 6.89 23.752-1.965 8.837-2.374 9.714-2.966 10.608-.854 1.287-3.93 3.627-5.435 3.055" transform="translate(10 120)"/>
            <path stroke="#000" stroke-linecap="round" d="M32.944 215.764c7.347 8.628 19.312 10.079 27.25 18.41 5.938 6.231 7.12 15.541 15.552 18.283 3.325 1.08 8.883 1.723 12-.313 3.785-2.47 1.555-5.804-.098-9.627-3.899-9.013-8.465-17.641-13.257-26.171-7.914-14.088-23.386-15.846-34.878-24.932-2.172-1.717-11.865-6.898-17.896 4.584-3.745 7.126-2.671 13.628-14.922 39.23-3.773 7.881-2.292 6.31-6.695 13.861" transform="translate(10 120)"/>
            <path stroke="#000" stroke-linecap="round" d="M72.453 251.221c-8.475 3.543-5.422 14.782-18.24 27.615-18.888 18.908-29.963 7.01-43.676 1.58" transform="translate(10 120)"/>
        </g>
    </g>
</svg>
