<svg xmlns="http://www.w3.org/2000/svg" width="240" height="512" viewBox="0 0 240 512">
    <g fill="none" fill-rule="evenodd">
        <path d="M0 0H240V512H0z"/>
        <g>
            <path stroke="#000" stroke-linecap="round" d="M146.304 45.39C130.052-11.656-13.029-32.888 1.54 95.721c7.12 62.854 52.497 92.811 76.363 108.088 19.896 12.737 47.684 60.314 82.455 9.714" transform="translate(39 107)"/>
            <path stroke="#000" stroke-linecap="round" d="M103.519 103.033c25.84 12.024 36.49-54.025.58-76.727-21.314-13.475-71.883-17.83-86.45 30.525-23.936 79.462 54.82 129.575 61.528 135.328 5.994 5.143 16.303 10.682 20.718 17.23" transform="translate(39 107)"/>
            <path stroke="#000" stroke-linecap="round" d="M118.567 94.615c-15.335-35.541-87.473-7.857-54.59 38.756 7.17 10.164 18.772 16.548 25.869 26.762 3.069 4.416 5.228 9.461 8.723 13.546 3.604 4.214 9.383 7.394 15.003 7.242 18.589-.503 14.547-14.957 15.319-27.925.672-11.299 19.135-41.16-11.34-36.33" transform="translate(39 107)"/>
            <path fill="#FFF" d="M130.655 264.631c-.748-.866-.814-2.125-.067-2.992.529-.614.95-1.535 1.031-2.903-3.763-6.383-4.564-16.245-4.635-27.456-.024-4.046.502-8.067 1.203-12.053.8-4.556.04-5.836-3.564-5.836-3.713 0-4.359 1.25-3.569 5.803.697 4.005 1.221 8.043 1.195 12.108-.07 11.202-.874 21.055-4.635 27.434.08 1.367.502 2.288 1.031 2.903.748.867.68 2.125-.066 2.992-1.123 1.305-1.681 3.063-1.681 5.938 0 5.81 3.249 10.518 7.255 10.518h.927c4.008 0 7.257-4.709 7.257-10.518 0-2.875-.56-4.633-1.682-5.938" transform="translate(39 107)"/>
            <path stroke="#000" stroke-linecap="round" d="M130.655 264.631c-.748-.866-.814-2.125-.067-2.992.529-.614.95-1.535 1.031-2.903-3.763-6.383-4.564-16.245-4.635-27.456-.024-4.046.502-8.067 1.203-12.053.8-4.556.04-5.836-3.564-5.836-3.713 0-4.359 1.25-3.569 5.803.697 4.005 1.221 8.043 1.195 12.108-.07 11.202-.874 21.055-4.635 27.434.08 1.367.502 2.288 1.031 2.903.748.867.68 2.125-.066 2.992-1.123 1.305-1.681 3.063-1.681 5.938 0 5.81 3.249 10.518 7.255 10.518h.927c4.008 0 7.257-4.709 7.257-10.518 0-2.875-.56-4.633-1.682-5.938z" transform="translate(39 107)"/>
            <path fill="#F5F5F5" d="M145.67 294.707c0 12.3-9.97 22.27-22.27 22.27-12.298 0-22.27-9.97-22.27-22.27 0-12.3 9.972-22.27 22.27-22.27 12.3 0 22.27 9.97 22.27 22.27" transform="translate(39 107)"/>
            <path stroke="#000" stroke-linecap="round" d="M145.67 294.707c0 12.3-9.97 22.27-22.27 22.27-12.298 0-22.27-9.97-22.27-22.27 0-12.3 9.972-22.27 22.27-22.27 12.3 0 22.27 9.97 22.27 22.27z" transform="translate(39 107)"/>
            <path stroke="#000" stroke-dasharray="1.008 2.016" stroke-linecap="round" d="M143.623 294.707c0 11.168-9.054 20.223-20.223 20.223-11.168 0-20.222-9.055-20.222-20.223 0-11.169 9.054-20.223 20.222-20.223 11.17 0 20.223 9.054 20.223 20.223z" transform="translate(39 107)"/>
            <path stroke="#000" stroke-linecap="round" d="M139.754 294.707c0 9.031-7.322 16.354-16.354 16.354-9.03 0-16.353-7.323-16.353-16.354 0-9.032 7.322-16.354 16.353-16.354 9.032 0 16.354 7.322 16.354 16.354z" transform="translate(39 107)"/>
            <path fill="#FFF" d="M131.38 302.72c0 4.407-3.572 7.979-7.98 7.979-4.406 0-7.978-3.572-7.978-7.98 0-4.405 3.572-7.978 7.979-7.978s7.979 3.573 7.979 7.979" transform="translate(39 107)"/>
            <path stroke="#000" stroke-linecap="round" d="M131.38 302.72c0 4.407-3.572 7.979-7.98 7.979-4.406 0-7.978-3.572-7.978-7.98 0-4.405 3.572-7.978 7.979-7.978s7.979 3.573 7.979 7.979z" transform="translate(39 107)"/>
            <path stroke="#000" stroke-dasharray="1.034 2.068" stroke-linecap="round" d="M129.827 302.72c0 3.55-2.877 6.427-6.426 6.427-3.55 0-6.427-2.877-6.427-6.427s2.878-6.426 6.427-6.426c3.549 0 6.426 2.877 6.426 6.426z" transform="translate(39 107)"/>
            <path stroke="#000" stroke-linecap="round" d="M119.947 272.661c-.114-.508-.174-1.042-.174-1.594 0-3.292 2.153-5.96 4.809-5.96s4.808 2.668 4.808 5.96c0 .78-.12 1.525-.34 2.207M124.54 216.522c0 26.005.63 38.77 3.181 41.813 0 0-1.766 3.239-2.944 3.534-.88 0-2.203-1.816-3.14-3.534 2.551-3.042 2.903-15.808 2.903-41.813" transform="translate(39 107)"/>
        </g>
    </g>
</svg>
