<svg xmlns="http://www.w3.org/2000/svg" width="240" height="512" viewBox="0 0 240 512">
    <g fill="none" fill-rule="evenodd">
        <path d="M0 0H240V512H0z"/>
        <g>
            <path stroke="#000" stroke-linecap="round" d="M31.344 365.112c43.119-83.813 49.374-106.23 64.29-128.924 4.812-7.319 10.17-14.298 14.41-21.963 16.754-30.282 19.232-52.288 37.444-99.226.579-1.493 8.298-19.899 7.262-20.151-4.943-1.2-21.67 4.216-32.168 33.265-2.328 6.443-14.514 37.625-30.23 30.239" transform="translate(42 82)"/>
            <path fill="#FFF" d="M56.937 331.938c-3.183-1.475-9.478-3.492-9.478-3.492s-2.18 1.85-1.995 1.995c2.907 2.276 11.226 2.722 11.473 1.497" transform="translate(42 82)"/>
            <path stroke="#000" stroke-linecap="round" d="M.5 286.142c45.344-68.767 43.001-70.392 37.117-94.088-6.356-25.6-11.093-39.914-24.255-62.144-1.343-2.269-3.023-4.42-3.572-6.999-.246-1.152-.072-45.685.038-48.728 2.658-.873 7.049 2.298 9.92 14.728 1.624 7.036 2.522 14.243 2.659 21.43.203 10.54 7.4 18.84 14.375 26.14" transform="translate(42 82)"/>
            <path fill="#FFF" d="M12.708 263.268c-.332 3.491.333 11.64.333 11.64s-1.898.88-1.995.664c-2.328-5.155.48-12.708 1.662-12.304" transform="translate(42 82)"/>
            <path stroke="#000" stroke-linecap="round" d="M36.782 145.3c3.78-13.678-10.808-51.065-2.159-67.49 8.821-16.755 12.66-29.85 19.322-49.815" transform="translate(42 82)"/>
            <path stroke="#000" stroke-linecap="round" d="M63.24 1.68c.524-.665-2.8-2.443-3.78.72-2.054 6.617-2.24 12.505-3.882 19.224C51.98 36.336 40.561 74.887 40.561 80.87c0 17.791 8.1 56.692 5.94 59.752" transform="translate(42 82)"/>
            <path stroke="#000" stroke-linecap="round" d="M94.555 162.398c-2.34-2.16-2.88-5.579-3.123-7.432-3.231-24.61-15.206-47.319-16.408-72.172-1.05-21.684 1.779-44.579-2.407-66.124-3.44-17.689-9.152-18.348-9.51-13.772-2 25.532-5.464 50.443-7.786 75.992-1.08 11.878 8.758 53.272 3.779 55.612M62.118 303.035c4.961 13.022 5.195 23.936-.306 27.425-7.833 4.97-24.333-7-36.85-26.735-12.52-19.735-16.319-39.761-8.485-44.731.49-.311 1.013-.555 1.568-.735" transform="translate(42 82)"/>
            <path stroke="#000" stroke-linecap="round" d="M61.799 330.615c-10.35 8.473-26.84-4.756-39.357-24.49-12.52-19.736-16.76-40.577-6.907-46.681M60.24 307.578c2.04 5.64 6.958 21.478-.84 23.997" transform="translate(42 82)"/>
            <path fill="#FFF" d="M9.786 289.46l9.45-4.68c6.748 15.929 18.806 31.227 30.505 40.676l-7.38 8.639c-18.957-14.28-29.875-37.675-32.575-44.634" transform="translate(42 82)"/>
            <path stroke="#000" stroke-linecap="round" d="M9.786 289.46l9.45-4.68c6.748 15.929 18.806 31.227 30.505 40.676l-7.38 8.639c-18.957-14.28-29.875-37.675-32.575-44.634zM14.646 299.42L23.884 294.38M20.225 308.988L29.134 302.959M26.524 317.896L35.073 311.328M33.903 326.626L41.822 318.707" transform="translate(42 82)"/>
            <path stroke="#000" stroke-dasharray=".945 1.89" stroke-linecap="round" d="M30.833 310.248c0 1.746-1.416 3.162-3.163 3.162-1.746 0-3.162-1.416-3.162-3.162s1.416-3.162 3.162-3.162c1.747 0 3.163 1.416 3.163 3.162zM37.503 318.526c0 1.747-1.416 3.163-3.163 3.163-1.746 0-3.162-1.416-3.162-3.163 0-1.746 1.416-3.162 3.162-3.162 1.747 0 3.163 1.416 3.163 3.162zM44.882 325.906c0 1.746-1.416 3.162-3.163 3.162-1.746 0-3.162-1.416-3.162-3.162 0-1.747 1.416-3.163 3.162-3.163 1.747 0 3.163 1.416 3.163 3.163zM19.944 291.98c0 1.746-1.416 3.162-3.162 3.162-1.747 0-3.163-1.416-3.163-3.162s1.416-3.162 3.163-3.162c1.746 0 3.162 1.416 3.162 3.162zM25.084 301.789c0 1.746-1.416 3.162-3.162 3.162s-3.162-1.416-3.162-3.162 1.416-3.162 3.162-3.162 3.162 1.416 3.162 3.162z" transform="translate(42 82)"/>
        </g>
    </g>
</svg>
