<svg xmlns="http://www.w3.org/2000/svg" width="120" height="145" viewBox="0 0 120 145">
    <g fill="none" fill-rule="evenodd">
        <path d="M0 0H120V144H0z"/>
        <g>
            <path fill="#0F0F10" stroke="#0F0F10" d="M10.764 71.412c3.016-6.508 7.301-13.65 13.333-20.316 7.618-8.254 16.03-15.079 25.713-20 10.158-5.078 18.094-4.761 23.173-.952 4.444 3.81 4.127 11.746-1.27 21.586-2.857 5.397-7.46 10.317-12.698 14.603-5.714 4.444-10.793 5.714-15.872 6.984-2.54 2.54 1.111 3.015 2.54 3.174 2.857.952 7.301-.952 11.745-3.492 11.746-6.666 21.745-18.888 26.19-30.316 3.174-8.253 2.856-14.285 0-19.046-2.223-3.492-5.397-6.032-10.318-6.508-2.698-.159-5.872.476-8.888.635 5.873-1.111 11.587-1.111 15.396 1.429 4.603 3.333 6.825 8.73 5.714 17.141-1.27 8.889-7.619 19.047-16.19 28.253-8.094 8.412-17.776 13.967-26.03 14.602-4.603.477-7.301-1.587-8.73-4.92-1.27-3.81.953-9.206 3.175-14.602-1.27-1.27-4.603 3.65-5.873 5.555-3.333 4.285-4.285 8.412-4.444 12.063-.476 9.682 7.301 13.015 18.253 10 7.936-2.223 15.713-7.143 23.808-14.286 6.032-5.396 11.587-11.269 15.872-17.777 2.222-3.492 3.81-6.983 5.873-10.634-3.016 6.508-7.301 13.65-13.333 20.316-7.618 8.254-16.03 15.079-25.713 20-10.158 5.078-18.094 4.761-23.173.952-4.444-3.81-4.127-11.746 1.27-21.586 2.857-5.397 7.46-10.317 12.698-14.603 5.714-4.444 10.793-5.714 15.872-6.984 2.54-2.54-1.111-3.015-2.54-3.174-2.857-.952-7.301.952-11.745 3.492-11.746 6.666-21.745 18.888-26.19 30.316-3.174 8.253-2.856 14.285 0 19.046 2.223 3.492 5.397 6.032 10.318 6.508 2.698.159 5.872-.476 8.888-.635-5.873 1.111-11.587 1.111-15.396-1.429-4.603-3.333-6.825-8.73-5.714-17.141 1.27-8.889 7.619-19.047 16.19-28.253 8.094-8.412 17.776-13.967 26.03-14.602 4.603-.477 7.301 1.587 8.73 4.92 1.27 3.81-.953 9.206-3.175 14.602 1.27 1.27 4.603-3.65 5.873-5.555 3.333-4.285 4.285-8.412 4.444-12.063.476-9.682-7.301-13.015-18.253-10-7.936 2.223-15.713 7.143-23.808 14.286-6.032 5.396-11.587 11.269-15.872 17.777-2.222 3.492-3.81 6.983-5.873 10.634" transform="translate(9 20)"/>
            <path fill="#F5F5F5" stroke="#0F0F10" d="M75.908 90.174c-2.666-2.72-6.636-4.111-11.908-4.175 5.272-.062 9.242-1.453 11.908-4.173 2.666-2.72 4.03-9.33 4.091-19.826.062 10.496 1.427 17.107 4.093 19.826C86.758 84.546 90.726 85.937 96 86c-5.274.064-9.242 1.455-11.908 4.175-2.666 2.72-4.03 9.327-4.093 19.826-.06-10.499-1.425-17.107-4.09-19.826zM48.954 14.087c-1.333-1.36-3.318-2.056-5.954-2.088 2.636-.03 4.621-.726 5.954-2.086C50.287 8.553 50.97 5.248 51 0c.032 5.248.714 8.553 2.047 9.913C54.379 11.273 56.363 11.97 59 12c-2.637.032-4.621.728-5.954 2.088-1.333 1.36-2.015 4.664-2.047 9.913-.03-5.25-.712-8.553-2.045-9.913zM5.954 88.087C4.621 86.727 2.636 86.03 0 85.999c2.636-.03 4.621-.726 5.954-2.086C7.287 82.553 7.97 79.248 8 74c.032 5.248.714 8.553 2.047 9.913C11.379 85.273 13.363 85.97 16 86c-2.637.032-4.621.728-5.954 2.088C8.713 89.447 8.03 92.75 7.999 98c-.03-5.25-.712-8.553-2.045-9.913zM26.977 18.043c-.666-.68-1.659-1.027-2.977-1.043 1.318-.016 2.31-.364 2.977-1.043.667-.68 1.008-2.333 1.023-4.957.015 2.624.356 4.277 1.023 4.957.666.68 1.658 1.027 2.977 1.043-1.319.016-2.31.364-2.977 1.043-.667.68-1.008 2.332-1.023 4.957-.015-2.625-.356-4.277-1.023-4.957zM14.977 39.043c-.666-.68-1.659-1.027-2.977-1.043 1.318-.016 2.31-.364 2.977-1.043.667-.68 1.008-2.333 1.023-4.957.015 2.624.356 4.277 1.023 4.957.666.68 1.658 1.027 2.977 1.043-1.319.016-2.31.364-2.977 1.043-.667.68-1.008 2.332-1.023 4.957-.015-2.625-.356-4.277-1.023-4.957zM34.046 109.913c1.333 1.36 3.318 2.056 5.954 2.088-2.636.03-4.621.726-5.954 2.086-1.333 1.36-2.015 4.665-2.045 9.913-.032-5.248-.714-8.553-2.047-9.913-1.333-1.36-3.317-2.056-5.954-2.086 2.637-.032 4.621-.728 5.954-2.088 1.333-1.36 2.015-4.664 2.047-9.913.03 5.25.712 8.553 2.045 9.913zM88.046 29.913c1.333 1.36 3.318 2.056 5.954 2.088-2.636.03-4.621.726-5.954 2.086C86.713 35.447 86.03 38.752 86 44c-.032-5.248-.714-8.553-2.047-9.913C82.621 32.727 80.637 32.03 78 32c2.637-.032 4.621-.728 5.954-2.088 1.333-1.36 2.015-4.664 2.047-9.913.03 5.25.712 8.553 2.045 9.913zM46.023 90.957c.666.68 1.659 1.027 2.977 1.043-1.318.016-2.31.364-2.977 1.043-.667.68-1.008 2.333-1.023 4.957-.015-2.624-.356-4.277-1.023-4.957-.666-.68-1.658-1.027-2.977-1.043 1.319-.016 2.31-.364 2.977-1.043.667-.68 1.008-2.332 1.023-4.957.015 2.625.356 4.277 1.023 4.957zM54.023 113.957c.666.68 1.659 1.027 2.977 1.043-1.318.016-2.31.364-2.977 1.043-.667.68-1.008 2.333-1.023 4.957-.015-2.624-.356-4.277-1.023-4.957-.666-.68-1.658-1.027-2.977-1.043 1.319-.016 2.31-.364 2.977-1.043.667-.68 1.008-2.332 1.023-4.957.015 2.625.356 4.277 1.023 4.957z" transform="translate(9 20)"/>
            <path fill="#F5F5F5" stroke="#F5F4F5" d="M60.023 54.957c.666.68 1.659 1.027 2.977 1.043-1.318.016-2.31.364-2.977 1.043-.667.68-1.008 2.333-1.023 4.957-.015-2.624-.356-4.277-1.023-4.957-.666-.68-1.658-1.027-2.977-1.043 1.319-.016 2.31-.364 2.977-1.043.667-.68 1.008-2.332 1.023-4.957.015 2.625.356 4.277 1.023 4.957z" transform="translate(9 20)"/>
        </g>
    </g>
</svg>
