<svg xmlns="http://www.w3.org/2000/svg" xmlns:xlink="http://www.w3.org/1999/xlink" width="120" height="144" viewBox="0 0 120 144">
    <defs>
        <path id="yp1t3cluja" d="M0 0L48 0 48 96 0 96z"/>
    </defs>
    <g fill="none" fill-rule="evenodd">
        <path d="M0 0H120V144H0z"/>
        <g>
            <g transform="translate(36 5) translate(0 41.647)">
                <mask id="5c5x3n0qnb" fill="#fff">
                    <use xlink:href="#yp1t3cluja"/>
                </mask>
                <use fill="#0F0F10" xlink:href="#yp1t3cluja"/>
                <path fill="#F5F5F5" fill-rule="nonzero" d="M-20.408-6.416c1.14 0 2.1-.888 2.1-2.076 0-1.2-.96-2.088-2.1-2.088-1.14 0-2.112.876-2.112 2.088 0 1.2.972 2.076 2.112 2.076zm.36 4.416L-14-10.448h-1.128L-21.176-2h1.128zm-.36-5.316c-.636 0-1.188-.504-1.188-1.176 0-.684.552-1.188 1.188-1.188.624 0 1.176.504 1.176 1.188 0 .672-.552 1.176-1.176 1.176zm5.64 5.448c1.152 0 2.112-.888 2.112-2.088 0-1.2-.972-2.076-2.112-2.076-1.14 0-2.1.888-2.1 2.076 0 1.2.96 2.088 2.1 2.088zm0-.9c-.624 0-1.176-.504-1.176-1.188 0-.672.552-1.176 1.176-1.176.636 0 1.188.504 1.188 1.176 0 .684-.552 1.188-1.188 1.188zm5.184-3.648c1.14 0 2.1-.888 2.1-2.076 0-1.2-.96-2.088-2.1-2.088-1.14 0-2.112.876-2.112 2.088 0 1.2.972 2.076 2.112 2.076zM-9.224-2l6.048-8.448h-1.128L-10.352-2h1.128zm-.36-5.316c-.636 0-1.188-.504-1.188-1.176 0-.684.552-1.188 1.188-1.188.624 0 1.176.504 1.176 1.188 0 .672-.552 1.176-1.176 1.176zm5.64 5.448c1.152 0 2.112-.888 2.112-2.088 0-1.2-.972-2.076-2.112-2.076-1.14 0-2.1.888-2.1 2.076 0 1.2.96 2.088 2.1 2.088zm0-.9c-.624 0-1.176-.504-1.176-1.188 0-.672.552-1.176 1.176-1.176.636 0 1.188.504 1.188 1.176 0 .684-.552 1.188-1.188 1.188zM1.24-6.416c1.14 0 2.1-.888 2.1-2.076 0-1.2-.96-2.088-2.1-2.088-1.14 0-2.112.876-2.112 2.088 0 1.2.972 2.076 2.112 2.076zM1.6-2l6.048-8.448H6.52L.472-2H1.6zm-.36-5.316C.604-7.316.052-7.82.052-8.492c0-.684.552-1.188 1.188-1.188.624 0 1.176.504 1.176 1.188 0 .672-.552 1.176-1.176 1.176zm5.64 5.448c1.152 0 2.112-.888 2.112-2.088 0-1.2-.972-2.076-2.112-2.076-1.14 0-2.1.888-2.1 2.076 0 1.2.96 2.088 2.1 2.088zm0-.9c-.624 0-1.176-.504-1.176-1.188 0-.672.552-1.176 1.176-1.176.636 0 1.188.504 1.188 1.176 0 .684-.552 1.188-1.188 1.188zm5.184-3.648c1.14 0 2.1-.888 2.1-2.076 0-1.2-.96-2.088-2.1-2.088-1.14 0-2.112.876-2.112 2.088 0 1.2.972 2.076 2.112 2.076zM12.424-2l6.048-8.448h-1.128L11.296-2h1.128zm-.36-5.316c-.636 0-1.188-.504-1.188-1.176 0-.684.552-1.188 1.188-1.188.624 0 1.176.504 1.176 1.188 0 .672-.552 1.176-1.176 1.176zm5.64 5.448c1.152 0 2.112-.888 2.112-2.088 0-1.2-.972-2.076-2.112-2.076-1.14 0-2.1.888-2.1 2.076 0 1.2.96 2.088 2.1 2.088zm0-.9c-.624 0-1.176-.504-1.176-1.188 0-.672.552-1.176 1.176-1.176.636 0 1.188.504 1.188 1.176 0 .684-.552 1.188-1.188 1.188zm5.184-3.648c1.14 0 2.1-.888 2.1-2.076 0-1.2-.96-2.088-2.1-2.088-1.14 0-2.112.876-2.112 2.088 0 1.2.972 2.076 2.112 2.076zM23.248-2l6.048-8.448h-1.128L22.12-2h1.128zm-.36-5.316c-.636 0-1.188-.504-1.188-1.176 0-.684.552-1.188 1.188-1.188.624 0 1.176.504 1.176 1.188 0 .672-.552 1.176-1.176 1.176zm5.64 5.448c1.152 0 2.112-.888 2.112-2.088 0-1.2-.972-2.076-2.112-2.076-1.14 0-2.1.888-2.1 2.076 0 1.2.96 2.088 2.1 2.088zm0-.9c-.624 0-1.176-.504-1.176-1.188 0-.672.552-1.176 1.176-1.176.636 0 1.188.504 1.188 1.176 0 .684-.552 1.188-1.188 1.188zm5.184-3.648c1.14 0 2.1-.888 2.1-2.076 0-1.2-.96-2.088-2.1-2.088-1.14 0-2.112.876-2.112 2.088 0 1.2.972 2.076 2.112 2.076zM34.072-2l6.048-8.448h-1.128L32.944-2h1.128zm-.36-5.316c-.636 0-1.188-.504-1.188-1.176 0-.684.552-1.188 1.188-1.188.624 0 1.176.504 1.176 1.188 0 .672-.552 1.176-1.176 1.176zm5.64 5.448c1.152 0 2.112-.888 2.112-2.088 0-1.2-.972-2.076-2.112-2.076-1.14 0-2.1.888-2.1 2.076 0 1.2.96 2.088 2.1 2.088zm0-.9c-.624 0-1.176-.504-1.176-1.188 0-.672.552-1.176 1.176-1.176.636 0 1.188.504 1.188 1.176 0 .684-.552 1.188-1.188 1.188zm5.184-3.648c1.14 0 2.1-.888 2.1-2.076 0-1.2-.96-2.088-2.1-2.088-1.14 0-2.112.876-2.112 2.088 0 1.2.972 2.076 2.112 2.076zM44.896-2l6.048-8.448h-1.128L43.768-2h1.128zm-.36-5.316c-.636 0-1.188-.504-1.188-1.176 0-.684.552-1.188 1.188-1.188.624 0 1.176.504 1.176 1.188 0 .672-.552 1.176-1.176 1.176zm5.64 5.448c1.152 0 2.112-.888 2.112-2.088 0-1.2-.972-2.076-2.112-2.076-1.14 0-2.1.888-2.1 2.076 0 1.2.96 2.088 2.1 2.088zm0-.9c-.624 0-1.176-.504-1.176-1.188 0-.672.552-1.176 1.176-1.176.636 0 1.188.504 1.188 1.176 0 .684-.552 1.188-1.188 1.188zm5.184-3.648c1.14 0 2.1-.888 2.1-2.076 0-1.2-.96-2.088-2.1-2.088-1.14 0-2.112.876-2.112 2.088 0 1.2.972 2.076 2.112 2.076zM55.72-2l6.048-8.448H60.64L54.592-2h1.128zm-.36-5.316c-.636 0-1.188-.504-1.188-1.176 0-.684.552-1.188 1.188-1.188.624 0 1.176.504 1.176 1.188 0 .672-.552 1.176-1.176 1.176zM61-1.868c1.152 0 2.112-.888 2.112-2.088 0-1.2-.972-2.076-2.112-2.076-1.14 0-2.1.888-2.1 2.076 0 1.2.96 2.088 2.1 2.088zm0-.9c-.624 0-1.176-.504-1.176-1.188 0-.672.552-1.176 1.176-1.176.636 0 1.188.504 1.188 1.176 0 .684-.552 1.188-1.188 1.188zm-81.408 7.352c1.14 0 2.1-.888 2.1-2.076 0-1.2-.96-2.088-2.1-2.088-1.14 0-2.112.876-2.112 2.088 0 1.2.972 2.076 2.112 2.076zm.36 4.416L-14 .552h-1.128L-21.176 9h1.128zm-.36-5.316c-.636 0-1.188-.504-1.188-1.176 0-.684.552-1.188 1.188-1.188.624 0 1.176.504 1.176 1.188 0 .672-.552 1.176-1.176 1.176zm5.64 5.448c1.152 0 2.112-.888 2.112-2.088 0-1.2-.972-2.076-2.112-2.076-1.14 0-2.1.888-2.1 2.076 0 1.2.96 2.088 2.1 2.088zm0-.9c-.624 0-1.176-.504-1.176-1.188 0-.672.552-1.176 1.176-1.176.636 0 1.188.504 1.188 1.176 0 .684-.552 1.188-1.188 1.188zm5.184-3.648c1.14 0 2.1-.888 2.1-2.076 0-1.2-.96-2.088-2.1-2.088-1.14 0-2.112.876-2.112 2.088 0 1.2.972 2.076 2.112 2.076zM-9.224 9L-3.176.552h-1.128L-10.352 9h1.128zm-.36-5.316c-.636 0-1.188-.504-1.188-1.176 0-.684.552-1.188 1.188-1.188.624 0 1.176.504 1.176 1.188 0 .672-.552 1.176-1.176 1.176zm5.64 5.448c1.152 0 2.112-.888 2.112-2.088 0-1.2-.972-2.076-2.112-2.076-1.14 0-2.1.888-2.1 2.076 0 1.2.96 2.088 2.1 2.088zm0-.9c-.624 0-1.176-.504-1.176-1.188 0-.672.552-1.176 1.176-1.176.636 0 1.188.504 1.188 1.176 0 .684-.552 1.188-1.188 1.188zM1.24 4.584c1.14 0 2.1-.888 2.1-2.076 0-1.2-.96-2.088-2.1-2.088C.1.42-.872 1.296-.872 2.508c0 1.2.972 2.076 2.112 2.076zM1.6 9L7.648.552H6.52L.472 9H1.6zm-.36-5.316C.604 3.684.052 3.18.052 2.508c0-.684.552-1.188 1.188-1.188.624 0 1.176.504 1.176 1.188 0 .672-.552 1.176-1.176 1.176zm5.64 5.448c1.152 0 2.112-.888 2.112-2.088 0-1.2-.972-2.076-2.112-2.076-1.14 0-2.1.888-2.1 2.076 0 1.2.96 2.088 2.1 2.088zm0-.9c-.624 0-1.176-.504-1.176-1.188 0-.672.552-1.176 1.176-1.176.636 0 1.188.504 1.188 1.176 0 .684-.552 1.188-1.188 1.188zm5.184-3.648c1.14 0 2.1-.888 2.1-2.076 0-1.2-.96-2.088-2.1-2.088-1.14 0-2.112.876-2.112 2.088 0 1.2.972 2.076 2.112 2.076zM12.424 9L18.472.552h-1.128L11.296 9h1.128zm-.36-5.316c-.636 0-1.188-.504-1.188-1.176 0-.684.552-1.188 1.188-1.188.624 0 1.176.504 1.176 1.188 0 .672-.552 1.176-1.176 1.176zm5.64 5.448c1.152 0 2.112-.888 2.112-2.088 0-1.2-.972-2.076-2.112-2.076-1.14 0-2.1.888-2.1 2.076 0 1.2.96 2.088 2.1 2.088zm0-.9c-.624 0-1.176-.504-1.176-1.188 0-.672.552-1.176 1.176-1.176.636 0 1.188.504 1.188 1.176 0 .684-.552 1.188-1.188 1.188zm5.184-3.648c1.14 0 2.1-.888 2.1-2.076 0-1.2-.96-2.088-2.1-2.088-1.14 0-2.112.876-2.112 2.088 0 1.2.972 2.076 2.112 2.076zM23.248 9L29.296.552h-1.128L22.12 9h1.128zm-.36-5.316c-.636 0-1.188-.504-1.188-1.176 0-.684.552-1.188 1.188-1.188.624 0 1.176.504 1.176 1.188 0 .672-.552 1.176-1.176 1.176zm5.64 5.448c1.152 0 2.112-.888 2.112-2.088 0-1.2-.972-2.076-2.112-2.076-1.14 0-2.1.888-2.1 2.076 0 1.2.96 2.088 2.1 2.088zm0-.9c-.624 0-1.176-.504-1.176-1.188 0-.672.552-1.176 1.176-1.176.636 0 1.188.504 1.188 1.176 0 .684-.552 1.188-1.188 1.188zm5.184-3.648c1.14 0 2.1-.888 2.1-2.076 0-1.2-.96-2.088-2.1-2.088-1.14 0-2.112.876-2.112 2.088 0 1.2.972 2.076 2.112 2.076zM34.072 9L40.12.552h-1.128L32.944 9h1.128zm-.36-5.316c-.636 0-1.188-.504-1.188-1.176 0-.684.552-1.188 1.188-1.188.624 0 1.176.504 1.176 1.188 0 .672-.552 1.176-1.176 1.176zm5.64 5.448c1.152 0 2.112-.888 2.112-2.088 0-1.2-.972-2.076-2.112-2.076-1.14 0-2.1.888-2.1 2.076 0 1.2.96 2.088 2.1 2.088zm0-.9c-.624 0-1.176-.504-1.176-1.188 0-.672.552-1.176 1.176-1.176.636 0 1.188.504 1.188 1.176 0 .684-.552 1.188-1.188 1.188zm5.184-3.648c1.14 0 2.1-.888 2.1-2.076 0-1.2-.96-2.088-2.1-2.088-1.14 0-2.112.876-2.112 2.088 0 1.2.972 2.076 2.112 2.076zM44.896 9L50.944.552h-1.128L43.768 9h1.128zm-.36-5.316c-.636 0-1.188-.504-1.188-1.176 0-.684.552-1.188 1.188-1.188.624 0 1.176.504 1.176 1.188 0 .672-.552 1.176-1.176 1.176zm5.64 5.448c1.152 0 2.112-.888 2.112-2.088 0-1.2-.972-2.076-2.112-2.076-1.14 0-2.1.888-2.1 2.076 0 1.2.96 2.088 2.1 2.088zm0-.9c-.624 0-1.176-.504-1.176-1.188 0-.672.552-1.176 1.176-1.176.636 0 1.188.504 1.188 1.176 0 .684-.552 1.188-1.188 1.188zm5.184-3.648c1.14 0 2.1-.888 2.1-2.076 0-1.2-.96-2.088-2.1-2.088-1.14 0-2.112.876-2.112 2.088 0 1.2.972 2.076 2.112 2.076zM55.72 9L61.768.552H60.64L54.592 9h1.128zm-.36-5.316c-.636 0-1.188-.504-1.188-1.176 0-.684.552-1.188 1.188-1.188.624 0 1.176.504 1.176 1.188 0 .672-.552 1.176-1.176 1.176zM61 9.132c1.152 0 2.112-.888 2.112-2.088 0-1.2-.972-2.076-2.112-2.076-1.14 0-2.1.888-2.1 2.076 0 1.2.96 2.088 2.1 2.088zm0-.9c-.624 0-1.176-.504-1.176-1.188 0-.672.552-1.176 1.176-1.176.636 0 1.188.504 1.188 1.176 0 .684-.552 1.188-1.188 1.188zm-81.408 7.352c1.14 0 2.1-.888 2.1-2.076 0-1.2-.96-2.088-2.1-2.088-1.14 0-2.112.876-2.112 2.088 0 1.2.972 2.076 2.112 2.076zm.36 4.416L-14 11.552h-1.128L-21.176 20h1.128zm-.36-5.316c-.636 0-1.188-.504-1.188-1.176 0-.684.552-1.188 1.188-1.188.624 0 1.176.504 1.176 1.188 0 .672-.552 1.176-1.176 1.176zm5.64 5.448c1.152 0 2.112-.888 2.112-2.088 0-1.2-.972-2.076-2.112-2.076-1.14 0-2.1.888-2.1 2.076 0 1.2.96 2.088 2.1 2.088zm0-.9c-.624 0-1.176-.504-1.176-1.188 0-.672.552-1.176 1.176-1.176.636 0 1.188.504 1.188 1.176 0 .684-.552 1.188-1.188 1.188zm5.184-3.648c1.14 0 2.1-.888 2.1-2.076 0-1.2-.96-2.088-2.1-2.088-1.14 0-2.112.876-2.112 2.088 0 1.2.972 2.076 2.112 2.076zm.36 4.416l6.048-8.448h-1.128L-10.352 20h1.128zm-.36-5.316c-.636 0-1.188-.504-1.188-1.176 0-.684.552-1.188 1.188-1.188.624 0 1.176.504 1.176 1.188 0 .672-.552 1.176-1.176 1.176zm5.64 5.448c1.152 0 2.112-.888 2.112-2.088 0-1.2-.972-2.076-2.112-2.076-1.14 0-2.1.888-2.1 2.076 0 1.2.96 2.088 2.1 2.088zm0-.9c-.624 0-1.176-.504-1.176-1.188 0-.672.552-1.176 1.176-1.176.636 0 1.188.504 1.188 1.176 0 .684-.552 1.188-1.188 1.188zm5.184-3.648c1.14 0 2.1-.888 2.1-2.076 0-1.2-.96-2.088-2.1-2.088-1.14 0-2.112.876-2.112 2.088 0 1.2.972 2.076 2.112 2.076zM1.6 20l6.048-8.448H6.52L.472 20H1.6zm-.36-5.316c-.636 0-1.188-.504-1.188-1.176 0-.684.552-1.188 1.188-1.188.624 0 1.176.504 1.176 1.188 0 .672-.552 1.176-1.176 1.176zm5.64 5.448c1.152 0 2.112-.888 2.112-2.088 0-1.2-.972-2.076-2.112-2.076-1.14 0-2.1.888-2.1 2.076 0 1.2.96 2.088 2.1 2.088zm0-.9c-.624 0-1.176-.504-1.176-1.188 0-.672.552-1.176 1.176-1.176.636 0 1.188.504 1.188 1.176 0 .684-.552 1.188-1.188 1.188zm5.184-3.648c1.14 0 2.1-.888 2.1-2.076 0-1.2-.96-2.088-2.1-2.088-1.14 0-2.112.876-2.112 2.088 0 1.2.972 2.076 2.112 2.076zm.36 4.416l6.048-8.448h-1.128L11.296 20h1.128zm-.36-5.316c-.636 0-1.188-.504-1.188-1.176 0-.684.552-1.188 1.188-1.188.624 0 1.176.504 1.176 1.188 0 .672-.552 1.176-1.176 1.176zm5.64 5.448c1.152 0 2.112-.888 2.112-2.088 0-1.2-.972-2.076-2.112-2.076-1.14 0-2.1.888-2.1 2.076 0 1.2.96 2.088 2.1 2.088zm0-.9c-.624 0-1.176-.504-1.176-1.188 0-.672.552-1.176 1.176-1.176.636 0 1.188.504 1.188 1.176 0 .684-.552 1.188-1.188 1.188zm5.184-3.648c1.14 0 2.1-.888 2.1-2.076 0-1.2-.96-2.088-2.1-2.088-1.14 0-2.112.876-2.112 2.088 0 1.2.972 2.076 2.112 2.076zm.36 4.416l6.048-8.448h-1.128L22.12 20h1.128zm-.36-5.316c-.636 0-1.188-.504-1.188-1.176 0-.684.552-1.188 1.188-1.188.624 0 1.176.504 1.176 1.188 0 .672-.552 1.176-1.176 1.176zm5.64 5.448c1.152 0 2.112-.888 2.112-2.088 0-1.2-.972-2.076-2.112-2.076-1.14 0-2.1.888-2.1 2.076 0 1.2.96 2.088 2.1 2.088zm0-.9c-.624 0-1.176-.504-1.176-1.188 0-.672.552-1.176 1.176-1.176.636 0 1.188.504 1.188 1.176 0 .684-.552 1.188-1.188 1.188zm5.184-3.648c1.14 0 2.1-.888 2.1-2.076 0-1.2-.96-2.088-2.1-2.088-1.14 0-2.112.876-2.112 2.088 0 1.2.972 2.076 2.112 2.076zm.36 4.416l6.048-8.448h-1.128L32.944 20h1.128zm-.36-5.316c-.636 0-1.188-.504-1.188-1.176 0-.684.552-1.188 1.188-1.188.624 0 1.176.504 1.176 1.188 0 .672-.552 1.176-1.176 1.176zm5.64 5.448c1.152 0 2.112-.888 2.112-2.088 0-1.2-.972-2.076-2.112-2.076-1.14 0-2.1.888-2.1 2.076 0 1.2.96 2.088 2.1 2.088zm0-.9c-.624 0-1.176-.504-1.176-1.188 0-.672.552-1.176 1.176-1.176.636 0 1.188.504 1.188 1.176 0 .684-.552 1.188-1.188 1.188zm5.184-3.648c1.14 0 2.1-.888 2.1-2.076 0-1.2-.96-2.088-2.1-2.088-1.14 0-2.112.876-2.112 2.088 0 1.2.972 2.076 2.112 2.076zm.36 4.416l6.048-8.448h-1.128L43.768 20h1.128zm-.36-5.316c-.636 0-1.188-.504-1.188-1.176 0-.684.552-1.188 1.188-1.188.624 0 1.176.504 1.176 1.188 0 .672-.552 1.176-1.176 1.176zm5.64 5.448c1.152 0 2.112-.888 2.112-2.088 0-1.2-.972-2.076-2.112-2.076-1.14 0-2.1.888-2.1 2.076 0 1.2.96 2.088 2.1 2.088zm0-.9c-.624 0-1.176-.504-1.176-1.188 0-.672.552-1.176 1.176-1.176.636 0 1.188.504 1.188 1.176 0 .684-.552 1.188-1.188 1.188zm5.184-3.648c1.14 0 2.1-.888 2.1-2.076 0-1.2-.96-2.088-2.1-2.088-1.14 0-2.112.876-2.112 2.088 0 1.2.972 2.076 2.112 2.076zM55.72 20l6.048-8.448H60.64L54.592 20h1.128zm-.36-5.316c-.636 0-1.188-.504-1.188-1.176 0-.684.552-1.188 1.188-1.188.624 0 1.176.504 1.176 1.188 0 .672-.552 1.176-1.176 1.176zM61 20.132c1.152 0 2.112-.888 2.112-2.088 0-1.2-.972-2.076-2.112-2.076-1.14 0-2.1.888-2.1 2.076 0 1.2.96 2.088 2.1 2.088zm0-.9c-.624 0-1.176-.504-1.176-1.188 0-.672.552-1.176 1.176-1.176.636 0 1.188.504 1.188 1.176 0 .684-.552 1.188-1.188 1.188zm-81.408 7.352c1.14 0 2.1-.888 2.1-2.076 0-1.2-.96-2.088-2.1-2.088-1.14 0-2.112.876-2.112 2.088 0 1.2.972 2.076 2.112 2.076zm.36 4.416L-14 22.552h-1.128L-21.176 31h1.128zm-.36-5.316c-.636 0-1.188-.504-1.188-1.176 0-.684.552-1.188 1.188-1.188.624 0 1.176.504 1.176 1.188 0 .672-.552 1.176-1.176 1.176zm5.64 5.448c1.152 0 2.112-.888 2.112-2.088 0-1.2-.972-2.076-2.112-2.076-1.14 0-2.1.888-2.1 2.076 0 1.2.96 2.088 2.1 2.088zm0-.9c-.624 0-1.176-.504-1.176-1.188 0-.672.552-1.176 1.176-1.176.636 0 1.188.504 1.188 1.176 0 .684-.552 1.188-1.188 1.188zm5.184-3.648c1.14 0 2.1-.888 2.1-2.076 0-1.2-.96-2.088-2.1-2.088-1.14 0-2.112.876-2.112 2.088 0 1.2.972 2.076 2.112 2.076zm.36 4.416l6.048-8.448h-1.128L-10.352 31h1.128zm-.36-5.316c-.636 0-1.188-.504-1.188-1.176 0-.684.552-1.188 1.188-1.188.624 0 1.176.504 1.176 1.188 0 .672-.552 1.176-1.176 1.176zm5.64 5.448c1.152 0 2.112-.888 2.112-2.088 0-1.2-.972-2.076-2.112-2.076-1.14 0-2.1.888-2.1 2.076 0 1.2.96 2.088 2.1 2.088zm0-.9c-.624 0-1.176-.504-1.176-1.188 0-.672.552-1.176 1.176-1.176.636 0 1.188.504 1.188 1.176 0 .684-.552 1.188-1.188 1.188zm5.184-3.648c1.14 0 2.1-.888 2.1-2.076 0-1.2-.96-2.088-2.1-2.088-1.14 0-2.112.876-2.112 2.088 0 1.2.972 2.076 2.112 2.076zM1.6 31l6.048-8.448H6.52L.472 31H1.6zm-.36-5.316c-.636 0-1.188-.504-1.188-1.176 0-.684.552-1.188 1.188-1.188.624 0 1.176.504 1.176 1.188 0 .672-.552 1.176-1.176 1.176zm5.64 5.448c1.152 0 2.112-.888 2.112-2.088 0-1.2-.972-2.076-2.112-2.076-1.14 0-2.1.888-2.1 2.076 0 1.2.96 2.088 2.1 2.088zm0-.9c-.624 0-1.176-.504-1.176-1.188 0-.672.552-1.176 1.176-1.176.636 0 1.188.504 1.188 1.176 0 .684-.552 1.188-1.188 1.188zm5.184-3.648c1.14 0 2.1-.888 2.1-2.076 0-1.2-.96-2.088-2.1-2.088-1.14 0-2.112.876-2.112 2.088 0 1.2.972 2.076 2.112 2.076zm.36 4.416l6.048-8.448h-1.128L11.296 31h1.128zm-.36-5.316c-.636 0-1.188-.504-1.188-1.176 0-.684.552-1.188 1.188-1.188.624 0 1.176.504 1.176 1.188 0 .672-.552 1.176-1.176 1.176zm5.64 5.448c1.152 0 2.112-.888 2.112-2.088 0-1.2-.972-2.076-2.112-2.076-1.14 0-2.1.888-2.1 2.076 0 1.2.96 2.088 2.1 2.088zm0-.9c-.624 0-1.176-.504-1.176-1.188 0-.672.552-1.176 1.176-1.176.636 0 1.188.504 1.188 1.176 0 .684-.552 1.188-1.188 1.188zm5.184-3.648c1.14 0 2.1-.888 2.1-2.076 0-1.2-.96-2.088-2.1-2.088-1.14 0-2.112.876-2.112 2.088 0 1.2.972 2.076 2.112 2.076zm.36 4.416l6.048-8.448h-1.128L22.12 31h1.128zm-.36-5.316c-.636 0-1.188-.504-1.188-1.176 0-.684.552-1.188 1.188-1.188.624 0 1.176.504 1.176 1.188 0 .672-.552 1.176-1.176 1.176zm5.64 5.448c1.152 0 2.112-.888 2.112-2.088 0-1.2-.972-2.076-2.112-2.076-1.14 0-2.1.888-2.1 2.076 0 1.2.96 2.088 2.1 2.088zm0-.9c-.624 0-1.176-.504-1.176-1.188 0-.672.552-1.176 1.176-1.176.636 0 1.188.504 1.188 1.176 0 .684-.552 1.188-1.188 1.188zm5.184-3.648c1.14 0 2.1-.888 2.1-2.076 0-1.2-.96-2.088-2.1-2.088-1.14 0-2.112.876-2.112 2.088 0 1.2.972 2.076 2.112 2.076zm.36 4.416l6.048-8.448h-1.128L32.944 31h1.128zm-.36-5.316c-.636 0-1.188-.504-1.188-1.176 0-.684.552-1.188 1.188-1.188.624 0 1.176.504 1.176 1.188 0 .672-.552 1.176-1.176 1.176zm5.64 5.448c1.152 0 2.112-.888 2.112-2.088 0-1.2-.972-2.076-2.112-2.076-1.14 0-2.1.888-2.1 2.076 0 1.2.96 2.088 2.1 2.088zm0-.9c-.624 0-1.176-.504-1.176-1.188 0-.672.552-1.176 1.176-1.176.636 0 1.188.504 1.188 1.176 0 .684-.552 1.188-1.188 1.188zm5.184-3.648c1.14 0 2.1-.888 2.1-2.076 0-1.2-.96-2.088-2.1-2.088-1.14 0-2.112.876-2.112 2.088 0 1.2.972 2.076 2.112 2.076zm.36 4.416l6.048-8.448h-1.128L43.768 31h1.128zm-.36-5.316c-.636 0-1.188-.504-1.188-1.176 0-.684.552-1.188 1.188-1.188.624 0 1.176.504 1.176 1.188 0 .672-.552 1.176-1.176 1.176zm5.64 5.448c1.152 0 2.112-.888 2.112-2.088 0-1.2-.972-2.076-2.112-2.076-1.14 0-2.1.888-2.1 2.076 0 1.2.96 2.088 2.1 2.088zm0-.9c-.624 0-1.176-.504-1.176-1.188 0-.672.552-1.176 1.176-1.176.636 0 1.188.504 1.188 1.176 0 .684-.552 1.188-1.188 1.188zm5.184-3.648c1.14 0 2.1-.888 2.1-2.076 0-1.2-.96-2.088-2.1-2.088-1.14 0-2.112.876-2.112 2.088 0 1.2.972 2.076 2.112 2.076zM55.72 31l6.048-8.448H60.64L54.592 31h1.128zm-.36-5.316c-.636 0-1.188-.504-1.188-1.176 0-.684.552-1.188 1.188-1.188.624 0 1.176.504 1.176 1.188 0 .672-.552 1.176-1.176 1.176zM61 31.132c1.152 0 2.112-.888 2.112-2.088 0-1.2-.972-2.076-2.112-2.076-1.14 0-2.1.888-2.1 2.076 0 1.2.96 2.088 2.1 2.088zm0-.9c-.624 0-1.176-.504-1.176-1.188 0-.672.552-1.176 1.176-1.176.636 0 1.188.504 1.188 1.176 0 .684-.552 1.188-1.188 1.188zm-81.408 7.352c1.14 0 2.1-.888 2.1-2.076 0-1.2-.96-2.088-2.1-2.088-1.14 0-2.112.876-2.112 2.088 0 1.2.972 2.076 2.112 2.076zm.36 4.416L-14 33.552h-1.128L-21.176 42h1.128zm-.36-5.316c-.636 0-1.188-.504-1.188-1.176 0-.684.552-1.188 1.188-1.188.624 0 1.176.504 1.176 1.188 0 .672-.552 1.176-1.176 1.176zm5.64 5.448c1.152 0 2.112-.888 2.112-2.088 0-1.2-.972-2.076-2.112-2.076-1.14 0-2.1.888-2.1 2.076 0 1.2.96 2.088 2.1 2.088zm0-.9c-.624 0-1.176-.504-1.176-1.188 0-.672.552-1.176 1.176-1.176.636 0 1.188.504 1.188 1.176 0 .684-.552 1.188-1.188 1.188zm5.184-3.648c1.14 0 2.1-.888 2.1-2.076 0-1.2-.96-2.088-2.1-2.088-1.14 0-2.112.876-2.112 2.088 0 1.2.972 2.076 2.112 2.076zm.36 4.416l6.048-8.448h-1.128L-10.352 42h1.128zm-.36-5.316c-.636 0-1.188-.504-1.188-1.176 0-.684.552-1.188 1.188-1.188.624 0 1.176.504 1.176 1.188 0 .672-.552 1.176-1.176 1.176zm5.64 5.448c1.152 0 2.112-.888 2.112-2.088 0-1.2-.972-2.076-2.112-2.076-1.14 0-2.1.888-2.1 2.076 0 1.2.96 2.088 2.1 2.088zm0-.9c-.624 0-1.176-.504-1.176-1.188 0-.672.552-1.176 1.176-1.176.636 0 1.188.504 1.188 1.176 0 .684-.552 1.188-1.188 1.188zm5.184-3.648c1.14 0 2.1-.888 2.1-2.076 0-1.2-.96-2.088-2.1-2.088-1.14 0-2.112.876-2.112 2.088 0 1.2.972 2.076 2.112 2.076zM1.6 42l6.048-8.448H6.52L.472 42H1.6zm-.36-5.316c-.636 0-1.188-.504-1.188-1.176 0-.684.552-1.188 1.188-1.188.624 0 1.176.504 1.176 1.188 0 .672-.552 1.176-1.176 1.176zm5.64 5.448c1.152 0 2.112-.888 2.112-2.088 0-1.2-.972-2.076-2.112-2.076-1.14 0-2.1.888-2.1 2.076 0 1.2.96 2.088 2.1 2.088zm0-.9c-.624 0-1.176-.504-1.176-1.188 0-.672.552-1.176 1.176-1.176.636 0 1.188.504 1.188 1.176 0 .684-.552 1.188-1.188 1.188zm5.184-3.648c1.14 0 2.1-.888 2.1-2.076 0-1.2-.96-2.088-2.1-2.088-1.14 0-2.112.876-2.112 2.088 0 1.2.972 2.076 2.112 2.076zm.36 4.416l6.048-8.448h-1.128L11.296 42h1.128zm-.36-5.316c-.636 0-1.188-.504-1.188-1.176 0-.684.552-1.188 1.188-1.188.624 0 1.176.504 1.176 1.188 0 .672-.552 1.176-1.176 1.176zm5.64 5.448c1.152 0 2.112-.888 2.112-2.088 0-1.2-.972-2.076-2.112-2.076-1.14 0-2.1.888-2.1 2.076 0 1.2.96 2.088 2.1 2.088zm0-.9c-.624 0-1.176-.504-1.176-1.188 0-.672.552-1.176 1.176-1.176.636 0 1.188.504 1.188 1.176 0 .684-.552 1.188-1.188 1.188zm5.184-3.648c1.14 0 2.1-.888 2.1-2.076 0-1.2-.96-2.088-2.1-2.088-1.14 0-2.112.876-2.112 2.088 0 1.2.972 2.076 2.112 2.076zm.36 4.416l6.048-8.448h-1.128L22.12 42h1.128zm-.36-5.316c-.636 0-1.188-.504-1.188-1.176 0-.684.552-1.188 1.188-1.188.624 0 1.176.504 1.176 1.188 0 .672-.552 1.176-1.176 1.176zm5.64 5.448c1.152 0 2.112-.888 2.112-2.088 0-1.2-.972-2.076-2.112-2.076-1.14 0-2.1.888-2.1 2.076 0 1.2.96 2.088 2.1 2.088zm0-.9c-.624 0-1.176-.504-1.176-1.188 0-.672.552-1.176 1.176-1.176.636 0 1.188.504 1.188 1.176 0 .684-.552 1.188-1.188 1.188zm5.184-3.648c1.14 0 2.1-.888 2.1-2.076 0-1.2-.96-2.088-2.1-2.088-1.14 0-2.112.876-2.112 2.088 0 1.2.972 2.076 2.112 2.076zm.36 4.416l6.048-8.448h-1.128L32.944 42h1.128zm-.36-5.316c-.636 0-1.188-.504-1.188-1.176 0-.684.552-1.188 1.188-1.188.624 0 1.176.504 1.176 1.188 0 .672-.552 1.176-1.176 1.176zm5.64 5.448c1.152 0 2.112-.888 2.112-2.088 0-1.2-.972-2.076-2.112-2.076-1.14 0-2.1.888-2.1 2.076 0 1.2.96 2.088 2.1 2.088zm0-.9c-.624 0-1.176-.504-1.176-1.188 0-.672.552-1.176 1.176-1.176.636 0 1.188.504 1.188 1.176 0 .684-.552 1.188-1.188 1.188zm5.184-3.648c1.14 0 2.1-.888 2.1-2.076 0-1.2-.96-2.088-2.1-2.088-1.14 0-2.112.876-2.112 2.088 0 1.2.972 2.076 2.112 2.076zm.36 4.416l6.048-8.448h-1.128L43.768 42h1.128zm-.36-5.316c-.636 0-1.188-.504-1.188-1.176 0-.684.552-1.188 1.188-1.188.624 0 1.176.504 1.176 1.188 0 .672-.552 1.176-1.176 1.176zm5.64 5.448c1.152 0 2.112-.888 2.112-2.088 0-1.2-.972-2.076-2.112-2.076-1.14 0-2.1.888-2.1 2.076 0 1.2.96 2.088 2.1 2.088zm0-.9c-.624 0-1.176-.504-1.176-1.188 0-.672.552-1.176 1.176-1.176.636 0 1.188.504 1.188 1.176 0 .684-.552 1.188-1.188 1.188zm5.184-3.648c1.14 0 2.1-.888 2.1-2.076 0-1.2-.96-2.088-2.1-2.088-1.14 0-2.112.876-2.112 2.088 0 1.2.972 2.076 2.112 2.076zM55.72 42l6.048-8.448H60.64L54.592 42h1.128zm-.36-5.316c-.636 0-1.188-.504-1.188-1.176 0-.684.552-1.188 1.188-1.188.624 0 1.176.504 1.176 1.188 0 .672-.552 1.176-1.176 1.176zM61 42.132c1.152 0 2.112-.888 2.112-2.088 0-1.2-.972-2.076-2.112-2.076-1.14 0-2.1.888-2.1 2.076 0 1.2.96 2.088 2.1 2.088zm0-.9c-.624 0-1.176-.504-1.176-1.188 0-.672.552-1.176 1.176-1.176.636 0 1.188.504 1.188 1.176 0 .684-.552 1.188-1.188 1.188zm-81.408 7.352c1.14 0 2.1-.888 2.1-2.076 0-1.2-.96-2.088-2.1-2.088-1.14 0-2.112.876-2.112 2.088 0 1.2.972 2.076 2.112 2.076zm.36 4.416L-14 44.552h-1.128L-21.176 53h1.128zm-.36-5.316c-.636 0-1.188-.504-1.188-1.176 0-.684.552-1.188 1.188-1.188.624 0 1.176.504 1.176 1.188 0 .672-.552 1.176-1.176 1.176zm5.64 5.448c1.152 0 2.112-.888 2.112-2.088 0-1.2-.972-2.076-2.112-2.076-1.14 0-2.1.888-2.1 2.076 0 1.2.96 2.088 2.1 2.088zm0-.9c-.624 0-1.176-.504-1.176-1.188 0-.672.552-1.176 1.176-1.176.636 0 1.188.504 1.188 1.176 0 .684-.552 1.188-1.188 1.188zm5.184-3.648c1.14 0 2.1-.888 2.1-2.076 0-1.2-.96-2.088-2.1-2.088-1.14 0-2.112.876-2.112 2.088 0 1.2.972 2.076 2.112 2.076zm.36 4.416l6.048-8.448h-1.128L-10.352 53h1.128zm-.36-5.316c-.636 0-1.188-.504-1.188-1.176 0-.684.552-1.188 1.188-1.188.624 0 1.176.504 1.176 1.188 0 .672-.552 1.176-1.176 1.176zm5.64 5.448c1.152 0 2.112-.888 2.112-2.088 0-1.2-.972-2.076-2.112-2.076-1.14 0-2.1.888-2.1 2.076 0 1.2.96 2.088 2.1 2.088zm0-.9c-.624 0-1.176-.504-1.176-1.188 0-.672.552-1.176 1.176-1.176.636 0 1.188.504 1.188 1.176 0 .684-.552 1.188-1.188 1.188zm5.184-3.648c1.14 0 2.1-.888 2.1-2.076 0-1.2-.96-2.088-2.1-2.088-1.14 0-2.112.876-2.112 2.088 0 1.2.972 2.076 2.112 2.076zM1.6 53l6.048-8.448H6.52L.472 53H1.6zm-.36-5.316c-.636 0-1.188-.504-1.188-1.176 0-.684.552-1.188 1.188-1.188.624 0 1.176.504 1.176 1.188 0 .672-.552 1.176-1.176 1.176zm5.64 5.448c1.152 0 2.112-.888 2.112-2.088 0-1.2-.972-2.076-2.112-2.076-1.14 0-2.1.888-2.1 2.076 0 1.2.96 2.088 2.1 2.088zm0-.9c-.624 0-1.176-.504-1.176-1.188 0-.672.552-1.176 1.176-1.176.636 0 1.188.504 1.188 1.176 0 .684-.552 1.188-1.188 1.188zm5.184-3.648c1.14 0 2.1-.888 2.1-2.076 0-1.2-.96-2.088-2.1-2.088-1.14 0-2.112.876-2.112 2.088 0 1.2.972 2.076 2.112 2.076zm.36 4.416l6.048-8.448h-1.128L11.296 53h1.128zm-.36-5.316c-.636 0-1.188-.504-1.188-1.176 0-.684.552-1.188 1.188-1.188.624 0 1.176.504 1.176 1.188 0 .672-.552 1.176-1.176 1.176zm5.64 5.448c1.152 0 2.112-.888 2.112-2.088 0-1.2-.972-2.076-2.112-2.076-1.14 0-2.1.888-2.1 2.076 0 1.2.96 2.088 2.1 2.088zm0-.9c-.624 0-1.176-.504-1.176-1.188 0-.672.552-1.176 1.176-1.176.636 0 1.188.504 1.188 1.176 0 .684-.552 1.188-1.188 1.188zm5.184-3.648c1.14 0 2.1-.888 2.1-2.076 0-1.2-.96-2.088-2.1-2.088-1.14 0-2.112.876-2.112 2.088 0 1.2.972 2.076 2.112 2.076zm.36 4.416l6.048-8.448h-1.128L22.12 53h1.128zm-.36-5.316c-.636 0-1.188-.504-1.188-1.176 0-.684.552-1.188 1.188-1.188.624 0 1.176.504 1.176 1.188 0 .672-.552 1.176-1.176 1.176zm5.64 5.448c1.152 0 2.112-.888 2.112-2.088 0-1.2-.972-2.076-2.112-2.076-1.14 0-2.1.888-2.1 2.076 0 1.2.96 2.088 2.1 2.088zm0-.9c-.624 0-1.176-.504-1.176-1.188 0-.672.552-1.176 1.176-1.176.636 0 1.188.504 1.188 1.176 0 .684-.552 1.188-1.188 1.188zm5.184-3.648c1.14 0 2.1-.888 2.1-2.076 0-1.2-.96-2.088-2.1-2.088-1.14 0-2.112.876-2.112 2.088 0 1.2.972 2.076 2.112 2.076zm.36 4.416l6.048-8.448h-1.128L32.944 53h1.128zm-.36-5.316c-.636 0-1.188-.504-1.188-1.176 0-.684.552-1.188 1.188-1.188.624 0 1.176.504 1.176 1.188 0 .672-.552 1.176-1.176 1.176zm5.64 5.448c1.152 0 2.112-.888 2.112-2.088 0-1.2-.972-2.076-2.112-2.076-1.14 0-2.1.888-2.1 2.076 0 1.2.96 2.088 2.1 2.088zm0-.9c-.624 0-1.176-.504-1.176-1.188 0-.672.552-1.176 1.176-1.176.636 0 1.188.504 1.188 1.176 0 .684-.552 1.188-1.188 1.188zm5.184-3.648c1.14 0 2.1-.888 2.1-2.076 0-1.2-.96-2.088-2.1-2.088-1.14 0-2.112.876-2.112 2.088 0 1.2.972 2.076 2.112 2.076zm.36 4.416l6.048-8.448h-1.128L43.768 53h1.128zm-.36-5.316c-.636 0-1.188-.504-1.188-1.176 0-.684.552-1.188 1.188-1.188.624 0 1.176.504 1.176 1.188 0 .672-.552 1.176-1.176 1.176zm5.64 5.448c1.152 0 2.112-.888 2.112-2.088 0-1.2-.972-2.076-2.112-2.076-1.14 0-2.1.888-2.1 2.076 0 1.2.96 2.088 2.1 2.088zm0-.9c-.624 0-1.176-.504-1.176-1.188 0-.672.552-1.176 1.176-1.176.636 0 1.188.504 1.188 1.176 0 .684-.552 1.188-1.188 1.188zm5.184-3.648c1.14 0 2.1-.888 2.1-2.076 0-1.2-.96-2.088-2.1-2.088-1.14 0-2.112.876-2.112 2.088 0 1.2.972 2.076 2.112 2.076zM55.72 53l6.048-8.448H60.64L54.592 53h1.128zm-.36-5.316c-.636 0-1.188-.504-1.188-1.176 0-.684.552-1.188 1.188-1.188.624 0 1.176.504 1.176 1.188 0 .672-.552 1.176-1.176 1.176zM61 53.132c1.152 0 2.112-.888 2.112-2.088 0-1.2-.972-2.076-2.112-2.076-1.14 0-2.1.888-2.1 2.076 0 1.2.96 2.088 2.1 2.088zm0-.9c-.624 0-1.176-.504-1.176-1.188 0-.672.552-1.176 1.176-1.176.636 0 1.188.504 1.188 1.176 0 .684-.552 1.188-1.188 1.188zm-81.408 7.352c1.14 0 2.1-.888 2.1-2.076 0-1.2-.96-2.088-2.1-2.088-1.14 0-2.112.876-2.112 2.088 0 1.2.972 2.076 2.112 2.076zm.36 4.416L-14 55.552h-1.128L-21.176 64h1.128zm-.36-5.316c-.636 0-1.188-.504-1.188-1.176 0-.684.552-1.188 1.188-1.188.624 0 1.176.504 1.176 1.188 0 .672-.552 1.176-1.176 1.176zm5.64 5.448c1.152 0 2.112-.888 2.112-2.088 0-1.2-.972-2.076-2.112-2.076-1.14 0-2.1.888-2.1 2.076 0 1.2.96 2.088 2.1 2.088zm0-.9c-.624 0-1.176-.504-1.176-1.188 0-.672.552-1.176 1.176-1.176.636 0 1.188.504 1.188 1.176 0 .684-.552 1.188-1.188 1.188zm5.184-3.648c1.14 0 2.1-.888 2.1-2.076 0-1.2-.96-2.088-2.1-2.088-1.14 0-2.112.876-2.112 2.088 0 1.2.972 2.076 2.112 2.076zm.36 4.416l6.048-8.448h-1.128L-10.352 64h1.128zm-.36-5.316c-.636 0-1.188-.504-1.188-1.176 0-.684.552-1.188 1.188-1.188.624 0 1.176.504 1.176 1.188 0 .672-.552 1.176-1.176 1.176zm5.64 5.448c1.152 0 2.112-.888 2.112-2.088 0-1.2-.972-2.076-2.112-2.076-1.14 0-2.1.888-2.1 2.076 0 1.2.96 2.088 2.1 2.088zm0-.9c-.624 0-1.176-.504-1.176-1.188 0-.672.552-1.176 1.176-1.176.636 0 1.188.504 1.188 1.176 0 .684-.552 1.188-1.188 1.188zm5.184-3.648c1.14 0 2.1-.888 2.1-2.076 0-1.2-.96-2.088-2.1-2.088-1.14 0-2.112.876-2.112 2.088 0 1.2.972 2.076 2.112 2.076zM1.6 64l6.048-8.448H6.52L.472 64H1.6zm-.36-5.316c-.636 0-1.188-.504-1.188-1.176 0-.684.552-1.188 1.188-1.188.624 0 1.176.504 1.176 1.188 0 .672-.552 1.176-1.176 1.176zm5.64 5.448c1.152 0 2.112-.888 2.112-2.088 0-1.2-.972-2.076-2.112-2.076-1.14 0-2.1.888-2.1 2.076 0 1.2.96 2.088 2.1 2.088zm0-.9c-.624 0-1.176-.504-1.176-1.188 0-.672.552-1.176 1.176-1.176.636 0 1.188.504 1.188 1.176 0 .684-.552 1.188-1.188 1.188zm5.184-3.648c1.14 0 2.1-.888 2.1-2.076 0-1.2-.96-2.088-2.1-2.088-1.14 0-2.112.876-2.112 2.088 0 1.2.972 2.076 2.112 2.076zm.36 4.416l6.048-8.448h-1.128L11.296 64h1.128zm-.36-5.316c-.636 0-1.188-.504-1.188-1.176 0-.684.552-1.188 1.188-1.188.624 0 1.176.504 1.176 1.188 0 .672-.552 1.176-1.176 1.176zm5.64 5.448c1.152 0 2.112-.888 2.112-2.088 0-1.2-.972-2.076-2.112-2.076-1.14 0-2.1.888-2.1 2.076 0 1.2.96 2.088 2.1 2.088zm0-.9c-.624 0-1.176-.504-1.176-1.188 0-.672.552-1.176 1.176-1.176.636 0 1.188.504 1.188 1.176 0 .684-.552 1.188-1.188 1.188zm5.184-3.648c1.14 0 2.1-.888 2.1-2.076 0-1.2-.96-2.088-2.1-2.088-1.14 0-2.112.876-2.112 2.088 0 1.2.972 2.076 2.112 2.076zm.36 4.416l6.048-8.448h-1.128L22.12 64h1.128zm-.36-5.316c-.636 0-1.188-.504-1.188-1.176 0-.684.552-1.188 1.188-1.188.624 0 1.176.504 1.176 1.188 0 .672-.552 1.176-1.176 1.176zm5.64 5.448c1.152 0 2.112-.888 2.112-2.088 0-1.2-.972-2.076-2.112-2.076-1.14 0-2.1.888-2.1 2.076 0 1.2.96 2.088 2.1 2.088zm0-.9c-.624 0-1.176-.504-1.176-1.188 0-.672.552-1.176 1.176-1.176.636 0 1.188.504 1.188 1.176 0 .684-.552 1.188-1.188 1.188zm5.184-3.648c1.14 0 2.1-.888 2.1-2.076 0-1.2-.96-2.088-2.1-2.088-1.14 0-2.112.876-2.112 2.088 0 1.2.972 2.076 2.112 2.076zm.36 4.416l6.048-8.448h-1.128L32.944 64h1.128zm-.36-5.316c-.636 0-1.188-.504-1.188-1.176 0-.684.552-1.188 1.188-1.188.624 0 1.176.504 1.176 1.188 0 .672-.552 1.176-1.176 1.176zm5.64 5.448c1.152 0 2.112-.888 2.112-2.088 0-1.2-.972-2.076-2.112-2.076-1.14 0-2.1.888-2.1 2.076 0 1.2.96 2.088 2.1 2.088zm0-.9c-.624 0-1.176-.504-1.176-1.188 0-.672.552-1.176 1.176-1.176.636 0 1.188.504 1.188 1.176 0 .684-.552 1.188-1.188 1.188zm5.184-3.648c1.14 0 2.1-.888 2.1-2.076 0-1.2-.96-2.088-2.1-2.088-1.14 0-2.112.876-2.112 2.088 0 1.2.972 2.076 2.112 2.076zm.36 4.416l6.048-8.448h-1.128L43.768 64h1.128zm-.36-5.316c-.636 0-1.188-.504-1.188-1.176 0-.684.552-1.188 1.188-1.188.624 0 1.176.504 1.176 1.188 0 .672-.552 1.176-1.176 1.176zm5.64 5.448c1.152 0 2.112-.888 2.112-2.088 0-1.2-.972-2.076-2.112-2.076-1.14 0-2.1.888-2.1 2.076 0 1.2.96 2.088 2.1 2.088zm0-.9c-.624 0-1.176-.504-1.176-1.188 0-.672.552-1.176 1.176-1.176.636 0 1.188.504 1.188 1.176 0 .684-.552 1.188-1.188 1.188zm5.184-3.648c1.14 0 2.1-.888 2.1-2.076 0-1.2-.96-2.088-2.1-2.088-1.14 0-2.112.876-2.112 2.088 0 1.2.972 2.076 2.112 2.076zM55.72 64l6.048-8.448H60.64L54.592 64h1.128zm-.36-5.316c-.636 0-1.188-.504-1.188-1.176 0-.684.552-1.188 1.188-1.188.624 0 1.176.504 1.176 1.188 0 .672-.552 1.176-1.176 1.176zM61 64.132c1.152 0 2.112-.888 2.112-2.088 0-1.2-.972-2.076-2.112-2.076-1.14 0-2.1.888-2.1 2.076 0 1.2.96 2.088 2.1 2.088zm0-.9c-.624 0-1.176-.504-1.176-1.188 0-.672.552-1.176 1.176-1.176.636 0 1.188.504 1.188 1.176 0 .684-.552 1.188-1.188 1.188zm-81.408 7.352c1.14 0 2.1-.888 2.1-2.076 0-1.2-.96-2.088-2.1-2.088-1.14 0-2.112.876-2.112 2.088 0 1.2.972 2.076 2.112 2.076zm.36 4.416L-14 66.552h-1.128L-21.176 75h1.128zm-.36-5.316c-.636 0-1.188-.504-1.188-1.176 0-.684.552-1.188 1.188-1.188.624 0 1.176.504 1.176 1.188 0 .672-.552 1.176-1.176 1.176zm5.64 5.448c1.152 0 2.112-.888 2.112-2.088 0-1.2-.972-2.076-2.112-2.076-1.14 0-2.1.888-2.1 2.076 0 1.2.96 2.088 2.1 2.088zm0-.9c-.624 0-1.176-.504-1.176-1.188 0-.672.552-1.176 1.176-1.176.636 0 1.188.504 1.188 1.176 0 .684-.552 1.188-1.188 1.188zm5.184-3.648c1.14 0 2.1-.888 2.1-2.076 0-1.2-.96-2.088-2.1-2.088-1.14 0-2.112.876-2.112 2.088 0 1.2.972 2.076 2.112 2.076zm.36 4.416l6.048-8.448h-1.128L-10.352 75h1.128zm-.36-5.316c-.636 0-1.188-.504-1.188-1.176 0-.684.552-1.188 1.188-1.188.624 0 1.176.504 1.176 1.188 0 .672-.552 1.176-1.176 1.176zm5.64 5.448c1.152 0 2.112-.888 2.112-2.088 0-1.2-.972-2.076-2.112-2.076-1.14 0-2.1.888-2.1 2.076 0 1.2.96 2.088 2.1 2.088zm0-.9c-.624 0-1.176-.504-1.176-1.188 0-.672.552-1.176 1.176-1.176.636 0 1.188.504 1.188 1.176 0 .684-.552 1.188-1.188 1.188zm5.184-3.648c1.14 0 2.1-.888 2.1-2.076 0-1.2-.96-2.088-2.1-2.088-1.14 0-2.112.876-2.112 2.088 0 1.2.972 2.076 2.112 2.076zM1.6 75l6.048-8.448H6.52L.472 75H1.6zm-.36-5.316c-.636 0-1.188-.504-1.188-1.176 0-.684.552-1.188 1.188-1.188.624 0 1.176.504 1.176 1.188 0 .672-.552 1.176-1.176 1.176zm5.64 5.448c1.152 0 2.112-.888 2.112-2.088 0-1.2-.972-2.076-2.112-2.076-1.14 0-2.1.888-2.1 2.076 0 1.2.96 2.088 2.1 2.088zm0-.9c-.624 0-1.176-.504-1.176-1.188 0-.672.552-1.176 1.176-1.176.636 0 1.188.504 1.188 1.176 0 .684-.552 1.188-1.188 1.188zm5.184-3.648c1.14 0 2.1-.888 2.1-2.076 0-1.2-.96-2.088-2.1-2.088-1.14 0-2.112.876-2.112 2.088 0 1.2.972 2.076 2.112 2.076zm.36 4.416l6.048-8.448h-1.128L11.296 75h1.128zm-.36-5.316c-.636 0-1.188-.504-1.188-1.176 0-.684.552-1.188 1.188-1.188.624 0 1.176.504 1.176 1.188 0 .672-.552 1.176-1.176 1.176zm5.64 5.448c1.152 0 2.112-.888 2.112-2.088 0-1.2-.972-2.076-2.112-2.076-1.14 0-2.1.888-2.1 2.076 0 1.2.96 2.088 2.1 2.088zm0-.9c-.624 0-1.176-.504-1.176-1.188 0-.672.552-1.176 1.176-1.176.636 0 1.188.504 1.188 1.176 0 .684-.552 1.188-1.188 1.188zm5.184-3.648c1.14 0 2.1-.888 2.1-2.076 0-1.2-.96-2.088-2.1-2.088-1.14 0-2.112.876-2.112 2.088 0 1.2.972 2.076 2.112 2.076zm.36 4.416l6.048-8.448h-1.128L22.12 75h1.128zm-.36-5.316c-.636 0-1.188-.504-1.188-1.176 0-.684.552-1.188 1.188-1.188.624 0 1.176.504 1.176 1.188 0 .672-.552 1.176-1.176 1.176zm5.64 5.448c1.152 0 2.112-.888 2.112-2.088 0-1.2-.972-2.076-2.112-2.076-1.14 0-2.1.888-2.1 2.076 0 1.2.96 2.088 2.1 2.088zm0-.9c-.624 0-1.176-.504-1.176-1.188 0-.672.552-1.176 1.176-1.176.636 0 1.188.504 1.188 1.176 0 .684-.552 1.188-1.188 1.188zm5.184-3.648c1.14 0 2.1-.888 2.1-2.076 0-1.2-.96-2.088-2.1-2.088-1.14 0-2.112.876-2.112 2.088 0 1.2.972 2.076 2.112 2.076zm.36 4.416l6.048-8.448h-1.128L32.944 75h1.128zm-.36-5.316c-.636 0-1.188-.504-1.188-1.176 0-.684.552-1.188 1.188-1.188.624 0 1.176.504 1.176 1.188 0 .672-.552 1.176-1.176 1.176zm5.64 5.448c1.152 0 2.112-.888 2.112-2.088 0-1.2-.972-2.076-2.112-2.076-1.14 0-2.1.888-2.1 2.076 0 1.2.96 2.088 2.1 2.088zm0-.9c-.624 0-1.176-.504-1.176-1.188 0-.672.552-1.176 1.176-1.176.636 0 1.188.504 1.188 1.176 0 .684-.552 1.188-1.188 1.188zm5.184-3.648c1.14 0 2.1-.888 2.1-2.076 0-1.2-.96-2.088-2.1-2.088-1.14 0-2.112.876-2.112 2.088 0 1.2.972 2.076 2.112 2.076zm.36 4.416l6.048-8.448h-1.128L43.768 75h1.128zm-.36-5.316c-.636 0-1.188-.504-1.188-1.176 0-.684.552-1.188 1.188-1.188.624 0 1.176.504 1.176 1.188 0 .672-.552 1.176-1.176 1.176zm5.64 5.448c1.152 0 2.112-.888 2.112-2.088 0-1.2-.972-2.076-2.112-2.076-1.14 0-2.1.888-2.1 2.076 0 1.2.96 2.088 2.1 2.088zm0-.9c-.624 0-1.176-.504-1.176-1.188 0-.672.552-1.176 1.176-1.176.636 0 1.188.504 1.188 1.176 0 .684-.552 1.188-1.188 1.188zm5.184-3.648c1.14 0 2.1-.888 2.1-2.076 0-1.2-.96-2.088-2.1-2.088-1.14 0-2.112.876-2.112 2.088 0 1.2.972 2.076 2.112 2.076zM55.72 75l6.048-8.448H60.64L54.592 75h1.128zm-.36-5.316c-.636 0-1.188-.504-1.188-1.176 0-.684.552-1.188 1.188-1.188.624 0 1.176.504 1.176 1.188 0 .672-.552 1.176-1.176 1.176zM61 75.132c1.152 0 2.112-.888 2.112-2.088 0-1.2-.972-2.076-2.112-2.076-1.14 0-2.1.888-2.1 2.076 0 1.2.96 2.088 2.1 2.088zm0-.9c-.624 0-1.176-.504-1.176-1.188 0-.672.552-1.176 1.176-1.176.636 0 1.188.504 1.188 1.176 0 .684-.552 1.188-1.188 1.188zm-81.408 7.352c1.14 0 2.1-.888 2.1-2.076 0-1.2-.96-2.088-2.1-2.088-1.14 0-2.112.876-2.112 2.088 0 1.2.972 2.076 2.112 2.076zm.36 4.416L-14 77.552h-1.128L-21.176 86h1.128zm-.36-5.316c-.636 0-1.188-.504-1.188-1.176 0-.684.552-1.188 1.188-1.188.624 0 1.176.504 1.176 1.188 0 .672-.552 1.176-1.176 1.176zm5.64 5.448c1.152 0 2.112-.888 2.112-2.088 0-1.2-.972-2.076-2.112-2.076-1.14 0-2.1.888-2.1 2.076 0 1.2.96 2.088 2.1 2.088zm0-.9c-.624 0-1.176-.504-1.176-1.188 0-.672.552-1.176 1.176-1.176.636 0 1.188.504 1.188 1.176 0 .684-.552 1.188-1.188 1.188zm5.184-3.648c1.14 0 2.1-.888 2.1-2.076 0-1.2-.96-2.088-2.1-2.088-1.14 0-2.112.876-2.112 2.088 0 1.2.972 2.076 2.112 2.076zm.36 4.416l6.048-8.448h-1.128L-10.352 86h1.128zm-.36-5.316c-.636 0-1.188-.504-1.188-1.176 0-.684.552-1.188 1.188-1.188.624 0 1.176.504 1.176 1.188 0 .672-.552 1.176-1.176 1.176zm5.64 5.448c1.152 0 2.112-.888 2.112-2.088 0-1.2-.972-2.076-2.112-2.076-1.14 0-2.1.888-2.1 2.076 0 1.2.96 2.088 2.1 2.088zm0-.9c-.624 0-1.176-.504-1.176-1.188 0-.672.552-1.176 1.176-1.176.636 0 1.188.504 1.188 1.176 0 .684-.552 1.188-1.188 1.188zm5.184-3.648c1.14 0 2.1-.888 2.1-2.076 0-1.2-.96-2.088-2.1-2.088-1.14 0-2.112.876-2.112 2.088 0 1.2.972 2.076 2.112 2.076zM1.6 86l6.048-8.448H6.52L.472 86H1.6zm-.36-5.316c-.636 0-1.188-.504-1.188-1.176 0-.684.552-1.188 1.188-1.188.624 0 1.176.504 1.176 1.188 0 .672-.552 1.176-1.176 1.176zm5.64 5.448c1.152 0 2.112-.888 2.112-2.088 0-1.2-.972-2.076-2.112-2.076-1.14 0-2.1.888-2.1 2.076 0 1.2.96 2.088 2.1 2.088zm0-.9c-.624 0-1.176-.504-1.176-1.188 0-.672.552-1.176 1.176-1.176.636 0 1.188.504 1.188 1.176 0 .684-.552 1.188-1.188 1.188zm5.184-3.648c1.14 0 2.1-.888 2.1-2.076 0-1.2-.96-2.088-2.1-2.088-1.14 0-2.112.876-2.112 2.088 0 1.2.972 2.076 2.112 2.076zm.36 4.416l6.048-8.448h-1.128L11.296 86h1.128zm-.36-5.316c-.636 0-1.188-.504-1.188-1.176 0-.684.552-1.188 1.188-1.188.624 0 1.176.504 1.176 1.188 0 .672-.552 1.176-1.176 1.176zm5.64 5.448c1.152 0 2.112-.888 2.112-2.088 0-1.2-.972-2.076-2.112-2.076-1.14 0-2.1.888-2.1 2.076 0 1.2.96 2.088 2.1 2.088zm0-.9c-.624 0-1.176-.504-1.176-1.188 0-.672.552-1.176 1.176-1.176.636 0 1.188.504 1.188 1.176 0 .684-.552 1.188-1.188 1.188zm5.184-3.648c1.14 0 2.1-.888 2.1-2.076 0-1.2-.96-2.088-2.1-2.088-1.14 0-2.112.876-2.112 2.088 0 1.2.972 2.076 2.112 2.076zm.36 4.416l6.048-8.448h-1.128L22.12 86h1.128zm-.36-5.316c-.636 0-1.188-.504-1.188-1.176 0-.684.552-1.188 1.188-1.188.624 0 1.176.504 1.176 1.188 0 .672-.552 1.176-1.176 1.176zm5.64 5.448c1.152 0 2.112-.888 2.112-2.088 0-1.2-.972-2.076-2.112-2.076-1.14 0-2.1.888-2.1 2.076 0 1.2.96 2.088 2.1 2.088zm0-.9c-.624 0-1.176-.504-1.176-1.188 0-.672.552-1.176 1.176-1.176.636 0 1.188.504 1.188 1.176 0 .684-.552 1.188-1.188 1.188zm5.184-3.648c1.14 0 2.1-.888 2.1-2.076 0-1.2-.96-2.088-2.1-2.088-1.14 0-2.112.876-2.112 2.088 0 1.2.972 2.076 2.112 2.076zm.36 4.416l6.048-8.448h-1.128L32.944 86h1.128zm-.36-5.316c-.636 0-1.188-.504-1.188-1.176 0-.684.552-1.188 1.188-1.188.624 0 1.176.504 1.176 1.188 0 .672-.552 1.176-1.176 1.176zm5.64 5.448c1.152 0 2.112-.888 2.112-2.088 0-1.2-.972-2.076-2.112-2.076-1.14 0-2.1.888-2.1 2.076 0 1.2.96 2.088 2.1 2.088zm0-.9c-.624 0-1.176-.504-1.176-1.188 0-.672.552-1.176 1.176-1.176.636 0 1.188.504 1.188 1.176 0 .684-.552 1.188-1.188 1.188zm5.184-3.648c1.14 0 2.1-.888 2.1-2.076 0-1.2-.96-2.088-2.1-2.088-1.14 0-2.112.876-2.112 2.088 0 1.2.972 2.076 2.112 2.076zm.36 4.416l6.048-8.448h-1.128L43.768 86h1.128zm-.36-5.316c-.636 0-1.188-.504-1.188-1.176 0-.684.552-1.188 1.188-1.188.624 0 1.176.504 1.176 1.188 0 .672-.552 1.176-1.176 1.176zm5.64 5.448c1.152 0 2.112-.888 2.112-2.088 0-1.2-.972-2.076-2.112-2.076-1.14 0-2.1.888-2.1 2.076 0 1.2.96 2.088 2.1 2.088zm0-.9c-.624 0-1.176-.504-1.176-1.188 0-.672.552-1.176 1.176-1.176.636 0 1.188.504 1.188 1.176 0 .684-.552 1.188-1.188 1.188zm5.184-3.648c1.14 0 2.1-.888 2.1-2.076 0-1.2-.96-2.088-2.1-2.088-1.14 0-2.112.876-2.112 2.088 0 1.2.972 2.076 2.112 2.076zM55.72 86l6.048-8.448H60.64L54.592 86h1.128zm-.36-5.316c-.636 0-1.188-.504-1.188-1.176 0-.684.552-1.188 1.188-1.188.624 0 1.176.504 1.176 1.188 0 .672-.552 1.176-1.176 1.176zM61 86.132c1.152 0 2.112-.888 2.112-2.088 0-1.2-.972-2.076-2.112-2.076-1.14 0-2.1.888-2.1 2.076 0 1.2.96 2.088 2.1 2.088zm0-.9c-.624 0-1.176-.504-1.176-1.188 0-.672.552-1.176 1.176-1.176.636 0 1.188.504 1.188 1.176 0 .684-.552 1.188-1.188 1.188zm-81.408 7.352c1.14 0 2.1-.888 2.1-2.076 0-1.2-.96-2.088-2.1-2.088-1.14 0-2.112.876-2.112 2.088 0 1.2.972 2.076 2.112 2.076zm.36 4.416L-14 88.552h-1.128L-21.176 97h1.128zm-.36-5.316c-.636 0-1.188-.504-1.188-1.176 0-.684.552-1.188 1.188-1.188.624 0 1.176.504 1.176 1.188 0 .672-.552 1.176-1.176 1.176zm5.64 5.448c1.152 0 2.112-.888 2.112-2.088 0-1.2-.972-2.076-2.112-2.076-1.14 0-2.1.888-2.1 2.076 0 1.2.96 2.088 2.1 2.088zm0-.9c-.624 0-1.176-.504-1.176-1.188 0-.672.552-1.176 1.176-1.176.636 0 1.188.504 1.188 1.176 0 .684-.552 1.188-1.188 1.188zm5.184-3.648c1.14 0 2.1-.888 2.1-2.076 0-1.2-.96-2.088-2.1-2.088-1.14 0-2.112.876-2.112 2.088 0 1.2.972 2.076 2.112 2.076zm.36 4.416l6.048-8.448h-1.128L-10.352 97h1.128zm-.36-5.316c-.636 0-1.188-.504-1.188-1.176 0-.684.552-1.188 1.188-1.188.624 0 1.176.504 1.176 1.188 0 .672-.552 1.176-1.176 1.176zm5.64 5.448c1.152 0 2.112-.888 2.112-2.088 0-1.2-.972-2.076-2.112-2.076-1.14 0-2.1.888-2.1 2.076 0 1.2.96 2.088 2.1 2.088zm0-.9c-.624 0-1.176-.504-1.176-1.188 0-.672.552-1.176 1.176-1.176.636 0 1.188.504 1.188 1.176 0 .684-.552 1.188-1.188 1.188zm5.184-3.648c1.14 0 2.1-.888 2.1-2.076 0-1.2-.96-2.088-2.1-2.088-1.14 0-2.112.876-2.112 2.088 0 1.2.972 2.076 2.112 2.076zM1.6 97l6.048-8.448H6.52L.472 97H1.6zm-.36-5.316c-.636 0-1.188-.504-1.188-1.176 0-.684.552-1.188 1.188-1.188.624 0 1.176.504 1.176 1.188 0 .672-.552 1.176-1.176 1.176zm5.64 5.448c1.152 0 2.112-.888 2.112-2.088 0-1.2-.972-2.076-2.112-2.076-1.14 0-2.1.888-2.1 2.076 0 1.2.96 2.088 2.1 2.088zm0-.9c-.624 0-1.176-.504-1.176-1.188 0-.672.552-1.176 1.176-1.176.636 0 1.188.504 1.188 1.176 0 .684-.552 1.188-1.188 1.188zm5.184-3.648c1.14 0 2.1-.888 2.1-2.076 0-1.2-.96-2.088-2.1-2.088-1.14 0-2.112.876-2.112 2.088 0 1.2.972 2.076 2.112 2.076zm.36 4.416l6.048-8.448h-1.128L11.296 97h1.128zm-.36-5.316c-.636 0-1.188-.504-1.188-1.176 0-.684.552-1.188 1.188-1.188.624 0 1.176.504 1.176 1.188 0 .672-.552 1.176-1.176 1.176zm5.64 5.448c1.152 0 2.112-.888 2.112-2.088 0-1.2-.972-2.076-2.112-2.076-1.14 0-2.1.888-2.1 2.076 0 1.2.96 2.088 2.1 2.088zm0-.9c-.624 0-1.176-.504-1.176-1.188 0-.672.552-1.176 1.176-1.176.636 0 1.188.504 1.188 1.176 0 .684-.552 1.188-1.188 1.188zm5.184-3.648c1.14 0 2.1-.888 2.1-2.076 0-1.2-.96-2.088-2.1-2.088-1.14 0-2.112.876-2.112 2.088 0 1.2.972 2.076 2.112 2.076zm.36 4.416l6.048-8.448h-1.128L22.12 97h1.128zm-.36-5.316c-.636 0-1.188-.504-1.188-1.176 0-.684.552-1.188 1.188-1.188.624 0 1.176.504 1.176 1.188 0 .672-.552 1.176-1.176 1.176zm5.64 5.448c1.152 0 2.112-.888 2.112-2.088 0-1.2-.972-2.076-2.112-2.076-1.14 0-2.1.888-2.1 2.076 0 1.2.96 2.088 2.1 2.088zm0-.9c-.624 0-1.176-.504-1.176-1.188 0-.672.552-1.176 1.176-1.176.636 0 1.188.504 1.188 1.176 0 .684-.552 1.188-1.188 1.188zm5.184-3.648c1.14 0 2.1-.888 2.1-2.076 0-1.2-.96-2.088-2.1-2.088-1.14 0-2.112.876-2.112 2.088 0 1.2.972 2.076 2.112 2.076zm.36 4.416l6.048-8.448h-1.128L32.944 97h1.128zm-.36-5.316c-.636 0-1.188-.504-1.188-1.176 0-.684.552-1.188 1.188-1.188.624 0 1.176.504 1.176 1.188 0 .672-.552 1.176-1.176 1.176zm5.64 5.448c1.152 0 2.112-.888 2.112-2.088 0-1.2-.972-2.076-2.112-2.076-1.14 0-2.1.888-2.1 2.076 0 1.2.96 2.088 2.1 2.088zm0-.9c-.624 0-1.176-.504-1.176-1.188 0-.672.552-1.176 1.176-1.176.636 0 1.188.504 1.188 1.176 0 .684-.552 1.188-1.188 1.188zm5.184-3.648c1.14 0 2.1-.888 2.1-2.076 0-1.2-.96-2.088-2.1-2.088-1.14 0-2.112.876-2.112 2.088 0 1.2.972 2.076 2.112 2.076zm.36 4.416l6.048-8.448h-1.128L43.768 97h1.128zm-.36-5.316c-.636 0-1.188-.504-1.188-1.176 0-.684.552-1.188 1.188-1.188.624 0 1.176.504 1.176 1.188 0 .672-.552 1.176-1.176 1.176zm5.64 5.448c1.152 0 2.112-.888 2.112-2.088 0-1.2-.972-2.076-2.112-2.076-1.14 0-2.1.888-2.1 2.076 0 1.2.96 2.088 2.1 2.088zm0-.9c-.624 0-1.176-.504-1.176-1.188 0-.672.552-1.176 1.176-1.176.636 0 1.188.504 1.188 1.176 0 .684-.552 1.188-1.188 1.188zm5.184-3.648c1.14 0 2.1-.888 2.1-2.076 0-1.2-.96-2.088-2.1-2.088-1.14 0-2.112.876-2.112 2.088 0 1.2.972 2.076 2.112 2.076zM55.72 97l6.048-8.448H60.64L54.592 97h1.128zm-.36-5.316c-.636 0-1.188-.504-1.188-1.176 0-.684.552-1.188 1.188-1.188.624 0 1.176.504 1.176 1.188 0 .672-.552 1.176-1.176 1.176zM61 97.132c1.152 0 2.112-.888 2.112-2.088 0-1.2-.972-2.076-2.112-2.076-1.14 0-2.1.888-2.1 2.076 0 1.2.96 2.088 2.1 2.088zm0-.9c-.624 0-1.176-.504-1.176-1.188 0-.672.552-1.176 1.176-1.176.636 0 1.188.504 1.188 1.176 0 .684-.552 1.188-1.188 1.188z" mask="url(#5c5x3n0qnb)"/>
                <path stroke="#F4F5F5" d="M0 0L48 0 48 96 0 96z"/>
                <circle cx="24" cy="12" r="4" fill="#F5F5F5" stroke="#0F0F10"/>
            </g>
            <path stroke="#0F0F10" d="M26.054 42.05c4.068-16.658 8.462-27.904 13.18-33.739C46.314-.44 58.21 5.113 55.492 15.255 53.68 22.017 43.016 33.481 23.5 49.647" transform="translate(36 5)"/>
        </g>
    </g>
</svg>
