<svg xmlns="http://www.w3.org/2000/svg" xmlns:xlink="http://www.w3.org/1999/xlink" width="120" height="144" viewBox="0 0 120 144">
    <defs>
        <ellipse id="l62iksrr3a" cx="32" cy="48" rx="32" ry="48"/>
    </defs>
    <g fill="none" fill-rule="evenodd">
        <path d="M0 0H120V144H0z"/>
        <g transform="translate(28 48)">
            <mask id="yykksrey1b" fill="#fff">
                <use xlink:href="#l62iksrr3a"/>
            </mask>
            <use fill="#F5F5F5" xlink:href="#l62iksrr3a"/>
            <g stroke="#1D1D1B" mask="url(#yykksrey1b)">
                <path stroke-dasharray="17 2" d="M25.341 46.588c-2.775 3.469-6.18 6.284-8.395 10.23-3.465 6.175-.029 13.048 7.287 14.6 8.953 1.899 23.294-4.78 29.596-28.71 8.202-31.147-17.736-34.695-20.396-21.615-1.834 9.018-.173 15.597-8.092 25.495z"/>
                <path stroke-dasharray="17 2" d="M32.214 15.994c5.207-7.087 20.34-7.681 24.94 7.427 3.96 13.003-3.47 42.02-24.497 50.99-12.036 5.133-22.864-5.454-20.839-14.078 2.064-8.794 10.353-13.585 13.634-19.177 4.877-8.313 2.37-19.186 6.762-25.162z"/>
                <path stroke-dasharray="17 2" d="M37.313 8.345c-11.972 2.217-11.12 15.646-11.16 16.016-2.473 23.037-10.36 20.052-16.902 31.905-5.303 9.61 4.57 28.593 23.407 22.468 20.845-6.78 28.758-36.25 28.206-48.77"/>
                <path stroke-dasharray="17 2" d="M29.43 8.56c-10.604 9.337-3.534 23.174-14.144 34.45-2.649 2.814-6.465 7.228-8.235 10.672-8.313 16.183 8.06 36.386 28.82 27.933 15.52-6.318 23.39-25.495 27.46-40.949M41.081 8.456c14.207-.56 17.957 11.196 19.62 18.512M31.993 7.126C34.21 5.907 44.075 3.024 52.085 8.34"/>
                <path stroke-dasharray="17 2" d="M44.4 2.804c-5.85-1.116-12.134.276-16.963 3.76-4.72 3.405-7.216 9.643-8.066 15.314-.806 5.375-1.92 10.739-4.59 15.566C11.917 42.63 7.05 46.51 4.145 51.746c-2.178 3.924-2.931 7.811-2.372 12.34"/>
                <path stroke-dasharray="17 2" d="M34.763 1.03c-13.925 3.886-17.402 13.856-20.396 27.6C11.465 41.96 2.717 42.78.844 51.91"/>
                <path stroke-dasharray="17 2" d="M30.22.475C17.4 4.645 12.961 20.643 11.152 26.857 7.827 38.274 2.507 40.27.733 43.483M24.524 1.008C9.047 9.121 11.153 30.848.734 37.72M.278 32.57C9.453 26.44 7.163 11.005 18.61 3.184M10.156 9.897C4.613 16.77 5.469 24.66.89 27.717M63.03 51.354C51.612 87.158 29.11 88.71 21.24 87.158 9.75 84.892 2.936 74.15 2.396 67.648M63.03 59.114C53 87.162 25.23 100.238 8.16 83.944M63.03 65.321c-2.328 6.983-15.74 30.483-39.462 28.598M3.492 18.316c-.832 1.68-1.423 3.48-1.745 5.33M62.032 71.972c-3.77 7.981-12.193 18.844-25.938 23.056"/>
                <path stroke-dasharray="16.847 1.982" d="M43.188 58.116C32.13 72.292 18.691 69.533 19.466 61.33c.648-6.842 13.524-15.297 14.965-23.056.836-4.501 1.044-13.319 2.707-17.459 1.839-4.576 11.919-6.443 14.474 4.379 1.885 7.981.222 21.837-8.424 32.922z"/>
                <path stroke-dasharray="17 2" d="M49.507 29.208c1.218 15.052-5.688 25.32-13.857 31.9-7.98 6.43-15.456 2.858-10.863-3.768 6.09-8.785 12.876-10.572 13.634-23.832.222-3.88-.11-12.415 3.987-13.513 4.525-1.212 6.661 3.783 7.1 9.213z"/>
                <path stroke-dasharray="16.688 1.963" d="M29.776 55.899C42.633 43.04 41.415 37.166 41.414 26.274c0-4.114 5.127-6.192 5.794 2.33 1.079 13.772-5.793 25.522-15.076 31.662-4.028 2.665-7.696.973-2.356-4.367z"/>
                <path stroke-dasharray="17 2" d="M44.033 26.436c2.37 17.824-8.383 28.909-14.625 32.735"/>
            </g>
        </g>
    </g>
</svg>
