<svg xmlns="http://www.w3.org/2000/svg" xmlns:xlink="http://www.w3.org/1999/xlink" width="182" height="48" viewBox="0 0 182 48">
    <defs>
        <path id="4g1h599faa" d="M0 0.948L45.916 0.948 45.916 46.736 0 46.736z"/>
    </defs>
    <g fill="none" fill-rule="evenodd">
        <path fill="#0F0F10" d="M68.472 40.85c-8.376 0-13.92-6.012-13.92-15.092 0-8.354 5.341-15.012 14.163-15.012 6.92 0 11.978 4.359 12.464 10.29h-6.191c-.649-3.147-2.996-5.004-6.394-5.004-5.544 0-7.689 4.964-7.689 9.765 0 5.934 2.954 9.727 7.608 9.727 3.804 0 6.07-2.26 6.595-6.457h6.273c-.647 7.021-5.017 11.784-12.909 11.784M88.504 22.527c1.623-2.17 3.64-3.237 6.45-3.237 4.985 0 7.162 2.802 7.162 7.538v13.336h-5.619V28.17c0-2.486-.594-4.3-3.601-4.3-3.719 0-4.392 2.92-4.392 5.918v10.377h-5.539V12.07h5.54v10.457zM118.106 24.618c-.99-.197-1.543-.236-2.176-.236-3.877 0-5.382 2.761-5.382 6.471v9.312h-5.618v-20.36h5.34v3.747c1.267-2.644 3.562-4.221 6.61-4.221.434 0 .672.039 1.226.118v5.17zM123.303 29.985c0 4.182 1.82 6.588 4.946 6.588 3.086 0 4.906-2.446 4.906-6.629 0-4.063-1.86-6.47-4.985-6.47-3.007 0-4.867 2.446-4.867 6.51m15.471 0c0 6.55-4.154 10.812-10.525 10.812-6.37 0-10.565-4.301-10.565-10.811 0-6.473 4.235-10.772 10.644-10.772 6.292 0 10.446 4.3 10.446 10.772M153.61 40.165V28.287c0-2.525-.475-4.418-3.482-4.418-3.363 0-4.431 2.406-4.431 5.366v10.93h-5.58V19.804h5.342v2.84c1.622-2.17 3.878-3.392 6.766-3.392 4.313 0 7.084 2.564 7.084 7.3v13.613h-5.7zM166.19 29.985c0 4.182 1.82 6.588 4.947 6.588 3.087 0 4.906-2.446 4.906-6.629 0-4.063-1.86-6.47-4.985-6.47-3.008 0-4.868 2.446-4.868 6.51m15.472 0c0 6.55-4.155 10.812-10.525 10.812s-10.565-4.301-10.565-10.811c0-6.473 4.234-10.772 10.645-10.772 6.29 0 10.445 4.3 10.445 10.772M25.019 17.113L18.903 28.92h-2.37l6.107-11.807h2.379zM14.987 29.86h4.49l7.09-13.688h-4.502L14.987 29.86z"/>
        <g transform="translate(0 .315)">
            <mask id="mmv8b8932b" fill="#fff">
                <use xlink:href="#4g1h599faa"/>
            </mask>
            <path fill="#0F0F10" d="M25.143 38.564V21.568h-.218l-3.48 6.719v10.361c-7.531-.756-13.41-7.096-13.41-14.806 0-8.218 6.682-14.882 14.923-14.882 8.242 0 14.924 6.664 14.924 14.882 0 7.479-5.535 13.667-12.74 14.722M22.959.948C10.278.948-.001 11.198-.001 23.842c0 12.644 10.28 22.894 22.959 22.894 12.68 0 22.958-10.25 22.958-22.894C45.916 11.198 35.638.948 22.958.948" mask="url(#mmv8b8932b)"/>
        </g>
    </g>
</svg>
