<svg xmlns="http://www.w3.org/2000/svg" width="442" height="401" viewBox="0 0 442 401">
    <g fill="none" fill-rule="evenodd">
        <g>
            <g transform="translate(-495 -7217) translate(496 7217)">
                <path fill="#0F0F10" stroke="#F5F5F5" stroke-linejoin="bevel" d="M0 256L220 16 220 80 0 320z"/>
                <path fill="#0F0F10" stroke="#F5F5F5" stroke-linejoin="bevel" d="M220 80L440 160 220 400 0 320z"/>
                <path fill="#0F0F10" stroke="#F5F5F5" stroke-linejoin="bevel" d="M220 16L440 96 440 160 220 80zM128 116L238 156 238 220 128 180z"/>
                <g>
                    <path stroke="#F5F5F5" d="M31.914 127.207C14.29 127.207 0 119.234 0 109.397 0 99.563 14.289 91.59 31.914 91.59M31.914 91.589c17.626 0 31.915 5.695 31.915 12.72 0 7.026-14.289 12.721-31.915 12.721" transform="translate(96 147)"/>
                    <path stroke="#F5F5F5" d="M31.914 117.03C14.29 117.03 0 109.057 0 99.221c0-9.835 14.289-17.809 31.914-17.809M31.914 81.412c17.626 0 31.915 5.695 31.915 12.721 0 7.025-14.289 12.72-31.915 12.72" transform="translate(96 147)"/>
                    <path stroke="#F5F5F5" d="M31.914 106.854C14.29 106.854 0 98.88 0 89.044c0-9.835 14.289-17.808 31.914-17.808M31.914 71.236c17.626 0 31.915 5.695 31.915 12.72 0 7.026-14.289 12.721-31.915 12.721" transform="translate(96 147)"/>
                    <path stroke="#F5F5F5" d="M31.914 96.677C14.29 96.677 0 88.704 0 78.868 0 69.033 14.289 61.06 31.914 61.06M31.914 61.06c17.626 0 31.915 5.694 31.915 12.72 0 7.025-14.289 12.72-31.915 12.72" transform="translate(96 147)"/>
                    <path stroke="#F5F5F5" d="M31.914 86.5C14.29 86.5 0 78.528 0 68.693c0-9.836 14.289-17.81 31.914-17.81M31.914 50.883c17.626 0 31.915 5.695 31.915 12.72S49.54 76.324 31.914 76.324" transform="translate(96 147)"/>
                    <path stroke="#F5F5F5" d="M31.914 76.324C14.29 76.324 0 68.351 0 58.515c0-9.835 14.289-17.809 31.914-17.809M31.914 40.706c17.626 0 31.915 5.695 31.915 12.72 0 7.026-14.289 12.722-31.915 12.722" transform="translate(96 147)"/>
                    <path stroke="#F5F5F5" d="M31.914 66.148C14.29 66.148 0 58.174 0 48.338 0 38.504 14.289 30.53 31.914 30.53M31.914 30.53c17.626 0 31.915 5.695 31.915 12.72S49.54 55.971 31.914 55.971" transform="translate(96 147)"/>
                    <path stroke="#F5F5F5" d="M31.914 55.971C14.29 55.971 0 47.998 0 38.162c0-9.836 14.289-17.809 31.914-17.809M31.914 20.353c17.626 0 31.915 5.695 31.915 12.72 0 7.026-14.289 12.721-31.915 12.721" transform="translate(96 147)"/>
                    <path stroke="#F5F5F5" d="M31.914 45.794C14.29 45.794 0 37.821 0 27.986c0-9.836 14.289-17.81 31.914-17.81M31.914 10.177c17.626 0 31.915 5.695 31.915 12.72s-14.289 12.72-31.915 12.72" transform="translate(96 147)"/>
                    <path fill="#F5F5F5" fill-rule="nonzero" d="M24.353-4.452l8.276 3.969.802.384-.745.485-7.69 5.012-.545-.837L30.543.59l-5.999.392C10.511 2.85.5 9.837.5 17.809c0 9.386 13.749 17.152 30.894 17.307l.52.002v1C14.05 36.118-.5 27.999-.5 17.809-.5 9.297 9.725 2.071 23.99.049l.456-.062 6.032-.393-6.557-3.144.432-.902z" transform="translate(96 147)"/>
                </g>
                <path fill="#0F0F10" stroke="#F5F5F5" stroke-linejoin="bevel" d="M110 296L330 56 330 120 110 360z"/>
                <path fill="#F5F5F5" stroke="#0F0F10" d="M399.995 116.165c-.427 21.478-27.503 40.488-50.248 54.835-22.522-14.55-50.086-34.057-49.744-55.775.402-25.332 30.404-32.384 50.53-13.47l6.472 6.824-5.733-6.596c23.497-22.773 49.13-6.21 48.723 14.182z"/>
                <g stroke="#0F0F10">
                    <path fill="#F5F5F5" d="M16 .51l5.928 1.179 5.025 3.358 3.358 5.025L31.491 16l-1.18 5.928-3.358 5.025-5.025 3.358L16 31.491l-5.928-1.18-5.025-3.358-3.358-5.025L.509 16l1.18-5.928 3.358-5.025 5.025-3.358L16 .509z" transform="translate(229 228)"/>
                    <g>
                        <path d="M3.5 3.5H19.5V19.5H3.5z" transform="translate(229 228) translate(4.5 4.5)"/>
                        <path d="M3.5 3.5L19.5 3.5 19.5 19.5 3.5 19.5z" transform="translate(229 228) translate(4.5 4.5) rotate(45 11.5 11.5)"/>
                    </g>
                    <path d="M16 26.8L10.26 29.858 8.363 23.637 2.142 21.74 5.2 16 2.142 10.26 8.363 8.363 10.26 2.142 16 5.2 21.74 2.142 23.637 8.363 29.858 10.26 26.8 16 29.858 21.74 23.637 23.637 21.74 29.858z" transform="translate(229 228)"/>
                    <path d="M27.5 16L32 16M16 27.5L16 32M4.5 16L0 16M16 4.75L16 0M24 24L27.25 27.25M24 8L27.25 4.75M8 8L4.75 4.75M8 24L4.75 27.25" transform="translate(229 228)"/>
                </g>
                <path fill="#0F0F10" stroke="#F5F5F5" stroke-linejoin="bevel" d="M249 144L359 184 359 248 249 208z"/>
                <g stroke="#0F0F10">
                    <path fill="#F5F5F5" d="M20.75.5l2.75 3.667v23.666L20.75 31.5H3.25L.5 27.833V4.167L3.25.5h17.5z" transform="translate(277 209)"/>
                    <path d="M18.5 4.5l2 2.667v17.666l-2 2.667h-13l-2-2.667V7.167l2-2.667h13z" transform="translate(277 209)"/>
                    <path d="M16.25 8.5l1.25 1.667v11.666L16.25 23.5h-8.5L6.5 21.833V10.167L7.75 8.5h8.5zM16.5 8.5L21 .5M17.5 10L23.5 4M17.5 22L23.5 28M16.5 23.5L21 31.5M7.5 23.5L3 31.5M6.5 22L.5 28M6.5 10L.5 4M7.5 8.5L3 .5" transform="translate(277 209)"/>
                </g>
                <g fill="#F5F5F5" fill-rule="nonzero">
                    <g>
                        <path d="M.183.127L8.28 20.223v.139L.183 47.969" transform="translate(240 177) translate(15.284)"/>
                        <path stroke="#0F0F10" stroke-linecap="round" d="M.183.127L8.28 20.223v.139L.183 47.969" transform="translate(240 177) translate(15.284)"/>
                    </g>
                    <g>
                        <path d="M15.466.127L.103 23.895v.139l15.363 23.935" transform="translate(240 177)"/>
                        <path stroke="#0F0F10" stroke-linecap="round" d="M15.466.127L.103 23.895v.139l15.363 23.935" transform="translate(240 177)"/>
                    </g>
                    <g stroke="#0F0F10">
                        <path d="M30.98 4.091L23.528.248M.1 3.866l7.198 3.953M30.945 3.95L23.565.054M.103 3.726l7.198 3.897" transform="translate(240 177) translate(0 20.17)"/>
                    </g>
                    <g>
                        <path d="M8.249.127L23.765 24.12v.139L8.249 47.969m0-47.842l7.488 27.777v.14L8.249 47.968m0-47.842L.08 27.792v.139L8.25 47.969" transform="translate(240 177) translate(7.217)"/>
                        <path stroke="#0F0F10" stroke-linecap="round" d="M8.249.127L23.765 24.12v.139L8.249 47.969m0-47.842l7.488 27.777v.14L8.249 47.968m0-47.842L.08 27.792v.139L8.25 47.969" transform="translate(240 177) translate(7.217)"/>
                    </g>
                    <g stroke="#0F0F10">
                        <path d="M15.7 4.11L23.765.27M.08 4.002l15.656.143m-.003-.23L23.801.13M.007 3.808l15.693.141" transform="translate(240 177) translate(7.217 23.99)"/>
                    </g>
                </g>
                <path fill="#0F0F10" stroke="#F5F5F5" stroke-linejoin="bevel" d="M175 225L285 265 285 329 175 289z"/>
                <g>
                    <path fill="#F5F5F5" stroke="#0F0F10" d="M64 5.912v64c-21.333-20.48-42.667 20.48-64 0v-64c21.333 20.48 42.667-20.48 64 0zm-26 9.221c-4 1.717-8 3.841-12 5.558v14c-4.667 2.004-9.333 3.456-14 3.071v12c4.667.385 9.333-1.068 14-3.07v14c4-1.718 8-3.842 12-5.559v-14c4.667-2.004 9.333-3.456 14-3.07v-12c-4.667-.386-9.333 1.067-14 3.07v-14z" transform="translate(169 261)"/>
                    <path fill="#0F0F10" d="M38 15.133c-4 1.717-8 3.841-12 5.558v14c-4.667 2.004-9.333 3.456-14 3.071v12c4.667.385 9.333-1.068 14-3.07v14c4-1.718 8-3.842 12-5.559v-14c4.667-2.004 9.333-3.456 14-3.07v-12c-4.667-.386-9.333 1.067-14 3.07v-14z" transform="translate(169 261)"/>
                </g>
                <path fill="#F5F5F5" stroke="#0F0F10" stroke-linejoin="bevel" d="M0 256L220 336 220 400 0 320z"/>
                <circle cx="102" cy="326" r="16" fill="#101010" stroke="#F5F5F5"/>
                <path fill="#F5F5F5" stroke="#0F0F10" stroke-linejoin="bevel" d="M220 336L440 96 440 160 220 400z"/>
                <g fill="#F5F5F5" stroke="#0F0F10">
                    <path d="M61.81 112.76l1.574 2.839-10.586 11.332H15.374L7.49 117.96l4.844-5.198H61.81z" transform="translate(189) rotate(180 35.407 119.846)"/>
                    <path d="M14.748 67.098l5.935 6.643-4.12 34.505-11.612 12.357-4.428-5.457 4.875-38.683 9.35-9.365zM77.714.5l1.574 2.838L68.703 14.67H30.535l-7.154-8.956L28.24.5h49.474zM20.778 8.32l7.48 9.276-4.12 34.885-8.984 8.638-5.917-5.927 5.248-40.919 6.293-5.953zM81.797 6.42l5.53 5.884-5.998 43.174-8.946 6.81-6.343-6.706 5.247-37.91L81.797 6.42zM72.248 67.049l5.995 7.063-4.875 39.055-6.705 6.715-8.577-9.305 4.864-36.723 9.298-6.805zM62.261 56.63l7.064 7.782-8.151 6.389h-37.48l-5.964-6.325c.455-.512.796-.888 1.227-1.365 1.226-1.354 3.186-3.514 5.879-6.48H62.26z" transform="translate(189)"/>
                </g>
            </g>
        </g>
    </g>
</svg>
