<svg xmlns="http://www.w3.org/2000/svg" width="59" height="16" viewBox="0 0 59 16">
    <defs>
        <linearGradient id="6f815x2usa" x1="100%" x2="0%" y1="62.904%" y2="62.904%">
            <stop offset="0%" stop-color="#1F5CD7"/>
            <stop offset="100%" stop-color="#02AEFF"/>
        </linearGradient>
    </defs>
    <g fill="none" fill-rule="evenodd">
        <g fill-rule="nonzero">
            <g>
                <path fill="#0E754E" d="M5.37.003C5.887 0 7.43-.14 8.081 2.065c.44 1.484 1.141 3.916 2.102 7.295h.392c1.031-3.562 1.74-5.994 2.125-7.295.66-2.227 2.31-2.062 2.97-2.062h5.09v15.835h-5.189V6.506h-.348l-2.892 9.332H8.43L5.536 6.499h-.348v9.339H0V.003h5.37zm22.84 0v9.339h.415l3.518-7.68c.683-1.528 2.138-1.66 2.138-1.66h5.021v15.836h-5.296V6.499h-.414l-3.45 7.68c-.682 1.52-2.207 1.659-2.207 1.659h-5.02V.003h5.296zm29.4 7.525c-.739 2.093-3.06 3.593-5.628 3.593h-5.555v4.717h-5.036v-8.31H57.61z" transform="translate(-465 -534) translate(465 534)"/>
                <path fill="url(#6f815x2usa)" d="M52.225.003H41.126c.265 3.525 3.3 6.543 6.444 6.543h10.39c.6-2.93-1.465-6.543-5.735-6.543z" transform="translate(-465 -534) translate(465 534)"/>
            </g>
        </g>
    </g>
</svg>
