<svg xmlns="http://www.w3.org/2000/svg" width="118" height="118" viewBox="0 0 118 118">
    <g fill="none" fill-rule="evenodd">
        <g transform="translate(-1003 -122) translate(1004 123)">
            <circle cx="58" cy="58" r="58" stroke="#0F0F10"/>
            <g stroke="#0F0F10">
                <path d="M0 22.627L22.627 0M0 22.627L11.314 33.941" transform="translate(58 35.373)"/>
            </g>
            <path fill="#0F0F10" fill-rule="nonzero" d="M55.852 13V4.552h-.96L52.66 6.016v1.128l1.968-1.236h.156V13h1.068zm7.62 0v-1.032h-3.744v-.132l2.052-2.112c.672-.696 1.512-1.536 1.512-2.88 0-1.368-.96-2.424-2.484-2.424-1.5 0-2.568.996-2.676 2.424h1.044c.096-.864.708-1.392 1.608-1.392.852 0 1.428.576 1.428 1.392 0 .972-.54 1.536-1.152 2.184l-2.904 3V13h5.316zM84.852 20L84.852 11.552 83.892 11.552 81.66 13.016 81.66 14.144 83.628 12.908 83.784 12.908 83.784 20zM103.12 37v-1.032h-3.744v-.132l2.052-2.112c.672-.696 1.512-1.536 1.512-2.88 0-1.368-.96-2.424-2.484-2.424-1.5 0-2.568.996-2.676 2.424h1.044c.096-.864.708-1.392 1.608-1.392.852 0 1.428.576 1.428 1.392 0 .972-.54 1.536-1.152 2.184l-2.904 3V37h5.316zM101.82 87L101.82 82.152 100.752 82.152 100.752 84.06 97.992 84.06 97.992 83.94 101.388 78.552 100.188 78.552 96.72 84.096 96.72 85.068 100.752 85.068 100.752 87zM82.54 103.132c1.572 0 2.748-1.14 2.748-2.796 0-1.644-1.212-2.688-2.556-2.688-.66 0-1.176.192-1.548.468h-.132l.396-2.532h3.288v-1.032h-4.104L79.9 99.46h1.068c.372-.516.876-.792 1.584-.792.912 0 1.656.636 1.656 1.668 0 1.044-.636 1.764-1.68 1.764-1.008 0-1.584-.6-1.668-1.176h-1.08c.096 1.2 1.152 2.208 2.76 2.208zM33.544 103L36.748 95.62 36.748 94.552 31.6 94.552 31.6 95.584 35.524 95.584 35.524 95.752 32.344 103zM16.492 87.132c1.62 0 2.76-.972 2.76-2.436 0-1.188-.744-1.836-1.26-2.04v-.132c.444-.252 1.032-.792 1.032-1.824 0-1.296-.996-2.28-2.532-2.28-1.548 0-2.544.984-2.544 2.28 0 1.032.588 1.572 1.032 1.824v.132c-.516.204-1.26.852-1.26 2.04 0 1.464 1.152 2.436 2.772 2.436zm0-4.944c-.816 0-1.476-.564-1.476-1.404 0-.852.6-1.404 1.476-1.404.864 0 1.464.552 1.464 1.404 0 .84-.66 1.404-1.464 1.404zm0 3.984c-1.02 0-1.692-.624-1.692-1.524 0-.96.732-1.56 1.692-1.56s1.68.6 1.68 1.56c0 .9-.672 1.524-1.68 1.524zM15.852 37v-8.448h-.96l-2.232 1.464v1.128l1.968-1.236h.156V37h1.068zm5.256.132c1.8 0 2.868-1.344 2.892-3.192.012-.768.012-1.56 0-2.328-.024-1.848-1.092-3.192-2.892-3.192-1.8 0-2.868 1.344-2.892 3.192-.012.732-.012 1.62 0 2.328.024 1.824 1.08 3.192 2.892 3.192zm0-1.032c-1.164 0-1.8-.876-1.824-2.184-.012-.708-.012-1.56 0-2.28.024-1.308.66-2.184 1.824-2.184 1.188 0 1.812.912 1.824 2.184.024 1.092.012 1.8 0 2.28-.012 1.272-.636 2.184-1.824 2.184zM31.852 20v-8.448h-.96l-2.232 1.464v1.128l1.968-1.236h.156V20h1.068zm5.352 0v-8.448h-.96l-2.232 1.464v1.128l1.968-1.236h.156V20h1.068zM58.444 111.132c1.44 0 2.688-1.08 2.688-2.772 0-1.656-1.224-2.616-2.46-2.616-.384 0-.672.084-.876.168v-.132l1.932-3.228h-1.152l-2.136 3.588c-.468.78-.72 1.476-.72 2.244 0 1.536 1.02 2.748 2.724 2.748zm0-1.032c-.84 0-1.632-.624-1.632-1.716 0-1.08.792-1.68 1.632-1.68.828 0 1.596.6 1.596 1.68 0 1.092-.756 1.716-1.596 1.716zM7.276 63l2.136-3.588c.468-.78.72-1.476.72-2.244 0-1.536-1.008-2.748-2.724-2.748-1.44 0-2.676 1.08-2.676 2.772 0 1.656 1.212 2.616 2.448 2.616.384 0 .66-.072.876-.156v.12L6.124 63h1.152zm.132-4.152c-.828 0-1.584-.6-1.584-1.68 0-1.092.744-1.716 1.584-1.716.84 0 1.644.624 1.644 1.716 0 1.08-.804 1.68-1.644 1.68zM108.468 63.132c1.548 0 2.676-1.2 2.676-2.616 0-1.524-.924-2.448-2.292-2.568v-.108l1.896-2.304v-.984h-4.74v1.032h3.336v.12l-1.836 2.244v.972h.792c1.08 0 1.764.576 1.764 1.572 0 .924-.672 1.608-1.596 1.608-.936 0-1.668-.564-1.728-1.38h-1.056c.036 1.524 1.308 2.412 2.784 2.412z"/>
        </g>
    </g>s
</svg>
