<svg xmlns="http://www.w3.org/2000/svg" width="118" height="118" viewBox="0 0 118 118">
    <g fill="none" fill-rule="evenodd">
        <g>
            <g transform="translate(-1127 -122) translate(1128 123)">
                <circle cx="58" cy="58" r="58" stroke="#0F0F10"/>
                <g stroke="#0F0F10">
                    <path d="M0 22.627L22.627 0M0 22.627L11.314 33.941" transform="translate(58 35.373)"/>
                </g>
                <path fill="#0F0F10" fill-rule="nonzero" d="M84.122 105.433L86.438 96.985 85.286 96.985 83.306 104.401 82.79 104.401 80.822 96.985 79.67 96.985 81.998 105.433z" transform="rotate(150 83.054 101.209)"/>
                <path fill="#0F0F10" fill-rule="nonzero" d="M96.648 86.598V78.15H95.58v8.448h1.068zm3.228 0V78.15h-1.068v8.448h1.068zm3.228 0V78.15h-1.068v8.448h1.068zm3.228 0V78.15h-1.068v8.448h1.068z" transform="rotate(120 100.956 82.374)"/>
                <path fill="#0F0F10" fill-rule="nonzero" d="M52.656 13l2.028-3.396h.156L56.892 13h1.248l-2.52-4.14v-.18l2.496-4.128h-1.224l-2.016 3.336h-.168L52.68 4.552h-1.236l2.544 4.164v.204L51.42 13h1.236zm8.052 0V4.552H59.64V13h1.068zm3.228 0V4.552h-1.068V13h1.068z"/>
                <path fill="#0F0F10" fill-rule="nonzero" d="M84.148 19L84.148 10.552 83.08 10.552 83.08 19z" transform="rotate(30 83.614 14.776)"/>
                <path fill="#0F0F10" fill-rule="nonzero" d="M58.872 112l2.316-8.448h-1.152l-1.98 7.416h-.516l-1.968-7.416H54.42L56.748 112h2.124zm4.884 0v-8.448h-1.068V112h1.068z" transform="rotate(180 59.088 107.776)"/>
                <path fill="#0F0F10" fill-rule="nonzero" d="M31.872 105l2.316-8.448h-1.152l-1.98 7.416h-.516l-1.968-7.416H27.42L29.748 105h2.124zm4.884 0v-8.448h-1.068V105h1.068zm3.228 0v-8.448h-1.068V105h1.068z" transform="rotate(-150 33.702 100.776)"/>
                <path fill="#0F0F10" fill-rule="nonzero" d="M13.073 86.25l2.316-8.448h-1.152l-1.98 7.416h-.516l-1.968-7.416H8.621l2.328 8.448h2.124zm4.884 0v-8.448h-1.068v8.448h1.068zm3.228 0v-8.448h-1.068v8.448h1.068zm3.228 0v-8.448h-1.068v8.448h1.068z" transform="rotate(-120 16.517 82.026)"/>
                <path fill="#0F0F10" fill-rule="nonzero" d="M5.648 62.5v-8.448H4.58V62.5h1.068zm2.736 0l2.028-3.396h.156L12.62 62.5h1.248l-2.52-4.14v-.18l2.496-4.128H12.62l-2.016 3.336h-.168l-2.028-3.336H7.172l2.544 4.164v.204L7.148 62.5h1.236z" transform="rotate(-90 9.224 58.276)"/>
                <path fill="#0F0F10" fill-rule="nonzero" d="M13.656 37.954L15.684 34.558 15.84 34.558 17.892 37.954 19.14 37.954 16.62 33.814 16.62 33.634 19.116 29.506 17.892 29.506 15.876 32.842 15.708 32.842 13.68 29.506 12.444 29.506 14.988 33.67 14.988 33.874 12.42 37.954z" transform="rotate(-60 15.78 33.73)"/>
                <path fill="#0F0F10" fill-rule="nonzero" d="M27.906 20.655l2.028-3.396h.156l2.052 3.396h1.248l-2.52-4.14v-.18l2.496-4.128h-1.224l-2.016 3.336h-.168l-2.028-3.336h-1.236l2.544 4.164v.204l-2.568 4.08h1.236zm8.052 0v-8.448H34.89v8.448h1.068z" transform="rotate(-30 31.314 16.431)"/>
                <path fill="#0F0F10" fill-rule="nonzero" d="M99.947 37.75v-8.448h-1.068v8.448h1.068zm3.228 0v-8.448h-1.068v8.448h1.068z" transform="rotate(60 101.027 33.526)"/>
                <path fill="#0F0F10" fill-rule="nonzero" d="M104.148 62v-8.448h-1.068V62h1.068zm3.228 0v-8.448h-1.068V62h1.068zm3.228 0v-8.448h-1.068V62h1.068z" transform="rotate(90 106.842 57.776)"/>
            </g>
        </g>
    </g>
</svg>
