<svg xmlns="http://www.w3.org/2000/svg" width="118" height="118" viewBox="0 0 118 118">
    <g fill="none" fill-rule="evenodd">
        <g>
            <g transform="translate(-1251 -122) translate(1252 123)">
                <circle cx="58" cy="58" r="58" stroke="#0F0F10"/>
                <g stroke="#0F0F10">
                    <path d="M0 22.627L22.627 0M0 22.627L11.314 33.941" transform="translate(58 35.373)"/>
                </g>
                <path d="M58 0c20.72 0 39.87 11.05 50.23 29s10.36 40.05 0 58C97.87 104.95 78.72 116 58 116c-20.72 0-39.87-11.05-50.23-29s-10.36-40.05 0-58C18.13 11.05 37.28 0 58 0v8c-17.86 0-34.37 9.53-43.3 25s-8.93 34.53 0 50c8.93 15.47 25.44 25 43.3 25 17.86 0 34.37-9.53 43.3-25s8.93-34.53 0-50C92.37 17.53 75.86 8 58 8V0z"/>
                <path fill="#0F0F10" d="M57.5 0h1l-.07 8h-.86l-.07-8zM86.57 7.52c.29.16.57.33.86.5l-4.06 6.9c-.25-.15-.49-.3-.74-.44l3.94-6.96zM107.98 28.57c.17.29.34.57.5.86l-6.96 3.94c-.14-.25-.29-.49-.44-.74l6.9-4.06zM116 57.5v1l-8-.07v-.86l8-.07zM108.48 86.57c-.16.29-.33.57-.5.86l-6.9-4.06c.15-.25.3-.49.44-.74l6.96 3.94zM87.43 107.98c-.29.17-.57.34-.86.5l-3.94-6.96c.25-.14.49-.29.74-.44l4.06 6.9zM58.5 116h-1l.07-8h.86l.07 8zM29.43 108.48c-.29-.16-.57-.33-.86-.5l4.06-6.9c.25.15.49.3.74.44l-3.94 6.96zM8.02 87.43c-.17-.29-.34-.57-.5-.86l6.96-3.94c.14.25.29.49.44.74l-6.9 4.06zM0 58.5v-1l8 .07v.86l-8 .07zM7.52 29.43c.16-.29.33-.57.5-.86l6.9 4.06c-.15.25-.3.49-.44.74l-6.96-3.94zM28.57 8.02c.29-.17.57-.34.86-.5l3.94 6.96c-.25.14-.49.29-.74.44l-4.06-6.9z"/>
            </g>
        </g>
    </g>
</svg>
