<svg xmlns="http://www.w3.org/2000/svg" width="32" height="32" viewBox="0 0 32 32">
    <g fill="none" fill-rule="evenodd">
        <path d="M0 0H32V32H0z" transform="translate(-1296 -1001) translate(1296 1001)"/>
        <g stroke="#0F0F10">
            <path d="M11.557 6.017L9.66 11.709" transform="translate(-1296 -1001) translate(1296 1001) translate(0 17) rotate(-3.435 10.609 8.863)"/>
            <path d="M3.228 1.86L1.331 7.552" transform="translate(-1296 -1001) translate(1296 1001) translate(0 17) rotate(17.565 2.28 4.706)"/>
            <path d="M22.34 6.017L20.443 11.709" transform="translate(-1296 -1001) translate(1296 1001) translate(0 17) scale(-1 1) rotate(-3.435 0 722.273)"/>
            <path d="M30.669 1.86L28.772 7.552" transform="translate(-1296 -1001) translate(1296 1001) translate(0 17) scale(-1 1) rotate(17.565 0 -187.663)"/>
            <path d="M31 7c-4.522-4.634-9.509-7-15-7C10.5 0 5.528 2.351 1 7" transform="translate(-1296 -1001) translate(1296 1001) translate(0 17) matrix(1 0 0 -1 0 7)"/>
        </g>
    </g>
</svg>
