<svg xmlns="http://www.w3.org/2000/svg" xmlns:xlink="http://www.w3.org/1999/xlink" width="258" height="153" viewBox="0 0 258 153">
    <defs>
        <path id="yktcuuu9ta" d="M128 128c47.128 0 89.795-21.333 128-64-38.205-42.667-80.872-64-128-64S38.205 21.333 0 64c38.205 42.667 80.872 64 128 64z"/>
    </defs>
    <g fill="none" fill-rule="evenodd">
        <g>
            <g>
                <g transform="translate(-591 -6969) translate(592 6969) translate(0 24)">
                    <g transform="translate(64)">
                        <g>
                            <path fill="#101010" stroke="#101010" d="M128 64.516v-1.032l-5.196-.866c-.019-.793-.048-1.584-.096-2.368l5.094-1.313-.09-1.03-5.239-.408c-.086-.79-.181-1.577-.3-2.358l4.944-1.746-.18-1.017-5.242.05c-.156-.78-.336-1.551-.521-2.32l4.779-2.174-.267-.997-5.226.507c-.223-.762-.462-1.517-.715-2.265l4.572-2.583-.353-.97-5.162.96c-.29-.74-.589-1.472-.907-2.197l4.326-2.969-.436-.935-5.056 1.406c-.353-.711-.712-1.418-1.092-2.112l4.046-3.332-.516-.894-4.91 1.84c-.412-.678-.843-1.343-1.283-2.002l3.748-3.677-.593-.845-4.74 2.264c-.469-.638-.956-1.26-1.45-1.877l3.42-4-.664-.79-4.533 2.675c-.522-.594-1.058-1.174-1.603-1.746l3.06-4.285-.73-.73-4.284 3.061c-.572-.546-1.152-1.08-1.746-1.603l2.675-4.533-.79-.663-4 3.42c-.617-.495-1.24-.982-1.877-1.45l2.264-4.742-.845-.592-3.677 3.748c-.659-.44-1.324-.87-2.002-1.285l1.84-4.908-.894-.516-3.332 4.046c-.694-.38-1.4-.739-2.112-1.092l1.406-5.056-.935-.436-2.97 4.326c-.724-.318-1.457-.618-2.196-.907l.96-5.162-.97-.353-2.583 4.572c-.748-.253-1.503-.492-2.265-.715l.507-5.226-.997-.267-2.174 4.78c-.769-.186-1.54-.366-2.32-.522l.05-5.243-1.017-.18-1.746 4.944c-.78-.118-1.568-.213-2.358-.3L70.092.289l-1.029-.09-1.313 5.094c-.784-.048-1.575-.077-2.368-.096L64.516 0h-1.032l-.866 5.196c-.793.019-1.584.048-2.368.096L58.936.198l-1.028.09-.41 5.239c-.789.086-1.576.181-2.357.3L53.395.882l-1.017.18.05 5.242c-.78.156-1.551.336-2.32.521l-2.174-4.779-.997.267.507 5.226c-.762.223-1.517.462-2.265.715l-2.583-4.572-.97.353.96 5.162c-.74.29-1.472.589-2.197.907L37.42 5.779l-.935.436 1.406 5.056c-.711.353-1.418.712-2.112 1.092l-3.332-4.046-.894.516 1.84 4.908c-.678.414-1.343.845-2.002 1.285l-3.677-3.748-.845.592 2.264 4.741c-.638.469-1.261.956-1.877 1.45l-4-3.42-.79.664 2.675 4.533c-.594.522-1.174 1.058-1.746 1.603l-4.285-3.06-.73.73 3.061 4.284c-.545.572-1.08 1.152-1.603 1.746l-4.533-2.675-.663.79 3.42 4c-.495.617-.982 1.24-1.452 1.877l-4.739-2.264-.593.845 3.748 3.677c-.44.659-.87 1.324-1.285 2.002l-4.908-1.84-.516.894 4.046 3.332c-.38.694-.74 1.4-1.092 2.112l-5.057-1.406-.435.935 4.326 2.97c-.318.724-.618 1.457-.907 2.196l-5.162-.96-.353.97 4.572 2.583c-.253.748-.492 1.503-.715 2.265l-5.226-.507-.267.997 4.78 2.174c-.186.769-.366 1.54-.522 2.32l-5.243-.05-.18 1.017 4.944 1.746c-.118.78-.213 1.568-.3 2.358l-5.238.409-.09 1.029 5.094 1.313c-.048.784-.077 1.575-.096 2.368L0 63.484v1.032l5.196.866c.019.793.048 1.583.096 2.368L.198 69.063l.09 1.03 5.239.408c.086.79.181 1.577.3 2.358L.882 74.604l.18 1.018 5.242-.05c.156.78.336 1.551.521 2.32l-4.779 2.173.267.998 5.226-.507c.223.762.462 1.517.715 2.265l-4.572 2.583.353.97 5.162-.96c.29.74.589 1.472.907 2.196l-4.326 2.97.435.935 5.057-1.406c.352.711.712 1.418 1.092 2.112l-4.046 3.332.516.894 4.908-1.84c.414.678.845 1.343 1.285 2.002l-3.748 3.677.593.845 4.74-2.264c.469.638.956 1.26 1.45 1.877l-3.42 4 .664.79 4.533-2.675c.522.594 1.058 1.174 1.603 1.746l-3.06 4.285.73.73 4.284-3.061c.572.545 1.152 1.08 1.746 1.603l-2.675 4.533.79.663 4-3.42c.616.495 1.24.982 1.877 1.45l-2.264 4.741.845.593 3.677-3.748c.659.44 1.324.87 2.002 1.285l-1.84 4.908.894.516 3.332-4.046c.694.38 1.4.739 2.112 1.092l-1.406 5.056.935.436 2.97-4.326c.724.318 1.457.618 2.196.907l-.96 5.162.97.353 2.583-4.572c.748.253 1.503.492 2.265.715l-.507 5.226.997.267 2.174-4.78c.769.186 1.54.366 2.32.522l-.05 5.243 1.017.18 1.746-4.944c.78.118 1.568.213 2.358.3l.409 5.238 1.028.09 1.314-5.094c.784.048 1.575.077 2.368.096l.866 5.196h1.032l.866-5.196c.793-.019 1.584-.048 2.368-.096l1.313 5.094 1.03-.09.408-5.239c.79-.086 1.577-.181 2.358-.3l1.746 4.944 1.017-.18-.05-5.242c.78-.156 1.551-.336 2.32-.521l2.174 4.779.997-.267-.507-5.226c.762-.223 1.517-.462 2.265-.715l2.583 4.572.97-.353-.96-5.162c.74-.29 1.472-.589 2.197-.907l2.969 4.326.935-.436-1.406-5.056c.711-.353 1.418-.712 2.112-1.092l3.332 4.046.894-.516-1.84-4.908c.678-.414 1.343-.845 2.002-1.285l3.677 3.748.845-.593-2.264-4.74c.638-.469 1.26-.956 1.877-1.45l4 3.42.79-.664-2.675-4.533c.594-.522 1.174-1.058 1.746-1.603l4.285 3.06.73-.73-3.061-4.284c.545-.572 1.08-1.152 1.603-1.746l4.533 2.675.663-.79-3.42-4c.495-.617.982-1.24 1.45-1.877l4.741 2.264.593-.845-3.748-3.677c.44-.659.87-1.324 1.284-2.002l4.909 1.84.516-.894-4.046-3.332c.38-.694.739-1.4 1.092-2.112l5.056 1.406.436-.935-4.326-2.97c.318-.724.619-1.457.907-2.196l5.162.96.353-.97-4.572-2.583c.253-.748.492-1.503.715-2.265l5.226.507.267-.998-4.78-2.173c.186-.769.366-1.54.522-2.32l5.243.05.18-1.018-4.944-1.745c.118-.78.213-1.568.3-2.358l5.238-.409.09-1.029-5.094-1.313c.048-.785.077-1.575.096-2.368l5.196-.866z"/>
                            <circle cx="64" cy="64" r="52" fill="#F5F5F5" stroke="#101010"/>
                            <path stroke="#101010" d="M77 67.483L77 15.483" transform="rotate(30 77 41.483)"/>
                            <path stroke="#101010" d="M64.704 77.44L114.159 61.371" transform="rotate(30 89.432 69.406)"/>
                            <path stroke="#101010" d="M51.435 68.823L82 110.892" transform="rotate(30 66.718 89.858)"/>
                            <path stroke="#101010" d="M55.53 53.541L24.965 95.61" transform="rotate(30 40.248 74.575)"/>
                            <path stroke="#101010" d="M71.33 52.713L21.875 36.644" transform="rotate(30 46.603 44.678)"/>
                            <circle cx="64" cy="64" r="8" fill="#F9F9F9" stroke="#0F0F10"/>
                            <circle cx="64" cy="64" r="2" fill="#F9F9F9" stroke="#0F0F10"/>
                        </g>
                        <circle cx="65" cy="64" r="16" fill="#101010" stroke="#F5F5F5"/>
                    </g>
                    <use stroke="#101010" xlink:href="#yktcuuu9ta"/>
                </g>
                <path fill="#F5F5F5" stroke="#0F0F10" d="M79.816 56.348c-5.332-5.44-13.272-8.223-23.816-8.35 10.544-.123 18.484-2.906 23.816-8.346C85.15 34.213 87.877 20.993 87.998 0c.125 20.993 2.853 34.213 8.186 39.652 5.332 5.44 13.268 8.223 23.816 8.346-10.548.127-18.484 2.91-23.816 8.35C90.85 61.787 88.123 75.003 87.998 96c-.12-20.997-2.85-34.213-8.182-39.652z" transform="translate(-591 -6969) translate(592 6969)"/>
            </g>
        </g>
    </g>
</svg>
