<svg xmlns="http://www.w3.org/2000/svg" width="65" height="56" viewBox="0 0 65 56">
    <g fill="none" fill-rule="evenodd">
        <path d="M0 0H64V56H0z"/>
        <g>
            <path stroke="#000" stroke-linecap="round" d="M.667 29.81c2.992-2.162 7.476-6.897 10.64-8.647 3.779-2.089 7.432-5.003 11.307-6.983 5.099-2.605 10.294-5.954 10.42-5.93 1.277.242 1.385 3.436-.286 5.965-1.344 2.033-3.316 2.64-5.632 4.621-1.273 1.091-4.635 4.543-4.502 5.043.089.334-.285-1.26 12.703 3.978 3.866 1.558 8.794 1.403 12.919 1.227 2.772-.118 5.55-.082 8.318.106 5.877.4 7.537 2.887 6.714 3.695-.437.43.034-.164-11.39 1.663-2.857.456-6.48 2.125-9.411 1.933-1.372-.09-12.78-.728-14.374.113" transform="translate(0 1)"/>
            <path stroke="#000" d="M52.543 24.323c-6.762-4.656-8.967-14.849-7.316-19.066M49.018.731c3.53-1.322 8.47 3.16 11.034 10.008 2.565 6.848 1.781 13.472-1.749 14.794" transform="translate(0 1)"/>
            <path stroke="#000" d="M51.424 13.97c2.564 6.849 1.78 13.472-1.75 14.794-3.528 1.32-8.47-3.16-11.033-10.008-2.565-6.85-1.781-13.473 1.749-14.794C43.919 2.64 48.86 7.12 51.424 13.97zM40.389 3.962L49.018.732M58.303 25.533L49.675 28.763" transform="translate(0 1)"/>
            <path fill="#F5F5F5" d="M61.644 13.407c-1.13 3.58-5.11 5.782-8.89 4.92-3.78-.863-5.928-4.465-4.798-8.046 1.13-3.58 5.11-5.782 8.89-4.919 3.78.862 5.928 4.465 4.798 8.045" transform="translate(0 1)"/>
            <path fill="#F5F5F5" d="M60.003 9.844c1.104 2.806-.276 5.975-3.082 7.078-2.806 1.103-5.975-.277-7.078-3.082-1.103-2.806.276-5.975 3.082-7.078 2.806-1.104 5.974.276 7.078 3.082" transform="translate(0 1)"/>
            <path stroke="#000" d="M60.003 9.844c1.104 2.806-.276 5.975-3.082 7.078-2.806 1.103-5.975-.277-7.078-3.082-1.103-2.806.276-5.975 3.082-7.078 2.806-1.104 5.974.276 7.078 3.082z" transform="translate(0 1)"/>
            <path stroke="#000" stroke-linecap="round" d="M52.64 18.844c-4.283-1.426-6.538-6.345-4.295-10.451M61.353 15.416c2.163-3.96.33-9.032-4.109-10.511M52.448 10.787L54.981 12.018 56.083 8.021M61.975 8.265L62.543 9.713M59.261 29.369c.672-.246 4.282-2.011 4.486-2.442.203-.429-.123-.939-.465-1.222-1.38-1.139-3.216-1.087-5.197-.275M51.96 34.632c-2.863 1.174-5.05 4.177-9.417 4.903-6.096 1.014-11.055 2.09-13.416 1.95-8.314-.5-11.986.347-13.136.332-1.011-.151-3.492.166-6.983-.5M38.021 28.424c.435-.27 4.072-1.668 4.941-1.491M15.852 41.947C11.335 43.977 7.012 48.8.5 53.587" transform="translate(0 1)"/>
            <path stroke="#000" stroke-linecap="round" d="M17.986 41.65c7.482-.166 12.247 2.783 13.92 2.403 6.2-1.406 8.4-2.737 12.85-4.73 3.053-1.369 3.58-2.162 6.318-4.157" transform="translate(0 1)"/>
        </g>
    </g>
</svg>
