<svg xmlns="http://www.w3.org/2000/svg" width="32" height="32" viewBox="0 0 32 32">
    <g fill="none" fill-rule="evenodd">
        <path d="M0 0H32V32H0z"/>
        <g stroke="#0F0F10" stroke-width=".5" transform="translate(1 1)">
            <path d="M18.047 15.816L18.047 3.629" transform="rotate(30 18.047 9.723)"/>
            <path d="M15.165 18.15L26.756 14.384" transform="rotate(30 20.96 16.267)"/>
            <path d="M12.055 16.13L19.219 25.99" transform="rotate(30 15.637 21.06)"/>
            <path d="M13.015 12.549L5.851 22.408" transform="rotate(30 9.433 17.479)"/>
            <path d="M16.718 12.355L5.127 8.588" transform="rotate(30 10.922 10.471)"/>
            <circle cx="15" cy="15" r="1.875" fill="#F9F9F9"/>
            <path d="M30 15.121v-.242l-1.218-.203c-.004-.186-.011-.371-.022-.555l1.194-.308-.021-.24-1.228-.097c-.02-.185-.043-.37-.07-.552l1.158-.41-.042-.238-1.229.012c-.036-.183-.078-.364-.122-.544l1.12-.51-.062-.233-1.225.119c-.052-.179-.108-.356-.168-.531l1.072-.606-.083-.227-1.21.225c-.068-.173-.138-.345-.212-.515l1.014-.696-.103-.219-1.185.33c-.082-.167-.167-.333-.256-.495l.949-.781-.121-.21-1.15.431c-.098-.158-.199-.314-.302-.469l.879-.862-.14-.198-1.11.531c-.11-.15-.224-.295-.34-.44l.801-.937-.155-.186-1.063.627c-.122-.139-.248-.275-.375-.409l.717-1.004-.171-.171-1.004.717c-.134-.128-.27-.253-.41-.375l.628-1.063-.186-.155-.937.801c-.145-.116-.29-.23-.44-.34l.53-1.111-.197-.139-.862.879c-.155-.103-.31-.204-.47-.301l.432-1.15-.21-.122-.78.949c-.163-.09-.329-.174-.496-.256l.33-1.185-.22-.103-.695 1.014c-.17-.074-.342-.144-.515-.212l.225-1.21-.227-.083-.606 1.072c-.175-.06-.352-.116-.53-.168l.118-1.225-.234-.062-.509 1.12c-.18-.044-.361-.086-.544-.122l.012-1.229-.238-.042-.41 1.158c-.183-.027-.367-.05-.552-.07L16.428.068l-.241-.022-.308 1.194c-.184-.011-.37-.018-.555-.022L15.121 0h-.242l-.203 1.218c-.186.004-.371.011-.555.022L13.813.046l-.24.022-.097 1.227c-.185.02-.37.043-.552.07l-.41-1.158-.238.042.012 1.229c-.183.036-.364.078-.544.122l-.51-1.12-.233.062.119 1.225c-.179.052-.356.108-.531.168L9.983.863l-.227.083.225 1.21c-.173.068-.345.138-.515.212L8.77 1.354l-.219.103.33 1.185c-.167.082-.333.167-.495.256l-.781-.949-.21.121.431 1.15c-.158.098-.314.199-.469.302l-.862-.879-.198.139.531 1.111c-.15.11-.296.224-.44.34l-.937-.801-.186.155.627 1.063c-.139.122-.275.247-.409.375L4.48 4.308l-.171.171.717 1.004c-.128.134-.253.27-.375.41l-1.063-.628-.155.186.801.937c-.116.145-.23.29-.34.44l-1.11-.53-.14.197.879.862c-.103.155-.204.31-.301.47l-1.15-.432-.122.21.949.78c-.09.163-.174.329-.256.496l-1.186-.33-.102.22 1.014.695c-.074.17-.144.342-.212.515l-1.21-.225-.083.227 1.072.606c-.06.175-.116.352-.168.53l-1.225-.118-.062.234 1.12.509c-.044.18-.086.361-.122.544l-1.229-.012-.042.238 1.158.41c-.027.183-.05.367-.07.552l-1.227.096-.022.241 1.194.308c-.011.184-.018.37-.022.555L0 14.879v.242l1.218.203c.004.186.011.37.022.555l-1.194.308.022.24 1.227.097c.02.185.043.37.07.552l-1.158.41.042.238 1.229-.012c.036.183.078.364.122.544l-1.12.51.062.233 1.225-.119c.052.179.108.356.168.531l-1.072.606.083.227 1.21-.225c.068.173.138.345.212.515l-1.014.696.102.219 1.186-.33c.082.167.167.333.256.495l-.949.781.121.21 1.15-.431c.098.158.199.314.302.469l-.879.862.14.198 1.11-.531c.11.15.224.295.34.44l-.801.937.155.186 1.063-.627c.122.139.247.275.375.409l-.717 1.004.171.171 1.004-.717c.134.127.27.253.41.375l-.628 1.063.186.155.937-.801c.144.116.29.23.44.34l-.53 1.11.197.14.862-.879c.155.103.31.204.47.301l-.432 1.15.21.122.78-.949c.163.09.329.174.496.256l-.33 1.185.22.103.695-1.014c.17.074.342.144.515.212l-.225 1.21.227.083.606-1.072c.175.06.352.116.53.168l-.118 1.225.234.062.509-1.12c.18.044.361.086.544.122l-.012 1.229.238.042.41-1.158c.183.027.367.05.552.07l.096 1.228.241.02.308-1.193c.184.011.37.018.555.022L14.879 30h.242l.203-1.218c.186-.004.371-.011.555-.022l.308 1.194.24-.021.097-1.228c.185-.02.37-.043.552-.07l.41 1.158.238-.042-.012-1.229c.183-.036.364-.078.544-.122l.51 1.12.233-.062-.119-1.225c.179-.052.356-.108.531-.168l.606 1.072.227-.083-.225-1.21c.173-.068.345-.138.515-.212l.696 1.014.219-.103-.33-1.185c.167-.082.333-.167.495-.256l.781.949.21-.121-.431-1.15c.158-.098.314-.199.469-.302l.862.879.198-.14-.531-1.11c.15-.11.295-.224.44-.34l.937.801.186-.155-.627-1.063c.139-.122.275-.248.409-.375l1.004.717.171-.171-.717-1.004c.127-.134.253-.27.375-.41l1.063.628.155-.186-.801-.937c.116-.145.23-.29.34-.44l1.11.53.14-.197-.879-.862c.103-.155.204-.31.301-.47l1.15.432.122-.21-.949-.78c.09-.163.174-.329.256-.496l1.185.33.103-.22-1.014-.695c.074-.17.145-.342.212-.515l1.21.225.083-.227-1.072-.606c.06-.175.116-.352.168-.53l1.225.118.062-.234-1.12-.509c.044-.18.086-.361.122-.544l1.229.012.042-.239-1.158-.409c.027-.183.05-.367.07-.552l1.228-.096.02-.241-1.193-.308c.011-.184.018-.37.022-.555L30 15.121z"/>
            <circle cx="15" cy="15" r="1" fill="#F9F9F9"/>
            <circle cx="15" cy="15" r="12.188"/>
        </g>
    </g>
</svg>
