<svg xmlns="http://www.w3.org/2000/svg" width="32" height="32" viewBox="0 0 32 32">
    <g fill="none" fill-rule="evenodd">
        <path d="M0 0H32V32H0z"/>
        <g stroke="#0F0F10" stroke-width=".5">
            <path d="M5 3L13 3 15 5 15 27 13 29 5 29 3 27 3 5zM4 6.875L0 6.875M4 8.875L0 8.875M4 10.875L0 10.875M4 12.875L0 12.875M4 14.875L0 14.875M4 16.875L0 16.875M4 18.875L0 18.875M4 20.875L0 20.875M4 22.875L0 22.875M4 24.875L0 24.875M19 6.875L15 6.875M19 8.875L15 8.875M19 10.875L15 10.875M19 12.875L15 12.875M19 14.875L15 14.875M19 16.875L15 16.875M19 18.875L15 18.875M19 20.875L15 20.875M19 22.875L15 22.875M19 24.875L15 24.875" transform="translate(6)"/>
            <path fill="#F5F5F5" d="M7 3L15 3 17 5 17 27 15 29 7 29 5 27 5 5z" transform="translate(6)"/>
            <path d="M3 5L5 5M3 27L5 27M7.125 3L7.125 0M9.125 3L9.125 0M11.125 3L11.125 0M13.125 3L13.125 0M7.125 32L7.125 29M9.125 32L9.125 29M11.125 32L11.125 29M13.125 32L13.125 29" transform="translate(6)"/>
        </g>
    </g>
</svg>
