<svg xmlns="http://www.w3.org/2000/svg" width="32" height="32" viewBox="0 0 32 32">
    <g fill="none" fill-rule="evenodd">
        <path d="M0 0H32V32H0z"/>
        <g stroke="#0F0F10" stroke-width=".5">
            <path d="M19.355.25l.314.566-2.548 2.727H7.694L6.01 1.435 7.114.25h12.241zM2.325 31.608l-.314-.566 2.547-2.727h9.245l1.86 2.116-1.098 1.177H2.325zM5.182 2.264l1.752 2.173-1.018 8.624-2.126 2.044-1.349-1.352L3.739 3.628l1.443-1.364zM20.45 1.788l1.25 1.33-1.485 10.683-2.106 1.603-1.467-1.55 1.298-9.38 2.51-2.686zM18.042 16.932l1.388 1.635-1.207 9.667-1.554 1.556-2.016-2.187 1.201-9.07 2.188-1.601zM3.682 16.957l1.358 1.52-1.018 8.529-2.777 2.955-.984-1.212 1.207-9.575 2.214-2.217zM15.51 14.283l1.638 1.805-1.898 1.487H5.977l-1.376-1.46 1.663-1.832h9.246z" transform="translate(5)"/>
        </g>
    </g>
</svg>
