<svg xmlns="http://www.w3.org/2000/svg" width="32" height="32" viewBox="0 0 32 32">
    <g fill="none" fill-rule="evenodd">
        <path d="M0 0H32V32H0z"/>
        <g stroke="#0F0F10" stroke-width=".5">
            <path d="M7.979 29.989C3.572 29.989 0 27.631 0 24.722c0-2.908 3.572-5.266 7.979-5.266M7.979 19.456c4.406 0 7.978 1.684 7.978 3.762 0 2.077-3.572 3.761-7.978 3.761" transform="translate(8 1)"/>
            <path d="M7.979 26.98C3.572 26.98 0 24.62 0 21.712c0-2.909 3.572-5.267 7.979-5.267M7.979 16.446c4.406 0 7.978 1.684 7.978 3.762 0 2.077-3.572 3.762-7.978 3.762" transform="translate(8 1)"/>
            <path d="M7.979 23.97C3.572 23.97 0 21.612 0 18.703c0-2.909 3.572-5.267 7.979-5.267M7.979 13.436c4.406 0 7.978 1.685 7.978 3.762 0 2.078-3.572 3.762-7.978 3.762" transform="translate(8 1)"/>
            <path d="M7.979 20.96C3.572 20.96 0 18.602 0 15.694c0-2.91 3.572-5.267 7.979-5.267M7.979 10.427c4.406 0 7.978 1.684 7.978 3.762 0 2.077-3.572 3.762-7.978 3.762" transform="translate(8 1)"/>
            <path d="M7.979 17.95C3.572 17.95 0 15.594 0 12.685s3.572-5.267 7.979-5.267M7.979 7.417c4.406 0 7.978 1.685 7.978 3.762 0 2.078-3.572 3.762-7.978 3.762" transform="translate(8 1)"/>
            <path d="M7.979 14.941C3.572 14.941 0 12.583 0 9.674c0-2.908 3.572-5.266 7.979-5.266M7.979 4.408c4.406 0 7.978 1.684 7.978 3.762 0 2.077-3.572 3.762-7.978 3.762" transform="translate(8 1)"/>
            <path d="M7.979 11.932C3.572 11.932 0 9.574 0 6.665c0-2.909 3.572-5.267 7.979-5.267" transform="translate(8 1)"/>
            <path d="M5 0L8 1.462 5 3.29" transform="translate(8 1)"/>
        </g>
    </g>
</svg>
