<svg xmlns="http://www.w3.org/2000/svg" width="32" height="34" viewBox="0 0 32 34">
    <g fill="#F5F5F5" fill-rule="evenodd">
        <path d="M0 0H32V32H0z" transform="translate(0 1)"/>
        <g fill-rule="nonzero">
            <g>
                <path d="M.068.064L3.105 7.11v14.07L.068 31.985" transform="translate(0 1) translate(10) translate(5.731)"/>
                <path stroke="#0F0F10" stroke-linecap="round" stroke-width=".5" d="M.068.064L3.105 7.11v14.07L.068 31.985" transform="translate(0 1) translate(10) translate(5.731)"/>
            </g>
            <path d="M5.8.064L.039 8.947v14.07l5.76 8.968" transform="translate(0 1) translate(10)"/>
            <path stroke="#0F0F10" stroke-linecap="round" stroke-width=".5" d="M5.8.064L.039 8.947v14.07l5.76 8.968" transform="translate(0 1) translate(10)"/>
            <path stroke="#0F0F10" stroke-width=".5" d="M11.618 23.13L8.823 21.21M.038 23.018l2.699 1.976M11.604 9.06L8.837 7.111M.039 8.947l2.699 1.949" transform="translate(0 1) translate(10)"/>
            <g>
                <path d="M3.093.064L8.912 9.06v14.07l-5.819 8.855m0-31.921l2.808 10.888v14.07l-2.808 6.963m0-31.921L.031 10.896v14.07l3.062 7.019" transform="translate(0 1) translate(10) translate(2.706)"/>
                <path stroke="#0F0F10" stroke-linecap="round" stroke-width=".5" d="M3.093.064L8.912 9.06v14.07l-5.819 8.855m0-31.921l2.808 10.888v14.07l-2.808 6.963m0-31.921L.031 10.896v14.07l3.062 7.019" transform="translate(0 1) translate(10) translate(2.706)"/>
            </g>
            <g stroke="#0F0F10" stroke-width=".5">
                <path d="M5.887 16.055l3.025-1.92M.03 16.001l5.87.072m0-14.116L8.924.065M.003 1.904l5.884.07" transform="translate(0 1) translate(10) translate(2.706 8.995)"/>
            </g>
        </g>
    </g>
</svg>
