<svg xmlns="http://www.w3.org/2000/svg" width="66" height="66" viewBox="0 0 66 66">
    <g fill="none" fill-rule="evenodd" transform="translate(1 1)">
        <path d="M0 0H64V64H0z"/>
        <circle cx="32" cy="32" r="32" stroke="#0F0F10"/>
        <path fill="#0F0F10" d="M32 18.883c4.272 0 4.778.016 6.465.093 1.56.071 2.407.332 2.971.551.747.29 1.28.637 1.84 1.197s.907 1.093 1.197 1.84c.219.564.48 1.41.55 2.97.078 1.688.094 2.194.094 6.466s-.016 4.778-.093 6.465c-.071 1.56-.332 2.408-.551 2.971-.29.747-.637 1.28-1.197 1.84s-1.093.907-1.84 1.197c-.564.219-1.41.48-2.97.55-1.688.078-2.194.094-6.466.094s-4.778-.016-6.465-.093c-1.56-.071-2.408-.332-2.971-.551-.747-.29-1.28-.637-1.84-1.197s-.907-1.093-1.197-1.84c-.219-.563-.48-1.41-.55-2.97-.078-1.688-.094-2.194-.094-6.466s.016-4.778.093-6.465c.071-1.56.332-2.407.551-2.971.29-.747.637-1.28 1.197-1.84s1.093-.907 1.84-1.197c.563-.219 1.41-.48 2.97-.55 1.688-.078 2.194-.094 6.466-.094M33.348 16c3.137.004 3.737.026 5.249.095 1.703.078 2.866.348 3.884.744 1.052.409 1.944.956 2.834 1.845.889.89 1.436 1.782 1.845 2.834.396 1.018.666 2.181.744 3.884C47.982 27.11 48 27.655 48 32c0 4.345-.018 4.89-.096 6.597-.078 1.703-.348 2.866-.744 3.884-.409 1.052-.956 1.944-1.845 2.834-.89.89-1.782 1.436-2.834 1.845-1.018.396-2.181.666-3.884.744C36.89 47.982 36.345 48 32 48c-4.345 0-4.89-.018-6.597-.096-1.703-.078-2.866-.348-3.884-.744-1.052-.409-1.944-.956-2.834-1.845-.89-.89-1.436-1.782-1.845-2.834-.396-1.018-.666-2.181-.744-3.884-.069-1.512-.091-2.112-.095-5.249v-2.696c.004-3.137.026-3.737.095-5.249.078-1.703.348-2.866.744-3.884.409-1.052.956-1.944 1.845-2.834.89-.889 1.782-1.436 2.834-1.845 1.018-.396 2.181-.666 3.884-.744 1.512-.069 2.112-.091 5.249-.095zm-1.316 7.809c-4.541 0-8.222 3.68-8.222 8.222 0 4.54 3.68 8.222 8.222 8.222 4.54 0 8.222-3.681 8.222-8.222 0-4.541-3.681-8.222-8.222-8.222zm0 2.884c2.947 0 5.337 2.39 5.337 5.338 0 2.947-2.39 5.337-5.337 5.337-2.948 0-5.338-2.39-5.338-5.337 0-2.948 2.39-5.338 5.338-5.338zm8.476-5.17c-1.052 0-1.905.853-1.905 1.905s.853 1.904 1.905 1.904 1.905-.852 1.905-1.904-.853-1.905-1.905-1.905z"/>
    </g>
</svg>
