<svg xmlns="http://www.w3.org/2000/svg" width="66" height="66" viewBox="0 0 66 66">
    <g fill="none" fill-rule="evenodd" transform="translate(1 1)">
        <path d="M0 0H64V64H0z"/>
        <circle cx="32" cy="32" r="32" stroke="#0F0F10"/>
        <path fill="#0F0F10" d="M33.056 43.536s.656-.071.992-.426c.308-.324.298-.937.298-.937s-.041-2.861 1.312-3.284c1.334-.415 3.047 2.767 4.864 3.991 1.373.925 2.416.723 2.416.723l4.857-.067s2.54-.153 1.336-2.114c-.1-.16-.703-1.45-3.61-4.1-3.048-2.775-2.638-2.326 1.029-7.125 2.234-2.923 3.127-4.707 2.847-5.47-.265-.73-1.908-.536-1.908-.536l-5.467.033s-.406-.054-.706.122c-.294.173-.484.577-.484.577s-.865 2.26-2.019 4.184c-2.435 4.058-3.407 4.272-3.806 4.02-.927-.587-.695-2.36-.695-3.618 0-3.934.608-5.573-1.183-5.997-.594-.142-1.032-.234-2.552-.25-1.951-.019-3.602.007-4.537.456-.623.298-1.103.965-.81 1.004.361.047 1.18.216 1.614.796.56.749.54 2.428.54 2.428s.322 4.63-.752 5.205c-.736.394-1.747-.41-3.918-4.093-1.112-1.885-1.951-3.97-1.951-3.97s-.162-.389-.452-.598c-.35-.254-.84-.332-.84-.332l-5.195.033s-.78.021-1.067.354c-.254.295-.02.908-.02.908s4.068 9.342 8.675 14.05c4.224 4.316 9.019 4.033 9.019 4.033h2.173z"/>
    </g>
</svg>
