<svg xmlns="http://www.w3.org/2000/svg" width="167" height="104" viewBox="0 0 167 104">
    <g fill="none" fill-rule="evenodd">
        <g fill="#0F0F10">
            <g transform="translate(-923 -8141) translate(923 8141)">
                <path d="M139.367 44.097c-.857.364-1.454.84-1.792 1.424-.552.956-.446 1.667.033 1.943.478.276 1.147.013 1.7-.943.367-.638.467-1.478.3-2.521.376.987.883 1.665 1.52 2.033.449.259.843.373 1.164.372l1.698 2.94-.082.134c-.303.526-.425 1.19-.364 1.992l.027.273.036.252-.096-.236c-.365-.858-.84-1.455-1.424-1.793-.957-.552-1.667-.445-1.943.033-.277.478-.014 1.147.943 1.7.585.337 1.34.45 2.264.336l.257-.036-.24.097c-.858.364-1.455.84-1.793 1.424-.552.956-.446 1.667.033 1.943.478.276 1.147.013 1.7-.943.367-.638.467-1.478.3-2.521.376.987.883 1.665 1.52 2.033.745.43 1.341.46 1.699.227l1.517 2.625c-.15.155-.296.353-.436.594-.337.585-.45 1.34-.337 2.265l.036.252-.096-.236c-.365-.858-.84-1.455-1.424-1.793-.957-.552-1.667-.445-1.943.033-.277.478-.014 1.147.943 1.7.585.337 1.34.45 2.264.336l.257-.036-.24.097c-.858.364-1.455.84-1.793 1.424-.552.956-.446 1.667.033 1.943.478.276 1.147.013 1.7-.943.367-.638.467-1.478.3-2.521.376.987.883 1.665 1.52 2.033.957.552 1.668.445 1.944-.033.043-.074.072-.153.089-.235l1.61 2.788c-.292.154-.591.456-.863.926-.337.585-.45 1.34-.337 2.265l.036.252-.096-.236c-.365-.858-.84-1.455-1.424-1.793-.957-.552-1.667-.445-1.943.033-.277.478-.014 1.147.943 1.7.585.337 1.34.45 2.264.336l.257-.036-.24.097c-.858.364-1.455.84-1.793 1.424-.552.956-.446 1.667.033 1.943.478.276 1.147.013 1.7-.943.367-.638.467-1.478.3-2.521.376.987.883 1.665 1.52 2.033.957.552 1.668.445 1.944-.033s.013-1.147-.944-1.7c-.637-.368-1.478-.468-2.517-.301.985-.376 1.662-.883 2.03-1.52.042-.074.081-.147.116-.219l3.567 6.179c-.439-.058-.966.261-1.416 1.04-.337.585-.45 1.34-.337 2.265l.036.252-.096-.236c-.365-.858-.84-1.455-1.424-1.793-.957-.552-1.667-.445-1.943.033-.277.478-.014 1.147.943 1.7.585.337 1.34.45 2.264.336l.257-.036-.24.097c-.858.364-1.455.84-1.793 1.424-.552.956-.446 1.667.033 1.943.478.276 1.147.013 1.7-.943.367-.638.467-1.478.3-2.521.376.987.883 1.665 1.52 2.033.957.552 1.668.445 1.944-.033s.013-1.147-.944-1.7c-.637-.368-1.478-.468-2.517-.301.985-.376 1.662-.883 2.03-1.52.189-.328.3-.627.347-.89l5.512 9.55-1.723.994c-.585-.227-1.307-.272-2.166-.134.985-.376 1.662-.883 2.03-1.52.552-.956.445-1.667-.033-1.943-.479-.276-1.147-.013-1.7.943-.337.585-.45 1.34-.337 2.265l.036.252-.096-.236c-.365-.858-.84-1.455-1.424-1.793-.957-.552-1.667-.445-1.943.033-.277.478-.014 1.147.943 1.7.585.337 1.34.45 2.264.336l.257-.036-.24.097c-.858.364-1.455.84-1.793 1.424-.283.49-.393.915-.369 1.25l-14.49 8.367-.425-.733c.364-.001.634-.15.78-.405.277-.478.014-1.147-.943-1.7-.357-.206-.778-.328-1.262-.366l-.249-.431c.457-.293.798-.634 1.023-1.024.553-.956.446-1.667-.032-1.943-.479-.276-1.147-.013-1.7.943-.08.14-.148.29-.203.448l-2.119-3.671c.724.283 1.256.142 1.486-.256.276-.478.013-1.147-.944-1.7-.502-.29-1.13-.413-1.883-.371l-.095-.164c.697-.344 1.194-.772 1.49-1.286.553-.956.446-1.667-.032-1.943-.479-.276-1.147-.013-1.7.943-.202.352-.324.764-.364 1.238l-2.935-5.08c.162.157.335.29.52.396.956.552 1.667.445 1.943-.033s.013-1.147-.944-1.7c-.637-.368-1.478-.468-2.517-.301l.05-.008-.005-.01c.88-.342 1.508-.79 1.886-1.345l.098-.157c.553-.956.446-1.667-.032-1.943-.479-.276-1.147-.013-1.7.943-.337.585-.45 1.34-.337 2.265l.017.121-.133-.232c-.152-.336-.322-.63-.51-.881l-3.262-5.651c.013-.338-.012-.705-.075-1.101.376.987.883 1.665 1.52 2.033.957.552 1.668.445 1.944-.033s.013-1.147-.944-1.7c-.637-.368-1.478-.468-2.517-.301.985-.376 1.662-.883 2.03-1.52.552-.956.445-1.667-.033-1.943-.479-.276-1.147-.013-1.7.943-.337.585-.45 1.34-.337 2.265l.036.252-.096-.236c-.365-.858-.84-1.455-1.424-1.793-.105-.06-.207-.113-.305-.158l-2.23-3.865c.158-.542.177-1.19.056-1.944.376.987.883 1.665 1.52 2.033.957.552 1.668.445 1.944-.033s.013-1.147-.944-1.7c-.637-.368-1.478-.468-2.517-.301.985-.376 1.662-.883 2.03-1.52.552-.956.445-1.667-.033-1.943-.479-.276-1.147-.013-1.7.943-.337.585-.45 1.34-.337 2.265l.036.252-.096-.236c-.365-.858-.84-1.455-1.424-1.793-.394-.227-.747-.343-1.044-.367l-1.758-3.044.022-.035c.338-.585.45-1.34.337-2.265l-.036-.256c.376.987.883 1.665 1.52 2.033.957.552 1.668.445 1.944-.033s.013-1.147-.944-1.7c-.637-.368-1.478-.468-2.517-.301.985-.376 1.662-.883 2.03-1.52.552-.956.445-1.667-.033-1.943-.479-.276-1.147-.013-1.7.943-.337.585-.45 1.34-.337 2.265l.036.252-.096-.236c-.365-.858-.84-1.455-1.424-1.793-.688-.397-1.248-.453-1.611-.276l-.87-1.505v10.098c-.09.427-.101.914-.035 1.46l.036.252-.096-.236c-.365-.858-.84-1.455-1.424-1.793-.957-.552-1.667-.445-1.943.033-.277.478-.014 1.147.943 1.7.585.337 1.34.45 2.264.336l.256-.037-.24.098c-.771.328-1.332.745-1.683 1.252l-.109.172c-.552.956-.446 1.667.033 1.943.478.276 1.147.013 1.7-.943.137-.24.237-.507.3-.803l-.001 12.566c-.09.427-.102.914-.036 1.46l.036.252-.096-.236c-.365-.858-.84-1.455-1.424-1.793-.957-.552-1.667-.445-1.943.033-.277.478-.014 1.147.943 1.7.585.337 1.34.45 2.264.336l.256-.037-.24.098c-.771.328-1.332.745-1.683 1.252l-.109.172c-.552.956-.446 1.667.033 1.943.478.276 1.147.013 1.7-.943.137-.24.237-.507.3-.803l-.001 12.566c-.09.427-.102.914-.036 1.46l.036.252-.096-.236c-.365-.858-.84-1.455-1.424-1.793-.957-.552-1.667-.445-1.943.033-.277.478-.014 1.147.943 1.7.585.337 1.34.45 2.264.336l.256-.037-.24.098c-.771.328-1.332.745-1.683 1.252l-.109.172c-.552.956-.446 1.667.033 1.943.478.276 1.147.013 1.7-.943.137-.24.237-.507.3-.803V96h-64v-2.282c.105-.493.105-1.066 0-1.718.376.987.883 1.665 1.52 2.033.957.552 1.668.445 1.944-.033s.013-1.147-.944-1.7c-.637-.368-1.478-.468-2.517-.301.985-.376 1.662-.883 2.03-1.52.552-.956.445-1.667-.033-1.943-.479-.276-1.147-.013-1.7.943-.138.24-.239.508-.301.805l.001-12.566c.105-.493.105-1.066 0-1.718.376.987.883 1.665 1.52 2.033.957.552 1.668.445 1.944-.033s.013-1.147-.944-1.7c-.637-.368-1.478-.468-2.517-.301.985-.376 1.662-.883 2.03-1.52.552-.956.445-1.667-.033-1.943-.479-.276-1.147-.013-1.7.943-.138.24-.239.508-.301.805l.001-12.566c.105-.493.105-1.066 0-1.718.376.987.883 1.665 1.52 2.033.957.552 1.668.445 1.944-.033s.013-1.147-.944-1.7c-.637-.368-1.478-.468-2.517-.301.985-.376 1.662-.883 2.03-1.52.552-.956.445-1.667-.033-1.943-.479-.276-1.147-.013-1.7.943-.138.24-.239.508-.301.805V48l-2.305 3.994c-.488-.1-1.052-.098-1.69.005.984-.376 1.66-.883 2.028-1.52.553-.956.446-1.667-.032-1.943-.479-.276-1.147-.013-1.7.943-.337.585-.45 1.34-.337 2.265l.036.252-.096-.236c-.365-.858-.84-1.455-1.424-1.793-.957-.552-1.667-.445-1.943.033-.277.478-.014 1.147.943 1.7.585.337 1.34.45 2.264.336l.257-.036-.24.097c-.858.364-1.455.84-1.793 1.424-.552.956-.446 1.667.033 1.943.478.276 1.147.013 1.7-.943.367-.638.467-1.478.3-2.521.231.607.512 1.097.842 1.47l-2.523 4.37c.194-.631.045-1.094-.32-1.304-.478-.276-1.146-.013-1.699.943-.337.585-.45 1.34-.337 2.265l.036.252-.096-.236c-.365-.858-.84-1.455-1.424-1.793-.957-.552-1.667-.445-1.943.033-.277.478-.014 1.147.943 1.7.585.337 1.34.45 2.264.336l.257-.036-.24.097c-.858.364-1.455.84-1.793 1.424-.552.956-.446 1.667.033 1.943.364.21.838.108 1.288-.375l-1.002 1.736c-.069-.122-.166-.22-.286-.29-.479-.275-1.147-.012-1.7.944-.337.585-.45 1.34-.337 2.265l.036.252-.096-.236c-.365-.858-.84-1.455-1.424-1.793-.957-.552-1.667-.445-1.943.033-.277.478-.014 1.147.943 1.7.585.337 1.34.45 2.264.336l.257-.036-.24.097c-.858.364-1.455.84-1.793 1.424-.552.956-.446 1.667.033 1.943.12.07.253.105.393.104l-.525.907c-.465-.163-1.064.133-1.568 1.004-.337.585-.45 1.34-.337 2.265l.004.025-.035.06-.03-.07c-.33-.779-.753-1.343-1.266-1.693l-.157-.099c-.957-.552-1.667-.445-1.943.033-.277.478-.014 1.147.943 1.7.585.337 1.34.45 2.264.336l.076-.011-.036.061-.024.01c-.771.329-1.332.746-1.683 1.253l-.109.172c-.504.872-.46 1.54-.085 1.86l-.66 1.143c-.31.142-.632.453-.922.955-.208.36-.33.786-.367 1.276l-.28.488c-.324-.585-.715-1.01-1.174-1.276-.957-.552-1.667-.445-1.943.033-.277.478-.014 1.147.943 1.7.459.264 1.022.39 1.69.378l-.28.487c-.407.276-.714.595-.922.956-.29.502-.398.936-.367 1.275l-4.816 8.342-16.741-9.666c.059-.435.045-.926-.043-1.472.376.987.883 1.665 1.52 2.033.957.552 1.668.445 1.944-.033s.013-1.147-.944-1.7c-.637-.368-1.478-.468-2.517-.301.985-.376 1.662-.883 2.03-1.52.552-.956.445-1.667-.033-1.943-.479-.276-1.147-.013-1.7.943-.337.585-.45 1.34-.337 2.265l.036.252-.096-.236c-.365-.858-.84-1.455-1.424-1.793-.718-.414-1.297-.458-1.659-.251l3.858-6.683c.172.228.436.456.801.666.585.338 1.34.45 2.264.337l.257-.036-.24.097c-.858.364-1.455.84-1.793 1.424-.552.956-.446 1.667.033 1.943.478.276 1.147.013 1.7-.943.367-.638.467-1.478.3-2.521.376.987.883 1.665 1.52 2.033.957.552 1.668.445 1.944-.033s.013-1.147-.944-1.7c-.637-.368-1.478-.468-2.517-.301.985-.376 1.662-.883 2.03-1.52.552-.956.445-1.667-.033-1.943-.479-.276-1.147-.013-1.7.943-.337.585-.45 1.34-.337 2.265l.036.252-.096-.236c-.365-.858-.84-1.455-1.424-1.793-.365-.21-.694-.325-.977-.36l3.569-6.182c.118.094.254.186.408.274.585.338 1.34.45 2.264.337l.257-.036-.24.097c-.858.364-1.455.84-1.793 1.424-.552.956-.446 1.667.033 1.943.478.276 1.147.013 1.7-.943.367-.638.467-1.478.3-2.521.376.987.883 1.665 1.52 2.033.957.552 1.668.445 1.944-.033s.013-1.147-.944-1.7c-.637-.368-1.478-.468-2.517-.301.985-.376 1.662-.883 2.03-1.52.552-.956.445-1.667-.033-1.943-.479-.276-1.147-.013-1.7.943-.337.585-.45 1.34-.337 2.265l.036.252-.096-.236c-.365-.858-.84-1.455-1.424-1.793-.154-.088-.301-.16-.441-.216l3.481-6.029c.579.32 1.32.425 2.224.314l.257-.036-.24.097c-.858.364-1.455.84-1.793 1.424-.552.956-.446 1.667.033 1.943.478.276 1.147.013 1.7-.943.367-.638.467-1.478.3-2.521.376.987.883 1.665 1.52 2.033.957.552 1.668.445 1.944-.033s.013-1.147-.944-1.7c-.637-.368-1.478-.468-2.517-.301.985-.376 1.662-.883 2.03-1.52.552-.956.445-1.667-.033-1.943-.479-.276-1.147-.013-1.7.943-.337.585-.45 1.34-.337 2.265l.036.252-.096-.236c-.365-.858-.84-1.455-1.424-1.793l.04.025 3.498-6.06c.42.13.905.173 1.454.131l.272-.027.257-.036-.24.097c-.858.364-1.455.84-1.793 1.424-.552.956-.446 1.667.033 1.943.478.276 1.147.013 1.7-.943.367-.638.467-1.478.3-2.521.376.987.883 1.665 1.52 2.033.957.552 1.668.445 1.944-.033s.013-1.147-.944-1.7c-.637-.368-1.478-.468-2.517-.301.985-.376 1.662-.883 2.03-1.52.552-.956.445-1.667-.033-1.943-.479-.276-1.147-.013-1.7.943-.337.585-.45 1.34-.337 2.265l.036.252-.096-.236c-.262-.615-.58-1.096-.954-1.444l3.62-6.268c.355.045.746.04 1.174-.012l.257-.036-.24.097c-.858.364-1.455.84-1.793 1.424-.552.956-.446 1.667.033 1.943.478.276 1.147.013 1.7-.943.367-.638.467-1.478.3-2.521.376.987.883 1.665 1.52 2.033.957.552 1.668.445 1.944-.033s.013-1.147-.944-1.7c-.637-.368-1.478-.468-2.517-.301.985-.376 1.662-.883 2.03-1.52.552-.956.445-1.667-.033-1.943-.479-.276-1.147-.013-1.7.943-.337.585-.45 1.34-.337 2.265l.036.252-.096-.236c-.169-.397-.36-.738-.576-1.023l2.273-3.94c.03.307.172.536.4.667.478.276 1.147.013 1.7-.943.367-.638.467-1.478.3-2.521.376.987.883 1.665 1.52 2.033.957.552 1.668.445 1.944-.033s.013-1.147-.944-1.7c-.637-.368-1.478-.468-2.517-.301.985-.376 1.662-.883 2.03-1.52.552-.956.445-1.667-.033-1.943-.228-.131-.498-.14-.778-.012l.66-1.143c.036.031.075.059.118.083.478.276 1.147.013 1.7-.943.367-.638.467-1.478.3-2.521.376.987.883 1.665 1.52 2.033.957.552 1.668.445 1.944-.033s.013-1.147-.944-1.7c-.637-.368-1.478-.468-2.517-.301.985-.376 1.662-.883 2.03-1.52.552-.956.445-1.667-.033-1.943-.043-.024-.086-.045-.131-.06l.525-.908c.415-.005.892-.332 1.305-1.047.287-.497.41-1.115.373-1.857l.12-.21c.351.744.794 1.27 1.328 1.579.957.552 1.668.445 1.944-.033s.013-1.147-.944-1.7c-.535-.308-1.213-.429-2.031-.36l.122-.21c.66-.337 1.135-.754 1.421-1.25.413-.715.458-1.293.255-1.654l1.003-1.739c.14-.151.278-.34.41-.566.097-.17.176-.353.236-.55l.557-.968c.293.46.635.803 1.027 1.03.957.552 1.668.445 1.944-.033s.013-1.147-.944-1.7c-.392-.226-.86-.35-1.405-.375l.558-.965c.142-.151.262-.311.36-.48.13-.227.224-.44.285-.637L48.45 5.47c.207.233.433.42.678.563.957.552 1.668.445 1.944-.033s.013-1.147-.944-1.7c-.245-.141-.52-.243-.826-.306L51.608 0h64l-.001.185.869 1.506c-.143.07-.255.174-.332.309-.277.478-.014 1.147.943 1.7.213.123.45.216.708.279l.448.774c-.283.23-.506.486-.668.768-.552.956-.446 1.667.033 1.943.478.276 1.147.013 1.7-.943l-.023.035 1.758 3.044c-.382-.03-.673.09-.846.32l-.053.08c-.277.478-.014 1.147.943 1.7.386.222.846.347 1.38.373l.216.371c-.5.304-.869.663-1.108 1.077-.552.956-.446 1.667.033 1.943.478.276 1.147.013 1.7-.943.101-.177.182-.369.243-.577l2.232 3.866c-.803-.367-1.393-.236-1.64.19-.276.478-.013 1.147.944 1.7.585.337 1.34.45 2.264.336l-.268.027.073.128c-.664.313-1.154.699-1.472 1.158l-.109.172c-.552.956-.446 1.667.033 1.943.478.276 1.147.013 1.7-.943.227-.396.353-.87.375-1.42l3.262 5.65c-.253-.338-.54-.6-.858-.784-.957-.552-1.667-.445-1.943.033-.277.478-.014 1.147.943 1.7.585.337 1.34.45 2.264.336l.257-.036-.24.097c-.858.364-1.455.84-1.793 1.424-.552.956-.446 1.667.033 1.943.478.276 1.147.013 1.7-.943.367-.638.467-1.478.3-2.521.268.703.602 1.25 1.003 1.638l2.933 5.08c-.027.314-.018.656.027 1.026l.036.252-.096-.236c-.365-.858-.84-1.455-1.424-1.793-.957-.552-1.667-.445-1.943.033-.277.478-.014 1.147.943 1.7.585.337 1.34.45 2.264.336l.257-.036-.24.097c-.858.364-1.455.84-1.793 1.424-.552.956-.446 1.667.033 1.943.478.276 1.147.013 1.7-.943.367-.638.467-1.478.3-2.521.376.987.883 1.665 1.52 2.033.16.092.314.166.46.223l2.117 3.67c-.175.507-.22 1.113-.134 1.818l.036.252-.096-.236c-.365-.858-.84-1.455-1.424-1.793-.957-.552-1.667-.445-1.943.033-.277.478-.014 1.147.943 1.7.585.337 1.34.45 2.264.336l.257-.036zm-61.76 44.439c-.478-.276-1.146-.013-1.699.943-.337.585-.45 1.34-.337 2.265l.036.252-.096-.236c-.365-.858-.84-1.455-1.424-1.793-.957-.552-1.667-.445-1.943.033-.277.478-.014 1.147.943 1.7.585.337 1.34.45 2.264.336l.257-.036-.24.097c-.858.364-1.455.84-1.793 1.424-.552.956-.446 1.667.033 1.943.478.276 1.147.013 1.7-.943.367-.638.467-1.478.3-2.521.376.987.883 1.665 1.52 2.033.957.552 1.668.445 1.944-.033s.013-1.147-.944-1.7c-.637-.368-1.478-.468-2.517-.301.985-.376 1.662-.883 2.03-1.52.552-.956.445-1.667-.033-1.943zm32 0c-.478-.276-1.146-.013-1.699.943-.337.585-.45 1.34-.337 2.265l.036.252-.096-.236c-.365-.858-.84-1.455-1.424-1.793-.957-.552-1.667-.445-1.943.033-.277.478-.014 1.147.943 1.7.585.337 1.34.45 2.264.336l.257-.036-.24.097c-.858.364-1.455.84-1.793 1.424-.552.956-.446 1.667.033 1.943.478.276 1.147.013 1.7-.943.367-.638.467-1.478.3-2.521.376.987.883 1.665 1.52 2.033.957.552 1.668.445 1.944-.033s.013-1.147-.944-1.7c-.637-.368-1.478-.468-2.517-.301.985-.376 1.662-.883 2.03-1.52.552-.956.445-1.667-.033-1.943zm-16 0c-.478-.276-1.146-.013-1.699.943-.337.585-.45 1.34-.337 2.265l.036.252-.096-.236c-.365-.858-.84-1.455-1.424-1.793-.957-.552-1.667-.445-1.943.033-.277.478-.014 1.147.943 1.7.585.337 1.34.45 2.264.336l.257-.036-.24.097c-.858.364-1.455.84-1.793 1.424-.552.956-.446 1.667.033 1.943.478.276 1.147.013 1.7-.943.367-.638.467-1.478.3-2.521.376.987.883 1.665 1.52 2.033.957.552 1.668.445 1.944-.033s.013-1.147-.944-1.7c-.637-.368-1.478-.468-2.517-.301.985-.376 1.662-.883 2.03-1.52.552-.956.445-1.667-.033-1.943zm-24 0c-.478-.276-1.146-.013-1.699.943-.337.585-.45 1.34-.337 2.265l.036.252-.096-.236c-.365-.858-.84-1.455-1.424-1.793-.957-.552-1.667-.445-1.943.033-.277.478-.014 1.147.943 1.7.585.337 1.34.45 2.264.336l.257-.036-.24.097c-.858.364-1.455.84-1.793 1.424-.552.956-.446 1.667.033 1.943.478.276 1.147.013 1.7-.943.367-.638.467-1.478.3-2.521.376.987.883 1.665 1.52 2.033.957.552 1.668.445 1.944-.033s.013-1.147-.944-1.7c-.637-.368-1.478-.468-2.517-.301.985-.376 1.662-.883 2.03-1.52.552-.956.445-1.667-.033-1.943zm-8 0c-.478-.276-1.146-.013-1.699.943-.337.585-.45 1.34-.337 2.265l.036.252-.096-.236c-.365-.858-.84-1.455-1.424-1.793-.957-.552-1.667-.445-1.943.033-.277.478-.014 1.147.943 1.7.585.337 1.34.45 2.264.336l.257-.036-.24.097c-.858.364-1.455.84-1.793 1.424-.552.956-.446 1.667.033 1.943.478.276 1.147.013 1.7-.943.367-.638.467-1.478.3-2.521.376.987.883 1.665 1.52 2.033.957.552 1.668.445 1.944-.033s.013-1.147-.944-1.7c-.637-.368-1.478-.468-2.517-.301.985-.376 1.662-.883 2.03-1.52.552-.956.445-1.667-.033-1.943zm40 0c-.478-.276-1.146-.013-1.699.943-.337.585-.45 1.34-.337 2.265l.036.252-.096-.236c-.365-.858-.84-1.455-1.424-1.793-.957-.552-1.667-.445-1.943.033-.277.478-.014 1.147.943 1.7.585.337 1.34.45 2.264.336l.257-.036-.24.097c-.858.364-1.455.84-1.793 1.424-.552.956-.446 1.667.033 1.943.478.276 1.147.013 1.7-.943.367-.638.467-1.478.3-2.521.376.987.883 1.665 1.52 2.033.957.552 1.668.445 1.944-.033s.013-1.147-.944-1.7c-.637-.368-1.478-.468-2.517-.301.985-.376 1.662-.883 2.03-1.52.552-.956.445-1.667-.033-1.943zm-16 0c-.478-.276-1.146-.013-1.699.943-.337.585-.45 1.34-.337 2.265l.036.252-.096-.236c-.365-.858-.84-1.455-1.424-1.793-.957-.552-1.667-.445-1.943.033-.277.478-.014 1.147.943 1.7.585.337 1.34.45 2.264.336l.257-.036-.24.097c-.858.364-1.455.84-1.793 1.424-.552.956-.446 1.667.033 1.943.478.276 1.147.013 1.7-.943.367-.638.467-1.478.3-2.521.376.987.883 1.665 1.52 2.033.957.552 1.668.445 1.944-.033s.013-1.147-.944-1.7c-.637-.368-1.478-.468-2.517-.301.985-.376 1.662-.883 2.03-1.52.552-.956.445-1.667-.033-1.943zm68-8c-.478-.276-1.146-.013-1.699.943-.337.585-.45 1.34-.337 2.265l.036.252-.096-.236c-.365-.858-.84-1.455-1.424-1.793-.957-.552-1.667-.445-1.943.033-.277.478-.014 1.147.943 1.7.585.337 1.34.45 2.264.336l.257-.036-.24.097c-.858.364-1.455.84-1.793 1.424-.552.956-.446 1.667.033 1.943.478.276 1.147.013 1.7-.943.367-.638.467-1.478.3-2.521.376.987.883 1.665 1.52 2.033.957.552 1.668.445 1.944-.033s.013-1.147-.944-1.7c-.637-.368-1.478-.468-2.517-.301.985-.376 1.662-.883 2.03-1.52.552-.956.445-1.667-.033-1.943zm-136 0c-.478-.276-1.146-.013-1.699.943-.337.585-.45 1.34-.337 2.265l.036.252-.096-.236c-.365-.858-.84-1.455-1.424-1.793-.957-.552-1.667-.445-1.943.033-.277.478-.014 1.147.943 1.7.585.337 1.34.45 2.264.336l.257-.036-.24.097c-.858.364-1.455.84-1.793 1.424-.552.956-.446 1.667.033 1.943.478.276 1.147.013 1.7-.943.367-.638.467-1.478.3-2.521.376.987.883 1.665 1.52 2.033.957.552 1.668.445 1.944-.033s.013-1.147-.944-1.7c-.637-.368-1.478-.468-2.517-.301.985-.376 1.662-.883 2.03-1.52.552-.956.445-1.667-.033-1.943zm64 0c-.478-.276-1.146-.013-1.699.943-.337.585-.45 1.34-.337 2.265l.036.252-.096-.236c-.365-.858-.84-1.455-1.424-1.793-.957-.552-1.667-.445-1.943.033-.277.478-.014 1.147.943 1.7.585.337 1.34.45 2.264.336l.257-.036-.24.097c-.858.364-1.455.84-1.793 1.424-.552.956-.446 1.667.033 1.943.478.276 1.147.013 1.7-.943.367-.638.467-1.478.3-2.521.376.987.883 1.665 1.52 2.033.957.552 1.668.445 1.944-.033s.013-1.147-.944-1.7c-.637-.368-1.478-.468-2.517-.301.985-.376 1.662-.883 2.03-1.52.552-.956.445-1.667-.033-1.943zm24 0c-.478-.276-1.146-.013-1.699.943-.337.585-.45 1.34-.337 2.265l.036.252-.096-.236c-.365-.858-.84-1.455-1.424-1.793-.957-.552-1.667-.445-1.943.033-.277.478-.014 1.147.943 1.7.585.337 1.34.45 2.264.336l.257-.036-.24.097c-.858.364-1.455.84-1.793 1.424-.552.956-.446 1.667.033 1.943.478.276 1.147.013 1.7-.943.367-.638.467-1.478.3-2.521.376.987.883 1.665 1.52 2.033.957.552 1.668.445 1.944-.033s.013-1.147-.944-1.7c-.637-.368-1.478-.468-2.517-.301.985-.376 1.662-.883 2.03-1.52.552-.956.445-1.667-.033-1.943zm8 0c-.478-.276-1.146-.013-1.699.943-.337.585-.45 1.34-.337 2.265l.036.252-.096-.236c-.365-.858-.84-1.455-1.424-1.793-.957-.552-1.667-.445-1.943.033-.277.478-.014 1.147.943 1.7.585.337 1.34.45 2.264.336l.257-.036-.24.097c-.858.364-1.455.84-1.793 1.424-.552.956-.446 1.667.033 1.943.478.276 1.147.013 1.7-.943.367-.638.467-1.478.3-2.521.376.987.883 1.665 1.52 2.033.957.552 1.668.445 1.944-.033s.013-1.147-.944-1.7c-.637-.368-1.478-.468-2.517-.301.985-.376 1.662-.883 2.03-1.52.552-.956.445-1.667-.033-1.943zm-40 0c-.478-.276-1.146-.013-1.699.943-.337.585-.45 1.34-.337 2.265l.036.252-.096-.236c-.365-.858-.84-1.455-1.424-1.793-.957-.552-1.667-.445-1.943.033-.277.478-.014 1.147.943 1.7.585.337 1.34.45 2.264.336l.257-.036-.24.097c-.858.364-1.455.84-1.793 1.424-.552.956-.446 1.667.033 1.943.478.276 1.147.013 1.7-.943.367-.638.467-1.478.3-2.521.376.987.883 1.665 1.52 2.033.957.552 1.668.445 1.944-.033s.013-1.147-.944-1.7c-.637-.368-1.478-.468-2.517-.301.985-.376 1.662-.883 2.03-1.52.552-.956.445-1.667-.033-1.943zm-16 0c-.478-.276-1.146-.013-1.699.943-.337.585-.45 1.34-.337 2.265l.036.252-.096-.236c-.365-.858-.84-1.455-1.424-1.793-.957-.552-1.667-.445-1.943.033-.277.478-.014 1.147.943 1.7.585.337 1.34.45 2.264.336l.257-.036-.24.097c-.858.364-1.455.84-1.793 1.424-.552.956-.446 1.667.033 1.943.478.276 1.147.013 1.7-.943.367-.638.467-1.478.3-2.521.376.987.883 1.665 1.52 2.033.957.552 1.668.445 1.944-.033s.013-1.147-.944-1.7c-.637-.368-1.478-.468-2.517-.301.985-.376 1.662-.883 2.03-1.52.552-.956.445-1.667-.033-1.943zm88 0c-.478-.276-1.146-.013-1.699.943-.337.585-.45 1.34-.337 2.265l.036.252-.096-.236c-.365-.858-.84-1.455-1.424-1.793-.957-.552-1.667-.445-1.943.033-.277.478-.014 1.147.943 1.7.585.337 1.34.45 2.264.336l.257-.036-.24.097c-.858.364-1.455.84-1.793 1.424-.552.956-.446 1.667.033 1.943.478.276 1.147.013 1.7-.943.367-.638.467-1.478.3-2.521.376.987.883 1.665 1.52 2.033.957.552 1.668.445 1.944-.033s.013-1.147-.944-1.7c-.637-.368-1.478-.468-2.517-.301.985-.376 1.662-.883 2.03-1.52.552-.956.445-1.667-.033-1.943zm-120 0c-.478-.276-1.146-.013-1.699.943-.337.585-.45 1.34-.337 2.265l.036.252-.096-.236c-.365-.858-.84-1.455-1.424-1.793-.957-.552-1.667-.445-1.943.033-.277.478-.014 1.147.943 1.7.585.337 1.34.45 2.264.336l.257-.036-.24.097c-.858.364-1.455.84-1.793 1.424-.552.956-.446 1.667.033 1.943.478.276 1.147.013 1.7-.943.367-.638.467-1.478.3-2.521.376.987.883 1.665 1.52 2.033.957.552 1.668.445 1.944-.033s.013-1.147-.944-1.7c-.637-.368-1.478-.468-2.517-.301.985-.376 1.662-.883 2.03-1.52.552-.956.445-1.667-.033-1.943zm40 0c-.478-.276-1.146-.013-1.699.943-.337.585-.45 1.34-.337 2.265l.036.252-.096-.236c-.365-.858-.84-1.455-1.424-1.793-.957-.552-1.667-.445-1.943.033-.277.478-.014 1.147.943 1.7.585.337 1.34.45 2.264.336l.257-.036-.24.097c-.858.364-1.455.84-1.793 1.424-.552.956-.446 1.667.033 1.943.478.276 1.147.013 1.7-.943.367-.638.467-1.478.3-2.521.376.987.883 1.665 1.52 2.033.957.552 1.668.445 1.944-.033s.013-1.147-.944-1.7c-.637-.368-1.478-.468-2.517-.301.985-.376 1.662-.883 2.03-1.52.552-.956.445-1.667-.033-1.943zm24 0c-.478-.276-1.146-.013-1.699.943-.337.585-.45 1.34-.337 2.265l.036.252-.096-.236c-.365-.858-.84-1.455-1.424-1.793-.957-.552-1.667-.445-1.943.033-.277.478-.014 1.147.943 1.7.585.337 1.34.45 2.264.336l.257-.036-.24.097c-.858.364-1.455.84-1.793 1.424-.552.956-.446 1.667.033 1.943.478.276 1.147.013 1.7-.943.367-.638.467-1.478.3-2.521.376.987.883 1.665 1.52 2.033.957.552 1.668.445 1.944-.033s.013-1.147-.944-1.7c-.637-.368-1.478-.468-2.517-.301.985-.376 1.662-.883 2.03-1.52.552-.956.445-1.667-.033-1.943zm8 0c-.478-.276-1.146-.013-1.699.943-.337.585-.45 1.34-.337 2.265l.036.252-.096-.236c-.365-.858-.84-1.455-1.424-1.793-.957-.552-1.667-.445-1.943.033-.277.478-.014 1.147.943 1.7.585.337 1.34.45 2.264.336l.257-.036-.24.097c-.858.364-1.455.84-1.793 1.424-.552.956-.446 1.667.033 1.943.478.276 1.147.013 1.7-.943.367-.638.467-1.478.3-2.521.376.987.883 1.665 1.52 2.033.957.552 1.668.445 1.944-.033s.013-1.147-.944-1.7c-.637-.368-1.478-.468-2.517-.301.985-.376 1.662-.883 2.03-1.52.552-.956.445-1.667-.033-1.943zm62 3.464c.158.412.338.77.54 1.075l-.482.28c.042-.406.023-.857-.057-1.355zM4.04 82.388c.001.416.329.897 1.047 1.311.585.338 1.34.45 2.264.337L7.608 84l-.24.097c-.413.175-.765.376-1.057.602l-2.703-1.56zm145.568-9.852c-.479-.276-1.147-.013-1.7.943-.337.585-.45 1.34-.337 2.265l.036.252-.096-.236c-.365-.858-.84-1.455-1.424-1.793-.957-.552-1.667-.445-1.943.033-.277.478-.014 1.147.943 1.7.585.337 1.34.45 2.264.336l.257-.036-.24.097c-.858.364-1.455.84-1.793 1.424-.552.956-.446 1.667.033 1.943.478.276 1.147.013 1.7-.943.367-.638.467-1.478.3-2.521.376.987.883 1.665 1.52 2.033.957.552 1.668.445 1.944-.033s.013-1.147-.944-1.7c-.637-.368-1.478-.468-2.517-.301.985-.376 1.662-.883 2.03-1.52.552-.956.445-1.667-.033-1.943zm-88 0c-.479-.276-1.147-.013-1.7.943-.337.585-.45 1.34-.337 2.265l.036.252-.096-.236c-.365-.858-.84-1.455-1.424-1.793-.957-.552-1.667-.445-1.943.033-.277.478-.014 1.147.943 1.7.585.337 1.34.45 2.264.336l.257-.036-.24.097c-.858.364-1.455.84-1.793 1.424-.552.956-.446 1.667.033 1.943.478.276 1.147.013 1.7-.943.367-.638.467-1.478.3-2.521.376.987.883 1.665 1.52 2.033.957.552 1.668.445 1.944-.033s.013-1.147-.944-1.7c-.637-.368-1.478-.468-2.517-.301.985-.376 1.662-.883 2.03-1.52.552-.956.445-1.667-.033-1.943zm-32 0c-.479-.276-1.147-.013-1.7.943-.337.585-.45 1.34-.337 2.265l.036.252-.096-.236c-.365-.858-.84-1.455-1.424-1.793-.957-.552-1.667-.445-1.943.033-.277.478-.014 1.147.943 1.7.585.337 1.34.45 2.264.336l.257-.036-.24.097c-.858.364-1.455.84-1.793 1.424-.552.956-.446 1.667.033 1.943.478.276 1.147.013 1.7-.943.367-.638.467-1.478.3-2.521.376.987.883 1.665 1.52 2.033.957.552 1.668.445 1.944-.033s.013-1.147-.944-1.7c-.637-.368-1.478-.468-2.517-.301.985-.376 1.662-.883 2.03-1.52.552-.956.445-1.667-.033-1.943zm80 0c-.479-.276-1.147-.013-1.7.943-.337.585-.45 1.34-.337 2.265l.036.252-.096-.236c-.365-.858-.84-1.455-1.424-1.793-.957-.552-1.667-.445-1.943.033-.277.478-.014 1.147.943 1.7.585.337 1.34.45 2.264.336l.257-.036-.24.097c-.858.364-1.455.84-1.793 1.424-.552.956-.446 1.667.033 1.943.478.276 1.147.013 1.7-.943.367-.638.467-1.478.3-2.521.376.987.883 1.665 1.52 2.033.957.552 1.668.445 1.944-.033s.013-1.147-.944-1.7c-.637-.368-1.478-.468-2.517-.301.985-.376 1.662-.883 2.03-1.52.552-.956.445-1.667-.033-1.943zm-16 0c-.479-.276-1.147-.013-1.7.943-.337.585-.45 1.34-.337 2.265l.036.252-.096-.236c-.365-.858-.84-1.455-1.424-1.793-.957-.552-1.667-.445-1.943.033-.277.478-.014 1.147.943 1.7.585.337 1.34.45 2.264.336l.257-.036-.24.097c-.858.364-1.455.84-1.793 1.424-.552.956-.446 1.667.033 1.943.478.276 1.147.013 1.7-.943.367-.638.467-1.478.3-2.521.376.987.883 1.665 1.52 2.033.957.552 1.668.445 1.944-.033s.013-1.147-.944-1.7c-.637-.368-1.478-.468-2.517-.301.985-.376 1.662-.883 2.03-1.52.552-.956.445-1.667-.033-1.943zm-8 0c-.479-.276-1.147-.013-1.7.943-.337.585-.45 1.34-.337 2.265l.036.252-.096-.236c-.365-.858-.84-1.455-1.424-1.793-.957-.552-1.667-.445-1.943.033-.277.478-.014 1.147.943 1.7.585.337 1.34.45 2.264.336l.257-.036-.24.097c-.858.364-1.455.84-1.793 1.424-.552.956-.446 1.667.033 1.943.478.276 1.147.013 1.7-.943.367-.638.467-1.478.3-2.521.376.987.883 1.665 1.52 2.033.957.552 1.668.445 1.944-.033s.013-1.147-.944-1.7c-.637-.368-1.478-.468-2.517-.301.985-.376 1.662-.883 2.03-1.52.552-.956.445-1.667-.033-1.943zm56 0c-.479-.276-1.147-.013-1.7.943-.337.585-.45 1.34-.337 2.265l.036.252-.096-.236c-.365-.858-.84-1.455-1.424-1.793-.957-.552-1.667-.445-1.943.033-.277.478-.014 1.147.943 1.7.585.337 1.34.45 2.264.336l.257-.036-.24.097c-.858.364-1.455.84-1.793 1.424-.552.956-.446 1.667.033 1.943.478.276 1.147.013 1.7-.943.367-.638.467-1.478.3-2.521.376.987.883 1.665 1.52 2.033.957.552 1.668.445 1.944-.033s.013-1.147-.944-1.7c-.637-.368-1.478-.468-2.517-.301.985-.376 1.662-.883 2.03-1.52.552-.956.445-1.667-.033-1.943zm-72 0c-.479-.276-1.147-.013-1.7.943-.337.585-.45 1.34-.337 2.265l.036.252-.096-.236c-.365-.858-.84-1.455-1.424-1.793-.957-.552-1.667-.445-1.943.033-.277.478-.014 1.147.943 1.7.585.337 1.34.45 2.264.336l.257-.036-.24.097c-.858.364-1.455.84-1.793 1.424-.552.956-.446 1.667.033 1.943.478.276 1.147.013 1.7-.943.367-.638.467-1.478.3-2.521.376.987.883 1.665 1.52 2.033.957.552 1.668.445 1.944-.033s.013-1.147-.944-1.7c-.637-.368-1.478-.468-2.517-.301.985-.376 1.662-.883 2.03-1.52.552-.956.445-1.667-.033-1.943zm32 0c-.479-.276-1.147-.013-1.7.943-.337.585-.45 1.34-.337 2.265l.036.252-.096-.236c-.365-.858-.84-1.455-1.424-1.793-.957-.552-1.667-.445-1.943.033-.277.478-.014 1.147.943 1.7.585.337 1.34.45 2.264.336l.257-.036-.24.097c-.858.364-1.455.84-1.793 1.424-.552.956-.446 1.667.033 1.943.478.276 1.147.013 1.7-.943.367-.638.467-1.478.3-2.521.376.987.883 1.665 1.52 2.033.957.552 1.668.445 1.944-.033s.013-1.147-.944-1.7c-.637-.368-1.478-.468-2.517-.301.985-.376 1.662-.883 2.03-1.52.552-.956.445-1.667-.033-1.943zm-24 0c-.479-.276-1.147-.013-1.7.943-.337.585-.45 1.34-.337 2.265l.036.252-.096-.236c-.365-.858-.84-1.455-1.424-1.793-.957-.552-1.667-.445-1.943.033-.277.478-.014 1.147.943 1.7.585.337 1.34.45 2.264.336l.257-.036-.24.097c-.858.364-1.455.84-1.793 1.424-.552.956-.446 1.667.033 1.943.478.276 1.147.013 1.7-.943.367-.638.467-1.478.3-2.521.376.987.883 1.665 1.52 2.033.957.552 1.668.445 1.944-.033s.013-1.147-.944-1.7c-.637-.368-1.478-.468-2.517-.301.985-.376 1.662-.883 2.03-1.52.552-.956.445-1.667-.033-1.943zm-56 0c-.479-.276-1.147-.013-1.7.943-.337.585-.45 1.34-.337 2.265l.036.252-.096-.236c-.365-.858-.84-1.455-1.424-1.793-.957-.552-1.667-.445-1.943.033-.277.478-.014 1.147.943 1.7.585.337 1.34.45 2.264.336l.257-.036-.24.097c-.858.364-1.455.84-1.793 1.424-.552.956-.446 1.667.033 1.943.478.276 1.147.013 1.7-.943.367-.638.467-1.478.3-2.521.376.987.883 1.665 1.52 2.033.957.552 1.668.445 1.944-.033s.013-1.147-.944-1.7c-.637-.368-1.478-.468-2.517-.301.985-.376 1.662-.883 2.03-1.52.552-.956.445-1.667-.033-1.943zm84-8c-.479-.276-1.147-.013-1.7.943-.337.585-.45 1.34-.337 2.265l.036.252-.096-.236c-.365-.858-.84-1.455-1.424-1.793-.957-.552-1.667-.445-1.943.033-.277.478-.014 1.147.943 1.7.585.337 1.34.45 2.264.336l.257-.036-.24.097c-.858.364-1.455.84-1.793 1.424-.552.956-.446 1.667.033 1.943.478.276 1.147.013 1.7-.943.367-.638.467-1.478.3-2.521.376.987.883 1.665 1.52 2.033.957.552 1.668.445 1.944-.033s.013-1.147-.944-1.7c-.637-.368-1.478-.468-2.517-.301.985-.376 1.662-.883 2.03-1.52.552-.956.445-1.667-.033-1.943zm-32 0c-.479-.276-1.147-.013-1.7.943-.337.585-.45 1.34-.337 2.265l.036.252-.096-.236c-.365-.858-.84-1.455-1.424-1.793-.957-.552-1.667-.445-1.943.033-.277.478-.014 1.147.943 1.7.585.337 1.34.45 2.264.336l.257-.036-.24.097c-.858.364-1.455.84-1.793 1.424-.552.956-.446 1.667.033 1.943.478.276 1.147.013 1.7-.943.367-.638.467-1.478.3-2.521.376.987.883 1.665 1.52 2.033.957.552 1.668.445 1.944-.033s.013-1.147-.944-1.7c-.637-.368-1.478-.468-2.517-.301.985-.376 1.662-.883 2.03-1.52.552-.956.445-1.667-.033-1.943zm24 0c-.479-.276-1.147-.013-1.7.943-.337.585-.45 1.34-.337 2.265l.036.252-.096-.236c-.365-.858-.84-1.455-1.424-1.793-.957-.552-1.667-.445-1.943.033-.277.478-.014 1.147.943 1.7.585.337 1.34.45 2.264.336l.257-.036-.24.097c-.858.364-1.455.84-1.793 1.424-.552.956-.446 1.667.033 1.943.478.276 1.147.013 1.7-.943.367-.638.467-1.478.3-2.521.376.987.883 1.665 1.52 2.033.957.552 1.668.445 1.944-.033s.013-1.147-.944-1.7c-.637-.368-1.478-.468-2.517-.301.985-.376 1.662-.883 2.03-1.52.552-.956.445-1.667-.033-1.943zm-32 0c-.479-.276-1.147-.013-1.7.943-.337.585-.45 1.34-.337 2.265l.036.252-.096-.236c-.365-.858-.84-1.455-1.424-1.793-.957-.552-1.667-.445-1.943.033-.277.478-.014 1.147.943 1.7.585.337 1.34.45 2.264.336l.257-.036-.24.097c-.858.364-1.455.84-1.793 1.424-.552.956-.446 1.667.033 1.943.478.276 1.147.013 1.7-.943.367-.638.467-1.478.3-2.521.376.987.883 1.665 1.52 2.033.957.552 1.668.445 1.944-.033s.013-1.147-.944-1.7c-.637-.368-1.478-.468-2.517-.301.985-.376 1.662-.883 2.03-1.52.552-.956.445-1.667-.033-1.943zm-40 0c-.479-.276-1.147-.013-1.7.943-.337.585-.45 1.34-.337 2.265l.036.252-.096-.236c-.365-.858-.84-1.455-1.424-1.793-.957-.552-1.667-.445-1.943.033-.277.478-.014 1.147.943 1.7.585.337 1.34.45 2.264.336l.257-.036-.24.097c-.858.364-1.455.84-1.793 1.424-.552.956-.446 1.667.033 1.943.478.276 1.147.013 1.7-.943.367-.638.467-1.478.3-2.521.376.987.883 1.665 1.52 2.033.957.552 1.668.445 1.944-.033s.013-1.147-.944-1.7c-.637-.368-1.478-.468-2.517-.301.985-.376 1.662-.883 2.03-1.52.552-.956.445-1.667-.033-1.943zm8 0c-.479-.276-1.147-.013-1.7.943-.337.585-.45 1.34-.337 2.265l.036.252-.096-.236c-.365-.858-.84-1.455-1.424-1.793-.957-.552-1.667-.445-1.943.033-.277.478-.014 1.147.943 1.7.585.337 1.34.45 2.264.336l.257-.036-.24.097c-.858.364-1.455.84-1.793 1.424-.552.956-.446 1.667.033 1.943.478.276 1.147.013 1.7-.943.367-.638.467-1.478.3-2.521.376.987.883 1.665 1.52 2.033.957.552 1.668.445 1.944-.033s.013-1.147-.944-1.7c-.637-.368-1.478-.468-2.517-.301.985-.376 1.662-.883 2.03-1.52.552-.956.445-1.667-.033-1.943zm80 0c-.479-.276-1.147-.013-1.7.943-.337.585-.45 1.34-.337 2.265l.036.252-.096-.236c-.365-.858-.84-1.455-1.424-1.793-.957-.552-1.667-.445-1.943.033-.277.478-.014 1.147.943 1.7.585.337 1.34.45 2.264.336l.257-.036-.24.097c-.858.364-1.455.84-1.793 1.424-.552.956-.446 1.667.033 1.943.478.276 1.147.013 1.7-.943.367-.638.467-1.478.3-2.521.376.987.883 1.665 1.52 2.033.957.552 1.668.445 1.944-.033s.013-1.147-.944-1.7c-.637-.368-1.478-.468-2.517-.301.985-.376 1.662-.883 2.03-1.52.552-.956.445-1.667-.033-1.943zm24 0c-.479-.276-1.147-.013-1.7.943-.337.585-.45 1.34-.337 2.265l.036.252-.096-.236c-.365-.858-.84-1.455-1.424-1.793-.957-.552-1.667-.445-1.943.033-.277.478-.014 1.147.943 1.7.585.337 1.34.45 2.264.336l.257-.036-.24.097c-.858.364-1.455.84-1.793 1.424-.552.956-.446 1.667.033 1.943.478.276 1.147.013 1.7-.943.367-.638.467-1.478.3-2.521.376.987.883 1.665 1.52 2.033.957.552 1.668.445 1.944-.033s.013-1.147-.944-1.7c-.637-.368-1.478-.468-2.517-.301.985-.376 1.662-.883 2.03-1.52.552-.956.445-1.667-.033-1.943zm-48 0c-.479-.276-1.147-.013-1.7.943-.337.585-.45 1.34-.337 2.265l.036.252-.096-.236c-.365-.858-.84-1.455-1.424-1.793-.957-.552-1.667-.445-1.943.033-.277.478-.014 1.147.943 1.7.585.337 1.34.45 2.264.336l.257-.036-.24.097c-.858.364-1.455.84-1.793 1.424-.552.956-.446 1.667.033 1.943.478.276 1.147.013 1.7-.943.367-.638.467-1.478.3-2.521.376.987.883 1.665 1.52 2.033.957.552 1.668.445 1.944-.033s.013-1.147-.944-1.7c-.637-.368-1.478-.468-2.517-.301.985-.376 1.662-.883 2.03-1.52.552-.956.445-1.667-.033-1.943zm56 0c-.479-.276-1.147-.013-1.7.943-.337.585-.45 1.34-.337 2.265l.036.252-.096-.236c-.365-.858-.84-1.455-1.424-1.793-.957-.552-1.667-.445-1.943.033-.277.478-.014 1.147.943 1.7.585.337 1.34.45 2.264.336l.257-.036-.24.097c-.858.364-1.455.84-1.793 1.424-.552.956-.446 1.667.033 1.943.478.276 1.147.013 1.7-.943.367-.638.467-1.478.3-2.521.376.987.883 1.665 1.52 2.033.957.552 1.668.445 1.944-.033s.013-1.147-.944-1.7c-.637-.368-1.478-.468-2.517-.301.985-.376 1.662-.883 2.03-1.52.552-.956.445-1.667-.033-1.943zm-64 0c-.479-.276-1.147-.013-1.7.943-.337.585-.45 1.34-.337 2.265l.036.252-.096-.236c-.365-.858-.84-1.455-1.424-1.793-.957-.552-1.667-.445-1.943.033-.277.478-.014 1.147.943 1.7.585.337 1.34.45 2.264.336l.257-.036-.24.097c-.858.364-1.455.84-1.793 1.424-.552.956-.446 1.667.033 1.943.478.276 1.147.013 1.7-.943.367-.638.467-1.478.3-2.521.376.987.883 1.665 1.52 2.033.957.552 1.668.445 1.944-.033s.013-1.147-.944-1.7c-.637-.368-1.478-.468-2.517-.301.985-.376 1.662-.883 2.03-1.52.552-.956.445-1.667-.033-1.943zm-24 0c-.479-.276-1.147-.013-1.7.943-.337.585-.45 1.34-.337 2.265l.036.252-.096-.236c-.365-.858-.84-1.455-1.424-1.793-.957-.552-1.667-.445-1.943.033-.277.478-.014 1.147.943 1.7.585.337 1.34.45 2.264.336l.257-.036-.24.097c-.858.364-1.455.84-1.793 1.424-.552.956-.446 1.667.033 1.943.478.276 1.147.013 1.7-.943.367-.638.467-1.478.3-2.521.376.987.883 1.665 1.52 2.033.957.552 1.668.445 1.944-.033s.013-1.147-.944-1.7c-.637-.368-1.478-.468-2.517-.301.985-.376 1.662-.883 2.03-1.52.552-.956.445-1.667-.033-1.943zm-20-8c-.479-.276-1.147-.013-1.7.943-.337.585-.45 1.34-.337 2.265l.036.252-.096-.236c-.365-.858-.84-1.455-1.424-1.793-.957-.552-1.667-.445-1.943.033-.277.478-.014 1.147.943 1.7.585.337 1.34.45 2.264.336l.257-.036-.24.097c-.858.364-1.455.84-1.793 1.424-.552.956-.446 1.667.033 1.943.478.276 1.147.013 1.7-.943.367-.638.467-1.478.3-2.521.376.987.883 1.665 1.52 2.033.957.552 1.668.445 1.944-.033s.013-1.147-.944-1.7c-.637-.368-1.478-.468-2.517-.301.985-.376 1.662-.883 2.03-1.52.552-.956.445-1.667-.033-1.943zm104 0c-.479-.276-1.147-.013-1.7.943-.337.585-.45 1.34-.337 2.265l.036.252-.096-.236c-.365-.858-.84-1.455-1.424-1.793-.957-.552-1.667-.445-1.943.033-.277.478-.014 1.147.943 1.7.585.337 1.34.45 2.264.336l.257-.036-.24.097c-.858.364-1.455.84-1.793 1.424-.552.956-.446 1.667.033 1.943.478.276 1.147.013 1.7-.943.367-.638.467-1.478.3-2.521.376.987.883 1.665 1.52 2.033.957.552 1.668.445 1.944-.033s.013-1.147-.944-1.7c-.637-.368-1.478-.468-2.517-.301.985-.376 1.662-.883 2.03-1.52.552-.956.445-1.667-.033-1.943zm-32 0c-.479-.276-1.147-.013-1.7.943-.337.585-.45 1.34-.337 2.265l.036.252-.096-.236c-.365-.858-.84-1.455-1.424-1.793-.957-.552-1.667-.445-1.943.033-.277.478-.014 1.147.943 1.7.585.337 1.34.45 2.264.336l.257-.036-.24.097c-.858.364-1.455.84-1.793 1.424-.552.956-.446 1.667.033 1.943.478.276 1.147.013 1.7-.943.367-.638.467-1.478.3-2.521.376.987.883 1.665 1.52 2.033.957.552 1.668.445 1.944-.033s.013-1.147-.944-1.7c-.637-.368-1.478-.468-2.517-.301.985-.376 1.662-.883 2.03-1.52.552-.956.445-1.667-.033-1.943zm-24 0c-.479-.276-1.147-.013-1.7.943-.337.585-.45 1.34-.337 2.265l.036.252-.096-.236c-.365-.858-.84-1.455-1.424-1.793-.957-.552-1.667-.445-1.943.033-.277.478-.014 1.147.943 1.7.585.337 1.34.45 2.264.336l.257-.036-.24.097c-.858.364-1.455.84-1.793 1.424-.552.956-.446 1.667.033 1.943.478.276 1.147.013 1.7-.943.367-.638.467-1.478.3-2.521.376.987.883 1.665 1.52 2.033.957.552 1.668.445 1.944-.033s.013-1.147-.944-1.7c-.637-.368-1.478-.468-2.517-.301.985-.376 1.662-.883 2.03-1.52.552-.956.445-1.667-.033-1.943zm16 0c-.479-.276-1.147-.013-1.7.943-.337.585-.45 1.34-.337 2.265l.036.252-.096-.236c-.365-.858-.84-1.455-1.424-1.793-.957-.552-1.667-.445-1.943.033-.277.478-.014 1.147.943 1.7.585.337 1.34.45 2.264.336l.257-.036-.24.097c-.858.364-1.455.84-1.793 1.424-.552.956-.446 1.667.033 1.943.478.276 1.147.013 1.7-.943.367-.638.467-1.478.3-2.521.376.987.883 1.665 1.52 2.033.957.552 1.668.445 1.944-.033s.013-1.147-.944-1.7c-.637-.368-1.478-.468-2.517-.301.985-.376 1.662-.883 2.03-1.52.552-.956.445-1.667-.033-1.943zm-72 0c-.479-.276-1.147-.013-1.7.943-.337.585-.45 1.34-.337 2.265l.036.252-.096-.236c-.365-.858-.84-1.455-1.424-1.793-.957-.552-1.667-.445-1.943.033-.277.478-.014 1.147.943 1.7.585.337 1.34.45 2.264.336l.257-.036-.24.097c-.858.364-1.455.84-1.793 1.424-.552.956-.446 1.667.033 1.943.478.276 1.147.013 1.7-.943.367-.638.467-1.478.3-2.521.376.987.883 1.665 1.52 2.033.957.552 1.668.445 1.944-.033s.013-1.147-.944-1.7c-.637-.368-1.478-.468-2.517-.301.985-.376 1.662-.883 2.03-1.52.552-.956.445-1.667-.033-1.943zm64 0c-.479-.276-1.147-.013-1.7.943-.337.585-.45 1.34-.337 2.265l.036.252-.096-.236c-.365-.858-.84-1.455-1.424-1.793-.957-.552-1.667-.445-1.943.033-.277.478-.014 1.147.943 1.7.585.337 1.34.45 2.264.336l.257-.036-.24.097c-.858.364-1.455.84-1.793 1.424-.552.956-.446 1.667.033 1.943.478.276 1.147.013 1.7-.943.367-.638.467-1.478.3-2.521.376.987.883 1.665 1.52 2.033.957.552 1.668.445 1.944-.033s.013-1.147-.944-1.7c-.637-.368-1.478-.468-2.517-.301.985-.376 1.662-.883 2.03-1.52.552-.956.445-1.667-.033-1.943zm-32 0c-.479-.276-1.147-.013-1.7.943-.337.585-.45 1.34-.337 2.265l.036.252-.096-.236c-.365-.858-.84-1.455-1.424-1.793-.957-.552-1.667-.445-1.943.033-.277.478-.014 1.147.943 1.7.585.337 1.34.45 2.264.336l.257-.036-.24.097c-.858.364-1.455.84-1.793 1.424-.552.956-.446 1.667.033 1.943.478.276 1.147.013 1.7-.943.367-.638.467-1.478.3-2.521.376.987.883 1.665 1.52 2.033.957.552 1.668.445 1.944-.033s.013-1.147-.944-1.7c-.637-.368-1.478-.468-2.517-.301.985-.376 1.662-.883 2.03-1.52.552-.956.445-1.667-.033-1.943zm72 0c-.479-.276-1.147-.013-1.7.943-.337.585-.45 1.34-.337 2.265l.036.252-.096-.236c-.365-.858-.84-1.455-1.424-1.793-.957-.552-1.667-.445-1.943.033-.277.478-.014 1.147.943 1.7.585.337 1.34.45 2.264.336l.257-.036-.24.097c-.858.364-1.455.84-1.793 1.424-.552.956-.446 1.667.033 1.943.478.276 1.147.013 1.7-.943.367-.638.467-1.478.3-2.521.376.987.883 1.665 1.52 2.033.957.552 1.668.445 1.944-.033s.013-1.147-.944-1.7c-.637-.368-1.478-.468-2.517-.301.985-.376 1.662-.883 2.03-1.52.552-.956.445-1.667-.033-1.943zm-56 0c-.479-.276-1.147-.013-1.7.943-.337.585-.45 1.34-.337 2.265l.036.252-.096-.236c-.365-.858-.84-1.455-1.424-1.793-.957-.552-1.667-.445-1.943.033-.277.478-.014 1.147.943 1.7.585.337 1.34.45 2.264.336l.257-.036-.24.097c-.858.364-1.455.84-1.793 1.424-.552.956-.446 1.667.033 1.943.478.276 1.147.013 1.7-.943.367-.638.467-1.478.3-2.521.376.987.883 1.665 1.52 2.033.957.552 1.668.445 1.944-.033s.013-1.147-.944-1.7c-.637-.368-1.478-.468-2.517-.301.985-.376 1.662-.883 2.03-1.52.552-.956.445-1.667-.033-1.943zm-8 0c-.479-.276-1.147-.013-1.7.943-.337.585-.45 1.34-.337 2.265l.036.252-.096-.236c-.365-.858-.84-1.455-1.424-1.793-.957-.552-1.667-.445-1.943.033-.277.478-.014 1.147.943 1.7.585.337 1.34.45 2.264.336l.257-.036-.24.097c-.858.364-1.455.84-1.793 1.424-.552.956-.446 1.667.033 1.943.478.276 1.147.013 1.7-.943.367-.638.467-1.478.3-2.521.376.987.883 1.665 1.52 2.033.957.552 1.668.445 1.944-.033s.013-1.147-.944-1.7c-.637-.368-1.478-.468-2.517-.301.985-.376 1.662-.883 2.03-1.52.552-.956.445-1.667-.033-1.943zm-26 3.464c.145.38.309.715.493 1.003l-.557.964c.166-.547.187-1.202.064-1.967zm105.828-1.22l.989 1.71c-.09-.064-.189-.127-.297-.19-.637-.368-1.478-.468-2.517-.301.825-.315 1.433-.721 1.825-1.219zM123.608 60l-.24.097c-.25.106-.479.222-.685.347l-.215-.37c.275.013.57 0 .883-.038l.257-.036zm-78.329-1.038l-.556.963c-.34-.015-.711.01-1.112.074.722-.276 1.278-.621 1.668-1.037zm12.329-10.426c-.479-.276-1.147-.013-1.7.943-.337.585-.45 1.34-.337 2.265l.036.252-.096-.236c-.365-.858-.84-1.455-1.424-1.793-.957-.552-1.667-.445-1.943.033-.277.478-.014 1.147.943 1.7.585.337 1.34.45 2.264.336l.257-.036-.24.097c-.858.364-1.455.84-1.793 1.424-.552.956-.446 1.667.033 1.943.478.276 1.147.013 1.7-.943.367-.638.467-1.478.3-2.521.376.987.883 1.665 1.52 2.033.957.552 1.668.445 1.944-.033s.013-1.147-.944-1.7c-.637-.368-1.478-.468-2.517-.301.985-.376 1.662-.883 2.03-1.52.552-.956.445-1.667-.033-1.943zm72 0c-.479-.276-1.147-.013-1.7.943-.337.585-.45 1.34-.337 2.265l.036.252-.096-.236c-.365-.858-.84-1.455-1.424-1.793-.957-.552-1.667-.445-1.943.033-.277.478-.014 1.147.943 1.7.585.337 1.34.45 2.264.336l.257-.036-.24.097c-.858.364-1.455.84-1.793 1.424-.552.956-.446 1.667.033 1.943.478.276 1.147.013 1.7-.943.367-.638.467-1.478.3-2.521.376.987.883 1.665 1.52 2.033.957.552 1.668.445 1.944-.033s.013-1.147-.944-1.7c-.637-.368-1.478-.468-2.517-.301.985-.376 1.662-.883 2.03-1.52.552-.956.445-1.667-.033-1.943zm-88 0c-.479-.276-1.147-.013-1.7.943-.337.585-.45 1.34-.337 2.265l.036.252-.096-.236c-.365-.858-.84-1.455-1.424-1.793-.957-.552-1.667-.445-1.943.033-.277.478-.014 1.147.943 1.7.585.337 1.34.45 2.264.336l.257-.036-.24.097c-.858.364-1.455.84-1.793 1.424-.552.956-.446 1.667.033 1.943.478.276 1.147.013 1.7-.943.367-.638.467-1.478.3-2.521.376.987.883 1.665 1.52 2.033.957.552 1.668.445 1.944-.033s.013-1.147-.944-1.7c-.637-.368-1.478-.468-2.517-.301.985-.376 1.662-.883 2.03-1.52.552-.956.445-1.667-.033-1.943zm40 0c-.479-.276-1.147-.013-1.7.943-.337.585-.45 1.34-.337 2.265l.036.252-.096-.236c-.365-.858-.84-1.455-1.424-1.793-.957-.552-1.667-.445-1.943.033-.277.478-.014 1.147.943 1.7.585.337 1.34.45 2.264.336l.257-.036-.24.097c-.858.364-1.455.84-1.793 1.424-.552.956-.446 1.667.033 1.943.478.276 1.147.013 1.7-.943.367-.638.467-1.478.3-2.521.376.987.883 1.665 1.52 2.033.957.552 1.668.445 1.944-.033s.013-1.147-.944-1.7c-.637-.368-1.478-.468-2.517-.301.985-.376 1.662-.883 2.03-1.52.552-.956.445-1.667-.033-1.943zm32 0c-.479-.276-1.147-.013-1.7.943-.337.585-.45 1.34-.337 2.265l.036.252-.096-.236c-.365-.858-.84-1.455-1.424-1.793-.957-.552-1.667-.445-1.943.033-.277.478-.014 1.147.943 1.7.585.337 1.34.45 2.264.336l.257-.036-.24.097c-.858.364-1.455.84-1.793 1.424-.552.956-.446 1.667.033 1.943.478.276 1.147.013 1.7-.943.367-.638.467-1.478.3-2.521.376.987.883 1.665 1.52 2.033.957.552 1.668.445 1.944-.033s.013-1.147-.944-1.7c-.637-.368-1.478-.468-2.517-.301.985-.376 1.662-.883 2.03-1.52.552-.956.445-1.667-.033-1.943zm-80 0c-.479-.276-1.147-.013-1.7.943-.337.585-.45 1.34-.337 2.265l.036.252-.096-.236c-.365-.858-.84-1.455-1.424-1.793-.957-.552-1.667-.445-1.943.033-.277.478-.014 1.147.943 1.7.585.337 1.34.45 2.264.336l.257-.036-.24.097c-.858.364-1.455.84-1.793 1.424-.552.956-.446 1.667.033 1.943.478.276 1.147.013 1.7-.943.367-.638.467-1.478.3-2.521.376.987.883 1.665 1.52 2.033.957.552 1.668.445 1.944-.033s.013-1.147-.944-1.7c-.637-.368-1.478-.468-2.517-.301.985-.376 1.662-.883 2.03-1.52.552-.956.445-1.667-.033-1.943zm64 0c-.479-.276-1.147-.013-1.7.943-.337.585-.45 1.34-.337 2.265l.036.252-.096-.236c-.365-.858-.84-1.455-1.424-1.793-.957-.552-1.667-.445-1.943.033-.277.478-.014 1.147.943 1.7.585.337 1.34.45 2.264.336l.257-.036-.24.097c-.858.364-1.455.84-1.793 1.424-.552.956-.446 1.667.033 1.943.478.276 1.147.013 1.7-.943.367-.638.467-1.478.3-2.521.376.987.883 1.665 1.52 2.033.957.552 1.668.445 1.944-.033s.013-1.147-.944-1.7c-.637-.368-1.478-.468-2.517-.301.985-.376 1.662-.883 2.03-1.52.552-.956.445-1.667-.033-1.943zm-32 0c-.479-.276-1.147-.013-1.7.943-.337.585-.45 1.34-.337 2.265l.036.252-.096-.236c-.365-.858-.84-1.455-1.424-1.793-.957-.552-1.667-.445-1.943.033-.277.478-.014 1.147.943 1.7.585.337 1.34.45 2.264.336l.257-.036-.24.097c-.858.364-1.455.84-1.793 1.424-.552.956-.446 1.667.033 1.943.478.276 1.147.013 1.7-.943.367-.638.467-1.478.3-2.521.376.987.883 1.665 1.52 2.033.957.552 1.668.445 1.944-.033s.013-1.147-.944-1.7c-.637-.368-1.478-.468-2.517-.301.985-.376 1.662-.883 2.03-1.52.552-.956.445-1.667-.033-1.943zm8 0c-.479-.276-1.147-.013-1.7.943-.337.585-.45 1.34-.337 2.265l.036.252-.096-.236c-.365-.858-.84-1.455-1.424-1.793-.957-.552-1.667-.445-1.943.033-.277.478-.014 1.147.943 1.7.585.337 1.34.45 2.264.336l.257-.036-.24.097c-.858.364-1.455.84-1.793 1.424-.552.956-.446 1.667.033 1.943.478.276 1.147.013 1.7-.943.367-.638.467-1.478.3-2.521.376.987.883 1.665 1.52 2.033.957.552 1.668.445 1.944-.033s.013-1.147-.944-1.7c-.637-.368-1.478-.468-2.517-.301.985-.376 1.662-.883 2.03-1.52.552-.956.445-1.667-.033-1.943zm64 0c-.479-.276-1.147-.013-1.7.943-.337.585-.45 1.34-.337 2.265l.036.252-.096-.236c-.365-.858-.84-1.455-1.424-1.793-.957-.552-1.667-.445-1.943.033-.277.478-.014 1.147.943 1.7.585.337 1.34.45 2.264.336l.257-.036-.24.097c-.858.364-1.455.84-1.793 1.424-.552.956-.446 1.667.033 1.943.478.276 1.147.013 1.7-.943.367-.638.467-1.478.3-2.521.376.987.883 1.665 1.52 2.033.957.552 1.668.445 1.944-.033s.013-1.147-.944-1.7c-.637-.368-1.478-.468-2.517-.301.985-.376 1.662-.883 2.03-1.52.552-.956.445-1.667-.033-1.943zm-32 0c-.479-.276-1.147-.013-1.7.943-.337.585-.45 1.34-.337 2.265l.036.252-.096-.236c-.365-.858-.84-1.455-1.424-1.793-.957-.552-1.667-.445-1.943.033-.277.478-.014 1.147.943 1.7.585.337 1.34.45 2.264.336l.257-.036-.24.097c-.858.364-1.455.84-1.793 1.424-.552.956-.446 1.667.033 1.943.478.276 1.147.013 1.7-.943.367-.638.467-1.478.3-2.521.376.987.883 1.665 1.52 2.033.957.552 1.668.445 1.944-.033s.013-1.147-.944-1.7c-.637-.368-1.478-.468-2.517-.301.985-.376 1.662-.883 2.03-1.52.552-.956.445-1.667-.033-1.943zm-16 0c-.479-.276-1.147-.013-1.7.943-.337.585-.45 1.34-.337 2.265l.036.252-.096-.236c-.365-.858-.84-1.455-1.424-1.793-.957-.552-1.667-.445-1.943.033-.277.478-.014 1.147.943 1.7.585.337 1.34.45 2.264.336l.257-.036-.24.097c-.858.364-1.455.84-1.793 1.424-.552.956-.446 1.667.033 1.943.478.276 1.147.013 1.7-.943.367-.638.467-1.478.3-2.521.376.987.883 1.665 1.52 2.033.957.552 1.668.445 1.944-.033s.013-1.147-.944-1.7c-.637-.368-1.478-.468-2.517-.301.985-.376 1.662-.883 2.03-1.52.552-.956.445-1.667-.033-1.943zm28.187 3.443c.45.11.969.129 1.556.057l.257-.036-.24.097c-.445.189-.82.408-1.125.656zm27.255-.797l.507.876c-.543-.16-1.192-.18-1.946-.06.59-.225 1.07-.497 1.439-.816zm-11.442-10.646c-.479-.276-1.147-.013-1.7.943-.337.585-.45 1.34-.337 2.265l.036.252-.096-.236c-.365-.858-.84-1.455-1.424-1.793-.957-.552-1.667-.445-1.943.033-.277.478-.014 1.147.943 1.7.585.337 1.34.45 2.264.336l.257-.036-.24.097c-.858.364-1.455.84-1.793 1.424-.552.956-.446 1.667.033 1.943.478.276 1.147.013 1.7-.943.367-.638.467-1.478.3-2.521.376.987.883 1.665 1.52 2.033.957.552 1.668.445 1.944-.033s.013-1.147-.944-1.7c-.637-.368-1.478-.468-2.517-.301.985-.376 1.662-.883 2.03-1.52.552-.956.445-1.667-.033-1.943zm-72 0c-.479-.276-1.147-.013-1.7.943-.337.585-.45 1.34-.337 2.265l.036.252-.096-.236c-.365-.858-.84-1.455-1.424-1.793-.957-.552-1.667-.445-1.943.033-.277.478-.014 1.147.943 1.7.585.337 1.34.45 2.264.336l.257-.036-.24.097c-.858.364-1.455.84-1.793 1.424-.552.956-.446 1.667.033 1.943.478.276 1.147.013 1.7-.943.367-.638.467-1.478.3-2.521.376.987.883 1.665 1.52 2.033.957.552 1.668.445 1.944-.033s.013-1.147-.944-1.7c-.637-.368-1.478-.468-2.517-.301.985-.376 1.662-.883 2.03-1.52.552-.956.445-1.667-.033-1.943zm24 0c-.479-.276-1.147-.013-1.7.943-.337.585-.45 1.34-.337 2.265l.036.252-.096-.236c-.365-.858-.84-1.455-1.424-1.793-.957-.552-1.667-.445-1.943.033-.277.478-.014 1.147.943 1.7.585.337 1.34.45 2.264.336l.257-.036-.24.097c-.858.364-1.455.84-1.793 1.424-.552.956-.446 1.667.033 1.943.478.276 1.147.013 1.7-.943.367-.638.467-1.478.3-2.521.376.987.883 1.665 1.52 2.033.957.552 1.668.445 1.944-.033s.013-1.147-.944-1.7c-.637-.368-1.478-.468-2.517-.301.985-.376 1.662-.883 2.03-1.52.552-.956.445-1.667-.033-1.943zm-16 0c-.479-.276-1.147-.013-1.7.943-.337.585-.45 1.34-.337 2.265l.036.252-.096-.236c-.365-.858-.84-1.455-1.424-1.793-.957-.552-1.667-.445-1.943.033-.277.478-.014 1.147.943 1.7.585.337 1.34.45 2.264.336l.257-.036-.24.097c-.858.364-1.455.84-1.793 1.424-.552.956-.446 1.667.033 1.943.478.276 1.147.013 1.7-.943.367-.638.467-1.478.3-2.521.376.987.883 1.665 1.52 2.033.957.552 1.668.445 1.944-.033s.013-1.147-.944-1.7c-.637-.368-1.478-.468-2.517-.301.985-.376 1.662-.883 2.03-1.52.552-.956.445-1.667-.033-1.943zm32 0c-.479-.276-1.147-.013-1.7.943-.337.585-.45 1.34-.337 2.265l.036.252-.096-.236c-.365-.858-.84-1.455-1.424-1.793-.957-.552-1.667-.445-1.943.033-.277.478-.014 1.147.943 1.7.585.337 1.34.45 2.264.336l.257-.036-.24.097c-.858.364-1.455.84-1.793 1.424-.552.956-.446 1.667.033 1.943.478.276 1.147.013 1.7-.943.367-.638.467-1.478.3-2.521.376.987.883 1.665 1.52 2.033.957.552 1.668.445 1.944-.033s.013-1.147-.944-1.7c-.637-.368-1.478-.468-2.517-.301.985-.376 1.662-.883 2.03-1.52.552-.956.445-1.667-.033-1.943zm-64 0c-.479-.276-1.147-.013-1.7.943-.337.585-.45 1.34-.337 2.265l.036.252-.096-.236c-.365-.858-.84-1.455-1.424-1.793-.957-.552-1.667-.445-1.943.033-.277.478-.014 1.147.943 1.7.585.337 1.34.45 2.264.336l.257-.036-.24.097c-.858.364-1.455.84-1.793 1.424-.552.956-.446 1.667.033 1.943.478.276 1.147.013 1.7-.943.367-.638.467-1.478.3-2.521.376.987.883 1.665 1.52 2.033.957.552 1.668.445 1.944-.033s.013-1.147-.944-1.7c-.637-.368-1.478-.468-2.517-.301.985-.376 1.662-.883 2.03-1.52.552-.956.445-1.667-.033-1.943zm80 0c-.479-.276-1.147-.013-1.7.943-.337.585-.45 1.34-.337 2.265l.036.252-.096-.236c-.365-.858-.84-1.455-1.424-1.793-.957-.552-1.667-.445-1.943.033-.277.478-.014 1.147.943 1.7.585.337 1.34.45 2.264.336l.257-.036-.24.097c-.858.364-1.455.84-1.793 1.424-.552.956-.446 1.667.033 1.943.478.276 1.147.013 1.7-.943.367-.638.467-1.478.3-2.521.376.987.883 1.665 1.52 2.033.957.552 1.668.445 1.944-.033s.013-1.147-.944-1.7c-.637-.368-1.478-.468-2.517-.301.985-.376 1.662-.883 2.03-1.52.552-.956.445-1.667-.033-1.943zm8 0c-.479-.276-1.147-.013-1.7.943-.337.585-.45 1.34-.337 2.265l.036.252-.096-.236c-.365-.858-.84-1.455-1.424-1.793-.957-.552-1.667-.445-1.943.033-.277.478-.014 1.147.943 1.7.585.337 1.34.45 2.264.336l.257-.036-.24.097c-.858.364-1.455.84-1.793 1.424-.552.956-.446 1.667.033 1.943.478.276 1.147.013 1.7-.943.367-.638.467-1.478.3-2.521.376.987.883 1.665 1.52 2.033.957.552 1.668.445 1.944-.033s.013-1.147-.944-1.7c-.637-.368-1.478-.468-2.517-.301.985-.376 1.662-.883 2.03-1.52.552-.956.445-1.667-.033-1.943zm-48 0c-.479-.276-1.147-.013-1.7.943-.337.585-.45 1.34-.337 2.265l.036.252-.096-.236c-.365-.858-.84-1.455-1.424-1.793-.957-.552-1.667-.445-1.943.033-.277.478-.014 1.147.943 1.7.585.337 1.34.45 2.264.336l.257-.036-.24.097c-.858.364-1.455.84-1.793 1.424-.552.956-.446 1.667.033 1.943.478.276 1.147.013 1.7-.943.367-.638.467-1.478.3-2.521.376.987.883 1.665 1.52 2.033.957.552 1.668.445 1.944-.033s.013-1.147-.944-1.7c-.637-.368-1.478-.468-2.517-.301.985-.376 1.662-.883 2.03-1.52.552-.956.445-1.667-.033-1.943zm16 0c-.479-.276-1.147-.013-1.7.943-.337.585-.45 1.34-.337 2.265l.036.252-.096-.236c-.365-.858-.84-1.455-1.424-1.793-.957-.552-1.667-.445-1.943.033-.277.478-.014 1.147.943 1.7.585.337 1.34.45 2.264.336l.257-.036-.24.097c-.858.364-1.455.84-1.793 1.424-.552.956-.446 1.667.033 1.943.478.276 1.147.013 1.7-.943.367-.638.467-1.478.3-2.521.376.987.883 1.665 1.52 2.033.957.552 1.668.445 1.944-.033s.013-1.147-.944-1.7c-.637-.368-1.478-.468-2.517-.301.985-.376 1.662-.883 2.03-1.52.552-.956.445-1.667-.033-1.943zm16 0c-.479-.276-1.147-.013-1.7.943-.337.585-.45 1.34-.337 2.265l.036.252-.096-.236c-.365-.858-.84-1.455-1.424-1.793-.957-.552-1.667-.445-1.943.033-.277.478-.014 1.147.943 1.7.585.337 1.34.45 2.264.336l.257-.036-.24.097c-.858.364-1.455.84-1.793 1.424-.552.956-.446 1.667.033 1.943.478.276 1.147.013 1.7-.943.367-.638.467-1.478.3-2.521.376.987.883 1.665 1.52 2.033.957.552 1.668.445 1.944-.033s.013-1.147-.944-1.7c-.637-.368-1.478-.468-2.517-.301.985-.376 1.662-.883 2.03-1.52.552-.956.445-1.667-.033-1.943zm-64 0c-.479-.276-1.147-.013-1.7.943-.337.585-.45 1.34-.337 2.265l.036.252-.096-.236c-.365-.858-.84-1.455-1.424-1.793-.957-.552-1.667-.445-1.943.033-.277.478-.014 1.147.943 1.7.585.337 1.34.45 2.264.336l.257-.036-.24.097c-.858.364-1.455.84-1.793 1.424-.552.956-.446 1.667.033 1.943.478.276 1.147.013 1.7-.943.367-.638.467-1.478.3-2.521.376.987.883 1.665 1.52 2.033.957.552 1.668.445 1.944-.033s.013-1.147-.944-1.7c-.637-.368-1.478-.468-2.517-.301.985-.376 1.662-.883 2.03-1.52.552-.956.445-1.667-.033-1.943zm8 0c-.479-.276-1.147-.013-1.7.943-.337.585-.45 1.34-.337 2.265l.036.252-.096-.236c-.365-.858-.84-1.455-1.424-1.793-.957-.552-1.667-.445-1.943.033-.277.478-.014 1.147.943 1.7.585.337 1.34.45 2.264.336l.257-.036-.24.097c-.858.364-1.455.84-1.793 1.424-.552.956-.446 1.667.033 1.943.478.276 1.147.013 1.7-.943.367-.638.467-1.478.3-2.521.376.987.883 1.665 1.52 2.033.957.552 1.668.445 1.944-.033s.013-1.147-.944-1.7c-.637-.368-1.478-.468-2.517-.301.985-.376 1.662-.883 2.03-1.52.552-.956.445-1.667-.033-1.943zm87.01 2.967l.25.431c-.38-.03-.8-.009-1.257.065.382-.146.717-.311 1.006-.496zm-67.01-10.967c-.479-.276-1.147-.013-1.7.943-.337.585-.45 1.34-.337 2.265l.036.252-.096-.236c-.365-.858-.84-1.455-1.424-1.793-.957-.552-1.667-.445-1.943.033-.277.478-.014 1.147.943 1.7.585.337 1.34.45 2.264.336l.257-.036-.24.097c-.858.364-1.455.84-1.793 1.424-.552.956-.446 1.667.033 1.943.478.276 1.147.013 1.7-.943.367-.638.467-1.478.3-2.521.376.987.883 1.665 1.52 2.033.957.552 1.668.445 1.944-.033s.013-1.147-.944-1.7c-.637-.368-1.478-.468-2.517-.301.985-.376 1.662-.883 2.03-1.52.552-.956.445-1.667-.033-1.943zm32 0c-.479-.276-1.147-.013-1.7.943-.337.585-.45 1.34-.337 2.265l.036.252-.096-.236c-.365-.858-.84-1.455-1.424-1.793-.957-.552-1.667-.445-1.943.033-.277.478-.014 1.147.943 1.7.585.337 1.34.45 2.264.336l.257-.036-.24.097c-.858.364-1.455.84-1.793 1.424-.552.956-.446 1.667.033 1.943.478.276 1.147.013 1.7-.943.367-.638.467-1.478.3-2.521.376.987.883 1.665 1.52 2.033.957.552 1.668.445 1.944-.033s.013-1.147-.944-1.7c-.637-.368-1.478-.468-2.517-.301.985-.376 1.662-.883 2.03-1.52.552-.956.445-1.667-.033-1.943zm-56 0c-.479-.276-1.147-.013-1.7.943-.337.585-.45 1.34-.337 2.265l.036.252-.096-.236c-.365-.858-.84-1.455-1.424-1.793-.957-.552-1.667-.445-1.943.033-.277.478-.014 1.147.943 1.7.585.337 1.34.45 2.264.336l.257-.036-.24.097c-.858.364-1.455.84-1.793 1.424-.552.956-.446 1.667.033 1.943.478.276 1.147.013 1.7-.943.367-.638.467-1.478.3-2.521.376.987.883 1.665 1.52 2.033.957.552 1.668.445 1.944-.033s.013-1.147-.944-1.7c-.637-.368-1.478-.468-2.517-.301.985-.376 1.662-.883 2.03-1.52.552-.956.445-1.667-.033-1.943zm8 0c-.479-.276-1.147-.013-1.7.943-.337.585-.45 1.34-.337 2.265l.036.252-.096-.236c-.365-.858-.84-1.455-1.424-1.793-.957-.552-1.667-.445-1.943.033-.277.478-.014 1.147.943 1.7.585.337 1.34.45 2.264.336l.257-.036-.24.097c-.858.364-1.455.84-1.793 1.424-.552.956-.446 1.667.033 1.943.478.276 1.147.013 1.7-.943.367-.638.467-1.478.3-2.521.376.987.883 1.665 1.52 2.033.957.552 1.668.445 1.944-.033s.013-1.147-.944-1.7c-.637-.368-1.478-.468-2.517-.301.985-.376 1.662-.883 2.03-1.52.552-.956.445-1.667-.033-1.943zm64 0c-.479-.276-1.147-.013-1.7.943-.337.585-.45 1.34-.337 2.265l.036.252-.096-.236c-.365-.858-.84-1.455-1.424-1.793-.957-.552-1.667-.445-1.943.033-.277.478-.014 1.147.943 1.7.585.337 1.34.45 2.264.336l.257-.036-.24.097c-.858.364-1.455.84-1.793 1.424-.552.956-.446 1.667.033 1.943.478.276 1.147.013 1.7-.943.367-.638.467-1.478.3-2.521.376.987.883 1.665 1.52 2.033.957.552 1.668.445 1.944-.033s.013-1.147-.944-1.7c-.637-.368-1.478-.468-2.517-.301.985-.376 1.662-.883 2.03-1.52.552-.956.445-1.667-.033-1.943zm-56 0c-.479-.276-1.147-.013-1.7.943-.337.585-.45 1.34-.337 2.265l.036.252-.096-.236c-.365-.858-.84-1.455-1.424-1.793-.957-.552-1.667-.445-1.943.033-.277.478-.014 1.147.943 1.7.585.337 1.34.45 2.264.336l.257-.036-.24.097c-.858.364-1.455.84-1.793 1.424-.552.956-.446 1.667.033 1.943.478.276 1.147.013 1.7-.943.367-.638.467-1.478.3-2.521.376.987.883 1.665 1.52 2.033.957.552 1.668.445 1.944-.033s.013-1.147-.944-1.7c-.637-.368-1.478-.468-2.517-.301.985-.376 1.662-.883 2.03-1.52.552-.956.445-1.667-.033-1.943zm-24 0c-.479-.276-1.147-.013-1.7.943-.337.585-.45 1.34-.337 2.265l.036.252-.096-.236c-.365-.858-.84-1.455-1.424-1.793-.957-.552-1.667-.445-1.943.033-.277.478-.014 1.147.943 1.7.585.337 1.34.45 2.264.336l.257-.036-.24.097c-.858.364-1.455.84-1.793 1.424-.552.956-.446 1.667.033 1.943.478.276 1.147.013 1.7-.943.367-.638.467-1.478.3-2.521.376.987.883 1.665 1.52 2.033.957.552 1.668.445 1.944-.033s.013-1.147-.944-1.7c-.637-.368-1.478-.468-2.517-.301.985-.376 1.662-.883 2.03-1.52.552-.956.445-1.667-.033-1.943zm72 0c-.479-.276-1.147-.013-1.7.943-.337.585-.45 1.34-.337 2.265l.036.252-.096-.236c-.365-.858-.84-1.455-1.424-1.793-.957-.552-1.667-.445-1.943.033-.277.478-.014 1.147.943 1.7.585.337 1.34.45 2.264.336l.257-.036-.24.097c-.858.364-1.455.84-1.793 1.424-.552.956-.446 1.667.033 1.943.478.276 1.147.013 1.7-.943.367-.638.467-1.478.3-2.521.376.987.883 1.665 1.52 2.033.957.552 1.668.445 1.944-.033s.013-1.147-.944-1.7c-.637-.368-1.478-.468-2.517-.301.985-.376 1.662-.883 2.03-1.52.552-.956.445-1.667-.033-1.943zm16 0c-.479-.276-1.147-.013-1.7.943-.337.585-.45 1.34-.337 2.265l.036.252-.096-.236c-.365-.858-.84-1.455-1.424-1.793-.957-.552-1.667-.445-1.943.033-.277.478-.014 1.147.943 1.7.585.337 1.34.45 2.264.336l.257-.036-.24.097c-.858.364-1.455.84-1.793 1.424-.552.956-.446 1.667.033 1.943.478.276 1.147.013 1.7-.943.367-.638.467-1.478.3-2.521.376.987.883 1.665 1.52 2.033.957.552 1.668.445 1.944-.033s.013-1.147-.944-1.7c-.637-.368-1.478-.468-2.517-.301.985-.376 1.662-.883 2.03-1.52.552-.956.445-1.667-.033-1.943zm-32 0c-.479-.276-1.147-.013-1.7.943-.337.585-.45 1.34-.337 2.265l.036.252-.096-.236c-.365-.858-.84-1.455-1.424-1.793-.957-.552-1.667-.445-1.943.033-.277.478-.014 1.147.943 1.7.585.337 1.34.45 2.264.336l.257-.036-.24.097c-.858.364-1.455.84-1.793 1.424-.552.956-.446 1.667.033 1.943.478.276 1.147.013 1.7-.943.367-.638.467-1.478.3-2.521.376.987.883 1.665 1.52 2.033.957.552 1.668.445 1.944-.033s.013-1.147-.944-1.7c-.637-.368-1.478-.468-2.517-.301.985-.376 1.662-.883 2.03-1.52.552-.956.445-1.667-.033-1.943zm-8 0c-.479-.276-1.147-.013-1.7.943-.337.585-.45 1.34-.337 2.265l.036.252-.096-.236c-.365-.858-.84-1.455-1.424-1.793-.957-.552-1.667-.445-1.943.033-.277.478-.014 1.147.943 1.7.585.337 1.34.45 2.264.336l.257-.036-.24.097c-.858.364-1.455.84-1.793 1.424-.552.956-.446 1.667.033 1.943.478.276 1.147.013 1.7-.943.367-.638.467-1.478.3-2.521.376.987.883 1.665 1.52 2.033.957.552 1.668.445 1.944-.033s.013-1.147-.944-1.7c-.637-.368-1.478-.468-2.517-.301.985-.376 1.662-.883 2.03-1.52.552-.956.445-1.667-.033-1.943zm-8 0c-.479-.276-1.147-.013-1.7.943-.337.585-.45 1.34-.337 2.265l.036.252-.096-.236c-.365-.858-.84-1.455-1.424-1.793-.957-.552-1.667-.445-1.943.033-.277.478-.014 1.147.943 1.7.585.337 1.34.45 2.264.336l.257-.036-.24.097c-.858.364-1.455.84-1.793 1.424-.552.956-.446 1.667.033 1.943.478.276 1.147.013 1.7-.943.367-.638.467-1.478.3-2.521.376.987.883 1.665 1.52 2.033.957.552 1.668.445 1.944-.033s.013-1.147-.944-1.7c-.637-.368-1.478-.468-2.517-.301.985-.376 1.662-.883 2.03-1.52.552-.956.445-1.667-.033-1.943zm-50 3.464l-.24.097c-.33.14-.62.295-.872.468l.283-.487c.183-.004.374-.017.572-.042l.257-.036zm-.067-1.245c-.023.304-.013.634.03.989l.036.252-.096-.236c-.078-.184-.162-.357-.25-.517zm94.067-10.22c-.479-.275-1.147-.012-1.7.944-.337.585-.45 1.34-.337 2.265l.036.252-.096-.236c-.365-.858-.84-1.455-1.424-1.793-.957-.552-1.667-.445-1.943.033-.277.478-.014 1.147.943 1.7.585.337 1.34.45 2.264.336l.257-.036-.24.097c-.858.364-1.455.84-1.793 1.424-.552.956-.446 1.667.033 1.943.478.276 1.147.013 1.7-.943.367-.638.467-1.478.3-2.521.376.987.883 1.665 1.52 2.033.957.552 1.668.445 1.944-.033s.013-1.147-.944-1.7c-.637-.368-1.478-.468-2.517-.301.985-.376 1.662-.883 2.03-1.52.552-.956.445-1.667-.033-1.943zm-64 0c-.479-.275-1.147-.012-1.7.944-.337.585-.45 1.34-.337 2.265l.036.252-.096-.236c-.365-.858-.84-1.455-1.424-1.793-.957-.552-1.667-.445-1.943.033-.277.478-.014 1.147.943 1.7.585.337 1.34.45 2.264.336l.257-.036-.24.097c-.858.364-1.455.84-1.793 1.424-.552.956-.446 1.667.033 1.943.478.276 1.147.013 1.7-.943.367-.638.467-1.478.3-2.521.376.987.883 1.665 1.52 2.033.957.552 1.668.445 1.944-.033s.013-1.147-.944-1.7c-.637-.368-1.478-.468-2.517-.301.985-.376 1.662-.883 2.03-1.52.552-.956.445-1.667-.033-1.943zm40 0c-.479-.275-1.147-.012-1.7.944-.337.585-.45 1.34-.337 2.265l.036.252-.096-.236c-.365-.858-.84-1.455-1.424-1.793-.957-.552-1.667-.445-1.943.033-.277.478-.014 1.147.943 1.7.585.337 1.34.45 2.264.336l.257-.036-.24.097c-.858.364-1.455.84-1.793 1.424-.552.956-.446 1.667.033 1.943.478.276 1.147.013 1.7-.943.367-.638.467-1.478.3-2.521.376.987.883 1.665 1.52 2.033.957.552 1.668.445 1.944-.033s.013-1.147-.944-1.7c-.637-.368-1.478-.468-2.517-.301.985-.376 1.662-.883 2.03-1.52.552-.956.445-1.667-.033-1.943zm-48 0c-.479-.275-1.147-.012-1.7.944-.337.585-.45 1.34-.337 2.265l.036.252-.096-.236c-.365-.858-.84-1.455-1.424-1.793-.957-.552-1.667-.445-1.943.033-.277.478-.014 1.147.943 1.7.585.337 1.34.45 2.264.336l.257-.036-.24.097c-.858.364-1.455.84-1.793 1.424-.552.956-.446 1.667.033 1.943.478.276 1.147.013 1.7-.943.367-.638.467-1.478.3-2.521.376.987.883 1.665 1.52 2.033.957.552 1.668.445 1.944-.033s.013-1.147-.944-1.7c-.637-.368-1.478-.468-2.517-.301.985-.376 1.662-.883 2.03-1.52.552-.956.445-1.667-.033-1.943zm32 0c-.479-.275-1.147-.012-1.7.944-.337.585-.45 1.34-.337 2.265l.036.252-.096-.236c-.365-.858-.84-1.455-1.424-1.793-.957-.552-1.667-.445-1.943.033-.277.478-.014 1.147.943 1.7.585.337 1.34.45 2.264.336l.257-.036-.24.097c-.858.364-1.455.84-1.793 1.424-.552.956-.446 1.667.033 1.943.478.276 1.147.013 1.7-.943.367-.638.467-1.478.3-2.521.376.987.883 1.665 1.52 2.033.957.552 1.668.445 1.944-.033s.013-1.147-.944-1.7c-.637-.368-1.478-.468-2.517-.301.985-.376 1.662-.883 2.03-1.52.552-.956.445-1.667-.033-1.943zm-40 0c-.479-.275-1.147-.012-1.7.944-.337.585-.45 1.34-.337 2.265l.036.252-.096-.236c-.365-.858-.84-1.455-1.424-1.793-.957-.552-1.667-.445-1.943.033-.277.478-.014 1.147.943 1.7.585.337 1.34.45 2.264.336l.257-.036-.24.097c-.858.364-1.455.84-1.793 1.424-.552.956-.446 1.667.033 1.943.478.276 1.147.013 1.7-.943.367-.638.467-1.478.3-2.521.376.987.883 1.665 1.52 2.033.957.552 1.668.445 1.944-.033s.013-1.147-.944-1.7c-.637-.368-1.478-.468-2.517-.301.985-.376 1.662-.883 2.03-1.52.552-.956.445-1.667-.033-1.943zm64 0c-.479-.275-1.147-.012-1.7.944-.337.585-.45 1.34-.337 2.265l.036.252-.096-.236c-.365-.858-.84-1.455-1.424-1.793-.957-.552-1.667-.445-1.943.033-.277.478-.014 1.147.943 1.7.585.337 1.34.45 2.264.336l.257-.036-.24.097c-.858.364-1.455.84-1.793 1.424-.552.956-.446 1.667.033 1.943.478.276 1.147.013 1.7-.943.367-.638.467-1.478.3-2.521.376.987.883 1.665 1.52 2.033.957.552 1.668.445 1.944-.033s.013-1.147-.944-1.7c-.637-.368-1.478-.468-2.517-.301.985-.376 1.662-.883 2.03-1.52.552-.956.445-1.667-.033-1.943zm8 0c-.479-.275-1.147-.012-1.7.944-.337.585-.45 1.34-.337 2.265l.036.252-.096-.236c-.365-.858-.84-1.455-1.424-1.793-.957-.552-1.667-.445-1.943.033-.277.478-.014 1.147.943 1.7.585.337 1.34.45 2.264.336l.257-.036-.24.097c-.858.364-1.455.84-1.793 1.424-.552.956-.446 1.667.033 1.943.478.276 1.147.013 1.7-.943.367-.638.467-1.478.3-2.521.376.987.883 1.665 1.52 2.033.957.552 1.668.445 1.944-.033s.013-1.147-.944-1.7c-.637-.368-1.478-.468-2.517-.301.985-.376 1.662-.883 2.03-1.52.552-.956.445-1.667-.033-1.943zm-40 0c-.479-.275-1.147-.012-1.7.944-.337.585-.45 1.34-.337 2.265l.036.252-.096-.236c-.365-.858-.84-1.455-1.424-1.793-.957-.552-1.667-.445-1.943.033-.277.478-.014 1.147.943 1.7.585.337 1.34.45 2.264.336l.257-.036-.24.097c-.858.364-1.455.84-1.793 1.424-.552.956-.446 1.667.033 1.943.478.276 1.147.013 1.7-.943.367-.638.467-1.478.3-2.521.376.987.883 1.665 1.52 2.033.957.552 1.668.445 1.944-.033s.013-1.147-.944-1.7c-.637-.368-1.478-.468-2.517-.301.985-.376 1.662-.883 2.03-1.52.552-.956.445-1.667-.033-1.943zm16 0c-.479-.275-1.147-.012-1.7.944-.337.585-.45 1.34-.337 2.265l.036.252-.096-.236c-.365-.858-.84-1.455-1.424-1.793-.957-.552-1.667-.445-1.943.033-.277.478-.014 1.147.943 1.7.585.337 1.34.45 2.264.336l.257-.036-.24.097c-.858.364-1.455.84-1.793 1.424-.552.956-.446 1.667.033 1.943.478.276 1.147.013 1.7-.943.367-.638.467-1.478.3-2.521.376.987.883 1.665 1.52 2.033.957.552 1.668.445 1.944-.033s.013-1.147-.944-1.7c-.637-.368-1.478-.468-2.517-.301.985-.376 1.662-.883 2.03-1.52.552-.956.445-1.667-.033-1.943zm-24 0c-.479-.275-1.147-.012-1.7.944-.337.585-.45 1.34-.337 2.265l.036.252-.096-.236c-.365-.858-.84-1.455-1.424-1.793-.957-.552-1.667-.445-1.943.033-.277.478-.014 1.147.943 1.7.585.337 1.34.45 2.264.336l.257-.036-.24.097c-.858.364-1.455.84-1.793 1.424-.552.956-.446 1.667.033 1.943.478.276 1.147.013 1.7-.943.367-.638.467-1.478.3-2.521.376.987.883 1.665 1.52 2.033.957.552 1.668.445 1.944-.033s.013-1.147-.944-1.7c-.637-.368-1.478-.468-2.517-.301.985-.376 1.662-.883 2.03-1.52.552-.956.445-1.667-.033-1.943zm12-8c-.479-.275-1.147-.012-1.7.944-.337.585-.45 1.34-.337 2.265l.036.252-.096-.236c-.365-.858-.84-1.455-1.424-1.793-.957-.552-1.667-.445-1.943.033-.277.478-.014 1.147.943 1.7.585.337 1.34.45 2.264.336l.257-.036-.24.097c-.858.364-1.455.84-1.793 1.424-.552.956-.446 1.667.033 1.943.478.276 1.147.013 1.7-.943.367-.638.467-1.478.3-2.521.376.987.883 1.665 1.52 2.033.957.552 1.668.445 1.944-.033s.013-1.147-.944-1.7c-.637-.368-1.478-.468-2.517-.301.985-.376 1.662-.883 2.03-1.52.552-.956.445-1.667-.033-1.943zm-16 0c-.479-.275-1.147-.012-1.7.944-.337.585-.45 1.34-.337 2.265l.036.252-.096-.236c-.365-.858-.84-1.455-1.424-1.793-.957-.552-1.667-.445-1.943.033-.277.478-.014 1.147.943 1.7.585.337 1.34.45 2.264.336l.257-.036-.24.097c-.858.364-1.455.84-1.793 1.424-.552.956-.446 1.667.033 1.943.478.276 1.147.013 1.7-.943.367-.638.467-1.478.3-2.521.376.987.883 1.665 1.52 2.033.957.552 1.668.445 1.944-.033s.013-1.147-.944-1.7c-.637-.368-1.478-.468-2.517-.301.985-.376 1.662-.883 2.03-1.52.552-.956.445-1.667-.033-1.943zm8 0c-.479-.275-1.147-.012-1.7.944-.337.585-.45 1.34-.337 2.265l.036.252-.096-.236c-.365-.858-.84-1.455-1.424-1.793-.957-.552-1.667-.445-1.943.033-.277.478-.014 1.147.943 1.7.585.337 1.34.45 2.264.336l.257-.036-.24.097c-.858.364-1.455.84-1.793 1.424-.552.956-.446 1.667.033 1.943.478.276 1.147.013 1.7-.943.367-.638.467-1.478.3-2.521.376.987.883 1.665 1.52 2.033.957.552 1.668.445 1.944-.033s.013-1.147-.944-1.7c-.637-.368-1.478-.468-2.517-.301.985-.376 1.662-.883 2.03-1.52.552-.956.445-1.667-.033-1.943zm-24 0c-.479-.275-1.147-.012-1.7.944-.337.585-.45 1.34-.337 2.265l.036.252-.096-.236c-.365-.858-.84-1.455-1.424-1.793-.957-.552-1.667-.445-1.943.033-.277.478-.014 1.147.943 1.7.585.337 1.34.45 2.264.336l.257-.036-.24.097c-.858.364-1.455.84-1.793 1.424-.552.956-.446 1.667.033 1.943.478.276 1.147.013 1.7-.943.367-.638.467-1.478.3-2.521.376.987.883 1.665 1.52 2.033.957.552 1.668.445 1.944-.033s.013-1.147-.944-1.7c-.637-.368-1.478-.468-2.517-.301.985-.376 1.662-.883 2.03-1.52.552-.956.445-1.667-.033-1.943zm64 0c-.479-.275-1.147-.012-1.7.944-.337.585-.45 1.34-.337 2.265l.036.252-.096-.236c-.365-.858-.84-1.455-1.424-1.793-.957-.552-1.667-.445-1.943.033-.277.478-.014 1.147.943 1.7.585.337 1.34.45 2.264.336l.257-.036-.24.097c-.858.364-1.455.84-1.793 1.424-.552.956-.446 1.667.033 1.943.478.276 1.147.013 1.7-.943.367-.638.467-1.478.3-2.521.376.987.883 1.665 1.52 2.033.957.552 1.668.445 1.944-.033s.013-1.147-.944-1.7c-.637-.368-1.478-.468-2.517-.301.985-.376 1.662-.883 2.03-1.52.552-.956.445-1.667-.033-1.943zm-16 0c-.479-.275-1.147-.012-1.7.944-.337.585-.45 1.34-.337 2.265l.036.252-.096-.236c-.365-.858-.84-1.455-1.424-1.793-.957-.552-1.667-.445-1.943.033-.277.478-.014 1.147.943 1.7.585.337 1.34.45 2.264.336l.257-.036-.24.097c-.858.364-1.455.84-1.793 1.424-.552.956-.446 1.667.033 1.943.478.276 1.147.013 1.7-.943.367-.638.467-1.478.3-2.521.376.987.883 1.665 1.52 2.033.957.552 1.668.445 1.944-.033s.013-1.147-.944-1.7c-.637-.368-1.478-.468-2.517-.301.985-.376 1.662-.883 2.03-1.52.552-.956.445-1.667-.033-1.943zm-40 0c-.479-.275-1.147-.012-1.7.944-.337.585-.45 1.34-.337 2.265l.036.252-.096-.236c-.365-.858-.84-1.455-1.424-1.793-.957-.552-1.667-.445-1.943.033-.277.478-.014 1.147.943 1.7.585.337 1.34.45 2.264.336l.257-.036-.24.097c-.858.364-1.455.84-1.793 1.424-.552.956-.446 1.667.033 1.943.478.276 1.147.013 1.7-.943.367-.638.467-1.478.3-2.521.376.987.883 1.665 1.52 2.033.957.552 1.668.445 1.944-.033s.013-1.147-.944-1.7c-.637-.368-1.478-.468-2.517-.301.985-.376 1.662-.883 2.03-1.52.552-.956.445-1.667-.033-1.943zm48 0c-.479-.275-1.147-.012-1.7.944-.337.585-.45 1.34-.337 2.265l.036.252-.096-.236c-.365-.858-.84-1.455-1.424-1.793-.957-.552-1.667-.445-1.943.033-.277.478-.014 1.147.943 1.7.585.337 1.34.45 2.264.336l.257-.036-.24.097c-.858.364-1.455.84-1.793 1.424-.552.956-.446 1.667.033 1.943.478.276 1.147.013 1.7-.943.367-.638.467-1.478.3-2.521.376.987.883 1.665 1.52 2.033.957.552 1.668.445 1.944-.033s.013-1.147-.944-1.7c-.637-.368-1.478-.468-2.517-.301.985-.376 1.662-.883 2.03-1.52.552-.956.445-1.667-.033-1.943zm16 0c-.479-.275-1.147-.012-1.7.944-.337.585-.45 1.34-.337 2.265l.036.252-.096-.236c-.365-.858-.84-1.455-1.424-1.793-.957-.552-1.667-.445-1.943.033-.277.478-.014 1.147.943 1.7.585.337 1.34.45 2.264.336l.257-.036-.24.097c-.858.364-1.455.84-1.793 1.424-.552.956-.446 1.667.033 1.943.478.276 1.147.013 1.7-.943.367-.638.467-1.478.3-2.521.376.987.883 1.665 1.52 2.033.957.552 1.668.445 1.944-.033s.013-1.147-.944-1.7c-.637-.368-1.478-.468-2.517-.301.985-.376 1.662-.883 2.03-1.52.552-.956.445-1.667-.033-1.943zm-32 0c-.479-.275-1.147-.012-1.7.944-.337.585-.45 1.34-.337 2.265l.036.252-.096-.236c-.365-.858-.84-1.455-1.424-1.793-.957-.552-1.667-.445-1.943.033-.277.478-.014 1.147.943 1.7.585.337 1.34.45 2.264.336l.257-.036-.24.097c-.858.364-1.455.84-1.793 1.424-.552.956-.446 1.667.033 1.943.478.276 1.147.013 1.7-.943.367-.638.467-1.478.3-2.521.376.987.883 1.665 1.52 2.033.957.552 1.668.445 1.944-.033s.013-1.147-.944-1.7c-.637-.368-1.478-.468-2.517-.301.985-.376 1.662-.883 2.03-1.52.552-.956.445-1.667-.033-1.943zm-12-8c-.479-.275-1.147-.012-1.7.944-.337.585-.45 1.34-.337 2.265l.036.252-.096-.236c-.365-.858-.84-1.455-1.424-1.793-.957-.552-1.667-.445-1.943.033-.277.478-.014 1.147.943 1.7.585.337 1.34.45 2.264.336l.257-.036-.24.097c-.858.364-1.455.84-1.793 1.424-.552.956-.446 1.667.033 1.943.478.276 1.147.013 1.7-.943.367-.638.467-1.478.3-2.521.376.987.883 1.665 1.52 2.033.957.552 1.668.445 1.944-.033s.013-1.147-.944-1.7c-.637-.368-1.478-.468-2.517-.301.985-.376 1.662-.883 2.03-1.52.552-.956.445-1.667-.033-1.943zm-16 0c-.479-.275-1.147-.012-1.7.944-.337.585-.45 1.34-.337 2.265l.036.252-.096-.236c-.365-.858-.84-1.455-1.424-1.793-.957-.552-1.667-.445-1.943.033-.277.478-.014 1.147.943 1.7.585.337 1.34.45 2.264.336l.257-.036-.24.097c-.858.364-1.455.84-1.793 1.424-.552.956-.446 1.667.033 1.943.478.276 1.147.013 1.7-.943.367-.638.467-1.478.3-2.521.376.987.883 1.665 1.52 2.033.957.552 1.668.445 1.944-.033s.013-1.147-.944-1.7c-.637-.368-1.478-.468-2.517-.301.985-.376 1.662-.883 2.03-1.52.552-.956.445-1.667-.033-1.943zm40 0c-.479-.275-1.147-.012-1.7.944-.337.585-.45 1.34-.337 2.265l.036.252-.096-.236c-.365-.858-.84-1.455-1.424-1.793-.957-.552-1.667-.445-1.943.033-.277.478-.014 1.147.943 1.7.585.337 1.34.45 2.264.336l.257-.036-.24.097c-.858.364-1.455.84-1.793 1.424-.552.956-.446 1.667.033 1.943.478.276 1.147.013 1.7-.943.367-.638.467-1.478.3-2.521.376.987.883 1.665 1.52 2.033.957.552 1.668.445 1.944-.033s.013-1.147-.944-1.7c-.637-.368-1.478-.468-2.517-.301.985-.376 1.662-.883 2.03-1.52.552-.956.445-1.667-.033-1.943zm-48 0c-.479-.275-1.147-.012-1.7.944-.337.585-.45 1.34-.337 2.265l.036.252-.096-.236c-.365-.858-.84-1.455-1.424-1.793-.957-.552-1.667-.445-1.943.033-.277.478-.014 1.147.943 1.7.585.337 1.34.45 2.264.336l.257-.036-.24.097c-.858.364-1.455.84-1.793 1.424-.552.956-.446 1.667.033 1.943.478.276 1.147.013 1.7-.943.367-.638.467-1.478.3-2.521.376.987.883 1.665 1.52 2.033.957.552 1.668.445 1.944-.033s.013-1.147-.944-1.7c-.637-.368-1.478-.468-2.517-.301.985-.376 1.662-.883 2.03-1.52.552-.956.445-1.667-.033-1.943zm64 0c-.479-.275-1.147-.012-1.7.944-.337.585-.45 1.34-.337 2.265l.036.252-.096-.236c-.365-.858-.84-1.455-1.424-1.793-.957-.552-1.667-.445-1.943.033-.277.478-.014 1.147.943 1.7.585.337 1.34.45 2.264.336l.257-.036-.24.097c-.858.364-1.455.84-1.793 1.424-.552.956-.446 1.667.033 1.943.478.276 1.147.013 1.7-.943.367-.638.467-1.478.3-2.521.376.987.883 1.665 1.52 2.033.957.552 1.668.445 1.944-.033s.013-1.147-.944-1.7c-.637-.368-1.478-.468-2.517-.301.985-.376 1.662-.883 2.03-1.52.552-.956.445-1.667-.033-1.943zm-32 0c-.479-.275-1.147-.012-1.7.944-.337.585-.45 1.34-.337 2.265l.036.252-.096-.236c-.365-.858-.84-1.455-1.424-1.793-.957-.552-1.667-.445-1.943.033-.277.478-.014 1.147.943 1.7.585.337 1.34.45 2.264.336l.257-.036-.24.097c-.858.364-1.455.84-1.793 1.424-.552.956-.446 1.667.033 1.943.478.276 1.147.013 1.7-.943.367-.638.467-1.478.3-2.521.376.987.883 1.665 1.52 2.033.957.552 1.668.445 1.944-.033s.013-1.147-.944-1.7c-.637-.368-1.478-.468-2.517-.301.985-.376 1.662-.883 2.03-1.52.552-.956.445-1.667-.033-1.943zm-16 0c-.479-.275-1.147-.012-1.7.944-.337.585-.45 1.34-.337 2.265l.036.252-.096-.236c-.365-.858-.84-1.455-1.424-1.793-.957-.552-1.667-.445-1.943.033-.277.478-.014 1.147.943 1.7.585.337 1.34.45 2.264.336l.257-.036-.24.097c-.858.364-1.455.84-1.793 1.424-.552.956-.446 1.667.033 1.943.478.276 1.147.013 1.7-.943.367-.638.467-1.478.3-2.521.376.987.883 1.665 1.52 2.033.957.552 1.668.445 1.944-.033s.013-1.147-.944-1.7c-.637-.368-1.478-.468-2.517-.301.985-.376 1.662-.883 2.03-1.52.552-.956.445-1.667-.033-1.943zm24 0c-.479-.275-1.147-.012-1.7.944-.337.585-.45 1.34-.337 2.265l.036.252-.096-.236c-.365-.858-.84-1.455-1.424-1.793-.957-.552-1.667-.445-1.943.033-.277.478-.014 1.147.943 1.7.585.337 1.34.45 2.264.336l.257-.036-.24.097c-.858.364-1.455.84-1.793 1.424-.552.956-.446 1.667.033 1.943.478.276 1.147.013 1.7-.943.367-.638.467-1.478.3-2.521.376.987.883 1.665 1.52 2.033.957.552 1.668.445 1.944-.033s.013-1.147-.944-1.7c-.637-.368-1.478-.468-2.517-.301.985-.376 1.662-.883 2.03-1.52.552-.956.445-1.667-.033-1.943zm16 0c-.479-.275-1.147-.012-1.7.944-.337.585-.45 1.34-.337 2.265l.036.252-.096-.236c-.365-.858-.84-1.455-1.424-1.793-.957-.552-1.667-.445-1.943.033-.277.478-.014 1.147.943 1.7.585.337 1.34.45 2.264.336l.257-.036-.24.097c-.858.364-1.455.84-1.793 1.424-.552.956-.446 1.667.033 1.943.478.276 1.147.013 1.7-.943.367-.638.467-1.478.3-2.521.376.987.883 1.665 1.52 2.033.957.552 1.668.445 1.944-.033s.013-1.147-.944-1.7c-.637-.368-1.478-.468-2.517-.301.985-.376 1.662-.883 2.03-1.52.552-.956.445-1.667-.033-1.943zm-12-8c-.479-.275-1.147-.012-1.7.944-.337.585-.45 1.34-.337 2.265l.036.252-.096-.236c-.365-.858-.84-1.455-1.424-1.793-.957-.552-1.667-.445-1.943.033-.277.478-.014 1.147.943 1.7.585.337 1.34.45 2.264.336L95.608 4l-.24.097c-.858.364-1.455.84-1.793 1.424-.552.956-.446 1.667.033 1.943.478.276 1.147.013 1.7-.943.367-.638.467-1.478.3-2.521.376.987.883 1.665 1.52 2.033.957.552 1.668.445 1.944-.033s.013-1.147-.944-1.7c-.637-.368-1.478-.468-2.517-.301.985-.376 1.662-.883 2.03-1.52.552-.956.445-1.667-.033-1.943zm-40 0c-.479-.275-1.147-.012-1.7.944-.337.585-.45 1.34-.337 2.265l.036.252-.096-.236c-.365-.858-.84-1.455-1.424-1.793-.957-.552-1.667-.445-1.943.033-.277.478-.014 1.147.943 1.7.585.337 1.34.45 2.264.336L55.608 4l-.24.097c-.858.364-1.455.84-1.793 1.424-.552.956-.446 1.667.033 1.943.478.276 1.147.013 1.7-.943.367-.638.467-1.478.3-2.521.376.987.883 1.665 1.52 2.033.957.552 1.668.445 1.944-.033s.013-1.147-.944-1.7c-.637-.368-1.478-.468-2.517-.301.985-.376 1.662-.883 2.03-1.52.552-.956.445-1.667-.033-1.943zm56 0c-.479-.275-1.147-.012-1.7.944-.337.585-.45 1.34-.337 2.265l.036.252-.096-.236c-.365-.858-.84-1.455-1.424-1.793-.957-.552-1.667-.445-1.943.033-.277.478-.014 1.147.943 1.7.585.337 1.34.45 2.264.336l.257-.036-.24.097c-.858.364-1.455.84-1.793 1.424-.552.956-.446 1.667.033 1.943.478.276 1.147.013 1.7-.943.367-.638.467-1.478.3-2.521.376.987.883 1.665 1.52 2.033.957.552 1.668.445 1.944-.033s.013-1.147-.944-1.7c-.637-.368-1.478-.468-2.517-.301.985-.376 1.662-.883 2.03-1.52.552-.956.445-1.667-.033-1.943zm-40 0c-.479-.275-1.147-.012-1.7.944-.337.585-.45 1.34-.337 2.265l.036.252-.096-.236c-.365-.858-.84-1.455-1.424-1.793-.957-.552-1.667-.445-1.943.033-.277.478-.014 1.147.943 1.7.585.337 1.34.45 2.264.336L71.608 4l-.24.097c-.858.364-1.455.84-1.793 1.424-.552.956-.446 1.667.033 1.943.478.276 1.147.013 1.7-.943.367-.638.467-1.478.3-2.521.376.987.883 1.665 1.52 2.033.957.552 1.668.445 1.944-.033s.013-1.147-.944-1.7c-.637-.368-1.478-.468-2.517-.301.985-.376 1.662-.883 2.03-1.52.552-.956.445-1.667-.033-1.943zm8 0c-.479-.275-1.147-.012-1.7.944-.337.585-.45 1.34-.337 2.265l.036.252-.096-.236c-.365-.858-.84-1.455-1.424-1.793-.957-.552-1.667-.445-1.943.033-.277.478-.014 1.147.943 1.7.585.337 1.34.45 2.264.336L79.608 4l-.24.097c-.858.364-1.455.84-1.793 1.424-.552.956-.446 1.667.033 1.943.478.276 1.147.013 1.7-.943.367-.638.467-1.478.3-2.521.376.987.883 1.665 1.52 2.033.957.552 1.668.445 1.944-.033s.013-1.147-.944-1.7c-.637-.368-1.478-.468-2.517-.301.985-.376 1.662-.883 2.03-1.52.552-.956.445-1.667-.033-1.943zm-16 0c-.479-.275-1.147-.012-1.7.944-.337.585-.45 1.34-.337 2.265l.036.252-.096-.236c-.365-.858-.84-1.455-1.424-1.793-.957-.552-1.667-.445-1.943.033-.277.478-.014 1.147.943 1.7.585.337 1.34.45 2.264.336L63.608 4l-.24.097c-.858.364-1.455.84-1.793 1.424-.552.956-.446 1.667.033 1.943.478.276 1.147.013 1.7-.943.367-.638.467-1.478.3-2.521.376.987.883 1.665 1.52 2.033.957.552 1.668.445 1.944-.033s.013-1.147-.944-1.7c-.637-.368-1.478-.468-2.517-.301.985-.376 1.662-.883 2.03-1.52.552-.956.445-1.667-.033-1.943zm40 0c-.479-.275-1.147-.012-1.7.944-.337.585-.45 1.34-.337 2.265l.036.252-.096-.236c-.365-.858-.84-1.455-1.424-1.793-.957-.552-1.667-.445-1.943.033-.277.478-.014 1.147.943 1.7.585.337 1.34.45 2.264.336l.257-.036-.24.097c-.858.364-1.455.84-1.793 1.424-.552.956-.446 1.667.033 1.943.478.276 1.147.013 1.7-.943.367-.638.467-1.478.3-2.521.376.987.883 1.665 1.52 2.033.957.552 1.668.445 1.944-.033s.013-1.147-.944-1.7c-.637-.368-1.478-.468-2.517-.301.985-.376 1.662-.883 2.03-1.52.552-.956.445-1.667-.033-1.943zm-16 0c-.479-.275-1.147-.012-1.7.944-.337.585-.45 1.34-.337 2.265l.036.252-.096-.236c-.365-.858-.84-1.455-1.424-1.793-.957-.552-1.667-.445-1.943.033-.277.478-.014 1.147.943 1.7.585.337 1.34.45 2.264.336L87.608 4l-.24.097c-.858.364-1.455.84-1.793 1.424-.552.956-.446 1.667.033 1.943.478.276 1.147.013 1.7-.943.367-.638.467-1.478.3-2.521.376.987.883 1.665 1.52 2.033.957.552 1.668.445 1.944-.033s.013-1.147-.944-1.7c-.637-.368-1.478-.468-2.517-.301.985-.376 1.662-.883 2.03-1.52.552-.956.445-1.667-.033-1.943z"/>
                <ellipse cx="153.108" cy="89.138" rx="12" ry="6" transform="scale(-1 1) rotate(30 0 -482.267)"/>
                <ellipse cx="83.608" cy="96" rx="32" ry="8"/>
                <ellipse cx="14" cy="89.138" rx="12" ry="6" transform="rotate(30 14 89.138)"/>
            </g>
        </g>
    </g>
</svg>
