<svg xmlns="http://www.w3.org/2000/svg" width="113" height="104" viewBox="0 0 113 104">
    <g fill="none" fill-rule="evenodd">
        <g fill="#0F0F10">
            <g>
                <path d="M56.32 88.5l1.037.004 1.028.013 1.02.02.506.014 1.006.033.996.04.985.049.974.055.962.064.95.07.939.077.924.085.911.091.897.098.882.104.866.11.85.117.42.061.826.126.81.131.79.137.774.143.38.073.744.151.726.156.705.16.345.083.675.168.653.172.63.177.61.182c.1.03.198.061.296.092l.574.187.278.096.539.193.513.197.49.2.463.205c2.252 1.028 3.526 2.178 3.526 3.366 0 1.188-1.274 2.338-3.526 3.366l-.464.204-.489.201-.513.197-.539.193-.278.096-.574.187-.598.183-.62.18-.642.174c-.109.03-.219.058-.33.086l-.674.168-.695.163-.355.08-.726.156-.745.15-.763.146-.39.07-.79.138-.81.131-.826.126-.842.12-.86.113-.874.108-.442.051-.897.098-.91.091-.925.085-.938.077-.95.07-.963.064-.974.055-.985.049-.996.04-1.006.033-1.526.034-1.028.013-1.037.004-1.036-.004-1.029-.013-1.02-.02-.506-.014-1.005-.033-.996-.04-.985-.049-.974-.055-.963-.064-.95-.07-.938-.077-.924-.085-.911-.091-.897-.098-.882-.104-.866-.11-.851-.117-.42-.061-.826-.126-.809-.131-.791-.137-.773-.143-.38-.073-.745-.151-.725-.156-.705-.16-.346-.083-.674-.168-.653-.172-.631-.177-.609-.182c-.1-.03-.198-.061-.296-.092l-.574-.187-.278-.096-.539-.193-.514-.197-.489-.2-.463-.205C26.095 98.338 24.82 97.188 24.82 96c0-1.188 1.275-2.338 3.527-3.366l.463-.204.49-.201.513-.197.539-.193.278-.096.574-.187.598-.183.62-.18.642-.174c.109-.03.218-.058.33-.086l.673-.168.696-.163.355-.08.725-.156.745-.15.764-.146.389-.07.791-.138.81-.131.825-.126.843-.12.859-.113.874-.108.443-.051.897-.098.91-.091.925-.085.938-.077.95-.07.963-.064.974-.055.985-.049.996-.04 1.005-.033 1.526-.034 1.029-.013 1.036-.004zm32-88.5l23.254 40.275c-1.58-.837-3.915-.927-6.525-.323l-.576.144c-1.742.464-3.588 1.227-5.403 2.275-1.814 1.048-3.398 2.265-4.671 3.54l-.413.428c-2.007 2.15-3.122 4.43-2.973 6.328l-2.693-4.668.002 46.46c-.729-1.105-2.233-2.122-4.358-3.017l-.54-.22c-.646-.254-1.342-.497-2.087-.73l-.649-.195c-.11-.033-.22-.065-.333-.096l-.683-.188-.35-.092-.715-.179-.737-.172-.757-.167-.778-.161-.796-.154-.816-.148-.834-.142-.852-.134-.87-.128-.886-.122-.903-.114-.457-.054-.927-.104-.94-.096-.477-.045-.963-.085-.976-.078-.99-.07-1.002-.061-1.014-.055-1.026-.046-1.037-.038-1.048-.03-.528-.011-1.062-.017-1.072-.009-.539-.001-1.076.004-.534.006-1.063.017-1.052.025-1.043.034-1.031.042-1.02.05-1.009.059-.996.066-.983.073-.487.04-.962.085-.949.092-.934.1-.46.053-.912.11-.894.118-.878.125-.861.131-.843.138-.825.145-.406.075-.797.154-.777.16-.757.168-.737.172-.716.18-.694.184c-.227.063-.451.126-.671.19l-.65.197c-.744.232-1.44.475-2.086.729l-.54.22c-2.125.895-3.63 1.912-4.358 3.017V48.373l-2.761 4.788c.41-1.988-.72-4.482-2.904-6.822l-.412-.427c-1.273-1.276-2.857-2.493-4.672-3.541-1.814-1.048-3.66-1.811-5.402-2.275l-.576-.144c-2.45-.567-4.656-.522-6.225.177L24.32.372V0h64zM13.07 43.237c5.531 3.193 8.681 7.964 7.21 10.513-1.472 2.549-7.179 2.206-12.71-.987C2.04 49.57-1.11 44.8.361 42.25c1.472-2.549 7.178-2.206 12.71.987zm99.21-.987c1.471 2.549-1.679 7.32-7.21 10.513-5.53 3.193-11.237 3.536-12.709.987-1.472-2.549 1.678-7.32 7.21-10.513 5.53-3.193 11.237-3.536 12.709-.987z" transform="translate(-199 -8141) translate(199 8141)"/>
            </g>
        </g>
    </g>
</svg>
