<svg xmlns="http://www.w3.org/2000/svg" width="161" height="104" viewBox="0 0 161 104">
    <g fill="none" fill-rule="evenodd">
        <g fill="#0F0F10">
            <g>
                <path d="M78.5 8h3L86 0h26.427v.187l47.885 82.938.007.013c1.657 2.87-1.652 7.883-7.392 11.197-5.74 3.313-11.735 3.673-13.392.803l-27.108-46.95V96c0 4.418-14.327 8-32 8-17.496 0-31.713-3.51-31.996-7.868L48.427 96V47.999l-27.215 47.14c-1.628 2.818-7.44 2.521-13.085-.63l-.308-.174C2.08 91.02-1.23 86.008.427 83.138l.008-.013L48.427 0H74l4.5 8zm3 1h-3L74 57l6 8 6-8-4.5-48z" transform="translate(-537 -8141) translate(537 8141)"/>
            </g>
        </g>
    </g>
</svg>
