<svg xmlns="http://www.w3.org/2000/svg" width="161" height="104" viewBox="0 0 161 104">
    <g fill="none" fill-rule="evenodd">
        <g fill="#0F0F10">
            <g>
                <path d="M53.094 0L5.567 82.32l.866.5L54.249 0h1.845L8.567 82.32l.866.5L57.249 0h46.501l47.817 82.82.866-.5L104.905 0h1.845l47.817 82.82.866-.5L107.905 0h1.845l47.817 82.82.866-.5L110.905 0h1.522v.187l47.885 82.938.007.014c1.657 2.87-1.652 7.882-7.392 11.196s-11.735 3.673-13.392.804l-27.108-46.95V96c0 4.418-14.327 8-32 8-17.496 0-31.713-3.51-31.996-7.867L48.427 96V48L21.212 95.138c-1.628 2.818-7.44 2.521-13.085-.63l-.308-.174C2.08 91.02-1.23 86.008.427 83.139l.008-.014L48.427 0h1.667L2.567 82.32l.866.5L51.249 0h1.845z" transform="translate(-730 -8141) translate(730 8141)"/>
            </g>
        </g>
    </g>
</svg>
