<svg xmlns="http://www.w3.org/2000/svg" width="107" height="18" viewBox="0 0 107 18">
    <g fill="none" fill-rule="evenodd">
        <g fill="#0F0F10">
            <g>
                <path d="M86.047 7.699c0-1.21-.017-2.419.008-3.628.011-.547-.2-.75-.742-.734-.945.028-1.893.038-2.838-.003-.636-.027-.79.241-.817.833-.114 2.44-.252 4.882-1.047 7.222-.163.478-.003.614.455.61 1.42-.01 2.839-.017 4.258.004.551.008.74-.223.73-.756-.023-1.182-.007-2.365-.007-3.548zm-10.704 9.985c-.009-1.629-.004-3.258-.034-4.887-.01-.567.19-.867.771-.793.724.092 1.028-.295 1.233-.92.586-1.783.875-3.613 1.018-5.48.12-1.573.171-3.146.138-4.722-.012-.562.25-.73.765-.729 3.101.01 6.203.017 9.304-.005.726-.006.877.34.874.974-.017 3.259.01 6.518-.02 9.776-.008.767.132 1.228 1.024 1.111.341-.044.667.082.666.49-.007 1.73.181 3.463-.107 5.185h-3c-.01-.63-.03-1.26-.024-1.889.005-.434-.184-.61-.615-.61-2.782.008-5.565.008-8.347 0-.432 0-.618.178-.615.61.005.63-.02 1.26-.03 1.89h-3z" transform="translate(-773 -534) translate(773 534)"/>
                <path d="M72.009 7.723c.002-2.573-1.78-4.52-4.152-4.535-2.402-.017-4.32 1.98-4.32 4.493.001 2.58 1.816 4.473 4.286 4.47 2.5-.003 4.183-1.784 4.186-4.428zM69.185 0c2.277.526 4.144 1.663 5.3 3.743 2.768 4.982-.254 11.03-5.804 11.647-4.695.52-8.86-3.294-8.584-8.18.175-3.122 2.663-6.527 6.19-7.113.075-.013.143-.064.214-.097h2.684zM36.977 12.151c2.49.009 4.226-1.791 4.236-4.392.01-2.556-1.857-4.58-4.215-4.571-2.407.01-4.26 1.984-4.258 4.538.003 2.558 1.783 4.417 4.237 4.425zM38.396 0c1.565.423 3.008 1.045 4.147 2.272 2.255 2.428 2.724 5.249 1.623 8.26-1.042 2.848-3.215 4.426-6.255 4.834-4.341.583-8.62-2.639-8.65-7.632-.025-3.955 2.592-6.78 5.924-7.59.177-.042.351-.095.526-.144h2.685zM9.185 0c1.268.352 2.523.734 3.546 1.621.178.155.347.32.52.481.486.453.509.876-.067 1.277-.128.09-.228.217-.343.325-1.132 1.064-1.114 1.034-2.393.238-1.549-.964-3.193-1.04-4.804-.2-1.39.727-2.046 1.956-2.14 3.53-.12 2.043.56 3.682 2.482 4.498 1.972.836 3.89.512 5.487-.965.544-.503.821-.466 1.207.09.207.299.467.576.75.805.616.499.467.889-.017 1.416-2.097 2.286-5.956 2.92-8.91 1.767C1.64 13.767.002 11.15 0 7.767-.003 3.813 2.278.96 6.13.098c.074-.016.142-.064.213-.098h2.842zM21.054 5.998v-.05c.603 0 1.214.062 1.806-.017.604-.08 1.11-.401 1.12-1.111.008-.677-.307-1.147-1-1.318-1.192-.294-2.4-.123-3.602-.134-.294-.002-.368.226-.413.482-.32 1.854-.08 2.148 1.774 2.148h.315zm.089 6v-.039c.602 0 1.204.003 1.806-.002.103-.001.206-.032.307-.059.824-.217 1.257-.708 1.196-1.422-.064-.757-.533-1.14-1.257-1.296-1.22-.265-2.453-.11-3.68-.144-.348-.01-.5.167-.554.516-.34 2.182-.127 2.446 2.024 2.446h.158zm-5.516-4.363c0-2.183.027-4.366-.014-6.548-.014-.742.263-.952.965-.942 2.337.033 4.68-.069 7.011.156 1.46.141 2.834.568 3.491 2.048.671 1.512.484 2.998-.524 4.312-.366.476-.34.672.14 1.03 1.732 1.295 1.992 5.515-1.139 6.858-.952.41-1.955.62-2.987.63-1.999.02-3.998-.017-5.996.02-.706.012-.974-.2-.96-.937.039-2.208.013-4.418.013-6.627zM52.212 8.87c-.254 0-.438-.002-.622 0-1.866.024-1.63-.229-1.637 1.634-.005 1.61-.176 1.51 1.474 1.485 1.043-.015 2.107.169 3.125-.212.698-.262.907-.81.876-1.51-.03-.676-.396-1.04-1.016-1.234-.748-.233-1.511-.138-2.2-.163m-5.614-1.165c0-2.208.016-4.417-.01-6.625-.007-.675.234-.937.919-.933 3.181.021 6.362.02 9.544.001.624-.003.92.194.908.856-.047 2.86.346 2.286-2.227 2.334-1.656.031-3.313.027-4.969-.004-.613-.011-.837.192-.823.815.038 1.715-.13 1.53 1.527 1.529 1.366 0 2.737-.031 4.077.266 2.135.473 3.26 1.85 3.39 4.062.136 2.298-.918 3.996-2.93 4.695-.849.296-1.733.46-2.626.473-1.971.03-3.944-.008-5.915.022-.647.01-.882-.215-.874-.865.026-2.208.01-4.417.01-6.626M98.919 5.199c-.635 1.431-1.17 2.647-1.713 3.86-.156.35-.104.547.329.543.89-.007 1.78-.005 2.67 0 .388.001.54-.153.377-.532-.523-1.222-1.049-2.442-1.663-3.871m5.761 9.987c-1.128.352-1.776-.315-2.074-1.504-.274-1.09-.942-1.454-2.07-1.358-1.304.112-2.626.049-3.94.017-.56-.014-.95.178-1.056.714-.39 1.955-1.645 2.413-3.442 2.15-.858-.127-.912-.096-.547-.93 1.674-3.826 3.352-7.651 5.028-11.476.275-.626.593-1.236.816-1.879.209-.602.579-.827 1.187-.769.287.028.58.023.867.002.518-.036.806.189 1.015.67 1.926 4.434 3.873 8.857 5.813 13.284.462 1.057.449 1.074-.694 1.079h-.903" transform="translate(-773 -534) translate(773 534)"/>
            </g>
        </g>
    </g>
</svg>
