<svg xmlns="http://www.w3.org/2000/svg" width="65" height="40" viewBox="0 0 65 40">
    <g fill="none" fill-rule="evenodd">
        <path d="M0 0H64V40H0z"/>
        <path stroke="#000" stroke-linecap="round" d="M.583 6.192c10.31 0 20.94-.355 22.142-.665 2.816-.726 10.002-3.96 24.146-5.016 3.586-.267 4.175 4.24 4.223 5.173.062 1.234 4.053 1.173 3.061 6.333-.28 1.455 6.13.323 4.28 7.015-.164.586 4.267.457 4.916 2.68 1.551 5.32-6.556 7.301-6.652 7.314-1.662.222-11.652 2.76-14.853 3.548"/>
        <path stroke="#000" stroke-linecap="round" d="M56.277 29.24c-.062 1.473-1.573 3.999-3.04 5.672-.615.7-11.992 3.674-15.34 3.307-2.047-.224-16.74-9.03-16.835-9.082-.665-.363-7.565-.421-20.562.11"/>
        <path fill="#F5F5F5" d="M17.872 29.471s-3.722 1.087-7.728 0c-.099-.026 0-24.024 0-24.024s2.615-.943 7.728 0c.203.037 0 24.024 0 24.024"/>
        <path stroke="#000" d="M17.872 29.471s-3.722 1.087-7.728 0c-.099-.026 0-24.024 0-24.024s2.615-.943 7.728 0c.203.037 0 24.024 0 24.024z"/>
        <path fill="#F5F5F5" d="M21.22 16.97c0 3.983-3.228 7.213-7.211 7.213s-7.213-3.23-7.213-7.213 3.23-7.213 7.213-7.213 7.212 3.23 7.212 7.213"/>
        <path stroke="#000" d="M21.22 16.97c0 3.983-3.228 7.213-7.211 7.213s-7.213-3.23-7.213-7.213 3.23-7.213 7.213-7.213 7.212 3.23 7.212 7.213z"/>
        <path stroke="#000" stroke-linecap="round" d="M8.184 25.615v-1.588c-4.304-3.596-4.463-10.356 0-14.086V8.353M19.818 25.615v-1.588c4.304-3.596 4.463-10.356 0-14.086V8.353M11.626 14.625L13.995 17.201 17.087 13.079M23.79 16.042L23.79 17.974"/>
    </g>
</svg>
