<svg xmlns="http://www.w3.org/2000/svg" width="50" height="16" viewBox="0 0 50 16">
    <g fill="none" fill-rule="evenodd">
        <g fill="#1A2071">
            <g>
                <path d="M25.625 10.885c-.029-2.229 1.986-3.473 3.504-4.212 1.559-.759 2.082-1.245 2.077-1.924-.012-1.038-1.244-1.497-2.397-1.514-2.012-.032-3.181.543-4.111.977l-.725-3.39c.933-.43 2.66-.806 4.452-.822 4.204 0 6.955 2.076 6.97 5.294.017 4.084-5.649 4.31-5.61 6.135.013.554.541 1.145 1.699 1.295.573.076 2.154.134 3.947-.692l.704 3.28c-.964.352-2.204.688-3.747.688-3.957 0-6.741-2.104-6.763-5.115m17.272 4.832c-.768 0-1.415-.448-1.704-1.135L35.187.241h4.202l.836 2.31h5.134l.485-2.31h3.703l-3.231 15.476h-3.42m.588-4.18l1.213-5.812h-3.32l2.107 5.812m-22.954 4.18L17.22.241h4.003l3.31 15.476H20.53m-5.923 0L10.44 5.184 8.754 14.14c-.198 1-.979 1.577-1.846 1.577H.095L0 15.268c1.399-.304 2.988-.793 3.95-1.317.59-.32.757-.6.95-1.36L8.095.241h4.231l6.487 15.476h-4.205" transform="translate(-319 -534) translate(319 534) matrix(1 0 0 -1 0 16)"/>
            </g>
        </g>
    </g>
</svg>
