<svg xmlns="http://www.w3.org/2000/svg" width="450" height="402" viewBox="0 0 450 402">
    <g fill="none" fill-rule="evenodd">
        <g>
            <g transform="translate(-495 -5928) translate(496 5929)">
                <path stroke="#0F0F10" stroke-linejoin="bevel" d="M447.229 285.34L445.18 283.597 440.943 283.13 439.16 281.06 438.325 278.294 438.781 276.943 439.856 275.921 440.817 274.216 441.032 272.171 440.943 270.517 441.335 269.203 443.043 268.118 444.219 266.312 443.978 264.317 443.258 262.221 443.081 260.075 445.268 257.473 445.837 256.552 446.179 255.251 446.71 250.605 446.482 247.511 447.709 242.6 447.191 240.163 446.318 239.102 442.903 236.425 440.855 233.092 439.805 231.993 439.805 231.968 439.287 231.627 438.743 231.526 438.199 231.627 435.316 233.281 432.812 236.148 431.079 239.456 431.016 242.183 428.55 242.284 426.628 241.779 425.009 242.095 423.491 244.62 423.023 246.463 422.96 247.663 422.682 248.774 421.657 250.251 417.332 252.448 414.753 253.181 412.704 253.105 408.429 251.728 406.178 250.428 402.359 246.792 391.711 243.37 389.27 241.488 388.005 239.708 387.828 238.345 388.157 236.779 388.397 233.382 388.815 231.993 388.815 231.147 388.435 230.693 387.828 230.743 387.386 230.39 387.563 228.748 368.795 222.827 367.139 222.574 361.954 223.218 360.069 222.726 358.046 223.382 351.976 222.372 349.725 221.716 349.623 220.365 350.774 218.812 352.304 217.246 353.24 215.314 353.202 212.208 352.368 209.885 351.305 207.789 350.509 205.39 350.774 200.491 352.481 195.579 354.113 192.801 357.325 187.41 360.676 183.331 361.068 182.321 361.6 179.758 362.055 178.458 365.899 173.596 366.886 171.374 366.949 165.187 364.104 162.687 360.423 161.008 357.477 156.589 356.731 153.142 356.731 153.129 329.503 136.197 325.633 135.301 321.928 135.301 320.575 133.217 315.073 133.217 304.033 131.967 302.136 132.712 300.555 134.429 296.938 135.578 293.056 135.945 290.628 135.301 287.757 133.154 286.265 131.69 286.265 130.667 288.073 130.238 285.531 127.813 282.268 125.919 279.587 125.806 278.715 128.684 279.524 129.594 274.263 129.669 274.086 128.71 273.833 127.599 273.037 126.626 272.632 125.414 272.961 124.455 274.263 122.472 274.541 121.917 273.871 120.427 272.91 120.237 271.822 120.465 270.773 120.237 270.052 119.076 269.268 117.371 268.332 115.932 267.017 115.49 266.132 116.437 265.626 119.644 264.399 120.452 263.4 119.72 263.046 117.939 262.957 116.033 262.831 114.972 260.972 114.139 258.506 114 256.938 114.896 257.861 117.22 256.343 117.977 251.006 119.038 249.906 119.013 249.122 119.48 247.769 121.45 247.288 122.523 246.555 125.452 245.505 126.45 242.989 127.839 242.015 128.95 241.901 130.035 242.318 131.096 242.584 132.346 241.926 133.95 243.494 134.518 243.975 134.594 246.53 136.525 248.578 137.7 250.349 137.611 251.828 136.854 253.182 135.869 254.674 135.137 259.518 134.316 260.883 134.543 262.477 135.2 263.375 135.288 262.831 138.76 262.173 138.432 262.11 137.536 261.996 137.296 261.592 137.308 261.06 137.523 260.694 137.826 260.479 138.634 260.643 139.291 260.871 139.871 260.909 140.376 260.795 141.374 260.845 142.422 260.732 143.508 260.087 144.644 258.746 145.099 257.658 143.748 256.457 141.765 254.927 140.326 251.968 140.629 248.932 142.637 247.769 145.149 247.643 145.856 244.582 146.361 238.234 146.324 234.465 145.313 233.504 144.682 232.808 143.268 232.277 141.854 231.733 141.222 230.57 141.109 228.003 140.313 226.207 140.313 220.845 141.222 220.339 141.563 219.846 142.283 219.188 142.99 217.354 143.533 215.217 144.695 214.382 145.313 213.56 146.286 213.168 147.031 212.7 147.675 211.739 148.318 207.275 149.316 194.35 149.316 194.085 148.697 193.895 147.321 193.566 145.945 192.972 145.313 186.586 144.935 185.182 144.215 183.348 147.043 181.78 148.937 179.908 149.998 171.65 151.715 169.475 151.412 164.328 148.71 166.92 148.723 167.995 147.712 169.298 144.038 167.034 144.278 162.102 145.768 161.95 145.894 158.435 147.119 156.044 148.457 151.707 151.993 151.947 152.094 153.604 153.356 153.932 153.356 153.983 154.821 153.54 155.654 152.756 155.92 151.707 155.692 151.138 156.008 151.011 156.475 151.226 157.056 151.934 158.053 152.035 158.407 152.01 158.811 151.884 159.215 151.707 159.455 150.202 160.831 148.912 160.642 147.609 159.821 146.079 159.291 144.928 159.619 144.941 160.528 145.421 161.425 145.775 161.778 146.256 162.46 146.433 163.281 146.104 164.657 144.131 167.22 141.362 168.331 134.47 168.028 131.852 168.584 128.096 170.213 127.438 170.352 126.654 170.011 126.262 169.493 125.984 168.975 125.566 168.634 122.67 167.725 120.508 166.437 119.939 164.051 121.722 159.897 119.041 160.175 117.713 159.96 116.423 159.215 114.084 158.723 109.139 159.594 106.584 159.215 105.661 158.521 104.75 158.293 103.878 158.521 102.98 159.215 101.121 159.771 101.386 161.412 102.386 163.432 102.891 165.162 102.133 166.399 100.666 167.662 99.06 168.584 96.454 169.165 96.277 171.917 93.748 173.432 92.268 175.339 91.042 177.624 90.536 179.493 102.348 178.331 104.181 177.448 105.661 178.66 107.153 179.998 108.203 181.488 107.406 183.092 106.496 183.672 105.471 183.963 104.447 184.556 102.98 186.513 102.461 186.728 101.564 186.842 99.679 188.761 99.034 191.753 99.452 195.364 92.698 200.301 89.828 203.256 87.943 206.375 81.443 212.385 78.446 213.42 78.56 215.907 77.143 216.64 76.777 216.892 76.397 217.814 73.918 218.711 72.97 219.632 71.642 221.93 72.843 224.62 70.58 227.89 63.94 232.928 53.241 236.286 48.448 239.064 46.956 244.14 47.374 245.453 48.714 247.966 49.018 249.557 48.866 251.564 48.309 252.953 47.614 254.191 46.046 258.888 45.919 259.595 46.172 260.415 46.703 261.123 47.437 261.931 47.487 264.355 47.121 265.567 46.008 266.969 44.958 267.739 41.632 269.494 39.04 272.423 38.053 273.269 30.946 277.158 17.591 289.355 16.263 291.098 16.567 292.991 18.97 295.681 15.454 300.1 12.001 306.022 10.863 307.234 10.471 308.118 10.471 308.85 10.699 309.519 10.927 310.113 11.002 310.555 11.002 311.641 11.217 312.625 11.028 313.56 9.89 314.658 15.226 317.941 16.693 319.507 17.895 321.679 18.046 323.257 14.834 330.441 14.493 331.552 13.797 335.605 13.747 337.133 13.835 338.472 13.405 339.419 11.217 340.088 10.648 340.164 10.041 340.088 9.257 339.835 9.08 339.823 8.903 339.835 8.751 339.898 2.795 342.803 0.392 344.33 0 346.048 1.05 348.017 2.795 350.202 2.491 351.426 1.745 352.866 0.417 355.959 2.795 354.545 7.31 353.472 11.824 353.295 15.214 354.798 18.413 353.144 23.497 347.222 29.858 343.03 32.425 340.315 31.907 337.02 31.211 336.729 29.542 337.487 28.505 336.944 28.088 336.338 27.152 333.977 27.076 333.396 26.165 330.959 25.748 329.545 26.292 327.588 28.366 324.747 31.211 321.009 34.436 318.232 37.497 317.234 40.759 317.083 43.997 316.262 52.457 310.466 58.819 309.204 65.42 309.418 80.216 313.257 81.721 313.977 82.644 315.403 82.859 318.131 82.139 320.53 79.521 323.585 79.002 325.227 80.899 328.509 84.415 332.234 86.679 336.111 83.15 342.941 81.443 348.068 80.52 352.942 81.392 355.341 89.296 357.083 90.801 358.56 90.7 359.633 89.992 360.719 89.208 361.704 88.753 362.449 89.044 362.298 89.208 363.712 89.233 365.202 89.081 365.328 89.119 366.452 88.93 367.033 88.993 367.474 89.866 368.144 90.801 368.27 91.573 367.702 92.268 366.969 93.09 366.628 95.367 367.613 102.082 375.202 102.563 375.517 102.917 377.045 104.055 380 104.75 382.588 105.294 384.015 105.977 385.164 110.416 390.151 112.73 391.515 115.791 392.134 119.041 392.083 122.038 391.528 128.146 389.015 130.941 387.285 132.244 386.843 139.705 387.639 142.892 386.528 148.76 382.235 151.707 380.959 153.806 380.694 154.894 379.28 155.855 377.651 157.511 376.805 167.641 379.331 169.184 380.227 170.689 381.603 172.548 384.318 172.7 384.684 173.926 385.101 174.748 384.911 175.495 384.545 176.456 384.444 181.261 386.187 183.968 386.124 185.751 386.679 186.32 386.692 187.559 386.023 187.8 385.555 187.724 384.81 188.027 383.346 190.329 378.952 192.972 377.108 200.029 375.517 200.965 375.24 201.685 374.646 202.912 373.03 202.988 372.714 203.949 370.606 204.126 370.315 204.657 366.275 204.67 364.659 204.872 363.03 205.593 361.565 206.567 360.795 208.641 360.58 209.716 360.227 214.054 356.464 216.216 351.843 215.951 346.603 212.991 340.946 210.677 338.939 210.323 338.383 210.766 337.184 211.739 335.782 213.687 333.813 215.824 332.84 220.149 331.868 222.198 330.441 227.079 324.014 229.874 322.588 231.038 321.716 232.012 320.53 232.631 319.216 232.581 317.777 231.936 317.285 231.531 316.666 232.366 314.848 234.478 312.613 237.171 311.148 242.71 309.961 245.568 310.454 246.947 312.436 247.339 315.668 247.377 319.987 247.048 324.115 245.442 331.527 245.113 335.214 245.505 338.699 246.593 340.997 248.401 342.499 251.006 343.535 253.751 344.911 256.571 347.803 262.831 357.058 263.792 357.538 265.714 358.207 270.33 360.896 272.088 360.997 272.809 360.593 274.352 359.229 274.959 358.952 275.768 359.242 276.514 360.58 277.273 361.086 278.854 361.325 281.902 361.25 283.381 361.767 285.923 365.088 284.456 368.434 281.623 371.894 279.878 375.884 279.499 376.565 279.322 376.957 281.029 377.045 282.559 377.601 288.238 380.644 288.933 381.174 289.565 382.071 290.552 384.331 292.246 387.399 293.081 389.255 293.65 391.111 293.815 393.573 293.41 395.328 292.816 397.02 292.449 399.205 296.369 398.005 299.619 399.457 302.617 400 305.778 396.124 308.27 391.313 308.636 388.901 307.523 386.54 306.562 385.959 304.425 385.518 303.439 384.962 302.553 383.636 301.719 381.048 300.644 379.962 300.429 379.596 300.366 379.242 300.429 378.876 300.644 378.535 303.919 375.517 302.149 370.568 302.591 368.952 305.121 366.982 307.308 366.3 308.244 365.745 309.028 364.419 309.357 362.664 309.142 359.457 309.534 357.613 311.368 354.861 318.564 349.987 319.348 348.522 319.828 346.881 320.372 345.454 321.447 344.671 322.649 344.103 323.799 343.03 324.697 341.578 326.177 336.477 329.086 330.416 329.693 327.259 329.566 325.416 328.238 320.34 328.213 318.295 328.479 316.477 328.276 315.062 326.948 314.128 325.987 312.196 326.771 308.686 328.516 305.226 330.388 303.471 335.232 302.878 337.192 303.396 337.293 305.176 339.822 307.588 340.556 307.903 341.656 307.487 342.137 306.628 342.478 305.605 343.136 304.684 344.754 303.509 345.539 303.332 345.842 304.229 346.449 317.992 346.297 320.176 346.5 320.972 347.221 321.679 349.396 322.903 350.294 323.623 352.254 328.775 353.518 330.53 355.643 331.956 357.932 332.79 369.327 332.929 371.198 332.171 372.703 330.075 372.754 328.951 372.602 327.323 372.792 325.694 373.867 324.469 374.954 324.494 377.357 325.946 378.622 326.237 380.696 325.555 387.31 322.171 391.622 321.413 393.57 321.578 395.593 322.108 398.085 323.724 398.742 326.06 398.78 328.888 399.438 332.02 400.879 333.989 404.812 337.449 405.811 339.898 405.9 343.118 409.175 343.181 413.361 341.59 416.156 339.848 417.446 337.133 416.169 334.57 412.071 330.416 411.174 328.813 410.782 327.613 410.832 326.3 411.351 324.355 412.097 322.979 414.171 321.098 414.892 320.151 415.625 317.019 414.904 315.429 413.184 314.747 408.733 313.876 405.837 312.752 404.281 310.795 406.026 307.827 405.154 307.247 404.673 306.439 404.458 305.403 404.319 304.077 404.762 302.537 404.762 299.393 404.914 298.358 405.774 297.082 407.911 294.949 408.733 293.85 409.96 289.166 410.389 288.092 411.351 287.575 420.734 284.873 423.289 284.847 424.882 286.135 425.059 287.752 424.528 290.719 424.971 292.272 429.081 293.686 429.84 294.368 430.358 295.1 430.991 295.757 432.103 296.274 433.393 296.489 436.846 296.148 443.953 298.017 445.749 297.676 447.14 295.378 447.924 291.817 448 288.105z"/>
                <path stroke="#101010" d="M20 346L116.167 179.435M69 302L205 166M254 178L390 42M161 152L297 16M143 182L309.565 85.833"/>
                <path stroke="#101010" d="M242 249.167L408.565 153" transform="rotate(15 325.283 201.083)"/>
                <path stroke="#101010" d="M252 209.167L418.565 113M147 240L243.167 73.435M87 217.565L183.167 51"/>
                <circle cx="310" cy="86" r="16" fill="#101010" stroke="#F5F5F5"/>
                <circle cx="243" cy="73" r="16" fill="#101010" stroke="#F5F5F5"/>
                <circle cx="183" cy="51" r="16" fill="#101010" stroke="#F5F5F5"/>
                <circle cx="297" cy="16" r="16" fill="#101010" stroke="#F5F5F5"/>
                <circle cx="390" cy="42" r="16" fill="#101010" stroke="#F5F5F5"/>
                <circle cx="419" cy="115" r="16" fill="#101010" stroke="#F5F5F5"/>
                <circle cx="419" cy="176" r="16" fill="#101010" stroke="#F5F5F5"/>
                <circle cx="116" cy="180" r="16" fill="#101010" stroke="#F5F5F5"/>
                <circle cx="205" cy="166" r="16" fill="#101010" stroke="#F5F5F5"/>
            </g>
        </g>
    </g>
</svg>
