<svg xmlns="http://www.w3.org/2000/svg" xmlns:xlink="http://www.w3.org/1999/xlink" width="240" height="569" viewBox="0 0 240 569">
    <defs>
        <path id="7qjbkwvrwa" d="M0 0.592L7.2 0.592 7.2 12.56 0 12.56z"/>
        <path id="3uy1t3yp4c" d="M0.357 0.686L9.386 0.686 9.386 12 0.357 12z"/>
        <path id="5d1ztb5v3e" d="M0.563 0.672L11.323 0.672 11.323 13.358 0.563 13.358z"/>
        <path id="f53x9n41ag" d="M0 0.851L7.042 0.851 7.042 12.864 0 12.864z"/>
        <path id="bdhyody3fi" d="M0.186 0.686L9.214 0.686 9.214 12 0.186 12z"/>
        <path id="wltwrocg2k" d="M0.394 0.675L11.153 0.675 11.153 13.361 0.394 13.361z"/>
        <path id="lpu10f09bm" d="M0.234 0.686L9.262 0.686 9.262 12 0.234 12z"/>
        <path id="09zuknzhbo" d="M0 0.404L7.298 0.404 7.298 12.162 0 12.162z"/>
        <path id="lg6kschbqq" d="M0.669 0.382L11.469 0.382 11.469 12.716 0.669 12.716z"/>
        <path id="7vt8g7vpas" d="M0.252 0.568L9.271 0.568 9.271 12 0.252 12z"/>
    </defs>
    <g fill="none" fill-rule="evenodd">
        <g>
            <g>
                <g>
                    <path fill="#F5F5F5" d="M0 0H240V568H0z" transform="translate(-72 -612) translate(72 613)"/>
                    <g stroke="#0F0F10">
                        <path d="M0 0c3.633 2.422 8.367 2.422 12 0h0c3.633 2.422 8.367 2.422 12 0h0" transform="translate(-72 -612) translate(72 613) translate(5 36)"/>
                        <path d="M23 0c3.633 2.422 8.367 2.422 12 0h0c3.633 2.422 8.367 2.422 12 0h0" transform="translate(-72 -612) translate(72 613) translate(5 36)"/>
                        <path d="M46 0c3.633 2.422 8.367 2.422 12 0h0c3.633 2.422 8.367 2.422 12 0h0" transform="translate(-72 -612) translate(72 613) translate(5 36)"/>
                        <path d="M69 0c3.633 2.422 8.367 2.422 12 0h0c3.633 2.422 8.367 2.422 12 0h0" transform="translate(-72 -612) translate(72 613) translate(5 36)"/>
                        <path d="M92 0c3.633 2.422 8.367 2.422 12 0h0c3.633 2.422 8.367 2.422 12 0h0" transform="translate(-72 -612) translate(72 613) translate(5 36)"/>
                        <path d="M115 0c3.633 2.422 8.367 2.422 12 0h0c3.633 2.422 8.367 2.422 12 0h0" transform="translate(-72 -612) translate(72 613) translate(5 36)"/>
                        <path d="M138 0c3.633 2.422 8.367 2.422 12 0h0c3.633 2.422 8.367 2.422 12 0h0" transform="translate(-72 -612) translate(72 613) translate(5 36)"/>
                        <path d="M161 0c3.633 2.422 8.367 2.422 12 0h0c3.633 2.422 8.367 2.422 12 0h0" transform="translate(-72 -612) translate(72 613) translate(5 36)"/>
                        <path d="M184 0c3.633 2.422 8.367 2.422 12 0h0c3.633 2.422 8.367 2.422 12 0h0" transform="translate(-72 -612) translate(72 613) translate(5 36)"/>
                        <path d="M207 0c3.633 2.422 8.367 2.422 12 0h0c3.633 2.422 8.367 2.422 12 0h0" transform="translate(-72 -612) translate(72 613) translate(5 36)"/>
                    </g>
                    <g stroke="#0F0F10">
                        <path d="M0 0c3.633 2.422 8.367 2.422 12 0h0c3.633 2.422 8.367 2.422 12 0h0" transform="translate(-72 -612) translate(72 613) translate(5 24)"/>
                        <path d="M23 0c3.633 2.422 8.367 2.422 12 0h0c3.633 2.422 8.367 2.422 12 0h0" transform="translate(-72 -612) translate(72 613) translate(5 24)"/>
                        <path d="M46 0c3.633 2.422 8.367 2.422 12 0h0c3.633 2.422 8.367 2.422 12 0h0" transform="translate(-72 -612) translate(72 613) translate(5 24)"/>
                        <path d="M69 0c3.633 2.422 8.367 2.422 12 0h0c3.633 2.422 8.367 2.422 12 0h0" transform="translate(-72 -612) translate(72 613) translate(5 24)"/>
                        <path d="M92 0c3.633 2.422 8.367 2.422 12 0h0c3.633 2.422 8.367 2.422 12 0h0" transform="translate(-72 -612) translate(72 613) translate(5 24)"/>
                        <path d="M115 0c3.633 2.422 8.367 2.422 12 0h0c3.633 2.422 8.367 2.422 12 0h0" transform="translate(-72 -612) translate(72 613) translate(5 24)"/>
                        <path d="M138 0c3.633 2.422 8.367 2.422 12 0h0c3.633 2.422 8.367 2.422 12 0h0" transform="translate(-72 -612) translate(72 613) translate(5 24)"/>
                        <path d="M161 0c3.633 2.422 8.367 2.422 12 0h0c3.633 2.422 8.367 2.422 12 0h0" transform="translate(-72 -612) translate(72 613) translate(5 24)"/>
                        <path d="M184 0c3.633 2.422 8.367 2.422 12 0h0c3.633 2.422 8.367 2.422 12 0h0" transform="translate(-72 -612) translate(72 613) translate(5 24)"/>
                        <path d="M207 0c3.633 2.422 8.367 2.422 12 0h0c3.633 2.422 8.367 2.422 12 0h0" transform="translate(-72 -612) translate(72 613) translate(5 24)"/>
                    </g>
                    <g stroke="#0F0F10">
                        <path d="M0 0c3.633 2.422 8.367 2.422 12 0h0c3.633 2.422 8.367 2.422 12 0h0" transform="translate(-72 -612) translate(72 613) translate(5 48)"/>
                        <path d="M23 0c3.633 2.422 8.367 2.422 12 0h0c3.633 2.422 8.367 2.422 12 0h0" transform="translate(-72 -612) translate(72 613) translate(5 48)"/>
                        <path d="M46 0c3.633 2.422 8.367 2.422 12 0h0c3.633 2.422 8.367 2.422 12 0h0" transform="translate(-72 -612) translate(72 613) translate(5 48)"/>
                        <path d="M69 0c3.633 2.422 8.367 2.422 12 0h0c3.633 2.422 8.367 2.422 12 0h0" transform="translate(-72 -612) translate(72 613) translate(5 48)"/>
                        <path d="M92 0c3.633 2.422 8.367 2.422 12 0h0c3.633 2.422 8.367 2.422 12 0h0" transform="translate(-72 -612) translate(72 613) translate(5 48)"/>
                        <path d="M115 0c3.633 2.422 8.367 2.422 12 0h0c3.633 2.422 8.367 2.422 12 0h0" transform="translate(-72 -612) translate(72 613) translate(5 48)"/>
                        <path d="M138 0c3.633 2.422 8.367 2.422 12 0h0c3.633 2.422 8.367 2.422 12 0h0" transform="translate(-72 -612) translate(72 613) translate(5 48)"/>
                        <path d="M161 0c3.633 2.422 8.367 2.422 12 0h0c3.633 2.422 8.367 2.422 12 0h0" transform="translate(-72 -612) translate(72 613) translate(5 48)"/>
                        <path d="M184 0c3.633 2.422 8.367 2.422 12 0h0c3.633 2.422 8.367 2.422 12 0h0" transform="translate(-72 -612) translate(72 613) translate(5 48)"/>
                        <path d="M207 0c3.633 2.422 8.367 2.422 12 0h0c3.633 2.422 8.367 2.422 12 0h0" transform="translate(-72 -612) translate(72 613) translate(5 48)"/>
                    </g>
                    <g stroke="#0F0F10">
                        <path d="M0 0c3.633 2.422 8.367 2.422 12 0h0c3.633 2.422 8.367 2.422 12 0h0" transform="translate(-72 -612) translate(72 613) translate(5)"/>
                        <path d="M23 0c3.633 2.422 8.367 2.422 12 0h0c3.633 2.422 8.367 2.422 12 0h0" transform="translate(-72 -612) translate(72 613) translate(5)"/>
                        <path d="M46 0c3.633 2.422 8.367 2.422 12 0h0c3.633 2.422 8.367 2.422 12 0h0" transform="translate(-72 -612) translate(72 613) translate(5)"/>
                        <path d="M69 0c3.633 2.422 8.367 2.422 12 0h0c3.633 2.422 8.367 2.422 12 0h0" transform="translate(-72 -612) translate(72 613) translate(5)"/>
                        <path d="M92 0c3.633 2.422 8.367 2.422 12 0h0c3.633 2.422 8.367 2.422 12 0h0" transform="translate(-72 -612) translate(72 613) translate(5)"/>
                        <path d="M115 0c3.633 2.422 8.367 2.422 12 0h0c3.633 2.422 8.367 2.422 12 0h0" transform="translate(-72 -612) translate(72 613) translate(5)"/>
                        <path d="M138 0c3.633 2.422 8.367 2.422 12 0h0c3.633 2.422 8.367 2.422 12 0h0" transform="translate(-72 -612) translate(72 613) translate(5)"/>
                        <path d="M161 0c3.633 2.422 8.367 2.422 12 0h0c3.633 2.422 8.367 2.422 12 0h0" transform="translate(-72 -612) translate(72 613) translate(5)"/>
                        <path d="M184 0c3.633 2.422 8.367 2.422 12 0h0c3.633 2.422 8.367 2.422 12 0h0" transform="translate(-72 -612) translate(72 613) translate(5)"/>
                        <path d="M207 0c3.633 2.422 8.367 2.422 12 0h0c3.633 2.422 8.367 2.422 12 0h0" transform="translate(-72 -612) translate(72 613) translate(5)"/>
                    </g>
                    <g stroke="#0F0F10">
                        <path d="M0 0c3.633 2.422 8.367 2.422 12 0h0c3.633 2.422 8.367 2.422 12 0h0" transform="translate(-72 -612) translate(72 613) translate(5 12)"/>
                        <path d="M23 0c3.633 2.422 8.367 2.422 12 0h0c3.633 2.422 8.367 2.422 12 0h0" transform="translate(-72 -612) translate(72 613) translate(5 12)"/>
                        <path d="M46 0c3.633 2.422 8.367 2.422 12 0h0c3.633 2.422 8.367 2.422 12 0h0" transform="translate(-72 -612) translate(72 613) translate(5 12)"/>
                        <path d="M69 0c3.633 2.422 8.367 2.422 12 0h0c3.633 2.422 8.367 2.422 12 0h0" transform="translate(-72 -612) translate(72 613) translate(5 12)"/>
                        <path d="M92 0c3.633 2.422 8.367 2.422 12 0h0c3.633 2.422 8.367 2.422 12 0h0" transform="translate(-72 -612) translate(72 613) translate(5 12)"/>
                        <path d="M115 0c3.633 2.422 8.367 2.422 12 0h0c3.633 2.422 8.367 2.422 12 0h0" transform="translate(-72 -612) translate(72 613) translate(5 12)"/>
                        <path d="M138 0c3.633 2.422 8.367 2.422 12 0h0c3.633 2.422 8.367 2.422 12 0h0" transform="translate(-72 -612) translate(72 613) translate(5 12)"/>
                        <path d="M161 0c3.633 2.422 8.367 2.422 12 0h0c3.633 2.422 8.367 2.422 12 0h0" transform="translate(-72 -612) translate(72 613) translate(5 12)"/>
                        <path d="M184 0c3.633 2.422 8.367 2.422 12 0h0c3.633 2.422 8.367 2.422 12 0h0" transform="translate(-72 -612) translate(72 613) translate(5 12)"/>
                        <path d="M207 0c3.633 2.422 8.367 2.422 12 0h0c3.633 2.422 8.367 2.422 12 0h0" transform="translate(-72 -612) translate(72 613) translate(5 12)"/>
                    </g>
                    <g stroke="#0F0F10">
                        <path d="M0 0c3.633 2.422 8.367 2.422 12 0h0c3.633 2.422 8.367 2.422 12 0h0" transform="translate(-72 -612) translate(72 613) translate(5 60)"/>
                        <path d="M23 0c3.633 2.422 8.367 2.422 12 0h0c3.633 2.422 8.367 2.422 12 0h0" transform="translate(-72 -612) translate(72 613) translate(5 60)"/>
                        <path d="M46 0c3.633 2.422 8.367 2.422 12 0h0c3.633 2.422 8.367 2.422 12 0h0" transform="translate(-72 -612) translate(72 613) translate(5 60)"/>
                        <path d="M69 0c3.633 2.422 8.367 2.422 12 0h0c3.633 2.422 8.367 2.422 12 0h0" transform="translate(-72 -612) translate(72 613) translate(5 60)"/>
                        <path d="M92 0c3.633 2.422 8.367 2.422 12 0h0c3.633 2.422 8.367 2.422 12 0h0" transform="translate(-72 -612) translate(72 613) translate(5 60)"/>
                        <path d="M115 0c3.633 2.422 8.367 2.422 12 0h0c3.633 2.422 8.367 2.422 12 0h0" transform="translate(-72 -612) translate(72 613) translate(5 60)"/>
                        <path d="M138 0c3.633 2.422 8.367 2.422 12 0h0c3.633 2.422 8.367 2.422 12 0h0" transform="translate(-72 -612) translate(72 613) translate(5 60)"/>
                        <path d="M161 0c3.633 2.422 8.367 2.422 12 0h0c3.633 2.422 8.367 2.422 12 0h0" transform="translate(-72 -612) translate(72 613) translate(5 60)"/>
                        <path d="M184 0c3.633 2.422 8.367 2.422 12 0h0c3.633 2.422 8.367 2.422 12 0h0" transform="translate(-72 -612) translate(72 613) translate(5 60)"/>
                        <path d="M207 0c3.633 2.422 8.367 2.422 12 0h0c3.633 2.422 8.367 2.422 12 0h0" transform="translate(-72 -612) translate(72 613) translate(5 60)"/>
                    </g>
                    <g stroke="#0F0F10">
                        <path d="M0 0c3.633 2.422 8.367 2.422 12 0h0c3.633 2.422 8.367 2.422 12 0h0" transform="translate(-72 -612) translate(72 613) translate(5 72)"/>
                        <path d="M23 0c3.633 2.422 8.367 2.422 12 0h0c3.633 2.422 8.367 2.422 12 0h0" transform="translate(-72 -612) translate(72 613) translate(5 72)"/>
                        <path d="M46 0c3.633 2.422 8.367 2.422 12 0h0c3.633 2.422 8.367 2.422 12 0h0" transform="translate(-72 -612) translate(72 613) translate(5 72)"/>
                        <path d="M69 0c3.633 2.422 8.367 2.422 12 0h0c3.633 2.422 8.367 2.422 12 0h0" transform="translate(-72 -612) translate(72 613) translate(5 72)"/>
                        <path d="M92 0c3.633 2.422 8.367 2.422 12 0h0c3.633 2.422 8.367 2.422 12 0h0" transform="translate(-72 -612) translate(72 613) translate(5 72)"/>
                        <path d="M115 0c3.633 2.422 8.367 2.422 12 0h0c3.633 2.422 8.367 2.422 12 0h0" transform="translate(-72 -612) translate(72 613) translate(5 72)"/>
                        <path d="M138 0c3.633 2.422 8.367 2.422 12 0h0c3.633 2.422 8.367 2.422 12 0h0" transform="translate(-72 -612) translate(72 613) translate(5 72)"/>
                        <path d="M161 0c3.633 2.422 8.367 2.422 12 0h0c3.633 2.422 8.367 2.422 12 0h0" transform="translate(-72 -612) translate(72 613) translate(5 72)"/>
                        <path d="M184 0c3.633 2.422 8.367 2.422 12 0h0c3.633 2.422 8.367 2.422 12 0h0" transform="translate(-72 -612) translate(72 613) translate(5 72)"/>
                        <path d="M207 0c3.633 2.422 8.367 2.422 12 0h0c3.633 2.422 8.367 2.422 12 0h0" transform="translate(-72 -612) translate(72 613) translate(5 72)"/>
                    </g>
                    <g stroke="#0F0F10">
                        <path d="M0 0c3.633 2.422 8.367 2.422 12 0h0c3.633 2.422 8.367 2.422 12 0h0" transform="translate(-72 -612) translate(72 613) translate(5 84)"/>
                        <path d="M23 0c3.633 2.422 8.367 2.422 12 0h0c3.633 2.422 8.367 2.422 12 0h0" transform="translate(-72 -612) translate(72 613) translate(5 84)"/>
                        <path d="M46 0c3.633 2.422 8.367 2.422 12 0h0c3.633 2.422 8.367 2.422 12 0h0" transform="translate(-72 -612) translate(72 613) translate(5 84)"/>
                        <path d="M69 0c3.633 2.422 8.367 2.422 12 0h0c3.633 2.422 8.367 2.422 12 0h0" transform="translate(-72 -612) translate(72 613) translate(5 84)"/>
                        <path d="M92 0c3.633 2.422 8.367 2.422 12 0h0c3.633 2.422 8.367 2.422 12 0h0" transform="translate(-72 -612) translate(72 613) translate(5 84)"/>
                        <path d="M115 0c3.633 2.422 8.367 2.422 12 0h0c3.633 2.422 8.367 2.422 12 0h0" transform="translate(-72 -612) translate(72 613) translate(5 84)"/>
                        <path d="M138 0c3.633 2.422 8.367 2.422 12 0h0c3.633 2.422 8.367 2.422 12 0h0" transform="translate(-72 -612) translate(72 613) translate(5 84)"/>
                        <path d="M161 0c3.633 2.422 8.367 2.422 12 0h0c3.633 2.422 8.367 2.422 12 0h0" transform="translate(-72 -612) translate(72 613) translate(5 84)"/>
                        <path d="M184 0c3.633 2.422 8.367 2.422 12 0h0c3.633 2.422 8.367 2.422 12 0h0" transform="translate(-72 -612) translate(72 613) translate(5 84)"/>
                        <path d="M207 0c3.633 2.422 8.367 2.422 12 0h0c3.633 2.422 8.367 2.422 12 0h0" transform="translate(-72 -612) translate(72 613) translate(5 84)"/>
                    </g>
                    <g stroke="#0F0F10">
                        <path d="M0 0c3.633 2.422 8.367 2.422 12 0h0c3.633 2.422 8.367 2.422 12 0h0" transform="translate(-72 -612) translate(72 613) translate(5 96)"/>
                        <path d="M23 0c3.633 2.422 8.367 2.422 12 0h0c3.633 2.422 8.367 2.422 12 0h0" transform="translate(-72 -612) translate(72 613) translate(5 96)"/>
                        <path d="M46 0c3.633 2.422 8.367 2.422 12 0h0c3.633 2.422 8.367 2.422 12 0h0" transform="translate(-72 -612) translate(72 613) translate(5 96)"/>
                        <path d="M69 0c3.633 2.422 8.367 2.422 12 0h0c3.633 2.422 8.367 2.422 12 0h0" transform="translate(-72 -612) translate(72 613) translate(5 96)"/>
                        <path d="M92 0c3.633 2.422 8.367 2.422 12 0h0c3.633 2.422 8.367 2.422 12 0h0" transform="translate(-72 -612) translate(72 613) translate(5 96)"/>
                        <path d="M115 0c3.633 2.422 8.367 2.422 12 0h0c3.633 2.422 8.367 2.422 12 0h0" transform="translate(-72 -612) translate(72 613) translate(5 96)"/>
                        <path d="M138 0c3.633 2.422 8.367 2.422 12 0h0c3.633 2.422 8.367 2.422 12 0h0" transform="translate(-72 -612) translate(72 613) translate(5 96)"/>
                        <path d="M161 0c3.633 2.422 8.367 2.422 12 0h0c3.633 2.422 8.367 2.422 12 0h0" transform="translate(-72 -612) translate(72 613) translate(5 96)"/>
                        <path d="M184 0c3.633 2.422 8.367 2.422 12 0h0c3.633 2.422 8.367 2.422 12 0h0" transform="translate(-72 -612) translate(72 613) translate(5 96)"/>
                        <path d="M207 0c3.633 2.422 8.367 2.422 12 0h0c3.633 2.422 8.367 2.422 12 0h0" transform="translate(-72 -612) translate(72 613) translate(5 96)"/>
                    </g>
                    <g stroke="#0F0F10">
                        <path d="M0 0c3.633 2.422 8.367 2.422 12 0h0c3.633 2.422 8.367 2.422 12 0h0" transform="translate(-72 -612) translate(72 613) translate(5 108)"/>
                        <path d="M23 0c3.633 2.422 8.367 2.422 12 0h0c3.633 2.422 8.367 2.422 12 0h0" transform="translate(-72 -612) translate(72 613) translate(5 108)"/>
                        <path d="M46 0c3.633 2.422 8.367 2.422 12 0h0c3.633 2.422 8.367 2.422 12 0h0" transform="translate(-72 -612) translate(72 613) translate(5 108)"/>
                        <path d="M69 0c3.633 2.422 8.367 2.422 12 0h0c3.633 2.422 8.367 2.422 12 0h0" transform="translate(-72 -612) translate(72 613) translate(5 108)"/>
                        <path d="M92 0c3.633 2.422 8.367 2.422 12 0h0c3.633 2.422 8.367 2.422 12 0h0" transform="translate(-72 -612) translate(72 613) translate(5 108)"/>
                        <path d="M115 0c3.633 2.422 8.367 2.422 12 0h0c3.633 2.422 8.367 2.422 12 0h0" transform="translate(-72 -612) translate(72 613) translate(5 108)"/>
                        <path d="M138 0c3.633 2.422 8.367 2.422 12 0h0c3.633 2.422 8.367 2.422 12 0h0" transform="translate(-72 -612) translate(72 613) translate(5 108)"/>
                        <path d="M161 0c3.633 2.422 8.367 2.422 12 0h0c3.633 2.422 8.367 2.422 12 0h0" transform="translate(-72 -612) translate(72 613) translate(5 108)"/>
                        <path d="M184 0c3.633 2.422 8.367 2.422 12 0h0c3.633 2.422 8.367 2.422 12 0h0" transform="translate(-72 -612) translate(72 613) translate(5 108)"/>
                        <path d="M207 0c3.633 2.422 8.367 2.422 12 0h0c3.633 2.422 8.367 2.422 12 0h0" transform="translate(-72 -612) translate(72 613) translate(5 108)"/>
                    </g>
                    <g stroke="#0F0F10">
                        <path d="M0 0c3.633 2.422 8.367 2.422 12 0h0c3.633 2.422 8.367 2.422 12 0h0" transform="translate(-72 -612) translate(72 613) translate(5 120)"/>
                        <path d="M23 0c3.633 2.422 8.367 2.422 12 0h0c3.633 2.422 8.367 2.422 12 0h0" transform="translate(-72 -612) translate(72 613) translate(5 120)"/>
                        <path d="M46 0c3.633 2.422 8.367 2.422 12 0h0c3.633 2.422 8.367 2.422 12 0h0" transform="translate(-72 -612) translate(72 613) translate(5 120)"/>
                        <path d="M69 0c3.633 2.422 8.367 2.422 12 0h0c3.633 2.422 8.367 2.422 12 0h0" transform="translate(-72 -612) translate(72 613) translate(5 120)"/>
                        <path d="M92 0c3.633 2.422 8.367 2.422 12 0h0c3.633 2.422 8.367 2.422 12 0h0" transform="translate(-72 -612) translate(72 613) translate(5 120)"/>
                        <path d="M115 0c3.633 2.422 8.367 2.422 12 0h0c3.633 2.422 8.367 2.422 12 0h0" transform="translate(-72 -612) translate(72 613) translate(5 120)"/>
                        <path d="M138 0c3.633 2.422 8.367 2.422 12 0h0c3.633 2.422 8.367 2.422 12 0h0" transform="translate(-72 -612) translate(72 613) translate(5 120)"/>
                        <path d="M161 0c3.633 2.422 8.367 2.422 12 0h0c3.633 2.422 8.367 2.422 12 0h0" transform="translate(-72 -612) translate(72 613) translate(5 120)"/>
                        <path d="M184 0c3.633 2.422 8.367 2.422 12 0h0c3.633 2.422 8.367 2.422 12 0h0" transform="translate(-72 -612) translate(72 613) translate(5 120)"/>
                        <path d="M207 0c3.633 2.422 8.367 2.422 12 0h0c3.633 2.422 8.367 2.422 12 0h0" transform="translate(-72 -612) translate(72 613) translate(5 120)"/>
                    </g>
                    <g stroke="#0F0F10">
                        <path d="M0 0c3.633 2.422 8.367 2.422 12 0h0c3.633 2.422 8.367 2.422 12 0h0" transform="translate(-72 -612) translate(72 613) translate(5 132)"/>
                        <path d="M23 0c3.633 2.422 8.367 2.422 12 0h0c3.633 2.422 8.367 2.422 12 0h0" transform="translate(-72 -612) translate(72 613) translate(5 132)"/>
                        <path d="M46 0c3.633 2.422 8.367 2.422 12 0h0c3.633 2.422 8.367 2.422 12 0h0" transform="translate(-72 -612) translate(72 613) translate(5 132)"/>
                        <path d="M69 0c3.633 2.422 8.367 2.422 12 0h0c3.633 2.422 8.367 2.422 12 0h0" transform="translate(-72 -612) translate(72 613) translate(5 132)"/>
                        <path d="M92 0c3.633 2.422 8.367 2.422 12 0h0c3.633 2.422 8.367 2.422 12 0h0" transform="translate(-72 -612) translate(72 613) translate(5 132)"/>
                        <path d="M115 0c3.633 2.422 8.367 2.422 12 0h0c3.633 2.422 8.367 2.422 12 0h0" transform="translate(-72 -612) translate(72 613) translate(5 132)"/>
                        <path d="M138 0c3.633 2.422 8.367 2.422 12 0h0c3.633 2.422 8.367 2.422 12 0h0" transform="translate(-72 -612) translate(72 613) translate(5 132)"/>
                        <path d="M161 0c3.633 2.422 8.367 2.422 12 0h0c3.633 2.422 8.367 2.422 12 0h0" transform="translate(-72 -612) translate(72 613) translate(5 132)"/>
                        <path d="M184 0c3.633 2.422 8.367 2.422 12 0h0c3.633 2.422 8.367 2.422 12 0h0" transform="translate(-72 -612) translate(72 613) translate(5 132)"/>
                        <path d="M207 0c3.633 2.422 8.367 2.422 12 0h0c3.633 2.422 8.367 2.422 12 0h0" transform="translate(-72 -612) translate(72 613) translate(5 132)"/>
                    </g>
                    <g stroke="#0F0F10">
                        <path d="M0 0c3.633 2.422 8.367 2.422 12 0h0c3.633 2.422 8.367 2.422 12 0h0" transform="translate(-72 -612) translate(72 613) translate(5 144)"/>
                        <path d="M23 0c3.633 2.422 8.367 2.422 12 0h0c3.633 2.422 8.367 2.422 12 0h0" transform="translate(-72 -612) translate(72 613) translate(5 144)"/>
                        <path d="M46 0c3.633 2.422 8.367 2.422 12 0h0c3.633 2.422 8.367 2.422 12 0h0" transform="translate(-72 -612) translate(72 613) translate(5 144)"/>
                        <path d="M69 0c3.633 2.422 8.367 2.422 12 0h0c3.633 2.422 8.367 2.422 12 0h0" transform="translate(-72 -612) translate(72 613) translate(5 144)"/>
                        <path d="M92 0c3.633 2.422 8.367 2.422 12 0h0c3.633 2.422 8.367 2.422 12 0h0" transform="translate(-72 -612) translate(72 613) translate(5 144)"/>
                        <path d="M115 0c3.633 2.422 8.367 2.422 12 0h0c3.633 2.422 8.367 2.422 12 0h0" transform="translate(-72 -612) translate(72 613) translate(5 144)"/>
                        <path d="M138 0c3.633 2.422 8.367 2.422 12 0h0c3.633 2.422 8.367 2.422 12 0h0" transform="translate(-72 -612) translate(72 613) translate(5 144)"/>
                        <path d="M161 0c3.633 2.422 8.367 2.422 12 0h0c3.633 2.422 8.367 2.422 12 0h0" transform="translate(-72 -612) translate(72 613) translate(5 144)"/>
                        <path d="M184 0c3.633 2.422 8.367 2.422 12 0h0c3.633 2.422 8.367 2.422 12 0h0" transform="translate(-72 -612) translate(72 613) translate(5 144)"/>
                        <path d="M207 0c3.633 2.422 8.367 2.422 12 0h0c3.633 2.422 8.367 2.422 12 0h0" transform="translate(-72 -612) translate(72 613) translate(5 144)"/>
                    </g>
                    <g stroke="#0F0F10">
                        <path d="M0 0c3.633 2.422 8.367 2.422 12 0h0c3.633 2.422 8.367 2.422 12 0h0" transform="translate(-72 -612) translate(72 613) translate(5 156)"/>
                        <path d="M23 0c3.633 2.422 8.367 2.422 12 0h0c3.633 2.422 8.367 2.422 12 0h0" transform="translate(-72 -612) translate(72 613) translate(5 156)"/>
                        <path d="M46 0c3.633 2.422 8.367 2.422 12 0h0c3.633 2.422 8.367 2.422 12 0h0" transform="translate(-72 -612) translate(72 613) translate(5 156)"/>
                        <path d="M69 0c3.633 2.422 8.367 2.422 12 0h0c3.633 2.422 8.367 2.422 12 0h0" transform="translate(-72 -612) translate(72 613) translate(5 156)"/>
                        <path d="M92 0c3.633 2.422 8.367 2.422 12 0h0c3.633 2.422 8.367 2.422 12 0h0" transform="translate(-72 -612) translate(72 613) translate(5 156)"/>
                        <path d="M115 0c3.633 2.422 8.367 2.422 12 0h0c3.633 2.422 8.367 2.422 12 0h0" transform="translate(-72 -612) translate(72 613) translate(5 156)"/>
                        <path d="M138 0c3.633 2.422 8.367 2.422 12 0h0c3.633 2.422 8.367 2.422 12 0h0" transform="translate(-72 -612) translate(72 613) translate(5 156)"/>
                        <path d="M161 0c3.633 2.422 8.367 2.422 12 0h0c3.633 2.422 8.367 2.422 12 0h0" transform="translate(-72 -612) translate(72 613) translate(5 156)"/>
                        <path d="M184 0c3.633 2.422 8.367 2.422 12 0h0c3.633 2.422 8.367 2.422 12 0h0" transform="translate(-72 -612) translate(72 613) translate(5 156)"/>
                        <path d="M207 0c3.633 2.422 8.367 2.422 12 0h0c3.633 2.422 8.367 2.422 12 0h0" transform="translate(-72 -612) translate(72 613) translate(5 156)"/>
                    </g>
                    <g stroke="#0F0F10">
                        <path d="M0 0c3.633 2.422 8.367 2.422 12 0h0c3.633 2.422 8.367 2.422 12 0h0" transform="translate(-72 -612) translate(72 613) translate(5 168)"/>
                        <path d="M23 0c3.633 2.422 8.367 2.422 12 0h0c3.633 2.422 8.367 2.422 12 0h0" transform="translate(-72 -612) translate(72 613) translate(5 168)"/>
                        <path d="M46 0c3.633 2.422 8.367 2.422 12 0h0c3.633 2.422 8.367 2.422 12 0h0" transform="translate(-72 -612) translate(72 613) translate(5 168)"/>
                        <path d="M69 0c3.633 2.422 8.367 2.422 12 0h0c3.633 2.422 8.367 2.422 12 0h0" transform="translate(-72 -612) translate(72 613) translate(5 168)"/>
                        <path d="M92 0c3.633 2.422 8.367 2.422 12 0h0c3.633 2.422 8.367 2.422 12 0h0" transform="translate(-72 -612) translate(72 613) translate(5 168)"/>
                        <path d="M115 0c3.633 2.422 8.367 2.422 12 0h0c3.633 2.422 8.367 2.422 12 0h0" transform="translate(-72 -612) translate(72 613) translate(5 168)"/>
                        <path d="M138 0c3.633 2.422 8.367 2.422 12 0h0c3.633 2.422 8.367 2.422 12 0h0" transform="translate(-72 -612) translate(72 613) translate(5 168)"/>
                        <path d="M161 0c3.633 2.422 8.367 2.422 12 0h0c3.633 2.422 8.367 2.422 12 0h0" transform="translate(-72 -612) translate(72 613) translate(5 168)"/>
                        <path d="M184 0c3.633 2.422 8.367 2.422 12 0h0c3.633 2.422 8.367 2.422 12 0h0" transform="translate(-72 -612) translate(72 613) translate(5 168)"/>
                        <path d="M207 0c3.633 2.422 8.367 2.422 12 0h0c3.633 2.422 8.367 2.422 12 0h0" transform="translate(-72 -612) translate(72 613) translate(5 168)"/>
                    </g>
                    <g stroke="#0F0F10">
                        <path d="M0 0c3.633 2.422 8.367 2.422 12 0h0c3.633 2.422 8.367 2.422 12 0h0" transform="translate(-72 -612) translate(72 613) translate(5 180)"/>
                        <path d="M23 0c3.633 2.422 8.367 2.422 12 0h0c3.633 2.422 8.367 2.422 12 0h0" transform="translate(-72 -612) translate(72 613) translate(5 180)"/>
                        <path d="M46 0c3.633 2.422 8.367 2.422 12 0h0c3.633 2.422 8.367 2.422 12 0h0" transform="translate(-72 -612) translate(72 613) translate(5 180)"/>
                        <path d="M69 0c3.633 2.422 8.367 2.422 12 0h0c3.633 2.422 8.367 2.422 12 0h0" transform="translate(-72 -612) translate(72 613) translate(5 180)"/>
                        <path d="M92 0c3.633 2.422 8.367 2.422 12 0h0c3.633 2.422 8.367 2.422 12 0h0" transform="translate(-72 -612) translate(72 613) translate(5 180)"/>
                        <path d="M115 0c3.633 2.422 8.367 2.422 12 0h0c3.633 2.422 8.367 2.422 12 0h0" transform="translate(-72 -612) translate(72 613) translate(5 180)"/>
                        <path d="M138 0c3.633 2.422 8.367 2.422 12 0h0c3.633 2.422 8.367 2.422 12 0h0" transform="translate(-72 -612) translate(72 613) translate(5 180)"/>
                        <path d="M161 0c3.633 2.422 8.367 2.422 12 0h0c3.633 2.422 8.367 2.422 12 0h0" transform="translate(-72 -612) translate(72 613) translate(5 180)"/>
                        <path d="M184 0c3.633 2.422 8.367 2.422 12 0h0c3.633 2.422 8.367 2.422 12 0h0" transform="translate(-72 -612) translate(72 613) translate(5 180)"/>
                        <path d="M207 0c3.633 2.422 8.367 2.422 12 0h0c3.633 2.422 8.367 2.422 12 0h0" transform="translate(-72 -612) translate(72 613) translate(5 180)"/>
                    </g>
                    <g stroke="#0F0F10">
                        <path d="M0 0c3.633 2.422 8.367 2.422 12 0h0c3.633 2.422 8.367 2.422 12 0h0" transform="translate(-72 -612) translate(72 613) translate(5 192)"/>
                        <path d="M23 0c3.633 2.422 8.367 2.422 12 0h0c3.633 2.422 8.367 2.422 12 0h0" transform="translate(-72 -612) translate(72 613) translate(5 192)"/>
                        <path d="M46 0c3.633 2.422 8.367 2.422 12 0h0c3.633 2.422 8.367 2.422 12 0h0" transform="translate(-72 -612) translate(72 613) translate(5 192)"/>
                        <path d="M69 0c3.633 2.422 8.367 2.422 12 0h0c3.633 2.422 8.367 2.422 12 0h0" transform="translate(-72 -612) translate(72 613) translate(5 192)"/>
                        <path d="M92 0c3.633 2.422 8.367 2.422 12 0h0c3.633 2.422 8.367 2.422 12 0h0" transform="translate(-72 -612) translate(72 613) translate(5 192)"/>
                        <path d="M115 0c3.633 2.422 8.367 2.422 12 0h0c3.633 2.422 8.367 2.422 12 0h0" transform="translate(-72 -612) translate(72 613) translate(5 192)"/>
                        <path d="M138 0c3.633 2.422 8.367 2.422 12 0h0c3.633 2.422 8.367 2.422 12 0h0" transform="translate(-72 -612) translate(72 613) translate(5 192)"/>
                        <path d="M161 0c3.633 2.422 8.367 2.422 12 0h0c3.633 2.422 8.367 2.422 12 0h0" transform="translate(-72 -612) translate(72 613) translate(5 192)"/>
                        <path d="M184 0c3.633 2.422 8.367 2.422 12 0h0c3.633 2.422 8.367 2.422 12 0h0" transform="translate(-72 -612) translate(72 613) translate(5 192)"/>
                        <path d="M207 0c3.633 2.422 8.367 2.422 12 0h0c3.633 2.422 8.367 2.422 12 0h0" transform="translate(-72 -612) translate(72 613) translate(5 192)"/>
                    </g>
                    <g stroke="#0F0F10">
                        <path d="M0 0c3.633 2.422 8.367 2.422 12 0h0c3.633 2.422 8.367 2.422 12 0h0" transform="translate(-72 -612) translate(72 613) translate(5 204)"/>
                        <path d="M23 0c3.633 2.422 8.367 2.422 12 0h0c3.633 2.422 8.367 2.422 12 0h0" transform="translate(-72 -612) translate(72 613) translate(5 204)"/>
                        <path d="M46 0c3.633 2.422 8.367 2.422 12 0h0c3.633 2.422 8.367 2.422 12 0h0" transform="translate(-72 -612) translate(72 613) translate(5 204)"/>
                        <path d="M69 0c3.633 2.422 8.367 2.422 12 0h0c3.633 2.422 8.367 2.422 12 0h0" transform="translate(-72 -612) translate(72 613) translate(5 204)"/>
                        <path d="M92 0c3.633 2.422 8.367 2.422 12 0h0c3.633 2.422 8.367 2.422 12 0h0" transform="translate(-72 -612) translate(72 613) translate(5 204)"/>
                        <path d="M115 0c3.633 2.422 8.367 2.422 12 0h0c3.633 2.422 8.367 2.422 12 0h0" transform="translate(-72 -612) translate(72 613) translate(5 204)"/>
                        <path d="M138 0c3.633 2.422 8.367 2.422 12 0h0c3.633 2.422 8.367 2.422 12 0h0" transform="translate(-72 -612) translate(72 613) translate(5 204)"/>
                        <path d="M161 0c3.633 2.422 8.367 2.422 12 0h0c3.633 2.422 8.367 2.422 12 0h0" transform="translate(-72 -612) translate(72 613) translate(5 204)"/>
                        <path d="M184 0c3.633 2.422 8.367 2.422 12 0h0c3.633 2.422 8.367 2.422 12 0h0" transform="translate(-72 -612) translate(72 613) translate(5 204)"/>
                        <path d="M207 0c3.633 2.422 8.367 2.422 12 0h0c3.633 2.422 8.367 2.422 12 0h0" transform="translate(-72 -612) translate(72 613) translate(5 204)"/>
                    </g>
                    <g stroke="#0F0F10">
                        <path d="M0 0c3.633 2.422 8.367 2.422 12 0h0c3.633 2.422 8.367 2.422 12 0h0" transform="translate(-72 -612) translate(72 613) translate(5 216)"/>
                        <path d="M23 0c3.633 2.422 8.367 2.422 12 0h0c3.633 2.422 8.367 2.422 12 0h0" transform="translate(-72 -612) translate(72 613) translate(5 216)"/>
                        <path d="M46 0c3.633 2.422 8.367 2.422 12 0h0c3.633 2.422 8.367 2.422 12 0h0" transform="translate(-72 -612) translate(72 613) translate(5 216)"/>
                        <path d="M69 0c3.633 2.422 8.367 2.422 12 0h0c3.633 2.422 8.367 2.422 12 0h0" transform="translate(-72 -612) translate(72 613) translate(5 216)"/>
                        <path d="M92 0c3.633 2.422 8.367 2.422 12 0h0c3.633 2.422 8.367 2.422 12 0h0" transform="translate(-72 -612) translate(72 613) translate(5 216)"/>
                        <path d="M115 0c3.633 2.422 8.367 2.422 12 0h0c3.633 2.422 8.367 2.422 12 0h0" transform="translate(-72 -612) translate(72 613) translate(5 216)"/>
                        <path d="M138 0c3.633 2.422 8.367 2.422 12 0h0c3.633 2.422 8.367 2.422 12 0h0" transform="translate(-72 -612) translate(72 613) translate(5 216)"/>
                        <path d="M161 0c3.633 2.422 8.367 2.422 12 0h0c3.633 2.422 8.367 2.422 12 0h0" transform="translate(-72 -612) translate(72 613) translate(5 216)"/>
                        <path d="M184 0c3.633 2.422 8.367 2.422 12 0h0c3.633 2.422 8.367 2.422 12 0h0" transform="translate(-72 -612) translate(72 613) translate(5 216)"/>
                        <path d="M207 0c3.633 2.422 8.367 2.422 12 0h0c3.633 2.422 8.367 2.422 12 0h0" transform="translate(-72 -612) translate(72 613) translate(5 216)"/>
                    </g>
                    <g stroke="#0F0F10">
                        <path d="M0 0c3.633 2.422 8.367 2.422 12 0h0c3.633 2.422 8.367 2.422 12 0h0" transform="translate(-72 -612) translate(72 613) translate(5 228)"/>
                        <path d="M23 0c3.633 2.422 8.367 2.422 12 0h0c3.633 2.422 8.367 2.422 12 0h0" transform="translate(-72 -612) translate(72 613) translate(5 228)"/>
                        <path d="M46 0c3.633 2.422 8.367 2.422 12 0h0c3.633 2.422 8.367 2.422 12 0h0" transform="translate(-72 -612) translate(72 613) translate(5 228)"/>
                        <path d="M69 0c3.633 2.422 8.367 2.422 12 0h0c3.633 2.422 8.367 2.422 12 0h0" transform="translate(-72 -612) translate(72 613) translate(5 228)"/>
                        <path d="M92 0c3.633 2.422 8.367 2.422 12 0h0c3.633 2.422 8.367 2.422 12 0h0" transform="translate(-72 -612) translate(72 613) translate(5 228)"/>
                        <path d="M115 0c3.633 2.422 8.367 2.422 12 0h0c3.633 2.422 8.367 2.422 12 0h0" transform="translate(-72 -612) translate(72 613) translate(5 228)"/>
                        <path d="M138 0c3.633 2.422 8.367 2.422 12 0h0c3.633 2.422 8.367 2.422 12 0h0" transform="translate(-72 -612) translate(72 613) translate(5 228)"/>
                        <path d="M161 0c3.633 2.422 8.367 2.422 12 0h0c3.633 2.422 8.367 2.422 12 0h0" transform="translate(-72 -612) translate(72 613) translate(5 228)"/>
                        <path d="M184 0c3.633 2.422 8.367 2.422 12 0h0c3.633 2.422 8.367 2.422 12 0h0" transform="translate(-72 -612) translate(72 613) translate(5 228)"/>
                        <path d="M207 0c3.633 2.422 8.367 2.422 12 0h0c3.633 2.422 8.367 2.422 12 0h0" transform="translate(-72 -612) translate(72 613) translate(5 228)"/>
                    </g>
                    <g stroke="#0F0F10">
                        <path d="M0 0c3.633 2.422 8.367 2.422 12 0h0c3.633 2.422 8.367 2.422 12 0h0" transform="translate(-72 -612) translate(72 613) translate(5 240)"/>
                        <path d="M23 0c3.633 2.422 8.367 2.422 12 0h0c3.633 2.422 8.367 2.422 12 0h0" transform="translate(-72 -612) translate(72 613) translate(5 240)"/>
                        <path d="M46 0c3.633 2.422 8.367 2.422 12 0h0c3.633 2.422 8.367 2.422 12 0h0" transform="translate(-72 -612) translate(72 613) translate(5 240)"/>
                        <path d="M69 0c3.633 2.422 8.367 2.422 12 0h0c3.633 2.422 8.367 2.422 12 0h0" transform="translate(-72 -612) translate(72 613) translate(5 240)"/>
                        <path d="M92 0c3.633 2.422 8.367 2.422 12 0h0c3.633 2.422 8.367 2.422 12 0h0" transform="translate(-72 -612) translate(72 613) translate(5 240)"/>
                        <path d="M115 0c3.633 2.422 8.367 2.422 12 0h0c3.633 2.422 8.367 2.422 12 0h0" transform="translate(-72 -612) translate(72 613) translate(5 240)"/>
                        <path d="M138 0c3.633 2.422 8.367 2.422 12 0h0c3.633 2.422 8.367 2.422 12 0h0" transform="translate(-72 -612) translate(72 613) translate(5 240)"/>
                        <path d="M161 0c3.633 2.422 8.367 2.422 12 0h0c3.633 2.422 8.367 2.422 12 0h0" transform="translate(-72 -612) translate(72 613) translate(5 240)"/>
                        <path d="M184 0c3.633 2.422 8.367 2.422 12 0h0c3.633 2.422 8.367 2.422 12 0h0" transform="translate(-72 -612) translate(72 613) translate(5 240)"/>
                        <path d="M207 0c3.633 2.422 8.367 2.422 12 0h0c3.633 2.422 8.367 2.422 12 0h0" transform="translate(-72 -612) translate(72 613) translate(5 240)"/>
                    </g>
                    <g stroke="#0F0F10">
                        <path d="M0 0c3.633 2.422 8.367 2.422 12 0h0c3.633 2.422 8.367 2.422 12 0h0" transform="translate(-72 -612) translate(72 613) translate(5 252)"/>
                        <path d="M23 0c3.633 2.422 8.367 2.422 12 0h0c3.633 2.422 8.367 2.422 12 0h0" transform="translate(-72 -612) translate(72 613) translate(5 252)"/>
                        <path d="M46 0c3.633 2.422 8.367 2.422 12 0h0c3.633 2.422 8.367 2.422 12 0h0" transform="translate(-72 -612) translate(72 613) translate(5 252)"/>
                        <path d="M69 0c3.633 2.422 8.367 2.422 12 0h0c3.633 2.422 8.367 2.422 12 0h0" transform="translate(-72 -612) translate(72 613) translate(5 252)"/>
                        <path d="M92 0c3.633 2.422 8.367 2.422 12 0h0c3.633 2.422 8.367 2.422 12 0h0" transform="translate(-72 -612) translate(72 613) translate(5 252)"/>
                        <path d="M115 0c3.633 2.422 8.367 2.422 12 0h0c3.633 2.422 8.367 2.422 12 0h0" transform="translate(-72 -612) translate(72 613) translate(5 252)"/>
                        <path d="M138 0c3.633 2.422 8.367 2.422 12 0h0c3.633 2.422 8.367 2.422 12 0h0" transform="translate(-72 -612) translate(72 613) translate(5 252)"/>
                        <path d="M161 0c3.633 2.422 8.367 2.422 12 0h0c3.633 2.422 8.367 2.422 12 0h0" transform="translate(-72 -612) translate(72 613) translate(5 252)"/>
                        <path d="M184 0c3.633 2.422 8.367 2.422 12 0h0c3.633 2.422 8.367 2.422 12 0h0" transform="translate(-72 -612) translate(72 613) translate(5 252)"/>
                        <path d="M207 0c3.633 2.422 8.367 2.422 12 0h0c3.633 2.422 8.367 2.422 12 0h0" transform="translate(-72 -612) translate(72 613) translate(5 252)"/>
                    </g>
                    <g stroke="#0F0F10">
                        <path d="M0 0c3.633 2.422 8.367 2.422 12 0h0c3.633 2.422 8.367 2.422 12 0h0" transform="translate(-72 -612) translate(72 613) translate(5 264)"/>
                        <path d="M23 0c3.633 2.422 8.367 2.422 12 0h0c3.633 2.422 8.367 2.422 12 0h0" transform="translate(-72 -612) translate(72 613) translate(5 264)"/>
                        <path d="M46 0c3.633 2.422 8.367 2.422 12 0h0c3.633 2.422 8.367 2.422 12 0h0" transform="translate(-72 -612) translate(72 613) translate(5 264)"/>
                        <path d="M69 0c3.633 2.422 8.367 2.422 12 0h0c3.633 2.422 8.367 2.422 12 0h0" transform="translate(-72 -612) translate(72 613) translate(5 264)"/>
                        <path d="M92 0c3.633 2.422 8.367 2.422 12 0h0c3.633 2.422 8.367 2.422 12 0h0" transform="translate(-72 -612) translate(72 613) translate(5 264)"/>
                        <path d="M115 0c3.633 2.422 8.367 2.422 12 0h0c3.633 2.422 8.367 2.422 12 0h0" transform="translate(-72 -612) translate(72 613) translate(5 264)"/>
                        <path d="M138 0c3.633 2.422 8.367 2.422 12 0h0c3.633 2.422 8.367 2.422 12 0h0" transform="translate(-72 -612) translate(72 613) translate(5 264)"/>
                        <path d="M161 0c3.633 2.422 8.367 2.422 12 0h0c3.633 2.422 8.367 2.422 12 0h0" transform="translate(-72 -612) translate(72 613) translate(5 264)"/>
                        <path d="M184 0c3.633 2.422 8.367 2.422 12 0h0c3.633 2.422 8.367 2.422 12 0h0" transform="translate(-72 -612) translate(72 613) translate(5 264)"/>
                        <path d="M207 0c3.633 2.422 8.367 2.422 12 0h0c3.633 2.422 8.367 2.422 12 0h0" transform="translate(-72 -612) translate(72 613) translate(5 264)"/>
                    </g>
                    <g stroke="#0F0F10">
                        <path d="M0 0c3.633 2.422 8.367 2.422 12 0h0c3.633 2.422 8.367 2.422 12 0h0" transform="translate(-72 -612) translate(72 613) translate(5 276)"/>
                        <path d="M23 0c3.633 2.422 8.367 2.422 12 0h0c3.633 2.422 8.367 2.422 12 0h0" transform="translate(-72 -612) translate(72 613) translate(5 276)"/>
                        <path d="M46 0c3.633 2.422 8.367 2.422 12 0h0c3.633 2.422 8.367 2.422 12 0h0" transform="translate(-72 -612) translate(72 613) translate(5 276)"/>
                        <path d="M69 0c3.633 2.422 8.367 2.422 12 0h0c3.633 2.422 8.367 2.422 12 0h0" transform="translate(-72 -612) translate(72 613) translate(5 276)"/>
                        <path d="M92 0c3.633 2.422 8.367 2.422 12 0h0c3.633 2.422 8.367 2.422 12 0h0" transform="translate(-72 -612) translate(72 613) translate(5 276)"/>
                        <path d="M115 0c3.633 2.422 8.367 2.422 12 0h0c3.633 2.422 8.367 2.422 12 0h0" transform="translate(-72 -612) translate(72 613) translate(5 276)"/>
                        <path d="M138 0c3.633 2.422 8.367 2.422 12 0h0c3.633 2.422 8.367 2.422 12 0h0" transform="translate(-72 -612) translate(72 613) translate(5 276)"/>
                        <path d="M161 0c3.633 2.422 8.367 2.422 12 0h0c3.633 2.422 8.367 2.422 12 0h0" transform="translate(-72 -612) translate(72 613) translate(5 276)"/>
                        <path d="M184 0c3.633 2.422 8.367 2.422 12 0h0c3.633 2.422 8.367 2.422 12 0h0" transform="translate(-72 -612) translate(72 613) translate(5 276)"/>
                        <path d="M207 0c3.633 2.422 8.367 2.422 12 0h0c3.633 2.422 8.367 2.422 12 0h0" transform="translate(-72 -612) translate(72 613) translate(5 276)"/>
                    </g>
                    <g stroke="#0F0F10">
                        <path d="M0 0c3.633 2.422 8.367 2.422 12 0h0c3.633 2.422 8.367 2.422 12 0h0" transform="translate(-72 -612) translate(72 613) translate(5 288)"/>
                        <path d="M23 0c3.633 2.422 8.367 2.422 12 0h0c3.633 2.422 8.367 2.422 12 0h0" transform="translate(-72 -612) translate(72 613) translate(5 288)"/>
                        <path d="M46 0c3.633 2.422 8.367 2.422 12 0h0c3.633 2.422 8.367 2.422 12 0h0" transform="translate(-72 -612) translate(72 613) translate(5 288)"/>
                        <path d="M69 0c3.633 2.422 8.367 2.422 12 0h0c3.633 2.422 8.367 2.422 12 0h0" transform="translate(-72 -612) translate(72 613) translate(5 288)"/>
                        <path d="M92 0c3.633 2.422 8.367 2.422 12 0h0c3.633 2.422 8.367 2.422 12 0h0" transform="translate(-72 -612) translate(72 613) translate(5 288)"/>
                        <path d="M115 0c3.633 2.422 8.367 2.422 12 0h0c3.633 2.422 8.367 2.422 12 0h0" transform="translate(-72 -612) translate(72 613) translate(5 288)"/>
                        <path d="M138 0c3.633 2.422 8.367 2.422 12 0h0c3.633 2.422 8.367 2.422 12 0h0" transform="translate(-72 -612) translate(72 613) translate(5 288)"/>
                        <path d="M161 0c3.633 2.422 8.367 2.422 12 0h0c3.633 2.422 8.367 2.422 12 0h0" transform="translate(-72 -612) translate(72 613) translate(5 288)"/>
                        <path d="M184 0c3.633 2.422 8.367 2.422 12 0h0c3.633 2.422 8.367 2.422 12 0h0" transform="translate(-72 -612) translate(72 613) translate(5 288)"/>
                        <path d="M207 0c3.633 2.422 8.367 2.422 12 0h0c3.633 2.422 8.367 2.422 12 0h0" transform="translate(-72 -612) translate(72 613) translate(5 288)"/>
                    </g>
                    <g stroke="#0F0F10">
                        <path d="M0 0c3.633 2.422 8.367 2.422 12 0h0c3.633 2.422 8.367 2.422 12 0h0" transform="translate(-72 -612) translate(72 613) translate(5 300)"/>
                        <path d="M23 0c3.633 2.422 8.367 2.422 12 0h0c3.633 2.422 8.367 2.422 12 0h0" transform="translate(-72 -612) translate(72 613) translate(5 300)"/>
                        <path d="M46 0c3.633 2.422 8.367 2.422 12 0h0c3.633 2.422 8.367 2.422 12 0h0" transform="translate(-72 -612) translate(72 613) translate(5 300)"/>
                        <path d="M69 0c3.633 2.422 8.367 2.422 12 0h0c3.633 2.422 8.367 2.422 12 0h0" transform="translate(-72 -612) translate(72 613) translate(5 300)"/>
                        <path d="M92 0c3.633 2.422 8.367 2.422 12 0h0c3.633 2.422 8.367 2.422 12 0h0" transform="translate(-72 -612) translate(72 613) translate(5 300)"/>
                        <path d="M115 0c3.633 2.422 8.367 2.422 12 0h0c3.633 2.422 8.367 2.422 12 0h0" transform="translate(-72 -612) translate(72 613) translate(5 300)"/>
                        <path d="M138 0c3.633 2.422 8.367 2.422 12 0h0c3.633 2.422 8.367 2.422 12 0h0" transform="translate(-72 -612) translate(72 613) translate(5 300)"/>
                        <path d="M161 0c3.633 2.422 8.367 2.422 12 0h0c3.633 2.422 8.367 2.422 12 0h0" transform="translate(-72 -612) translate(72 613) translate(5 300)"/>
                        <path d="M184 0c3.633 2.422 8.367 2.422 12 0h0c3.633 2.422 8.367 2.422 12 0h0" transform="translate(-72 -612) translate(72 613) translate(5 300)"/>
                        <path d="M207 0c3.633 2.422 8.367 2.422 12 0h0c3.633 2.422 8.367 2.422 12 0h0" transform="translate(-72 -612) translate(72 613) translate(5 300)"/>
                    </g>
                    <g stroke="#0F0F10">
                        <path d="M0 0c3.633 2.422 8.367 2.422 12 0h0c3.633 2.422 8.367 2.422 12 0h0" transform="translate(-72 -612) translate(72 613) translate(5 312)"/>
                        <path d="M23 0c3.633 2.422 8.367 2.422 12 0h0c3.633 2.422 8.367 2.422 12 0h0" transform="translate(-72 -612) translate(72 613) translate(5 312)"/>
                        <path d="M46 0c3.633 2.422 8.367 2.422 12 0h0c3.633 2.422 8.367 2.422 12 0h0" transform="translate(-72 -612) translate(72 613) translate(5 312)"/>
                        <path d="M69 0c3.633 2.422 8.367 2.422 12 0h0c3.633 2.422 8.367 2.422 12 0h0" transform="translate(-72 -612) translate(72 613) translate(5 312)"/>
                        <path d="M92 0c3.633 2.422 8.367 2.422 12 0h0c3.633 2.422 8.367 2.422 12 0h0" transform="translate(-72 -612) translate(72 613) translate(5 312)"/>
                        <path d="M115 0c3.633 2.422 8.367 2.422 12 0h0c3.633 2.422 8.367 2.422 12 0h0" transform="translate(-72 -612) translate(72 613) translate(5 312)"/>
                        <path d="M138 0c3.633 2.422 8.367 2.422 12 0h0c3.633 2.422 8.367 2.422 12 0h0" transform="translate(-72 -612) translate(72 613) translate(5 312)"/>
                        <path d="M161 0c3.633 2.422 8.367 2.422 12 0h0c3.633 2.422 8.367 2.422 12 0h0" transform="translate(-72 -612) translate(72 613) translate(5 312)"/>
                        <path d="M184 0c3.633 2.422 8.367 2.422 12 0h0c3.633 2.422 8.367 2.422 12 0h0" transform="translate(-72 -612) translate(72 613) translate(5 312)"/>
                        <path d="M207 0c3.633 2.422 8.367 2.422 12 0h0c3.633 2.422 8.367 2.422 12 0h0" transform="translate(-72 -612) translate(72 613) translate(5 312)"/>
                    </g>
                    <g stroke="#0F0F10">
                        <path d="M0 0c3.633 2.422 8.367 2.422 12 0h0c3.633 2.422 8.367 2.422 12 0h0" transform="translate(-72 -612) translate(72 613) translate(5 324)"/>
                        <path d="M23 0c3.633 2.422 8.367 2.422 12 0h0c3.633 2.422 8.367 2.422 12 0h0" transform="translate(-72 -612) translate(72 613) translate(5 324)"/>
                        <path d="M46 0c3.633 2.422 8.367 2.422 12 0h0c3.633 2.422 8.367 2.422 12 0h0" transform="translate(-72 -612) translate(72 613) translate(5 324)"/>
                        <path d="M69 0c3.633 2.422 8.367 2.422 12 0h0c3.633 2.422 8.367 2.422 12 0h0" transform="translate(-72 -612) translate(72 613) translate(5 324)"/>
                        <path d="M92 0c3.633 2.422 8.367 2.422 12 0h0c3.633 2.422 8.367 2.422 12 0h0" transform="translate(-72 -612) translate(72 613) translate(5 324)"/>
                        <path d="M115 0c3.633 2.422 8.367 2.422 12 0h0c3.633 2.422 8.367 2.422 12 0h0" transform="translate(-72 -612) translate(72 613) translate(5 324)"/>
                        <path d="M138 0c3.633 2.422 8.367 2.422 12 0h0c3.633 2.422 8.367 2.422 12 0h0" transform="translate(-72 -612) translate(72 613) translate(5 324)"/>
                        <path d="M161 0c3.633 2.422 8.367 2.422 12 0h0c3.633 2.422 8.367 2.422 12 0h0" transform="translate(-72 -612) translate(72 613) translate(5 324)"/>
                        <path d="M184 0c3.633 2.422 8.367 2.422 12 0h0c3.633 2.422 8.367 2.422 12 0h0" transform="translate(-72 -612) translate(72 613) translate(5 324)"/>
                        <path d="M207 0c3.633 2.422 8.367 2.422 12 0h0c3.633 2.422 8.367 2.422 12 0h0" transform="translate(-72 -612) translate(72 613) translate(5 324)"/>
                    </g>
                    <g stroke="#0F0F10">
                        <path d="M0 0c3.633 2.422 8.367 2.422 12 0h0c3.633 2.422 8.367 2.422 12 0h0" transform="translate(-72 -612) translate(72 613) translate(5 336)"/>
                        <path d="M23 0c3.633 2.422 8.367 2.422 12 0h0c3.633 2.422 8.367 2.422 12 0h0" transform="translate(-72 -612) translate(72 613) translate(5 336)"/>
                        <path d="M46 0c3.633 2.422 8.367 2.422 12 0h0c3.633 2.422 8.367 2.422 12 0h0" transform="translate(-72 -612) translate(72 613) translate(5 336)"/>
                        <path d="M69 0c3.633 2.422 8.367 2.422 12 0h0c3.633 2.422 8.367 2.422 12 0h0" transform="translate(-72 -612) translate(72 613) translate(5 336)"/>
                        <path d="M92 0c3.633 2.422 8.367 2.422 12 0h0c3.633 2.422 8.367 2.422 12 0h0" transform="translate(-72 -612) translate(72 613) translate(5 336)"/>
                        <path d="M115 0c3.633 2.422 8.367 2.422 12 0h0c3.633 2.422 8.367 2.422 12 0h0" transform="translate(-72 -612) translate(72 613) translate(5 336)"/>
                        <path d="M138 0c3.633 2.422 8.367 2.422 12 0h0c3.633 2.422 8.367 2.422 12 0h0" transform="translate(-72 -612) translate(72 613) translate(5 336)"/>
                        <path d="M161 0c3.633 2.422 8.367 2.422 12 0h0c3.633 2.422 8.367 2.422 12 0h0" transform="translate(-72 -612) translate(72 613) translate(5 336)"/>
                        <path d="M184 0c3.633 2.422 8.367 2.422 12 0h0c3.633 2.422 8.367 2.422 12 0h0" transform="translate(-72 -612) translate(72 613) translate(5 336)"/>
                        <path d="M207 0c3.633 2.422 8.367 2.422 12 0h0c3.633 2.422 8.367 2.422 12 0h0" transform="translate(-72 -612) translate(72 613) translate(5 336)"/>
                    </g>
                    <g stroke="#0F0F10">
                        <path d="M0 0c3.633 2.422 8.367 2.422 12 0h0c3.633 2.422 8.367 2.422 12 0h0" transform="translate(-72 -612) translate(72 613) translate(5 348)"/>
                        <path d="M23 0c3.633 2.422 8.367 2.422 12 0h0c3.633 2.422 8.367 2.422 12 0h0" transform="translate(-72 -612) translate(72 613) translate(5 348)"/>
                        <path d="M46 0c3.633 2.422 8.367 2.422 12 0h0c3.633 2.422 8.367 2.422 12 0h0" transform="translate(-72 -612) translate(72 613) translate(5 348)"/>
                        <path d="M69 0c3.633 2.422 8.367 2.422 12 0h0c3.633 2.422 8.367 2.422 12 0h0" transform="translate(-72 -612) translate(72 613) translate(5 348)"/>
                        <path d="M92 0c3.633 2.422 8.367 2.422 12 0h0c3.633 2.422 8.367 2.422 12 0h0" transform="translate(-72 -612) translate(72 613) translate(5 348)"/>
                        <path d="M115 0c3.633 2.422 8.367 2.422 12 0h0c3.633 2.422 8.367 2.422 12 0h0" transform="translate(-72 -612) translate(72 613) translate(5 348)"/>
                        <path d="M138 0c3.633 2.422 8.367 2.422 12 0h0c3.633 2.422 8.367 2.422 12 0h0" transform="translate(-72 -612) translate(72 613) translate(5 348)"/>
                        <path d="M161 0c3.633 2.422 8.367 2.422 12 0h0c3.633 2.422 8.367 2.422 12 0h0" transform="translate(-72 -612) translate(72 613) translate(5 348)"/>
                        <path d="M184 0c3.633 2.422 8.367 2.422 12 0h0c3.633 2.422 8.367 2.422 12 0h0" transform="translate(-72 -612) translate(72 613) translate(5 348)"/>
                        <path d="M207 0c3.633 2.422 8.367 2.422 12 0h0c3.633 2.422 8.367 2.422 12 0h0" transform="translate(-72 -612) translate(72 613) translate(5 348)"/>
                    </g>
                    <g stroke="#0F0F10">
                        <path d="M0 0c3.633 2.422 8.367 2.422 12 0h0c3.633 2.422 8.367 2.422 12 0h0" transform="translate(-72 -612) translate(72 613) translate(5 360)"/>
                        <path d="M23 0c3.633 2.422 8.367 2.422 12 0h0c3.633 2.422 8.367 2.422 12 0h0" transform="translate(-72 -612) translate(72 613) translate(5 360)"/>
                        <path d="M46 0c3.633 2.422 8.367 2.422 12 0h0c3.633 2.422 8.367 2.422 12 0h0" transform="translate(-72 -612) translate(72 613) translate(5 360)"/>
                        <path d="M69 0c3.633 2.422 8.367 2.422 12 0h0c3.633 2.422 8.367 2.422 12 0h0" transform="translate(-72 -612) translate(72 613) translate(5 360)"/>
                        <path d="M92 0c3.633 2.422 8.367 2.422 12 0h0c3.633 2.422 8.367 2.422 12 0h0" transform="translate(-72 -612) translate(72 613) translate(5 360)"/>
                        <path d="M115 0c3.633 2.422 8.367 2.422 12 0h0c3.633 2.422 8.367 2.422 12 0h0" transform="translate(-72 -612) translate(72 613) translate(5 360)"/>
                        <path d="M138 0c3.633 2.422 8.367 2.422 12 0h0c3.633 2.422 8.367 2.422 12 0h0" transform="translate(-72 -612) translate(72 613) translate(5 360)"/>
                        <path d="M161 0c3.633 2.422 8.367 2.422 12 0h0c3.633 2.422 8.367 2.422 12 0h0" transform="translate(-72 -612) translate(72 613) translate(5 360)"/>
                        <path d="M184 0c3.633 2.422 8.367 2.422 12 0h0c3.633 2.422 8.367 2.422 12 0h0" transform="translate(-72 -612) translate(72 613) translate(5 360)"/>
                        <path d="M207 0c3.633 2.422 8.367 2.422 12 0h0c3.633 2.422 8.367 2.422 12 0h0" transform="translate(-72 -612) translate(72 613) translate(5 360)"/>
                    </g>
                    <g stroke="#0F0F10">
                        <path d="M0 0c3.633 2.422 8.367 2.422 12 0h0c3.633 2.422 8.367 2.422 12 0h0" transform="translate(-72 -612) translate(72 613) translate(5 372)"/>
                        <path d="M23 0c3.633 2.422 8.367 2.422 12 0h0c3.633 2.422 8.367 2.422 12 0h0" transform="translate(-72 -612) translate(72 613) translate(5 372)"/>
                        <path d="M46 0c3.633 2.422 8.367 2.422 12 0h0c3.633 2.422 8.367 2.422 12 0h0" transform="translate(-72 -612) translate(72 613) translate(5 372)"/>
                        <path d="M69 0c3.633 2.422 8.367 2.422 12 0h0c3.633 2.422 8.367 2.422 12 0h0" transform="translate(-72 -612) translate(72 613) translate(5 372)"/>
                        <path d="M92 0c3.633 2.422 8.367 2.422 12 0h0c3.633 2.422 8.367 2.422 12 0h0" transform="translate(-72 -612) translate(72 613) translate(5 372)"/>
                        <path d="M115 0c3.633 2.422 8.367 2.422 12 0h0c3.633 2.422 8.367 2.422 12 0h0" transform="translate(-72 -612) translate(72 613) translate(5 372)"/>
                        <path d="M138 0c3.633 2.422 8.367 2.422 12 0h0c3.633 2.422 8.367 2.422 12 0h0" transform="translate(-72 -612) translate(72 613) translate(5 372)"/>
                        <path d="M161 0c3.633 2.422 8.367 2.422 12 0h0c3.633 2.422 8.367 2.422 12 0h0" transform="translate(-72 -612) translate(72 613) translate(5 372)"/>
                        <path d="M184 0c3.633 2.422 8.367 2.422 12 0h0c3.633 2.422 8.367 2.422 12 0h0" transform="translate(-72 -612) translate(72 613) translate(5 372)"/>
                        <path d="M207 0c3.633 2.422 8.367 2.422 12 0h0c3.633 2.422 8.367 2.422 12 0h0" transform="translate(-72 -612) translate(72 613) translate(5 372)"/>
                    </g>
                    <g stroke="#0F0F10">
                        <path d="M0 0c3.633 2.422 8.367 2.422 12 0h0c3.633 2.422 8.367 2.422 12 0h0" transform="translate(-72 -612) translate(72 613) translate(5 384)"/>
                        <path d="M23 0c3.633 2.422 8.367 2.422 12 0h0c3.633 2.422 8.367 2.422 12 0h0" transform="translate(-72 -612) translate(72 613) translate(5 384)"/>
                        <path d="M46 0c3.633 2.422 8.367 2.422 12 0h0c3.633 2.422 8.367 2.422 12 0h0" transform="translate(-72 -612) translate(72 613) translate(5 384)"/>
                        <path d="M69 0c3.633 2.422 8.367 2.422 12 0h0c3.633 2.422 8.367 2.422 12 0h0" transform="translate(-72 -612) translate(72 613) translate(5 384)"/>
                        <path d="M92 0c3.633 2.422 8.367 2.422 12 0h0c3.633 2.422 8.367 2.422 12 0h0" transform="translate(-72 -612) translate(72 613) translate(5 384)"/>
                        <path d="M115 0c3.633 2.422 8.367 2.422 12 0h0c3.633 2.422 8.367 2.422 12 0h0" transform="translate(-72 -612) translate(72 613) translate(5 384)"/>
                        <path d="M138 0c3.633 2.422 8.367 2.422 12 0h0c3.633 2.422 8.367 2.422 12 0h0" transform="translate(-72 -612) translate(72 613) translate(5 384)"/>
                        <path d="M161 0c3.633 2.422 8.367 2.422 12 0h0c3.633 2.422 8.367 2.422 12 0h0" transform="translate(-72 -612) translate(72 613) translate(5 384)"/>
                        <path d="M184 0c3.633 2.422 8.367 2.422 12 0h0c3.633 2.422 8.367 2.422 12 0h0" transform="translate(-72 -612) translate(72 613) translate(5 384)"/>
                        <path d="M207 0c3.633 2.422 8.367 2.422 12 0h0c3.633 2.422 8.367 2.422 12 0h0" transform="translate(-72 -612) translate(72 613) translate(5 384)"/>
                    </g>
                    <g stroke="#0F0F10">
                        <path d="M0 0c3.633 2.422 8.367 2.422 12 0h0c3.633 2.422 8.367 2.422 12 0h0" transform="translate(-72 -612) translate(72 613) translate(5 396)"/>
                        <path d="M23 0c3.633 2.422 8.367 2.422 12 0h0c3.633 2.422 8.367 2.422 12 0h0" transform="translate(-72 -612) translate(72 613) translate(5 396)"/>
                        <path d="M46 0c3.633 2.422 8.367 2.422 12 0h0c3.633 2.422 8.367 2.422 12 0h0" transform="translate(-72 -612) translate(72 613) translate(5 396)"/>
                        <path d="M69 0c3.633 2.422 8.367 2.422 12 0h0c3.633 2.422 8.367 2.422 12 0h0" transform="translate(-72 -612) translate(72 613) translate(5 396)"/>
                        <path d="M92 0c3.633 2.422 8.367 2.422 12 0h0c3.633 2.422 8.367 2.422 12 0h0" transform="translate(-72 -612) translate(72 613) translate(5 396)"/>
                        <path d="M115 0c3.633 2.422 8.367 2.422 12 0h0c3.633 2.422 8.367 2.422 12 0h0" transform="translate(-72 -612) translate(72 613) translate(5 396)"/>
                        <path d="M138 0c3.633 2.422 8.367 2.422 12 0h0c3.633 2.422 8.367 2.422 12 0h0" transform="translate(-72 -612) translate(72 613) translate(5 396)"/>
                        <path d="M161 0c3.633 2.422 8.367 2.422 12 0h0c3.633 2.422 8.367 2.422 12 0h0" transform="translate(-72 -612) translate(72 613) translate(5 396)"/>
                        <path d="M184 0c3.633 2.422 8.367 2.422 12 0h0c3.633 2.422 8.367 2.422 12 0h0" transform="translate(-72 -612) translate(72 613) translate(5 396)"/>
                        <path d="M207 0c3.633 2.422 8.367 2.422 12 0h0c3.633 2.422 8.367 2.422 12 0h0" transform="translate(-72 -612) translate(72 613) translate(5 396)"/>
                    </g>
                    <g stroke="#0F0F10">
                        <path d="M0 0c3.633 2.422 8.367 2.422 12 0h0c3.633 2.422 8.367 2.422 12 0h0" transform="translate(-72 -612) translate(72 613) translate(5 408)"/>
                        <path d="M23 0c3.633 2.422 8.367 2.422 12 0h0c3.633 2.422 8.367 2.422 12 0h0" transform="translate(-72 -612) translate(72 613) translate(5 408)"/>
                        <path d="M46 0c3.633 2.422 8.367 2.422 12 0h0c3.633 2.422 8.367 2.422 12 0h0" transform="translate(-72 -612) translate(72 613) translate(5 408)"/>
                        <path d="M69 0c3.633 2.422 8.367 2.422 12 0h0c3.633 2.422 8.367 2.422 12 0h0" transform="translate(-72 -612) translate(72 613) translate(5 408)"/>
                        <path d="M92 0c3.633 2.422 8.367 2.422 12 0h0c3.633 2.422 8.367 2.422 12 0h0" transform="translate(-72 -612) translate(72 613) translate(5 408)"/>
                        <path d="M115 0c3.633 2.422 8.367 2.422 12 0h0c3.633 2.422 8.367 2.422 12 0h0" transform="translate(-72 -612) translate(72 613) translate(5 408)"/>
                        <path d="M138 0c3.633 2.422 8.367 2.422 12 0h0c3.633 2.422 8.367 2.422 12 0h0" transform="translate(-72 -612) translate(72 613) translate(5 408)"/>
                        <path d="M161 0c3.633 2.422 8.367 2.422 12 0h0c3.633 2.422 8.367 2.422 12 0h0" transform="translate(-72 -612) translate(72 613) translate(5 408)"/>
                        <path d="M184 0c3.633 2.422 8.367 2.422 12 0h0c3.633 2.422 8.367 2.422 12 0h0" transform="translate(-72 -612) translate(72 613) translate(5 408)"/>
                        <path d="M207 0c3.633 2.422 8.367 2.422 12 0h0c3.633 2.422 8.367 2.422 12 0h0" transform="translate(-72 -612) translate(72 613) translate(5 408)"/>
                    </g>
                    <g stroke="#0F0F10">
                        <path d="M0 0c3.633 2.422 8.367 2.422 12 0h0c3.633 2.422 8.367 2.422 12 0h0" transform="translate(-72 -612) translate(72 613) translate(5 420)"/>
                        <path d="M23 0c3.633 2.422 8.367 2.422 12 0h0c3.633 2.422 8.367 2.422 12 0h0" transform="translate(-72 -612) translate(72 613) translate(5 420)"/>
                        <path d="M46 0c3.633 2.422 8.367 2.422 12 0h0c3.633 2.422 8.367 2.422 12 0h0" transform="translate(-72 -612) translate(72 613) translate(5 420)"/>
                        <path d="M69 0c3.633 2.422 8.367 2.422 12 0h0c3.633 2.422 8.367 2.422 12 0h0" transform="translate(-72 -612) translate(72 613) translate(5 420)"/>
                        <path d="M92 0c3.633 2.422 8.367 2.422 12 0h0c3.633 2.422 8.367 2.422 12 0h0" transform="translate(-72 -612) translate(72 613) translate(5 420)"/>
                        <path d="M115 0c3.633 2.422 8.367 2.422 12 0h0c3.633 2.422 8.367 2.422 12 0h0" transform="translate(-72 -612) translate(72 613) translate(5 420)"/>
                        <path d="M138 0c3.633 2.422 8.367 2.422 12 0h0c3.633 2.422 8.367 2.422 12 0h0" transform="translate(-72 -612) translate(72 613) translate(5 420)"/>
                        <path d="M161 0c3.633 2.422 8.367 2.422 12 0h0c3.633 2.422 8.367 2.422 12 0h0" transform="translate(-72 -612) translate(72 613) translate(5 420)"/>
                        <path d="M184 0c3.633 2.422 8.367 2.422 12 0h0c3.633 2.422 8.367 2.422 12 0h0" transform="translate(-72 -612) translate(72 613) translate(5 420)"/>
                        <path d="M207 0c3.633 2.422 8.367 2.422 12 0h0c3.633 2.422 8.367 2.422 12 0h0" transform="translate(-72 -612) translate(72 613) translate(5 420)"/>
                    </g>
                    <g stroke="#0F0F10">
                        <path d="M0 0c3.633 2.422 8.367 2.422 12 0h0c3.633 2.422 8.367 2.422 12 0h0" transform="translate(-72 -612) translate(72 613) translate(5 432)"/>
                        <path d="M23 0c3.633 2.422 8.367 2.422 12 0h0c3.633 2.422 8.367 2.422 12 0h0" transform="translate(-72 -612) translate(72 613) translate(5 432)"/>
                        <path d="M46 0c3.633 2.422 8.367 2.422 12 0h0c3.633 2.422 8.367 2.422 12 0h0" transform="translate(-72 -612) translate(72 613) translate(5 432)"/>
                        <path d="M69 0c3.633 2.422 8.367 2.422 12 0h0c3.633 2.422 8.367 2.422 12 0h0" transform="translate(-72 -612) translate(72 613) translate(5 432)"/>
                        <path d="M92 0c3.633 2.422 8.367 2.422 12 0h0c3.633 2.422 8.367 2.422 12 0h0" transform="translate(-72 -612) translate(72 613) translate(5 432)"/>
                        <path d="M115 0c3.633 2.422 8.367 2.422 12 0h0c3.633 2.422 8.367 2.422 12 0h0" transform="translate(-72 -612) translate(72 613) translate(5 432)"/>
                        <path d="M138 0c3.633 2.422 8.367 2.422 12 0h0c3.633 2.422 8.367 2.422 12 0h0" transform="translate(-72 -612) translate(72 613) translate(5 432)"/>
                        <path d="M161 0c3.633 2.422 8.367 2.422 12 0h0c3.633 2.422 8.367 2.422 12 0h0" transform="translate(-72 -612) translate(72 613) translate(5 432)"/>
                        <path d="M184 0c3.633 2.422 8.367 2.422 12 0h0c3.633 2.422 8.367 2.422 12 0h0" transform="translate(-72 -612) translate(72 613) translate(5 432)"/>
                        <path d="M207 0c3.633 2.422 8.367 2.422 12 0h0c3.633 2.422 8.367 2.422 12 0h0" transform="translate(-72 -612) translate(72 613) translate(5 432)"/>
                    </g>
                    <g stroke="#0F0F10">
                        <path d="M0 0c3.633 2.422 8.367 2.422 12 0h0c3.633 2.422 8.367 2.422 12 0h0" transform="translate(-72 -612) translate(72 613) translate(5 444)"/>
                        <path d="M23 0c3.633 2.422 8.367 2.422 12 0h0c3.633 2.422 8.367 2.422 12 0h0" transform="translate(-72 -612) translate(72 613) translate(5 444)"/>
                        <path d="M46 0c3.633 2.422 8.367 2.422 12 0h0c3.633 2.422 8.367 2.422 12 0h0" transform="translate(-72 -612) translate(72 613) translate(5 444)"/>
                        <path d="M69 0c3.633 2.422 8.367 2.422 12 0h0c3.633 2.422 8.367 2.422 12 0h0" transform="translate(-72 -612) translate(72 613) translate(5 444)"/>
                        <path d="M92 0c3.633 2.422 8.367 2.422 12 0h0c3.633 2.422 8.367 2.422 12 0h0" transform="translate(-72 -612) translate(72 613) translate(5 444)"/>
                        <path d="M115 0c3.633 2.422 8.367 2.422 12 0h0c3.633 2.422 8.367 2.422 12 0h0" transform="translate(-72 -612) translate(72 613) translate(5 444)"/>
                        <path d="M138 0c3.633 2.422 8.367 2.422 12 0h0c3.633 2.422 8.367 2.422 12 0h0" transform="translate(-72 -612) translate(72 613) translate(5 444)"/>
                        <path d="M161 0c3.633 2.422 8.367 2.422 12 0h0c3.633 2.422 8.367 2.422 12 0h0" transform="translate(-72 -612) translate(72 613) translate(5 444)"/>
                        <path d="M184 0c3.633 2.422 8.367 2.422 12 0h0c3.633 2.422 8.367 2.422 12 0h0" transform="translate(-72 -612) translate(72 613) translate(5 444)"/>
                        <path d="M207 0c3.633 2.422 8.367 2.422 12 0h0c3.633 2.422 8.367 2.422 12 0h0" transform="translate(-72 -612) translate(72 613) translate(5 444)"/>
                    </g>
                    <g stroke="#0F0F10">
                        <path d="M0 0c3.633 2.422 8.367 2.422 12 0h0c3.633 2.422 8.367 2.422 12 0h0" transform="translate(-72 -612) translate(72 613) translate(5 456)"/>
                        <path d="M23 0c3.633 2.422 8.367 2.422 12 0h0c3.633 2.422 8.367 2.422 12 0h0" transform="translate(-72 -612) translate(72 613) translate(5 456)"/>
                        <path d="M46 0c3.633 2.422 8.367 2.422 12 0h0c3.633 2.422 8.367 2.422 12 0h0" transform="translate(-72 -612) translate(72 613) translate(5 456)"/>
                        <path d="M69 0c3.633 2.422 8.367 2.422 12 0h0c3.633 2.422 8.367 2.422 12 0h0" transform="translate(-72 -612) translate(72 613) translate(5 456)"/>
                        <path d="M92 0c3.633 2.422 8.367 2.422 12 0h0c3.633 2.422 8.367 2.422 12 0h0" transform="translate(-72 -612) translate(72 613) translate(5 456)"/>
                        <path d="M115 0c3.633 2.422 8.367 2.422 12 0h0c3.633 2.422 8.367 2.422 12 0h0" transform="translate(-72 -612) translate(72 613) translate(5 456)"/>
                        <path d="M138 0c3.633 2.422 8.367 2.422 12 0h0c3.633 2.422 8.367 2.422 12 0h0" transform="translate(-72 -612) translate(72 613) translate(5 456)"/>
                        <path d="M161 0c3.633 2.422 8.367 2.422 12 0h0c3.633 2.422 8.367 2.422 12 0h0" transform="translate(-72 -612) translate(72 613) translate(5 456)"/>
                        <path d="M184 0c3.633 2.422 8.367 2.422 12 0h0c3.633 2.422 8.367 2.422 12 0h0" transform="translate(-72 -612) translate(72 613) translate(5 456)"/>
                        <path d="M207 0c3.633 2.422 8.367 2.422 12 0h0c3.633 2.422 8.367 2.422 12 0h0" transform="translate(-72 -612) translate(72 613) translate(5 456)"/>
                    </g>
                    <g stroke="#0F0F10">
                        <path d="M0 0c3.633 2.422 8.367 2.422 12 0h0c3.633 2.422 8.367 2.422 12 0h0" transform="translate(-72 -612) translate(72 613) translate(5 468)"/>
                        <path d="M23 0c3.633 2.422 8.367 2.422 12 0h0c3.633 2.422 8.367 2.422 12 0h0" transform="translate(-72 -612) translate(72 613) translate(5 468)"/>
                        <path d="M46 0c3.633 2.422 8.367 2.422 12 0h0c3.633 2.422 8.367 2.422 12 0h0" transform="translate(-72 -612) translate(72 613) translate(5 468)"/>
                        <path d="M69 0c3.633 2.422 8.367 2.422 12 0h0c3.633 2.422 8.367 2.422 12 0h0" transform="translate(-72 -612) translate(72 613) translate(5 468)"/>
                        <path d="M92 0c3.633 2.422 8.367 2.422 12 0h0c3.633 2.422 8.367 2.422 12 0h0" transform="translate(-72 -612) translate(72 613) translate(5 468)"/>
                        <path d="M115 0c3.633 2.422 8.367 2.422 12 0h0c3.633 2.422 8.367 2.422 12 0h0" transform="translate(-72 -612) translate(72 613) translate(5 468)"/>
                        <path d="M138 0c3.633 2.422 8.367 2.422 12 0h0c3.633 2.422 8.367 2.422 12 0h0" transform="translate(-72 -612) translate(72 613) translate(5 468)"/>
                        <path d="M161 0c3.633 2.422 8.367 2.422 12 0h0c3.633 2.422 8.367 2.422 12 0h0" transform="translate(-72 -612) translate(72 613) translate(5 468)"/>
                        <path d="M184 0c3.633 2.422 8.367 2.422 12 0h0c3.633 2.422 8.367 2.422 12 0h0" transform="translate(-72 -612) translate(72 613) translate(5 468)"/>
                        <path d="M207 0c3.633 2.422 8.367 2.422 12 0h0c3.633 2.422 8.367 2.422 12 0h0" transform="translate(-72 -612) translate(72 613) translate(5 468)"/>
                    </g>
                    <g stroke="#0F0F10">
                        <path d="M0 0c3.633 2.422 8.367 2.422 12 0h0c3.633 2.422 8.367 2.422 12 0h0" transform="translate(-72 -612) translate(72 613) translate(5 480)"/>
                        <path d="M23 0c3.633 2.422 8.367 2.422 12 0h0c3.633 2.422 8.367 2.422 12 0h0" transform="translate(-72 -612) translate(72 613) translate(5 480)"/>
                        <path d="M46 0c3.633 2.422 8.367 2.422 12 0h0c3.633 2.422 8.367 2.422 12 0h0" transform="translate(-72 -612) translate(72 613) translate(5 480)"/>
                        <path d="M69 0c3.633 2.422 8.367 2.422 12 0h0c3.633 2.422 8.367 2.422 12 0h0" transform="translate(-72 -612) translate(72 613) translate(5 480)"/>
                        <path d="M92 0c3.633 2.422 8.367 2.422 12 0h0c3.633 2.422 8.367 2.422 12 0h0" transform="translate(-72 -612) translate(72 613) translate(5 480)"/>
                        <path d="M115 0c3.633 2.422 8.367 2.422 12 0h0c3.633 2.422 8.367 2.422 12 0h0" transform="translate(-72 -612) translate(72 613) translate(5 480)"/>
                        <path d="M138 0c3.633 2.422 8.367 2.422 12 0h0c3.633 2.422 8.367 2.422 12 0h0" transform="translate(-72 -612) translate(72 613) translate(5 480)"/>
                        <path d="M161 0c3.633 2.422 8.367 2.422 12 0h0c3.633 2.422 8.367 2.422 12 0h0" transform="translate(-72 -612) translate(72 613) translate(5 480)"/>
                        <path d="M184 0c3.633 2.422 8.367 2.422 12 0h0c3.633 2.422 8.367 2.422 12 0h0" transform="translate(-72 -612) translate(72 613) translate(5 480)"/>
                        <path d="M207 0c3.633 2.422 8.367 2.422 12 0h0c3.633 2.422 8.367 2.422 12 0h0" transform="translate(-72 -612) translate(72 613) translate(5 480)"/>
                    </g>
                    <g stroke="#0F0F10">
                        <path d="M0 0c3.633 2.422 8.367 2.422 12 0h0c3.633 2.422 8.367 2.422 12 0h0" transform="translate(-72 -612) translate(72 613) translate(5 492)"/>
                        <path d="M23 0c3.633 2.422 8.367 2.422 12 0h0c3.633 2.422 8.367 2.422 12 0h0" transform="translate(-72 -612) translate(72 613) translate(5 492)"/>
                        <path d="M46 0c3.633 2.422 8.367 2.422 12 0h0c3.633 2.422 8.367 2.422 12 0h0" transform="translate(-72 -612) translate(72 613) translate(5 492)"/>
                        <path d="M69 0c3.633 2.422 8.367 2.422 12 0h0c3.633 2.422 8.367 2.422 12 0h0" transform="translate(-72 -612) translate(72 613) translate(5 492)"/>
                        <path d="M92 0c3.633 2.422 8.367 2.422 12 0h0c3.633 2.422 8.367 2.422 12 0h0" transform="translate(-72 -612) translate(72 613) translate(5 492)"/>
                        <path d="M115 0c3.633 2.422 8.367 2.422 12 0h0c3.633 2.422 8.367 2.422 12 0h0" transform="translate(-72 -612) translate(72 613) translate(5 492)"/>
                        <path d="M138 0c3.633 2.422 8.367 2.422 12 0h0c3.633 2.422 8.367 2.422 12 0h0" transform="translate(-72 -612) translate(72 613) translate(5 492)"/>
                        <path d="M161 0c3.633 2.422 8.367 2.422 12 0h0c3.633 2.422 8.367 2.422 12 0h0" transform="translate(-72 -612) translate(72 613) translate(5 492)"/>
                        <path d="M184 0c3.633 2.422 8.367 2.422 12 0h0c3.633 2.422 8.367 2.422 12 0h0" transform="translate(-72 -612) translate(72 613) translate(5 492)"/>
                        <path d="M207 0c3.633 2.422 8.367 2.422 12 0h0c3.633 2.422 8.367 2.422 12 0h0" transform="translate(-72 -612) translate(72 613) translate(5 492)"/>
                    </g>
                    <g stroke="#0F0F10">
                        <path d="M0 0c3.633 2.422 8.367 2.422 12 0h0c3.633 2.422 8.367 2.422 12 0h0" transform="translate(-72 -612) translate(72 613) translate(5 504)"/>
                        <path d="M23 0c3.633 2.422 8.367 2.422 12 0h0c3.633 2.422 8.367 2.422 12 0h0" transform="translate(-72 -612) translate(72 613) translate(5 504)"/>
                        <path d="M46 0c3.633 2.422 8.367 2.422 12 0h0c3.633 2.422 8.367 2.422 12 0h0" transform="translate(-72 -612) translate(72 613) translate(5 504)"/>
                        <path d="M69 0c3.633 2.422 8.367 2.422 12 0h0c3.633 2.422 8.367 2.422 12 0h0" transform="translate(-72 -612) translate(72 613) translate(5 504)"/>
                        <path d="M92 0c3.633 2.422 8.367 2.422 12 0h0c3.633 2.422 8.367 2.422 12 0h0" transform="translate(-72 -612) translate(72 613) translate(5 504)"/>
                        <path d="M115 0c3.633 2.422 8.367 2.422 12 0h0c3.633 2.422 8.367 2.422 12 0h0" transform="translate(-72 -612) translate(72 613) translate(5 504)"/>
                        <path d="M138 0c3.633 2.422 8.367 2.422 12 0h0c3.633 2.422 8.367 2.422 12 0h0" transform="translate(-72 -612) translate(72 613) translate(5 504)"/>
                        <path d="M161 0c3.633 2.422 8.367 2.422 12 0h0c3.633 2.422 8.367 2.422 12 0h0" transform="translate(-72 -612) translate(72 613) translate(5 504)"/>
                        <path d="M184 0c3.633 2.422 8.367 2.422 12 0h0c3.633 2.422 8.367 2.422 12 0h0" transform="translate(-72 -612) translate(72 613) translate(5 504)"/>
                        <path d="M207 0c3.633 2.422 8.367 2.422 12 0h0c3.633 2.422 8.367 2.422 12 0h0" transform="translate(-72 -612) translate(72 613) translate(5 504)"/>
                    </g>
                    <g stroke="#0F0F10">
                        <path d="M0 0c3.633 2.422 8.367 2.422 12 0h0c3.633 2.422 8.367 2.422 12 0h0" transform="translate(-72 -612) translate(72 613) translate(5 516)"/>
                        <path d="M23 0c3.633 2.422 8.367 2.422 12 0h0c3.633 2.422 8.367 2.422 12 0h0" transform="translate(-72 -612) translate(72 613) translate(5 516)"/>
                        <path d="M46 0c3.633 2.422 8.367 2.422 12 0h0c3.633 2.422 8.367 2.422 12 0h0" transform="translate(-72 -612) translate(72 613) translate(5 516)"/>
                        <path d="M69 0c3.633 2.422 8.367 2.422 12 0h0c3.633 2.422 8.367 2.422 12 0h0" transform="translate(-72 -612) translate(72 613) translate(5 516)"/>
                        <path d="M92 0c3.633 2.422 8.367 2.422 12 0h0c3.633 2.422 8.367 2.422 12 0h0" transform="translate(-72 -612) translate(72 613) translate(5 516)"/>
                        <path d="M115 0c3.633 2.422 8.367 2.422 12 0h0c3.633 2.422 8.367 2.422 12 0h0" transform="translate(-72 -612) translate(72 613) translate(5 516)"/>
                        <path d="M138 0c3.633 2.422 8.367 2.422 12 0h0c3.633 2.422 8.367 2.422 12 0h0" transform="translate(-72 -612) translate(72 613) translate(5 516)"/>
                        <path d="M161 0c3.633 2.422 8.367 2.422 12 0h0c3.633 2.422 8.367 2.422 12 0h0" transform="translate(-72 -612) translate(72 613) translate(5 516)"/>
                        <path d="M184 0c3.633 2.422 8.367 2.422 12 0h0c3.633 2.422 8.367 2.422 12 0h0" transform="translate(-72 -612) translate(72 613) translate(5 516)"/>
                        <path d="M207 0c3.633 2.422 8.367 2.422 12 0h0c3.633 2.422 8.367 2.422 12 0h0" transform="translate(-72 -612) translate(72 613) translate(5 516)"/>
                    </g>
                    <g stroke="#0F0F10">
                        <path d="M0 0c3.633 2.422 8.367 2.422 12 0h0c3.633 2.422 8.367 2.422 12 0h0" transform="translate(-72 -612) translate(72 613) translate(5 528)"/>
                        <path d="M23 0c3.633 2.422 8.367 2.422 12 0h0c3.633 2.422 8.367 2.422 12 0h0" transform="translate(-72 -612) translate(72 613) translate(5 528)"/>
                        <path d="M46 0c3.633 2.422 8.367 2.422 12 0h0c3.633 2.422 8.367 2.422 12 0h0" transform="translate(-72 -612) translate(72 613) translate(5 528)"/>
                        <path d="M69 0c3.633 2.422 8.367 2.422 12 0h0c3.633 2.422 8.367 2.422 12 0h0" transform="translate(-72 -612) translate(72 613) translate(5 528)"/>
                        <path d="M92 0c3.633 2.422 8.367 2.422 12 0h0c3.633 2.422 8.367 2.422 12 0h0" transform="translate(-72 -612) translate(72 613) translate(5 528)"/>
                        <path d="M115 0c3.633 2.422 8.367 2.422 12 0h0c3.633 2.422 8.367 2.422 12 0h0" transform="translate(-72 -612) translate(72 613) translate(5 528)"/>
                        <path d="M138 0c3.633 2.422 8.367 2.422 12 0h0c3.633 2.422 8.367 2.422 12 0h0" transform="translate(-72 -612) translate(72 613) translate(5 528)"/>
                        <path d="M161 0c3.633 2.422 8.367 2.422 12 0h0c3.633 2.422 8.367 2.422 12 0h0" transform="translate(-72 -612) translate(72 613) translate(5 528)"/>
                        <path d="M184 0c3.633 2.422 8.367 2.422 12 0h0c3.633 2.422 8.367 2.422 12 0h0" transform="translate(-72 -612) translate(72 613) translate(5 528)"/>
                        <path d="M207 0c3.633 2.422 8.367 2.422 12 0h0c3.633 2.422 8.367 2.422 12 0h0" transform="translate(-72 -612) translate(72 613) translate(5 528)"/>
                    </g>
                    <g fill="#F5F5F5" stroke="#0F0F10">
                        <path d="M0 0c3.633 2.422 8.367 2.422 12 0h0c3.633 2.422 8.367 2.422 12 0h0" transform="translate(-72 -612) translate(72 613) translate(5 540)"/>
                        <path d="M23 0c3.633 2.422 8.367 2.422 12 0h0c3.633 2.422 8.367 2.422 12 0h0" transform="translate(-72 -612) translate(72 613) translate(5 540)"/>
                        <path d="M46 0c3.633 2.422 8.367 2.422 12 0h0c3.633 2.422 8.367 2.422 12 0h0" transform="translate(-72 -612) translate(72 613) translate(5 540)"/>
                        <path d="M69 0c3.633 2.422 8.367 2.422 12 0h0c3.633 2.422 8.367 2.422 12 0h0" transform="translate(-72 -612) translate(72 613) translate(5 540)"/>
                        <path d="M92 0c3.633 2.422 8.367 2.422 12 0h0c3.633 2.422 8.367 2.422 12 0h0" transform="translate(-72 -612) translate(72 613) translate(5 540)"/>
                        <path d="M115 0c3.633 2.422 8.367 2.422 12 0h0c3.633 2.422 8.367 2.422 12 0h0" transform="translate(-72 -612) translate(72 613) translate(5 540)"/>
                        <path d="M138 0c3.633 2.422 8.367 2.422 12 0h0c3.633 2.422 8.367 2.422 12 0h0" transform="translate(-72 -612) translate(72 613) translate(5 540)"/>
                        <path d="M161 0c3.633 2.422 8.367 2.422 12 0h0c3.633 2.422 8.367 2.422 12 0h0" transform="translate(-72 -612) translate(72 613) translate(5 540)"/>
                        <path d="M184 0c3.633 2.422 8.367 2.422 12 0h0c3.633 2.422 8.367 2.422 12 0h0" transform="translate(-72 -612) translate(72 613) translate(5 540)"/>
                        <path d="M207 0c3.633 2.422 8.367 2.422 12 0h0c3.633 2.422 8.367 2.422 12 0h0" transform="translate(-72 -612) translate(72 613) translate(5 540)"/>
                    </g>
                    <g stroke="#0F0F10">
                        <path d="M0 0c3.633 2.422 8.367 2.422 12 0h0c3.633 2.422 8.367 2.422 12 0h0" transform="translate(-72 -612) translate(72 613) translate(5 552)"/>
                        <path d="M23 0c3.633 2.422 8.367 2.422 12 0h0c3.633 2.422 8.367 2.422 12 0h0" transform="translate(-72 -612) translate(72 613) translate(5 552)"/>
                        <path d="M46 0c3.633 2.422 8.367 2.422 12 0h0c3.633 2.422 8.367 2.422 12 0h0" transform="translate(-72 -612) translate(72 613) translate(5 552)"/>
                        <path d="M69 0c3.633 2.422 8.367 2.422 12 0h0c3.633 2.422 8.367 2.422 12 0h0" transform="translate(-72 -612) translate(72 613) translate(5 552)"/>
                        <path d="M92 0c3.633 2.422 8.367 2.422 12 0h0c3.633 2.422 8.367 2.422 12 0h0" transform="translate(-72 -612) translate(72 613) translate(5 552)"/>
                        <path d="M115 0c3.633 2.422 8.367 2.422 12 0h0c3.633 2.422 8.367 2.422 12 0h0" transform="translate(-72 -612) translate(72 613) translate(5 552)"/>
                        <path d="M138 0c3.633 2.422 8.367 2.422 12 0h0c3.633 2.422 8.367 2.422 12 0h0" transform="translate(-72 -612) translate(72 613) translate(5 552)"/>
                        <path d="M161 0c3.633 2.422 8.367 2.422 12 0h0c3.633 2.422 8.367 2.422 12 0h0" transform="translate(-72 -612) translate(72 613) translate(5 552)"/>
                        <path d="M184 0c3.633 2.422 8.367 2.422 12 0h0c3.633 2.422 8.367 2.422 12 0h0" transform="translate(-72 -612) translate(72 613) translate(5 552)"/>
                        <path d="M207 0c3.633 2.422 8.367 2.422 12 0h0c3.633 2.422 8.367 2.422 12 0h0" transform="translate(-72 -612) translate(72 613) translate(5 552)"/>
                    </g>
                    <g stroke="#0F0F10">
                        <path d="M0 0c3.633 2.422 8.367 2.422 12 0h0c3.633 2.422 8.367 2.422 12 0h0" transform="translate(-72 -612) translate(72 613) translate(5 564)"/>
                        <path d="M23 0c3.633 2.422 8.367 2.422 12 0h0c3.633 2.422 8.367 2.422 12 0h0" transform="translate(-72 -612) translate(72 613) translate(5 564)"/>
                        <path d="M46 0c3.633 2.422 8.367 2.422 12 0h0c3.633 2.422 8.367 2.422 12 0h0" transform="translate(-72 -612) translate(72 613) translate(5 564)"/>
                        <path d="M69 0c3.633 2.422 8.367 2.422 12 0h0c3.633 2.422 8.367 2.422 12 0h0" transform="translate(-72 -612) translate(72 613) translate(5 564)"/>
                        <path d="M92 0c3.633 2.422 8.367 2.422 12 0h0c3.633 2.422 8.367 2.422 12 0h0" transform="translate(-72 -612) translate(72 613) translate(5 564)"/>
                        <path d="M115 0c3.633 2.422 8.367 2.422 12 0h0c3.633 2.422 8.367 2.422 12 0h0" transform="translate(-72 -612) translate(72 613) translate(5 564)"/>
                        <path d="M138 0c3.633 2.422 8.367 2.422 12 0h0c3.633 2.422 8.367 2.422 12 0h0" transform="translate(-72 -612) translate(72 613) translate(5 564)"/>
                        <path d="M161 0c3.633 2.422 8.367 2.422 12 0h0c3.633 2.422 8.367 2.422 12 0h0" transform="translate(-72 -612) translate(72 613) translate(5 564)"/>
                        <path d="M184 0c3.633 2.422 8.367 2.422 12 0h0c3.633 2.422 8.367 2.422 12 0h0" transform="translate(-72 -612) translate(72 613) translate(5 564)"/>
                        <path d="M207 0c3.633 2.422 8.367 2.422 12 0h0c3.633 2.422 8.367 2.422 12 0h0" transform="translate(-72 -612) translate(72 613) translate(5 564)"/>
                    </g>
                </g>
                <g>
                    <g transform="translate(-72 -612) translate(72 613) translate(48 20) translate(0 280)">
                        <path fill="#F5F5F5" stroke="#0F0F10" d="M144 240V64c0-17.673-32.235-32-72-32S0 46.327 0 64v176" transform="matrix(1 0 0 -1 0 272)"/>
                        <g stroke="#0F0F10" transform="translate(64 120)">
                            <circle cx="2" cy="18" r="2"/>
                            <circle cx="10" cy="2" r="2"/>
                            <circle cx="10" cy="26" r="2"/>
                            <circle cx="20" cy="36" r="4"/>
                            <circle cx="5" cy="56" r="2"/>
                        </g>
                        <g>
                            <g transform="translate(45 219) translate(0 .408)">
                                <mask id="nbhwr0ep7b" fill="#fff">
                                    <use xlink:href="#7qjbkwvrwa"/>
                                </mask>
                                <path fill="#0F0F10" d="M7.2 9.553c0 1.89-1.487 3.27-3.53 2.965C1.726 12.23.049 10.796 0 8.756l1.393.207c.079 1.1 1.044 1.996 2.278 2.18 1.219.18 2.105-.6 2.105-1.833 0-1.329-.902-2.23-2.326-2.443l-1.044-.155V5.416l2.42-2.634v-.16L.428 1.97V.592l6.25.928v1.313l-2.5 2.702v.144C5.982 6.107 7.2 7.52 7.2 9.553" mask="url(#nbhwr0ep7b)"/>
                            </g>
                            <path fill="#0F0F10" d="M15.556 9.925c.016-.64.032-1.582 0-3.041-.016-1.698-.845-2.983-2.424-3.115-1.546-.13-2.39.969-2.423 2.71-.016.96-.016 2.097 0 3.043.032 1.747.877 2.986 2.423 3.114 1.58.132 2.408-1.015 2.424-2.711m1.42-2.955c.015 1.026.015 2.082 0 3.105-.033 2.463-1.452 4.137-3.844 3.938-2.408-.2-3.81-2.142-3.843-4.577-.015-.946-.015-2.131 0-3.106.033-2.462 1.452-4.136 3.843-3.938 2.392.2 3.811 2.11 3.843 4.578" transform="translate(45 219)"/>
                            <g transform="translate(45 219) translate(22 2.408)">
                                <mask id="53lavre4zd" fill="#fff">
                                    <use xlink:href="#3uy1t3yp4c"/>
                                </mask>
                                <path fill="#0F0F10" d="M2.79 8.588l4.146-.032-1.729-6.485-.688.005-1.728 6.512zM7.305 9.93l-4.882.037-.528 2.021L.359 12 3.462.708 6.296.686l3.09 11.245-1.537.011-.543-2.012z" mask="url(#53lavre4zd)"/>
                            </g>
                            <path fill="#0F0F10" d="M39.472 4.014L36.133 4.199 36.133 14.091 34.711 14.17 34.711 4.278 31.452 4.458 31.452 3.082 39.472 2.638z" transform="translate(45 219)"/>
                            <g transform="translate(45 219) translate(41 .408)">
                                <mask id="3gtxw2pg7f" fill="#fff">
                                    <use xlink:href="#5d1ztb5v3e"/>
                                </mask>
                                <path fill="#0F0F10" d="M3.245 1.736L5.832 8.47 6.054 8.441 8.625 1.028 11.323 0.672 11.323 11.941 9.91 12.127 9.91 2.074 9.672 2.106 7.054 9.622 4.848 9.912 2.198 3.09 1.96 3.122 1.96 13.174 0.563 13.358 0.563 2.09z" mask="url(#3gtxw2pg7f)"/>
                            </g>
                        </g>
                        <ellipse cx="72" cy="32" fill="#F5F5F5" stroke="#0F0F10" rx="72" ry="32"/>
                    </g>
                    <g transform="translate(-72 -612) translate(72 613) translate(48 20) translate(0 108)">
                        <path fill="#F5F5F5" stroke="#0F0F10" d="M144 236V64c0-17.673-32.235-32-72-32S0 46.327 0 64v172" transform="matrix(1 0 0 -1 0 268)"/>
                        <g>
                            <g transform="translate(45 215) translate(0 .325)">
                                <mask id="q6qtslvx8h" fill="#fff">
                                    <use xlink:href="#f53x9n41ag"/>
                                </mask>
                                <path fill="#0F0F10" d="M7.042 11.488v1.376l-7.01-1.041v-1.296l3.83-3.433C4.668 6.35 5.38 5.703 5.38 4.406c0-1.088-.76-1.97-1.882-2.136-1.188-.176-1.995.408-2.122 1.542L0 3.608C.142 1.724 1.55.605 3.529.898c2.01.299 3.276 1.895 3.276 3.72 0 1.793-1.108 2.749-1.994 3.546l-2.707 2.415v.176l4.938.733z" mask="url(#q6qtslvx8h)"/>
                            </g>
                            <path fill="#0F0F10" d="M15.386 9.838c.016-.639.032-1.582 0-3.04-.016-1.699-.845-2.984-2.424-3.116-1.546-.129-2.39.97-2.423 2.711-.016.96-.016 2.096 0 3.042.032 1.747.877 2.986 2.423 3.114 1.58.132 2.408-1.015 2.424-2.71m1.42-2.956c.015 1.026.015 2.082 0 3.105-.033 2.463-1.452 4.137-3.844 3.938-2.408-.2-3.81-2.142-3.843-4.577-.015-.946-.015-2.13 0-3.106.033-2.462 1.452-4.136 3.843-3.938 2.392.2 3.811 2.111 3.843 4.578" transform="translate(45 215)"/>
                            <g transform="translate(45 215) translate(22 2.325)">
                                <mask id="1knezfcxhj" fill="#fff">
                                    <use xlink:href="#bdhyody3fi"/>
                                </mask>
                                <path fill="#0F0F10" d="M2.62 8.588l4.145-.032-1.729-6.485-.688.005L2.62 8.588zM7.132 9.93l-4.882.037-.528 2.021L.186 12 3.291.708 6.124.686l3.09 11.245-1.537.011-.544-2.012z" mask="url(#1knezfcxhj)"/>
                            </g>
                            <path fill="#0F0F10" d="M39.33 3.931L35.991 4.116 35.991 14.008 34.569 14.087 34.569 4.195 31.31 4.375 31.31 2.999 39.33 2.555z" transform="translate(45 215)"/>
                            <g transform="translate(45 215) translate(41 .325)">
                                <mask id="kuf6t2fg1l" fill="#fff">
                                    <use xlink:href="#wltwrocg2k"/>
                                </mask>
                                <path fill="#0F0F10" d="M3.076 1.739L5.663 8.473 5.885 8.444 8.456 1.031 11.154 0.675 11.154 11.944 9.741 12.13 9.741 2.077 9.503 2.109 6.885 9.625 4.679 9.915 2.029 3.093 1.791 3.125 1.791 13.177 0.394 13.361 0.394 2.093z" mask="url(#kuf6t2fg1l)"/>
                            </g>
                        </g>
                        <ellipse cx="72" cy="32" fill="#F5F5F5" stroke="#0F0F10" rx="72" ry="32"/>
                    </g>
                    <g transform="translate(-72 -612) translate(72 613) translate(48 20) translate(0 48)">
                        <path fill="#F5F5F5" stroke="#0F0F10" d="M144 124V64c0-17.673-32.235-32-72-32S0 46.327 0 64v60" transform="matrix(1 0 0 -1 0 156)"/>
                        <g>
                            <path fill="#0F0F10" d="M0 2.778L0 4.283 2.596 3.017 2.801 3.047 2.801 12.507 4.209 12.715 4.209 1.447 2.943 1.26z" transform="translate(46 104)"/>
                            <g>
                                <path fill="#0F0F10" d="M6.46 9.435c.016-.64.032-1.582 0-3.041-.016-1.698-.845-2.99-2.42-3.131-1.547-.14-2.39.953-2.423 2.695-.016.959-.016 2.095 0 3.04.032 1.749.876 2.993 2.422 3.132 1.576.142 2.405-1 2.421-2.695M7.877 6.49c.017 1.026.017 2.082 0 3.105-.03 2.462-1.449 4.127-3.838 3.912C1.633 13.29.231 11.339.2 8.903c-.016-.946-.016-2.13 0-3.105.032-2.462 1.45-4.127 3.84-3.912C6.43 2.1 7.846 4.02 7.877 6.49" transform="translate(46 104) translate(7 .149)"/>
                                <g transform="translate(46 104) translate(7 .149) translate(13 2)">
                                    <mask id="ak308dxcxn" fill="#fff">
                                        <use xlink:href="#lpu10f09bm"/>
                                    </mask>
                                    <path fill="#0F0F10" d="M2.667 8.556l4.147.032-1.73-6.512-.688-.005-1.728 6.485zm4.514 1.411L2.3 9.93l-.528 2.013-1.538-.012L3.34.686l2.833.022L9.262 12l-1.537-.012-.545-2.02z" mask="url(#ak308dxcxn)"/>
                                </g>
                                <path fill="#0F0F10" d="M30.379 3.685L27.04 3.848 27.04 13.74 25.618 13.809 25.618 3.917 22.359 4.076 22.359 2.699 30.379 2.309zM35.133 1.853L37.722 8.607 37.945 8.58 40.518 1.186 43.218.851 43.218 12.12 41.804 12.295 41.804 2.243 41.566 2.272 38.945 9.768 36.737 10.041 34.085 3.199 33.846 3.229 33.846 13.281 32.448 13.454 32.448 2.186z" transform="translate(46 104) translate(7 .149)"/>
                            </g>
                        </g>
                        <ellipse cx="72" cy="32" fill="#F5F5F5" stroke="#0F0F10" rx="72" ry="32"/>
                    </g>
                    <g transform="translate(-72 -612) translate(72 613) translate(48 20) translate(0 24)">
                        <path fill="#F5F5F5" stroke="#0F0F10" d="M144 88V64c0-17.673-32.235-32-72-32S0 46.327 0 64v24" transform="matrix(1 0 0 -1 0 120)"/>
                        <g>
                            <g transform="translate(50 68) translate(0 .618)">
                                <mask id="syuxvs5k3p" fill="#fff">
                                    <use xlink:href="#09zuknzhbo"/>
                                </mask>
                                <path fill="#0F0F10" d="M7.298 8.818c0 2.21-1.558 3.553-3.641 3.317-2.13-.24-3.53-1.744-3.657-3.359l1.43.162c.112.781.875 1.668 2.21 1.82 1.384.155 2.227-.71 2.227-2.102 0-1.377-.986-2.337-2.194-2.474-.938-.106-1.606.187-2.1.82L.16 6.841l.97-6.438 5.438.616v1.377L2.21 1.903l-.525 3.318.175.02c.493-.312 1.177-.49 2.05-.392 1.782.201 3.388 1.776 3.388 3.97" mask="url(#syuxvs5k3p)"/>
                            </g>
                            <path fill="#0F0F10" d="M14.9 10.049l4.143.11-1.727-6.544-.688-.02L14.9 10.05zm4.51 1.497l-4.877-.13-.528 2.003-1.535-.041 3.103-11.186 2.83.075 3.086 11.35-1.535-.04-.543-2.031zM29.581 3.518L26.239 3.601 26.239 13.493 24.816 13.528 24.816 3.636 21.554 3.717 21.554 2.341 29.581 2.142z" transform="translate(50 68)"/>
                            <g transform="translate(50 68) translate(31 .618)">
                                <mask id="cf1mgvn6mr" fill="#fff">
                                    <use xlink:href="#lg6kschbqq"/>
                                </mask>
                                <path fill="#0F0F10" d="M3.361 1.182L5.958 8.001 6.181 7.979 8.761 0.649 11.469 0.382 11.469 11.651 10.051 11.79 10.051 1.739 9.813 1.762 7.184 9.192 4.97 9.411 2.31 2.502 2.07 2.526 2.07 12.578 0.669 12.716 0.669 1.448z" mask="url(#cf1mgvn6mr)"/>
                            </g>
                        </g>
                        <ellipse cx="72" cy="32" fill="#F5F5F5" stroke="#0F0F10" rx="72" ry="32"/>
                    </g>
                    <g transform="translate(-72 -612) translate(72 613) translate(48 20)">
                        <path fill="#F5F5F5" stroke="#0F0F10" d="M144 88V64c0-17.673-32.235-32-72-32S0 46.327 0 64v24" transform="matrix(1 0 0 -1 0 120)"/>
                        <g>
                            <path fill="#0F0F10" d="M7.075 10.582v1.377l-7.043-.798V9.865L3.88 6.299c.811-.773 1.527-1.444 1.527-2.74 0-1.089-.764-1.944-1.893-2.072-1.192-.134-2.003.478-2.13 1.616L0 2.946C.143 1.058 1.558-.111 3.545.114c2.02.229 3.291 1.781 3.291 3.607 0 1.792-1.113 2.787-2.003 3.614L2.114 9.844v.176l4.961.562z" transform="translate(50 69)"/>
                            <g transform="translate(50 69) translate(12 .604)">
                                <mask id="c9xff7lubt" fill="#fff">
                                    <use xlink:href="#7vt8g7vpas"/>
                                </mask>
                                <path fill="#0F0F10" d="M2.683 8.424l4.142.115-1.727-6.547-.688-.019-1.727 6.451zm4.51 1.501L2.315 9.79l-.528 2.003-1.535-.043L3.355.568l2.83.078L9.271 12l-1.535-.043-.543-2.032z" mask="url(#c9xff7lubt)"/>
                            </g>
                            <path fill="#0F0F10" d="M29.392 2.501L26.05 2.583 26.05 12.476 24.627 12.511 24.627 2.619 21.365 2.7 21.365 1.323 29.392 1.125zM34.148.792L36.745 7.613 36.967 7.592 39.547.265 42.255 0 42.255 11.269 40.837 11.407 40.837 1.355 40.599 1.378 37.971 8.806 35.757 9.022 33.096 2.111 32.856 2.135 32.856 12.187 31.456 12.324 31.456 1.055z" transform="translate(50 69)"/>
                        </g>
                        <ellipse cx="72" cy="32" fill="#F5F5F5" stroke="#0F0F10" rx="72" ry="32"/>
                    </g>
                </g>
            </g>
        </g>
    </g>
</svg>
