<svg xmlns="http://www.w3.org/2000/svg" width="32" height="32" viewBox="0 0 32 32">
    <g fill="none" fill-rule="evenodd">
        <path fill="#0F0F10" fill-rule="nonzero" d="M8.345 28.11c1.07 0 1.8-.95 1.8-2.31 0-1.37-.74-2.24-1.66-2.24-.46 0-.77.15-.99.39h-.09l.26-2.25h2.13v-.74h-2.72l-.47 4.07h.75c.22-.41.51-.73.99-.73.61 0 1.03.59 1.03 1.49 0 .91-.35 1.58-1.04 1.58-.66 0-.99-.57-1.03-1.07h-.78c.06.95.71 1.81 1.82 1.81zm5.85 0c.48 0 .8-.17 1.03-.54h.08V28h.66v-3.56c0-1-.58-1.57-1.45-1.57-.93 0-1.44.51-1.55 1.4h.72c.06-.52.34-.71.79-.71.47 0 .75.29.75.91V25h-.82c-1.08 0-1.58.62-1.58 1.54 0 1.07.51 1.57 1.37 1.57zm.16-.69c-.54 0-.78-.24-.78-.87 0-.6.3-.88.87-.88h.78v.56c0 .79-.32 1.19-.87 1.19zm4.59.58v-.72h-.32c-.45 0-.57-.37-.57-.83v-2.77h.89v-.7h-.89v-1.34h-.74v1.34h-.63v.7h.63v2.83c0 1.01.43 1.49 1.19 1.49h.44zm1.67 0v-3.13c0-.87.36-1.26.87-1.26.7 0 .78.72.78 1.25V28h.74v-3.13c0-.87.36-1.26.87-1.26.64 0 .79.57.79 1.25V28h.73v-3.31c0-1.25-.6-1.82-1.39-1.82-.62 0-.97.34-1.21.7h-.07c-.21-.45-.53-.7-1.06-.7-.48 0-.83.27-1.02.58h-.09v-.47h-.68V28h.74z"/>
        <path stroke="#0F0F10" d="M5.128.5h21.744c1.642 0 2.244.153 2.846.475.563.301 1.006.744 1.307 1.307.322.602.475 1.204.475 2.846h0v21.744c0 1.642-.153 2.244-.475 2.846-.301.563-.744 1.006-1.307 1.307-.602.322-1.204.475-2.846.475h0H5.128c-1.642 0-2.244-.153-2.846-.475-.563-.301-1.006-.744-1.307-1.307C.653 29.116.5 28.514.5 26.872h0V5.128c0-1.642.153-2.244.475-2.846.301-.563.744-1.006 1.307-1.307C2.884.653 3.486.5 5.128.5h0z"/>
        <path stroke="#0F0F10" d="M4 4c3.633 2.422 8.367 2.422 12 0h0c3.633 2.422 8.367 2.422 12 0h0"/>
        <path stroke="#0F0F10" stroke-width="2" d="M4 8c3.633 2.422 8.367 2.422 12 0h0c3.633 2.422 8.367 2.422 12 0h0"/>
        <path stroke="#0F0F10" stroke-width="3" d="M4 14c3.633 2.422 8.367 2.422 12 0h0c3.633 2.422 8.367 2.422 12 0h0"/>
    </g>
</svg>
