<svg xmlns="http://www.w3.org/2000/svg" viewBox="0 0 201 61">
<path d="M103.19 21.1V5.3a8.29 8.29 0 0 1 7 7.9c0 3.8-3 7-7 7.9m-3.93 0c-4-.9-7-4.1-7-7.9a8.29 8.29 0 0 1 7-7.9v15.8zm3.93-17.6V0h-3.93v3.5c-6.22.8-11 4.8-11 9.7s4.77 8.9 11 9.6v3.5h3.93v-3.5c6.22-.7 11-4.8 11-9.6s-4.77-8.9-11-9.7m-66 45.7a3.28 3.28 0 0 1-2.6-1 2.45 2.45 0 0 1-.68-2v-9.1H31.5v9.3c0 2.7 2.23 4.5 5.68 4.5s5.7-1.9 5.7-4.6v-9.2h-2.4v9.2c0 1.9-1.2 2.9-3.3 2.9M48 37.1v13.6h2.16V40.3L55 46l4.72-5.7v10.4h2.16V37.1h-1.97L55 43l-5-5.9zM6.54 49H2.29v-4.3h4.25c1.66 0 2.73.8 2.73 2.1S8.2 49 6.54 49M2.29 38.8h4C8 38.8 9 39.6 9 40.9S8 43 6.31 43h-4v-4.2zm6.89 5l-.25-.1h.25a3.14 3.14 0 0 0 2.11-2.9c0-2.3-1.83-3.7-4.77-3.7H0v13.6h6.77c2.94 0 4.77-1.4 4.77-3.8a3.39 3.39 0 0 0-2.35-3.1m9.7 1.2l1.68-5.9h1.56L23.8 45h-4.91zm.21-7.9l-4.22 13.6h2.37l1.15-4h5.87l1.15 4h2.37l-4.17-13.6H19.1zm50.16 7.6H76V43h-6.7v-4.1h7.85v-1.8H67v13.6h10.1V49h-7.84v-4.3zm39-1.7l-4.9-5.9h-2v13.6h2.17V40.3l4.77 5.7 4.72-5.7v10.4h2.16V37.1h-1.88l-4.95 5.9h-.08zm29.71.3v-4.5h3.79c1.72 0 2.83.9 2.83 2.3s-1.11 2.2-2.83 2.2zm5.73 1.3a3.6 3.6 0 0 0 3.15-3.5c0-2.4-2-4-4.91-4h-6.14v13.6h2.2v-5.8h3.28v.1l3.37 5.7h2.63l-3.69-6zm23.18 6.1h2.4V37.1h-2.4zm24.59-7.4v-4.5h3.79c1.71 0 2.82.9 2.82 2.3s-1.11 2.2-2.82 2.2zm5.61 1.4l.12-.1a3.59 3.59 0 0 0 3.14-3.5c0-2.4-2-4-4.9-4h-6.14v13.6h2.18v-5.8h3.28v.1l3.37 5.7h2.63zm-74 0h6.69V43h-6.69v-4.1h7.84v-1.8h-10.1v13.6h10.1V49h-7.84zm53.79 0h6.7V43h-6.7v-4.1h7.85v-1.8h-10.1v13.6h10.1V49h-7.85zM160.06 41h2.33c-.58-2.5-2.7-4.1-5.7-4.1a6.24 6.24 0 0 0-4.23 1.5c-1.55 1.3-1.55 2.8-1.55 5.4v.1c0 2.7 0 4.2 1.58 5.6a6.16 6.16 0 0 0 4.2 1.5c3 0 5.14-1.6 5.7-4.2h-2.31a3.14 3.14 0 0 1-3.32 2.4 3.73 3.73 0 0 1-2.54-.9c-.84-.8-1-1.5-1-4.4s.19-3.6 1-4.4a3.92 3.92 0 0 1 2.47-.9 3.31 3.31 0 0 1 3.37 2.4m-69.39 7.2a4.23 4.23 0 0 1-2.8 1 2.47 2.47 0 0 1-2.68-2.2v-.17c0-1.2.82-1.8 2-2.6h.06l3.52 3.9zm-2.58-9.4a1.42 1.42 0 0 1 1.52 1.32v.08a2 2 0 0 1-1.09 1.5q-.33.22-.68.4l-.07.1v-.1a3 3 0 0 1-1.13-1.9A1.39 1.39 0 0 1 88 38.79h.12M93.18 48a5.83 5.83 0 0 0 1.4-4h-1.79a4.4 4.4 0 0 1-.79 2.7l-.07.1-3.16-3.6h.08c.35-.2 1-.7 1-.7a2.75 2.75 0 0 0 1.49-2.3c0-1.7-1.36-2.9-3.31-2.9s-3.41 1.1-3.41 2.9a4.33 4.33 0 0 0 1.52 2.8l.08.1-.1.1c-1.35.8-2.79 1.8-2.79 3.7 0 2.4 1.7 3.9 4.54 3.9a6.09 6.09 0 0 0 3.91-1.4l.06-.1L93 50.7h2.4l-2.32-2.6zm-89 12.9v-3.8l-1.31 2.8h-.64L.87 57.1v3.8H0v-5.6h.87l1.68 3.5 1.64-3.5h.87v5.6h-.87zm6.27-4.3l-.89 2.5h1.77zM12 60.9l-.4-1.1H9.31l-.4 1.1H8l2.1-5.6h.7l2.1 5.6H12zm3.86 0h.87v-5.6h-.87zm6 .1a2.49 2.49 0 0 1-2-.8l.58-.5a1.94 1.94 0 0 0 1.47.5 1 1 0 0 0 1.09-.9.59.59 0 0 0-.22-.5 1 1 0 0 0-.63-.3l-.68-.1a1.74 1.74 0 0 1-1.09-.4 1.6 1.6 0 0 1-.38-1.1 1.71 1.71 0 0 1 1.7-1.71h.22a2.27 2.27 0 0 1 1.78.7l-.55.5a1.83 1.83 0 0 0-1.25-.4.92.92 0 0 0-1 .79.93.93 0 0 0 0 .11.73.73 0 0 0 .22.5 1.17 1.17 0 0 0 .65.2l.65.1a1.57 1.57 0 0 1 1.07.5 1.24 1.24 0 0 1 .47 1.1c0 1.1-.86 1.7-2.06 1.7m8.06-4.7a1.36 1.36 0 0 0-1.71 0c-.28.3-.34.7-.34 1.8s.06 1.5.34 1.8a1.36 1.36 0 0 0 1.71 0c.28-.3.34-.7.34-1.8s-.06-1.5-.34-1.8m.66 4.1a2.2 2.2 0 0 1-3 0C27 59.8 27 59.2 27 58.1s0-1.7.56-2.3a2.2 2.2 0 0 1 3 0c.56.6.55 1.2.55 2.3s0 1.7-.55 2.3m7.48.5L35.39 57v3.9h-.87v-5.6h.8l2.65 4v-4h.87v5.6zm11.37-4.5a1.52 1.52 0 0 0-1-.4h-1.03v4.2h1.06a1.52 1.52 0 0 0 1-.4 4.86 4.86 0 0 0 0-3.4m.6 4a1.88 1.88 0 0 1-1.48.5h-2v-5.6h2a1.88 1.88 0 0 1 1.48.5 2.91 2.91 0 0 1 .58 2.3 3 3 0 0 1-.62 2.3m3.87-5.1v1.5l.9-.7v-.8zm7.6 5.6v-2.4h-2.32v2.4h-.87v-5.6h.87v2.4h2.33v-2.4h.87v5.6zm7.2-4.6a1.37 1.37 0 0 0-1.71 0c-.28.3-.34.7-.34 1.8s.06 1.5.34 1.8a1.37 1.37 0 0 0 1.71 0c.28-.3.34-.7.34-1.8s-.06-1.5-.34-1.8m.66 4.1a2.2 2.2 0 0 1-3 0c-.56-.6-.56-1.2-.56-2.3s0-1.7.56-2.3a2.2 2.2 0 0 1 3 0c.56.6.55 1.2.55 2.3s0 1.7-.55 2.3m6.12-4.4h-1.29v1.8h1.29a.86.86 0 0 0 1-.9.91.91 0 0 0-.92-.9h-.05m1 4.9l-1.21-2.4h-1.11v2.4h-.87v-5.6h2.22a1.63 1.63 0 0 1 1.77 1.46v.13a1.44 1.44 0 0 1-1.15 1.5l1.32 2.5h-1zm4.23 0v-5.6h.87v4.9h2.77v.7h-3.66zm9.21-4.6a1.35 1.35 0 0 0-1.7 0c-.29.3-.34.7-.34 1.8s0 1.5.34 1.8a1.35 1.35 0 0 0 1.7 0c.29-.3.34-.7.34-1.8s0-1.5-.34-1.8m.66 4.1a2.2 2.2 0 0 1-3 0c-.58-.6-.58-1.2-.58-2.3s0-1.7.55-2.3a2.2 2.2 0 0 1 3 0c.57.6.55 1.2.55 2.3s0 1.7-.55 2.3m7.39-.1a2 2 0 0 1-1.57.7 2 2 0 0 1-1.51-.6c-.57-.6-.56-1.2-.56-2.3s0-1.7.56-2.3a2.13 2.13 0 0 1 3.6 1.2h-.88a1.26 1.26 0 0 0-2-.7 4.8 4.8 0 0 0 0 3.6 1.19 1.19 0 0 0 .85.3 1.1 1.1 0 0 0 .93-.4 1.18 1.18 0 0 0 .29-.9v-.3h-1.27v-.7h2.09v.8a2 2 0 0 1-.52 1.6m3.92.6v-5.6h3.67v.7h-2.8v1.7h2.39v.8h-2.39v1.7h2.8v.7h-3.67zM111 56h-1.29v1.8H111a.86.86 0 0 0 1-.9.91.91 0 0 0-.91-.9H111m1 4.9l-1.21-2.4h-1.09v2.4h-.87v-5.6h2.22a1.62 1.62 0 0 1 1.77 1.46v.14a1.44 1.44 0 0 1-1.14 1.5l1.32 2.5zm4.23 0h.87v-5.6h-.87zm4.49 0v-5.6h3.66v.7h-2.78v1.7h2.4v.8h-2.4v1.7h2.79v.7h-3.66zm14.46-.6a2 2 0 0 1-1.58.7 2.06 2.06 0 0 1-1.51-.6c-.56-.6-.55-1.2-.55-2.3s0-1.7.55-2.3a2 2 0 0 1 1.51-.6 2 2 0 0 1 2.1 1.8h-.88a1.19 1.19 0 0 0-1.21-1 1.17 1.17 0 0 0-.84.3c-.29.3-.35.7-.35 1.8s.06 1.5.35 1.8a1.17 1.17 0 0 0 .84.3 1.1 1.1 0 0 0 .94-.4 1.18 1.18 0 0 0 .29-.9v-.3h-1.23v-.7h2.1v.8a2 2 0 0 1-.52 1.6m3.92.6v-5.6h3.66v.7H140v1.7h2.38v.8H140v1.7h2.79v.7h-3.66zm10.5 0L147 57v3.9h-.87v-5.6h.79l2.66 4v-4h.87v5.6zm4.41 0v-5.6h3.67v.7h-2.8v1.7h2.39v.8h-2.39v1.7h2.8v.7H154zm8.84 0h-.68l-1.89-5.6h.91l1.32 4.1 1.32-4.1h.92zm4.81 0v-5.6h3.66v.7h-2.79v1.7h2.38v.8h-2.38v1.7h2.79v.7h-3.66zm12.32 0v-4.7l-1.12.9v-.9l1.12-.9h.82v5.6H180zm6.52-5a.9.9 0 1 0 .85.95.86.86 0 0 0-.81-.9m0 2.5a.91.91 0 0 0-.94.88.94.94 0 1 0 1.88 0 .91.91 0 0 0-.92-.9m0 2.6a1.64 1.64 0 0 1-1.77-1.7 1.5 1.5 0 0 1 .79-1.3 1.32 1.32 0 0 1-.69-1.2 1.68 1.68 0 0 1 3.35 0 1.32 1.32 0 0 1-.7 1.2 1.48 1.48 0 0 1 .79 1.3 1.64 1.64 0 0 1-1.57 1.7h-.2m6.37 0a1.6 1.6 0 0 1-1.76-1.6h.82a.9.9 0 0 0 .9.9.93.93 0 0 0 .93-.92v-.08a.82.82 0 0 0-.72-.91.83.83 0 0 0-.24 0h-.14v-.7h.14a.82.82 0 0 0 .87-.9.87.87 0 0 0-.84-.9.9.9 0 0 0-.87.9h-.82a1.61 1.61 0 0 1 1.62-1.6h.07a1.59 1.59 0 0 1 1.66 1.51v.08a1.22 1.22 0 0 1-.71 1.2 1.26 1.26 0 0 1 .8 1.3 1.63 1.63 0 0 1-1.56 1.7h-.19m7.3-4.1a.85.85 0 1 0-1.67 0v2.4a.85.85 0 1 0 1.67 0zm-.84 4.1a1.56 1.56 0 0 1-1.65-1.46v-2.74a1.66 1.66 0 0 1 3.31 0v2.6a1.56 1.56 0 0 1-1.52 1.6h-.14"
      fill="#282828"/>
</svg>
