<?xml version="1.0" encoding="UTF-8" standalone="no"?>
<svg
        xmlns:dc="http://purl.org/dc/elements/1.1/"
        xmlns:cc="http://creativecommons.org/ns#"
        xmlns:rdf="http://www.w3.org/1999/02/22-rdf-syntax-ns#"
        xmlns:svg="http://www.w3.org/2000/svg"
        xmlns="http://www.w3.org/2000/svg"
        viewBox="0 0 633 176.44"
        height="176.44"
        width="633"
        xml:space="preserve"
        version="1.1">
    <g
            transform="matrix(1.3333333,0,0,-1.3333333,0,176.44)"
            id="g10">
        <g
                transform="scale(0.1)"
                id="g12">
            <path
                    id="path14"
                    style="fill-opacity:1;fill-rule:nonzero;stroke:none"
                    d="m 2954.07,327.992 c -0.26,-0.476 -0.43,-0.804 -0.54,-1.019 1.76,3.172 3.51,6.351 5.27,9.523 0,0 -3.18,-5.738 -4.73,-8.504"/>
            <path
                    id="path16"
                    style="fill-opacity:1;fill-rule:nonzero;stroke:none"
                    d="m 3322.1,801.285 c 32.69,0 59.22,26.508 59.22,59.195 0,32.7 -26.53,59.219 -59.22,59.219 -32.69,0 -59.18,-26.519 -59.18,-59.219 0,-32.687 26.49,-59.195 59.18,-59.195"/>
            <path
                    id="path18"
                    style="fill-opacity:1;fill-rule:nonzero;stroke:none"
                    d="m 1587.74,530.012 c -0.53,-1.25 -0.89,-2.168 -0.98,-2.594 -1.15,-6.23 -0.2,-4.254 0.98,2.594"/>
            <path
                    id="path20"
                    style="fill-opacity:1;fill-rule:nonzero;stroke:none"
                    d="m 1304.73,144.219 c -39.74,-34.141 -88.86,-61.5002 -88.86,-61.5002 -201,-101.2579 -246.432,9.4414 -224.358,111.1212 19.068,88.101 96.768,217.226 160.798,295.898 57.89,64.551 118.58,114.789 196.92,153.172 166.73,81.754 268.89,-20.906 199.65,-167.465 -44.72,-94.664 -118.99,-223.836 -244.15,-331.226 z m 2523.52,510.367 c 37.03,-3.621 54.75,-22.949 51.25,-74.891 -11.55,-111.523 -176.3,-294.886 -385.69,-288.843 72.26,171.66 246.64,371.218 334.44,363.734 z m 833.1,8.379 c -90.53,2.32 -269.06,-141.426 -290.27,-162.774 l 92.59,159.43 -139.79,-0.48 C 4143.91,353.645 3768.17,57.4688 3600.46,51.5195 3449.03,40.5391 3438.31,148.57 3488.04,276.109 c -0.05,0.02 -0.13,0 -0.21,0.02 0.08,-0.02 0.16,0 0.21,-0.02 v -1.359 c 214.41,-21.719 590.19,197.848 472.48,361.113 -101.24,100.516 -372.75,-5.304 -546.32,-236.234 l -11.98,-17.578 -25.58,-37.664 C 3315.2,262.391 3190.09,144.609 3190.09,144.609 3028.21,-14.3086 2954.98,78.6289 3023.53,193.309 l 267.11,463.468 H 3169.8 C 3136.65,611.398 2975.17,314.281 2712.26,128.32 2563.56,14.6602 2447.55,63.4688 2550.87,211.602 l 260.69,445.175 145.4,0.504 19.11,19.856 -148.59,0.047 157.43,276.117 -131.77,-0.453 c -70.04,-118.524 -233.59,-395.563 -398.09,-465.68 29.48,39.055 18.65,90.914 18.65,90.914 -12.2,59.871 -78.8,65.648 -78.8,65.648 0,0 -94.56,14.301 -203.36,-81.925 l 58.22,96.043 -132.55,-0.481 C 2001.31,451.488 1692.89,12.8984 1525.02,54.9492 c -45.35,19.8008 -48.2,77.0388 -0.55,154.4298 l 266.05,449.539 -131.81,-0.48 c -18.49,-27.297 -63.87,-112.028 -70.97,-128.426 -1.18,-6.848 -2.13,-8.824 -0.98,-2.594 0.09,0.426 0.45,1.344 0.98,2.594 4.54,26.656 12.1,131.043 -90.37,151.578 -22.53,4.777 -38.71,6.16 -61.2,6.414 C 1323.16,689.336 1209.02,630.23 1096.99,531.129 1018.11,461.402 943.449,368.063 879.992,252.352 609.289,3.80078 331.09,-10.4883 240.23,82.3906 143.781,180.98 106.078,384.129 284.594,726.883 c 62.258,90.73 296.535,476.297 633.039,565.327 251.737,66.6 354.377,-74.64 362.947,-239.69 0,0 76.15,143.26 161.6,232.2 -52.17,-22.38 -168.11,-49.22 -222.25,-16.75 -162.7,103.87 -476.914,88.85 -878.969,-285.302 C -3.94922,632.684 -249.203,-47.1289 434.871,5.85156 677.039,35.9805 880.102,228.391 880.102,228.391 848.426,111.539 899.934,22.9609 999.625,5.80078 c 36.695,-6.82031 89.025,2.83985 133.295,19.76952 37.04,15.3008 115.16,46.6992 217.36,127.2497 -31.51,-127.9098 166.31,-318.929 530.82,132.328 l -168.98,-272.1792 153.85,0.5625 c 0,0 257.33,453.5197 303.76,500.2737 100.04,133.472 283.68,158.082 281.34,64.867 -20.3,10.293 -38.15,13 -53.34,10.496 -43.94,-6.719 -63.53,-62.266 -54.69,-100.113 4.85,-12.883 12.25,-26.321 32.59,-35.77 0,0 86.07,-59.594 292.82,199.375 l -29.76,-53.351 c 0,0 -208.81,-359.668 -235.53,-410.829 -105.77,-202.73 144.56,-221.8198 294.55,-93.4917 0,0 122.17,89.6017 261.09,241.5077 -1.76,-3.172 -3.51,-6.351 -5.27,-9.523 -0.11,-0.2 -0.16,-0.301 -0.15,-0.285 -0.01,-0.016 0.04,0.085 0.15,0.285 -71.52,-129.075 -150.74,-260.9847 -49.18,-317.80112 29.33,-13.20313 107.88,-22.24218 206.15,47.30862 0,0 156.9,129.1795 239.67,233.9105 C 3315.11,209 3282.81,76.7383 3424.86,16.3008 3504.81,-8.69922 3569.99,7.5 3649.78,34.3906 c 251.31,82.0894 572.25,449.9614 572.25,449.9614 0,0 -271.66,-452.3325 -280.58,-468.9028 l 138.44,0.5 c 0,0 195.85,332.1718 235.56,388.1988 107.27,168.133 339.19,283.403 363.35,224.95 -85.93,16.972 -107.02,-110.024 -39.46,-135.953 106.62,-40.887 167.84,162.324 22.01,169.82"/>
            <path
                    id="path22"
                    style="fill-opacity:1;fill-rule:nonzero;stroke:none"
                    d="m 2954.07,327.992 c 1.55,2.766 4.73,8.504 4.73,8.504 -2.64,-4.691 -3.95,-7.121 -4.73,-8.504"/></g></g></svg>
