<?xml version="1.0" encoding="UTF-8"?>
<svg width="205px" height="23px" viewBox="0 0 205 23" version="1.1" xmlns="http://www.w3.org/2000/svg" xmlns:xlink="http://www.w3.org/1999/xlink">
    <polygon fill-rule="nonzero" points="24.3808322 0.525800423 37.7396615 0.525800423 37.7396615 2.42429126 27.7855959 2.42429126 27.7855959 10.4667102 35.4026904 10.4667102 35.4026904 12.2201975 27.7855959 12.2201975 27.7855959 20.6318477 38.1352045 20.6318477 38.1352045 22.5698061 24.3808322 22.5698061"></polygon>
    <path d="M46.737976,22.566481 L43.4189422,22.566481 L43.4189422,0.525800423 L49.0419852,0.525800423 C52.4006312,0.525800423 56.1449894,2.35504231 56.1449894,6.50477433 C56.1449894,10.0909732 53.432426,11.5839457 52.1502362,12.0420874 L59.0291573,22.566481 L55.3638787,22.566481 L54.8333075,21.8644499 L48.7817595,12.2498343 L46.737976,12.2498343 L46.737976,22.566481 Z M48.2211178,10.9511636 C50.7492102,10.9511636 52.7069746,9.35916079 52.7069746,6.50477433 C52.7069746,3.46577221 50.4657087,2.19023272 48.158519,2.19023272 L46.7378315,2.19023272 L46.7378315,10.9511636 L48.2211178,10.9511636 Z" fill-rule="nonzero"></path>
    <path d="M67.051481,22.566481 L63.7323025,22.566481 L63.7323025,0.525800423 L69.3355395,0.525800423 C72.6941855,0.525800423 76.4320381,2.35504231 76.4320381,6.50477433 C76.4320381,10.0909732 73.7258357,11.5839457 72.4471157,12.0420874 L79.46439,22.566481 L75.8189175,22.566481 L75.2883463,21.8644499 L69.0883251,12.2498343 L67.0481559,12.2498343 L67.051481,22.566481 Z M68.5346227,10.9511636 C71.05939,10.9511636 73.017299,9.35916079 73.017299,6.50477433 C73.017299,3.46577221 70.7793583,2.19023272 68.4721685,2.19023272 L67.0548061,2.19023272 L67.0548061,10.9511636 L68.5346227,10.9511636 Z" fill-rule="nonzero"></path>
    <polygon fill-rule="nonzero" points="111.010681 2.48370945 104.171372 2.48370945 104.171372 0.525800423 121.231622 0.525800423 121.231622 2.48370945 114.405469 2.48370945 114.405469 22.566481 111.010681 22.566481"></polygon>
    <polygon fill-rule="nonzero" points="125.450603 0.525800423 128.812574 0.525800423 128.812574 22.566481 125.450603 22.566481"></polygon>
    <path d="M3.52678068,11.4982158 C3.52678068,17.0356735 7.03708039,21.0930254 12.2381241,20.9248907 C15.4056488,20.8228244 17.8809732,18.7956664 18.612641,18.0508427 L18.612641,21.4358004 C17.3600882,22.1246756 14.7695416,22.9026058 12.0634838,22.9190867 C5.38247884,22.9552292 0,18.4332299 0,11.521347 C0,4.60946403 5.27376234,0.219167842 11.8855183,0.268610719 C14.1562764,0.270779267 16.4014457,0.746847673 18.4776128,1.66616714 L18.4776128,5.38074401 C17.8842983,4.83022214 15.1815656,2.24285614 11.9151551,2.10768336 C6.49653385,1.87391396 3.52678068,6.07626939 3.52678068,11.4982158 Z" fill-rule="nonzero"></path>
    <path d="M100.315116,14.8964739 C100.315116,19.6065585 97.3848307,22.9553738 91.877299,22.9553738 C86.5507687,22.9553738 83.4097003,19.6032334 83.4097003,14.8964739 L83.4097003,0.525800423 L86.613512,0.525800423 L86.613512,15.9314492 C86.613512,18.924189 88.7955042,21.0633886 91.8872743,21.0633886 C94.9788999,21.0633886 97.0718371,18.9210085 97.0718371,15.9314492 L97.0718371,0.525800423 L100.321622,0.525800423 L100.315116,14.8964739 Z" fill-rule="nonzero"></path>
    <path d="M173.487105,10.6644817 C175.251146,9.75239069 176.356961,7.93037729 176.351322,5.94456629 C176.351322,2.28926305 173.055275,0.0744534556 169.736097,0.0744534556 C166.357645,0.0744534556 163.107715,2.28608251 163.107715,5.94456629 C163.096583,7.93919605 164.216566,9.76800423 165.998389,10.6644817 C163.817553,11.6125705 162.407419,13.7644922 162.409009,16.1425212 C162.409009,19.9198413 165.375437,22.7775529 169.660197,22.7775529 C173.944958,22.7775529 177.017066,19.9066855 177.017066,16.2216008 C176.997839,13.8471862 175.628184,11.6910719 173.487105,10.6644817 Z M166.03482,5.98735896 C166.03482,3.68002468 167.501626,1.985811 169.71658,1.985811 C171.931534,1.985811 173.385039,3.67669958 173.385039,5.98735896 C173.385039,8.2977292 171.845949,9.9425 169.71658,9.9425 C167.587211,9.9425 166.03482,8.24828632 166.03482,5.98388928 L166.03482,5.98735896 Z M169.716435,20.6515092 C167.280578,20.6515092 165.471142,18.8187976 165.471142,16.1918195 C165.471142,13.5022426 167.395945,11.7422496 169.699954,11.7422496 C172.003963,11.7422496 173.945247,13.5023872 173.945247,16.1918195 C173.945247,18.8187976 172.238022,20.6515092 169.716435,20.6515092 Z" fill-rule="nonzero"></path>
    <path d="M192.693205,10.6644817 C194.457246,9.75239069 195.563061,7.93037729 195.557422,5.94456629 C195.557422,2.28926305 192.261375,0.0744534556 188.942197,0.0744534556 C185.573575,0.0744534556 182.31714,2.28608251 182.31714,5.94456629 C182.305286,7.9384732 183.423967,9.76699224 185.204633,10.6644817 C183.024954,11.6138717 181.615398,13.764926 181.615254,16.1425212 C181.615254,19.9198413 184.601343,22.7775529 188.866442,22.7775529 C193.131541,22.7775529 196.223311,19.9066855 196.223311,16.2216008 C196.205384,13.8466079 194.835152,11.6897708 192.693205,10.6644817 Z M185.240776,5.98403385 C185.240776,3.67684415 186.710906,1.98263047 188.922535,1.98263047 C191.134164,1.98263047 192.597645,3.67351904 192.597645,5.98403385 C192.597645,8.29454866 191.05841,9.93931946 188.922535,9.93931946 C186.786661,9.93931946 185.240776,8.24843089 185.240776,5.98403385 Z M188.932366,20.6515092 C186.503159,20.6515092 184.687073,18.8187976 184.687073,16.1918195 C184.687073,13.5022426 186.621851,11.7422496 188.915885,11.7422496 C191.209919,11.7422496 193.161178,13.5023872 193.161178,16.1918195 C193.148166,18.8187976 191.443977,20.6515092 188.932366,20.6515092 Z" fill-rule="nonzero"></path>
    <polygon fill-rule="nonzero" points="204.901693 22.566481 202.011164 22.566481 202.011164 0.525800423 204.901693 0.525800423"></polygon>
    <polygon fill-rule="nonzero" points="156.631276 22.566481 153.740603 22.566481 153.740603 0.525800423 156.631276 0.525800423"></polygon>
</svg>
