<svg id="Calque_1" data-name="Calque 1" xmlns="http://www.w3.org/2000/svg" viewBox="0 0 489.08182 155.2608">
  <title>LOGO_CHOPARD_NOIR</title>
  <path d="M417.18161,110.549c-9.016,10.47646-20.34634,17.57195-25.139,14.33324-10.6789-7.219,25.26634-46.81124,34.58219-38.24075,5.02505,4.62055-1.49762,14.67793-9.44315,23.90751m-101.83333-2.243c-7.55981,8.51452-24.36415,20.82217-29.44173,17.28746C275.41131,118.28823,312.29667,80.003,322.586,86.39072c5.43263,3.37367,1.11574,12.49859-7.23774,21.91528M209.03435,98.4549c-7.26956-3.83416-16.29862,6.77342-9.09846,11.37518-8.61574,10.07579-22.53335,17.88252-26.57877,15.55365-11.81343-6.81062,20.69257-40.10875,33.26056-39.79052,7.97888.19861,4.50974,9.33081,2.41667,12.86169m-64.456-22.93747c8.52947-11.41659,40.33151-52.97427,46.5417-50.41689,2.35878.96583-9.30474,25.18007-46.5417,50.41689m-81.46821-6.811c37.47852-43.52,80.47785-59.684,85.41279-56.4415,9.47881,6.22667-41.49978,49.06534-85.41279,56.4415M483.654,20.39373s-51.495,71.37746-51.95937,71.87169c.29216-2.84572-.2174-6.3279-3.14516-8.40218C413.632,73.28556,391.477,99.27848,386.28366,106.20565c-6.09554,6.908-23.72731,20.45485-28.47131,18.64666-4.80037-1.82736,12.461-24.15481,16.04787-29.18715,7.79945-10.93693,4.74017-12.719-6.78838-12.719C368.8992,78.625,369.15,71.8328,364.63792,71.8328c-8.35732,0-12.19493,12.65579-6.64958,14.50922-5.34329,14.74886-35.23016,41.85751-40.56962,39.128-2.62831-1.34426,1.04826-8.12535,5.48553-14.07482,9.55894-12.813,21.33863-28.44907,21.33863-28.44907h-9.46194s-5.64618,7.88916-6.44022,9.04248a9.39152,9.39152,0,0,0-3.32845-8.2975c-10.649-8.24881-33.06232,6.08059-46.71384,25.33765-3.18274,4.33222-22.421,17.25372-25.45383,15.5015-1.82736-1.05592.51684-5.13738,3.28012-9.09117,3.45228-4.94261,7.98272-10.49908,11.54734-15.66254,3.11908-4.52315,7.19633-10.218,7.19633-13.61778,0-2.43776-1.5651-4.76662-6.19293-4.76662-6.313,0-19.98134,9.664-21.91721,11.394,1.96194-2.35532,26.208-34.39163,26.208-34.39163H263.673c-21.28265,29.30677-47.88021,44.86809-53.49648,47.17472,2.74832-3.5048,7.6177-12.80187,4.19-18.98369-1.77484-3.20152-5.33562-5.23094-9.76906-5.23094-8.34236,0-20.70407,4.65429-37.56632,24.64866-2.784,3.61331-20.46635,19.84867-24.4581,18.45955-2.25947-.78255-1.07816-3.86406,2.18126-8.26376,3.92963-5.30571,8.6119-11.00825,11.90122-15.37766,6.96629-9.24492,7.163-13.76425,5.60133-16.44892-1.123-1.93549-3.60373-2.98029-7.42293-2.98029-7.08591,0-18.05889,5.448-21.395,8.34236,0,0,4.1152-4.94645,4.31343-5.21983,2.0969-1.19817,26.22717-16.6805,38.35654-28.16458,15.771-14.91717,22.41525-31.6203,16.56471-33.93422C182.8804,18.54029,155.738,47.581,123.93405,89.06773c-6.65917,4.12248-13.43835,8.30517-20.58982,11.8395,2.96189-3.92388,11.59987-22.10623-1.40982-28.04074-12.18956-5.56413-37.28374,10.353-47.06775,30.13764h2.46383c9.80471-17.909,36.75233-33.38786,44.11737-25.69347,4.87666,5.09253-2.271,22.00539-15.1756,33.32421-14.64035,12.84673-31.705,16.19434-39.585,12.59214-13.82559-6.32406.25651-33.52243,13.88042-50.30071,65.30224-9.24109,104.79523-52.17676,91.37567-63.66812-8.22043-7.043-61.7265,5.57908-102.502,61.20046C34.03184,71.98655,8.08954,65.51641,9.2858,42.49267,10.90305,11.35892,66.15021,2.95291,94.53755,6.26294l1.58389-1.86839C53.95337-.86247,3.60358,14.29435,3.60358,45.46184c0,19.10331,19.244,28.438,43.47514,28.438-17.38868,26.532-15.12116,46.24953-3.136,52.86193,14.26576,7.86692,37.96929-.01879,55.84452-21.12545,5.8655-2.42242,11.744-6.00583,18.81882-10.03476-13.96822,16.93548-26.38054,32.06622-26.38054,32.06622h12.76429s12.15007-18.79237,26.38975-31.75911c6.86353-6.25658,14.30333-10.31158,20.18378-10.9331,3.50825-.36693,3.43157,3.26862.06173,7.71318-5.54535,7.32362-11.18041,14.7224-15.37613,20.40616-5.09023,6.90455-5.63506,13.21021-.96582,15.378,6.91759,3.21993,19.03391-5.77386,28.47706-14.08248-.74881,4.38091.56746,12.20643,8.48845,14.12005,9.5275,2.299,21.34821-3.87173,33.89319-17.71074,9.8814-2.26522,28.03537-16.07433,28.6197-16.59462-.15721.393-15.41716,19.85979-49.18881,64.41693-.00383.01879,9.60418,0,9.60418,0s33.88592-43.50121,33.91007-43.47131c12.53425-16.17555,31.43358-28.56525,34.74323-28.64768,2.53515-.06748-.48655,4.91616-4.72522,10.6187-4.69531,6.31678-9.544,12.67458-12.35787,16.81585-4.00287,5.88582-6.12009,12.55074.16448,14.8497,7.865,2.87945,27.62013-11.93689,29.50347-13.49432-.135,1.15677-1.674,10.26289,6.33135,13.10132,10.96339,3.88669,25.289-8.73536,25.289-8.73536s-.98845,7.35353,4.94989,9.05359c12.39392,3.54583,36.85164-19.35444,52.38305-42.41921,5.29037.03374,3.23872,2.86833,2.27635,4.568-.95854,1.70735-6.987,9.60035-13.43069,18.49675-6.44407,8.89294-9.312,17.04436-1.2507,19.42921,9.40212,2.77823,29.6622-13.326,29.6622-13.326-1.22041,6.91222,1.378,10.82115,5.60516,12.75318,8.717,3.98024,22.68326-6.22284,24.62259-7.8144-.4417,1.47922-.7864,7.2826,3.43,8.39489,15.08933,3.97641,41.75245-29.83474,41.75245-29.83474l-2.97684-.23963a127.553,127.553,0,0,1-11.02665,11.97446c-8.054,7.79944-18.37329,15.827-21.51117,14.03723-2.44888-1.39678,4.48213-12.3111,8.48461-17.93887,3.35489-4.71794,61.67973-86.3997,61.67973-86.3997Z" transform="translate(-3.60358 -3.3696)"/>
</svg>
