<?xml version="1.0" standalone="no"?>
<!DOCTYPE svg PUBLIC "-//W3C//DTD SVG 20010904//EN"
 "http://www.w3.org/TR/2001/REC-SVG-20010904/DTD/svg10.dtd">
<svg version="1.0" xmlns="http://www.w3.org/2000/svg"
 width="900.000000pt" height="207.000000pt" viewBox="0 0 900.000000 207.000000"
 preserveAspectRatio="xMidYMid meet">
<metadata>
Created by potrace 1.10, written by Peter Selinger 2001-2011
</metadata>
<g transform="translate(0.000000,207.000000) scale(0.100000,-0.100000)"
fill="#000000" stroke="none">
<path d="M30 2011 c-14 -27 -14 -1935 0 -1962 10 -18 25 -19 343 -19 399 0
473 10 627 79 94 42 227 159 284 249 75 120 123 243 157 405 25 118 27 418 3
534 -56 279 -140 427 -319 564 -61 46 -182 109 -211 109 -8 0 -25 5 -36 11
-11 6 -78 20 -147 30 -100 15 -183 19 -408 19 -269 0 -283 -1 -293 -19z m630
-363 c201 -50 310 -258 310 -591 0 -253 -55 -446 -160 -556 -71 -75 -109 -92
-218 -98 -74 -5 -96 -3 -103 8 -5 8 -9 287 -9 627 l0 613 22 8 c26 9 94 5 158
-11z"/>
<path d="M2423 2023 c-10 -4 -13 -210 -13 -983 0 -538 3 -985 6 -994 5 -14 34
-16 220 -16 201 0 214 1 224 19 6 12 10 121 10 285 l0 265 47 68 c85 124 155
213 169 213 7 0 25 -24 39 -52 15 -29 41 -80 60 -113 18 -33 45 -82 59 -110
14 -27 48 -90 76 -140 27 -49 61 -112 75 -140 14 -27 48 -90 75 -140 27 -49
53 -97 56 -105 23 -50 22 -50 271 -50 180 0 233 3 233 13 -1 6 -23 52 -50 102
-27 50 -61 113 -75 140 -26 51 -62 117 -128 238 -20 37 -54 97 -74 135 -64
117 -101 186 -128 237 -15 28 -41 77 -60 110 -18 33 -43 80 -56 105 -13 25
-35 67 -51 93 -15 26 -28 52 -28 58 0 5 61 90 135 189 74 98 143 192 152 208
10 16 30 44 45 63 111 142 209 283 204 295 -7 19 -434 21 -458 2 -9 -7 -42
-49 -73 -93 -31 -44 -63 -89 -71 -100 -24 -33 -198 -272 -303 -415 -54 -74
-104 -145 -110 -158 -7 -12 -16 -20 -22 -17 -5 4 -9 155 -9 381 0 240 -4 382
-10 395 -10 18 -23 19 -218 18 -114 0 -213 -3 -219 -6z"/>
<path d="M4930 2020 c-13 -8 -15 -130 -18 -980 -1 -670 1 -977 8 -991 10 -18
20 -19 198 -17 l187 3 5 588 5 589 21 -24 c12 -13 31 -43 43 -68 13 -25 38
-72 56 -105 18 -33 51 -94 73 -135 22 -41 49 -91 60 -110 12 -19 32 -57 46
-85 14 -27 48 -90 76 -140 28 -49 62 -112 76 -140 14 -27 40 -77 59 -110 18
-33 43 -80 56 -105 13 -25 38 -71 56 -102 l34 -58 189 0 c106 0 191 4 195 9 3
5 5 452 5 992 0 771 -3 985 -13 991 -14 9 -338 11 -361 2 -14 -6 -16 -64 -16
-563 0 -306 -3 -566 -6 -578 -9 -35 -20 -28 -48 30 -14 28 -42 81 -62 117 -20
36 -51 93 -70 128 -19 34 -51 92 -71 130 -64 117 -101 186 -128 237 -15 28
-41 77 -60 110 -18 33 -45 83 -59 110 -14 28 -41 77 -60 110 -19 33 -46 83
-60 111 -14 29 -33 54 -42 58 -26 10 -358 7 -374 -4z"/>
<path d="M7283 2014 c-6 -16 47 -127 398 -824 l194 -385 5 -385 5 -385 223 -3
222 -2 0 22 c0 13 0 178 0 368 l0 345 129 255 c71 140 202 400 292 577 217
428 210 413 204 424 -4 5 -92 9 -204 9 -194 0 -198 0 -219 -23 -12 -13 -22
-30 -22 -39 0 -9 -7 -21 -15 -28 -8 -7 -15 -17 -15 -23 0 -6 -33 -79 -74 -161
-40 -83 -116 -238 -167 -343 -52 -106 -97 -193 -101 -193 -6 0 -58 103 -200
400 -151 313 -183 376 -196 393 -14 15 -38 17 -234 17 -190 0 -219 -2 -225
-16z"/>
</g>
</svg>
