<svg xmlns="http://www.w3.org/2000/svg" viewBox="0 0 130 40.661">
  <g id="Group_516" data-name="Group 516" transform="translate(-0.1 -0.039)">
    <path id="Path_344" data-name="Path 344" d="M632.751,157.491c-.127.107-.711.663-.828.76a10.339,10.339,0,0,1-4.288,2.4,4.306,4.306,0,0,1-1.413.088,1.687,1.687,0,0,1-1.588-1.715,5.042,5.042,0,0,1,.224-1.705c.458-1.394,1-2.768,1.52-4.151.429-1.16.887-2.3,1.286-3.469a5.749,5.749,0,0,0,.3-1.452c.068-1.033-.565-1.52-1.559-1.228a4.729,4.729,0,0,0-1.813,1.121,12.225,12.225,0,0,0-3.216,4.824c-.877,2.349-1.725,4.707-2.592,7.065-.068.185-.146.37-.224.575h-2.894c1.325-3.82,2.709-7.582,4.074-11.49-.185.156-.283.224-.361.3a10.649,10.649,0,0,1-3.966,2.807c-.263.1-.341.3-.439.526a15.494,15.494,0,0,1-2.914,4.629,10.277,10.277,0,0,1-4.853,3.138,7.778,7.778,0,0,1-3.956.1,3.214,3.214,0,0,1-2.475-2.1,1.273,1.273,0,0,0-.117-.185c-.166.127-.322.234-.468.351a10.7,10.7,0,0,1-3.323,1.842,4.121,4.121,0,0,1-1.881.214,1.718,1.718,0,0,1-1.559-1.686,5.029,5.029,0,0,1,.2-1.705c.458-1.394,1-2.768,1.51-4.151.439-1.179.906-2.339,1.306-3.528a5.444,5.444,0,0,0,.292-1.579,1,1,0,0,0-1.345-1.121,4.3,4.3,0,0,0-1.247.546,7.583,7.583,0,0,0-1.871,1.744,13.064,13.064,0,0,0-2.222,3.927q-3.274,9.063-6.568,18.136c-.068.185-.136.37-.224.575h-2.885c.819-2.378,1.7-4.717,2.534-7.065s1.686-4.668,2.427-7.065c-.156.136-.312.283-.468.419a10.438,10.438,0,0,1-4.4,2.427,4.683,4.683,0,0,1-1.472.088,1.759,1.759,0,0,1-1.6-1.783,4.9,4.9,0,0,1,.049-.838c.039-.273.117-.536.2-.955-.2.195-.322.292-.429.409a12.99,12.99,0,0,1-2.319,2.066,6.229,6.229,0,0,1-3.1,1.15,2.123,2.123,0,0,1-2.368-2.553,15.055,15.055,0,0,1,.663-2.417c1.169-3.284,2.368-6.549,3.567-9.823.029-.088.078-.175.127-.292h2.875c-.068.214-.136.409-.2.6q-1.842,5.087-3.674,10.164a10.633,10.633,0,0,0-.409,1.306c-.273,1.306.419,1.93,1.7,1.52a5.164,5.164,0,0,0,2-1.277,12.453,12.453,0,0,0,2.992-4.7c.877-2.349,1.725-4.707,2.592-7.065.068-.185.136-.37.214-.575h2.894c-.088.263-.166.507-.253.741q-1.74,4.809-3.469,9.609c-.224.633-.4,1.3-.594,1.939a2,2,0,0,0-.068.409c-.058.789.322,1.15,1.111,1.062a4.34,4.34,0,0,0,1.676-.6,9.226,9.226,0,0,0,2.748-2.534,2.872,2.872,0,0,0,.322-.7l3.362-9.326c.078-.2.156-.4.234-.594h2.894c-.38,1.169-.75,2.3-1.111,3.43l.117.088a4.006,4.006,0,0,1,.312-.4,12.309,12.309,0,0,1,2.6-2.271,5.4,5.4,0,0,1,2.495-.926,3.584,3.584,0,0,1,1.286.146,1.927,1.927,0,0,1,1.4,1.939,6.05,6.05,0,0,1-.312,1.813c-.624,1.764-1.335,3.5-1.988,5.253-.37,1-.721,2.027-1.043,3.05a2.694,2.694,0,0,0-.088.887.729.729,0,0,0,.8.77,2.886,2.886,0,0,0,.76-.127,6.3,6.3,0,0,0,2.427-1.481.661.661,0,0,0,.185-.409,11.989,11.989,0,0,1,2.241-6.519,12.755,12.755,0,0,1,3.937-4.034,8.284,8.284,0,0,1,6.286-1.238,3.177,3.177,0,0,1,2.768,3.313,13.133,13.133,0,0,1-.224,1.949c-.029.234-.1.458-.166.77a9.718,9.718,0,0,0,3.421-2.485,10.885,10.885,0,0,0,2.222-3.518h2.894c-.38,1.16-.741,2.29-1.111,3.411.019.02.049.039.068.058.117-.117.234-.224.341-.341a12.308,12.308,0,0,1,2.6-2.271,5.979,5.979,0,0,1,2.553-.955,2.578,2.578,0,0,1,1.5.273,1.991,1.991,0,0,1,1.15,1.939,5.92,5.92,0,0,1-.312,1.7c-.643,1.783-1.345,3.537-2.008,5.3-.37.984-.7,1.988-1.023,2.992a2.983,2.983,0,0,0-.1.887.725.725,0,0,0,.848.78,3.835,3.835,0,0,0,1.091-.283,11.633,11.633,0,0,0,3.43-2.738M612.8,148.272a9.558,9.558,0,0,0-.146-1,1.438,1.438,0,0,0-1.676-1.179,4.1,4.1,0,0,0-2.1.8,7.929,7.929,0,0,0-1.92,1.949,17.926,17.926,0,0,0-3.313,8.722,5.08,5.08,0,0,0,.195,1.705,1.323,1.323,0,0,0,1.442,1,3.826,3.826,0,0,0,2.017-.663,7.972,7.972,0,0,0,2.124-2.076,18.262,18.262,0,0,0,2.68-5.438A15.46,15.46,0,0,0,612.8,148.272Z" transform="translate(-513.819 -131.222)"/>
    <path id="Path_345" data-name="Path 345" d="M273.993.854c.01-.107.029-.195.029-.292a2.78,2.78,0,0,0-.029-.283A1.182,1.182,0,0,0,273.8.211a10.817,10.817,0,0,0-4.151.068,14.035,14.035,0,0,0-5.564,2.358.718.718,0,0,1-.76.107,17.554,17.554,0,0,0-9.579-.838,13.847,13.847,0,0,0-6.714,3.06,10.512,10.512,0,0,0-3.547,5.409,6.446,6.446,0,0,0,3.8,7.8,3.992,3.992,0,0,0,.429.127,1.045,1.045,0,0,0-.117-.2,6.777,6.777,0,0,1-1.627-5.623,11.1,11.1,0,0,1,7.007-9.121,13.225,13.225,0,0,1,7.864-.663,8.932,8.932,0,0,1,2.183.663,2.142,2.142,0,0,1-.185.2,24.255,24.255,0,0,0-5.818,7.358,49.976,49.976,0,0,0-2.738,6.49c-.692,1.881-1.433,3.752-2.2,5.613a11.221,11.221,0,0,1-1.832,2.933,6.863,6.863,0,0,1-3.791,2.349,10.779,10.779,0,0,1-3.45.1c-.292-.029-.585-.049-.877-.078-.039.146-.078.244-.1.331-.01.058-.01.117-.029.253.653.088,1.257.185,1.871.263,2.787.341,5.584.575,8.4.672a31.947,31.947,0,0,0,9.706-1.023,18.138,18.138,0,0,0,7.016-3.586,12.421,12.421,0,0,0,3.089-14.783,15.809,15.809,0,0,0-5.915-6.325.059.059,0,0,0-.01.039,3.1,3.1,0,0,1-.448.614,9.521,9.521,0,0,1,3.849,6.247,14.812,14.812,0,0,1-3.918,13.234,15.431,15.431,0,0,1-7.718,4.307,22.365,22.365,0,0,1-6.286.555c-1.218-.049-2.427-.136-3.635-.214-.214-.01-.419-.058-.77-.107.224-.117.322-.185.429-.224a18.433,18.433,0,0,0,9.979-9.151c.984-1.891,1.715-3.9,2.534-5.867.8-1.93,1.618-3.859,2.524-5.74.507-1.052,1.179-2.027,1.793-3.031a12.453,12.453,0,0,1,.9-1.16C267.717.99,270.67.4,273.993.854Z" transform="translate(-218.326 0)"/>
    <path id="Path_346" data-name="Path 346" d="M44.8,150.279c.175-.049.273-.088.361-.107a4.215,4.215,0,0,0,2.826-1.93,13.176,13.176,0,0,0,1.423-2.816c1.091-2.758,2.173-5.516,3.265-8.274.029-.068.049-.146.1-.292-.809-.2-1.618-.175-2.475-.322a15.6,15.6,0,0,1,.7-2.027c.292,0,.565-.01.838,0,.575.029,1.15.078,1.725.1a1.346,1.346,0,0,0,.624-.117c.5-.253.965-.546,1.452-.819.175-.1.37-.175.555-.273.029.029.068.058.1.088-.156.458-.312.916-.478,1.413a19.8,19.8,0,0,0,4.268.292,3.034,3.034,0,0,0,1.969-.877.814.814,0,0,1,.195-.107,1.906,1.906,0,0,1,0,.409,2.7,2.7,0,0,1-1.433,1.676,8.17,8.17,0,0,1-3.859.9c-.555.019-1.111,0-1.754,0-.039.1-.117.273-.185.458-.8,2.056-1.579,4.122-2.388,6.178a14.456,14.456,0,0,1-1.9,3.44,7.622,7.622,0,0,1-5.5,3.118.943.943,0,0,1-.234.01C44.966,150.4,44.936,150.357,44.8,150.279Z" transform="translate(-40.344 -120.365)"/>
    <path id="Path_347" data-name="Path 347" d="M13.675,106.309a2.759,2.759,0,0,0-2.894,1.5,14.218,14.218,0,0,0-1.023,2.212c-.692,1.822-1.345,3.654-2.017,5.487a1,1,0,0,0-.019.195c.75.1,1.5.195,2.339.3-.283.721-.546,1.394-.838,2.124q-1.33-.19-2.631-.38c-.361.468-.672.936-1.033,1.355a6.8,6.8,0,0,1-3.479,2.4,3.08,3.08,0,0,1-1.705.078.827.827,0,0,1-.214-.088c-.029-.019-.029-.068-.058-.127a3.675,3.675,0,0,0,3.4-2.017c.361-.565.653-1.179,1.023-1.861a6.734,6.734,0,0,0-4.4.331,3.315,3.315,0,0,1,.224-.292,6.724,6.724,0,0,1,4.073-1.8,2.161,2.161,0,0,1,.361-.029.521.521,0,0,0,.555-.429c.234-.741.487-1.472.75-2.2a17.883,17.883,0,0,1,1.793-3.9A12.3,12.3,0,0,1,9.3,107.333a4.686,4.686,0,0,1,3.372-1.433A1.31,1.31,0,0,1,13.675,106.309Z" transform="translate(0 -95.544)"/>
    <path id="Path_348" data-name="Path 348" d="M134.8,213.166c.283-.721.516-1.345.76-1.969,1.54.058,3.06.37,4.551-.5a2.611,2.611,0,0,1-.156.39,3.812,3.812,0,0,1-2.046,1.647A10.748,10.748,0,0,1,134.8,213.166Z" transform="translate(-121.573 -190.132)"/>
    <path id="Path_349" data-name="Path 349" d="M22.939,148.7c-.234.516-.409.955-.624,1.364a.606.606,0,0,1-.39.2c-.39.068-.789.088-1.179.166a5.144,5.144,0,0,0-2.446,1.179c.019-.146,0-.273.058-.331a7.567,7.567,0,0,1,.838-.926A8.328,8.328,0,0,1,22.939,148.7Z" transform="translate(-16.426 -134.174)"/>
    <g id="Group_400" data-name="Group 400" transform="translate(79.542 36.16)">
      <path id="Path_350" data-name="Path 350" d="M990.535,375.957a.54.54,0,0,1-.76-.224c-.253-.39-.565-.741-.789-1.14a.886.886,0,0,0-1.218-.429V376H987.3v-4.307l.965-.029c.37,0,.741-.01,1.1,0a1.154,1.154,0,0,1,1.238,1.052,1.211,1.211,0,0,1-1.072,1.3c-.088.02-.185.02-.361.039C989.639,374.71,990.068,375.314,990.535,375.957ZM987.8,372.1v1.52c.565,0,1.111.039,1.637-.01a.7.7,0,0,0,.653-.809.692.692,0,0,0-.7-.7C988.869,372.069,988.353,372.1,987.8,372.1Z" transform="translate(-970.538 -371.562)"/>
      <path id="Path_351" data-name="Path 351" d="M1141.332,370.835a2.678,2.678,0,0,0-.029.331c-.419,0-.809-.01-1.189.01a3.213,3.213,0,0,0-.682.107.51.51,0,0,0-.439.478.565.565,0,0,0,.351.555c.2.107.429.185.633.283a10.365,10.365,0,0,1,.945.429,1.037,1.037,0,0,1,.614.984,1.12,1.12,0,0,1-.76,1,3.655,3.655,0,0,1-2.319.058c.01-.107.029-.224.039-.292.487,0,.926.029,1.365-.01a2.182,2.182,0,0,0,.828-.224.541.541,0,0,0,.068-.955,4.653,4.653,0,0,0-.819-.429,9.32,9.32,0,0,1-1-.458.957.957,0,0,1,.107-1.754A3.475,3.475,0,0,1,1141.332,370.835Z" transform="translate(-1106.922 -370.698)"/>
      <path id="Path_352" data-name="Path 352" d="M900.357,375.272c-.37.146-.546.058-.643-.244-.088-.253-.2-.5-.312-.741h-2.076c-.107.263-.224.507-.312.76-.107.312-.292.37-.614.234.088-.224.166-.439.253-.653.448-1.111.9-2.222,1.355-3.333.068-.166.088-.39.351-.4s.3.195.37.37C899.275,372.593,899.811,373.918,900.357,375.272Zm-1.1-1.433c-.166-.429-.292-.77-.429-1.111s-.273-.653-.429-1.023a6.334,6.334,0,0,0-.8,2.124C898.115,373.84,898.632,373.84,899.255,373.84Z" transform="translate(-888.497 -370.877)"/>
      <path id="Path_353" data-name="Path 353" d="M815.758,374.31V375.9H815.3v-4.327a16.127,16.127,0,0,1,2.378.039,1.2,1.2,0,0,1,.984,1.316,1.315,1.315,0,0,1-1.062,1.345,8.235,8.235,0,0,1-.984.049C816.352,374.32,816.08,374.31,815.758,374.31Zm.029-.458c.234.01.429.029.614.029.312,0,.624.019.926-.01a.936.936,0,0,0,.838-.955.852.852,0,0,0-.858-.906c-.5-.029-.994-.01-1.52-.01Z" transform="translate(-815.3 -371.464)"/>
      <path id="Path_354" data-name="Path 354" d="M1079.1,372h.429v4.288c-.127.01-.263.02-.429.039Z" transform="translate(-1053.392 -371.873)"/>
    </g>
    <g id="Group_401" data-name="Group 401" transform="translate(118.757 6.402)">
      <path id="Path_355" data-name="Path 355" d="M1218.113,84.014c1.14-3.148,2.173-6.247,3.313-9.394.058-.166.107-.331.195-.585h-2.31c.156-.322.263-.546.38-.8h2.232c.176-.478.487-1.277.653-1.725.478-1.286.965-2.573,1.413-3.869a1.287,1.287,0,0,1,.712-.8c.76-.38,1.491-.848,2.222-1.286a.793.793,0,0,1,.78-.175c-.887,2.466-1.92,5.292-2.836,7.825h4.064c-.058.185-.1.292-.136.4a.591.591,0,0,1-.672.439c-.974-.029-1.949-.01-2.923-.01h-.6c-.049.117-.1.2-.127.3-1.043,2.9-2.007,5.759-3.031,8.673-.292.838-.478,1.725-.711,2.592a2.969,2.969,0,0,0-.058.409c-.136.906,1.793.965,2.436.692,3.528-1.423,4.22-3.791,4.98-4.5a1.725,1.725,0,0,1,.965-.3c-1.169,2.271-4.96,6.354-9.112,6.4a1.893,1.893,0,0,1-2.173-1.627,5.827,5.827,0,0,1,.351-2.66" transform="translate(-1217.704 -65.336)"/>
    </g>
  </g>
</svg>
