<?xml version="1.0" encoding="utf-8"?>
<!-- Generator: Adobe Illustrator 17.1.0, SVG Export Plug-In . SVG Version: 6.00 Build 0)  -->
<!DOCTYPE svg PUBLIC "-//W3C//DTD SVG 1.1//EN" "http://www.w3.org/Graphics/SVG/1.1/DTD/svg11.dtd">
<svg version="1.1" id="Calque_1" xmlns="http://www.w3.org/2000/svg" xmlns:xlink="http://www.w3.org/1999/xlink" x="0px" y="0px"
	 viewBox="0 0 283.464 91.741" enable-background="new 0 0 283.464 91.741" xml:space="preserve">
	<path fill-rule="evenodd" clip-rule="evenodd" fill="#D31245" d="M162.715,44.981c-11.16,0.257-21.724-0.113-21.753-0.048
			c0,0-3.682,0.395-3.451-3.808c0.215-4.101,5.806-3.262,5.806-3.262c11.465-0.006,10.726,0.106,20.492-0.257
			c1.452-8.313,2.1-17.398,4.832-25.129c2.017-4.472,5.472-9.149,10.363-10.803c3.8-1.75,7.73-1.866,11.088,0.792
			c0,0,2.416,2.305,1.167,4.916c-1.806,3.738-4.916,0.803-4.916,0.803c-2.303-1.229-4.818-0.269-6.914,1.22
			c-3.051,2.342-4.044,5.965-5.147,9.18c-1.361,5.965-2.396,12.638-2.906,18.928c-0.078-0.062,12.394-0.357,17.324-2.134
			c1.995-8.599,3.103-18.067,7.671-25.442c2.743-4.265,6.831-8.045,12.021-7.919c2.923-0.125,5.222,1.893,6.501,4.095
			c2.644,7.877-0.446,16.237-4.786,22.463c-3.292,5.395-9.257,9.263-14.93,11.751l-2.725,14.644
			c0.069-0.02,20.278-15.29,25.44-17.406c3.052-1.311,7.351-1.02,9.895,0.941c0.713,0.468,1.649,1.597,1.662,1.538l0.959-3
			c0,0,0.736-3.701,4.607-2.565c2.948,0.864,1.443,4.526,1.443,4.526l-4.51,16.692l15.739-10.059l9.515-37.512
			c0,0,0.76-4.52,4.679-3.687c3.903,0.831,2.657,4.31,2.657,4.31l-8.547,31.268l17.087-10.878c0,0,6.774-5.519,9.449-2.67
			c2.627,2.774-1.116,5.398-1.116,5.398l-22.478,14.74l11.938,19.958c0,0,3.473,6.162-0.265,7.16c-2.731,0.738-7.16-6.087-7.16-6.087
			l-10.106-17.569l-4.565,17.581c0,0-2.314,6.857-5.463,6.114c-2.473-0.582-1.95-4.015-1.95-4.015l3.711-15.241
			c0,0-18.817,13.731-22.677,14.521c-3.867,0.789,1.257-7.725,1.257-7.725c-1.025,0.642-2.027,1.743-3.22,2.488
			c-3.461,2.782-7.881,4.427-12.631,3.22c-2.657-0.949-3.87-3.985-4.462-6.439c-0.249-2.042-0.058-4.703,0.252-6.54
			c0,0-17.892,16.922-19.649,14.212c-1.762-2.708,3.497-25.835,3.497-25.835c-5.385,1.209-11.511,1.87-17.168,2.155l-4.785,35.72
			c0,0-1.243,9.01-4.921,8.452c-3.638-0.571-3.271-4.95-3.271-4.95L162.715,44.981L162.715,44.981L162.715,44.981z M210.05,59.475
			c-1.771-1.742-1.051-4.476-0.426-6.382c2.335-4.582,6.612-9.581,12.214-9.771c1.458,0.24,3.066,0.702,3.83,2.222
			c1.285,3.152-0.752,6.337-2.458,8.879C219.719,57.822,215.1,62.79,210.05,59.475L210.05,59.475L210.05,59.475z M195.418,32.944
			c0.053,0.045,0.971-6.309,3.526-14.577c1.015-3.141,2.636-6.593,5.807-8.497c1.021-0.337,2.406-0.203,3.179,0.545
			c1.914,1.77,1.018,4.821,0.602,7.051C206.666,23.845,201.732,30.095,195.418,32.944L195.418,32.944L195.418,32.944z"/>
	<path fill-rule="evenodd" clip-rule="evenodd" fill="#0065A4" d="M89.627,16.931c-0.933-1.875-1.012-4.717,0.071-6.557
			c0.787-2.194,3.669-5.402,6.796-5.957c1.357-0.121,2.728,0.239,3.51,1.209c1.175,1.282,1.703,2.748,1.617,4.548
			c-0.39,3.473-2.85,6.95-6.308,8.166C93.444,18.858,90.946,18.694,89.627,16.931L89.627,16.931L89.627,16.931z M28.677,44.616
			L3.818,44.981c0,0-3.984,0.309-3.813-4.364c0.17-4.439,8.1-3.633,8.1-3.633l22.177-0.423c1.776-9.046,2.841-19.384,6.698-27.632
			c2.694-4.626,7.604-8.711,13.215-8.912c2.858-0.103,4.16,0.692,6.476,2.285c0,0,2.498,2.597,1.289,4.659
			c-1.497,2.543-4.983,2.189-4.983,2.189c-2.441-0.959-3.675-1.245-5.924,0.236c-4.496,1.885-5.766,6.562-6.507,11.004
			c-0.929,5.251-2.597,16.246-2.541,16.265c-0.057-0.019,15.911-0.6,17.316-1.472c2.31-9.336,4.108-18.471,8.701-26.276
			c2.744-3.984,6.971-7.269,12.001-6.25c2.221,0.419,4.377,1.614,5.498,3.761c2.727,5.423,0.421,12.179-1.545,17.29
			c-3.436,7.38-10.292,14.412-18,17.431c-1.298,5.913-2.307,12.271-2.334,12.215c0,0,24.798-20.676,28.872-18.921
			c4.178,1.628-3.479,16.872-3.479,16.872l19.787-12.199l9.444-35.248c0,0,1.575-3.938,4.19-3.856c2.613,0.084,2.57,4.287,2.57,4.287
			l-7.417,29.713l16.424-10.726c0,0,3.957-3.67,6.896-1.828c3.588,2.25-0.186,5.477-0.186,5.477L115.89,40.247
			c0,0,17.458,26.112,17.126,25.583c-1.456-2.301,2.774,2.362-0.628,4.067c-3.415,1.728-7.061-3.175-7.061-3.175l-14.688-21.831
			l-5.42,18.243c0,0-1.279,4.121-4.049,3.488c-3.743-0.857-2.283-4.687-2.283-4.687l3.486-13.776c0,0-24.914,17.607-27.906,16.288
			c-2.992-1.32,3.201-15.744,3.201-15.744S52.8,70.712,50.577,68.532c-2.236-2.163,2.32-16.862,3.485-25.316
			c-5.543,0.781-17.345,1.319-17.322,1.317l-5.639,36.882c0,0-1.717,10.379-6.379,10.326c-3.407-0.045-2.241-8.182-2.241-8.182
			L28.677,44.616L28.677,44.616L28.677,44.616z M63.432,32.081c0.833-5.717,2.457-11.278,4.378-16.417
			c0.806-2.329,1.931-4.399,4.095-5.665c0.885-0.437,2.181-0.559,3.022,0.046c2.341,1.842,0.776,5.207,0.421,7.388
			c-1.988,5.863-5.897,12.068-11.938,14.805L63.432,32.081L63.432,32.081L63.432,32.081z"/>
</svg>
