<?xml version="1.0" encoding="utf-8"?>
<!-- Generator: Adobe Illustrator 18.0.0, SVG Export Plug-In . SVG Version: 6.00 Build 0)  -->
<!DOCTYPE svg PUBLIC "-//W3C//DTD SVG 1.1//EN" "http://www.w3.org/Graphics/SVG/1.1/DTD/svg11.dtd" [
	<!ENTITY ns_extend "http://ns.adobe.com/Extensibility/1.0/">
	<!ENTITY ns_ai "http://ns.adobe.com/AdobeIllustrator/10.0/">
	<!ENTITY ns_graphs "http://ns.adobe.com/Graphs/1.0/">
	<!ENTITY ns_vars "http://ns.adobe.com/Variables/1.0/">
	<!ENTITY ns_imrep "http://ns.adobe.com/ImageReplacement/1.0/">
	<!ENTITY ns_sfw "http://ns.adobe.com/SaveForWeb/1.0/">
	<!ENTITY ns_custom "http://ns.adobe.com/GenericCustomNamespace/1.0/">
	<!ENTITY ns_adobe_xpath "http://ns.adobe.com/XPath/1.0/">
]>
<svg version="1.1" id="Layer_1" xmlns:x="&ns_extend;" xmlns:i="&ns_ai;" xmlns:graph="&ns_graphs;"
	 xmlns="http://www.w3.org/2000/svg" xmlns:xlink="http://www.w3.org/1999/xlink" x="0px" y="0px" viewBox="0 0 379 108.7"
	 enable-background="new 0 0 379 108.7" xml:space="preserve">
<switch>
	<g i:extraneous="self">
		<title>logo_gp_fr</title>
		<g>
			<g>
				<g>
					<path d="M164,32.9h-11.1v1c0.6,0.1,1.5,0.3,2,0.6v25c-0.5,0.3-1.4,0.5-2,0.6v1h8.6v-1c-0.6-0.1-1.5-0.3-2-0.6v-5.7
						c0,0,4.1-1.1,8.1-2.4c4.3-1.4,8.7-3.8,8.6-9.6C176.2,35.6,171.9,32.9,164,32.9z M162.9,49.4l-3.5,0.9l0-14.2c0,0,0.9,0,2.3,0
						c2.8,0,9.5,0,9.5,6.1C171.3,44.8,169.6,47.4,162.9,49.4z"/>
					<path d="M198.9,55.7h-1c-0.1,0.7-0.4,1.5-0.8,2.2H184V47h9.6c0.3,0.5,0.5,1,0.7,1.6h0.6v-6.3h-0.6c-0.2,0.7-0.4,1-0.7,1.6H184
						v-7.7l12.2,0c0.3,0.6,0.6,1.2,0.7,1.9h1l0-5.1h-20.5v1c0.6,0.1,1.5,0.3,2,0.6v25c-0.5,0.3-1.4,0.5-2,0.6v1h21.5L198.9,55.7z"/>
					<path d="M26.3,33.9c0.6,0.1,1.5,0.3,2,0.6v25c-0.5,0.3-1.4,0.5-2,0.6v1h8.6v-1c-0.6-0.1-1.5-0.3-2-0.6v-25
						c0.5-0.3,1.4-0.5,2-0.6v-1h-8.6V33.9z"/>
					<path d="M16.1,46.5c0.6,0.1,1.5,0.3,2,0.6v10.6c-7.1,0-12.9-5-12.9-12c0-5.3,3.2-10.1,8.4-10.2c3,0,4.3,1.5,5,2.9
						c0.8-0.3,4.6-1.4,4.6-1.4c-1.6-3-4.8-4.7-9.8-4.7c-4.9,0-13.6,3-13.5,13.3C0.1,55.5,7.7,61,18.6,61h4.2l0-13.9
						c0.5-0.3,1.4-0.5,2-0.6v-1h-8.6V46.5z"/>
					<path d="M94.9,51.7c0,0,1.9-0.5,4.7-1.4l5.9,10.7h6.5v-1c-0.6-0.1-1.5-0.3-2-0.6L104,48.8c3-1.4,5.5-3.6,5.4-7.8
						c0-5.6-3.9-8.1-11.2-8.1H88.2v1c0.6,0.1,1.5,0.3,2,0.6v25c-0.5,0.2-1.3,0.5-1.9,0.6c-0.6-0.1-1.4-0.3-1.9-0.6l-9.7-26.6h-5.3
						L62,59.5c-0.5,0.2-1.3,0.5-1.9,0.6c-0.6-0.1-1.4-0.3-1.9-0.6l-5.9-10.6c3-1.4,5.5-3.6,5.4-7.8c0-5.6-3.9-8.1-11.2-8.1H36.5v1
						c0.6,0.1,1.5,0.3,2,0.6v25c-0.5,0.3-1.4,0.5-2,0.6v1h8.6v-1c-0.6-0.1-1.5-0.3-2-0.6v-7.8c0,0,1.9-0.5,4.7-1.4l5.8,10.7H60v0
						h7.9v-1c-0.6-0.1-1.5-0.3-2-0.6l3-9.3h8.8l3.3,9.4c-0.5,0.3-1.4,0.5-2,0.6v1h9v0h8.6v-1c-0.6-0.1-1.5-0.3-2-0.6V51.7z
						 M94.9,36.1c0,0,0.8,0,1.9,0c2.3,0,7.9,0,7.9,5.2c0,2-1.3,4.6-6.7,6.3l-3.1,0.9L94.9,36.1z M46.2,47.6l-3.1,0.9l0-12.4
						c0,0,0.8,0,1.9,0c2.3,0,7.9,0,7.9,5.2C52.9,43.2,51.6,45.9,46.2,47.6z M70,47l3.2-9.9l3.5,9.9H70z"/>
					<path d="M138,46.1c0-10.9-9.2-13.1-15.7-13.1l-9,0v1c0.6,0.1,1.5,0.3,2,0.6v25c-0.5,0.3-1.4,0.5-2,0.6v1l6.2-0.1
						C130.4,61,138,55.8,138,46.1z M120.2,57.7V36.1l2.3,0c6.2,0,10.4,3.9,10.4,9.8C132.9,55.2,126.7,57.4,120.2,57.7z"/>
					<polygon points="150.3,47 142.5,47 141.7,50.1 149.5,50.1 					"/>
					<path d="M342.4,33.9c0.6,0.1,1.5,0.3,2,0.6v23.2c-8.7,0-11.3-3.7-11.3-12V34.5c0.5-0.3,1.4-0.5,2-0.6v-1h-8.6v1
						c0.6,0.1,1.5,0.3,2,0.6l0,11.2c0,10.6,2.8,15.4,16.5,15.3h4.2l0-26.6c0.5-0.3,1.4-0.5,2-0.6v-1h-8.6V33.9z"/>
					<path d="M242.2,48.8c3-1.4,5.5-3.6,5.4-7.8c0-5.6-3.9-8.1-11.2-8.1h-10.1v1c0.6,0.1,1.5,0.3,2,0.6v25c-0.5,0.3-1.4,0.5-2,0.6v1
						h8.6v-1c-0.6-0.1-1.5-0.3-2-0.6v-7.8c0,0,1.9-0.5,4.7-1.4l5.8,10.7h6.6v-1c-0.6-0.1-1.5-0.3-2-0.6L242.2,48.8z M236.1,47.6
						l-3.1,0.9l0-12.4c0,0,0.8,0,1.9,0c2.3,0,7.9,0,7.9,5.2C242.8,43.2,241.5,45.9,236.1,47.6z"/>
					<path d="M224.5,60.1c-0.6-0.1-1.5-0.3-2-0.6l-5.9-10.6c3-1.4,5.5-3.6,5.4-7.8c0-5.6-3.9-8.1-11.2-8.1h-10.1v1
						c0.6,0.1,1.5,0.3,2,0.6v25c-0.5,0.3-1.4,0.5-2,0.6v1h8.6v-1c-0.6-0.1-1.5-0.3-2-0.6v-7.8c0,0,1.9-0.5,4.7-1.4l5.8,10.7h6.6
						V60.1z M210.4,47.6l-3.1,0.9l0-12.4c0,0,0.8,0,1.9,0c2.3,0,7.9,0,7.9,5.2C217.1,43.2,215.9,45.9,210.4,47.6z"/>
					<path d="M273.7,55.7h-1c-0.1,0.7-0.4,1.5-0.8,2.2h-13.1V47h9.6c0.3,0.5,0.5,1,0.7,1.6h0.6v-6.3h-0.6c-0.2,0.7-0.4,1-0.7,1.6
						h-9.6v-7.7l12.2,0c0.3,0.6,0.6,1.2,0.7,1.9h1l0-5.1h-20.5v1c0.6,0.1,1.5,0.3,2,0.6v25c-0.5,0.3-1.4,0.5-2,0.6v1h21.5
						L273.7,55.7z"/>
					<path d="M316.9,32.9h-5.3l-9.4,26.6c-0.5,0.3-1.4,0.5-2,0.6v1h7.9v-1c-0.6-0.1-1.5-0.3-2-0.6l3-9.3h8.8l3.3,9.4
						c-0.5,0.3-1.4,0.5-2,0.6v1h9.1v-1c-0.6-0.1-1.5-0.3-2-0.6L316.9,32.9z M310.2,47l3.2-9.9l3.5,9.9H310.2z"/>
					<path d="M376.9,59.5l-8.8-13.6l7.4-11.4c0.5-0.3,1.4-0.5,2-0.6v-1h-8.3v1c0.6,0.1,1.5,0.3,2,0.6l-5.2,8l-5.2-8
						c0.5-0.3,1.4-0.5,2-0.6v-1h-9.5v1c0.6,0.1,1.5,0.3,2,0.6l7.3,11.2l-8.9,13.8c-0.5,0.3-1.4,0.5-2,0.6v1h8.3v-1
						c-0.6-0.1-1.5-0.3-2-0.6l6.7-10.4l6.7,10.4c-0.5,0.3-1.4,0.5-2,0.6v1h9.5v-1C378.3,60,377.4,59.7,376.9,59.5z"/>
					<path d="M299.9,45.6h-8.6v1c0.6,0.1,1.5,0.3,2,0.6v10.6c-7.1,0-12.9-5-12.9-12c0-5.3,3.2-10.1,8.4-10.2c3,0,4.3,1.5,5,2.9
						c0.8-0.3,4.6-1.4,4.6-1.4c-1.6-3-4.8-4.7-9.8-4.7c-4.9,0-13.6,3-13.5,13.3c0.1,9.8,7.7,15.3,18.6,15.3h4.2l0-13.9
						c0.5-0.3,1.4-0.5,2-0.6V45.6z"/>
				</g>
			</g>
			<g>
				<g>
					<path d="M239,77.5h-19.8l0.7,1.6c0.4,0.9,1.4,3.6,0.5,4.8c-0.3,0.5-1,0.8-2.1,0.8c-5.9,0-19,0.1-19.1,0.1c-0.8,0-2.6-0.3-3-1.2
						c-0.2-0.6-1.8-4.3-6.8-4.4h0c-5,0.1-6.6,3.8-6.8,4.4c-0.4,0.9-2.2,1.2-3,1.2c0,0-13.2-0.1-19.1-0.1c-1.1,0-1.8-0.3-2.1-0.8
						c-0.8-1.3,0.2-4,0.5-4.8l0.7-1.6H158h-18l-7.2,9l7.2,9h19.8l-0.7-1.6c-0.4-0.9-1.4-3.6-0.5-4.8c0.3-0.5,1-0.8,2.1-0.8
						c5.9,0,19-0.1,19.1-0.1c0.8,0,2.6,0.3,3,1.2c0.2,0.6,1.8,4.3,6.8,4.4h0c5-0.1,6.6-3.8,6.8-4.4c0.4-0.9,2.2-1.2,3-1.2
						c0,0,13.2,0.1,19.1,0.1c1.1,0,1.8,0.3,2.1,0.8c0.8,1.3-0.1,4-0.5,4.8l-0.7,1.6l1.7,0h18l7.2-9L239,77.5z"/>
				</g>
			</g>
		</g>
	</g>
</switch>

</svg>
