<?xml version="1.0" encoding="utf-8"?>
<!-- Generator: Adobe Illustrator 22.1.0, SVG Export Plug-In . SVG Version: 6.00 Build 0)  -->
<svg version="1.1" id="Layer_1" xmlns="http://www.w3.org/2000/svg" xmlns:xlink="http://www.w3.org/1999/xlink" x="0px" y="0px"
	 viewBox="0 0 566.9 103" style="enable-background:new 0 0 566.9 103;" xml:space="preserve">
<style type="text/css">
	.st0{fill:#F47A55;}
</style>
<rect x="21.8" y="9.9" class="st0" width="62.9" height="62.9"/>
<path d="M476.4,74.2c0-15.9-11.7-20.4-25.6-20.4c-14.2,0-25.6,4.4-25.6,20.4s11.3,20.4,25.6,20.4C464,94.7,476.4,90.2,476.4,74.2
	 M431.6,74.3c0-11.9,9.2-14.2,19.1-14.2c9.4,0,19.1,2.3,19.1,14.2c0,11.8-9.5,14.3-19.1,14.3C440.8,88.5,431.6,86,431.6,74.3"/>
<rect x="293.2" y="55.6" width="7.1" height="39"/>
<polygon points="328.5,55.6 321.4,55.6 321.4,94.7 359.8,94.7 359.8,88.3 328.5,88.3 "/>
<polygon points="414.1,55.6 360.2,55.6 360.2,61.7 383.8,61.7 383.8,94.7 390.9,94.7 390.9,61.7 414.1,61.7 "/>
<path d="M539.1,94.7V73.5c0-6.7,0-18.3-22.8-18.3s-22.9,11.6-22.9,18.3v21.2h7.1c0,0,0-12.6,0-18.1c0.2-6.8-2.2-15,15.6-15
	s15.7,8.2,15.9,15c0,5.6,0,18.1,0,18.1H539.1z"/>
<path d="M156,55.2c-25.8,0-25.2,11.6-25.2,18.3v21.2h7.2c0,0,0-7.9,0-13.5h18h17.9c0,5.6,0,13.5,0,13.5h7.2V73.5
	C181.1,66.8,181.8,55.2,156,55.2 M173.9,74.5H156h-18c-0.1-6.2-1.6-13,18-13C175.5,61.5,174,68.2,173.9,74.5"/>
<path d="M272.1,94.7V73.2c-0.1-9.5,0.9-18.8-18.3-18.8c-8.2,0-14.3,1.4-16.7,5.2c-2.3-3.7-8.4-5.2-16.6-5.2
	c-18.3,0-18.2,9.3-18.3,18.8v21.5h7.5c0,0,0-12.8,0-18.5c0.3-8.2-2.1-15,10.6-15c13.8,0,13.2,2.6,13.2,15c0,5.7,0,18.5,0,18.5h3.6
	h3.7c0,0,0-12.8,0-18.6c0-12.4-0.5-15,13.2-15c12.7,0,10.3,6.8,10.6,15v18.5L272.1,94.7z"/>
<path stroke="#f5f5f5" stroke-width="2px" d="M102.6,70.3H66.8V55.2h-7.2v39.2h7.2c0,0,0-10,0-17h35.8v17h7.2V55.2h-7.2C102.6,55.2,102.6,70.3,102.6,70.3z"/>
</svg>
