<?xml version="1.0" encoding="utf-8"?>
<!-- Generator: Adobe Illustrator 23.0.4, SVG Export Plug-In . SVG Version: 6.00 Build 0)  -->
<svg version="1.1" id="Ebene_1" xmlns="http://www.w3.org/2000/svg" xmlns:xlink="http://www.w3.org/1999/xlink" x="0px" y="0px"
	 viewBox="0 0 291.8 152.7" style="enable-background:new 0 0 291.8 152.7;" xml:space="preserve">
<style type="text/css">
	.st0{fill:#1A1A18;}
	.st1{fill:#E2001E;}
	.st2{fill:#FFFFFF;}
</style>
<title>logo</title>
<g>
	<g>
		<polygon class="st0" points="130.2,111.9 106.8,85.9 98.8,85.9 98.8,123.2 106.8,123.2 106.8,97.2 130.2,123.2 138,123.2 
			138,85.9 130.2,85.9 		"/>
		<path class="st0" d="M51.9,123.2h7.8v-15.8h23.6v15.8h7.6V85.9h-39V123.2z M59.7,93.9h23.6v5.7H59.7V93.9z"/>
		<polygon class="st0" points="36.4,99.5 12.8,99.5 12.8,85.9 4.9,85.9 4.9,123.2 12.8,123.2 12.8,107.3 36.4,107.3 36.4,123.2 
			44,123.2 44,85.9 36.4,85.9 		"/>
		<path class="st0" d="M247.4,85.9v37.2h7.9v-15.8h23.6v15.8h7.6V85.9H247.4z M278.9,99.5h-23.6v-5.7h23.6V99.5z"/>
		<polygon class="st0" points="232,112.2 220.2,99.5 212.4,99.5 200.6,112.2 200.6,85.9 192.8,85.9 192.8,123.2 200.6,123.2 
			216.1,105.8 232,123.2 239.6,123.2 239.6,85.9 232,85.9 		"/>
		<path class="st0" d="M145.8,85.9v37.2h39.1V85.9H145.8z M177.3,115.2h-23.6V93.6h23.6V115.2z"/>
	</g>
	<path class="st1" d="M123,5.6l-8.1,8.1v44.1l8.1,7.8h45.1l8.4-7.8V13.7l-8.4-8.1H123z M167.4,43.1h-13.9v14.2h-15.2V43.1h-13.9
		V28.1h13.9v-14h15.2v14h13.9V43.1z"/>
	<polygon class="st2" points="153.5,14.1 138.3,14.1 138.3,28.1 124.4,28.1 124.4,43.1 138.3,43.1 138.3,57.3 153.5,57.3 
		153.5,43.1 167.4,43.1 167.4,28.1 153.5,28.1 	"/>
	<path class="st2" d="M170.4,2h-49.3l-9.7,9.4l-0.1,48.4l9.9,9.4h49.5l9.9-9.4V11.7L170.4,2z M176.5,57.7l-8.4,7.8H123l-8.1-7.8
		V13.7l8.1-8.1h45.1l8.4,8.1V57.7z"/>
</g>
<g>
	<path class="st0" d="M77.4,141.4c-0.2-1.8-2-2.3-4.2-2.3c-1.9,0-3.4,0.9-3.4,2.4c0,0.7,0.4,1.4,2,1.7l4.9,0.8
		c2.1,0.4,3.1,1.6,3.1,3.2c0,2.6-2.3,4.2-6.2,4.2c-3.7,0-5.9-1.4-6.1-4.3h2c0.1,1.8,1.7,2.8,4.2,2.8c2.7,0,4.2-1.1,4.2-2.5
		c0-3.6-10-0.3-10-5.8c0-2.5,2.1-4,5.7-4c2.7,0,5.6,0.8,5.8,3.8H77.4z"/>
	<path class="st0" d="M102.7,138h2l-4.5,13.1h-2.6l-4-11.5h0l-4,11.5h-2.6L82.3,138h2l3.9,11.5h0l4-11.5h2.5l4,11.5h0L102.7,138z"/>
	<path class="st0" d="M108.2,138h1.9V151h-1.9V138z"/>
	<path class="st0" d="M124.2,141.4c-0.2-1.8-2-2.3-4.2-2.3c-1.9,0-3.4,0.9-3.4,2.4c0,0.7,0.4,1.4,2,1.7l4.9,0.8
		c2.1,0.4,3.1,1.6,3.1,3.2c0,2.6-2.3,4.2-6.2,4.2c-3.7,0-5.9-1.4-6.1-4.3h2c0.1,1.8,1.7,2.8,4.2,2.8c2.7,0,4.2-1.1,4.2-2.5
		c0-3.6-10-0.3-10-5.8c0-2.5,2.1-4,5.7-4c2.7,0,5.6,0.8,5.8,3.8H124.2z"/>
	<path class="st0" d="M140.2,141.4c-0.2-1.8-2-2.3-4.2-2.3c-1.9,0-3.4,0.9-3.4,2.4c0,0.7,0.4,1.4,2,1.7l4.9,0.8
		c2.1,0.4,3.1,1.6,3.1,3.2c0,2.6-2.3,4.2-6.2,4.2c-3.7,0-5.9-1.4-6.1-4.3h2c0.1,1.8,1.7,2.8,4.2,2.8c2.7,0,4.2-1.1,4.2-2.5
		c0-3.6-10-0.3-10-5.8c0-2.5,2.1-4,5.7-4c2.7,0,5.6,0.8,5.8,3.8H140.2z"/>
	<path class="st0" d="M156.2,139.3L156.2,139.3l0,11.7h-1.9V138h3l5.8,11.5l5.8-11.5h3V151h-1.9v-11.7h0l-5.9,11.7h-2L156.2,139.3z"
		/>
	<path class="st0" d="M187.2,147.6h-8l-1.7,3.4h-2.1l6.7-13.1h2.2L191,151h-2.2L187.2,147.6z M186.5,146.1l-3.3-6.6l-3.3,6.6H186.5z
		"/>
	<path class="st0" d="M194.6,138h5.1c5.8,0,7.8,2.4,7.8,6.7c0,4-2.4,6.4-7.5,6.4h-5.4V138z M196.4,149.6h3.5c4.3,0,5.5-2.5,5.5-5.1
		c0-3.4-1.5-5.1-5.9-5.1h-3.1V149.6z"/>
	<path class="st0" d="M211.9,138h9.8v1.5h-7.9v4.1h7.4v1.5h-7.4v4.5h8.1v1.5h-10V138z"/>
</g>
</svg>
