<?xml version="1.0" encoding="utf-8"?>
<svg xmlns="http://www.w3.org/2000/svg" width="132" height="36" viewBox="0 0 158.3 34.1" class="logo--desktop">
    <title>Hirsch Logo</title>
    <path d="M58,22.9V1.3h4.3V22.8H58Zm10.4,0V1.3H78.8a6,6,0,0,1,6.3,6.5c-.3,3.4-3,4.3-4.3,4.8.8.4,3.4.1,3.7,5.3.1,3.2.2,4,.4,4.5l.2.6H81.5c-.3,0-.6-.4-.7-.7a14.68,14.68,0,0,1-.3-3.7c-.1-1.7-.6-4.1-3.3-4.4H72.9v8.7Zm4.4-12h4.9A3.22,3.22,0,0,0,81,7.8a3.06,3.06,0,0,0-3-3H72.8Zm19.7,5.3c0,1.3.6,3.7,4.5,3.7,2.1,0,4.6-.7,4.6-2.9,0-1.7-1.5-2.3-3.8-2.8l-2.3-.5c-3.5-.8-6.7-2.1-6.7-6.2,0-2.4,1.4-6.6,8.3-6.6,6.6,0,8.2,4.3,8.3,6.7h-4.1c-.1-.7-.4-3.2-4.3-3.2-1.7,0-3.8.7-3.8,2.6a2.67,2.67,0,0,0,2.4,2.5l5.2,1.3c2.9.7,5.2,1.9,5.2,5.8,0,6.1-6.6,6.9-8.5,6.9-7.8,0-9-4.3-9-7.1A26.8,26.8,0,0,1,92.5,16.2ZM123.9,8c-.4-.9-1-3.7-4.8-3.7-2.2,0-5.8,1.8-5.8,7.9,0,3.9,1.9,7.7,5.8,7.7a4.53,4.53,0,0,0,4.9-4h4.3c-.2,3.7-3.8,7.5-9.3,7.5-5.9,0-10.1-3.9-10.1-11.3S113.4.8,119.1.8c6.6,0,8.8,4.6,9,7.2ZM39.1,13.4v9.5H34.9V1.3h4.2V9.6h8.6V1.3h4.2V22.8H47.7V13.3l-8.6.1Zm96.7,0v9.5h-4.2V1.3h4.2V9.6h8.6V1.3h4.2V22.8h-4.2V13.3l-8.6.1ZM0,34.7V1.3H6.8V34.7Zm19.9,0V1.3h6.8V34.7Zm-1-17.2a5.57,5.57,0,0,1-5.5,5.6,5.51,5.51,0,0,1-5.5-5.6,5.57,5.57,0,0,1,5.5-5.6,5.51,5.51,0,0,1,5.5,5.6ZM154.5,3.9h.6c.5,0,1,0,1-.6s-.4-.6-.8-.6h-.8V3.9Zm-.6-1.6h1.4c.9,0,1.3.3,1.3,1.1s-.4.9-1,1L156.7,6h-.6l-1-1.6h-.6V6h-.6V2.3Zm1.2,4.5a2.61,2.61,0,0,0,2.6-2.7,2.6,2.6,0,1,0-5.2,0,2.67,2.67,0,0,0,2.6,2.7Zm0-5.9A3.2,3.2,0,0,1,158.3,4a3.2,3.2,0,0,1-3.1,3.2h0A3.22,3.22,0,0,1,152,4,3.12,3.12,0,0,1,155.1.9ZM34.7,28.8h4.8v.7h-2v5.2h-.8V29.5h-2v-.7Zm10.1,5.9h-.7V31.9c0-.6-.2-1-.9-1s-1.2.3-1.2,1.4v2.3h-.7V28.7H42V31h0a1.51,1.51,0,0,1,1.3-.7,1.36,1.36,0,0,1,1.5,1.5v2.9ZM50,33.4h.7a1.75,1.75,0,0,1-.8,1.2,2.2,2.2,0,0,1-1.2.3,1.89,1.89,0,0,1-1.9-2.1c0-1.3.6-2.4,2.1-2.4,1.2,0,1.8,1,1.8,2.5H47.6c0,.9.4,1.4,1.2,1.4s1.2-.6,1.2-.9Zm-2.3-1.2h2.4c0-.7-.3-1.3-1.2-1.3a1.3,1.3,0,0,0-1.2,1.3ZM57,34.7h-.7V28.8H57V31h0a1.31,1.31,0,0,1,1.2-.7A1.88,1.88,0,0,1,60,32.4c0,1-.4,2.4-1.9,2.4a1.33,1.33,0,0,1-1.2-.7h0C57,34.2,57,34.7,57,34.7Zm2.4-2.2c0-.5-.1-1.6-1.2-1.6S57,32,57,32.7c0,1.1.7,1.4,1.2,1.4.8.1,1.2-.6,1.2-1.6ZM63,34.7h-.7V30.4H63v.7h0a1.41,1.41,0,0,1,1.2-.8h.2V31h-.3A1,1,0,0,0,63,32.1v2.6Zm3.7-3H66c0-1,.7-1.4,1.8-1.4.3,0,1.6.1,1.6,1.2V34c0,.2.1.3.2.3h.2v.5c-.1,0-.2.1-.4.1-.6,0-.7-.3-.8-.7a2,2,0,0,1-1.6.7,1.18,1.18,0,0,1-1.3-1.2c0-.4.1-1.2,1.3-1.3l1.2-.1c.2,0,.4-.1.4-.5s-.3-.7-1-.7C66.8,30.9,66.7,31.4,66.7,31.7Zm2,1.5v-.7c-.1.1-.3.2-1.2.3-.4,0-.9.2-.9.7s.2.7.8.7,1.3-.4,1.3-1Zm5.8-1.3a.92.92,0,0,0-1-.9c-.9,0-1.2.9-1.2,1.6s.2,1.6,1.2,1.6a1.07,1.07,0,0,0,1-1h.7a1.69,1.69,0,0,1-1.8,1.6,1.89,1.89,0,0,1-1.9-2.1c0-1.3.6-2.4,2.1-2.4a1.52,1.52,0,0,1,1.6,1.6Zm5.6,1.5h.7a1.75,1.75,0,0,1-.8,1.2,2.2,2.2,0,0,1-1.2.3,1.89,1.89,0,0,1-1.9-2.1c0-1.3.6-2.4,2.1-2.4,1.2,0,1.8,1,1.8,2.5H77.7c0,.9.4,1.4,1.2,1.4A1.5,1.5,0,0,0,80.1,33.4Zm-2.4-1.2h2.4c0-.7-.3-1.3-1.2-1.3a1.3,1.3,0,0,0-1.2,1.3Zm5.2,2.5V28.8h.7v5.9Zm6-1.3h.7a1.75,1.75,0,0,1-.8,1.2,2.2,2.2,0,0,1-1.2.3,1.89,1.89,0,0,1-1.9-2.1c0-1.3.6-2.4,2.1-2.4,1.2,0,1.8,1,1.8,2.5H86.5c0,.9.4,1.4,1.2,1.4S88.9,33.7,88.9,33.4Zm-2.4-1.2h2.4c0-.7-.3-1.3-1.2-1.3a1.39,1.39,0,0,0-1.2,1.3ZM92.6,31v2.8c0,.3.3.3.4.3h.3v.6a1.21,1.21,0,0,0-.5.1.79.79,0,0,1-.9-.9V31h-.6v-.6h.6V29.2h.7v1.2h.7V31Zm8.6.6c0-.3-.1-.7-1-.7-.2,0-.9.1-.9.6s.2.4.8.6l.7.2c.9.2,1.2.5,1.2,1.1,0,.9-.7,1.4-1.7,1.4-1.7,0-1.8-1-1.8-1.5h.7c0,.3.1.9,1.1.9.5,0,1-.2,1-.7,0-.3-.2-.5-.9-.6l-.8-.2a1.07,1.07,0,0,1-1-1,1.48,1.48,0,0,1,1.6-1.4c1.5,0,1.6,1.1,1.6,1.3Zm2.9-2v-.8h1v.8Zm0,5.1V30.4h1v4.3Zm6.5,0h-.7V32.1c0-.7-.2-1.1-.9-1.1-.4,0-1.1.3-1.1,1.4v2.3h-.7V30.4h.7V31h0a1.79,1.79,0,0,1,1.3-.7,1.36,1.36,0,0,1,1.5,1.5l-.1,2.9Zm5-2.8a.92.92,0,0,0-1-.9c-.9,0-1.2.9-1.2,1.6s.2,1.6,1.2,1.6a1.07,1.07,0,0,0,1-1h.7a1.66,1.66,0,0,1-1.7,1.6,1.89,1.89,0,0,1-1.9-2.1c0-1.3.6-2.4,2.1-2.4a1.52,1.52,0,0,1,1.6,1.6Zm5.5,1.5h.7a1.75,1.75,0,0,1-.8,1.2,2.2,2.2,0,0,1-1.2.3,1.89,1.89,0,0,1-1.9-2.1c0-1.3.6-2.4,2.1-2.4,1.2,0,1.8,1,1.8,2.5h-3.1c0,.9.4,1.4,1.2,1.4S121.1,33.7,121.1,33.4Zm-2.3-1.2h2.4c0-.7-.3-1.3-1.2-1.3a1.3,1.3,0,0,0-1.2,1.3Zm11.1,2.5h-.8V30.6h-1.3V30c.9-.1,1.3-.2,1.6-1.1h.6v5.8Zm3.1-5.6h4v.6a9.49,9.49,0,0,0-2.4,5h-.8a9.82,9.82,0,0,1,2.4-4.9H133v-.7Zm9.6,1.4h-.7a1,1,0,0,0-1-.9c-1.1,0-1.4,1.5-1.4,2.1h0a1.57,1.57,0,0,1,1.4-.7,1.78,1.78,0,0,1,1.8,1.8,1.82,1.82,0,0,1-.6,1.4,2,2,0,0,1-3-.2,4,4,0,0,1-.4-2c0-1.3.4-3.1,2.1-3.1a1.62,1.62,0,0,1,1.8,1.6Zm-2.9,2.4a1.23,1.23,0,0,0,1.2,1.3c.7,0,1.1-.5,1.1-1.3a1.15,1.15,0,0,0-1.2-1.2c-.8,0-1.1.5-1.1,1.2Zm5.8-1.6a1.6,1.6,0,0,1,1.1-.4,1.88,1.88,0,0,1,1.9,1.8,1.93,1.93,0,0,1-2.1,2,1.73,1.73,0,0,1-1.9-1.6h.7a1.11,1.11,0,0,0,1.2,1,1.24,1.24,0,0,0,1.2-1.3,1.26,1.26,0,0,0-1.3-1.3,1.61,1.61,0,0,0-1.1.5h-.6l.4-3.1h3v.7h-2.4l-.1,1.7Z"></path>
</svg>
