<svg xmlns="http://www.w3.org/2000/svg" width="100" height="49.57" viewBox="0 0 100 49.57">
  <g id="d" transform="translate(91.98 -229.88)">
    <path id="Path_1" data-name="Path 1" d="M226.04,582.326h.216a.5.5,0,0,1,.237.06.2.2,0,0,1,.09.091,1.2,1.2,0,0,1,.033.376v2.6c0,.3-.04.39-.057.412a.357.357,0,0,1-.3.117h-.216v.255h1.869v-.255h-.219a.475.475,0,0,1-.234-.062.209.209,0,0,1-.093-.09,1.2,1.2,0,0,1-.033-.376v-2.6c0-.3.041-.389.059-.412a.356.356,0,0,1,.3-.117h.219v-.256H226.04Z" transform="translate(-277.103 -306.876)" fill-rule="evenodd"/>
    <path id="Path_2" data-name="Path 2" d="M245.882,583.622a6.013,6.013,0,0,0-.78-.472,3.214,3.214,0,0,1-.853-.576.435.435,0,0,1-.111-.288.5.5,0,0,1,.178-.374.646.646,0,0,1,.461-.169,1,1,0,0,1,.493.131.927.927,0,0,1,.365.349,1.712,1.712,0,0,1,.183.611l.009.063h.246V581.36h-.241l-.013.058a.312.312,0,0,1-.058.148.11.11,0,0,1-.077.026.609.609,0,0,1-.2-.068,1.767,1.767,0,0,0-.709-.163,1.266,1.266,0,0,0-.9.332,1.063,1.063,0,0,0-.355.8,1.035,1.035,0,0,0,.121.493,1.342,1.342,0,0,0,.35.4,6.342,6.342,0,0,0,.742.467,7.223,7.223,0,0,1,.623.373.828.828,0,0,1,.234.257.56.56,0,0,1,.072.265.535.535,0,0,1-.19.408.773.773,0,0,1-.537.176,1.165,1.165,0,0,1-.553-.134.928.928,0,0,1-.371-.331,1.917,1.917,0,0,1-.2-.623l-.01-.06h-.243v1.525h.244l.009-.062a.29.29,0,0,1,.044-.144.085.085,0,0,1,.066-.023,1.536,1.536,0,0,1,.344.09,3.232,3.232,0,0,0,.39.109,1.941,1.941,0,0,0,.342.028,1.358,1.358,0,0,0,.961-.351,1.115,1.115,0,0,0,.377-.84,1.079,1.079,0,0,0-.12-.493A1.169,1.169,0,0,0,245.882,583.622Z" transform="translate(-292.334 -306.258)" fill-rule="evenodd"/>
    <path id="Path_3" data-name="Path 3" d="M158.391,583.622a6.013,6.013,0,0,0-.78-.472,3.214,3.214,0,0,1-.853-.576.435.435,0,0,1-.111-.288.5.5,0,0,1,.179-.374.646.646,0,0,1,.461-.169,1,1,0,0,1,.493.131.927.927,0,0,1,.365.349,1.712,1.712,0,0,1,.183.611l.009.063h.246V581.36h-.241l-.013.058a.312.312,0,0,1-.058.148.11.11,0,0,1-.077.026.609.609,0,0,1-.2-.068,1.767,1.767,0,0,0-.709-.163,1.266,1.266,0,0,0-.9.332,1.063,1.063,0,0,0-.355.8,1.035,1.035,0,0,0,.121.493,1.342,1.342,0,0,0,.35.4,6.456,6.456,0,0,0,.742.467,7.22,7.22,0,0,1,.623.373.828.828,0,0,1,.234.257.56.56,0,0,1,.072.265.535.535,0,0,1-.19.408.773.773,0,0,1-.537.176,1.165,1.165,0,0,1-.553-.134.928.928,0,0,1-.371-.331,1.916,1.916,0,0,1-.2-.623l-.01-.06h-.243v1.525h.244l.009-.062a.29.29,0,0,1,.044-.144.085.085,0,0,1,.066-.023,1.536,1.536,0,0,1,.344.09,3.232,3.232,0,0,0,.39.109,1.931,1.931,0,0,0,.342.028,1.358,1.358,0,0,0,.961-.351,1.115,1.115,0,0,0,.377-.84,1.079,1.079,0,0,0-.12-.493A1.188,1.188,0,0,0,158.391,583.622Z" transform="translate(-216.1 -306.258)" fill-rule="evenodd"/>
    <path id="Path_4" data-name="Path 4" d="M184.353,582.291h.073a.794.794,0,0,1,.269.037.154.154,0,0,1,.073.057.143.143,0,0,1,.028.085,1.862,1.862,0,0,1-.126.486l-.7,2.016-.7-1.988a1.773,1.773,0,0,1-.13-.5.174.174,0,0,1,.054-.139.282.282,0,0,1,.193-.051h.18v-.256h-1.711v.256h.073a.653.653,0,0,1,.154.013.512.512,0,0,1,.129.067.293.293,0,0,1,.077.077,1.446,1.446,0,0,1,.131.243l.2.584-.591,1.7-.722-2.059a1.821,1.821,0,0,1-.126-.454.15.15,0,0,1,.058-.117.291.291,0,0,1,.193-.053h.144v-.256H179.95v.256h.073a.52.52,0,0,1,.243.046.32.32,0,0,1,.131.136c.013.024.051.115.166.434l1.212,3.386h.21l.858-2.425.865,2.425h.221L185.067,583a3.31,3.31,0,0,1,.181-.482.494.494,0,0,1,.16-.184.442.442,0,0,1,.219-.046h.073v-.256h-1.346v.261Z" transform="translate(-236.943 -306.841)" fill-rule="evenodd"/>
    <path id="Path_5" data-name="Path 5" d="M419.278,585.122a2.241,2.241,0,0,1-.363.536.665.665,0,0,1-.268.169,1.761,1.761,0,0,1-.473.044h-.682a.449.449,0,0,1-.189-.023.128.128,0,0,1-.053-.055,1.194,1.194,0,0,1-.018-.3V584.24h.811a.825.825,0,0,1,.341.053.3.3,0,0,1,.142.129,1.365,1.365,0,0,1,.076.355l.009.063h.246v-1.545H418.6l0,.07a.605.605,0,0,1-.148.43.639.639,0,0,1-.41.085h-.811v-1.442h1.029a1.274,1.274,0,0,1,.39.039.408.408,0,0,1,.19.153,1.35,1.35,0,0,1,.127.409l.012.059h.253l-.051-1.027H415.94v.256h.216a.4.4,0,0,1,.3.093c.018.021.059.1.059.425v2.612a1.329,1.329,0,0,1-.028.363.178.178,0,0,1-.1.1.492.492,0,0,1-.234.06h-.216v.255h3.223l.4-1.154H419.3Z" transform="translate(-442.57 -306.876)" fill-rule="evenodd"/>
    <path id="Path_6" data-name="Path 6" d="M272.141,583.622a6.013,6.013,0,0,0-.78-.472,3.214,3.214,0,0,1-.853-.576.435.435,0,0,1-.111-.288.5.5,0,0,1,.179-.374.646.646,0,0,1,.461-.169,1,1,0,0,1,.493.131.927.927,0,0,1,.365.349,1.712,1.712,0,0,1,.183.611l.009.063h.246V581.36h-.241l-.013.058a.312.312,0,0,1-.058.148.11.11,0,0,1-.077.026.609.609,0,0,1-.2-.068,1.767,1.767,0,0,0-.709-.163,1.266,1.266,0,0,0-.9.332,1.063,1.063,0,0,0-.355.8,1.035,1.035,0,0,0,.121.493,1.342,1.342,0,0,0,.35.4,6.454,6.454,0,0,0,.742.467,7.216,7.216,0,0,1,.623.373.828.828,0,0,1,.234.257.56.56,0,0,1,.072.265.535.535,0,0,1-.19.408.773.773,0,0,1-.537.176,1.165,1.165,0,0,1-.553-.134.928.928,0,0,1-.371-.331,1.917,1.917,0,0,1-.2-.623l-.01-.06h-.243v1.525h.244l.009-.062a.289.289,0,0,1,.044-.144.085.085,0,0,1,.066-.023,1.536,1.536,0,0,1,.344.09,3.232,3.232,0,0,0,.39.109,1.941,1.941,0,0,0,.342.028,1.358,1.358,0,0,0,.961-.351,1.115,1.115,0,0,0,.377-.84,1.079,1.079,0,0,0-.12-.493A1.2,1.2,0,0,0,272.141,583.622Z" transform="translate(-315.215 -306.258)" fill-rule="evenodd"/>
    <path id="Path_7" data-name="Path 7" d="M384.83,582.29a3.688,3.688,0,0,0-1.4-.21h-1.71v.256h.224a.371.371,0,0,1,.289.105c.019.022.064.108.064.423v2.6a.822.822,0,0,1-.054.4.329.329,0,0,1-.3.131h-.224v.255h1.869a2.323,2.323,0,0,0,1.8-.652,2.09,2.09,0,0,0,.529-1.451,2.189,2.189,0,0,0-.3-1.14A1.7,1.7,0,0,0,384.83,582.29Zm-.17,3.142a1.432,1.432,0,0,1-1.088.461,2.78,2.78,0,0,1-.558-.069v-3.3a2.389,2.389,0,0,1,.535-.071,1.444,1.444,0,0,1,1.112.458,2.049,2.049,0,0,1,0,2.524Z" transform="translate(-412.753 -306.885)" fill-rule="evenodd"/>
    <path id="Path_8" data-name="Path 8" d="M351.224,585.236a1.4,1.4,0,0,1-.287-.5l-1.418-3.389h-.2l-1.433,3.353a1.739,1.739,0,0,1-.318.553.615.615,0,0,1-.288.1l-.06.01v.243h1.411v-.25l-.068-.005a.688.688,0,0,1-.338-.075.126.126,0,0,1-.059-.1.908.908,0,0,1,.1-.322l.253-.591h1.46l.224.533a1.185,1.185,0,0,1,.113.383.131.131,0,0,1-.058.109.511.511,0,0,1-.283.064l-.069,0v.252h1.733v-.251l-.068,0A.552.552,0,0,1,351.224,585.236Zm-2.557-1.338.588-1.365.574,1.365Z" transform="translate(-382.691 -306.249)" fill-rule="evenodd"/>
    <path id="Path_9" data-name="Path 9" d="M308.32,585.114l-1.411-3.044H305.65v.256h.073a.773.773,0,0,1,.323.049.259.259,0,0,1,.121.112.872.872,0,0,1,.051.353v2.627a.8.8,0,0,1-.051.39.339.339,0,0,1-.3.124h-.215v.255h1.544v-.255h-.215a.374.374,0,0,1-.292-.1c-.018-.022-.062-.1-.062-.414v-2.353l1.433,3.123h.192l1.431-3.121v2.352a.781.781,0,0,1-.053.391.336.336,0,0,1-.3.122h-.216v.255h1.854v-.255h-.212a.373.373,0,0,1-.292-.1c-.019-.022-.066-.106-.066-.413v-2.627a.81.81,0,0,1,.053-.391.342.342,0,0,1,.3-.122h.212v-.256h-1.258Z" transform="translate(-346.47 -306.876)" fill-rule="evenodd"/>
    <path id="Path_10" data-name="Path 10" d="M-23.961,503.853a.942.942,0,0,1-.3.057.532.532,0,0,1-.172-.027,1.907,1.907,0,0,1-.616-.476L-28.7,499.78l-.311.129-.064,5.105a2.362,2.362,0,0,1-.112.863c-.012.027-.066.107-.3.259l-.1.066.161.389,1.9-.784-.166-.4-.129.042a1.43,1.43,0,0,1-.4.087.2.2,0,0,1-.05-.005c-.073-.022-.094-.053-.1-.077a1.207,1.207,0,0,1-.045-.446l.012-.865,1.824-.754.551.547a1.649,1.649,0,0,1,.341.418.142.142,0,0,1-.014.133c-.015.028-.076.1-.31.215l-.125.059.166.4,2.312-.955-.166-.4Zm-3.072-.924-1.37.566.028-1.9Z" transform="translate(-54.363 -235.174)" fill-rule="evenodd"/>
    <path id="Path_11" data-name="Path 11" d="M13.223,481.471a3.035,3.035,0,0,1-.549,1.11,1.777,1.777,0,0,1-.78.482,2.116,2.116,0,0,1-.657.111,1.819,1.819,0,0,1-.417-.049,1.693,1.693,0,0,1-.886-.538,3.143,3.143,0,0,1-.612-1.123,3.9,3.9,0,0,1-.229-1.487,1.62,1.62,0,0,1,1.159-1.534,1.844,1.844,0,0,1,.567-.1,1.538,1.538,0,0,1,.537.1,2.269,2.269,0,0,1,1.007.888l.062.089.373-.122-.825-2.038-.376.124.01.115a.521.521,0,0,1-.032.26.124.124,0,0,1-.075.066.14.14,0,0,1-.033,0,1.068,1.068,0,0,1-.163-.018,3.05,3.05,0,0,0-.454-.035,2.711,2.711,0,0,0-.843.133,2.969,2.969,0,0,0-1.311.857,2.891,2.891,0,0,0-.677,1.427,3.371,3.371,0,0,0,.13,1.651,3.106,3.106,0,0,0,1.159,1.613,2.573,2.573,0,0,0,1.516.5h0a3.174,3.174,0,0,0,.983-.167,2.656,2.656,0,0,0,1.226-.79,3.09,3.09,0,0,0,.623-1.413l.027-.135-.414-.105Z" transform="translate(-87.09 -215.551)" fill-rule="evenodd"/>
    <path id="Path_12" data-name="Path 12" d="M60.118,474.4a2.342,2.342,0,0,1-.337.026,2.011,2.011,0,0,1-.758-.147,2.961,2.961,0,0,1-.952-.672,2.981,2.981,0,0,0,1.114-1.333,3.123,3.123,0,0,0,.157-1.976,3.049,3.049,0,0,0-1.32-1.952,2.685,2.685,0,0,0-2.151-.4,2.816,2.816,0,0,0-1.823,1.319,3.012,3.012,0,0,0-.337,2.324,3.346,3.346,0,0,0,.612,1.339,2.938,2.938,0,0,0,1.037.823,4.089,4.089,0,0,0,1.041.288,6.158,6.158,0,0,0,1.155.537,5.429,5.429,0,0,0,1.364.292c.158.013.314.019.462.019a4.226,4.226,0,0,0,.816-.075l.149-.028-.1-.408Zm-2.043-1.774a1.4,1.4,0,0,1-.993.759,1.551,1.551,0,0,1-.353.042,1.3,1.3,0,0,1-.821-.295,3.158,3.158,0,0,1-.993-1.824A2.979,2.979,0,0,1,55,469.269a1.361,1.361,0,0,1,.96-.722,1.567,1.567,0,0,1,.356-.042,1.42,1.42,0,0,1,.473.081,1.578,1.578,0,0,1,.718.567,4.044,4.044,0,0,1,.655,1.52A2.9,2.9,0,0,1,58.075,472.623Z" transform="translate(-126.864 -207.37)" fill-rule="evenodd"/>
    <path id="Path_13" data-name="Path 13" d="M103.906,454.138l.354-.068-.084-.44-2.263.434.085.44.354-.068a.728.728,0,0,1,.144-.014.4.4,0,0,1,.251.076c.017.013.1.1.187.543l.432,2.259a3.513,3.513,0,0,1,.084,1.233,1.159,1.159,0,0,1-.425.642,1.9,1.9,0,0,1-.867.395,1.85,1.85,0,0,1-.344.035,1.191,1.191,0,0,1-.34-.046,1.053,1.053,0,0,1-.462-.262,1.5,1.5,0,0,1-.308-.557,5.608,5.608,0,0,1-.2-.713l-.466-2.432a1.054,1.054,0,0,1-.024-.551.425.425,0,0,1,.346-.226l.356-.068-.084-.44-2.7.517.084.44.354-.068a.9.9,0,0,1,.157-.017.345.345,0,0,1,.216.062c.048.036.139.157.216.558l.418,2.181a4.856,4.856,0,0,0,.414,1.4,1.891,1.891,0,0,0,.9.781,1.991,1.991,0,0,0,.78.14,4.009,4.009,0,0,0,.751-.08,2.537,2.537,0,0,0,1.339-.625,1.818,1.818,0,0,0,.543-1,4.153,4.153,0,0,0-.085-1.383l-.434-2.262a1.133,1.133,0,0,1-.035-.527A.434.434,0,0,1,103.906,454.138Z" transform="translate(-165.484 -194.962)" fill-rule="evenodd"/>
    <path id="Path_14" data-name="Path 14" d="M153.926,448.505a.408.408,0,0,1,.27.076c.014.013.089.1.151.566l.493,3.711a1.858,1.858,0,0,1,.028.507.212.212,0,0,1-.1.139.663.663,0,0,1-.3.122l-.347.046.059.444,4.65-.618.363-1.8-.458.06-.03.084a3.158,3.158,0,0,1-.408.818.884.884,0,0,1-.333.278,2.526,2.526,0,0,1-.651.148l-.969.129a1.291,1.291,0,0,1-.169.013.286.286,0,0,1-.082-.008.127.127,0,0,1-.064-.051,1.75,1.75,0,0,1-.077-.405l-.232-1.74,1.11-.148a1.976,1.976,0,0,1,.259-.019.727.727,0,0,1,.219.027.394.394,0,0,1,.2.142,1.984,1.984,0,0,1,.17.477l.033.122.426-.057-.3-2.277-.437.058.01.138a.833.833,0,0,1-.118.609c-.04.048-.165.134-.542.184l-1.11.148-.261-1.969,1.423-.189a3.119,3.119,0,0,1,.39-.031.774.774,0,0,1,.154.012.54.54,0,0,1,.279.169,1.886,1.886,0,0,1,.251.546l.039.113.436-.058-.283-1.53-4.685.623.059.445.347-.046C153.835,448.508,153.883,448.505,153.926,448.505Z" transform="translate(-213.791 -189.612)" fill-rule="evenodd"/>
    <path id="Path_15" data-name="Path 15" d="M199.665,446.013a1.97,1.97,0,0,0,.556.533,8.741,8.741,0,0,0,1.11.564,10.006,10.006,0,0,1,.919.441,1.116,1.116,0,0,1,.349.319.754.754,0,0,1,.129.345.711.711,0,0,1-.2.566,1.036,1.036,0,0,1-.705.3c-.055.005-.109.008-.163.008a1.585,1.585,0,0,1-.612-.121,1.274,1.274,0,0,1-.546-.4,2.661,2.661,0,0,1-.354-.836l-.032-.117-.421.039.2,2.23.423-.039.008-.125a.478.478,0,0,1,.032-.183.074.074,0,0,1,.059-.026h.012a2.647,2.647,0,0,1,.472.082,4.487,4.487,0,0,0,.569.105c.071.006.144.009.217.009.089,0,.181,0,.275-.013a1.958,1.958,0,0,0,1.336-.63,1.62,1.62,0,0,0,.434-1.263,1.566,1.566,0,0,0-.237-.7,1.739,1.739,0,0,0-.539-.539,8.416,8.416,0,0,0-1.164-.567,4.51,4.51,0,0,1-1.261-.692.569.569,0,0,1-.179-.364.664.664,0,0,1,.192-.517.866.866,0,0,1,.6-.282c.041,0,.081-.005.122-.005a1.412,1.412,0,0,1,.567.124,1.251,1.251,0,0,1,.54.428,2.37,2.37,0,0,1,.328.821l.028.124.426-.039-.2-2.246-.416.037-.014.117a.416.416,0,0,1-.051.192.109.109,0,0,1-.082.032.964.964,0,0,1-.273-.067,2.665,2.665,0,0,0-.845-.149,2,2,0,0,0-1.433.606,1.545,1.545,0,0,0-.408,1.2A1.488,1.488,0,0,0,199.665,446.013Z" transform="translate(-253.905 -186.004)" fill-rule="evenodd"/>
    <path id="Path_16" data-name="Path 16" d="M272.146,447.515a.735.735,0,0,1-.257.062.128.128,0,0,1-.089-.033.253.253,0,0,1-.062-.142,5.393,5.393,0,0,1-.026-.789l.018-4.481h-.315l-1.247.506.127.349.1-.039a.736.736,0,0,1,.246-.058.14.14,0,0,1,.1.03.247.247,0,0,1,.058.139,5.9,5.9,0,0,1,.026.775v.47a1.3,1.3,0,0,0-.723-.2,1.692,1.692,0,0,0-1.4.713,2.53,2.53,0,0,0-.542,1.553,2.036,2.036,0,0,0,.485,1.4,1.529,1.529,0,0,0,1.167.56,1.432,1.432,0,0,0,.611-.134,1.776,1.776,0,0,0,.385-.257v.4h.322l1.238-.508-.111-.353Zm-3.011-1.473a1.765,1.765,0,0,1,.354-1.182.735.735,0,0,1,.564-.286v-.109h0l0,.109a.676.676,0,0,1,.344.105.748.748,0,0,1,.284.306,1.254,1.254,0,0,1,.134.461l-.008,1.9a.883.883,0,0,1-.619.309.931.931,0,0,1-.723-.407A1.9,1.9,0,0,1,269.135,446.041Z" transform="translate(-313.803 -184.941)" fill-rule="evenodd"/>
    <path id="Path_17" data-name="Path 17" d="M302.1,462.247h.067a1.231,1.231,0,0,0,.53-.12,2.716,2.716,0,0,0,.609-.455l-.033.636.315.017,1.276-.449-.121-.359-.107.041a.643.643,0,0,1-.226.049h-.021a.123.123,0,0,1-.086-.036.26.26,0,0,1-.055-.147,5.221,5.221,0,0,1,.013-.78l.126-2.4-1.5-.078-.019.369.107.008c.284.022.38.08.41.112s.078.122.066.36l-.109,2.095a2.032,2.032,0,0,1-.493.347.889.889,0,0,1-.335.082h-.024a.529.529,0,0,1-.363-.157c-.064-.064-.136-.224-.116-.619l.138-2.636-1.541-.081-.019.373.111,0a.866.866,0,0,1,.356.058.268.268,0,0,1,.118.121.7.7,0,0,1,.027.322l-.089,1.685a2.964,2.964,0,0,0,.05.854,1.067,1.067,0,0,0,.333.546A1.011,1.011,0,0,0,302.1,462.247Z" transform="translate(-342.052 -198.813)" fill-rule="evenodd"/>
    <path id="Path_18" data-name="Path 18" d="M475.973,469.745a1.915,1.915,0,0,1-.229-.744l-.886-5.067-.329-.075-3,4.134a2.415,2.415,0,0,1-.589.641.61.61,0,0,1-.283.04l-.113,0-.122-.005-.093.409,2,.455.1-.423-.13-.04c-.311-.1-.394-.166-.414-.192-.054-.068-.044-.108-.041-.122a1.228,1.228,0,0,1,.221-.391l.508-.7,1.925.437.135.764a1.674,1.674,0,0,1,.037.539.142.142,0,0,1-.089.1.334.334,0,0,1-.14.022,1.342,1.342,0,0,1-.237-.024l-.136-.023-.1.426,2.439.553.1-.425-.131-.039A.746.746,0,0,1,475.973,469.745Zm-1.572-2.279-1.445-.328,1.118-1.534Z" transform="translate(-489.962 -203.876)" fill-rule="evenodd"/>
    <path id="Path_19" data-name="Path 19" d="M529.115,474.122l.329.1.13-.426-2.142-.655-.13.426.326.1a.471.471,0,0,1,.322.229c.005.01.045.118-.085.546l-.823,2.7-1.916-4.7-1.658-.507-.13.426.139.042a1.2,1.2,0,0,1,.3.121,1.217,1.217,0,0,1,.27.238,2.154,2.154,0,0,1,.2.389l-1.123,3.671c-.118.387-.2.466-.212.477a.331.331,0,0,1-.211.067.717.717,0,0,1-.206-.035l-.324-.1-.13.425,2.141.655.13-.425-.328-.1a.484.484,0,0,1-.32-.226c-.008-.018-.04-.126.089-.546l.889-2.906,2.082,5.076.349.107,1.422-4.65c.116-.378.193-.462.214-.479a.324.324,0,0,1,.208-.067A.675.675,0,0,1,529.115,474.122Z" transform="translate(-535.019 -210.907)" fill-rule="evenodd"/>
    <path id="Path_20" data-name="Path 20" d="M580.464,498.623a3.016,3.016,0,0,0,.033-2.324,2.691,2.691,0,0,0-1.522-1.556,2.942,2.942,0,0,0-1.108-.224,2.856,2.856,0,0,0-1.022.193,2.994,2.994,0,0,0-1.74,1.759,3.108,3.108,0,0,0-.068,2.375,2.733,2.733,0,0,0,1.574,1.57,2.811,2.811,0,0,0,1.056.214,2.868,2.868,0,0,0,1.181-.266A3.1,3.1,0,0,0,580.464,498.623Zm-1.189-.36a2.881,2.881,0,0,1-1.137,1.532,1.544,1.544,0,0,1-.733.2,1.561,1.561,0,0,1-.582-.118,1.3,1.3,0,0,1-.807-.872,3.2,3.2,0,0,1,.242-2.079,3.031,3.031,0,0,1,1.22-1.6,1.323,1.323,0,0,1,.646-.174,1.474,1.474,0,0,1,.556.116,1.374,1.374,0,0,1,.867.9A3.245,3.245,0,0,1,579.275,498.263Z" transform="translate(-581.02 -230.591)" fill-rule="evenodd"/>
    <path id="Path_21" data-name="Path 21" d="M614.92,513.655a.239.239,0,0,1-.053-.14,1.651,1.651,0,0,1,.184-.476l1.585-3.251c.188-.386.287-.449.3-.458a.332.332,0,0,1,.147-.033.623.623,0,0,1,.262.071l.314.153.2-.4-2.419-1.18-.2.4.31.151a.634.634,0,0,1,.242.206.245.245,0,0,1,.05.14,1.656,1.656,0,0,1-.184.476l-1.585,3.251c-.189.389-.286.452-.3.461a.332.332,0,0,1-.147.033.619.619,0,0,1-.265-.072l-.31-.151-.194.4,2.419,1.18.194-.4-.314-.153A.609.609,0,0,1,614.92,513.655Z" transform="translate(-614.154 -242.284)" fill-rule="evenodd"/>
    <path id="Path_22" data-name="Path 22" d="M641.743,524.3a1.651,1.651,0,0,0-.405-.853,4.908,4.908,0,0,0-1.092-.817l-1.872-1.126-.229.382.3.184a.467.467,0,0,1,.248.3c0,.012.015.126-.22.518l-1.863,3.1c-.207.344-.3.408-.326.419a.327.327,0,0,1-.143.033.532.532,0,0,1-.273-.09l-.3-.183-.229.381,2.306,1.386.229-.381-.314-.188a.454.454,0,0,1-.242-.3c0-.012-.015-.129.221-.521l.759-1.263c.03.019.057.035.084.052.063.037.14.082.234.135l.277,3.215,1.471.884.221-.368-.1-.08a1.6,1.6,0,0,1-.476-.53,2.792,2.792,0,0,1-.19-.928l-.145-1.759a2.308,2.308,0,0,0,.588.082,1.521,1.521,0,0,0,.461-.067,1.453,1.453,0,0,0,.831-.659A1.419,1.419,0,0,0,641.743,524.3Zm-1.269.382a.96.96,0,0,1-.7.479,1.006,1.006,0,0,1-.166.014,1.911,1.911,0,0,1-.948-.319l-.054-.035-.018-.012,1.061-1.768a2.963,2.963,0,0,1,.459.212,1.041,1.041,0,0,1,.51.639A1,1,0,0,1,640.475,524.678Z" transform="translate(-633.741 -254.099)" fill-rule="evenodd"/>
    <path id="Path_23" data-name="Path 23" d="M369,427.079a2.351,2.351,0,0,1-.076-1.382l.989-7.89a2.62,2.62,0,0,1,.351-1.24,1.211,1.211,0,0,1,1.121-.315l.408.051.039-.307q-1.6-.32-3.227-.6l-5.44,8.829-3.17-9.977q-.789-.075-1.584-.142l-.163-.013q-.745-.062-1.5-.113l-.044.342a2.412,2.412,0,0,1,1.022.3.884.884,0,0,1,.394.476,2.932,2.932,0,0,1,.03,1.148l-1.015,8.03a2.634,2.634,0,0,1-.347,1.238,1.2,1.2,0,0,1-1.114.319l-.414-.051-.04.319h0q2.086.12,4.124.306h0l.04-.319-.414-.051a1.293,1.293,0,0,1-.968-.49,2.421,2.421,0,0,1-.064-1.379l.986-7.911,3.3,10.449.287.036,5.768-9.31-1,7.859a2.671,2.671,0,0,1-.347,1.238,1.194,1.194,0,0,1-1.114.319l-.417-.053-.04.319.086.014q2.457.355,4.811.8l.078.013.04-.319-.408-.051A1.31,1.31,0,0,1,369,427.079Z" transform="translate(-389.662 -160.413)" fill-rule="evenodd"/>
    <path id="Path_24" data-name="Path 24" d="M-85.418,492.72l-2.693-5.006a2.57,2.57,0,0,1-.441-1.265,1.229,1.229,0,0,1,.718-.861l.373-.2-.149-.279q-2.277,1.1-4.369,2.308l.149.279.323-.171a1.6,1.6,0,0,1,.787-.189.765.765,0,0,1,.493.156,3.883,3.883,0,0,1,.65.977l3.774,7.022a1.823,1.823,0,0,1,.3.983.558.558,0,0,1-.248.457c-.181.1-.405.04-.666-.169a2.916,2.916,0,0,0-.946-.589.756.756,0,0,0-.52.075.938.938,0,0,0-.458.548.863.863,0,0,0,.112.663,1.192,1.192,0,0,0,.841.588,1.9,1.9,0,0,0,1.311-.25,2.515,2.515,0,0,0,1.213-1.339,3.306,3.306,0,0,0,.2-1.723A6.477,6.477,0,0,0-85.418,492.72Z" transform="translate(0 -222.391)" fill-rule="evenodd"/>
    <path id="Path_25" data-name="Path 25" d="M244.127,239.781a.127.127,0,0,0,.13-.124v-.5a.851.851,0,0,1,.85-.85s.961,0,1.063,0c.057,0,.1,0,.136,0a.171.171,0,0,1,.135.167v2.43a.345.345,0,0,1-.129.28,5.594,5.594,0,0,0-1.572,2.425,6.042,6.042,0,0,0-.031,2.508,3.588,3.588,0,0,0,1.108,1.823,5.277,5.277,0,0,0,3.507,1.374,5.718,5.718,0,0,0,3.075-.823,4.076,4.076,0,0,0,1.55-1.844,3.484,3.484,0,0,0,.3-1.373.248.248,0,0,0,0-.031.176.176,0,1,0-.353,0,3.04,3.04,0,0,1-.62,1.3c-.337.377-1.145,1.119-3.609,1.28-2.527.019-3.742-.546-4.2-1.105a2.037,2.037,0,0,1-.418-1.815,1.689,1.689,0,0,1,1.671-1.007,4.183,4.183,0,0,1,2.539.827,15.836,15.836,0,0,1,1.568,1.254.167.167,0,0,0,.1.032.173.173,0,0,0,.1-.032,7.571,7.571,0,0,1,.986-1.194,5.177,5.177,0,0,1,2.348-1.278,9.945,9.945,0,0,1,2.154-.2h0a.172.172,0,0,0,.171-.167v0h0v-.048l0-3.353a2.361,2.361,0,0,0-.557-1.776,3.1,3.1,0,0,0-1.67-.669,10.378,10.378,0,0,0-1.5-.179,11.91,11.91,0,0,0,2.281-.767,3.272,3.272,0,0,0,1.6-1.877,3.38,3.38,0,0,0-.279-2.894,6.219,6.219,0,0,0-1.594-1.514.718.718,0,0,0-.516-.181c-.538,0-.836.758-2.189,1.517a12.877,12.877,0,0,1-4.6,1.7,21.661,21.661,0,0,1-2.81.248h0a.127.127,0,1,0,0,.255h1.4a.171.171,0,0,1,.171.171V235.8a.171.171,0,0,1-.171.171h-.525A1.744,1.744,0,0,0,244,237.714v1.935h0A.133.133,0,0,0,244.127,239.781Zm8.963-1.047v4.44h0a4.529,4.529,0,0,0-1.957-1.391.127.127,0,0,1-.073-.116v-4.3a.128.128,0,0,1,.127-.127h.582v0c.437,0,.637-.021.915.26A2.077,2.077,0,0,1,253.09,238.733Zm-2.032-6.343a.128.128,0,0,1,.127-.127h.3a2.362,2.362,0,0,1,0,4.724h-.3a.128.128,0,0,1-.127-.127Zm-1.105.428a.127.127,0,0,1,.084-.12c.211-.08.419-.166.627-.256a.132.132,0,0,1,.042-.008.128.128,0,0,1,.127.127v4.3a.128.128,0,0,1-.127.127h-.625a.128.128,0,0,1-.127-.127Zm-.4,7.3q.139-.006.274,0h0a.126.126,0,0,0,.124-.124v-2.626a.128.128,0,0,1,.127-.127h.625a.128.128,0,0,1,.127.127v4.125a.128.128,0,0,1-.127.127.118.118,0,0,1-.042-.008c-.229-.072-.464-.134-.71-.185h0q-.214-.044-.436-.077a6.5,6.5,0,0,0-2.874.183A3.383,3.383,0,0,1,249.552,240.123Z" transform="translate(-292.752)" fill-rule="evenodd"/>
  </g>
</svg>
