<?xml version="1.0" encoding="utf-8"?>
<!-- Generator: Adobe Illustrator 20.1.0, SVG Export Plug-In . SVG Version: 6.00 Build 0)  -->
<svg version="1.1" id="Calque_1" xmlns="http://www.w3.org/2000/svg" xmlns:xlink="http://www.w3.org/1999/xlink" x="0px" y="0px"
	 viewBox="0 0 425.2 141.7" style="enable-background:new 0 0 425.2 141.7;" xml:space="preserve">
<g>
	<g>
		<g>
			<g>
				<path d="M176.6,30.5c0-2.6,0.4-6.8-2.8-7.8v-0.2h12v0.2c-3.2,1.1-2.8,5.2-2.8,7.8v29.8c0,5.8-4.9,11.8-14.1,12.7
					v-0.2c7.2-3.5,7.7-7.5,7.7-13.6V30.5z"/>
			</g>
			<g>
				<path d="M220.5,30.5c0-2.6,0.4-6.8-2.8-7.8v-0.2h12v0.2c-3.2,1.1-2.8,5.3-2.8,7.8v21.4c0,2.6-0.4,6.7,2.8,7.8v0.2
					h-12v-0.2c3.2-1,2.8-5.2,2.8-7.8V30.5z"/>
			</g>
			<path d="M236,22.6L236,22.6c7.3,0.4,13.1,8.6,13.1,18.7c0,10.1-5.8,18.3-13.1,18.6v0c11.2-0.2,20.2-8.5,20.2-18.6
				C256.2,31,247.2,22.8,236,22.6z"/>
		</g>
		<g>
			<polygon points="193.9,14.1 199.8,17.1 201.2,10.6 202.6,17.1 208.5,14.1 204.3,19.3 210.4,22.1 203.7,22
				205.3,28.4 201.2,23.2 197.1,28.4 198.7,22 192.1,22.1 198.1,19.3 			"/>
		</g>
		<g>
			<polygon points="193.9,68.2 199.8,65.3 201.2,71.8 202.6,65.3 208.5,68.2 204.3,63.1 210.4,60.3 203.7,60.4
				205.3,53.9 201.2,59.2 197.1,53.9 198.7,60.4 192.1,60.3 198.1,63.1 			"/>
		</g>
	</g>
	<g>
		<path d="M42.4,90.1c2.7,0.9,2.4,4.3,2.4,6.4v23.4c0,5-0.6,7.8-6.4,11.1v0.1c7.7-0.7,11.8-3.4,11.8-8.4V96.5
			c0-2.1-0.3-5.5,2.3-6.4v-0.1H42.4V90.1z"/>
		<path d="M85.8,114.3l-9.5-23.8h-8.7v0.1c2.5,0.7,1.5,2.6,0.8,4.3l-7.8,19.3c-1.2,2.6-2.1,5.2-5.1,6.6v0.1h9.8v-0.1
			c-2.5-0.8-2.2-2.2-1.1-4.8l2.2-6.1h12l2.3,6.1c1.4,3.2,1.8,3.8-0.7,4.8v0.1h12l-1-0.1C87.9,119.6,87,117,85.8,114.3z M67.8,106.4
			l4.6-12.1l4.6,12.1H67.8z"/>
		<path d="M166,90.7l-0.1-0.2h-10v0.2c2.6,1,2.3,4.8,2.3,7.2v11.7c0,1.9,0,3.2-1.1,4.8c-1.7,2.5-4.7,3.7-7.7,3.7
			c-5.4,0-8.4-3.3-8.4-10.3v-9.9c0-2.4-0.3-6.2,2.3-7.2v-0.2h-10v0.2c2.7,1,2.3,4.8,2.3,7.2v9.9c0,3.8-0.1,7.3,2.7,10.4
			c2.4,2.6,6.1,3.7,9.5,3.7c3.7,0,8-1.3,10.3-4.3v3.5h7.7v-0.2c-2.7-1-2.4-4.8-2.4-7.2V98C163.6,95.5,163.3,91.7,166,90.7z"/>
		<path d="M189.6,117.2l-7.1-0.6v-10.2h4.3c1.6,0,3.8-0.1,4.7,1.5h0.2v-5.6h-0.2c-0.6,0.3-1.5,0.3-2.3,0.3h-6.7v-7.9
			c1.7-0.3,3.9-0.4,5.8-0.4c2.4,0,4.6,0.2,6.2,2.1h0.2v-6.2h-0.2c-0.7,0.4-1.6,0.3-2.5,0.3h-17.2v0.2c2.7,1,2.4,4.3,2.4,9v16.3
			c0,0.1,0.3,4-2.4,4.9v0.2h22.3l2.4-6.9h-0.2C196.7,116.4,193.1,117.5,189.6,117.2z"/>
		<path d="M228.1,90.5h-20h-1.3c-0.7-0.1-1.4-0.1-2-0.4h-0.1l-1.9,6.3h0.2c1.6-1.5,4-2.1,6.3-2.1h4.9v19.2
			c0,2.4,0.3,6.2-2.3,7.2v0.2H222v-0.2c-2.8-1.6-2.5-3.7-2.5-6.7V94.3h4.8c1.7,0,3.8,0.3,4.5,2.1h0.2l1.7-6.3h-0.2
			C229.8,90.5,229,90.5,228.1,90.5z"/>
		<path d="M386.7,114.3c-3.3,2-6.6,3.1-10.4,2.9l-11.1-0.6l17.7-26h-23.3l-2.7,6.1h0.2c2.7-1.8,4.6-2.5,7.9-2.3l9,0.5
			L356.2,121H384l2.9-6.7H386.7z"/>
		<path d="M336.5,89.8c-9.7-0.2-17.3,7.1-17.3,15.9c0,9.4,7.7,16,16.8,16c9.2,0,17-6.8,17-16.2
			C353,97.2,346.2,89.8,336.5,89.8z M336.2,118.3c-7,0-11.3-6.8-11.3-13c0-7.2,4.5-12.1,11.2-12.1c7.2,0,11.1,6.8,11.1,13.2
			C347.2,113.5,342.8,118.3,336.2,118.3z"/>
		<path d="M126.8,105.5c0-8.3-6.8-15.7-16.5-15.6c-9.7-0.2-17.3,7.1-17.3,15.9c0,9.4,7.7,16,16.8,16
			c1.5,0,3-0.2,4.4-0.5c4.2,3.3,10.8,8.2,15.5,8.2c2.1,0,4.2-0.8,5.9-2.1c-5.7,0-11.3-4.2-16.1-8.4
			C123.9,116,126.8,111.2,126.8,105.5z M98.7,105.3c0-7.2,4.5-12.1,11.2-12.1c7.2,0,11.1,6.8,11.1,13.2c0,7.1-4.4,11.9-11,11.9
			C103.1,118.3,98.7,111.5,98.7,105.3z"/>
		<path d="M262.6,90.5h-12.9v0.2c2.7,0.8,2.3,4.6,2.3,7.1v15.6c0,3.1,0.3,5.6-2.3,7.4v0.2h12.6
			c10.9,0,19.4-6.4,19.4-15.4C281.7,96.5,273.9,90.5,262.6,90.5z M261.3,117.5c-1.3,0-2.6-0.1-3.8-0.4V94.6c1.6-0.4,3.2-0.6,4.7-0.6
			c8.2,0,13.6,4,13.6,12.1C275.7,114.2,268.4,117.5,261.3,117.5z"/>
		<path d="M310.1,114.1l-5.6-7.6c4.5-1.2,8.3-4.3,8.3-8.4c0-4.1-4.8-7.5-11.4-7.5h-13.9v0.2c2.7,1,2.3,4.8,2.3,7.3v15.5
			c0,2.4,0.4,6.3-2.3,7.2v0.2h10.1v-0.2c-2.7-0.9-2.4-4.8-2.4-7.2V94c1.2-0.2,3.7-0.4,5-0.4c3.5-0.2,7.5,1.1,7.5,5.4
			c0,4.2-6,5.9-10.4,6.6l5.7,7.2l4.5,5.7c1.6,2,3.7,2.6,6.5,2.6h4.4C315.4,119.1,312.3,116.8,310.1,114.1z"/>
	</g>
</g>
</svg>
