<?xml version="1.0" encoding="UTF-8" standalone="no"?>
<svg
        xmlns:dc="http://purl.org/dc/elements/1.1/"
        xmlns:cc="http://creativecommons.org/ns#"
        xmlns:rdf="http://www.w3.org/1999/02/22-rdf-syntax-ns#"
        xmlns:svg="http://www.w3.org/2000/svg"
        xmlns="http://www.w3.org/2000/svg"
        viewBox="0 0 471.74667 114.16"
        height="114.16"
        width="471.74667"
        xml:space="preserve"
        version="1.1">
    <g
            transform="matrix(1.3333333,0,0,-1.3333333,0,114.16)"
            id="g10">
    <g
            transform="scale(0.1)"
            id="g12">
    <path
            id="path14"
            style="fill:#231f20;fill-opacity:1;fill-rule:nonzero;stroke:none"
            d="m 3492.04,803.344 h -8.4 v 17.883 h 11.64 c 6.25,0 12.25,-1.68 12.25,-8.883 0,-8.762 -7.68,-9 -15.49,-9 z m 21.85,9 c 0,9.242 -5.17,14.281 -16.81,14.281 h -19.79 V 775.02 h 6.35 v 22.925 h 10.69 l 14.52,-22.925 h 7.44 l -15.36,22.925 c 6.95,1.2 12.96,5.278 12.96,14.399"/>
        <path
                id="path16"
                style="fill:#231f20;fill-opacity:1;fill-rule:nonzero;stroke:none"
                d="m 3493.49,762.539 c -21.61,0 -37.69,16.922 -37.69,38.285 0,21.364 16.08,38.281 37.69,38.281 21.6,0 37.68,-16.917 37.68,-38.281 0,-21.363 -16.08,-38.285 -37.68,-38.285 z m 0,82.93 c -25.2,0 -44.65,-19.567 -44.65,-44.645 0,-25.082 19.45,-44.644 44.65,-44.644 25.19,0 44.64,19.562 44.64,44.644 0,25.078 -19.45,44.645 -44.64,44.645"/>
        <path
                id="path18"
                style="fill:#231f20;fill-opacity:1;fill-rule:nonzero;stroke:none"
                d="M 736.992,478.262 C 699,449.137 640.754,442.809 596.43,461.801 c -64.582,29.125 -78.508,98.769 -79.782,164.621 3.801,58.25 11.399,117.766 58.254,155.754 30.391,24.058 75.977,22.793 115.235,17.726 29.125,-7.597 59.515,-27.855 73.449,-56.98 34.187,-78.512 36.719,-197.547 -26.594,-264.66 z m 125.363,267.191 c -32.925,56.985 -91.171,92.442 -150.691,105.102 -86.113,16.465 -172.223,-2.532 -234.266,-60.782 -62.05,-60.781 -79.781,-153.222 -54.453,-236.8 22.793,-77.246 100.039,-140.555 179.813,-150.688 97.512,-13.93 192.48,12.66 250.734,92.442 48.117,68.378 50.649,178.543 8.863,250.726"/>
        <path
                id="path20"
                style="fill:#231f20;fill-opacity:1;fill-rule:nonzero;stroke:none"
                d="m 940.824,754.211 0.321,-261.258 c -5.071,-16.535 14.718,-31.574 -63.594,-28.41 v -52.125 h 214.009 v 52.125 c -77.92,0.793 -76.34,4.75 -77.13,28.406 v 238.692 c 0,0 144.24,-212.856 215.15,-319.223 h 84.84 v 343.379 c -0.04,28.488 -7.16,34.027 65.85,33.976 v 53.184 h -205.14 v -53.184 c 75.15,0.848 68,-6.019 68,-34.511 l 0.38,-183.293 -189.94,270.988 H 880.082 v -53.184 c 63.906,2.43 60.742,-10.238 60.742,-35.562"/>
        <path
                id="path22"
                style="fill:#231f20;fill-opacity:1;fill-rule:nonzero;stroke:none"
                d="M 325.875,496.992 C 303.711,452.672 253.063,462.168 157.02,461.801 l -0.219,308.84 3.043,12.16 c 3.039,18.242 67.097,13.301 67.097,13.301 v 46.855 H 0 v -46.855 c 0,0 56.4805,4.941 58.5078,-12.661 1.6914,-2.164 4.0274,-15.847 4.0274,-15.847 l 0.0234,-279.707 c 0.0117,-3.836 -3.0469,-7.735 -3.043,-11.149 C 51.4102,455.453 0,458.004 0,458.004 v -45.586 h 386.223 v 183.613 l -45.317,-0.109 c -2.527,-32.926 -2.371,-69.805 -15.031,-98.93"/>
        <path
                id="path24"
                style="fill:#231f20;fill-opacity:1;fill-rule:nonzero;stroke:none"
                d="m 1476.51,423.809 c 70.92,-41.789 181.09,-30.391 244.4,19 8.87,-10.133 16.46,-21.532 24.06,-31.661 h 50.61 l 0.05,150.743 c 0.75,39.179 14.99,30.867 56.98,31.605 v 46.856 H 1631 v -46.856 c 0,0 64.07,4.801 67.24,-18.941 7.91,-43.532 -3.17,-68.856 -3.92,-69.703 -13.93,-35.454 -53.19,-49.383 -88.64,-50.649 -43.06,-1.269 -89.91,17.731 -108.9,62.047 -32.93,74.711 -31.66,187.418 22.79,251.996 29.12,32.926 78.51,39.258 117.76,24.059 50.66,-16.461 79.79,-69.645 92.45,-116.5 17.73,0 51.91,0 51.91,0 v 167.152 h -50.65 l -17.73,-34.187 c -56.98,48.121 -146.89,59.515 -216.53,30.39 -79.78,-30.39 -121.57,-113.969 -125.37,-193.746 -3.8,-89.906 24.06,-176.016 105.1,-221.605"/>
        <path
                id="path26"
                style="fill:#231f20;fill-opacity:1;fill-rule:nonzero;stroke:none"
                d="m 1907.06,773.309 0.12,-283.399 c 0.7,-33.441 -31.72,-24.32 -60.9,-25.367 v -52.125 h 219.06 l 0.12,52.125 c -39.57,1.586 -62.52,-6.328 -60.9,25.367 l -0.04,282.508 c -1.38,21.531 21.94,17.48 60.82,17.355 v 53.184 h -219.06 v -53.184 c 35.26,-0.89 60.6,7.215 60.78,-16.464"/>
        <path
                id="path28"
                style="fill:#231f20;fill-opacity:1;fill-rule:nonzero;stroke:none"
                d="m 3155.63,713.793 c -16.46,13.93 -11.42,46.75 -6.32,53.187 22.79,39.254 75.62,35.508 113.96,29.122 59.8,-12.606 89.91,-68.379 100.04,-119.028 l 45.23,0.367 0.36,165.411 -38.34,0.105 -22.44,-31.652 c -60.79,48.117 -158.29,56.98 -225.41,16.457 -43.05,-26.59 -59.52,-72.176 -55.71,-121.567 16.47,-121.562 151.96,-110.164 238.07,-140.554 21.52,-7.598 45.58,-21.532 50.64,-46.856 0,-18.996 -3.79,-36.726 -20.25,-48.121 -35.46,-26.594 -89.91,-18.992 -130.43,-7.598 -53.18,16.461 -81.06,73.446 -89.91,122.832 -10.13,0 -43.06,0 -43.06,0 v -173.48 h 34.15 l 24.1,34.187 c 0,0 22.14,-30.425 107.07,-46.042 42.86,-7.692 139.86,-3.344 179.11,61.238 22.8,35.457 26.86,84.222 6.34,129.16 -60.79,97.512 -186.14,63.316 -267.2,122.832"/>
        <path
                id="path30"
                style="fill:#231f20;fill-opacity:1;fill-rule:nonzero;stroke:none"
                d="m 2390.75,789.773 40.03,0.125 c 29.29,0.551 28.39,-12.984 28.39,-27.363 0.43,-71.972 0,-190.566 0,-190.566 l -187.42,270.988 c 0,0 -144.36,0 -174.75,0 v -53.926 l 48.01,-0.148 c 21.29,-2.028 16.21,-13.176 16.58,-34.457 V 501.059 c -0.37,-43.579 -8.47,-35.469 -64.59,-36.516 v -52.125 h 211.48 l -0.04,52.125 c -60.06,1.047 -78.3,-10.102 -74.68,32.465 v 231.984 c 72.19,-106.371 215.27,-316.574 215.27,-316.574 h 81.06 v 352.141 c 3.35,7.711 -3.04,25.339 18.24,25.339 l 46.33,-0.125 v 53.184 h -203.87 l -0.04,-53.184"/>
        <path
                id="path32"
                style="fill:#231f20;fill-opacity:1;fill-rule:nonzero;stroke:none"
                d="m 2621.06,789.031 c 52.93,-1.16 71.18,5.934 71.12,-25.488 l 0.11,-269.578 c 1.96,-34.453 -13.24,-27.363 -71.03,-28.629 l -0.2,-52.918 h 413.01 v 183.613 l -48.53,-0.222 v -52.18 c -0.45,-61.824 -43.93,-78.633 -83.96,-77.656 l -115.7,-0.371 v 143.902 c 0,0 46.84,4.43 63.31,-10.766 20.26,-18.992 17.73,-78.687 17.73,-78.687 h 46.86 v 219.07 l -46.37,0.055 c 0,0 -1.95,-61.36 -18.53,-69.164 -16.47,-13.934 -63,-9.836 -63,-9.836 v 129.648 l 123.5,0.024 c 12.13,-0.727 22.47,-0.739 40.03,-6.59 44.8,-8.567 38.08,-118.129 38.08,-118.129 l 46.58,-0.356 v 178.184 h -412.81 l -0.2,-53.926"/>
        <path
                id="path34"
                style="fill:#231f20;fill-opacity:1;fill-rule:nonzero;stroke:none"
                d="m 2477.63,325.824 -27.79,-23.574 h -364.56 l -19.82,-21.531 h 221.04 l -25.55,-26.461 h -285.96 l -19.37,-21.043 h 148.18 l -25.79,-25.949 -215,-0.157 -20.54,-21.367 h 82.12 l -22.16,-22.734 -90.35,-0.059 0.41,134.254 h -211.33 l -0.55,-134.254 -89.95,0.059 -21.36,22.734 h 79.66 l -22.8,21.524 h -212.74 l -30.3,25.949 h 150.7 l -21.63,21.043 h -281.12 l -28.13,26.461 h 226.48 l -23.59,21.527 H 959.027 l -29.558,24.059 h 571.101 l 46.86,-79.782 52.05,79.301 213.87,0.481 49.66,-81.305 58.09,80.824 z m -689.55,-279.5623 -67.11,102.5663 67.11,100.039 z m -152.01,-23.8711 25.33,39.25 h 88.63 l 26.6,-39.25 z m 54.34,126.6324 -65.67,-99.3941 V 249.707 Z m -27.7,86.192 -25.32,39.254 h 140.56 l -26.59,-39.254 z m 72.12,-150.7814 h -56.97 l 27.85,45.5934 z m -59.43,133.0074 60.82,0.176 -29.09,-43.887 z m 187.61,71.336 -35.73,59.055 h -241.27 l -38.58,-58.246 -32.93,58.246 H 869.949 l 79.781,-67.113 h 135.49 l 50.35,-47.504 h 129.66 l 59.33,-47.473 h 129.16 l 47.25,-47.676 h 100.19 V 0 h 211.33 v 138.066 h 98.64 l 45.32,47.676 H 2090 l 44.33,47.473 h 140.07 l 42.94,47.504 h 141.83 l 73.18,67.113 h -622.76 l -46.58,-59.055"/></g></g></svg>
