<svg id="Layer_1" data-name="Layer 1" xmlns="http://www.w3.org/2000/svg" viewBox="0 0 850.39 240.75">
    <defs>
        <style>.cls-1{fill:#f77f00;}</style>
    </defs>
    <title>logo</title>
    <path class="cls-1"
          d="M3.25,233.92A7.27,7.27,0,0,0,9.43,237c2.6,0,5.81-1.64,5.81-4.85,0-6.72-14.38-2.56-14.38-13.92,0-3.42,2.88-8.16,9.89-8.16,3.17,0,6.22.66,8.4,3.34l-3.21,2.92a6.14,6.14,0,0,0-5.19-2.55c-4.37,0-5.69,2.64-5.69,4.45,0,7.37,14.38,3,14.38,13.47,0,5.63-4.53,9-10.13,9-3.75,0-7.34-1.27-9.31-4Z"/>
    <path class="cls-1"
          d="M35.18,210.85h4.11l6.43,23.31h.08l6.88-23.31H57.2l6.88,23.31h.09l6.42-23.31h4.12L66.22,240H62.06L55,216.21h-.1l-7,23.8H43.7Z"/>
    <path class="cls-1" d="M92.1,210.85h4V240h-4Z"/>
    <path class="cls-1"
          d="M118,233.92a7.27,7.27,0,0,0,6.18,3.12c2.59,0,5.8-1.64,5.8-4.85,0-6.72-14.37-2.56-14.37-13.92,0-3.42,2.89-8.16,9.88-8.16,3.18,0,6.23.66,8.41,3.34l-3.22,2.92a6.11,6.11,0,0,0-5.19-2.55c-4.36,0-5.68,2.64-5.68,4.45,0,7.37,14.38,3,14.38,13.47,0,5.63-4.54,9-10.14,9-3.75,0-7.32-1.27-9.3-4Z"/>
    <path class="cls-1"
          d="M154.5,233.92a7.27,7.27,0,0,0,6.18,3.12c2.59,0,5.8-1.64,5.8-4.85,0-6.72-14.36-2.56-14.36-13.92,0-3.42,2.88-8.16,9.88-8.16,3.17,0,6.22.66,8.4,3.34l-3.21,2.92a6.11,6.11,0,0,0-5.19-2.55c-4.37,0-5.68,2.64-5.68,4.45,0,7.37,14.37,3,14.37,13.47,0,5.63-4.53,9-10.13,9-3.75,0-7.33-1.27-9.31-4Z"/>
    <path class="cls-1"
          d="M211.47,210.85h4.12L222,234.16h.09L229,210.85h4.53l6.87,23.31h.08l6.43-23.31H251L242.53,240h-4.16l-7.09-23.8h-.08l-7,23.8H220Z"/>
    <path class="cls-1"
          d="M274.59,210.85h3.59L290.65,240H286l-2.92-7.21H269.24L266.35,240h-4.61Zm7.09,18.49L276.24,216h-.08l-5.52,13.38Z"/>
    <path class="cls-1" d="M308.14,214.56h-9.39v-3.71h22.73v3.71H312.1V240h-4Z"/>
    <path class="cls-1"
          d="M356.15,217.16a8.93,8.93,0,0,0-7-3.34c-6.55,0-10.87,5.23-10.87,11.86,0,6.13,4.07,11.36,10.87,11.36a9,9,0,0,0,7.62-3.91l3.34,2.51a13.57,13.57,0,0,1-11,5.11,15,15,0,0,1-15-15v-.07c0-9.06,6.22-15.57,15.2-15.57,3.83,0,7.86,1.44,10.21,4.53Z"/>
    <path class="cls-1" d="M376.48,210.85h3.95V223h15.12V210.85h3.95V240h-3.95V226.67H380.43V240h-3.95Z"/>
    <path class="cls-1" d="M421.58,210.85H440.4v3.71H425.53v8.69h13.84V227H425.53v9.35h15.61V240H421.58Z"/>
    <path class="cls-1"
          d="M461,233.92a7.25,7.25,0,0,0,6.17,3.12c2.6,0,5.81-1.64,5.81-4.85,0-6.72-14.37-2.56-14.37-13.92,0-3.42,2.88-8.16,9.88-8.16,3.17,0,6.22.66,8.41,3.34l-3.22,2.92a6.11,6.11,0,0,0-5.19-2.55c-4.36,0-5.68,2.64-5.68,4.45,0,7.37,14.37,3,14.37,13.47,0,5.63-4.53,9-10.13,9-3.74,0-7.33-1.27-9.31-4Z"/>
    <path class="cls-1"
          d="M523,233.92a7.29,7.29,0,0,0,6.18,3.12c2.6,0,5.81-1.64,5.81-4.85,0-6.72-14.37-2.56-14.37-13.92,0-3.42,2.88-8.16,9.89-8.16,3.16,0,6.21.66,8.4,3.34l-3.22,2.92a6.13,6.13,0,0,0-5.18-2.55c-4.38,0-5.69,2.64-5.69,4.45,0,7.37,14.37,3,14.37,13.47,0,5.63-4.53,9-10.13,9-3.74,0-7.33-1.27-9.31-4Z"/>
    <path class="cls-1" d="M558.86,210.85h4V240h-4Z"/>
    <path class="cls-1" d="M583.91,210.85h5.18l16.07,24h.08v-24h4V240h-5L588,216h-.09v24h-4Z"/>
    <path class="cls-1"
          d="M651.33,217.16a9,9,0,0,0-7-3.34c-6.55,0-10.87,5.23-10.87,11.86,0,6.13,4.07,11.36,10.87,11.36a9,9,0,0,0,7.61-3.91l3.34,2.51a13.57,13.57,0,0,1-11,5.11,15,15,0,0,1-15-15v-.07c0-9.06,6.22-15.57,15.2-15.57,3.83,0,7.87,1.44,10.21,4.53Z"/>
    <path class="cls-1" d="M674.11,210.85h18.82v3.71H678.06v8.69H691.9V227H678.06v9.35h15.61V240H674.11Z"/>
    <path class="cls-1" d="M743.07,215.38l-5.35,4.94-2.3-2.75,8.11-6.72H747V240h-4Z"/>
    <path class="cls-1"
          d="M778.61,228.73h-.16a7.44,7.44,0,0,1-3.22.66,8.78,8.78,0,0,1-9-8.55c0-.22,0-.45,0-.68,0-6.42,4.53-9.8,10-9.8s10,3.7,10,9.39c0,3.58-1.16,5.81-2.93,8.61L775.94,240h-4.65Zm-2.38-14.91a6.06,6.06,0,1,0,6,6.12v-.07a5.78,5.78,0,0,0-5.48-6.05Z"/>
    <path class="cls-1" d="M809,215.38l-5.35,4.94-2.31-2.75,8.11-6.72H813V240h-4Z"/>
    <path class="cls-1"
          d="M831.37,231.65a7.26,7.26,0,0,1,5.56-7.12v-.13c-2.19-.58-4.58-2.76-4.58-6.79,0-4.41,4-7.25,8.53-7.25s8.53,2.84,8.53,7.25c0,4-2.39,6.21-4.58,6.79v.13a7.26,7.26,0,0,1,5.56,7.12c0,5.52-4.2,8.86-9.51,8.86S831.37,237.17,831.37,231.65Zm15.07,0c0-3.54-2.47-5.35-5.56-5.39a5.35,5.35,0,0,0-5.56,5.14v.25a5.56,5.56,0,0,0,11.12,0Zm-5.56-8.85a4.62,4.62,0,1,0-4.4-4.4A4.62,4.62,0,0,0,840.88,222.8Z"/>
    <path class="cls-1"
          d="M113.71,3.78h30.74l46.09,110.61L235.65,3.78h30.41v148H243.67v-115h-.41l-46.51,115H183l-48-115h-.42v115H113.71Z"/>
    <path class="cls-1" d="M329.88,3.78H351v148H329.88Z"/>
    <path class="cls-1"
          d="M417.38,3.78h58.31c38.88,0,69.88,23.83,69.88,74,0,50.59-37.48,74-73,74H417.38Zm44.47,127.61c33.89,0,61.55-16.74,61.55-53.63s-24-54.58-57-54.58H439.73V131.39Z"/>
    <path class="cls-1"
          d="M660.61,0c46.19-.84,78.8,30.09,78.8,77.54,0,46.19-32.61,77.12-78.8,78-45.57,0-78.17-30.93-78.17-77.12C582.44,31,615,0,660.61,0Zm.2,135.2c32.74,0,54.35-24.94,54.35-58.57,0-31.4-21.61-56.34-54.35-56.34-32.51,0-54.12,24.94-54.12,56.34,0,33.65,21.61,58.59,54.12,58.59Z"/>
    <path class="cls-1"
          d="M752,125.12a15.32,15.32,0,1,1-15.32,15.32A15.32,15.32,0,0,1,752,125.12ZM752,153a12.6,12.6,0,1,0-12.6-12.6h0A12.6,12.6,0,0,0,752,153Zm-5.89-21.45h6.76c4.2,0,6.17,1.89,6.17,5.27a4.43,4.43,0,0,1-4,4.8h-.19l4.57,7.42H756l-4.36-7.17h-2.35v7.17h-3.21Zm3.21,7.61h2.35c2,0,4.16-.12,4.16-2.47s-2.18-2.47-4.16-2.43h-2.35Z"/>
</svg>
