<?xml version="1.0" encoding="UTF-8"?>
<svg width="321px" height="60px" viewBox="0 0 321 60" version="1.1" xmlns="http://www.w3.org/2000/svg" xmlns:xlink="http://www.w3.org/1999/xlink">
    <!-- Generator: Sketch 61 (89581) - https://sketch.com -->
    <title>Montblanc_Logo_OneLine_Solo_4c_Pos</title>
    <desc>Created with Sketch.</desc>
    <g id="MOB-Home-Page" stroke="none" stroke-width="1" fill="none" fill-rule="evenodd">
        <g id="iPhone-11_03" transform="translate(-47.000000, -528.000000)">
            <g id="Montblanc_Logo_OneLine_Solo_4c_Pos" transform="translate(47.000000, 528.000000)">
                <path d="M267.832,42 C267.832,37.276 271.759,33.378 276.803,33.378 C278.492,33.378 280.083,33.708 281.453,34.347 C282.361,34.771 283.172,35.216 283.852,35.759 L283.852,26.488 C281.533,25.411 278.922,24.807 276.139,24.807 C266.643,24.807 258.944,32.504 258.944,42 C258.944,51.496 266.643,59.195 276.139,59.195 C278.922,59.195 281.533,58.59 283.852,57.513 L283.852,48.243 C283.172,48.785 282.361,49.23 281.453,49.654 C280.083,50.293 278.492,50.623 276.803,50.623 C271.759,50.623 267.832,46.725 267.832,42 Z M208.132,25.606 C208.032,25.82 192.74,58.613 192.74,58.613 L202.271,58.613 L208.471,44.987 L214.67,58.613 L224.201,58.613 C224.201,58.613 208.91,25.822 208.81,25.606 C208.674,25.315 208.268,25.315 208.132,25.606 Z M182.14,50.14 L182.14,25.388 L173.335,25.388 L173.335,58.613 L191.11,58.613 L191.11,50.14 L182.14,50.14 Z M160.464,47.801 C160.464,45.966 158.977,44.479 157.142,44.479 L152.253,44.479 L152.253,51.125 L157.142,51.125 C158.977,51.125 160.464,49.636 160.464,47.801 Z M152.253,32.044 L152.253,38.499 L157.121,38.499 C158.903,38.499 160.348,37.054 160.348,35.272 C160.348,33.49 158.903,32.044 157.121,32.044 L152.253,32.044 Z M168.759,48.958 C168.759,51.496 167.84,53.862 165.935,55.766 C164.055,57.647 161.773,58.613 157.867,58.613 C155.956,58.613 144.113,58.613 144.113,58.613 L144.113,25.388 C144.113,25.388 154.785,25.388 156.03,25.388 C158.809,25.388 161.894,25.155 164.787,27.337 C166.87,28.909 168.394,31.713 168.394,34.624 C168.394,38.41 166.146,40.709 165.258,41.489 C166.387,42.483 168.759,44.614 168.759,48.958 Z M140.458,25.388 L113.38,25.388 L113.38,33.861 L122.517,33.861 L122.517,58.613 L131.321,58.613 L131.321,33.861 L140.458,33.861 L140.458,25.388 Z M68.068,42 C68.068,37.276 64.237,33.445 59.513,33.445 C54.787,33.445 50.957,37.276 50.957,42 C50.957,46.725 54.787,50.556 59.513,50.556 C64.237,50.556 68.068,46.725 68.068,42 Z M76.706,42 C76.706,51.496 69.008,59.195 59.513,59.195 C50.017,59.195 42.318,51.496 42.318,42 C42.318,32.504 50.017,24.807 59.513,24.807 C69.008,24.807 76.706,32.504 76.706,42 Z M245.643,25.388 L245.643,41.006 C245.643,41.006 226.646,25.623 226.466,25.477 C226.215,25.274 225.831,25.438 225.831,25.78 C225.831,26.122 225.831,58.613 225.831,58.613 L234.635,58.613 L234.635,42.995 C234.635,42.995 253.632,58.378 253.813,58.524 C254.063,58.727 254.447,58.563 254.447,58.221 C254.447,57.879 254.447,25.388 254.447,25.388 L245.643,25.388 Z M100.921,25.388 L100.921,41.006 C100.921,41.006 81.924,25.624 81.744,25.477 C81.493,25.274 81.108,25.438 81.108,25.78 C81.108,26.122 81.108,58.613 81.108,58.613 L89.913,58.613 L89.913,42.995 C89.913,42.995 108.91,58.378 109.09,58.524 C109.341,58.727 109.725,58.563 109.725,58.221 C109.725,57.879 109.725,25.388 109.725,25.388 L100.921,25.388 Z M37.916,25.742 C37.916,26.095 37.916,58.613 37.916,58.613 L29.111,58.613 L29.111,45.676 C29.111,45.676 19.544,55.244 19.432,55.356 C19.285,55.502 19.021,55.504 18.873,55.357 C18.761,55.244 9.192,45.676 9.192,45.676 L9.192,58.613 L0.388,58.613 C0.388,58.613 0.388,26.095 0.388,25.742 C0.388,25.401 0.786,25.288 0.984,25.487 C1.162,25.665 19.152,43.654 19.152,43.654 C19.152,43.654 37.142,25.665 37.319,25.487 C37.519,25.288 37.916,25.401 37.916,25.742 L37.916,25.742 Z" id="Fill-1" fill="#070808"></path>
                <path d="M320.897,17.306 C320.897,26.802 313.199,34.5 303.703,34.5 C294.207,34.5 286.51,26.802 286.51,17.306 C286.51,7.81 294.207,0.113 303.703,0.113 C313.199,0.113 320.897,7.81 320.897,17.306" id="Fill-2" fill="#070808"></path>
                <path d="M315.712,10.374 C314.045,7.486 310.686,9.324 308.905,8.296 C307.125,7.269 307.037,3.44 303.703,3.44 C300.37,3.44 300.281,7.269 298.501,8.296 C296.722,9.324 293.361,7.486 291.694,10.374 C290.027,13.26 293.299,15.251 293.299,17.306 C293.299,19.362 290.027,21.353 291.694,24.24 C293.361,27.126 296.722,25.289 298.501,26.317 C300.281,27.344 300.37,31.173 303.703,31.173 C307.037,31.173 307.125,27.344 308.905,26.317 C310.686,25.289 314.045,27.126 315.712,24.24 C317.379,21.353 314.107,19.362 314.107,17.306 C314.107,15.251 317.379,13.26 315.712,10.374" id="Fill-3" fill="#FFFFFE"></path>
            </g>
        </g>
    </g>
</svg>