<?xml version="1.0" encoding="utf-8"?>
<!-- Generator: Adobe Illustrator 15.0.0, SVG Export Plug-In . SVG Version: 6.00 Build 0)  -->
<!DOCTYPE svg PUBLIC "-//W3C//DTD SVG 1.1//EN" "http://www.w3.org/Graphics/SVG/1.1/DTD/svg11.dtd">
<svg version="1.1" id="Livello_1" xmlns="http://www.w3.org/2000/svg" xmlns:xlink="http://www.w3.org/1999/xlink" x="0px" y="0px"
	 width="518.667px" height="132px" viewBox="-86.333 0.667 518.667 132" enable-background="new -86.333 0.667 518.667 132"
	 xml:space="preserve">
<g>
	<path fill="#474441" d="M426.523,66.756c-0.718-0.049-1.446,0.015-2.143,0.193c-0.324,0.085-0.64,0.195-0.945,0.327
		c-0.29,0.134-0.571,0.28-0.838,0.446c-0.659,0.411-1.24,0.929-1.761,1.495c-0.352,0.381-0.674,0.787-0.979,1.202
		c-0.271,0.363-0.53,0.742-0.794,1.113c-1.118,1.305-2.244,2.602-3.439,3.843c-0.718,0.747-1.46,1.476-2.252,2.151
		c-0.466,0.396-0.945,0.774-1.46,1.114c-0.049,0.029-0.096,0.059-0.145,0.088c-0.154-0.643-0.098-1.285,0.013-1.917
		c0.085-0.481,0.197-0.955,0.329-1.427c0.125-0.435,0.262-0.867,0.405-1.297c0.198-0.579,0.411-1.153,0.638-1.725
		c0.498-1.248,1.077-2.462,1.69-3.664c0.904-1.78,1.889-3.522,2.875-5.262c2.384-4.187,4.81-8.35,6.979-12.643
		c0.405-0.8,0.811-1.6,1.212-2.401c-3.498,0-6.996,0-10.494,0c-0.681,0.499-1.316,1.061-1.883,1.686
		c-0.724,0.801-1.326,1.708-1.808,2.675c-0.989-1.476-2.457-2.606-4.074-3.332c-4.338-1.943-9.754-0.95-14.104,1.196
		c-2.353,1.16-4.395,2.661-6.233,4.292c-4.067,3.6-7.172,7.845-10.633,12.588c-2.367,3.244-4.9,6.723-7.438,9.318
		c-0.89,0.912-1.856,1.781-2.846,2.597c-0.288,0.239-0.584,0.479-0.901,0.704c-0.436,0.308-0.919,0.588-1.508,0.835
		c-0.898,0.379-2.049,0.667-2.481,0.369c-0.261-0.174-0.264-0.564-0.129-1.048c0.251-0.89,0.967-2.11,1.194-2.514
		c1.71-2.953,4.237-5.425,6.155-8.259c1.422-2.101,2.506-4.401,3.004-6.964c0.75-3.861,0.174-8.322-2.508-11.098
		c-1.645-1.701-4.077-2.769-6.51-2.979c-2.257-0.196-4.514,0.349-6.549,1.244c-0.581,0.255-1.147,0.541-1.695,0.859
		c1.84-3.367,3.73-6.704,5.569-10.118h-12.084c-2.516,3.606-5.015,7.223-7.62,10.767c-4.373,5.943-9.04,11.685-13.584,17.497
		c-2.018,2.584-4.011,5.181-6.199,7.66c-0.957,1.128-2.042,2.12-3.155,3.038c-0.689,0.572-1.396,1.119-2.409,1.544
		c-0.901,0.376-2.054,0.664-2.486,0.366c-0.259-0.176-0.259-0.562-0.124-1.048c0.251-0.887,0.965-2.112,1.194-2.513
		c1.704-2.956,4.235-5.426,6.155-8.257c1.419-2.101,2.504-4.401,2.999-6.966c0.753-3.862,0.176-8.322-2.509-11.098
		c-1.639-1.701-4.074-2.769-6.507-2.98c-2.254-0.194-4.512,0.351-6.551,1.246c-0.581,0.255-1.148,0.541-1.69,0.859
		c1.834-3.367,3.729-6.704,5.566-10.117h-12.093c-2.523,3.599-5.044,7.198-7.611,10.767c-2.318,3.22-4.67,6.41-7.105,9.546
		c-2.392,3.087-4.856,6.116-7.438,9.058c-1.329,1.509-2.648,3.038-4.03,4.511c-0.857,0.911-1.742,1.808-2.688,2.644
		c-0.559,0.49-1.138,0.965-1.761,1.39c-0.107,0.073-0.215,0.142-0.325,0.21c-0.107-0.589-0.054-1.178,0.049-1.759
		c0.083-0.481,0.195-0.958,0.33-1.427c0.122-0.435,0.259-0.867,0.405-1.299c0.198-0.577,0.41-1.153,0.638-1.723
		c0.498-1.248,1.077-2.459,1.688-3.664c0.906-1.78,1.891-3.521,2.878-5.264c2.381-4.184,4.81-8.347,6.979-12.64
		c0.402-0.8,0.806-1.6,1.211-2.401h-10.566c-0.667,0.488-1.287,1.038-1.837,1.651c-0.721,0.8-1.326,1.708-1.808,2.673
		c-0.674-0.917-1.49-1.743-2.428-2.394c-1.097-0.76-2.354-1.28-3.654-1.588c-1.062-0.253-2.154-0.36-3.243-0.355
		c-3.664,0.013-7.307,1.296-10.516,3.153c-2.426,1.41-4.607,3.145-6.479,5.201c-4.807,5.276-7.594,12.65-11.553,17.918
		c-1.405,1.871-2.963,3.477-5.322,5.166c-1.181,0.848-2.561,1.718-3.488,1.646c-0.709-0.059-1.15-0.669-1.263-1.421
		c-0.196-1.339,0.637-3.137,1.58-4.902c1.585-2.976,3.48-5.875,5.036-8.525c1.186-2.015,2.172-3.891,3.291-5.781
		c0.854-1.446,1.78-2.902,2.066-4.533c0.122-0.699,0.124-1.429,0.01-2.136c-0.264-1.618-1.16-3.12-2.221-4.165
		c-0.669-0.661-1.404-1.144-2.191-1.381c-2.506-0.755-5.527,0.98-9.941,3.254c0.01-0.143,0.029-0.287,0.047-0.43
		c0.093-0.688,0.252-1.367,0.366-2.052c0.066-0.385,0.122-0.775,0.146-1.165c0.027-0.423,0.024-0.85-0.036-1.268
		c-0.14-0.959-0.569-1.885-1.243-2.599c-0.04-0.043-0.079-0.083-0.118-0.124c-0.046-0.032-0.09-0.064-0.139-0.094
		c-0.895-0.616-1.935-1.047-3.026-1.196c-0.999-0.138-2.045-0.041-2.976,0.332c-0.933,0.375-1.756,1.028-2.283,1.861
		c-0.271,0.432-0.469,0.917-0.582,1.416c-0.124,0.523-0.163,1.06-0.112,1.594c0.054,0.547,0.203,1.087,0.442,1.585
		c0.223,0.46,0.518,0.885,0.855,1.275c0.308,0.355,0.649,0.684,1.009,0.99c0.327,0.281,0.671,0.546,1.016,0.809
		c0.315,0.241,0.63,0.478,0.938,0.726c0.231,0.185,0.456,0.375,0.661,0.583c0.112,0.115,0.218,0.235,0.298,0.37
		c-0.004,0.012-0.014,0.023-0.02,0.036c-0.07,0.165-0.178,0.317-0.288,0.463c-0.075,0.103-0.156,0.199-0.239,0.297
		c-0.08,0.098-0.166,0.195-0.256,0.291c-0.181,0.198-0.369,0.387-0.562,0.576c-0.19,0.191-0.386,0.372-0.581,0.557
		c-0.229,0.22-0.467,0.439-0.691,0.659c-0.83,0.799-1.629,1.627-2.435,2.455c-1.598,1.648-3.2,3.29-4.817,4.925
		c-1.617,1.634-3.241,3.256-4.909,4.843c-0.821,0.774-1.651,1.539-2.494,2.296c-0.35,0.318-0.701,0.626-1.053,0.938
		c-0.354,0.312-0.709,0.62-1.062,0.929c-0.486,0.42-0.978,0.84-1.468,1.255c-0.296,0.252-0.592,0.496-0.89,0.743
		c-0.62,0.513-1.248,1.016-1.883,1.504c1.702-4.743,3.495-9.447,5.771-13.923c2.076-4.096,4.556-8,6.683-12.084
		c0.489-0.943,0.963-1.899,1.437-2.852h-10.525c-1.629,1.188-2.804,2.563-3.705,4.373c-1.204-1.433-2.716-2.704-4.431-3.457
		c-2.57-1.128-5.602-1.093-8.407-0.496c-3.059,0.653-5.848,1.976-8.413,3.677c-2.152,1.43-4.148,3.126-5.818,5.07
		c-4.082,4.744-6.239,10.953-10.264,15.789c-1.407,1.693-3.043,3.215-4.753,4.551c-1.483,1.165-3.017,2.187-4.814,3.051
		c-1.891,0.903-4.069,1.632-5.914,1.007c-1.495-0.504-2.77-1.898-3.447-3.41c-0.442-0.987-0.632-2.022-0.703-3.07
		c-0.046-0.641-0.049-1.287,0.012-1.923c4.736-0.391,13.451-2.87,17.474-5.661c4.878-3.384,7.626-11.156,3.684-16.305
		c-4.489-5.864-11.949-2.72-16.512,0.962c-5.122,4.13-7.386,9.763-10.603,15.004c-2.25,3.423-4.761,6.562-7.628,9.482
		c-1.429,1.458-2.87,2.863-4.583,4.006c-1.199,0.799-4.152,2.203-5.752,1.241c-2.328-2.501,0.312-7.45,1.341-9.551
		c1.495-3.059,3.08-6.062,4.685-9.058c3.212-5.996,6.553-11.918,9.897-17.842c4.113,0.055,8.227,0.107,12.342,0.163
		c0.87-1.798,1.737-3.599,2.609-5.397c-3.967-0.053-7.938-0.103-11.905-0.155c0.498-0.883,0.999-1.768,1.5-2.651
		c1.143-2.019,2.289-4.038,3.432-6.059c0.52-0.92,1.041-1.841,1.563-2.76h-10.063c-2.386,3.786-4.744,7.585-7.193,11.33
		c-2.289-0.031-4.58-0.06-6.871-0.088c-0.867,1.799-1.737,3.597-2.609,5.396c1.942,0.027,3.884,0.053,5.826,0.077
		c-4.23,5.94-21.202,25.901-26.534,30.914c-2.044,1.922-3.913,3.803-6.771,4.697c-0.691,0.215-1.346,0.308-1.402-0.606
		c-0.237-3.961,1.905-6.39,3.774-9.301c3.209-4.995,7.528-12.226,5.098-19c-1.751-3.799-7.914-4.6-11.285-3.034
		c-0.01,0.002-0.02,0.007-0.029,0.012c-0.012,0.005-0.022,0.01-0.032,0.015c-4.661,2.424-7.342,6.174-10.186,10.233
		c1.551-6.053,0.337-12.577-7.091-10.918c-4.675,1.045-10.312,5.99-13.302,9.206c-1.031-9.591-10.591-11.93-18.185-7.285
		c-5.53,3.379-12.838,12.107-16.263,17.314c-2.094,3.184-4.761,5.685-7.558,8.181c-1.393,1.241-2.814,2.436-4.321,3.534
		c-1.482,1.09-3.48,3.166-4.362,0.44c-1.509-5.164,4.121-17.855,5.669-21.886c5.762-14.972,13.014-29.226,19.617-43.796
		c1.624-3.551,3.322-6.914,3.598-10.995c-5.398-1.27-8.864,0.28-12.77,3.816c-3.515,3.184-6.438,6.756-9.155,10.613
		c-5.425,7.702-9.785,15.95-14.226,24.204c-0.002,0.005-0.007,0.011-0.01,0.019c-0.002,0.005-0.005,0.01-0.007,0.015
		c-5.911,11.666-11.036,23.672-16.478,35.548c-0.508,1.104-0.845,2.277-1.36,3.384c-0.122,0.261-0.491,0.643-0.555,0.246
		c-0.269-1.739-0.002-3.378,0.25-5.061c0.476-3.186,1.316-6.248,2.311-9.302c1.983-6.104,4.443-11.989,6.993-17.865
		c5.095-11.738,10.794-23.194,16.075-34.844c1.441-3.147,3.275-5.995,3.515-9.692c0.027-0.436,0.054-0.871,0.083-1.303
		c-8.588-2.79-18.591,8.234-22.694,13.289c-5.95,7.331-10.081,15.525-14.309,23.812c-4.218,8.263-7.879,16.789-12.086,25.062
		c-2.123,4.172-4.348,8.124-7.625,11.583c-2.479,2.62-4.756,4.657-8.674,5c-1.331,0.114-2.398-0.179-3.527-0.86
		c4.492-4.668,2.646-11.307-3.644-12.914c-6.515-1.668-10.015,4.355-8.129,10.254c1.722,5.376,6.714,8.967,12.032,9.949
		c6.434,1.191,10.403-1.173,14.919-5.156c8.732-7.692,12.594-17.668,17.772-27.296c5.176-9.614,10.518-19.121,16.222-28.44
		c0.62-1.203,1.006-2.689,2.736-1.844c-5.594,10.386-10.845,20.863-15.088,31.907c-2.127,5.538-3.884,11.026-4.479,17.005
		c-0.486,4.86-0.564,14.333,6.588,13.993c1.939-0.09,3.217-0.901,4.533-2.21c3.097-3.073,4.763-6.771,6.559-10.566
		c2.518-5.315,4.777-10.743,7.232-16.087C-9.045,48.938-3.271,38.71,2.66,28.523c0.605-1.176,0.953-2.702,2.672-1.861
		C-1.849,40.368-9.109,53.676-12.575,69.14c-0.85,3.796-1.839,7.398-1.182,11.443c0.604,3.716,2.243,7.937,6.874,7.966
		c6.373,0.029,15.193-9.121,18.354-13.142c1.3,9.9,8.815,17.147,17.963,10.506c7.364-5.347,12.052-12.528,17.325-19.512
		c1.649-2.184,6.419-8.795,8.916-10.378c2.567-1.628,4.976-1.368,3.801,1.905c-0.774,2.169-1.761,4.221-2.792,6.268
		c-4.118,8.178-8.852,16.019-12.87,24.255h10.034c0.674-0.943,1.248-1.942,1.839-2.937c5.234-8.827,9.536-18.058,16.856-25.701
		c0.01-0.01,0.015-0.02,0.024-0.024c0.007-0.01,0.015-0.024,0.022-0.032c0.884-1.009,4.783-5.317,6.737-4.864
		c1.917,1.21,0.928,2.646,0.461,4.197c-0.432,1.446-1.043,2.785-1.775,4.097c-1.476,2.635-3.22,5.103-4.57,7.813
		c-1.383,2.78-2.309,5.477-2.348,8.654c-0.031,2.45,0.511,6.598,3.049,8.161c4.929,3.038,12.777-4.944,15.479-7.445
		c4.443-4.113,8.669-8.363,12.399-13.171c-2.255,3.696-3.149,7.333-3.131,11.622c0.017,4.907,1.182,7.87,6.307,9.27
		c7.586,2.071,16.678-5.652,20.137-11.185c0.332,7.86,4.749,12.416,12.809,11.466c6.764-0.799,12.469-5.151,16.116-10.566
		c3.336,15.456,15.369,12.086,24.805,2.638c-1.039,2.472-2.253,4.844-3.298,7.337c-0.564,1.349-1.08,2.733-1.939,3.898
		c-0.594,0.799-1.349,1.5-2.176,2.055c-1.703,1.148-3.715,1.717-5.574,2.582c-1.786,0.833-3.427,1.944-4.998,3.131
		c-2.794,2.115-5.371,4.473-7.631,7.201c-2.394,2.89-4.431,6.194-5.171,9.829c-0.427,2.091-0.422,4.289,0.283,6.375
		c0.911,2.692,2.982,5.188,5.589,6.048c1.852,0.605,3.969,0.386,5.835-0.303c2.535-0.933,4.609-2.73,6.373-4.741
		c1.896-2.156,3.435-4.556,4.885-7.005c2.653-4.478,5.007-9.118,7.355-13.771c1.512-2.992,3.017-5.987,4.362-9.053
		c0.936-2.132,1.795-4.301,2.611-6.485c6.896-4.79,12.262-9.985,17.281-14.873c0.007-0.002,0.01-0.007,0.015-0.012
		s0.01-0.01,0.015-0.015c4.253-4.36,8.381-8.598,12.32-12.887c0.008-0.01,0.018-0.017,0.024-0.027
		c0.008-0.012,0.02-0.022,0.027-0.032c0.791-0.958,1.629-1.881,2.537-2.736c0.646-0.605,1.324-1.182,2.064-1.683
		c0.425-0.285,0.869-0.547,1.341-0.755c0.205-0.091,0.418-0.171,0.633-0.236c0.376-0.107,0.774-0.175,1.168-0.125
		c0.054,0.502,0.075,1.005,0.054,1.501c-0.181,4.042-3.369,7.486-6.007,10.835c-1.456,1.85-2.748,3.669-3.959,5.606
		c-0.887,1.411-1.732,2.892-2.185,4.479c-0.415,1.478-0.49,3.048-0.273,4.587c0.218,1.539,0.73,3.046,1.654,4.309
		c0.677,0.924,1.568,1.715,2.605,2.223c1.793,0.875,4.017,0.892,6.002,0.413c1.736-0.423,3.295-1.219,4.787-2.122
		c1.371-0.831,2.683-1.742,3.945-2.719c1.48-1.141,2.89-2.372,4.141-3.74c0.503,1.69,1.201,3.347,2.364,4.847
		c1.126,1.448,2.682,2.75,4.325,3.444c6.126,2.586,13.462-3.225,17.658-7.431c3.341,10.337,7.455,8.822,11.6,5.713
		c6.644-4.99,13.366-14.089,16.194-18.815c-3.806,7.138-7.647,14.253-11.492,21.368c-5.801,10.737-11.612,21.476-17.34,32.291
		c-1.425,2.697-2.868,5.376-4.175,8.19h9.191c11.038-20.481,14.93-28.236,18.369-34.829c1.087-2.076,2.127-4.04,3.446-6.412
		c1.803-3.234,4.12-7.228,6.575-11.141c0.975-1.549,1.964-3.083,2.997-4.6c1.471-2.151,3.02-4.257,4.6-6.341
		c1.52-2.008,3.072-3.991,4.731-5.894c0.767-0.875,1.549-1.737,2.415-2.516c0.862-0.774,1.798-1.472,2.829-2.039
		c1.253-0.686,2.647-1.186,4.104-1.168c0.308,0.005,0.618,0.032,0.889,0.146c0.374,0.158,0.68,0.484,0.88,0.838
		c0.569,1.016,0.259,2.274-0.179,3.425c-2,5.261-6.609,8.229-9.333,12.77c-1.404,2.335-2.311,5.086-2.154,7.782
		c0.098,1.656,0.594,3.288,1.458,4.746c0.875,1.466,2.123,2.75,3.652,3.52c2.273,1.139,5.171,1.139,7.649,0.392
		c3.186-0.97,5.682-3.179,7.929-5.491c4.497-4.639,7.982-9.697,12.035-15.174c-3.832,7.187-7.697,14.343-11.563,21.505
		c-5.801,10.737-11.612,21.476-17.34,32.291c-1.424,2.697-2.868,5.376-4.175,8.19h9.189c11.043-20.481,14.932-28.236,18.371-34.829
		c1.087-2.076,2.127-4.04,3.443-6.412c1.803-3.234,4.123-7.228,6.581-11.141c0.972-1.549,1.961-3.083,2.992-4.6
		c1.47-2.151,3.019-4.257,4.599-6.341c1.522-2.008,3.076-3.991,4.736-5.894c0.763-0.875,1.549-1.737,2.416-2.516
		c0.857-0.774,1.793-1.472,2.826-2.039c1.253-0.686,2.646-1.186,4.106-1.168c0.303,0.005,0.612,0.032,0.889,0.146
		c0.371,0.158,0.677,0.484,0.877,0.838c0.571,1.016,0.259,2.274-0.181,3.425c-1.998,5.261-6.607,8.229-9.331,12.77
		c-1.407,2.335-2.311,5.086-2.154,7.782c0.096,1.656,0.591,3.288,1.461,4.746c0.872,1.466,2.12,2.75,3.651,3.52
		c2.27,1.139,5.169,1.139,7.65,0.392c3.183-0.97,5.679-3.179,7.926-5.491c1.759-1.815,3.364-3.696,4.91-5.638
		c0.112,0.728,0.271,1.441,0.467,2.157c0.51,1.927,1.238,3.827,2.557,5.532c1.127,1.446,2.683,2.745,4.324,3.439
		c6.123,2.589,13.461-3.22,17.657-8.052c0.122,1.407,0.552,2.771,1.246,4.231c0.578,1.221,1.343,2.511,2.171,3.312
		c1.788,1.729,3.874,1.199,6.077-0.029c7.135-3.981,15.472-15.266,18.298-19.995C428.186,66.868,427.356,66.81,426.523,66.756
		 M134.277,65.603c1.554-3.129,3.615-5.588,6.036-8.126c1.578-1.657,3.312-3.347,5.376-3.334c0.403,0.002,0.818,0.071,1.214,0.203
		c0.738,0.243,1.419,0.704,1.847,1.329c0.439,0.647,0.608,1.47,0.593,2.279c-0.02,1.236-0.469,2.435-1.17,3.41
		c-0.518,0.729-1.104,1.417-1.761,2.018c-1.453,1.319-3.268,2.198-5.12,2.922c-2.203,0.857-4.455,1.497-6.773,1.775
		c-0.449,0.052-0.899,0.093-1.351,0.125C133.359,67.615,133.796,66.575,134.277,65.603 M37.894,66.392
		c-2.418,4.766-6.649,10.112-10.469,13.202c-3.823,3.088-7.228,3.921-8.813,1.635c-1.581-2.284-1.336-7.683,1.06-12.756
		c2.398-5.073,6.949-9.816,10.953-12.298c3.999-2.481,7.45-2.697,8.874-0.715C40.918,57.444,40.315,61.626,37.894,66.392
		 M155.025,122.418c-0.647-0.76-1.038-2.066-1.067-3.495c-0.015-0.862,0.156-1.708,0.432-2.431
		c2.438-6.319,10.748-12.875,13.452-14.123c1.534-0.709,2.32-1.033,2.777-1.173C164.111,119.883,157.574,125.402,155.025,122.418
		 M181.935,66.44c-2.509,4.766-6.894,10.112-10.853,13.202c-3.957,3.093-7.484,3.923-9.125,1.637
		c-1.639-2.281-1.387-7.682,1.094-12.76c2.484-5.071,7.201-9.817,11.348-12.296c4.145-2.48,7.721-2.698,9.194-0.714
		C185.069,57.493,184.441,61.675,181.935,66.44 M260.973,66.392c-2.507,4.766-6.891,10.112-10.851,13.202
		c-3.957,3.088-7.486,3.921-9.125,1.635c-1.637-2.284-1.391-7.683,1.097-12.756c2.486-5.075,7.2-9.816,11.348-12.298
		c4.143-2.481,7.719-2.697,9.194-0.715C264.107,57.444,263.479,61.626,260.973,66.392 M404.619,66.392
		c-2.506,4.766-6.891,10.112-10.853,13.202c-3.954,3.088-7.483,3.921-9.123,1.635c-1.639-2.284-1.39-7.683,1.095-12.756
		s7.203-9.816,11.349-12.298c4.145-2.481,7.721-2.697,9.196-0.715C407.754,57.444,407.126,61.626,404.619,66.392"/>
</g>
</svg>
