<?xml version="1.0" encoding="UTF-8" standalone="no"?>
<svg
   xmlns:dc="http://purl.org/dc/elements/1.1/"
   xmlns:cc="http://creativecommons.org/ns#"
   xmlns:rdf="http://www.w3.org/1999/02/22-rdf-syntax-ns#"
   xmlns:svg="http://www.w3.org/2000/svg"
   xmlns="http://www.w3.org/2000/svg"
   viewBox="0 0 377.94666 125.98667"
   height="125.98667"
   width="377.94666"
   xml:space="preserve"
   id="svg2"
   version="1.1"><metadata
     id="metadata8"><rdf:RDF><cc:Work
         rdf:about=""><dc:format>image/svg+xml</dc:format><dc:type
           rdf:resource="http://purl.org/dc/dcmitype/StillImage" /></cc:Work></rdf:RDF></metadata><defs
     id="defs6" /><g
     transform="matrix(1.3333333,0,0,-1.3333333,0,125.98667)"
     id="g10"><g
       transform="scale(0.1)"
       id="g12"><path
         id="path14"
         style="fill:#231f20;fill-opacity:1;fill-rule:nonzero;stroke:none"
         d="m 23.0313,58.1055 v -5.3321 c 0,-24.7851 15.6796,-32.539 30.5703,-32.539 18.4453,0 32.5507,7.7539 32.5507,29.4531 0,40.4688 -81.78902,35.918 -81.78902,90.7035 0,32.343 22.95312,49.492 53.49612,49.492 33.3437,0 52.0586,-16.172 50.5626,-53.281 H 84.1445 c 0.2188,19.961 -6.0507,33.046 -27.9922,33.046 -13.8906,0 -28.0507,-7.05 -28.0507,-26.757 0,-40.137 81.8164,-34.336 81.8164,-92.1097 C 109.918,12.3633 83.3594,0 53.3594,0 -0.40625,-0.488281 -0.40625,40.6836 0.0820313,58.1055 H 23.0313" /><path
         id="path16"
         style="fill:#231f20;fill-opacity:1;fill-rule:nonzero;stroke:none"
         d="m 256.859,186.074 h 24.743 L 315.914,27.9883 h 0.516 l 36.593,158.0857 h 30.059 L 416.148,27.9883 h 0.489 l 37.164,158.0857 h 24.222 L 429.82,3.78906 H 401.527 L 366.914,161.836 h -0.488 L 329.586,3.78906 H 301.324 L 256.859,186.074" /><path
         id="path18"
         style="fill:#231f20;fill-opacity:1;fill-rule:nonzero;stroke:none"
         d="M 633.297,186.035 V 3.78906 L 654.91,3.69141 654.863,186.035 h -21.566" /><path
         id="path20"
         style="fill:#231f20;fill-opacity:1;fill-rule:nonzero;stroke:none"
         d="M 932.742,186.074 V 165.898 H 884.813 V 3.78906 H 861.531 V 165.898 h -47.945 v 20.176 h 119.156" /><path
         id="path22"
         style="fill:#231f20;fill-opacity:1;fill-rule:nonzero;stroke:none"
         d="M 1184.24,162.852 1093.86,23.9648 h 92.38 V 3.78906 H 1072.37 V 30.0391 l 88.38,135.3129 v 0.546 h -85.35 v 20.176 h 108.84 v -23.222" /><path
         id="path24"
         style="fill:#231f20;fill-opacity:1;fill-rule:nonzero;stroke:none"
         d="M 1343.1,3.78906 V 186.074 h 93.87 v -20.176 h -70.65 v -58.593 h 65.57 V 87.1289 h -65.57 V 23.9648 h 72.13 V 3.78906 h -95.35" /><path
         id="path26"
         style="fill:#231f20;fill-opacity:1;fill-rule:nonzero;stroke:none"
         d="m 1621.99,165.898 h 35.15 c 17.91,0 24.48,-14.648 24.48,-27.773 0,-15.898 -8.09,-30.273 -24.69,-30.273 h -34.94 z m 27.28,-78.2808 c 7.87,0 25.78,-1.0352 27.58,-23.2227 1.99,-24.2578 0.49,-47.9687 7.05,-60.60544 h 24.24 c -3.52,11.38674 -6.07,39.88284 -6.29,47.69534 -1.31,36.6211 -8.85,43.6719 -29.84,46.9726 v 0.5469 c 21.48,3.7501 33.32,20.1371 33.32,41.6601 0,22.734 -11.29,45.41 -43.62,45.41 h -62.95 V 3.78906 h 23.23 V 87.6172 h 27.28" /><path
         id="path28"
         style="fill:#231f20;fill-opacity:1;fill-rule:nonzero;stroke:none"
         d="M 1869.71,3.78906 V 186.074 h 23.22 V 23.9648 h 66.96 V 3.78906 h -90.18" /><path
         id="path30"
         style="fill:#231f20;fill-opacity:1;fill-rule:nonzero;stroke:none"
         d="m 2196.43,67.4219 h -58.26 l 28.53,97.1681 h 0.49 z M 2095.26,3.78906 h 23.44 l 13.67,43.39844 h 70.41 L 2215.9,3.78906 h 26 L 2182.54,186.074 h -29.51 L 2095.26,3.78906" /><path
         id="path32"
         style="fill:#231f20;fill-opacity:1;fill-rule:nonzero;stroke:none"
         d="M 2522.39,186.074 V 3.78906 h -31.8 L 2418.66,161.836 h -0.55 V 3.78906 h -20.72 V 186.074 h 32.87 l 70.98,-156.0349 h 0.52 V 186.074 h 20.63" /><path
         id="path34"
         style="fill:#231f20;fill-opacity:1;fill-rule:nonzero;stroke:none"
         d="m 2718.34,165.898 h 30.55 c 24.26,0 35.65,-13.613 35.65,-50.507 V 78.5547 c 0,-42.4219 -11.94,-54.5899 -44.28,-54.5899 h -21.92 z M 2695.12,3.78906 h 41.9 c 31.83,0 50.29,7.81254 60.11,23.49614 7.58,12.0898 11.12,34.6093 11.12,73.5158 0,5.742 -0.82,42.09 -8.09,57.5 -9.12,19.433 -25.76,27.773 -48.98,27.773 h -56.06 V 3.78906" /><path
         id="path36"
         style="fill:#231f20;fill-opacity:1;fill-rule:nonzero;stroke:none"
         d="m 1421.27,436.215 c -38.28,159.719 -84.99,319.93 -124.57,485.996 l -3.34,5.586 H 901.938 c -9.981,-31.192 -18.946,-64.504 -26.719,-95.645 l -84.5,-305.879 C 779.613,494.047 778.512,458.5 761.773,429.594 750.68,414.027 733.988,406.215 716.227,407.348 v -36.739 c 0.273,0.274 283.289,-0.254 283.289,-0.429 l 0.265,35.156 c -13.351,-2.441 -27.785,-0.273 -36.672,10.918 -7.793,6.66 -10.019,16.641 -10.019,26.621 l 22.246,90.125 3.34,6.672 H 1211.1 l 2.23,-1.082 c 5.55,-20.074 10,-38.957 13.34,-58.977 2.22,-20.019 15.54,-47.793 -5.56,-63.359 -8.9,-10.039 -21.11,-8.906 -33.39,-8.906 -3.34,-9.981 -1.11,-24.532 -2.23,-36.739 -0.27,0.274 288.04,-0.254 288.04,-0.156 v 36.895 c -22.21,-4.453 -41.07,9.98 -52.26,28.867 m -429.274,161.289 1.113,7.762 64.511,262.472 c 27.37,0.274 44.05,0.977 77.87,0 l 62.23,-270.234 H 991.996" /><path
         id="path38"
         style="fill:#231f20;fill-opacity:1;fill-rule:nonzero;stroke:none"
         d="m 2826.3,813.598 c -17.73,63.476 -82.28,119.082 -146.85,126.843 -66.74,4.446 -134.55,4.446 -202.31,4.446 -43.36,-1.082 -86.75,-1.082 -123.47,-18.875 -58.99,-27.832 -101.25,-86.754 -104.55,-152.399 l -1.1,-213.484 c -1.19,-24.524 3.26,-47.852 11.08,-70.039 21.15,-61.258 81.21,-111.219 145.72,-119.09 80.08,-3.32 164.61,-3.32 244.69,0 28.9,-1.094 54.47,6.719 78.88,16.699 57.84,26.699 102.37,84.531 105.69,149.043 l 0.43,174.481 c 0,36.672 1.83,70.203 -8.21,102.375 m -171.27,-19.965 -1.09,-290.309 c -5.59,-31.094 -28.96,-59.961 -60.1,-71.133 -38.96,-10.039 -90.06,-11.113 -125.66,7.754 -23.38,16.719 -42.25,41.192 -44.47,72.332 V 805.84 c 4.43,30.055 24.41,60.058 54.47,73.457 43.4,15.57 106.76,16.656 143.53,-13.399 l 21.06,-23.328 c 6.74,-14.433 14.49,-30 12.26,-48.937" /><path
         id="path40"
         style="fill:#231f20;fill-opacity:1;fill-rule:nonzero;stroke:none"
         d="m 1953.98,928.773 -439.24,1.145 -2.28,-2.227 v -38.957 c 15.04,0 7.87,2.715 28.92,-2.218 19.69,-9.442 26.74,-19.914 31.19,-45.625 V 448.305 l -6.72,-15.508 c -11.19,-15.625 -28.92,-24.531 -47.81,-24.531 0,-13.282 -0.7,-14.317 -1.01,-37.813 h 313.51 c 68.97,3.32 144.53,-7.754 202.37,23.379 60.05,31.152 100.09,91.207 103.47,157.887 v 201.332 c -1.09,18.879 -5.55,35.594 -11.13,53.387 -25.55,70.089 -95.65,120.117 -171.27,122.335 m 4.45,-431.472 c -2.22,-22.297 -14.43,-43.41 -33.43,-55.617 -14.42,-8.887 -31.08,-13.282 -48.93,-13.34 -53.59,-0.274 -81.39,-1.582 -123.69,-1.582 l 0.31,12.695 v 430.402 l 137.48,1.082 c 21.54,-2.226 42.7,-14.484 56.06,-34.503 7.75,-11.067 9.98,-24.415 12.2,-37.817 v -301.32" /><path
         id="path42"
         style="fill:#231f20;fill-opacity:1;fill-rule:nonzero;stroke:none"
         d="m 632.781,430.297 c -22.215,35.523 -30,76.715 -48.957,113.391 -15.547,34.507 -54.445,60.058 -92.261,63.367 38.925,3.367 75.605,20.074 97.875,53.386 40.011,52.297 32.226,136.77 3.335,191.297 -33.394,54.469 -91.226,74.543 -150.171,76.77 H 0.00390625 v -35.594 c 11.11719375,0 22.21879375,0 31.11329375,-4.445 16.7109,-8.899 28.9453,-25.555 31.168,-44.489 V 455.844 l -5.5625,-20.02 C 45.6055,415.805 25.6094,405.766 2.22656,407.992 c 0,-13.34 -1.11328,-26.64 1.11328,-37.812 H 304.719 v 35.586 c -9.985,0 -21.106,1.152 -31.114,6.679 -14.488,8.907 -26.718,24.532 -28.949,41.172 v 129.024 l 2.231,1.086 h 92.332 c 57.785,-13.344 71.179,-75.579 86.726,-122.336 13.348,-35.606 30.055,-78.946 71.18,-91.211 l 182.371,1.152 v 37.813 c -18.887,-2.227 -36.676,6.66 -46.715,21.152 M 442.602,704.98 c -7.758,-30.054 -36.649,-56.746 -68.93,-61.195 -41.121,-3.312 -85.609,-1.086 -127.902,-1.086 v 227.969 c 103.839,0.816 149.003,18.883 189.074,-42.258 15.543,-36.73 13.32,-83.39 7.758,-123.43" /></g></g></svg>