<?xml version="1.0" encoding="utf-8"?>
<svg xmlns="http://www.w3.org/2000/svg" viewBox="0 0 340.16 141.73">
    <style>.st0{fill:#c3a572}</style>
    <path class="st0"
          d="M91.63 98.9v11.58h2.14v-4.93h6.18v-2.03h-6.18v-2.6h7.49V98.9zM137.04 98.9l-2.59 6.86-2.67-6.23-2.64 6.23-2.61-6.86h-2.25l4.71 11.82 2.79-6.72 2.67 6.72 4.85-11.82zM228.73 102.79l1.55 3.6h-3.12l1.57-3.6zm-5.64 7.69h2.29l.96-2.18h4.78l.94 2.18h2.31l-5.55-11.88-5.73 11.88zM239.52 110.48h2.14v-7.12l7.47 7.45V98.9h-2.14v7.15l-7.47-7.49zM79.59 110.72c-3.47 0-6.22-2.64-6.22-6.03s2.75-6.03 6.22-6.03c3.47 0 6.21 2.63 6.21 6.03.01 3.39-2.74 6.03-6.21 6.03m0-10.04c-2.09 0-3.97 1.75-3.97 4s1.88 4 3.97 4c2.08 0 3.96-1.75 3.96-4s-1.88-4-3.96-4M114.92 110.72c-1.62 0-3.5-.61-4.96-2.13l1.62-1.46c.87.92 2.08 1.56 3.43 1.56 1.63-.02 2.77-.63 2.77-1.73 0-2.58-7.47-.09-7.47-4.82 0-2.06 2.16-3.48 4.8-3.48 1.92 0 3.47.61 4.61 1.77l-1.59 1.42c-1.05-1.04-2.01-1.39-3.13-1.39-1.77 0-2.43.87-2.43 1.57 0 2.6 7.47 0 7.47 4.81-.01 2.42-2.46 3.88-5.12 3.88M144.52 98.9h2.14v11.58h-2.14zM152.07 98.9v2.02h3.39v9.56h2.14v-9.56h3.39V98.9zM165.38 98.9v2.02h5.7l-6.03 9.56h9.72v-2.03h-6.05l6.13-9.55zM180.24 98.9v11.58h9.63v-2.03h-7.48v-2.9h6.18v-2.03h-6.18v-2.6h7.48V98.9zM203.54 110.48l-2.41-3.65h-3.36v3.65h-2.14V98.9h6.25c2.58 0 4.17 1.7 4.17 3.96 0 1.68-1.16 3.01-2.71 3.49l2.89 4.13h-2.69zm-1.82-9.56h-3.95v3.88h3.95c1.51 0 2.19-.9 2.19-1.94 0-1.03-.68-1.94-2.19-1.94M211.84 98.9v11.58h8.83v-2.03h-6.69V98.9zM261.08 110.48h-5.26V98.9h5.26c3.91 0 6.21 2.72 6.21 5.79 0 3.06-2.4 5.79-6.21 5.79m0-9.56h-3.12v7.53h3.12c2.49 0 4.07-1.71 4.07-3.76s-1.58-3.77-4.07-3.77M106.42 80.32c-11.91 0-21.34-9.06-21.34-20.71 0-11.72 9.44-20.71 21.34-20.71 11.97 0 21.35 8.99 21.35 20.71 0 11.65-9.38 20.71-21.35 20.71m0-35.91c-7.88 0-15.08 6.7-15.08 15.2 0 8.51 7.19 15.21 15.08 15.21 7.94 0 15.2-6.7 15.2-15.21 0-8.5-7.25-15.2-15.2-15.2M148.85 46.19l8.16 18.33h-16.4l8.24-18.33zm.22-12.82l-21.89 46.11h6.56l4.22-9.16h21.69l4.08 9.16h6.57l-21.23-46.11zM172.95 79.48h6.21V48.45l13.77 14.46 13.77-14.46v31.03h6.21V33.86L193 54.35l-20.05-20.77zM221.68 79.42V40.87h32.04v5.61h-25.85v10.37h21.19v5.56h-21.19V73.8h25.85v5.62z"></path>
    <path class="st0"
          d="M298.56 64.02c0-7.81-5.66-14.23-14.78-14.23h-22.65v36.54H76.74l-6.35-8.98c6.71-1.43 10.48-7.27 10.48-13.32 0-7.81-5.66-14.23-14.78-14.23H43.44v42h6.05V78.26h13.93L72.6 91.8h194.58V78.26h13.93l9.18 13.54h8.01l-10.22-14.45c6.7-1.43 10.48-7.27 10.48-13.33M49.49 72.79V55.26H65.5c6.51 0 9.37 4.47 9.37 8.77s-2.86 8.77-9.37 8.77H49.49zm217.69 0V55.26h16.01c6.51 0 9.37 4.47 9.37 8.77s-2.87 8.77-9.37 8.77h-16.01z"></path>
</svg>
