<svg width="115px" height="37px" viewBox="0 0 115 37" version="1.1" xmlns="http://www.w3.org/2000/svg" xmlns:xlink="http://www.w3.org/1999/xlink">
  <path d="M88.8866084,36.8006087 L88.8866084,30.2300254 L88.1836084,30.2323379 L86.3713792,30.8112337 L86.3713792,31.5643379 L86.52015,31.5620254 L87.9107334,31.0987545 L87.9107334,36.8006087 L88.8866084,36.8006087 Z M82.8401917,31.8156295 C82.8401917,32.5679629 82.1811292,32.9541504 81.9414,33.0821087 C80.9847959,32.7637545 80.5577542,32.3652337 80.5577542,31.7894212 C80.5577542,31.202817 80.9847959,30.8520879 81.7001292,30.8520879 C82.4239417,30.8520879 82.8401917,31.2035879 82.8401917,31.8156295 Z M83.0552542,35.1286712 C83.0552542,35.7754004 82.5318584,36.1770045 81.6901084,36.1770045 C80.8468167,36.1770045 80.3434625,35.772317 80.3434625,35.0939837 C80.3434625,34.514317 80.7265667,34.037942 81.45115,33.7149629 C82.575025,34.0764837 83.0552542,34.500442 83.0552542,35.1286712 Z M84.0665875,35.0939837 C84.0665875,34.3177545 83.5724834,33.7041712 82.67215,33.3557545 C83.4283375,33.011192 83.842275,32.4446295 83.842275,31.7462545 C83.842275,30.7619004 83.0043792,30.1267337 81.7078375,30.1267337 C80.4005042,30.1267337 79.5564417,30.7788587 79.5564417,31.7894212 C79.5564417,32.502442 79.9649834,33.0728587 80.7119209,33.4104837 C80.142275,33.6440462 79.3321292,34.1558795 79.3321292,35.171067 C79.3321292,36.2240254 80.2401709,36.9039004 81.6454,36.9039004 C83.11615,36.9039004 84.0665875,36.193192 84.0665875,35.0939837 Z M75.7076709,31.8156295 C75.7076709,32.5679629 75.0493792,32.9533795 74.8088792,33.0821087 C73.852275,32.7637545 73.4252334,32.3652337 73.4252334,31.7894212 C73.4252334,31.202817 73.852275,30.8520879 74.5668375,30.8520879 C75.2914209,30.8520879 75.7076709,31.2035879 75.7076709,31.8156295 Z M75.9227334,35.1286712 C75.9227334,35.7754004 75.3993375,36.1770045 74.5575875,36.1770045 C73.713525,36.1770045 73.2109417,35.772317 73.2109417,35.0939837 C73.2109417,34.514317 73.5940459,34.037942 74.3194,33.7149629 C75.4425042,34.0764837 75.9227334,34.500442 75.9227334,35.1286712 Z M76.9332959,35.0939837 C76.9332959,34.3177545 76.4399625,33.7041712 75.5396292,33.3557545 C76.2958167,33.011192 76.7097542,32.4446295 76.7097542,31.7462545 C76.7097542,30.7619004 75.8718584,30.1267337 74.5760875,30.1267337 C73.2679834,30.1267337 72.4239209,30.7788587 72.4239209,31.7894212 C72.4239209,32.502442 72.8316917,33.0728587 73.5794,33.4104837 C73.0089834,33.6440462 72.1996084,34.1558795 72.1996084,35.171067 C72.1996084,36.2240254 73.1068792,36.9039004 74.5128792,36.9039004 C75.9836292,36.9039004 76.9332959,36.193192 76.9332959,35.0939837 Z M68.8472542,36.8006087 L68.8472542,30.2300254 L68.1442542,30.2323379 L66.332025,30.8112337 L66.332025,31.5643379 L66.4815667,31.5620254 L67.8713792,31.0987545 L67.8713792,36.8006087 L68.8472542,36.8006087 Z M59.3529,36.8006087 L59.3529,36.040567 L56.3019417,36.040567 L56.3019417,33.7450254 L58.7801709,33.7450254 L58.7801709,32.9849837 L56.3019417,32.9849837 L56.3019417,30.990067 L59.209525,30.990067 L59.209525,30.2300254 L55.3252959,30.2300254 L55.3252959,36.8006087 L59.3529,36.8006087 Z M52.3583584,36.5878587 L52.3583584,35.8594212 L52.2065042,35.864817 C52.1995667,35.8663587 51.5898375,36.1168795 50.8860667,36.1168795 C49.4931709,36.1168795 48.6622125,35.1410045 48.6622125,33.5068379 C48.6622125,31.882692 49.4931709,30.9122129 50.8860667,30.9122129 C51.5898375,30.9122129 52.1995667,31.1635045 52.2280875,31.1696712 L52.3583584,31.1696712 L52.3583584,31.1118587 L52.3198167,30.3880462 C52.29515,30.3780254 51.6923584,30.1606504 50.8413584,30.1606504 C48.8264,30.1606504 47.6239,31.4147962 47.6239,33.5145462 C47.6239,35.615067 48.8264,36.8692129 50.8413584,36.8692129 C51.6923584,36.8692129 52.29515,36.6518379 52.3583584,36.5878587 Z M44.9013167,36.8006087 L44.9013167,30.2300254 L44.0056084,30.2300254 L44.0056084,35.2096087 L40.5199,30.2300254 L39.5941292,30.2300254 L39.5941292,36.8006087 L40.4882959,36.8006087 L40.4882959,31.7585879 L44.0464625,36.8006087 L44.9013167,36.8006087 Z M35.1194417,36.8006087 L36.1037959,36.8006087 L36.1037959,30.2300254 L35.1194417,30.2300254 L35.1194417,36.8006087 Z M29.4006292,36.8692129 C28.4332334,36.8692129 27.7672334,36.5762962 27.7394834,36.563192 L27.7047959,35.8154837 L27.7047959,35.7569004 L27.8350667,35.7569004 C27.8682125,35.7661504 28.6714209,36.1346087 29.4723167,36.1346087 C30.3079,36.1346087 30.8282125,35.7391712 30.8282125,35.1032337 C30.8282125,34.3948379 30.1591292,34.0911295 29.4507334,33.7704629 C28.6405875,33.4035462 27.722525,32.9872962 27.722525,31.8749837 C27.722525,30.8019837 28.5504,30.1606504 29.9379,30.1606504 C30.77965,30.1606504 31.4972959,30.4011504 31.5050042,30.4042337 L31.5443167,31.1203379 L31.5443167,31.1789212 L31.4140459,31.1789212 C31.3862959,31.1719837 30.6694209,30.8952545 29.9556292,30.8952545 C29.1909625,30.8952545 28.7338584,31.2236295 28.7338584,31.7732337 C28.7338584,32.405317 29.3381917,32.6766504 30.0381084,32.992692 C30.8821709,33.3727129 31.8395459,33.8036087 31.8395459,35.0084212 C31.8395459,36.1739212 30.9284209,36.8692129 29.4006292,36.8692129 Z" id="1881"></path>
  <path d="M81.3921042,22.0772295 L92.4157917,22.0772295 L92.4157917,18.8643962 L89.3054792,18.8643962 L81.5532084,9.62904205 L88.8591667,4.01968788 L92.0103334,4.01968788 L92.0103334,0.836146215 L81.3921042,0.836146215 L81.3921042,4.01968788 L83.6252084,4.01968788 L72.9607292,12.2059379 L72.9607292,4.02816705 L76.6006042,4.02816705 L76.6006042,0.840000381 L65.5561042,0.840000381 L65.5561042,4.02816705 L69.238375,4.02816705 L69.238375,18.8875212 L65.5561042,18.8875212 L65.5561042,22.0772295 L76.6006042,22.0772295 L76.6006042,18.8875212 L72.9607292,18.8875212 L72.9607292,16.2266045 L78.5538959,11.9268962 L84.3783125,18.8643962 L81.3921042,18.8643962 L81.3921042,22.0772295 Z M20.5224792,16.0554795 C20.5224792,17.852292 18.849,19.545042 13.6620625,19.5596879 C11.2439584,19.572792 5.47581255,18.6647504 5.43495838,16.1464379 L5.43495838,14.7427504 L1.71954171,14.7427504 L1.71954171,22.0695212 L5.43495838,22.0695212 L5.43495838,20.8007295 C6.55420838,21.3557295 9.69843755,22.6938962 13.886375,22.7116254 C18.0288334,22.7293545 21.1537917,21.8860629 22.5520834,20.2195212 C23.5140834,19.0748337 24.2378959,17.6911879 24.2378959,16.076292 C24.2378959,13.1355629 22.1450834,10.7768129 19.3508125,10.2179587 C18.849,10.1169795 16.9411875,9.86414621 15.9098125,9.84950038 C12.637625,9.81095871 9.70768755,9.59820871 7.45608338,9.33150038 C5.92675005,9.14881288 4.85606255,8.43733371 4.94239588,6.79006288 C4.98093755,6.08706288 5.23377088,5.40872955 5.70552088,4.95702121 C6.95195838,3.75760455 9.29143755,3.33133371 12.01325,3.42845871 C14.7350625,3.53020871 16.6991459,4.25170871 18.2585417,4.95162538 C19.5442917,5.53283371 20.0067917,6.30058371 19.9967709,7.27722955 L19.9967709,8.27931288 L23.7145,8.27931288 L23.7145,0.846937881 L19.9967709,0.846937881 L19.9967709,2.38706288 C18.7248959,1.60697955 15.58375,0.355917048 11.3364584,0.331250381 C6.96660421,0.304271215 4.55697921,1.19535455 3.05231255,2.59518788 C1.99318755,3.58416705 1.19460421,5.23452121 1.20000005,6.82475038 C1.20385421,9.39239621 2.57439588,11.1976879 4.63406255,11.9477087 C6.88181255,12.7678754 11.5892917,12.8966045 13.8370417,12.996042 C15.9606875,13.0939379 17.8954792,13.0083754 19.2452084,13.759167 C20.019125,14.189292 20.5224792,15.0996462 20.5224792,16.0554795 Z M25.9329584,0.840000381 L25.9329584,4.02816705 L29.6468334,4.02816705 L29.6468334,18.8875212 L25.9329584,18.8875212 L25.9329584,22.0772295 L46.4332709,22.0772295 L50.151,22.0772295 L50.151,14.8568337 L46.4332709,14.8568337 L46.4332709,18.8875212 L33.3614792,18.8875212 L33.3614792,13.1478962 L39.2121042,13.1478962 L39.2121042,15.3763754 L42.9259792,15.3763754 L42.9259792,7.51772955 L39.2121042,7.51772955 L39.2121042,9.96050038 L33.3614792,9.96050038 L33.3614792,4.02816705 L46.4332709,4.02816705 L46.4332709,8.28239621 L50.151,8.28239621 L50.151,0.849250381 L25.9329584,0.840000381 Z M63.434,4.02816705 L63.434,0.840000381 L52.597625,0.840000381 L52.597625,4.02816705 L56.177375,4.02816705 L56.177375,18.8875212 L52.597625,18.8875212 L52.597625,22.0772295 L63.434,22.0772295 L63.434,18.8875212 L59.8927917,18.8875212 L59.8927917,4.02816705 L63.434,4.02816705 Z M103.842625,22.6314587 C111.106958,22.6314587 115.914646,17.4907712 115.914646,11.3472295 C115.914646,5.52512538 111.571771,0.100000381 103.668417,0.100000381 C96.6846667,0.100000381 91.8145417,5.09962538 91.8145417,11.3241045 C91.8145417,17.547042 96.720125,22.6314587 103.842625,22.6314587 Z M95.4844792,11.3241045 C95.4844792,6.87562538 99.0087292,3.27737538 103.842625,3.27737538 C108.600208,3.27737538 112.210021,6.94268788 112.210021,11.3896254 C112.210021,15.8365629 108.5,19.484917 103.842625,19.4409795 C98.9324167,19.3908754 95.4844792,15.7702712 95.4844792,11.3241045 Z"></path>
</svg>
