<?xml version="1.0" encoding="utf-8"?>
<!-- Generator: Adobe Illustrator 19.1.0, SVG Export Plug-In . SVG Version: 6.00 Build 0)  -->
<svg version="1.1" id="Layer_1" xmlns="http://www.w3.org/2000/svg" xmlns:xlink="http://www.w3.org/1999/xlink" x="0px" y="0px"
	 viewBox="0 0 372 85" style="enable-background:new 0 0 372 85;" xml:space="preserve">
<style type="text/css">
	.st2{fill:#FFFFFF;}
	.st1{fill:#DF0110;}
</style>
<g>
	<path class="st0" d="M139.9,54.4c0,0,0,11.4,0,12.1c-0.7,0-11,0-11.7,0c0-0.7,0-12.1,0-12.1h-4.3v27.8h4.3c0,0,0-11.6,0-12.3
		c0.7,0,11,0,11.7,0c0,0.7,0,12.3,0,12.3h4.3V54.4h-0.4H139.9z"/>
	<path class="st0" d="M173.2,54.4h-3.8L158,82.3h4.1c0,0,2.9-7,3.1-7.5c0.5,0,11,0,11.5,0c0.2,0.4,2.8,7.5,2.8,7.5h4.6l-10.5-27.8
		H173.2z M175.2,71.4c-0.9,0-7.9,0-8.8,0c0.4-0.9,4-9.8,4.6-11.2C171.6,61.6,174.9,70.5,175.2,71.4z"/>
	<path class="st0" d="M214.7,54.4v19.6c0,0,0,0.4,0,0.8c-1.3-2-12.9-20.4-12.9-20.4h-4.1v27.8h4V62.6c0,0,0-0.4,0-0.9
		c1.3,2,12.9,20.6,12.9,20.6h4V54.4h-0.4H214.7z"/>
	<path class="st0" d="M245.7,53.6c-4,0-7,1.5-9.2,4.6c-1.8,2.6-2.7,6-2.7,10.1c0,4.1,0.9,7.5,2.7,10.1c2.1,3.1,5.2,4.6,9.2,4.6
		c4,0,7-1.6,9.2-4.6c1.8-2.6,2.7-6,2.7-10.1c0-4.1-0.9-7.5-2.7-10.1C252.7,55.2,249.6,53.6,245.7,53.6z M245.7,57
		c2.7,0,4.6,1.2,5.9,3.8c1,2,1.6,4.6,1.6,7.5c0,3-0.5,5.5-1.6,7.6c-1.3,2.5-3.3,3.8-5.9,3.8c-2.6,0-4.6-1.2-5.9-3.8
		c-1-2-1.6-4.6-1.6-7.5c0-3,0.5-5.5,1.6-7.5C241.1,58.3,243,57,245.7,57z"/>
	<path class="st0" d="M299.6,54.4l-4.5,19.4c0,0-0.1,0.8-0.3,1.6c-0.1-0.8-0.3-1.6-0.3-1.6c0,0-4.9-19.4-4.9-19.4h-4.1l-5,19.4
		c0,0-0.2,1-0.3,1.9c-0.5-2.5-4.7-21.2-4.7-21.2h-4.1l6.3,27.8h4.2l5.2-19.7c0,0,0.2-1,0.4-1.9c0.2,0.9,0.4,1.9,0.4,1.9
		c0,0,5.1,19.7,5.1,19.7h4.2l6.5-27.8H303H299.6z"/>
	<path class="st0" d="M331.4,54.4h-0.3h-3.8l-11.4,27.8h4.1c0,0,2.9-7,3.1-7.5c0.5,0,11,0,11.5,0c0.2,0.4,2.8,7.5,2.8,7.5h4.6
		L331.4,54.4z M333.2,71.4c-0.9,0-7.9,0-8.8,0c0.3-0.9,4-9.8,4.6-11.2C329.5,61.6,332.9,70.5,333.2,71.4z"/>
</g>
<g>
	<path class="st0" d="M107.3,14.3l-1.7-0.7c-1.6-0.7-2.7-1.2-3.5-1.7c-1.4-0.9-2.1-2-2.1-3.5c0-1.3,0.5-2.3,1.4-3c0.9-0.6,2-1,3.4-1
		l2.3,0.3c1.3,0.3,1.9,1,1.9,1.9v0.5h4.3V6.7c0-2.1-0.9-3.6-2.8-4.6c-1.4-0.7-3.2-1.1-5.3-1.1c-2.7,0-4.9,0.6-6.5,1.8
		c-1.9,1.3-2.9,3.3-2.9,6c0,1.2,0.2,2.3,0.7,3.3c1,2,3.2,3.7,6.7,5.1l1.4,0.6c1.7,0.7,2.8,1.3,3.5,1.8c1.2,0.9,1.7,1.9,1.7,3.1
		c0,1.4-0.5,2.5-1.5,3.3c-0.9,0.8-2.2,1.2-3.6,1.2c-3.7,0-5.5-1.2-5.5-3.7V23h-4.3v0.5c0,1.4,0.4,2.7,1.1,3.9
		c1.4,2.2,4.3,3.3,8.5,3.3c2.2,0,4-0.4,5.3-1c1.3-0.7,2.4-1.7,3.1-3c0.8-1.3,1.2-2.7,1.2-4.2c0-2-0.7-3.8-2.1-5.2
		C111,16.2,109.4,15.2,107.3,14.3z"/>
	<path class="st0" d="M144.3,1.9l-4.5,19.6c0,0-0.2,0.9-0.3,1.7c-0.1-0.8-0.3-1.7-0.3-1.7c0,0-4.9-19.6-4.9-19.6h-4.1l-5.1,19.5
		c0,0-0.2,1-0.4,1.9c-0.5-2.4-4.7-21.4-4.7-21.4h-4.1l6.4,28h4.2l5.2-19.8c0,0,0.2-1,0.3-1.9c0.2,0.9,0.3,1.9,0.3,1.9
		c0,0,5.1,19.9,5.1,19.9h4.2l6.5-28h-0.5H144.3z"/>
	<polygon class="st0" points="151.1,1.9 151.1,29.9 155.3,29.9 155.3,1.9 155,1.9 	"/>
	<path class="st0" d="M171.3,14.3l-1.7-0.7c-1.6-0.7-2.7-1.2-3.5-1.7c-1.4-0.9-2.1-2-2.1-3.5c0-1.3,0.5-2.3,1.4-3c0.9-0.6,2-1,3.3-1
		l2.3,0.3c1.3,0.3,1.9,1,1.9,1.9v0.5h4.3V6.7c0-2.1-0.9-3.6-2.8-4.6c-1.4-0.7-3.2-1.1-5.3-1.1c-2.7,0-4.9,0.6-6.5,1.8
		c-1.9,1.3-2.9,3.3-2.9,6c0,1.2,0.2,2.3,0.7,3.3c1,2,3.2,3.7,6.7,5.1l1.4,0.6c1.7,0.7,2.8,1.3,3.5,1.8c1.2,0.9,1.7,1.9,1.7,3.1
		c0,1.4-0.5,2.5-1.5,3.3c-0.9,0.8-2.2,1.2-3.6,1.2c-3.7,0-5.5-1.2-5.5-3.7V23h-4.3v0.5c0,1.4,0.4,2.7,1.1,3.9
		c1.4,2.2,4.3,3.3,8.5,3.3c2.2,0,4-0.4,5.3-1c1.3-0.7,2.4-1.7,3.1-3c0.8-1.3,1.2-2.7,1.2-4.2c0-2-0.7-3.8-2.1-5.2
		C175,16.2,173.4,15.2,171.3,14.3z"/>
	<path class="st0" d="M192.9,14.3l-1.7-0.7c-1.6-0.7-2.7-1.2-3.5-1.7c-1.4-0.9-2.1-2-2.1-3.5c0-1.3,0.5-2.3,1.4-3c0.9-0.6,2-1,3.4-1
		l2.3,0.3c1.3,0.3,1.9,1,1.9,1.9v0.5h4.3V6.7c0-2.1-0.9-3.6-2.8-4.6c-1.4-0.7-3.2-1.1-5.3-1.1c-2.7,0-4.9,0.6-6.5,1.8
		c-1.9,1.3-2.9,3.3-2.9,6c0,1.2,0.2,2.3,0.7,3.3c1,2,3.2,3.7,6.7,5.1l1.4,0.6c1.6,0.7,2.8,1.3,3.5,1.8c1.2,0.9,1.7,1.9,1.7,3.1
		c0,1.4-0.5,2.5-1.5,3.3c-0.9,0.8-2.2,1.2-3.6,1.2c-3.7,0-5.5-1.2-5.5-3.7V23h-4.3v0.5c0,1.4,0.4,2.7,1.1,3.9
		c1.4,2.2,4.3,3.3,8.5,3.3c2.2,0,4-0.4,5.3-1c1.3-0.7,2.4-1.7,3.1-3c0.8-1.3,1.2-2.7,1.2-4.2c0-2-0.7-3.8-2.1-5.2
		C196.6,16.2,195,15.2,192.9,14.3z"/>
	<path class="st0" d="M234.5,1.9c0,0-7,17.4-7.6,18.9c-0.6-1.5-8.2-18.9-8.2-18.9h-4v28h3.7V13.2c0,0,0-1.3-0.1-2.5
		c0.5,1.3,1,2.6,1,2.6c0,0,5.4,12.4,5.4,12.4h4.1l4.9-12.4c0,0,0.6-1.8,1.1-3.2c0,3.1-0.1,19.7-0.1,19.7h3.9v-28h-0.4H234.5z"/>
	<polygon class="st0" points="242.8,1.9 242.8,29.9 247,29.9 247,1.9 246.7,1.9 	"/>
	<path class="st0" d="M255.5,1.9h-0.4h-3.9v28h18.6v-3.7c0,0-13.6,0-14.3,0C255.5,25.4,255.5,1.9,255.5,1.9z"/>
	<polygon class="st0" points="272.1,1.9 272.1,29.9 276.4,29.9 276.4,1.9 276,1.9 	"/>
	<path class="st0" d="M301.3,1.9h-0.4h-22.3v3.5c0,0,8.6,0,9.3,0c0,0.7,0,24.6,0,24.6h4.2c0,0,0-23.8,0-24.6c0.7,0,9.1,0,9.1,0V1.9z
		"/>
	<path class="st0" d="M316.5,1.9h-3.8l-11.5,28h4.1c0,0,2.9-7.1,3.1-7.5c0.5,0,11,0,11.5,0c0.2,0.4,2.8,7.5,2.8,7.5h4.6l-10.6-28
		H316.5z M318.6,18.9c-0.9,0-7.9,0-8.8,0c0.3-0.9,4-9.8,4.6-11.2C314.9,9.1,318.3,18,318.6,18.9z"/>
	<path class="st0" d="M343.2,19.4c-0.6-0.9-1.3-1.6-2-2.1c1.3-0.6,2.4-1.2,3-1.9c1.6-1.7,2.4-3.7,2.4-6c0-1.4-0.3-2.7-1-3.9
		c-0.8-1.4-1.8-2.4-3.2-3c-1.1-0.5-2.5-0.7-4.3-0.7h-8.4h-0.4v28h4.3c0,0,0-11,0-11.7c0.6,0,2.8,0,3.1,0c1.4,1.2,2.5,2.7,3.4,4.4
		l3.9,7.4h4.9l-4.6-8.6L343.2,19.4z M333.7,5.3c0.6,0,3.4,0,3.4,0c1.5,0,2.6,0.2,3.3,0.6c1.3,0.9,1.9,2.1,1.9,3.7
		c0,0.9-0.2,1.8-0.6,2.6c-0.9,1.7-2.4,2.5-4.8,2.5c0,0-2.5,0-3.1,0C333.7,14,333.7,6,333.7,5.3z"/>
	<path class="st0" d="M370.4,1.9h-3.7c0,0-6,9.8-6.5,10.7c-0.6-0.9-6.6-10.7-6.6-10.7h-5c0,0,9,14.7,9.1,14.9c0,0.2,0,13.1,0,13.1
		h4.3c0,0,0-12.9,0-13.1c0.1-0.2,9-14.9,9-14.9H370.4z"/>
</g>
<polygon class="st0" points="370.3,40.5 95,40.5 95,43.4 370.6,43.4 370.6,40.5 "/>
<path fill="none" d="M85.9,12.7L74.1,1.1L73.9,1h-0.2H13.1h-0.2l-0.1,0.1L1.1,12.7L1,12.8V13v58.9v0.2l0.1,0.1l11.7,11.6l0.1,0.1
	h0.2h60.7h0.2l0.1-0.1l11.9-11.6l0.1-0.1v-0.2V13v-0.2L85.9,12.7z M81,69.3l-10,9.8H15.8L6,69.3V15.6l9.9-9.8H71l10,9.8V69.3z"/>
<path class="st1" d="M81,69.3l-10,9.8H15.8L6,69.3V15.6l9.9-9.8H71l10,9.8V69.3z"/>
<polygon id="logo_-_Kreuz_2_" fill="#f5f5f5" points="69.8,33.3 52.7,33.3 52.7,16.2 34.4,16.2 34.4,33.3 17.3,33.3 17.3,51.6
	34.4,51.6 34.4,68.7 52.7,68.7 52.7,51.6 69.8,51.6 "/>
</svg>
