<svg xmlns="http://www.w3.org/2000/svg" viewBox="0 0 122.9 42.3">
    <defs>
        <style>.cls-1{fill:#8a664d;}</style>
    </defs>
    <title>Element 20</title>
    <g id="Ebene_2" data-name="Ebene 2">
        <g id="Ebene_1-2" data-name="Ebene 1">
            <g id="Ebene_2-2" data-name="Ebene 2">
                <g id="Ebene_1-2-2" data-name="Ebene 1-2">
                    <g id="Deutsch-text">
                        <path class="cls-1"
                              d="M7.5.6a2.84,2.84,0,0,0-.9,1,2.84,2.84,0,0,0-.4,1.2.76.76,0,0,1-.1.4c-.1.2,0,.4-.1.6s0,.4,0,.6V12a11.48,11.48,0,0,0,.1,1.9,6.75,6.75,0,0,0,.2,1.4,3.13,3.13,0,0,0,.5,1,3,3,0,0,0,.8.8,5.38,5.38,0,0,0,2,1,12.61,12.61,0,0,0,2.8.4,12.57,12.57,0,0,0,3.3-.5,5,5,0,0,0,2.2-1.6,2.51,2.51,0,0,0,.4-.7,2.92,2.92,0,0,0,.2-.9,4.48,4.48,0,0,0,.1-1.1V4.8a8.6,8.6,0,0,0-.1-1.6A2.66,2.66,0,0,0,18.2,2a2.36,2.36,0,0,0-.6-.9c-.3-.3-.6-.5-.9-.8h7.8a5.5,5.5,0,0,0-.9.7l-.6.9a2.66,2.66,0,0,0-.3,1.2,8.6,8.6,0,0,0-.1,1.6v8.7a2.79,2.79,0,0,1-.1,1c0,.3-.1.5-.1.8a3.09,3.09,0,0,1-.2.8,7,7,0,0,1-1.3,2.4,9.62,9.62,0,0,1-2.2,1.8,10.83,10.83,0,0,1-3,1.1,15.53,15.53,0,0,1-3.7.4A17.73,17.73,0,0,1,7,21a8.66,8.66,0,0,1-3.5-2.2,7,7,0,0,1-1.3-2.4A13.05,13.05,0,0,1,1.9,13V4.8a8.6,8.6,0,0,0-.1-1.6L1.5,2,.9,1.1A5.5,5.5,0,0,0,0,.4H7.8Z"/>
                        <path class="cls-1"
                              d="M45,21.3c.1-.2.2-.3.2-.4s.1-.2.1-.3a4.05,4.05,0,0,0-.5-.9L34,5.8V17a8.6,8.6,0,0,0,.1,1.6,2.66,2.66,0,0,0,.3,1.2,4.05,4.05,0,0,0,.5.9c.3.3.6.5.9.8H28.5a6.47,6.47,0,0,0,.9-.8,4.05,4.05,0,0,0,.5-.9c.1-.4.2-.8.3-1.1a8.08,8.08,0,0,0,.1-1.6V4.8a9.15,9.15,0,0,0-.1-1.6A2.66,2.66,0,0,0,29.9,2a4.05,4.05,0,0,0-.5-.9,6.47,6.47,0,0,0-.9-.8h7.6a.71.71,0,0,0-.3.6.75.75,0,0,0,.1.5,1.51,1.51,0,0,0,.4.8L46.9,16V4.8a7.57,7.57,0,0,0-.1-1.5,2.66,2.66,0,0,0-.3-1.2c-.1-.2-.1-.3-.2-.4a.76.76,0,0,1-.2-.4c-.1-.2-.3-.3-.4-.4L45.1.4h7.4a5.5,5.5,0,0,0-.9.7A4.7,4.7,0,0,0,51,2a2.66,2.66,0,0,0-.3,1.2,8.6,8.6,0,0,0-.1,1.6V20a1.27,1.27,0,0,0,.1.6.76.76,0,0,0,.2.4l.3.3Z"/>
                        <path class="cls-1"
                              d="M64.3.4a6.47,6.47,0,0,0-.9.8,4.05,4.05,0,0,0-.5.9c-.1.4-.2.8-.3,1.1a8.08,8.08,0,0,0-.1,1.6V17a7.57,7.57,0,0,0,.1,1.5,2.66,2.66,0,0,0,.3,1.2,2.18,2.18,0,0,0,.5.8,3.92,3.92,0,0,0,1,.8H56.6a5.5,5.5,0,0,0,.9-.7l.6-.9a2.66,2.66,0,0,0,.3-1.2,8.6,8.6,0,0,0,.1-1.6V4.8a8.6,8.6,0,0,0-.1-1.6A5.64,5.64,0,0,0,58,2a2.36,2.36,0,0,0-.6-.9,5.5,5.5,0,0,0-.9-.7Z"/>
                        <path class="cls-1"
                              d="M81,0a14.16,14.16,0,0,1,5,.8,10.89,10.89,0,0,1,3.8,2.1,8.51,8.51,0,0,1,2.4,3.3,9.57,9.57,0,0,1,.8,4.4,12.16,12.16,0,0,1-.9,4.6,10.72,10.72,0,0,1-2.5,3.5A10.9,10.9,0,0,1,85.7,21a18.21,18.21,0,0,1-5.2.8,15.28,15.28,0,0,1-5.2-.8,10.49,10.49,0,0,1-4-2.2,9.66,9.66,0,0,1-2.6-3.4,13,13,0,0,1-.6-4.4A12.16,12.16,0,0,1,69,6.4a11,11,0,0,1,2.6-3.5,12,12,0,0,1,4-2.2A20,20,0,0,1,81,0Zm-.1,3.3a9,9,0,0,0-6.1,2,7.17,7.17,0,0,0-2.2,5.5,7.6,7.6,0,0,0,2,5.6,8.23,8.23,0,0,0,5.8,2,8.73,8.73,0,0,0,6-2,7.16,7.16,0,0,0,2.1-5.7,7.15,7.15,0,0,0-2-5.4A7.6,7.6,0,0,0,80.9,3.3Z"/>
                        <path class="cls-1"
                              d="M113.3,21.3c.1-.1.1-.2.2-.4s.1-.2.1-.3a2,2,0,0,0-.5-.9l-10.8-14V17a8.6,8.6,0,0,0,.1,1.6,2.66,2.66,0,0,0,.3,1.2,2.36,2.36,0,0,0,.6.9c.3.3.6.5.9.8H96.8a6.47,6.47,0,0,0,.9-.8l.6-.9c.1-.4.2-.8.3-1.1a8.08,8.08,0,0,0,.1-1.6V4.8a9.15,9.15,0,0,0-.1-1.6A2.66,2.66,0,0,0,98.3,2a2.36,2.36,0,0,0-.6-.9,6.47,6.47,0,0,0-.9-.8h7.6a1.27,1.27,0,0,0-.4.7.75.75,0,0,0,.1.5,1.79,1.79,0,0,0,.5.7L115.2,16V4.8a7.57,7.57,0,0,0-.1-1.5,2.66,2.66,0,0,0-.3-1.2c-.1-.2-.1-.3-.2-.4s-.2-.3-.3-.4-.2-.3-.4-.4l-.6-.5h7.4a5.5,5.5,0,0,0-.9.7l-.6.9a2.66,2.66,0,0,0-.3,1.2,8.6,8.6,0,0,1,.1,1.6V20a1.27,1.27,0,0,0,.1.6.76.76,0,0,0,.2.4l.3.3Z"/>
                        <path class="cls-1"
                              d="M6.6,35.9h4.2v4.5a6.61,6.61,0,0,1-2,1.4,5.37,5.37,0,0,1-2.1.5,4.84,4.84,0,0,1-2.6-.7,4.63,4.63,0,0,1-1.8-2.1,7.54,7.54,0,0,1-.7-3.3,8.42,8.42,0,0,1,.7-3.5A5.1,5.1,0,0,1,4,30.6a4.84,4.84,0,0,1,2.6-.7,4.06,4.06,0,0,1,1.9.4,3.48,3.48,0,0,1,1.3,1.1,5,5,0,0,1,.8,2l-1.2.4a4,4,0,0,0-.6-1.5,3.92,3.92,0,0,0-1-.8,3.08,3.08,0,0,0-1.3-.3,3.45,3.45,0,0,0-1.8.5,3.11,3.11,0,0,0-1.2,1.6A5.2,5.2,0,0,0,3,36a5.63,5.63,0,0,0,1,3.6,3.22,3.22,0,0,0,2.6,1.2,3.17,3.17,0,0,0,1.6-.4,3.81,3.81,0,0,0,1.3-.9V37.3H6.6Z"/>
                        <path class="cls-1" d="M13.9,30h1.3V40.7h4.9v1.4H14V30Z"/>
                        <path class="cls-1"
                              d="M25.9,30h1.4l4,12H29.8l-1.1-3.6H24.6L23.5,42H22.1Zm2.4,7.1-1-3.3c-.3-1-.6-1.9-.7-2.5a18.92,18.92,0,0,1-.5,2.3L25,37.1Z"/>
                        <path class="cls-1"
                              d="M34.4,38.1a2.69,2.69,0,0,0,.5,1.5,2.19,2.19,0,0,0,1,.9,4,4,0,0,0,1.5.3,2.79,2.79,0,0,0,1.8-.6,1.72,1.72,0,0,0,.6-1.5,2.92,2.92,0,0,0-.2-.9,2.34,2.34,0,0,0-.7-.7,11.76,11.76,0,0,0-2-.7,7,7,0,0,1-2-.8,2.44,2.44,0,0,1-.9-1.1,3.71,3.71,0,0,1,.6-3.9,3.84,3.84,0,0,1,2.5-.9,4.06,4.06,0,0,1,1.9.4,3.74,3.74,0,0,1,1.3,1.2,4.14,4.14,0,0,1,.5,1.9l-1.3.1a2.87,2.87,0,0,0-.7-1.8,2.72,2.72,0,0,0-1.7-.6,2.62,2.62,0,0,0-1.7.5,1.3,1.3,0,0,0-.5,1.3,1.5,1.5,0,0,0,.4,1.1,4.55,4.55,0,0,0,1.9.8,11.76,11.76,0,0,1,2,.7,4.07,4.07,0,0,1,1.4,1.2,3.74,3.74,0,0,1,.5,1.8,3.2,3.2,0,0,1-.5,1.9,3.25,3.25,0,0,1-1.3,1.3,4.55,4.55,0,0,1-2,.5,3.56,3.56,0,0,1-2.9-1.1,3.77,3.77,0,0,1-1.1-3Z"/>
                        <path class="cls-1" d="M44.2,30h1.3v5h5.1V30H52V42H50.7V36.4H45.5v5.7H44.2Z"/>
                        <path class="cls-1"
                              d="M62,30h1.3v7a12.65,12.65,0,0,1-.3,2.8,3.6,3.6,0,0,1-1.2,1.8,3.79,3.79,0,0,1-2.3.6A3.25,3.25,0,0,1,56.6,41c-.7-.8-1-2.2-1-4.1v-7h1.3v7a9.74,9.74,0,0,0,.2,2.4,1.78,1.78,0,0,0,.8,1.1,2.3,2.3,0,0,0,1.4.4,2.17,2.17,0,0,0,2-.8,5.47,5.47,0,0,0,.7-3.1Zm-4.5-1.5V26.9h1.3v1.7Zm2.5,0V26.9h1.3v1.7Z"/>
                        <path class="cls-1" d="M68.9,31.5H65.7V30h7.8v1.4H70.2V42H68.9Z"/>
                        <path class="cls-1" d="M78.3,31.5H75V30h7.8v1.4H79.6V42H78.3Z"/>
                        <path class="cls-1" d="M85.4,30h7.1v1.4H86.7v3.7h5.4v1.4H86.7v4.1h6.1V42H85.4Z"/>
                        <path class="cls-1" d="M98,29.8h1L96.2,42.2h-1Z"/>
                        <path class="cls-1"
                              d="M102,38.1a3.71,3.71,0,0,0,.4,1.5,2.19,2.19,0,0,0,1,.9,4,4,0,0,0,1.5.3,2.79,2.79,0,0,0,1.8-.6,1.72,1.72,0,0,0,.6-1.5,1.7,1.7,0,0,0-.9-1.6,11.76,11.76,0,0,0-2-.7,7,7,0,0,1-2-.8,2.44,2.44,0,0,1-.9-1.1,4,4,0,0,1-.3-1.5,3.11,3.11,0,0,1,3.4-3.3,4.06,4.06,0,0,1,1.9.4,3.74,3.74,0,0,1,1.3,1.2,4.14,4.14,0,0,1,.5,1.9l-1.3.1a2.88,2.88,0,0,0-.7-1.8,2.72,2.72,0,0,0-1.7-.6,2.62,2.62,0,0,0-1.7.5,1.61,1.61,0,0,0-.6,1.3,1.5,1.5,0,0,0,.4,1.1,4.55,4.55,0,0,0,1.9.8,17.23,17.23,0,0,1,2.1.7,4.07,4.07,0,0,1,1.4,1.2,2.83,2.83,0,0,1,.4,1.8,3.2,3.2,0,0,1-.5,1.9,3.25,3.25,0,0,1-1.3,1.3,4.55,4.55,0,0,1-2,.5,3.44,3.44,0,0,1-2.9-1.1,3.77,3.77,0,0,1-1.1-3Z"/>
                        <path class="cls-1"
                              d="M114.4,30h1.4l4,12h-1.5l-1.1-3.6h-4.1L112,42.1h-1.4Zm2.4,7.1-1-3.3c-.3-1-.6-1.9-.7-2.5a18.92,18.92,0,0,1-.5,2.3l-1.1,3.5Z"/>
                        <path class="cls-1" d="M121.5,40.4h1.4v1.7h-1.4Z"/>
                    </g>
                </g>
            </g>
        </g>
    </g>
</svg>
