<?xml version="1.0" encoding="utf-8"?>
<!-- Generator: Adobe Illustrator 22.0.1, SVG Export Plug-In . SVG Version: 6.00 Build 0)  -->
<svg version="1.1" id="Calque_2" xmlns="http://www.w3.org/2000/svg" xmlns:xlink="http://www.w3.org/1999/xlink" x="0px" y="0px"
	 viewBox="0 0 747.5 113.4" style="enable-background:new 0 0 747.5 113.4;" xml:space="preserve">
<style type="text/css">
	.st0{fill:#C9A083;}
</style>
<g>
	<path class="st0" d="M329.4,56.7L324.8,44l23.6,10.2c0.2,0.1,0.4,0.1,0.6,0.1c0.5,0,0.9-0.2,1.2-0.5l0,0c0.3-0.3,0.5-0.7,0.5-1.2
		c0-0.2,0-0.4-0.1-0.6l-10.2-23.6l12.7,4.6l0,0l12.7-4.6l-10.2,23.6c-0.1,0.2-0.1,0.4-0.1,0.6c0,0.5,0.2,0.9,0.5,1.2l0,0
		c0.3,0.3,0.7,0.5,1.2,0.5c0.2,0,0.4,0,0.6-0.1L381.5,44l-4.6,12.7l4.6,12.7L358,59.3c-0.2-0.1-0.4-0.1-0.6-0.1
		c-0.5,0-0.9,0.2-1.2,0.5l0,0c-0.3,0.3-0.5,0.7-0.5,1.2c0,0.2,0,0.4,0.1,0.6L365.9,85l-12.7-4.6L340.4,85l10.2-23.6
		c0.1-0.2,0.1-0.4,0.1-0.6c0-0.5-0.2-0.9-0.5-1.2l0,0c-0.3-0.3-0.7-0.5-1.2-0.5c-0.2,0-0.4,0-0.6,0.1l-23.6,10.2L329.4,56.7z"/>
	<g>
		<path class="st0" d="M58.3,33L46.4,80.5h-6.2L28.3,33h7.3l7.7,35.9L51.1,33H58.3z"/>
		<path class="st0" d="M91,80.5h-7.4L81.2,71h-13l-2.5,9.5h-7.4L70.6,33H79L91,80.5z M70.5,62.8h9l-4.7-18.5L70.5,62.8z"/>
		<path class="st0" d="M126.2,64.3c0,4.8-2.1,10.3-4.7,13.1c-2.1,2.2-6,4.4-10.3,4.6c-7.8,0.3-13.2-6.5-15.1-16.5
			c-0.4-2.2-0.7-5.2-0.7-8.3c0-3.2,0.2-6.5,0.8-9.1c2-8.9,6.2-15.9,15.3-15.9c2.5,0,6,0.4,9.4,3.7c5.1,4.6,5.3,10.8,5.3,13.2h-6.9
			c-0.2-2.7-1.8-9.4-8.9-8.7c-3.3,0.3-5.8,3.5-7,7.6c-0.5,1.7-1,4.8-1.1,8.2c-0.1,3.4,0.1,7,1.1,10c1.2,3.5,2.7,5.5,4.5,6.7
			c0.9,0.5,1.8,0.8,2.8,0.8c1,0.1,2-0.1,3-0.5c5-1.9,5.1-6.7,5.4-8.8H126.2z"/>
		<path class="st0" d="M132.6,33h7.2v17.9h13.9V33h7.2v47.6h-7.2V59h-13.9v21.5h-7.2V33z"/>
		<path class="st0" d="M194.6,33v8.2h-18.2v10.8h16.8v8.2h-16.8v12.3h19v8.2h-26.2V33H194.6z"/>
		<path class="st0" d="M202.7,33h19.5c3.5,0.2,7.1,2.4,8.1,7.6c0.5,2.1,1.2,5.5,0.3,9.6c-0.9,4.1-2.4,5.6-4.8,7.5
			c1.2,1.1,3.5,2.3,3.9,6.6c0.2,2,0.3,8.2,0.3,10.6c0,2.7,0.6,3.3,1.3,3.9v1.8h-7.7c-0.6-1.4-0.9-2.9-1-4.4c-0.1-2.3-0.1-6.1,0-9.6
			c-0.1-3.2-1.8-4.8-4.3-4.8h-8.5v18.8h-7.2V33z M209.9,53.6h9.9c1.7,0,4.7-2.4,4.3-7.1c0-3.4-1.2-5.3-4.4-5.3h-9.8V53.6z"/>
		<path class="st0" d="M265.4,76.1c-2.9,4.1-7.2,5.9-11.7,5.9c-4.5,0-8.8-1.8-11.7-5.9c-3.3-4.6-5.2-11.8-5.2-19
			c0-7.2,1.9-14.3,5.2-19c2.9-4.1,7.2-5.9,11.7-5.9c4.5,0,8.8,1.8,11.7,5.9c3.3,4.6,5.2,11.8,5.2,19
			C270.6,64.3,268.7,71.5,265.4,76.1z M260.2,70.3c2.3-2.9,3.5-8,3.5-13.2c0-5.2-1.2-10.3-3.5-13.2c-1.8-2.3-4.1-3.2-6.5-3.2
			c-2.3,0-4.6,0.9-6.4,3.2c-2.3,2.9-3.5,8-3.5,13.2c0,5.2,1.2,10.3,3.5,13.2c1.8,2.3,4.1,3.2,6.4,3.2
			C256,73.5,258.3,72.6,260.2,70.3z"/>
		<path class="st0" d="M284.1,33l14.2,32.7V33h7.2v47.6h-7.1l-14.2-33.1v33.1H277V33H284.1z"/>
		<path class="st0" d="M431.7,64.3c0,4.8-2.1,10.3-4.7,13.1c-2.1,2.2-6,4.4-10.3,4.6c-7.8,0.3-13.2-6.5-15.1-16.5
			c-0.4-2.2-0.7-5.2-0.7-8.3c0-3.2,0.2-6.5,0.8-9.1c2-8.9,6.2-15.9,15.3-15.9c2.5,0,6,0.4,9.4,3.7c5.1,4.6,5.3,10.8,5.3,13.2h-6.9
			c-0.2-2.7-1.8-9.4-8.9-8.7c-3.3,0.3-5.8,3.5-7,7.6c-0.5,1.7-1,4.8-1.1,8.2c-0.1,3.4,0.1,7,1.1,10c1.2,3.5,2.7,5.5,4.5,6.7
			c0.9,0.5,1.8,0.8,2.8,0.8c1,0.1,2-0.1,3-0.5c5-1.9,5.1-6.7,5.4-8.8H431.7z"/>
		<path class="st0" d="M465.3,76.1c-2.9,4.1-7.2,5.9-11.7,5.9c-4.5,0-8.8-1.8-11.7-5.9c-3.3-4.6-5.2-11.8-5.2-19
			c0-7.2,1.9-14.3,5.2-19c2.9-4.1,7.2-5.9,11.7-5.9c4.5,0,8.8,1.8,11.7,5.9c3.3,4.6,5.2,11.8,5.2,19
			C470.5,64.3,468.6,71.5,465.3,76.1z M460.1,70.3c2.3-2.9,3.5-8,3.5-13.2c0-5.2-1.2-10.3-3.5-13.2c-1.8-2.3-4.1-3.2-6.4-3.2
			c-2.3,0-4.6,0.9-6.5,3.2c-2.3,2.9-3.5,8-3.5,13.2c0,5.2,1.2,10.3,3.5,13.2c1.8,2.3,4.1,3.2,6.5,3.2
			C455.9,73.5,458.3,72.6,460.1,70.3z"/>
		<path class="st0" d="M484,33l14.2,32.7V33h7.2v47.6h-7.1l-14.2-33.1v33.1h-7.2V33H484z"/>
		<path class="st0" d="M532.2,47.5c0.1-3.8-2.3-7.4-7.2-7.5c-3.5-0.1-6.1,1.6-6.3,5.5c-0.2,3.3,0.6,3.9,2.2,4.8
			c0.8,1.2,7.5,2.6,8.8,2.9c1.9,0.5,6.1,1.6,8.3,4.7c4,5.7,2.2,17-2.2,20.9c-3,2.6-7.1,3.3-11,3.3c-1.8,0.1-6-0.8-8.6-3.3
			c-3.1-3.1-4.7-7.8-4.9-12.3h7c0,1.2,0.3,3.2,1.5,4.9c1.6,2.2,4.2,2.9,6.6,2.8c2.4-0.1,4.7-1,5.6-2.2c1.5-2,1.9-5.7,0.1-8
			c-2.3-3.3-9.2-3.3-13.8-5.3c-3.8-1.8-6.9-5.5-6.4-13.2c0.6-7.6,4.6-13.2,13.2-13.2c1.9,0,8.4,0.2,11.8,6.1c1.8,3.2,2.3,7.6,2,9.2
			H532.2z"/>
		<path class="st0" d="M571.9,33v8.2h-10.2v39.4h-7.2V41.1h-10.6V33H571.9z"/>
		<path class="st0" d="M603.5,80.5h-7.4l-2.4-9.5h-13l-2.5,9.5h-7.5L583.2,33h8.3L603.5,80.5z M583,62.8h9l-4.7-18.5L583,62.8z"/>
		<path class="st0" d="M616.2,33l14.2,32.7V33h7.2v47.6h-7.1l-14.2-33.1v33.1H609V33H616.2z"/>
		<path class="st0" d="M670.6,33v8.2h-10.3v39.4h-7.2V41.1h-10.6V33H670.6z"/>
		<path class="st0" d="M682.8,80.5h-7.2V33h7.2V80.5z"/>
		<path class="st0" d="M697.7,33l14.2,32.7V33h7.2v47.6H712l-14.2-33.1v33.1h-7.2V33H697.7z"/>
	</g>
</g>
</svg>
