<?xml version="1.0" encoding="utf-8"?>
<svg width="128" height="58" viewBox="0 0 128 58" xmlns="http://www.w3.org/2000/svg">
    <g fill="inherit" fill-rule="evenodd">
        <path d="M18.17 34.045v-2.378H.97v2.55h12.152L0 44.52v2.442h18.384V44.41H4.99zm10.721 6.297h11.571v-2.55H28.891v-3.576h11.948v-2.548H25.363v15.291H41.11v-2.55H28.891zm34.713 2.572L51.642 31.667h-3.785V46.96h3.53V35.714l11.96 11.245h3.785V31.667h-3.528zm11.861 4.046h3.528V31.667h-3.528zm9.396-12.743h7.28V46.96h3.528V34.217h7.28v-2.55H84.86zm39.099-2.549v6.122h-11.765v-6.122h-3.526v15.291h3.526V40.34h11.766v6.62h3.527V31.667z"></path>
        <path d="M18.17 34.045v-2.378H.97v2.55h12.152L0 44.52v2.442h18.384V44.41H4.99zm10.721 6.297h11.571v-2.55H28.891v-3.576h11.948v-2.548H25.363v15.291H41.11v-2.55H28.891zm34.713 2.572L51.642 31.667h-3.785V46.96h3.53V35.714l11.96 11.245h3.785V31.667h-3.528zm11.861 4.046h3.528V31.667h-3.528zm9.396-12.743h7.28V46.96h3.528V34.217h7.28v-2.55H84.86zm39.099-2.549v6.122h-11.765v-6.122h-3.526v15.291h3.526V40.34h11.766v6.62h3.527V31.667zm-47.59-22.5h-9.368L64.107.264a.382.382 0 0 0-.727 0l-2.894 8.904h-9.367a.382.382 0 0 0-.225.691l7.58 5.503-2.897 8.907c-.114.351.289.643.59.426l7.577-5.503 7.579 5.503a.382.382 0 0 0 .587-.426l-2.894-8.907 7.579-5.503a.382.382 0 0 0-.225-.69zm-9.643 5.452l1.843 5.669-4.826-3.504-4.825 3.504 1.843-5.669-4.825-3.504H61.9l1.844-5.67 1.843 5.67h5.963l-4.823 3.504zM14.996 57.479h-.604l-.93-2.859-.924 2.859h-.604L10.741 53.4h.732l.796 2.916.916-2.916h.56l.916 2.916.796-2.916h.734zm4.522 0l-.314-.819H17.4l-.314.819h-.737l1.674-4.08h.558l1.676 4.08h-.739zm-1.2-3.158l-.712 1.81h1.405l-.693-1.81zm3.876-.366v3.525H21.5v-3.525h-1.258V53.4h3.209v.556zm3.522 3.559c-.474 0-.885-.154-1.2-.437-.448-.4-.441-.853-.441-1.638 0-.784-.007-1.238.442-1.64a1.77 1.77 0 0 1 1.2-.434c.84 0 1.469.442 1.63 1.255h-.706c-.11-.412-.418-.699-.925-.699a.976.976 0 0 0-.674.246c-.225.218-.276.453-.276 1.272 0 .82.051 1.055.276 1.271a.97.97 0 0 0 .674.248c.507 0 .821-.287.93-.698h.7c-.153.812-.802 1.254-1.63 1.254m5.23-.035v-1.783H29.09v1.783h-.692V53.4h.692v1.742h1.856V53.4h.693v4.079zm7.019 0v-2.728l-1.053 1.99H36.4l-1.079-1.99v2.728h-.693V53.4h.693l1.335 2.539 1.309-2.539h.693v4.079zm4.633 0l-.314-.819H40.48l-.314.819h-.737l1.674-4.08h.558l1.676 4.08h-.739zm-1.2-3.158l-.711 1.81h1.404l-.693-1.81zm5.518 3.158l-2.11-2.87v2.87h-.694V53.4h.635l2.113 2.864V53.4h.691v4.079zm3.522.035c-.93 0-1.636-.568-1.636-1.41V53.4h.693v2.677c0 .544.372.882.943.882.572 0 .951-.338.951-.882V53.4h.691v2.706c0 .84-.711 1.409-1.642 1.409m3.588-3.56V55.2h1.9v.554h-1.9v1.727h-.693V53.4h2.92v.555zm5.428 3.524l-.314-.819h-1.804l-.314.819h-.737l1.674-4.08h.558l1.676 4.08h-.739zm-1.2-3.158l-.712 1.81h1.405l-.693-1.81zm4.126 3.193c-.474 0-.886-.154-1.2-.437-.449-.4-.442-.853-.442-1.638 0-.784-.007-1.238.442-1.64a1.771 1.771 0 0 1 1.2-.434c.841 0 1.47.442 1.63 1.255h-.705c-.11-.412-.418-.699-.925-.699a.976.976 0 0 0-.674.246c-.225.218-.277.453-.277 1.272 0 .82.052 1.055.277 1.271a.97.97 0 0 0 .674.248c.507 0 .82-.287.93-.698h.7c-.154.812-.802 1.254-1.63 1.254m4.1-3.559v3.525h-.693v-3.525H64.53V53.4h3.209v.556zm3.74 3.559c-.93 0-1.636-.568-1.636-1.41V53.4h.693v2.677c0 .544.372.882.943.882.572 0 .95-.338.95-.882V53.4h.692v2.706c0 .84-.712 1.409-1.642 1.409m5.416-.036l-.963-1.72h-.865v1.72h-.693v-4.08h1.77c.867 0 1.418.5 1.418 1.192 0 .585-.397.957-.911 1.083l1.053 1.805h-.81zm-.802-3.524h-1.026v1.277h1.026c.462 0 .776-.233.776-.634 0-.403-.314-.643-.776-.643zm2.611 3.524V53.4h2.92v.555h-2.227v1.192h1.9v.55h-1.9v1.226h2.228v.556zm6.879.035c-.687 0-1.18-.144-1.616-.54l.46-.405c.335.296.7.389 1.17.389.596 0 .942-.23.942-.625 0-.177-.058-.326-.18-.425-.115-.097-.23-.136-.5-.172l-.538-.066c-.373-.048-.668-.16-.867-.328-.224-.19-.333-.447-.333-.78 0-.71.577-1.197 1.527-1.197.603 0 1.026.136 1.417.464l-.442.39c-.282-.24-.61-.315-.995-.315-.538 0-.833.275-.833.636 0 .149.05.28.172.377.116.092.302.162.514.19l.519.07c.425.056.662.148.853.302.251.196.372.487.372.837 0 .75-.686 1.198-1.642 1.198m2.702-.036h.693v-4.079h-.693zm4.818.001l-2.11-2.87v2.87h-.694V53.4h.635l2.111 2.864V53.4h.693v4.079zm3.433.035c-.474 0-.886-.154-1.2-.437-.448-.4-.442-.853-.442-1.638 0-.784-.006-1.238.442-1.64a1.771 1.771 0 0 1 1.2-.434c.842 0 1.47.442 1.63 1.255h-.705c-.11-.412-.418-.699-.925-.699a.976.976 0 0 0-.674.246c-.223.218-.276.453-.276 1.272 0 .82.053 1.055.276 1.271a.97.97 0 0 0 .674.248c.507 0 .821-.287.93-.698h.7c-.154.812-.802 1.254-1.63 1.254m2.683-.035V53.4h2.92v.555h-2.227v1.192h1.9v.55h-1.9v1.226h2.227v.556zm6.692 0v-3.442l-.893.697v-.646l.893-.688h.653v4.079zm3.631.035c-.781 0-1.404-.447-1.404-1.188 0-.486.307-.784.628-.955-.295-.16-.551-.447-.551-.877 0-.682.583-1.13 1.327-1.13s1.335.448 1.335 1.13c0 .43-.256.717-.551.877.32.17.628.47.628.955 0 .74-.628 1.188-1.412 1.188m0-1.88c-.423 0-.75.303-.75.682 0 .379.327.676.75.676.424 0 .751-.297.751-.676 0-.379-.327-.682-.75-.682m0-1.747c-.398 0-.675.268-.675.624 0 .362.277.62.674.62.398 0 .681-.258.681-.62 0-.356-.283-.624-.68-.624m3.553 3.627c-.788 0-1.353-.464-1.353-1.22 0-.333.142-.648.34-1.003l1.04-1.892h.699l-.982 1.754c.122-.046.263-.063.405-.063.66 0 1.2.465 1.2 1.18 0 .75-.558 1.244-1.349 1.244m-.005-1.937c-.411 0-.693.263-.693.705 0 .435.282.711.693.711.41 0 .7-.276.7-.711 0-.4-.265-.705-.7-.705m4.529 1.622c-.204.184-.518.32-.962.32-.437 0-.777-.136-.975-.315-.244-.217-.32-.486-.346-.78h.654c.05.362.257.568.667.568.193 0 .36-.058.474-.16.193-.172.219-.442.219-.716 0-.487-.142-.853-.666-.853-.374 0-.578.165-.648.366h-.598V53.4h2.463v.523h-1.872v1.076c.153-.143.423-.234.756-.234.36 0 .635.098.82.263.347.309.4.705.4 1.089 0 .435-.053.784-.386 1.083"></path>
    </g>
</svg>
